<?xml version="1.0" encoding="UTF-8"?>
<svg id="Ebene_2" data-name="Ebene 2" xmlns="http://www.w3.org/2000/svg" viewBox="0 0 995.14 1000.01">
  <defs>
    <style>
      .cls-1 {
        fill: #ff6b35;
      }
    </style>
  </defs>
  <g id="Ebene_1-2" data-name="Ebene 1">
    <path class="cls-1" d="M513,0c7.3,5.6,15.9,10.2,21.6,17.1,16.4,20.1,11.1,49.5-11.3,64.5-5.4,3.7-7.3,7.3-7.2,13.5,.3,19.4,.1,38.7,.1,57.5,194.7,22.8,329.6,121.6,377.7,313.6,44.3,176.8-19.2,321.3-161.6,433.6,13.1,13,26.4,26.3,39.9,39.6,9.4,9.3,13.6,20.4,10.8,33.6-5.7,26.2-37,36-57.2,17.4-16.7-15.4-32.6-31.8-48.3-48.2-5.9-6.1-10.3-7.7-18.9-4-107.6,45.4-215.3,45.1-322.7-.7-7.4-3.2-11.2-1.7-16.2,3.5-15.5,16.1-31.5,31.9-47.4,47.6-14.8,14.6-36.4,15.2-50.1,1.6-13.9-13.8-13.4-34.9,1.3-50,6.8-7,13.7-13.8,20.6-20.6,6.6-6.6,13.3-13.1,19.5-19.2C106.8,772.9,49.6,613.9,115.5,420c46.9-138,183.1-255.6,364.4-266.1,0-21.4,.1-43-.2-64.5,0-2-2.3-4.7-4.2-5.7-31-15.9-31.9-64.6,4.1-81.4,.9-.4,1.4-1.5,2-2.3h31.4Zm299.2,563c.5-172.4-141.6-314.6-314.1-314.4-172.6,.3-313.4,140.8-314.3,313.4-.9,172.2,140.3,313.7,313.8,314.6,172.6,.8,314.1-140.3,314.6-313.6ZM0,228.5c3.8-17,6.1-34.5,11.6-51C39.2,95.5,95.5,42.8,180.1,25.7c87.2-17.6,160.2,11.2,217.8,79,1,1.1,1.9,2.3,2.7,3.6,.4,.6,.5,1.4,1.1,2.9C241.9,149.8,129,244.2,61.4,398.9c-1.4-3-2.3-6.4-4.4-8.8-30.7-35-48.4-75.8-54.5-121.7-.5-3.6-1.6-7.1-2.4-10.7L0,228.5h0ZM592.5,111.6c56.2-68.8,126-101,211.6-87.9,92.5,14.2,154.7,68.5,181.3,158.4,23.7,80.3,3.5,152.2-53.3,216.2-29.5-74.5-73.4-136.5-133.3-186.9-59.7-50.1-127.8-83.1-206.3-99.8Zm-62.3,428h14.6c29.1,0,58.2-.3,87.4,0,18.3,.2,31.2,13.5,31.2,31.2,.1,18.3-13.1,31.8-31.7,31.9-44.4,.2-88.8,.2-133.3,0-19.3-.1-32.1-13-32.1-32.6-.2-67.9-.1-135.9,0-203.8,0-19.8,14.2-34.1,32.6-33.7,17.9,.3,31.3,14.6,31.4,33.9,.1,53,0,106,0,159-.1,4.2-.1,8.6-.1,14.1h0Z"/>
  </g>
</svg>