<?xml version="1.0" encoding="UTF-8"?>
<svg id="Ebene_2" data-name="Ebene 2" xmlns="http://www.w3.org/2000/svg" viewBox="0 0 874.94 856.11">
  <defs>
    <style>
      .cls-1 {
        fill: #ff6b35;
      }
    </style>
  </defs>
  <g id="Ebene_1-2" data-name="Ebene 1">
    <path class="cls-1" d="M259.98,412.71c1.9,1.2,2.6,2.4,2.1,4.7-2.6,12.1-3.7,24.5-3,36.9,.2,3-.6,4.7-3.5,5.9-11.7,4.8-23.3,9.8-34.9,14.7-7,3-14,6-21,8.9l-2.4,.9c-1.3,.4-1.3,4.2,.1,8.5,5.7,17.5,11.4,35,17.2,52.5,1.4,4.3,6,6.9,10.4,5.9,5.5-1.3,11-2.5,16.4-3.7,12.8-2.8,25.7-5.3,38.4-8.3,3.8-.9,5.9-.1,8.5,3.1,7.4,9.3,15.3,18.1,23.3,26.8,1.9,2,2.2,3.4,1.2,6-7.7,19-15.2,38-22.7,57.1-.2,.6-.4,1.2-.7,1.8-.4,1,2.6,3.4,6.5,5.5,16.2,8.5,32.3,17,48.6,25.5,4,2.1,9.2,.7,11.6-3,1.8-2.8,3.6-5.5,5.3-8.2,8.9-13.7,17.8-27.4,26.5-41.1,1.4-2.2,2.7-2.3,5-2.1,12.3,1.2,24.6,2.2,36.9,3,2.8,.2,4.4,.8,5.5,3.5,4.8,11.5,9.7,23,14.6,34.5,2.6,6,5.1,12.1,7.7,18.2,1.7,4.1,6.6,6.3,10.8,4.9,17.3-5.7,34.5-11.3,52-17,4.3-1.4,6.9-6.1,6-10.5l-4.2-20c-2.6-12.2-5.2-24.4-7.9-36.6-.5-2.3,.2-3.6,2.1-5.2,9.7-8,19.2-16.3,28.5-24.7,1.9-1.7,3.1-1.9,5.4-1.1,19.8,7.6,39.6,15.2,59.4,22.7l1.1,.4c.6,.2,2.8-2.9,4.9-6.8,2.7-5.1,5.4-10.2,8-15.4,6.2-12.5,12.2-25.2,18.5-37.6,1.5-2.9,.9-4.1-1.7-5.7-17.3-10.8-34.6-21.8-52-32.6-2.2-1.3-3-2.6-2.3-5.2,2.9-12.4,3.8-24.9,3-37.6-.2-2.4,.6-3.6,2.6-4.5,13.5-6,27.1-12.1,40.6-18.2l12.5-5.6c4.1-1.8,6.3-6.7,4.9-11-5.6-17.3-11.3-34.4-17-51.8-1.4-4.3-6.1-6.9-10.4-6-2.9,.6-5.8,1.3-8.7,2l-46.5,11.1c-2.9,.7-4.8,.4-6.6-2.5-6.6-10.7-14.8-20.1-24.5-28.1-1.8-1.5-1.9-2.7-1.1-4.7l22.9-59.8c.8-2.1,.7-3.2-1.5-4.3-19.5-9.9-38.9-19.9-58.3-29.9-.3-.2-.6-.3-1-.5-.6-.2-2.1,1-3.3,2.8l-2.2,3.3-31.5,49.7c-1.4,2.2-2.6,2.9-5.2,2.3-12.2-2.9-24.7-3.8-37.2-3-2.7,.2-4-.6-5.1-2.9-6-13.7-12.1-27.3-18.3-40.9-1.8-3.9-3.6-7.9-5.4-11.9-1.9-4.1-6.8-6.2-11.1-4.8-17.2,5.6-34.4,11.3-51.7,16.9-4.3,1.4-6.9,6-6,10.4,.6,2.8,1.2,5.6,1.9,8.4,3.7,15.5,7.3,31,11.2,46.5,.8,3.3,.4,5.3-2.8,7.2-10.2,6.4-19.3,14.3-27.1,23.5-2.1,2.4-3.8,2.5-6.5,1.4-19.4-7.7-38.8-15.3-58.2-22.9-.5-.2-1.1-.4-1.7-.6-1-.3-2.2,.2-2.8,1.3l-1,1.9c-9.4,18.8-18.7,37.5-28.2,56.3-1.2,2.3-1.1,3.5,1.3,5,18.1,11.4,35.9,23,53.8,34.4h0Zm225.1,11.7c13.1,39.3-7.1,75.3-42.5,87.3-31.6,10.7-67-6.8-80-36.7-1.8-4.1-4.2-11-5.2-15.4-6.3-28.7,14.1-64.6,42.1-73.4,30.3-9.5,73,.6,85.6,38.2Zm346.6-251.7c13.4-4.3,26.8-8.7,40.2-13.1l2.1-.7c1.1-.4,1.3-4.2,.4-8.6-2.4-11.5-4.7-22.8-7.1-34.4-.9-4.4-4.8-7.6-8.7-7.2l-7.1,.7c-11.2,1.3-22.4,2.5-33.5,4-2.8,.4-3.5-1.2-4.6-3-4.8-7.4-9.5-14.8-14.6-21.9-1.5-2-1.7-3.3-.6-5.4,6.6-12.9,13-25.8,19.7-38.7,1.5-2.8,1.3-4.2-1.6-6-12.3-7.4-24.3-15.2-36.5-22.8-.5-.3-1.1-.7-1.7-1-1-.6-2.4-.3-3.1,.5l-1.2,1.5c-8.9,11.6-17.8,23.1-26.6,34.7-1.3,1.8-2.4,1.9-4.6,1.4-8.8-2-17.7-3.8-26.6-5.3-2.3-.4-3.6-1-4.3-3.4-4-14.3-8.3-28.5-12.4-42.7-.1-.3-.2-.6-.4-1-.2-.6-4-.3-8.3,.6l-35.8,7.4c-4.4,.9-7.5,5.3-7,9.7,.6,5.7,1.2,11.3,1.8,16.9,.8,7.2,1.7,14.3,2.2,21.5,.1,1.3-.8,3.3-1.9,4.1l-21.3,16.2c-1.8,1.4-3,1.4-4.8,.5-13.1-6.7-26.3-13.3-39.3-20.1-2.6-1.4-3.9-1.1-5.5,1.5-7.6,12.4-15.4,24.8-23.2,37.1-1.6,2.5-1.4,3.8,.9,5.6l33,26.4c2.2,1.7,2.8,3.2,2.2,6.1-1.7,8-3,16.1-3.9,24.2-.4,3.1-1.1,4.7-4.3,5.6-14.4,4-28.7,8.3-43.1,12.5-.4,.1-.8,.2-1.2,.4-.7,.2-.4,3.9,.5,8.3,2.5,11.9,4.9,23.7,7.4,35.7,.9,4.4,4.7,7.6,8.5,7.3l6.9-.7c11.3-1.3,22.6-2.6,33.9-4,2.3-.3,3.5,.5,4.7,2.4,4.6,7.1,9.3,14,14.3,20.8,1.5,2.1,1.8,3.6,.6,5.9-6.6,12.7-13,25.6-19.5,38.4-.3,.6-.8,1.2-1.3,1.8-.8,.9,.8,3.1,3.5,4.8l5,3.1c10.4,6.5,20.8,13,31.1,19.6,2.3,1.5,3.6,1.3,5.4-.9l28.4-34.3c1.5-1.8,2.7-2.1,5-1.7,8.1,1.7,16.3,3.2,24.5,4.5,2.4,.4,3.6,1.1,4.3,3.5,4.4,13.9,9,27.8,13.6,41.6l.7,2.1c.4,1.1,4.2,1.2,8.6,.2l34.1-8c4.4-1,7.5-5.4,7.1-9.9l-1.7-16.4c-.8-7.3-1.5-14.6-2.4-21.9-.3-2.1,.3-3.3,2.1-4.5,7.6-4.9,15.1-9.9,22.6-15.1,2-1.4,3.5-1.5,5.6-.3l35.7,19.1c.9,.5,1.7,1,2.6,1.6,1.4,1,4.5-1.3,6.9-5.1,6.8-10.4,13.4-20.5,20-30.7,2.4-3.7,3.7-7.4,2.9-8.1-.5-.5-1-.9-1.6-1.3-11.7-9.3-23.4-18.6-35.2-27.8-1.8-1.4-2.1-2.6-1.5-4.9,2.1-8.3,4-16.6,5.6-25,.3-2,1.1-3.2,3.4-3.9h0Zm-109.7,42.1c-27,8.6-53.8-9-60.3-30.7-8.3-27.9,5.3-55.8,34.1-63.8,22.4-6.3,50.4,9.1,57.7,32.7,10.2,30-9.4,54.7-31.5,61.8h0Zm-221.3,538.6c-31.9,10.4-64.9,15.7-98.2,15.7-136.7,0-257.2-87.4-299.7-217.5-39.8-121.5-2.9-253.9,94.1-337.3l14.9-12.8c3.4-2.9,3.9-8.2,1.2-11.7l-43.3-56c-2.7-3.5-7.7-4.1-11.1-1.2l-17.2,14.7C16.77,253.71-30.83,423.01,20.17,578.71c54.3,165.9,208,277.4,382.4,277.4,42.4,0,84.5-6.8,125.2-20.1,37.8-12.4,73.3-30.1,105.5-52.7l18.5-13c3.7-2.6,4.4-7.5,1.7-11l-43.4-55.9c-2.7-3.5-7.9-4.3-11.6-1.8l-16.1,11.2c-25,17.4-52.5,31-81.7,40.6h0Z"/>
  </g>
</svg>