<?xml version="1.0" encoding="UTF-8"?>
<svg id="Ebene_2" data-name="Ebene 2" xmlns="http://www.w3.org/2000/svg" viewBox="0 0 874.9 437.1">
  <defs>
    <style>
      .cls-1 {
        fill: #ff6b35;
      }
    </style>
  </defs>
  <g id="Ebene_1-2" data-name="Ebene 1">
    <path class="cls-1" d="M863.7,145.8h-49.9c-6.2,0-11.3-5.1-11.3-11.3V11.3c0-6.2-5.1-11.3-11.3-11.3H11.3C5.1,0,0,5.1,0,11.3V425.8c0,6.2,5.1,11.3,11.3,11.3H791.9c6.2,0,11.3-5.1,11.3-11.3v-123.2c0-6.2,5.1-11.3,11.3-11.3h49.1c6.2,0,11.3-5.1,11.3-11.3v-122.9c.1-6.2-5-11.3-11.2-11.3h0Zm-135.2,206.5c0,6.2-5.1,11.3-11.3,11.3H83.9c-6.2,0-11.3-5.1-11.3-11.3V84.9c0-6.2,5.1-11.3,11.3-11.3H717.2c6.2,0,11.3,5.1,11.3,11.3V352.3Zm-185.1-30.6c-34.3-68.8-68.8-137.5-102.8-206.4-3.1-6.4-7.5-6.4-13-6.4l-161.9,.1c-1.7,0-3.4,.1-5.1,.2-2.8,.2-4.7,1.4-4.2,2.7,.3,.9,.6,1.7,1,2.3,34.7,69.4,69.4,138.7,103.9,208.2,2.9,5.8,6.8,6.2,12.1,6.2l162.9-.1c1.5,0,3.1-.1,4.8-.3,2.6-.2,4.3-1.8,3.7-3.5-.5-1.1-.9-2.1-1.4-3h0ZM220.8,115.2c-1.6-3.1-7-6-10.7-6-31.2-.5-62.4-.3-93.6-.2-1.2,0-2.5,.1-3.7,.3-2,.3-3.7,5.6-3.7,11.9v195.4c0,6.2,5.1,11.3,11.3,11.3h194.7c6.2,0,10.8-1.4,10.3-3.1-.4-1.2-.7-2.1-1.2-3.1-34.3-68.9-68.7-137.8-103.4-206.5h0Zm460-5.6h-195c-6.2,0-10.8,1.2-10.3,2.7,.4,1,.7,1.9,1.1,2.7,34.5,69.1,68.9,138.3,103.8,207.2,1.6,3.1,7,6,10.7,6,30.8,.5,61.7,.3,92.6,.2,1.4,0,2.7-.1,4.2-.3,2.3-.2,4.2-5.5,4.2-11.7V120.9c0-6.2-5.1-11.3-11.3-11.3h0Z"/>
  </g>
</svg>