<?xml version="1.0" encoding="UTF-8"?>
<svg id="Ebene_2" data-name="Ebene 2" xmlns="http://www.w3.org/2000/svg" viewBox="0 0 505 505">
  <defs>
    <style>
      .cls-1 {
        fill: #fff;
      }

      .cls-2 {
        fill: #ff6b35;
      }
    </style>
  </defs>
  <g id="Ebene_2-2" data-name="Ebene 2">
    <circle class="cls-2" cx="252.5" cy="252.5" r="252.5"/>
    <path class="cls-1" d="M399.52,290.13l-4.77-4.77c-3.91-3.94-10.31-3.94-14.25,0l-19.78,19.82h-68.75c-4.41,0-8.06,3.62-8.06,8.06v34.94h-41.7v-111.28c6.76-8.17,16.93-13.09,27.92-13.09,14.65,0,27.92,8.75,33.53,22.31,5.68-13.56,18.84-22.31,33.53-22.31s27.92,8.75,33.53,22.31c0-72.11-57.03-130.81-128.5-133.78v-11.5c0-3.11-2.5-5.61-5.61-5.61s-5.53,2.5-5.53,5.61v11.5c-71.43,2.93-128.53,61.63-128.53,133.74,5.68-13.56,18.88-22.31,33.53-22.31s27.92,8.75,33.53,22.31c5.68-13.56,18.88-22.31,33.53-22.31,10.99,0,21.16,4.92,27.92,13.09v111.28h-49.91c-5.53,0-10.05,4.52-10.05,10.05v6.73c0,5.53,4.52,10.05,10.05,10.05h26.44l-20.11,23.29c-2.93,3.36-2.53,8.46,.83,11.39,1.52,1.3,3.4,1.95,5.24,1.95,2.28,0,4.52-.94,6.11-2.78l19.93-23.07h93.27l21.05,21.05c3.15,3.15,8.25,3.15,11.39,0s3.15-8.25,0-11.43l-20.4-20.25h24.23c5.53,0,10.05-4.48,10.05-10.05v-6.73c0-3.69-1.99-6.87-4.92-8.61l45.28-45.28c3.94-4.01,3.94-10.38,0-14.32h0ZM242.2,123.69s42.57,15.99,61.41,102.67c-8.72-8.72-20.61-13.78-33.53-13.78-10.31,0-19.96,3.4-27.92,9.22V123.69h.04Zm-72.62,102.64c-8.72-8.68-20.65-13.74-33.53-13.74-6.55,0-12.87,1.34-18.7,3.76,12.87-51.64,58.7-90.16,113.67-92.66-48.5,18.59-61.45,102.64-61.45,102.64h0Zm148.71,121.84h-18.26v-26.87h44.52l-26.26,26.87Z"/>
  </g>
</svg>