<?xml version="1.0" encoding="UTF-8"?>
<svg id="Ebene_2" data-name="Ebene 2" xmlns="http://www.w3.org/2000/svg" viewBox="0 0 875.07 557.89">
  <defs>
    <style>
      .cls-1 {
        fill: #ff6b35;
      }
    </style>
  </defs>
  <g id="Ebene_1-2" data-name="Ebene 1">
    <path class="cls-1" d="M823.22,241.09c-46.1-49-94.3-96.1-143.8-141.7-34.6-31.8-76.3-40.8-121.3-21.7-11.6,5-23,10.3-34.5,15.4-38.4,17.3-78.3,23.6-120.2,16.7-24.9-4.1-47.4-14.5-69.7-25.8-26.7-13.5-54.4-19.5-84.4-13.4-23.3,4.8-43.7,15.4-60.7,32.3-41.7,41.5-82.6,84.1-125.3,124.6C13.02,274.99-7.98,332.49,2.72,399.99c15.1,95.8,99.3,162.4,195.9,156.8,71.7-4.3,124-39.8,157.6-103.1,3.2-6.2,6-12.6,9.2-19.1,42.7,41.8,102.7,40.1,143.6-.4,1.6,3.7,2.6,6.3,3.8,8.9,35.4,82.2,122.1,129.1,208.9,110.9,71.4-15,120.7-58,143.2-127.6,22.3-69.1,7.6-132.6-41.7-185.3h0ZM188.02,517.79c-81,.3-147.6-66.6-148-148.3-.4-81.6,65.5-147.3,148.1-147.9,80.8-.6,148,65.4,148.9,146.3,.9,83-65.4,149.6-149,149.9ZM420.12,162.59c0-9.7,7.9-17.5,17.5-17.5s17.5,7.8,17.5,17.5v64.1c0,9.7-7.8,17.5-17.5,17.5s-17.5-7.8-17.5-17.5v-64.1h0Zm16.7,251.2c-24.6-.4-44.9-21.4-44.3-45.9,.6-23.5,21.1-43.3,44.7-43.3,24.5,.1,45,21,44.6,45.5-.3,24.2-20.7,44-45,43.7h0Zm246.5,104c-81.7-1.3-147.4-69.5-146-151.4,1.6-82.6,69.2-147.6,152.1-145.8,80.4,1.6,146.4,69.2,144.9,148.2-1.4,84.8-67.8,150.3-151,149ZM537.92,56.19c22.8-10.5,46.1-18.5,71.8-16.1,7.4,.7,14.7,1.8,22.6,2.8-12.6-31.6-51-49.5-85.8-40.6-34.6,8.8-60,41.7-56.4,74.8,16.2-7,32.1-13.7,47.8-20.9h0Zm-246.2-14.9c25,1.8,46.7,14,69,24.1,7.8,3.5,15.7,6.7,24,10.3,1.3-35.5-25.2-67.6-59.9-74.4-33.9-6.6-72.5,12.9-81.5,39.7,15.8,.1,32.2-.8,48.4,.3Zm482.9,247c43,43.1,41.7,107.5,13.9,144.9,3.5-46.8-8.9-85.8-40.2-117.6-31.4-31.9-70.4-44.8-116.1-42.5,35.4-25.9,99.8-27.4,142.4,15.2h0Zm-675.9,7.9c-40,47.8-28.9,112.4-6.9,135.1-3.3-44.8,9-83.8,40.3-115.6,31.4-31.9,70.4-44.8,116.1-42.5-37.7-27.6-107.2-27.5-149.5,23Z"/>
  </g>
</svg>