<?xml version="1.0" encoding="UTF-8"?>
<svg id="Ebene_2" data-name="Ebene 2" xmlns="http://www.w3.org/2000/svg" viewBox="0 0 777.9 967.1">
  <defs>
    <style>
      .cls-1 {
        fill: #243c77;
      }

      .cls-2, .cls-3, .cls-4, .cls-5 {
        stroke: #000;
        stroke-miterlimit: 10;
      }

      .cls-2, .cls-4, .cls-5 {
        fill: none;
      }

      .cls-6 {
        fill: #2488d3;
      }

      .cls-4 {
        stroke-width: 3px;
      }

      .cls-7 {
        fill: #39a534;
      }

      .cls-5 {
        stroke-width: 2px;
      }

      .cls-8 {
        fill: #ff6040;
      }

      .cls-9 {
        fill: #ff6b35;
      }
    </style>
  </defs>
  <g id="Ebene_1-2" data-name="Ebene 1">
    <circle class="cls-9" cx="170.78" cy="940.24" r="23.62"/>
    <path class="cls-4" d="M388.46,742.55c-94.19,0-182.75-36.68-249.35-103.29-66.6-66.6-103.28-155.16-103.28-249.35s36.68-182.75,103.29-249.35c66.6-66.6,155.16-103.28,249.35-103.28s182.75,36.68,249.35,103.28c66.6,66.6,103.28,155.16,103.28,249.35s-36.68,182.75-103.28,249.35c-66.61,66.6-155.16,103.29-249.35,103.29Z"/>
    <circle class="cls-2" cx="390.85" cy="387.52" r="264.43"/>
    <line class="cls-4" x1="392.38" y1="108.39" x2="392.38" y2="138.39"/>
    <g>
      <path class="cls-3" d="M537.5,136.41h-4.14v-17.5l-2.92,1.3-.79-3.6,7.85-3.96v23.76Z"/>
      <path class="cls-3" d="M543.18,114.38c.91-.55,1.96-1.01,3.15-1.37s2.37-.54,3.55-.54c1.01,0,1.93,.14,2.77,.43,.84,.29,1.57,.69,2.18,1.21s1.09,1.13,1.42,1.85c.34,.72,.5,1.51,.5,2.38,0,1.27-.32,2.31-.97,3.11-.65,.8-1.46,1.48-2.45,2.03,1.44,.48,2.56,1.2,3.37,2.16,.8,.96,1.21,2.22,1.21,3.78,0,1.01-.18,1.96-.54,2.86s-.91,1.69-1.66,2.36c-.74,.67-1.67,1.21-2.77,1.6-1.1,.4-2.39,.59-3.85,.59-2.98,0-5.42-.82-7.34-2.45l1.01-3.28c.84,.7,1.78,1.25,2.81,1.66,1.03,.41,2.14,.61,3.31,.61,1.51,0,2.66-.35,3.44-1.06,.78-.71,1.17-1.75,1.17-3.11,0-1.22-.35-2.19-1.06-2.9-.71-.71-1.89-1.06-3.55-1.06h-.97v-3.13h1.12c1.06,0,1.87-.34,2.45-1.01,.58-.67,.86-1.56,.86-2.66,0-.98-.3-1.67-.9-2.07-.6-.4-1.32-.59-2.16-.59-.46,0-.93,.05-1.42,.14-.49,.1-.97,.23-1.42,.41-.46,.18-.88,.38-1.28,.61-.4,.23-.74,.47-1.03,.74l-.94-3.31Z"/>
    </g>
    <g>
      <path class="cls-3" d="M653.04,549.64h-4.14v-17.5l-2.92,1.3-.79-3.6,7.85-3.96v23.76Z"/>
      <path class="cls-3" d="M662.18,537.72c.41-.86,1.04-1.5,1.89-1.91,.85-.41,1.85-.61,3.01-.61,1.37,0,2.5,.25,3.38,.76,.89,.5,1.6,1.13,2.12,1.87,.53,.74,.89,1.54,1.1,2.39,.2,.85,.31,1.64,.31,2.36,0,.86-.14,1.74-.41,2.63-.28,.89-.72,1.69-1.33,2.41-.61,.72-1.41,1.31-2.39,1.76-.98,.46-2.17,.68-3.56,.68-1.49,0-2.74-.27-3.76-.81s-1.85-1.3-2.48-2.29c-.64-.98-1.1-2.17-1.39-3.55-.29-1.38-.43-2.91-.43-4.59s.14-3.23,.41-4.81c.28-1.57,.76-2.97,1.44-4.19,.68-1.22,1.6-2.21,2.74-2.97,1.14-.76,2.56-1.13,4.27-1.13,.43,0,.91,.03,1.44,.09,.53,.06,1.06,.16,1.6,.31s1.06,.34,1.57,.58c.5,.24,.94,.54,1.3,.9l-.9,3.17c-.79-.6-1.63-1.02-2.52-1.26-.89-.24-1.67-.36-2.34-.36-1.01,0-1.85,.22-2.52,.67-.67,.44-1.21,1.03-1.6,1.75-.4,.72-.67,1.52-.83,2.41-.16,.89-.23,1.78-.23,2.66v.52c0,.16,.01,.33,.04,.52l.11,.04Zm7.56,4.72c0-.5-.05-1-.14-1.48-.1-.48-.27-.91-.52-1.28-.25-.37-.59-.67-1.01-.88s-.94-.32-1.57-.32c-1.22,0-2.14,.4-2.75,1.19s-.92,1.8-.92,3.02,.31,2.24,.94,2.99c.62,.74,1.48,1.12,2.56,1.12s1.92-.38,2.52-1.15c.6-.77,.9-1.84,.9-3.2Z"/>
    </g>
    <g>
      <path class="cls-3" d="M537.5,663.35h-4.14v-17.5l-2.92,1.3-.79-3.6,7.85-3.96v23.76Z"/>
      <path class="cls-3" d="M543.44,663.35c-.02-.22-.04-.45-.04-.7v-.7c0-1.42,.28-2.97,.85-4.66,.56-1.69,1.29-3.38,2.18-5.08,.89-1.69,1.87-3.32,2.93-4.9,1.07-1.57,2.11-2.95,3.11-4.12h-10.48v-3.78h14.58v3.78c-1.03,1.13-2.06,2.5-3.1,4.12-1.03,1.62-1.96,3.31-2.77,5.06-.82,1.75-1.48,3.47-1.98,5.15-.5,1.68-.76,3.14-.76,4.39v.76c0,.24,.01,.47,.04,.68h-4.57Z"/>
    </g>
    <g>
      <path class="cls-3" d="M228.16,659.1h-4.14v-17.5l-2.92,1.3-.79-3.6,7.85-3.96v23.76Z"/>
      <path class="cls-3" d="M244.76,647.54c-.41,.86-1.04,1.5-1.89,1.91-.85,.41-1.85,.61-3.01,.61-1.37,0-2.5-.25-3.38-.76-.89-.5-1.6-1.13-2.12-1.87-.53-.74-.89-1.54-1.1-2.39-.2-.85-.31-1.64-.31-2.36,0-.86,.14-1.74,.41-2.63,.28-.89,.72-1.69,1.33-2.41,.61-.72,1.4-1.31,2.38-1.76,.97-.46,2.17-.68,3.58-.68,1.49,0,2.74,.27,3.76,.81,1.02,.54,1.85,1.3,2.48,2.29,.64,.98,1.1,2.17,1.39,3.55,.29,1.38,.43,2.91,.43,4.59s-.14,3.23-.41,4.81c-.28,1.57-.76,2.97-1.44,4.19-.68,1.22-1.6,2.21-2.74,2.97-1.14,.76-2.56,1.13-4.27,1.13-.43,0-.91-.03-1.44-.09s-1.06-.16-1.6-.31c-.54-.14-1.06-.34-1.57-.58-.5-.24-.94-.54-1.3-.9l.9-3.17c.79,.6,1.63,1.02,2.52,1.26,.89,.24,1.67,.36,2.34,.36,1.01,0,1.84-.22,2.5-.67,.66-.44,1.19-1.03,1.58-1.75,.4-.72,.68-1.52,.85-2.41,.17-.89,.25-1.78,.25-2.66v-.52c0-.16-.01-.33-.04-.52l-.11-.04Zm-7.56-4.72c0,.5,.05,1,.14,1.48,.1,.48,.27,.91,.52,1.28,.25,.37,.59,.67,1.01,.88,.42,.22,.94,.32,1.57,.32,1.22,0,2.14-.4,2.75-1.19,.61-.79,.92-1.8,.92-3.02s-.31-2.24-.94-2.99c-.62-.74-1.48-1.12-2.56-1.12s-1.92,.38-2.52,1.15c-.6,.77-.9,1.84-.9,3.2Z"/>
    </g>
    <g>
      <path class="cls-3" d="M109.79,527.57c.46-.24,.98-.47,1.57-.7,.59-.23,1.2-.43,1.84-.61,.64-.18,1.28-.32,1.93-.41,.65-.1,1.28-.14,1.91-.14,1.01,0,1.94,.14,2.81,.41,.86,.28,1.6,.67,2.21,1.19,.61,.52,1.09,1.14,1.44,1.87,.35,.73,.52,1.54,.52,2.43,0,1.22-.31,2.44-.92,3.65s-1.38,2.42-2.3,3.64c-.92,1.21-1.94,2.41-3.04,3.6s-2.14,2.37-3.1,3.55h9.61v3.6h-14.58v-3.6c.94-1.27,2-2.53,3.19-3.76,1.19-1.24,2.3-2.44,3.35-3.62,1.04-1.18,1.93-2.33,2.65-3.46,.72-1.13,1.08-2.23,1.08-3.31s-.34-1.76-1.01-2.2c-.67-.43-1.55-.65-2.63-.65s-2.05,.16-3.04,.49c-1,.32-1.88,.7-2.65,1.13l-.83-3.1Z"/>
      <path class="cls-3" d="M137.59,525.7c1.54,0,2.9,.33,4.09,.99,1.19,.66,2.19,1.54,3.01,2.65,.82,1.1,1.43,2.38,1.85,3.83,.42,1.45,.63,2.98,.63,4.59s-.22,3.15-.65,4.63-1.06,2.78-1.89,3.92c-.83,1.14-1.85,2.05-3.08,2.74-1.22,.68-2.63,1.03-4.21,1.03s-2.92-.32-4.09-.97-2.13-1.52-2.9-2.63c-.77-1.1-1.35-2.38-1.75-3.83-.4-1.45-.59-2.98-.59-4.59,0-1.7,.22-3.31,.65-4.81,.43-1.5,1.06-2.81,1.87-3.92,.82-1.12,1.82-2,3.01-2.65,1.19-.65,2.54-.97,4.05-.97Zm-.11,20.92c.91,0,1.7-.22,2.36-.67,.66-.44,1.21-1.06,1.64-1.85s.76-1.73,.97-2.81c.22-1.08,.32-2.24,.32-3.49s-.11-2.44-.32-3.49c-.22-1.06-.55-1.97-.99-2.74-.44-.77-1-1.36-1.67-1.78-.67-.42-1.45-.63-2.34-.63s-1.65,.21-2.29,.63c-.64,.42-1.15,1.01-1.55,1.76-.4,.76-.69,1.67-.88,2.74-.19,1.07-.29,2.24-.29,3.51,0,2.9,.44,5.1,1.31,6.59,.88,1.49,2.12,2.23,3.73,2.23Z"/>
    </g>
    <g>
      <path class="cls-3" d="M105.99,222.81c.46-.24,.98-.47,1.57-.7,.59-.23,1.2-.43,1.84-.61,.64-.18,1.28-.32,1.93-.41,.65-.1,1.28-.14,1.91-.14,1.01,0,1.94,.14,2.81,.41,.86,.28,1.6,.67,2.21,1.19,.61,.52,1.09,1.14,1.44,1.87,.35,.73,.52,1.54,.52,2.43,0,1.22-.31,2.44-.92,3.65-.61,1.21-1.38,2.42-2.3,3.64-.92,1.21-1.94,2.41-3.04,3.6-1.1,1.19-2.14,2.37-3.1,3.55h9.61v3.6h-14.58v-3.6c.94-1.27,2-2.53,3.19-3.76,1.19-1.24,2.3-2.44,3.35-3.62,1.04-1.18,1.93-2.33,2.65-3.46,.72-1.13,1.08-2.23,1.08-3.31s-.34-1.76-1.01-2.2c-.67-.43-1.55-.65-2.63-.65s-2.05,.16-3.04,.49c-1,.32-1.88,.7-2.65,1.13l-.83-3.1Z"/>
      <path class="cls-3" d="M124.14,222.81c.46-.24,.98-.47,1.57-.7,.59-.23,1.2-.43,1.84-.61,.63-.18,1.28-.32,1.93-.41,.65-.1,1.28-.14,1.91-.14,1.01,0,1.94,.14,2.81,.41s1.6,.67,2.21,1.19,1.09,1.14,1.44,1.87c.35,.73,.52,1.54,.52,2.43,0,1.22-.31,2.44-.92,3.65-.61,1.21-1.38,2.42-2.3,3.64-.92,1.21-1.94,2.41-3.04,3.6-1.1,1.19-2.14,2.37-3.1,3.55h9.61v3.6h-14.58v-3.6c.94-1.27,2-2.53,3.19-3.76,1.19-1.24,2.3-2.44,3.35-3.62,1.04-1.18,1.93-2.33,2.65-3.46,.72-1.13,1.08-2.23,1.08-3.31s-.34-1.76-1.01-2.2c-.67-.43-1.55-.65-2.63-.65s-2.05,.16-3.04,.49c-1,.32-1.88,.7-2.65,1.13l-.83-3.1Z"/>
    </g>
    <g>
      <path class="cls-3" d="M228.47,110.43c.46-.24,.98-.47,1.57-.7,.59-.23,1.2-.43,1.84-.61,.64-.18,1.28-.32,1.93-.41,.65-.1,1.28-.14,1.91-.14,1.01,0,1.94,.14,2.81,.41,.86,.28,1.6,.67,2.21,1.19,.61,.52,1.09,1.14,1.44,1.87,.35,.73,.52,1.54,.52,2.43,0,1.22-.31,2.44-.92,3.65s-1.38,2.42-2.3,3.64c-.92,1.21-1.94,2.41-3.04,3.6s-2.14,2.37-3.1,3.55h9.61v3.6h-14.58v-3.6c.94-1.27,2-2.53,3.19-3.76,1.19-1.24,2.3-2.44,3.35-3.62,1.04-1.18,1.93-2.33,2.65-3.46,.72-1.13,1.08-2.23,1.08-3.31s-.34-1.76-1.01-2.2c-.67-.43-1.55-.65-2.63-.65s-2.05,.16-3.04,.49c-1,.32-1.88,.7-2.65,1.13l-.83-3.1Z"/>
      <path class="cls-3" d="M247.33,110.47c.91-.55,1.96-1.01,3.15-1.37s2.37-.54,3.55-.54c1.01,0,1.93,.14,2.77,.43,.84,.29,1.57,.69,2.18,1.21s1.09,1.13,1.42,1.85c.34,.72,.5,1.51,.5,2.38,0,1.27-.32,2.31-.97,3.11-.65,.8-1.46,1.48-2.45,2.03,1.44,.48,2.56,1.2,3.37,2.16,.8,.96,1.21,2.22,1.21,3.78,0,1.01-.18,1.96-.54,2.86s-.91,1.69-1.66,2.36c-.74,.67-1.67,1.21-2.77,1.6-1.1,.4-2.39,.59-3.85,.59-2.98,0-5.42-.82-7.34-2.45l1.01-3.28c.84,.7,1.78,1.25,2.81,1.66,1.03,.41,2.14,.61,3.31,.61,1.51,0,2.66-.35,3.44-1.06,.78-.71,1.17-1.75,1.17-3.11,0-1.22-.35-2.19-1.06-2.9-.71-.71-1.89-1.06-3.55-1.06h-.97v-3.13h1.12c1.06,0,1.87-.34,2.45-1.01,.58-.67,.86-1.56,.86-2.66,0-.98-.3-1.67-.9-2.07-.6-.4-1.32-.59-2.16-.59-.46,0-.93,.05-1.42,.14-.49,.1-.97,.23-1.42,.41-.46,.18-.88,.38-1.28,.61-.4,.23-.74,.47-1.03,.74l-.94-3.31Z"/>
    </g>
    <line class="cls-4" x1="516.28" y1="171.99" x2="531.28" y2="146.01"/>
    <line class="cls-5" x1="572.13" y1="206.92" x2="584.13" y2="194.92"/>
    <line class="cls-4" x1="608.76" y1="263.98" x2="634.74" y2="248.98"/>
    <line class="cls-4" x1="670.27" y1="388.86" x2="640.27" y2="388.86"/>
    <line class="cls-4" x1="631.07" y1="527.01" x2="605.09" y2="512.01"/>
    <line class="cls-4" x1="173.15" y1="262.63" x2="147.17" y2="247.63"/>
    <line class="cls-4" x1="141.42" y1="389.63" x2="111.42" y2="389.63"/>
    <line class="cls-4" x1="150.13" y1="528.05" x2="176.11" y2="513.05"/>
    <line class="cls-4" x1="251.26" y1="631.03" x2="266.26" y2="605.05"/>
    <line class="cls-4" x1="530.87" y1="628.16" x2="515.87" y2="602.18"/>
    <line class="cls-4" x1="390.85" y1="636.94" x2="390.85" y2="666.94"/>
    <line class="cls-4" x1="267.16" y1="171.39" x2="252.16" y2="145.41"/>
    <line class="cls-5" x1="638.88" y1="322.23" x2="655.27" y2="317.84"/>
    <line class="cls-5" x1="655.27" y1="459.22" x2="638.88" y2="454.82"/>
    <line class="cls-5" x1="583.06" y1="582.41" x2="571.06" y2="570.41"/>
    <line class="cls-5" x1="463" y1="651.02" x2="458.6" y2="634.62"/>
    <line class="cls-5" x1="321.46" y1="651.94" x2="325.85" y2="635.55"/>
    <line class="cls-5" x1="197.93" y1="581.11" x2="209.93" y2="569.11"/>
    <line class="cls-5" x1="126.49" y1="459.53" x2="142.88" y2="455.14"/>
    <line class="cls-5" x1="142.88" y1="321.92" x2="126.49" y2="317.53"/>
    <line class="cls-5" x1="208.64" y1="207.98" x2="196.64" y2="195.98"/>
    <line class="cls-5" x1="326.11" y1="140.17" x2="321.72" y2="123.77"/>
    <g>
      <path class="cls-3" d="M683.61,399.91h-4.14v-17.5l-2.92,1.3-.79-3.6,7.85-3.96v23.76Z"/>
      <path class="cls-3" d="M689.41,389.04l1.4-13.07h12.2v3.78h-8.86l-.54,5.69c.5-.14,1.03-.25,1.58-.31,.55-.06,1.06-.09,1.51-.09,1.1,0,2.11,.16,3.02,.49,.91,.32,1.7,.8,2.38,1.42,.67,.62,1.19,1.39,1.57,2.29,.37,.9,.56,1.93,.56,3.08s-.18,2.14-.54,3.11-.91,1.82-1.64,2.56c-.73,.73-1.65,1.31-2.75,1.73-1.1,.42-2.4,.63-3.89,.63s-2.81-.21-4.05-.63c-1.24-.42-2.32-1.01-3.26-1.78l1.04-3.42c.36,.34,.77,.64,1.24,.92,.47,.28,.97,.52,1.51,.72,.54,.2,1.09,.37,1.66,.49,.56,.12,1.12,.18,1.67,.18,.6,0,1.18-.08,1.75-.23,.56-.16,1.06-.4,1.48-.74,.42-.34,.76-.77,1.01-1.31s.38-1.19,.38-1.96c0-.58-.07-1.1-.22-1.58-.14-.48-.38-.89-.72-1.22-.34-.34-.79-.6-1.35-.79-.56-.19-1.28-.29-2.14-.29-.74,0-1.56,.07-2.45,.22-.89,.14-1.73,.37-2.52,.68l-1.04-.54Z"/>
    </g>
    <g>
      <path class="cls-3" d="M385.41,700.06h-4.14v-17.5l-2.92,1.3-.79-3.6,7.85-3.96v23.76Z"/>
      <path class="cls-3" d="M401.97,687.03c1.39,.31,2.47,1.03,3.22,2.16,.76,1.13,1.13,2.5,1.13,4.1,0,1.01-.16,1.95-.47,2.83-.31,.88-.8,1.64-1.46,2.29-.66,.65-1.49,1.16-2.5,1.53-1.01,.37-2.2,.56-3.56,.56-1.44,0-2.66-.2-3.67-.59s-1.82-.92-2.45-1.58c-.62-.66-1.08-1.42-1.37-2.29-.29-.86-.43-1.75-.43-2.66,0-1.58,.38-2.93,1.15-4.03,.77-1.1,1.84-1.86,3.2-2.27v-.14c-.84-.31-1.58-.9-2.21-1.76-.64-.86-.95-1.96-.95-3.28,0-1.73,.59-3.12,1.76-4.18,1.18-1.06,2.84-1.58,5-1.58s3.77,.51,4.97,1.53c1.2,1.02,1.8,2.39,1.8,4.12,0,1.27-.31,2.35-.92,3.22-.61,.88-1.36,1.51-2.25,1.89v.14Zm.22,6.37c0-.55-.07-1.1-.22-1.66-.14-.55-.37-1.04-.68-1.48-.31-.43-.71-.79-1.21-1.06-.49-.28-1.07-.41-1.75-.41s-1.28,.14-1.76,.41c-.48,.28-.88,.64-1.19,1.08-.31,.44-.54,.94-.68,1.49s-.22,1.09-.22,1.62c0,1.3,.35,2.28,1.06,2.95,.71,.67,1.64,1.01,2.79,1.01s2.08-.34,2.79-1.01c.71-.67,1.06-1.66,1.06-2.95Zm-1.08-11.05c0-.94-.23-1.67-.7-2.21-.47-.54-1.16-.81-2.07-.81s-1.57,.26-2.05,.77c-.48,.52-.72,1.25-.72,2.21,0,1.01,.25,1.8,.76,2.38,.5,.58,1.18,.86,2.02,.86s1.51-.29,2.02-.86,.76-1.36,.76-2.34Z"/>
    </g>
    <g>
      <path class="cls-3" d="M79.22,377.85c.46-.24,.98-.47,1.57-.7,.59-.23,1.2-.43,1.84-.61,.64-.18,1.28-.32,1.93-.41,.65-.1,1.28-.14,1.91-.14,1.01,0,1.94,.14,2.81,.41,.86,.28,1.6,.67,2.21,1.19,.61,.52,1.09,1.14,1.44,1.87,.35,.73,.52,1.54,.52,2.43,0,1.22-.31,2.44-.92,3.65s-1.38,2.42-2.3,3.64c-.92,1.21-1.94,2.41-3.04,3.6s-2.14,2.37-3.1,3.55h9.61v3.6h-14.58v-3.6c.94-1.27,2-2.53,3.19-3.76,1.19-1.24,2.3-2.44,3.35-3.62,1.04-1.18,1.93-2.33,2.65-3.46,.72-1.13,1.08-2.23,1.08-3.31s-.34-1.76-1.01-2.2c-.67-.43-1.55-.65-2.63-.65s-2.05,.16-3.04,.49c-1,.32-1.88,.7-2.65,1.13l-.83-3.1Z"/>
      <path class="cls-3" d="M104.38,399.91h-4.14v-17.5l-2.92,1.3-.79-3.6,7.85-3.96v23.76Z"/>
    </g>
    <g>
      <path class="cls-3" d="M348.73,78.23c.46-.24,.98-.47,1.57-.7,.59-.23,1.2-.43,1.84-.61,.64-.18,1.28-.32,1.93-.41,.65-.1,1.28-.14,1.91-.14,1.01,0,1.94,.14,2.81,.41,.86,.28,1.6,.67,2.21,1.19,.61,.52,1.09,1.14,1.44,1.87,.35,.73,.52,1.54,.52,2.43,0,1.22-.31,2.44-.92,3.65s-1.38,2.42-2.3,3.64c-.92,1.21-1.94,2.41-3.04,3.6s-2.14,2.37-3.1,3.55h9.61v3.6h-14.58v-3.6c.94-1.27,2-2.53,3.19-3.76,1.19-1.24,2.3-2.44,3.35-3.62,1.04-1.18,1.93-2.33,2.65-3.46,.72-1.13,1.08-2.23,1.08-3.31s-.34-1.76-1.01-2.2c-.67-.43-1.55-.65-2.63-.65s-2.05,.16-3.04,.49c-1,.32-1.88,.7-2.65,1.13l-.83-3.1Z"/>
      <path class="cls-3" d="M382.86,93.46h-2.48v6.84h-4.14v-6.84h-10.22v-3.24l10.04-13.68h4.32v13.68h2.48v3.24Zm-6.62-3.24v-8.71l-6.16,8.71h6.16Z"/>
    </g>
    <g>
      <path class="cls-3" d="M648.81,254.82h-4.14v-17.5l-2.92,1.3-.79-3.6,7.85-3.96v23.76Z"/>
      <path class="cls-3" d="M669.76,247.98h-2.48v6.84h-4.14v-6.84h-10.22v-3.24l10.04-13.68h4.32v13.68h2.48v3.24Zm-6.62-3.24v-8.71l-6.16,8.71h6.16Z"/>
    </g>
    <path class="cls-6" d="M498.38,498.32c9.9-9.67,26.21-28.12,36.8-56.01,4.09-10.76,15.82-45.28,6.64-87.47-13.65-62.7-63.1-94.58-72.98-100.67,5-8.66,10-17.32,15-25.99,13.32,7.86,59.44,37.29,80.88,97.56,17.93,50.42,8.51,94.06,4.13,110.31-4.85-1.22-9.69-2.44-14.54-3.65-2.89,10.53-7.84,24.41-16.64,39.29-9.78,16.54-20.82,28.44-29.34,36.3l-9.95-9.67Z"/>
    <path class="cls-7" d="M498.38,498.32c6.46-6.3,13.53-14.28,20.22-24.15,7.45-10.99,11.92-20.61,14.21-25.98,3.81-8.94,6.26-17.04,7.87-23.63,4.84,1.21,9.69,2.42,14.53,3.63,2.68-9.78,5.24-22.88,5.49-38.43,.29-18.2-2.7-33.32-5.69-44.03,4.81-1.37,9.62-2.73,14.42-4.1,3.98,15.61,7.01,35.83,5.34,59.18-1.21,16.87-5.73,47.36-24.49,79.56-10.35,17.76-21.85,30.58-30.37,38.89-3.51-2.88-7.18-6.12-10.92-9.75-3.96-3.83-7.49-7.6-10.61-11.19Z"/>
    <path class="cls-6" d="M314.35,521.74c12.83,7.23,43.5,22.16,84.43,20,54.69-2.89,90.03-34.32,99.6-43.42,7.18,6.98,14.35,13.96,21.53,20.94-10.99,10.79-50.32,46.78-112.68,52.34-53.58,4.78-93.53-15.63-107.89-23.86,5-8.66,10-17.33,15.01-25.99Z"/>
    <path class="cls-7" d="M258.63,465.9c4.78,8.58,12.1,19.67,23.02,30.82,11.83,12.08,23.73,20,32.7,25.03-1.26,2.17-2.52,4.35-3.78,6.54-1.45,2.51-2.88,5.02-4.31,7.52,9.41,5.44,21.87,11.47,37.15,16.09,18.91,5.71,35.66,7.27,48.06,7.47l-.43,13.41c-19.78-.73-57.99-4.71-94.85-26.88-19.31-11.61-32.67-24.86-35.75-27.97-13.2-13.31-22.18-26.5-28.1-36.71,8.77-5.11,17.53-10.21,26.3-15.32Z"/>
    <path class="cls-9" d="M232.34,481.21c8.77-5.11,17.53-10.21,26.3-15.32-4.54-7.15-10.29-17.54-14.79-30.84-16.79-49.6-.82-93.68,2.93-103.34,3.12-8.05,24.07-59.58,80.69-85.09,25.7-11.58,49.19-13.49,63.39-13.52v-30c-12.04,.04-29.71,1.25-50.01,7.06-72.41,20.72-107.58,79.78-111.05,85.83-5.01,8.72-37.27,66.97-18.77,136.72,5.7,21.49,14.59,37.91,21.32,48.51Z"/>
    <g>
      <path class="cls-3" d="M408.15,100.3h-4.14v-17.5l-2.92,1.3-.79-3.6,7.85-3.96v23.76Z"/>
      <path class="cls-3" d="M413.11,78.23c.46-.24,.98-.47,1.57-.7,.59-.23,1.2-.43,1.84-.61,.64-.18,1.28-.32,1.93-.41,.65-.1,1.28-.14,1.91-.14,1.01,0,1.94,.14,2.81,.41,.86,.28,1.6,.67,2.21,1.19,.61,.52,1.09,1.14,1.44,1.87,.35,.73,.52,1.54,.52,2.43,0,1.22-.31,2.44-.92,3.65s-1.38,2.42-2.3,3.64c-.92,1.21-1.94,2.41-3.04,3.6s-2.14,2.37-3.1,3.55h9.61v3.6h-14.58v-3.6c.94-1.27,2-2.53,3.19-3.76,1.19-1.24,2.3-2.44,3.35-3.62,1.04-1.18,1.93-2.33,2.65-3.46,.72-1.13,1.08-2.23,1.08-3.31s-.34-1.76-1.01-2.2c-.67-.43-1.55-.65-2.63-.65s-2.05,.16-3.04,.49c-1,.32-1.88,.7-2.65,1.13l-.83-3.1Z"/>
    </g>
    <path class="cls-3" d="M502.04,208.41h-4.14v-17.5l-2.92,1.3-.79-3.6,7.85-3.96v23.76Z"/>
    <path class="cls-3" d="M575.62,256.06c.46-.24,.98-.47,1.57-.7,.59-.23,1.2-.43,1.84-.61,.64-.18,1.28-.32,1.93-.41,.65-.1,1.28-.14,1.91-.14,1.01,0,1.94,.14,2.81,.41,.86,.28,1.6,.67,2.21,1.19,.61,.52,1.09,1.14,1.44,1.87,.35,.73,.52,1.54,.52,2.43,0,1.22-.31,2.44-.92,3.65s-1.38,2.42-2.3,3.64c-.92,1.21-1.94,2.41-3.04,3.6s-2.14,2.37-3.1,3.55h9.61v3.6h-14.58v-3.6c.94-1.27,2-2.53,3.19-3.76,1.19-1.24,2.3-2.44,3.35-3.62,1.04-1.18,1.93-2.33,2.65-3.46,.72-1.13,1.08-2.23,1.08-3.31s-.34-1.76-1.01-2.2c-.67-.43-1.55-.65-2.63-.65s-2.05,.16-3.04,.49c-1,.32-1.88,.7-2.65,1.13l-.83-3.1Z"/>
    <path class="cls-3" d="M603.03,378.81c.91-.55,1.96-1.01,3.15-1.37s2.37-.54,3.55-.54c1.01,0,1.93,.14,2.77,.43,.84,.29,1.57,.69,2.18,1.21s1.09,1.13,1.42,1.85c.34,.72,.5,1.51,.5,2.38,0,1.27-.32,2.31-.97,3.11-.65,.8-1.46,1.48-2.45,2.03,1.44,.48,2.56,1.2,3.37,2.16,.8,.96,1.21,2.22,1.21,3.78,0,1.01-.18,1.96-.54,2.86s-.91,1.69-1.66,2.36c-.74,.67-1.67,1.21-2.77,1.6-1.1,.4-2.39,.59-3.85,.59-2.98,0-5.42-.82-7.34-2.45l1.01-3.28c.84,.7,1.78,1.25,2.81,1.66,1.03,.41,2.14,.61,3.31,.61,1.51,0,2.66-.35,3.44-1.06,.78-.71,1.17-1.75,1.17-3.11,0-1.22-.35-2.19-1.06-2.9-.71-.71-1.89-1.06-3.55-1.06h-.97v-3.13h1.12c1.06,0,1.87-.34,2.45-1.01,.58-.67,.86-1.56,.86-2.66,0-.98-.3-1.67-.9-2.07-.6-.4-1.32-.59-2.16-.59-.46,0-.93,.05-1.42,.14-.49,.1-.97,.23-1.42,.41-.46,.18-.88,.38-1.28,.61-.4,.23-.74,.47-1.03,.74l-.94-3.31Z"/>
    <path class="cls-3" d="M591.6,503.87h-2.48v6.84h-4.14v-6.84h-10.22v-3.24l10.04-13.68h4.32v13.68h2.48v3.24Zm-6.62-3.24v-8.71l-6.16,8.71h6.16Z"/>
    <path class="cls-3" d="M491.55,578.7l1.4-13.07h12.2v3.78h-8.86l-.54,5.69c.5-.14,1.03-.25,1.58-.31,.55-.06,1.06-.09,1.51-.09,1.1,0,2.11,.16,3.02,.49,.91,.32,1.7,.8,2.38,1.42,.67,.62,1.19,1.39,1.57,2.29,.37,.9,.56,1.93,.56,3.08s-.18,2.14-.54,3.11-.91,1.82-1.64,2.56c-.73,.73-1.65,1.31-2.75,1.73-1.1,.42-2.4,.63-3.89,.63s-2.81-.21-4.05-.63c-1.24-.42-2.32-1.01-3.26-1.78l1.04-3.42c.36,.34,.77,.64,1.24,.92,.47,.28,.97,.52,1.51,.72,.54,.2,1.09,.37,1.66,.49,.56,.12,1.12,.18,1.67,.18,.6,0,1.18-.08,1.75-.23,.56-.16,1.06-.4,1.48-.74,.42-.34,.76-.77,1.01-1.31s.38-1.19,.38-1.96c0-.58-.07-1.1-.22-1.58-.14-.48-.38-.89-.72-1.22-.34-.34-.79-.6-1.35-.79-.56-.19-1.28-.29-2.14-.29-.74,0-1.56,.07-2.45,.22-.89,.14-1.73,.37-2.52,.68l-1.04-.54Z"/>
    <path class="cls-3" d="M385.62,612.31c.41-.86,1.04-1.5,1.89-1.91,.85-.41,1.85-.61,3.01-.61,1.37,0,2.5,.25,3.38,.76,.89,.5,1.6,1.13,2.12,1.87,.53,.74,.89,1.54,1.1,2.39,.2,.85,.31,1.64,.31,2.36,0,.86-.14,1.74-.41,2.63-.28,.89-.72,1.69-1.33,2.41-.61,.72-1.41,1.31-2.39,1.76-.98,.46-2.17,.68-3.56,.68-1.49,0-2.74-.27-3.76-.81s-1.85-1.3-2.48-2.29c-.64-.98-1.1-2.17-1.39-3.55-.29-1.38-.43-2.91-.43-4.59s.14-3.23,.41-4.81c.28-1.57,.76-2.97,1.44-4.19,.68-1.22,1.6-2.21,2.74-2.97,1.14-.76,2.56-1.13,4.27-1.13,.43,0,.91,.03,1.44,.09,.53,.06,1.06,.16,1.6,.31,.54,.14,1.06,.34,1.57,.58,.5,.24,.94,.54,1.3,.9l-.9,3.17c-.79-.6-1.63-1.02-2.52-1.26-.89-.24-1.67-.36-2.34-.36-1.01,0-1.85,.22-2.52,.67-.67,.44-1.21,1.03-1.6,1.75s-.67,1.52-.83,2.41c-.16,.89-.23,1.78-.23,2.66v.52c0,.16,.01,.33,.04,.52l.11,.04Zm7.56,4.72c0-.5-.05-1-.14-1.48-.1-.48-.27-.91-.52-1.28s-.59-.67-1.01-.88-.94-.32-1.57-.32c-1.22,0-2.14,.4-2.75,1.19s-.92,1.8-.92,3.02,.31,2.24,.94,2.99c.62,.74,1.48,1.12,2.56,1.12s1.92-.38,2.52-1.15c.6-.77,.9-1.84,.9-3.2Z"/>
    <path class="cls-3" d="M274.17,596.06c-.02-.22-.04-.45-.04-.7v-.7c0-1.42,.28-2.97,.85-4.66,.56-1.69,1.29-3.38,2.18-5.08,.89-1.69,1.87-3.32,2.93-4.9,1.07-1.57,2.11-2.95,3.11-4.12h-10.48v-3.78h14.58v3.78c-1.03,1.13-2.06,2.5-3.1,4.12-1.03,1.62-1.96,3.31-2.77,5.06-.82,1.75-1.48,3.47-1.98,5.15-.5,1.68-.76,3.14-.76,4.39v.76c0,.24,.01,.47,.04,.68h-4.57Z"/>
    <path class="cls-3" d="M196.69,494.5c1.39,.31,2.47,1.03,3.22,2.16,.76,1.13,1.13,2.5,1.13,4.1,0,1.01-.16,1.95-.47,2.83-.31,.88-.8,1.64-1.46,2.29-.66,.65-1.49,1.16-2.5,1.53-1.01,.37-2.2,.56-3.56,.56-1.44,0-2.66-.2-3.67-.59s-1.82-.92-2.45-1.58c-.62-.66-1.08-1.42-1.37-2.29-.29-.86-.43-1.75-.43-2.66,0-1.58,.38-2.93,1.15-4.03,.77-1.1,1.84-1.86,3.2-2.27v-.14c-.84-.31-1.58-.9-2.21-1.76-.64-.86-.95-1.96-.95-3.28,0-1.73,.59-3.12,1.76-4.18,1.18-1.06,2.84-1.58,5-1.58s3.77,.51,4.97,1.53c1.2,1.02,1.8,2.39,1.8,4.12,0,1.27-.31,2.35-.92,3.22-.61,.88-1.36,1.51-2.25,1.89v.14Zm.22,6.37c0-.55-.07-1.1-.22-1.66-.14-.55-.37-1.04-.68-1.48-.31-.43-.71-.79-1.21-1.06-.49-.28-1.07-.41-1.75-.41s-1.28,.14-1.76,.41c-.48,.28-.88,.64-1.19,1.08-.31,.44-.54,.94-.68,1.49s-.22,1.09-.22,1.62c0,1.3,.35,2.28,1.06,2.95,.71,.67,1.64,1.01,2.79,1.01s2.08-.34,2.79-1.01c.71-.67,1.06-1.66,1.06-2.95Zm-1.08-11.05c0-.94-.23-1.67-.7-2.21-.47-.54-1.16-.81-2.07-.81s-1.57,.26-2.05,.77c-.48,.52-.72,1.25-.72,2.21,0,1.01,.25,1.8,.76,2.38,.5,.58,1.18,.86,2.02,.86s1.51-.29,2.02-.86,.76-1.36,.76-2.34Z"/>
    <path class="cls-3" d="M170.03,389.6c-.41,.86-1.04,1.5-1.89,1.91-.85,.41-1.85,.61-3.01,.61-1.37,0-2.5-.25-3.38-.76-.89-.5-1.6-1.13-2.12-1.87-.53-.74-.89-1.54-1.1-2.39-.2-.85-.31-1.64-.31-2.36,0-.86,.14-1.74,.41-2.63,.28-.89,.72-1.69,1.33-2.41,.61-.72,1.4-1.31,2.38-1.76,.97-.46,2.17-.68,3.58-.68,1.49,0,2.74,.27,3.76,.81,1.02,.54,1.85,1.3,2.48,2.29,.64,.98,1.1,2.17,1.39,3.55,.29,1.38,.43,2.91,.43,4.59s-.14,3.23-.41,4.81c-.28,1.57-.76,2.97-1.44,4.19-.68,1.22-1.6,2.21-2.74,2.97-1.14,.76-2.56,1.13-4.27,1.13-.43,0-.91-.03-1.44-.09s-1.06-.16-1.6-.31c-.54-.14-1.06-.34-1.57-.58-.5-.24-.94-.54-1.3-.9l.9-3.17c.79,.6,1.63,1.02,2.52,1.26,.89,.24,1.67,.36,2.34,.36,1.01,0,1.84-.22,2.5-.67,.66-.44,1.19-1.03,1.58-1.75,.4-.72,.68-1.52,.85-2.41,.17-.89,.25-1.78,.25-2.66v-.52c0-.16-.01-.33-.04-.52l-.11-.04Zm-7.56-4.72c0,.5,.05,1,.14,1.48,.1,.48,.27,.91,.52,1.28,.25,.37,.59,.67,1.01,.88,.42,.22,.94,.32,1.57,.32,1.22,0,2.14-.4,2.75-1.19,.61-.79,.92-1.8,.92-3.02s-.31-2.24-.94-2.99c-.62-.74-1.48-1.12-2.56-1.12s-1.92,.38-2.52,1.15c-.6,.77-.9,1.84-.9,3.2Z"/>
    <g>
      <path class="cls-3" d="M186.06,296.87h-4.14v-17.5l-2.92,1.3-.79-3.6,7.85-3.96v23.76Z"/>
      <path class="cls-3" d="M200.68,272.93c1.54,0,2.9,.33,4.09,.99,1.19,.66,2.19,1.54,3.01,2.65,.82,1.1,1.43,2.38,1.85,3.83,.42,1.45,.63,2.98,.63,4.59s-.22,3.15-.65,4.63-1.06,2.78-1.89,3.92c-.83,1.14-1.85,2.05-3.08,2.74-1.22,.68-2.63,1.03-4.21,1.03s-2.92-.32-4.09-.97-2.13-1.52-2.9-2.63c-.77-1.1-1.35-2.38-1.75-3.83-.4-1.45-.59-2.98-.59-4.59,0-1.7,.22-3.31,.65-4.81,.43-1.5,1.06-2.81,1.87-3.92,.82-1.12,1.82-2,3.01-2.65,1.19-.65,2.54-.97,4.05-.97Zm-.11,20.92c.91,0,1.7-.22,2.36-.67,.66-.44,1.21-1.06,1.64-1.85s.76-1.73,.97-2.81c.22-1.08,.32-2.24,.32-3.49s-.11-2.44-.32-3.49c-.22-1.06-.55-1.97-.99-2.74-.44-.77-1-1.36-1.67-1.78-.67-.42-1.45-.63-2.34-.63s-1.65,.21-2.29,.63c-.64,.42-1.15,1.01-1.55,1.76-.4,.76-.69,1.67-.88,2.74-.19,1.07-.29,2.24-.29,3.51,0,2.9,.44,5.1,1.31,6.59,.88,1.49,2.12,2.23,3.73,2.23Z"/>
    </g>
    <g>
      <path class="cls-3" d="M271.44,207.41h-4.14v-17.5l-2.92,1.3-.79-3.6,7.85-3.96v23.76Z"/>
      <path class="cls-3" d="M283.43,207.41h-4.14v-17.5l-2.92,1.3-.79-3.6,7.85-3.96v23.76Z"/>
    </g>
    <path class="cls-1" d="M262.02,759.12c-103.7-35.74-163.28-106.12-189.09-142.5C54.3,590.36,0,507.02,0,387.26c0-94.39,33.72-164.26,51.51-195.87,11.05,6.45,22.1,12.89,33.14,19.34-15.63,28.27-50.61,100.45-44.57,197.49,2.19,35.15,11.79,106.37,59.35,176.67,60.28,89.11,167.12,155.43,289.54,155.48,137.91,.06,226.89-84.01,244.6-101.5,60.26-59.48,83.52-126.06,92.63-159.15,6.85,1.85,13.7,3.71,20.54,5.56-8.68,32.78-31.33,100.53-91.59,163.5-64.76,67.67-137.48,92.76-170.2,101.91,1.07,5.29,2.15,10.58,3.22,15.87-33.2,8.98-122.27,28.37-226.15-7.44Z"/>
    <g>
      <path class="cls-3" d="M387.13,172.62h-4.14v-17.5l-2.92,1.3-.79-3.6,7.85-3.96v23.76Z"/>
      <path class="cls-3" d="M392.1,150.55c.46-.24,.98-.47,1.57-.7,.59-.23,1.2-.43,1.84-.61,.64-.18,1.28-.32,1.93-.41,.65-.1,1.28-.14,1.91-.14,1.01,0,1.94,.14,2.81,.41,.86,.28,1.6,.67,2.21,1.19,.61,.52,1.09,1.14,1.44,1.87,.35,.73,.52,1.54,.52,2.43,0,1.22-.31,2.44-.92,3.65s-1.38,2.42-2.3,3.64c-.92,1.21-1.94,2.41-3.04,3.6s-2.14,2.37-3.1,3.55h9.61v3.6h-14.58v-3.6c.94-1.27,2-2.53,3.19-3.76,1.19-1.24,2.3-2.44,3.35-3.62,1.04-1.18,1.93-2.33,2.65-3.46,.72-1.13,1.08-2.23,1.08-3.31s-.34-1.76-1.01-2.2c-.67-.43-1.55-.65-2.63-.65s-2.05,.16-3.04,.49c-1,.32-1.88,.7-2.65,1.13l-.83-3.1Z"/>
    </g>
    <g>
      <path class="cls-3" d="M239.6,942.76h-6.8v10.8h-4.14v-23.76h13.57v3.6h-9.43v5.76h6.8v3.6Z"/>
      <path class="cls-3" d="M253.71,940.6c-.24-.19-.61-.35-1.12-.47-.5-.12-.94-.18-1.3-.18-.48,0-.88,.11-1.19,.34-.31,.23-.59,.53-.83,.9-.24,.37-.44,.8-.61,1.28-.17,.48-.32,.97-.47,1.48v9.61h-3.96v-16.56h3.1l.18,3.46h.14c.24-.5,.49-1,.76-1.48,.26-.48,.56-.91,.9-1.28,.34-.37,.73-.67,1.17-.9,.44-.23,.97-.34,1.57-.34,.96,0,1.86,.31,2.7,.94l-1.04,3.2Z"/>
      <path class="cls-3" d="M267.6,953.56l-.29-2.27h-.14c-.65,.82-1.53,1.47-2.65,1.96-1.12,.49-2.25,.74-3.4,.74-1.51,0-2.7-.44-3.56-1.31-.86-.88-1.3-2.03-1.3-3.47,0-.98,.21-1.87,.63-2.65,.42-.78,1.03-1.44,1.82-1.98s1.74-.95,2.84-1.24c1.1-.29,2.34-.43,3.71-.43h1.55v-.54c0-.94-.3-1.62-.9-2.05-.62-.43-1.6-.65-2.92-.65-1.78,0-3.36,.4-4.75,1.19l-.76-2.99c1.61-.94,3.55-1.4,5.83-1.4,2.4,0,4.22,.49,5.47,1.48,.58,.46,1.05,1.04,1.42,1.76,.37,.72,.56,1.58,.56,2.59v11.27h-3.17Zm-4.93-2.77c.77,0,1.54-.19,2.3-.56,.77-.37,1.38-.87,1.84-1.49v-3.28h-.68c-1.97,0-3.4,.25-4.3,.76-.9,.5-1.35,1.31-1.35,2.41,0,1.44,.73,2.16,2.2,2.16Z"/>
      <path class="cls-3" d="M286.65,953.56v-10.94c0-1.97-.84-2.95-2.52-2.95-.41,0-.85,.07-1.31,.22-.47,.14-.92,.35-1.35,.63-.43,.28-.82,.62-1.17,1.03-.35,.41-.61,.88-.77,1.4v10.62h-3.96v-16.56h3.1l.18,2.45h.14c.5-1.01,1.29-1.76,2.36-2.25,1.07-.49,2.21-.74,3.44-.74,.79,0,1.54,.1,2.23,.31,.7,.2,1.31,.53,1.85,.99,.54,.46,.97,1.06,1.28,1.8,.31,.74,.47,1.66,.47,2.74v11.27h-3.96Z"/>
      <path class="cls-3" d="M303.24,942.83l7.06,10.73h-4.32l-5.36-8.14-1.4,1.4v6.73h-3.96v-26.64h3.96v15.37l5.51-5.29h4.43l-5.9,5.83Z"/>
      <path class="cls-3" d="M313.79,939.41h-2.05v-2.05l2.05-.32c0-1.37,.04-2.53,.13-3.49,.08-.96,.2-1.77,.34-2.43s.31-1.19,.49-1.6,.37-.74,.56-1.01c.48-.62,1.11-1.07,1.89-1.35,.78-.28,1.64-.41,2.57-.41h.58c.26,0,.56,.02,.88,.08,.32,.05,.66,.13,1.01,.25,.35,.11,.67,.26,.95,.43l-.9,3.06c-.24-.14-.64-.34-1.19-.59-.55-.25-1.09-.38-1.62-.38-.31,0-.58,.07-.79,.22-.22,.14-.4,.41-.54,.79s-.25,.9-.31,1.55c-.06,.65-.09,1.48-.09,2.48v2.38h3.17v2.41h-3.17v14.15h-3.96v-14.15Z"/>
      <path class="cls-3" d="M327.98,937v10.76c0,.98,.26,1.73,.77,2.25,.52,.52,1.18,.77,2,.77s1.61-.28,2.3-.85c.7-.56,1.21-1.37,1.55-2.43v-10.51h4v16.56h-3.1l-.22-2.3h-.14c-.26,.55-.6,1-1.01,1.35-.41,.35-.86,.62-1.35,.83-.49,.2-1,.35-1.53,.43-.53,.08-1.04,.13-1.55,.13-.79,0-1.53-.1-2.21-.29s-1.28-.51-1.8-.95c-.52-.44-.92-1.03-1.22-1.76-.3-.73-.45-1.64-.45-2.72v-11.27h3.96Z"/>
      <path class="cls-3" d="M353.03,940.6c-.24-.19-.61-.35-1.12-.47-.5-.12-.94-.18-1.3-.18-.48,0-.88,.11-1.19,.34-.31,.23-.59,.53-.83,.9-.24,.37-.44,.8-.61,1.28-.17,.48-.32,.97-.47,1.48v9.61h-3.96v-16.56h3.1l.18,3.46h.14c.24-.5,.49-1,.76-1.48,.26-.48,.56-.91,.9-1.28,.34-.37,.73-.67,1.17-.9,.44-.23,.97-.34,1.57-.34,.96,0,1.86,.31,2.7,.94l-1.04,3.2Z"/>
      <path class="cls-3" d="M357.78,939.41h-2.05v-2.16l2.34-.36,.65-4.9h3.02v5h3.17v2.41h-3.17v9.5c0,.72,.07,1.21,.22,1.46s.42,.38,.83,.38c.31,0,.62-.06,.94-.18,.31-.12,.77-.35,1.37-.68l.65,2.84c-.46,.38-1.1,.69-1.93,.92-.83,.23-1.65,.34-2.47,.34-.72,0-1.31-.1-1.78-.29-.47-.19-.83-.47-1.1-.85-.26-.37-.44-.82-.54-1.35-.1-.53-.14-1.12-.14-1.76v-10.33Z"/>
    </g>
    <circle class="cls-6" cx="442.22" cy="858.52" r="23.62"/>
    <g>
      <path class="cls-3" d="M515.57,851.68h-6.88v20.16h-4.14v-20.16h-6.88v-3.6h17.89v3.6Z"/>
      <path class="cls-3" d="M523.13,854.74c1.46,0,2.72,.25,3.78,.74,1.06,.49,1.93,1.15,2.61,1.98,.68,.83,1.19,1.78,1.51,2.84,.32,1.07,.49,2.19,.49,3.37s-.16,2.29-.49,3.33c-.32,1.04-.83,1.96-1.51,2.74-.68,.78-1.55,1.4-2.59,1.85s-2.27,.68-3.69,.68-2.72-.24-3.78-.72c-1.06-.48-1.93-1.12-2.63-1.93-.7-.8-1.21-1.73-1.55-2.79-.34-1.06-.5-2.17-.5-3.35s.17-2.29,.5-3.35c.34-1.06,.85-1.99,1.53-2.79,.68-.8,1.55-1.44,2.61-1.91,1.06-.47,2.29-.7,3.71-.7Zm.07,14.54c.7,0,1.3-.15,1.82-.45,.52-.3,.94-.71,1.28-1.22,.34-.52,.58-1.11,.74-1.78,.16-.67,.23-1.38,.23-2.12s-.08-1.51-.25-2.21c-.17-.71-.43-1.33-.77-1.87-.35-.54-.79-.97-1.31-1.3-.53-.32-1.16-.49-1.91-.49-.7,0-1.3,.15-1.8,.45-.5,.3-.92,.7-1.24,1.21-.32,.5-.56,1.09-.72,1.76-.16,.67-.23,1.38-.23,2.12s.08,1.51,.23,2.21c.16,.71,.41,1.34,.76,1.89,.35,.55,.79,.99,1.31,1.31,.53,.32,1.15,.49,1.87,.49Z"/>
      <path class="cls-3" d="M543.51,861.12l7.06,10.73h-4.32l-5.36-8.14-1.4,1.4v6.73h-3.96v-26.64h3.96v15.37l5.51-5.29h4.43l-5.9,5.83Z"/>
      <path class="cls-3" d="M560.43,867.06l4.61-11.77h3.82l-6.84,16.7c-.34,.84-.8,1.78-1.39,2.83-.59,1.04-1.28,2.03-2.09,2.95s-1.71,1.7-2.72,2.34c-1.01,.64-2.1,.95-3.28,.95-.19,0-.34,0-.43-.02-.1-.01-.2-.04-.32-.09l-.68-3.1c.07,.02,.16,.05,.25,.07,.1,.02,.3,.04,.61,.04,.46,0,.91-.05,1.35-.14,.44-.1,.89-.29,1.35-.58,.86-.55,1.61-1.32,2.25-2.3,.64-.98,1.25-2.2,1.85-3.64l-8.24-16.02h4.14l5.76,11.77Z"/>
      <path class="cls-3" d="M579.01,854.74c1.46,0,2.72,.25,3.78,.74,1.06,.49,1.93,1.15,2.61,1.98,.68,.83,1.19,1.78,1.51,2.84,.32,1.07,.49,2.19,.49,3.37s-.16,2.29-.49,3.33c-.32,1.04-.83,1.96-1.51,2.74-.68,.78-1.55,1.4-2.59,1.85s-2.27,.68-3.69,.68-2.72-.24-3.78-.72c-1.06-.48-1.93-1.12-2.63-1.93-.7-.8-1.21-1.73-1.55-2.79-.34-1.06-.5-2.17-.5-3.35s.17-2.29,.5-3.35c.34-1.06,.85-1.99,1.53-2.79,.68-.8,1.55-1.44,2.61-1.91,1.06-.47,2.29-.7,3.71-.7Zm.07,14.54c.7,0,1.3-.15,1.82-.45,.52-.3,.94-.71,1.28-1.22,.34-.52,.58-1.11,.74-1.78,.16-.67,.23-1.38,.23-2.12s-.08-1.51-.25-2.21c-.17-.71-.43-1.33-.77-1.87-.35-.54-.79-.97-1.31-1.3-.53-.32-1.16-.49-1.91-.49-.7,0-1.3,.15-1.8,.45-.5,.3-.92,.7-1.24,1.21-.32,.5-.56,1.09-.72,1.76-.16,.67-.23,1.38-.23,2.12s.08,1.51,.23,2.21c.16,.71,.41,1.34,.76,1.89,.35,.55,.79,.99,1.31,1.31,.53,.32,1.15,.49,1.87,.49Z"/>
    </g>
    <circle class="cls-7" cx="171.69" cy="855.28" r="23.62"/>
    <g>
      <path class="cls-3" d="M232.59,850.57c0,.5,.11,.94,.34,1.3,.23,.36,.55,.67,.95,.94,.41,.26,.89,.51,1.46,.74,.56,.23,1.19,.46,1.89,.7,.86,.31,1.72,.67,2.57,1.06,.85,.4,1.62,.89,2.3,1.48,.68,.59,1.24,1.31,1.67,2.18,.43,.86,.65,1.91,.65,3.13,0,1.3-.23,2.39-.7,3.28-.47,.89-1.1,1.6-1.89,2.14s-1.7,.93-2.74,1.17c-1.03,.24-2.1,.36-3.2,.36-1.58,0-3.07-.19-4.45-.58-1.38-.38-2.56-.85-3.55-1.4l1.08-3.89c.91,.7,1.93,1.27,3.04,1.73,1.12,.46,2.39,.68,3.83,.68,1.54,0,2.65-.27,3.35-.81,.7-.54,1.04-1.27,1.04-2.18,0-.7-.17-1.29-.5-1.78-.34-.49-.76-.91-1.26-1.26-.5-.35-1.04-.63-1.6-.85-.56-.22-1.06-.4-1.49-.54-.77-.24-1.55-.53-2.34-.86-.79-.34-1.52-.77-2.2-1.31s-1.22-1.22-1.64-2.03-.63-1.84-.63-3.06c0-1.15,.2-2.12,.59-2.92,.4-.79,.94-1.43,1.62-1.93,.68-.49,1.49-.85,2.41-1.06,.92-.22,1.93-.32,3.01-.32,1.32,0,2.6,.13,3.83,.4,1.24,.26,2.27,.59,3.11,.97l-.97,3.82c-.43-.29-.9-.54-1.4-.76-.5-.22-1.03-.4-1.57-.54-.54-.14-1.08-.26-1.62-.34-.54-.08-1.05-.13-1.53-.13-1.08,0-1.93,.2-2.56,.61-.62,.41-.94,1.03-.94,1.87Z"/>
      <path class="cls-3" d="M252.13,854.49c.67-1.06,1.46-1.82,2.36-2.29,.9-.47,1.96-.7,3.19-.7,.72,0,1.42,.1,2.09,.31,.67,.2,1.27,.53,1.78,.99,.52,.46,.92,1.06,1.22,1.8,.3,.74,.45,1.66,.45,2.74v11.27h-3.96v-10.94c0-.98-.22-1.72-.65-2.21-.43-.49-1.02-.74-1.76-.74-.46,0-.93,.07-1.42,.22-.49,.14-.95,.36-1.39,.65-.43,.29-.82,.64-1.15,1.04s-.59,.86-.76,1.37v10.62h-3.96v-26.64h3.96v12.53Z"/>
      <path class="cls-3" d="M278.13,868.6l-.29-2.27h-.14c-.65,.82-1.53,1.47-2.65,1.96-1.12,.49-2.25,.74-3.4,.74-1.51,0-2.7-.44-3.56-1.31s-1.3-2.03-1.3-3.47c0-.98,.21-1.87,.63-2.65,.42-.78,1.03-1.44,1.82-1.98s1.74-.95,2.84-1.24c1.1-.29,2.34-.43,3.71-.43h1.55v-.54c0-.94-.3-1.62-.9-2.05-.62-.43-1.6-.65-2.92-.65-1.78,0-3.36,.4-4.75,1.19l-.76-2.99c1.61-.94,3.55-1.4,5.83-1.4,2.4,0,4.22,.49,5.47,1.48,.58,.46,1.05,1.04,1.42,1.76,.37,.72,.56,1.58,.56,2.59v11.27h-3.17Zm-4.93-2.77c.77,0,1.54-.19,2.3-.56,.77-.37,1.38-.87,1.84-1.49v-3.28h-.68c-1.97,0-3.4,.25-4.3,.76-.9,.5-1.35,1.31-1.35,2.41,0,1.44,.73,2.16,2.2,2.16Z"/>
      <path class="cls-3" d="M297.17,868.6v-10.94c0-1.97-.84-2.95-2.52-2.95-.41,0-.85,.07-1.31,.22s-.92,.35-1.35,.63c-.43,.28-.82,.62-1.17,1.03-.35,.41-.61,.88-.77,1.4v10.62h-3.96v-16.56h3.1l.18,2.45h.14c.5-1.01,1.29-1.76,2.36-2.25,1.07-.49,2.21-.74,3.44-.74,.79,0,1.54,.1,2.23,.31,.7,.2,1.31,.53,1.85,.99,.54,.46,.97,1.06,1.28,1.8,.31,.74,.47,1.66,.47,2.74v11.27h-3.96Z"/>
      <path class="cls-3" d="M307.97,863.38c-1.08-.46-1.86-1.16-2.34-2.12-.48-.96-.72-2-.72-3.13,0-.94,.16-1.81,.47-2.63,.31-.82,.76-1.52,1.35-2.11,.59-.59,1.3-1.05,2.12-1.39,.83-.34,1.77-.5,2.83-.5,.62,0,1.24,.06,1.85,.18,.61,.12,1.15,.29,1.6,.53,1.01,0,1.93-.07,2.75-.2,.83-.13,1.63-.31,2.39-.54l.32,.25-.4,2.74-.18,.18-2.56-.29-.04,.11c.82,1.03,1.22,2.24,1.22,3.64,0,.84-.15,1.63-.45,2.36-.3,.73-.74,1.37-1.31,1.91-.58,.54-1.29,.97-2.14,1.3-.85,.32-1.82,.49-2.9,.49-.26,0-.47,0-.63-.02-.16-.01-.31-.02-.45-.02-.41,.14-.72,.33-.94,.56s-.32,.46-.32,.7c0,.26,.13,.49,.4,.68,.26,.19,.67,.32,1.22,.4l3.49,.43c.79,.1,1.53,.26,2.21,.5,.68,.24,1.28,.56,1.8,.97,.52,.41,.92,.9,1.21,1.48,.29,.58,.43,1.24,.43,1.98s-.16,1.46-.47,2.16c-.31,.7-.8,1.31-1.48,1.84-.67,.53-1.52,.95-2.54,1.26-1.02,.31-2.25,.47-3.69,.47-1.27,0-2.39-.13-3.37-.38-.97-.25-1.79-.59-2.47-1.03s-1.18-.94-1.53-1.53c-.35-.59-.52-1.22-.52-1.89,0-.48,.08-.95,.25-1.42,.17-.47,.4-.9,.7-1.3s.65-.75,1.04-1.06c.4-.31,.82-.54,1.28-.68v-.14c-.55-.24-.94-.56-1.15-.97-.22-.41-.32-.8-.32-1.19,0-.5,.17-.97,.5-1.4,.33-.43,.82-.77,1.44-1.01v-.14Zm2.74,6.01c-.82,.14-1.51,.49-2.09,1.03-.58,.54-.86,1.16-.86,1.85,0,.77,.38,1.34,1.13,1.73,.76,.38,1.85,.58,3.29,.58s2.54-.2,3.38-.59,1.26-1.04,1.26-1.93-.47-1.48-1.4-1.84c-.94-.36-2.51-.64-4.72-.83Zm1.12-8.03c.98,0,1.73-.32,2.23-.95,.5-.64,.76-1.41,.76-2.32,0-.43-.06-.87-.18-1.31-.12-.44-.31-.85-.58-1.21-.26-.36-.59-.65-.99-.88-.4-.23-.86-.34-1.39-.34s-.95,.1-1.33,.31c-.38,.2-.7,.47-.95,.81-.25,.34-.44,.71-.56,1.13-.12,.42-.18,.85-.18,1.28s.07,.86,.2,1.28c.13,.42,.33,.79,.59,1.12,.26,.32,.59,.59,.99,.79,.4,.2,.86,.31,1.39,.31Z"/>
      <path class="cls-3" d="M327.66,854.49c.67-1.06,1.46-1.82,2.36-2.29,.9-.47,1.96-.7,3.19-.7,.72,0,1.42,.1,2.09,.31,.67,.2,1.27,.53,1.78,.99,.52,.46,.92,1.06,1.22,1.8,.3,.74,.45,1.66,.45,2.74v11.27h-3.96v-10.94c0-.98-.22-1.72-.65-2.21-.43-.49-1.02-.74-1.76-.74-.46,0-.93,.07-1.42,.22-.49,.14-.95,.36-1.39,.65-.43,.29-.82,.64-1.15,1.04s-.59,.86-.76,1.37v10.62h-3.96v-26.64h3.96v12.53Z"/>
      <path class="cls-3" d="M353.65,868.6l-.29-2.27h-.14c-.65,.82-1.53,1.47-2.65,1.96-1.12,.49-2.25,.74-3.4,.74-1.51,0-2.7-.44-3.56-1.31s-1.3-2.03-1.3-3.47c0-.98,.21-1.87,.63-2.65,.42-.78,1.03-1.44,1.82-1.98s1.74-.95,2.84-1.24c1.1-.29,2.34-.43,3.71-.43h1.55v-.54c0-.94-.3-1.62-.9-2.05-.62-.43-1.6-.65-2.92-.65-1.78,0-3.36,.4-4.75,1.19l-.76-2.99c1.61-.94,3.55-1.4,5.83-1.4,2.4,0,4.22,.49,5.47,1.48,.58,.46,1.05,1.04,1.42,1.76,.37,.72,.56,1.58,.56,2.59v11.27h-3.17Zm-4.93-2.77c.77,0,1.54-.19,2.3-.56,.77-.37,1.38-.87,1.84-1.49v-3.28h-.68c-1.97,0-3.4,.25-4.3,.76-.9,.5-1.35,1.31-1.35,2.41,0,1.44,.73,2.16,2.2,2.16Z"/>
      <path class="cls-3" d="M361.03,846.72c0-.34,.07-.66,.2-.97,.13-.31,.32-.59,.56-.85s.51-.45,.81-.59c.3-.14,.63-.22,.99-.22,.34,0,.66,.07,.97,.22,.31,.14,.59,.34,.85,.59s.45,.53,.59,.85c.14,.31,.22,.64,.22,.97,0,.36-.07,.69-.22,.99-.14,.3-.34,.57-.59,.81-.25,.24-.53,.43-.85,.56-.31,.13-.64,.2-.97,.2-.7,0-1.3-.25-1.8-.76s-.76-1.1-.76-1.8Zm4.54,21.89h-3.96v-16.56h3.96v16.56Z"/>
    </g>
    <circle class="cls-1" cx="443.3" cy="943.48" r="23.62"/>
    <g>
      <path class="cls-3" d="M513.69,950.5v-17.46h4.14v23.76h-5.08l-10.44-17.42v17.42h-4.14v-23.76h5.08l10.44,17.46Z"/>
      <path class="cls-3" d="M530.57,939.7c2.11,0,3.74,.53,4.9,1.6,1.15,1.07,1.73,2.57,1.73,4.52,0,.26-.02,.55-.05,.85-.04,.3-.08,.59-.14,.88-.06,.29-.13,.55-.22,.77-.08,.23-.17,.41-.27,.56h-10.48c.05,.72,.18,1.4,.4,2.03,.22,.64,.53,1.19,.94,1.66,.41,.47,.91,.84,1.49,1.12,.59,.28,1.28,.41,2.07,.41,.89,0,1.83-.17,2.83-.5,1-.34,1.84-.76,2.54-1.26l.65,2.95c-.31,.19-.7,.4-1.15,.63-.46,.23-.97,.44-1.55,.63-.58,.19-1.19,.35-1.85,.49-.66,.13-1.35,.2-2.07,.2-1.34,0-2.53-.23-3.56-.7-1.03-.47-1.9-1.1-2.59-1.91-.7-.8-1.22-1.73-1.58-2.79-.36-1.06-.54-2.16-.54-3.31s.19-2.3,.56-3.37c.37-1.07,.92-2.01,1.64-2.83,.72-.82,1.61-1.46,2.68-1.93,1.07-.47,2.29-.7,3.65-.7Zm-.11,3.1c-1.01,0-1.87,.29-2.57,.88-.71,.59-1.22,1.39-1.53,2.39h6.88c.02-.07,.04-.16,.05-.25,.01-.1,.02-.22,.02-.36,0-.77-.26-1.4-.79-1.91-.53-.5-1.21-.76-2.05-.76Z"/>
      <path class="cls-3" d="M553.57,945.28l-3.56,11.52h-4.79l-6.01-16.56h4.14l4.32,12.71,3.92-12.71h3.96l3.92,12.71,4.32-12.71h4.07l-6.01,16.56h-4.72l-3.56-11.52Z"/>
      <path class="cls-3" d="M574.71,933.04h4.64l6.08,10.76,5.83-10.76h4.57l-8.46,14v9.76h-4.14v-9.61l-8.53-14.15Z"/>
      <path class="cls-3" d="M602.79,939.7c1.46,0,2.72,.25,3.78,.74,1.06,.49,1.93,1.15,2.61,1.98,.68,.83,1.19,1.78,1.51,2.84,.32,1.07,.49,2.19,.49,3.37s-.16,2.29-.49,3.33c-.32,1.04-.83,1.96-1.51,2.74-.68,.78-1.55,1.4-2.59,1.85s-2.27,.68-3.69,.68-2.72-.24-3.78-.72c-1.06-.48-1.93-1.12-2.63-1.93-.7-.8-1.21-1.73-1.55-2.79-.34-1.06-.5-2.17-.5-3.35s.17-2.29,.5-3.35c.34-1.06,.85-1.99,1.53-2.79,.68-.8,1.55-1.44,2.61-1.91,1.06-.47,2.29-.7,3.71-.7Zm.07,14.54c.7,0,1.3-.15,1.82-.45,.52-.3,.94-.71,1.28-1.22,.34-.52,.58-1.11,.74-1.78,.16-.67,.23-1.38,.23-2.12s-.08-1.51-.25-2.21c-.17-.71-.43-1.33-.77-1.87-.35-.54-.79-.97-1.31-1.3-.53-.32-1.16-.49-1.91-.49-.7,0-1.3,.15-1.8,.45-.5,.3-.92,.7-1.24,1.21-.32,.5-.56,1.09-.72,1.76-.16,.67-.23,1.38-.23,2.12s.08,1.51,.23,2.21c.16,.71,.41,1.34,.76,1.89,.35,.55,.79,.99,1.31,1.31,.53,.32,1.15,.49,1.87,.49Z"/>
      <path class="cls-3" d="M624.64,943.84c-.24-.19-.61-.35-1.12-.47-.5-.12-.94-.18-1.3-.18-.48,0-.88,.11-1.19,.34-.31,.23-.59,.53-.83,.9-.24,.37-.44,.8-.61,1.28-.17,.48-.32,.97-.47,1.48v9.61h-3.96v-16.56h3.1l.18,3.46h.14c.24-.5,.49-1,.76-1.48,.26-.48,.56-.91,.9-1.28,.34-.37,.73-.67,1.17-.9,.44-.23,.97-.34,1.57-.34,.96,0,1.86,.31,2.7,.94l-1.04,3.2Z"/>
      <path class="cls-3" d="M636.63,946.07l7.06,10.73h-4.32l-5.36-8.14-1.4,1.4v6.73h-3.96v-26.64h3.96v15.37l5.51-5.29h4.43l-5.9,5.83Z"/>
    </g>
    <path class="cls-8" d="M387.84,.15c.09,12.83,.17,25.65,.26,38.48,32.6-.04,90.39,4.27,153.13,34.66,112.36,54.44,157.91,152.5,168.26,176.47,45.93,106.31,24.62,201.69,16.96,230.69l20.3,4.84c-8.38,31.81-31.52,102.32-95.61,166.37-64.8,64.75-136.26,87.72-168.11,95.93l5.15,18.98c21.7-5.79,51.89-15.8,85.18-33.75,33.98-18.33,94.71-57.6,142.15-130.35,30.44-46.68,43.92-89.53,49.74-111.5,35.63-134.48-14.33-246.17-24.02-266.77-37.67-80.07-94.19-127.75-118.04-146.04-50.17-38.47-96.36-54.92-109.23-59.25C462.23,1.5,416.95-.68,387.84,.15Z"/>
    <line class="cls-5" x1="458.33" y1="140.17" x2="462.72" y2="123.77"/>
  </g>
</svg>