<?xml version="1.0" encoding="UTF-8"?>
<svg id="Ebene_2" data-name="Ebene 2" xmlns="http://www.w3.org/2000/svg" viewBox="0 0 960.96 412.55">
  <defs>
    <style>
      .cls-1 {
        fill: #ff6b35;
      }
    </style>
  </defs>
  <g id="Ebene_1-2" data-name="Ebene 1">
    <path class="cls-1" d="M375.28,194.8c3.94,7.69,4.82,15.1-3.43,21.3-10.19,7.69-17.46,2.92-24.4-4.68,1.81,10.74-3.75,11.53-11.48,8.01-7.96-3.66-12.73-18.48-8.66-25.98,3.15-5.79,8.47-9.59,15.05-8.89,8.61,.83,3.84,8.01,4.49,12.41,.19,1.39,.19,2.78,.05,4.21,1.2-7.92,5.56-13.85,14.08-15.79,6.85-1.57,11.44,3.8,14.31,9.4h0Zm14.68-116.97c-2.13,4.21-3.38,8.84-5.05,13.24-3.24,8.34-8.01,13.38-18.29,11.39-7.22-1.44-15.1-1.81-22.69,3.52,2.73,.56,4.54,.93,6.34,1.34,5.7,1.25,15.28-.23,15.42,6.21,.14,7.78-9.12,9.96-16.3,10.79-33.62,3.75-47.28,30.42-62.24,54.78-6.53,10.6-1.81,22.18,5.6,31.86,7.27,9.49,16.21,17.41,25.05,25.28,12.69,11.3,19.77,25.42,20.38,42.51,.56,16.67-6.02,24.31-22.64,27.32-16.44,2.96-32.32-3.84-33.67-18.25-1.81-20.1-14.22-28.76-28.94-38.48-24.64-16.16-33.25-41.54-33.94-73.95-12.18,24.87-9.12,48.48,9.77,67.42,11.07,11.11,8.06,17.69-3.1,23.01-16.86,8.15-23.34,18.85-20.65,38.76,2.5,18.48-5.09,37.05-17.04,51.77-9.26,11.44-5.65,15.42,5.97,19.12,6.76,2.18,13.01,6.02,17.6,11.76,5.37,6.71,4.26,11.62-4.91,12.46-17.6,1.57-35.24,1.62-52.6-2.04-13.89-2.92-22.27-28.48-13.2-39.18,11.25-13.15,21.02-27,26.9-43.39,9.72-27.04,1.62-54.78-23.25-74.09,37.69,62.75,1.99,102.29-41.07,141.05,9.35,4.77,19.59,6.11,26.9,12.92,3.57,3.29,7.64,7.04,6.39,11.99-1.48,5.83-7.55,4.82-12.04,5-11.9,.37-23.76,.88-35.66,.32-28.9-1.34-45.57-21.63-39.08-49.78,4.21-18.34,3.8-33.94-9.31-48.76-5.14-5.88-8.61-13.89-10.88-21.49-3.66-12.09-6.71-22.27-22.13-24.91-9.35-1.57-10.47-13.43-1.16-18.34,14.54-7.73,20.42-20.05,25.28-34.27,3.66-10.7,11.25-18.57,20.88-24.45l29.17-17.92c23.85-14.63,44.73-31.21,54.46-59.6,13.01-37.69,40.06-59.88,80.16-65.8,10.28-1.48,20.14-5.46,30.33-7.83,9.82-2.22,18.29-2.78,15.19-18.11-2.27-11.39,9.72-13.57,19.12-13.75,10-.23,19.77,3.15,17.78,14.91-1.9,11.67,3.8,13.98,12.32,16.07,7.41,1.81,14.63,4.17,22.04,5.93,9.31,2.13,14.4,7.36,16.76,16.99,3.43,14.26,15.88,17.6,27.88,8.01,3.2-2.55,5.7-5.14,9.86-2.45,4.4,2.92,4.45,6.53,2.27,11.07h0Zm-107.15-19.91c-.37-7.04-6.39-12.92-14.31-13.57-6.39-.51-11.25,3.43-12.04,9.77-1.16,9.26,5.37,13.8,12.41,15.79,6.85,1.94,14.22-5.6,13.94-11.99h0Zm47.51,16.95c-2.45-3.75-6.71-2.82-10.05-4.17-4.35-1.76-8.98-3.98-13.2,.37-1.53,1.62-1.2,3.66,.19,5.05,3.52,3.47,7.78,5.37,12.87,5,4.4-.37,8.47-1.3,10.19-6.25Zm38.48,149.71c-10.33,.05-20.65,0-31.21,0,6.21,14.82,22.64,19.54,33.99,10.19,2.41-1.99,6.16-3.98,4.72-7.83-1.16-3.1-4.68-2.36-7.5-2.36Zm-18.71-43.2c5.23,.05,10.42,.09,15.61-.19,5.37-.28,8.61-2.73,4.45-8.01-11.48-14.54-27.88-21.39-45.06-24.64-10.65-1.99-14.73,10.28-20.42,17.13-5.23,6.21-14.36,13.8-10.65,21.21,2.32,4.63,14.31,4.4,23.8,6.85,1.67,.6,4.58,.14,6.9-3.1,6.34-8.8,15.79-9.4,25.38-9.26h0Z"/>
    <path class="cls-1" d="M946.53,30.69c-2.81-1.92-7.24-3.95-6.64-7.66,2.51-17.54-10.23-16.04-20.65-16.4-4.55-.18-8.8-.06-13.23-1.86-14.54-5.87-29.75-5.69-44.77-2.87-18.07,3.29-32.14,12.63-38.06,30.76-5.81,17.78,.18,32.62,13.35,45.19,6.94,6.58,13.95,13.29,18.43,21.97,7.3,14.01,3.89,27.35-10.17,40.52-16.22,15.32-19.51,16.04-36.51,5.21-28.73-18.43-53.93-40.82-73.38-69.19-11.97-17.48-23.58-35.25-35.01-53.15-11.79-18.43-27.95-24.24-49.38-20.71-32.92,5.63-65.42,13.23-97.14,23.4-15.5,4.97-26.69,6.16-40.1-7.12-18.07-17.84-55.18-16.16-70.09,.06,7.9,0,15.44-.66,22.86,.18,12.99,1.44,26.27,5.39,30.16,19.03,3.59,12.75,9.4,19.87,26.15,18.43-12.09,9.82-20.17,9.58-26.21-1.08-11.49-20.17-38.36-24.72-58.71-9.04,16.04,2.33,34.59-4.49,45.13,13.95-9.94,5.09-10.95,5.69-9.46,8.02,8.44,12.75,3.41,24.18-2.15,35.91-1.2,2.51-1.86,6.58-.66,8.8,8.62,15.68,3.71,30.34-2.75,44.83-3.83,8.56,1.08,9.22,7.12,9.46,2.51-6.04,7.36-10.65,12.93-6.04,5.81,4.79,12.93,4.97,18.85,8.44,21.55,3.35,21.97,3.05,26.09-16.64,3.05,15.5,3.71,16.52,9.46,14.3,21.25-8.2,28.91-29.57,17.48-49.56-2.45-4.37-5.39-8.44-8.14-12.63,14.6,5.39,20.29,16.4,21.61,30.22,.36,3.77-1.86,9.46,2.99,10.71,13.71,3.71,9.28,15.8,7.84,22.32-1.86,8.26-1.56,17.42-6.52,25.32-3.71,5.93-1.74,10.53,6.22,9.82-1.62,1.08-3.41,3.17-4.67,2.87-12.81-3.11-13.47,7.36-16.52,14.72-3.95,9.4,4.07,12.27,9.7,16.16,14.3,9.82,31.3,16.1,39.38,33.82,2.15,4.79,7.3,11.49,15.92,6.88,12.03-6.52,16.22-20.35,8.92-32.02-1.98-3.11-3.35-6.46-2.69-9.94,1.2-6.64-2.33-7.48-7.66-7.48-4.49,0-9.04-.6-13.47-1.68-6.4-1.56-11.25-5.69-11.19-12.51,.06-6.7,6.52-6.88,11.19-8.14,26.69-6.76,41.9-24.54,49.62-50.15,2.03-6.76,2.15-14.42,8.14-21.85,3.53,21.13-3.71,37.47-13.59,53.03-8.02,12.75-7.42,14.06,8.02,15.26,10.05,.78,20.53,.12,29.81,4.37,9.4,4.31,13.71,2.81,17.24-7.54,4.61-13.47,13.29-23.88,29.93-25.32-.72,5.75-4.43,7.18-6.82,9.64-24.96,26.39-25.26,71.82-.54,98.04,23.76,25.26,23.58,55.3-.66,79.84-1.8,1.8-3.59,3.59-5.21,5.51-6.16,7.48-13.71,16.16-9.34,25.62,3.95,8.5,15.14,5.63,23.46,6.34,12.33,1.08,19.21-2.99,18.13-16.94-.84-10.95,4.85-20.23,13.59-25.74,8.92-5.63,17.96-8.68,8.2-21.49-2.09-2.75-2.69-11.01,1.98-13.71,4.73-2.75,7.78,3.29,10.83,6.22,11.55,11.07,11.49,25.2,8.98,39.5-1.44,7.96-3.83,15.68-5.81,23.52-2.27,8.92,1.26,13.53,10.35,14.06,34.17,2.03,41.42,2.39,29.69-33.1-4.67-14.06-5.39-28.97,10.47-38.84,4.49-2.81,7.42-7.78,5.75-14.06-16.28,3.53-32.26-3.17-39.2-16.28-7.3-13.89,2.27-22.8,10.05-32.02,3.23-3.83,6.88-7.36,10.59-10.89,20.89-19.87,24.48-44.11,13.89-69.43-5.09-12.27-3.17-17.84,6.52-25.98,33.28-27.95,34.05-54.28,4.49-86.6-5.09-5.57-10.29-11.25-14.18-17.66-9.58-15.86-3.29-32.86,14.06-39.32,10.17-3.71,20.77-3.89,31.42-3.47,7.72,.24,13.47,1.98,15.32,11.07,1.56,7.66,6.52,14.24,14.42,16.22,13.23,3.29,25.68,8.2,38.96,17.84-2.27-13.77-4.25-24.24-14.42-31.3h0ZM501.25,123.1c-6.04,.84-6.58-4.85-6.28-8.02,.48-4.79,2.45-10.95,7.78-11.67,5.39-.72,6.4,5.21,7.48,9.34,0,6.28-3.35,9.64-8.98,10.35Zm94.5,78.58c-1.14,5.69-7.18,1.8-11.37,1.74,14.84-7.54,3.35-21.91,10.17-34.17,3.59,11.67,3.23,22.32,1.2,32.44Zm-24.42,44.71c-20.23-14.01-21.01-15.86-9.88-41.18-12.39,8.68-18.19,18.73-25.56,27.53-8.2,9.82-5.87,16.52,4.55,23.04,10.89,6.82,23.04,12.57,27.41,26.63,2.39,7.72,5.75,16.58,16.76,9.58,8.8-5.57,18.91-10.35,11.55-24.54-5.51-10.95-15.92-14.9-24.84-21.07Zm-64.58-76.25h.66c-.3-.24-.66-.36-.96-.54h-.06c.18,.18,.3,.42,.36,.54Zm-9.58,.3c-5.09,1.68-8.44,5.81-7.66,11.37,.66,5.21,4.91,7.48,9.82,7.18,5.69-.36,8.98-3.89,9.7-9.52,.42-3.35-.18-6.52-2.27-9.28-3.23-.06-6.64-.72-9.58,.24h0Zm-22.38-2.69l.18-.42,.06-.06h-.3l-.18,.42c.06,0,.12,0,.24,.06Zm-5.39,7.42c2.45,3.59,7.12,5.99,11.91,4.13,3.71-1.5,4.37-5.45,3.77-8.98-1.38-8.14-6.82-1.8-10.29-2.63-1.62,2.87-9.4,1.68-5.39,7.48Z"/>
  </g>
</svg>