<?xml version="1.0" encoding="UTF-8"?>
<svg id="Ebene_2" data-name="Ebene 2" xmlns="http://www.w3.org/2000/svg" viewBox="0 0 948.08 436.92">
  <defs>
    <style>
      .cls-1 {
        fill: #ff6b35;
      }
    </style>
  </defs>
  <g id="Ebene_1-2" data-name="Ebene 1">
    <path class="cls-1" d="M934.96,61.89c-2.56-1.74-6.59-3.59-6.04-6.97,2.29-15.95-9.31-14.59-18.78-14.92-4.14-.16-8-.05-12.03-1.69-13.23-5.33-27.05-5.17-40.72-2.61-16.44,2.99-29.23,11.49-34.62,27.98-5.28,16.17,.16,29.67,12.14,41.1,6.31,5.99,12.68,12.08,16.77,19.98,6.64,12.74,3.54,24.88-9.25,36.85-14.75,13.94-17.75,14.59-33.21,4.74-26.13-16.77-49.05-37.12-66.74-62.93-10.89-15.9-21.45-32.06-31.84-48.34-10.72-16.77-25.42-22.05-44.91-18.83-29.94,5.12-59.5,12.03-88.35,21.28-14.1,4.52-24.28,5.61-36.47-6.48-16.44-16.22-50.19-14.7-63.74,.05,7.19,0,14.04-.6,20.79,.16,11.81,1.31,23.9,4.9,27.44,17.31,3.27,11.59,8.55,18.07,23.79,16.77-11,8.93-18.34,8.71-23.84-.98-10.45-18.34-34.89-22.48-53.4-8.22,14.59,2.12,31.46-4.08,41.04,12.68-9.04,4.63-9.96,5.17-8.6,7.29,7.68,11.59,3.1,21.99-1.96,32.66-1.09,2.29-1.69,5.99-.6,8,7.84,14.26,3.37,27.6-2.5,40.77-3.48,7.78,.98,8.38,6.48,8.6,2.29-5.5,6.7-9.69,11.76-5.5,5.28,4.35,11.76,4.52,17.15,7.68,19.6,3.05,19.98,2.78,23.73-15.13,2.78,14.1,3.37,15.02,8.6,13.01,19.32-7.46,26.29-26.89,15.89-45.07-2.23-3.97-4.9-7.68-7.4-11.49,13.28,4.9,18.45,14.92,19.65,27.49,.33,3.43-1.69,8.6,2.72,9.74,12.47,3.37,8.44,14.37,7.13,20.3-1.69,7.51-1.42,15.84-5.93,23.03-3.37,5.39-1.58,9.58,5.66,8.93-1.47,.98-3.1,2.89-4.25,2.61-11.65-2.83-12.25,6.7-15.02,13.39-3.59,8.55,3.7,11.16,8.82,14.7,13.01,8.93,28.47,14.64,35.82,30.76,1.96,4.35,6.64,10.45,14.48,6.26,10.94-5.93,14.75-18.51,8.11-29.12-1.8-2.83-3.05-5.88-2.45-9.04,1.09-6.04-2.12-6.8-6.97-6.8-4.08,0-8.22-.54-12.25-1.52-5.82-1.42-10.23-5.17-10.18-11.38,.05-6.1,5.93-6.26,10.18-7.4,24.28-6.15,38.1-22.32,45.13-45.62,1.85-6.15,1.96-13.12,7.4-19.87,3.21,19.22-3.37,34.08-12.36,48.23-7.29,11.59-6.75,12.79,7.29,13.88,9.15,.71,18.67,.11,27.11,3.97,8.55,3.92,12.47,2.56,15.68-6.86,4.19-12.25,12.08-21.72,27.22-23.03-.65,5.23-4.03,6.53-6.21,8.76-22.7,24.01-22.97,65.32-.49,89.16,21.61,22.97,21.45,50.3-.6,72.62-1.63,1.63-3.27,3.27-4.74,5.01-5.61,6.8-12.47,14.7-8.49,23.3,3.59,7.73,13.77,5.12,21.34,5.77,11.21,.98,17.47-2.72,16.49-15.41-.76-9.96,4.41-18.4,12.36-23.41,8.11-5.12,16.33-7.89,7.46-19.54-1.91-2.5-2.45-10.02,1.8-12.47,4.3-2.5,7.08,2.99,9.85,5.66,10.51,10.07,10.45,22.92,8.17,35.93-1.31,7.24-3.48,14.26-5.28,21.39-2.07,8.11,1.14,12.3,9.42,12.79,31.08,1.85,37.67,2.18,27-30.1-4.25-12.79-4.9-26.35,9.53-35.33,4.08-2.56,6.75-7.08,5.23-12.79-14.81,3.21-29.34-2.89-35.65-14.81-6.64-12.63,2.07-20.74,9.15-29.12,2.94-3.48,6.26-6.7,9.63-9.91,19-18.07,22.26-40.12,12.63-63.14-4.63-11.16-2.89-16.22,5.93-23.62,30.27-25.42,30.97-49.37,4.08-78.77-4.63-5.06-9.36-10.23-12.9-16.06-8.71-14.43-2.99-29.88,12.79-35.76,9.25-3.37,18.89-3.54,28.58-3.16,7.02,.22,12.25,1.8,13.94,10.07,1.42,6.97,5.93,12.96,13.12,14.75,12.03,2.99,23.35,7.46,35.44,16.22-2.07-12.52-3.86-22.05-13.12-28.47h0Zm-405,84.05c-5.5,.76-5.99-4.41-5.72-7.29,.44-4.35,2.23-9.96,7.08-10.61,4.9-.65,5.82,4.74,6.8,8.49,0,5.72-3.05,8.76-8.17,9.42Zm85.95,71.47c-1.03,5.17-6.53,1.63-10.34,1.58,13.5-6.86,3.05-19.92,9.25-31.08,3.27,10.61,2.94,20.3,1.09,29.5Zm-22.21,40.66c-18.4-12.74-19.11-14.43-8.98-37.45-11.27,7.89-16.55,17.04-23.24,25.04-7.46,8.93-5.33,15.02,4.14,20.96,9.91,6.21,20.96,11.43,24.93,24.22,2.18,7.02,5.23,15.08,15.24,8.71,8-5.06,17.2-9.42,10.51-22.32-5.01-9.96-14.48-13.55-22.59-19.16Zm-58.74-69.35h.6c-.27-.22-.6-.33-.87-.49h-.05c.16,.16,.27,.38,.33,.49Zm-8.71,.27c-4.63,1.52-7.68,5.28-6.97,10.34,.6,4.74,4.46,6.8,8.93,6.53,5.17-.33,8.17-3.54,8.82-8.66,.38-3.05-.16-5.93-2.07-8.44-2.94-.05-6.04-.65-8.71,.22h0Zm-20.36-2.45l.16-.38,.05-.05h-.27l-.16,.38c.05,0,.11,0,.22,.05Zm-4.9,6.75c2.23,3.27,6.48,5.44,10.83,3.76,3.37-1.36,3.97-4.95,3.43-8.17-1.25-7.4-6.21-1.63-9.36-2.4-1.47,2.61-8.55,1.52-4.9,6.8Z"/>
    <path class="cls-1" d="M404.6,202.16c4.24,8.29,5.19,16.28-3.69,22.97-10.98,8.29-18.82,3.15-26.31-5.04,1.95,11.58-4.04,12.43-12.38,8.64-8.59-3.94-13.73-19.92-9.34-28.01,3.39-6.24,9.14-10.33,16.23-9.59,9.29,.9,4.14,8.64,4.84,13.38,.2,1.5,.2,3,.05,4.54,1.3-8.54,5.99-14.93,15.18-17.02,7.39-1.7,12.33,4.09,15.43,10.13h0Zm15.83-126.11c-2.3,4.54-3.64,9.54-5.44,14.28-3.49,8.99-8.64,14.43-19.72,12.28-7.79-1.55-16.28-1.95-24.46,3.79,2.95,.6,4.89,1,6.84,1.45,6.14,1.35,16.48-.25,16.62,6.69,.15,8.39-9.84,10.73-17.57,11.63-36.25,4.04-50.97,32.8-67.1,59.06-7.04,11.43-1.95,23.91,6.04,34.35,7.84,10.23,17.47,18.77,27.01,27.26,13.68,12.18,21.32,27.41,21.97,45.83,.6,17.97-6.49,26.21-24.41,29.46-17.72,3.2-34.85-4.14-36.3-19.67-1.95-21.67-15.33-31-31.2-41.49-26.56-17.42-35.85-44.78-36.59-79.73-13.13,26.81-9.84,52.27,10.53,72.69,11.93,11.98,8.69,19.07-3.34,24.81-18.17,8.79-25.16,20.32-22.27,41.79,2.7,19.92-5.49,39.94-18.37,55.82-9.98,12.33-6.09,16.62,6.44,20.62,7.29,2.35,14.03,6.49,18.97,12.68,5.79,7.24,4.59,12.53-5.29,13.43-18.97,1.7-37.99,1.75-56.71-2.2-14.98-3.15-24.01-30.7-14.23-42.24,12.13-14.18,22.67-29.11,29.01-46.78,10.48-29.16,1.75-59.06-25.06-79.88,40.64,67.65,2.15,110.28-44.28,152.07,10.08,5.14,21.12,6.59,29.01,13.93,3.84,3.54,8.24,7.59,6.89,12.93-1.6,6.29-8.14,5.19-12.98,5.39-12.83,.4-25.61,.95-38.44,.35-31.15-1.45-49.13-23.31-42.14-53.67,4.54-19.77,4.09-36.59-10.03-52.57-5.54-6.34-9.29-14.98-11.73-23.17-3.94-13.03-7.24-24.01-23.86-26.86-10.08-1.7-11.28-14.48-1.25-19.77,15.68-8.34,22.02-21.62,27.26-36.94,3.94-11.53,12.13-20.02,22.52-26.36l31.45-19.32c25.71-15.78,48.23-33.65,58.71-64.25,14.03-40.64,43.18-64.55,86.42-70.94,11.08-1.6,21.72-5.89,32.7-8.44,10.58-2.4,19.72-3,16.38-19.52C279.94,2.56,292.87,.21,303,.01c10.78-.25,21.32,3.39,19.17,16.08-2.05,12.58,4.09,15.08,13.28,17.32,7.99,1.95,15.78,4.49,23.76,6.39,10.03,2.3,15.53,7.94,18.07,18.32,3.69,15.38,17.12,18.97,30.05,8.64,3.44-2.75,6.14-5.54,10.63-2.65,4.74,3.15,4.79,7.04,2.45,11.93h0Zm-115.53-21.47c-.4-7.59-6.89-13.93-15.43-14.63-6.89-.55-12.13,3.69-12.98,10.53-1.25,9.98,5.79,14.88,13.38,17.02,7.39,2.1,15.33-6.04,15.03-12.93h0Zm51.22,18.27c-2.65-4.04-7.24-3.05-10.83-4.49-4.69-1.9-9.69-4.29-14.23,.4-1.65,1.75-1.3,3.94,.2,5.44,3.79,3.74,8.39,5.79,13.88,5.39,4.74-.4,9.14-1.4,10.98-6.74Zm41.49,161.41c-11.13,.05-22.27,0-33.65,0,6.69,15.98,24.41,21.07,36.64,10.98,2.6-2.15,6.64-4.29,5.09-8.44-1.25-3.34-5.04-2.55-8.09-2.55Zm-20.17-46.58c5.64,.05,11.23,.1,16.82-.2,5.79-.3,9.29-2.95,4.79-8.64-12.38-15.68-30.05-23.07-48.58-26.56-11.48-2.15-15.88,11.08-22.02,18.47-5.64,6.69-15.48,14.88-11.48,22.87,2.5,4.99,15.43,4.74,25.66,7.39,1.8,.65,4.94,.15,7.44-3.34,6.84-9.49,17.02-10.13,27.36-9.98h0Z"/>
  </g>
</svg>