<?xml version="1.0" encoding="UTF-8"?>
<svg id="Ebene_2" data-name="Ebene 2" xmlns="http://www.w3.org/2000/svg" viewBox="0 0 789.1 1000.1">
  <defs>
    <style>
      .cls-1 {
        fill: #ff6b35;
      }
    </style>
  </defs>
  <g id="Ebene_1-2" data-name="Ebene 1">
    <path class="cls-1" d="M789,743.6c-1.4,2.4-1.2,4.9,0,7.3,0,52.2,.1,104.4-.1,156.5-.2,46.9-28.6,82.4-72.5,90.8-6,1.1-12.2,1.6-18.3,1.6-43.3,.1-86.5,.1-129.8,.1l-34.8,.2-7.6-.2-261,.1c-58.1,0-116.2-.1-174.3-.2-3.1,0-6.1,.2-9.2,.3-3.3-2.4-7.3-1.4-10.9-2.3h-.1l-4-1.2-5.3,.2c-3.2-4-8.4-4.1-12.4-6.6l-11.7-6.9c-3.6-3.7-7.4-7.2-11.9-9.7l-14.1-19.7c-1.1-4.8-3.4-9.2-5.9-13.4l-.7-3.1c.1-.3,.3-.6,.3-.8l-.7-1.5-2.3-10.7L0,905.7c.2-.5,.4-1,.5-1.6,1.9-2.1,1.1-4.7,1.1-7v-169c0-2.4-.6-4.8-.9-7.2v-3c1-.8,1-1.7,.1-2.6-.1-2.9-.2-5.7-.4-8.6,1.8-2.5,1.1-5.3,1.1-8v-233.5c0-2.7-.5-5.4-.8-8.1v-2.9c.9-.9,.9-1.7-.1-2.6l-.6-3.3c1.2-3.8,2.4-7.5,.6-11.4l-.6-8.9c2.1-6.8,1-13.7,.6-20.6v-8.5c.3-2.4,.9-4.8,.9-7.2V165c0-2.7,.6-5.6-1.1-8.1l.2-3.4c1.6-16.2,1.7-32.4,0-48.6l-.3-3.4c2-3.1,1.7-6.3,.4-9.6v-3c1.2-3.2,1.3-6.5,.6-9.8C7,32.9,43.8,0,90.5,0c202.6,.2,405,.2,607.5,.3,52.2,0,90.3,38.1,90.8,90.4,.3,33.8,.1,67.6,.1,101.4-1.2,1.3-1.2,2.5,.2,3.7-.1,6.4-.3,12.9-.3,19.3V737.2c.1,2.1,.2,4.2,.2,6.4h0Zm-225.7-319.6c-4.8-1.7-9.3,0-13.9,1.1l-3.1,.1-2.4,.7-8.8,2.4c-6.5,1.9-12.9,3.7-18.5,7.7-43.5,20.5-66.9,77.4-50.8,123.5,17.9,51.4,69.7,81.7,120.3,70.4,60.6-13.5,96.2-72.3,79.1-131.7-7.5-25.9-23-46.3-47.2-59.2-2.8-3.1-5.9-5.5-10.4-5.4-4.4-4-9.8-5.2-15.4-5.7-3.9-2.7-8.4-3.1-13-3.2-5.3-.6-10.5-1.9-15.9-.7h0Zm-278.9,277c0-3.2-2.8-3.8-4.7-4.9-21.7-12.4-44.9-18-69.8-13.5-39,7-66.8,28.7-81,65.7-14.5,37.8-8,73.2,17.6,104.4,36.6,44.6,105.9,49.6,148.1,11.4,45.4-41.1,48.1-109.2,5.6-151.7-4.6-4.6-8.5-10.5-15.8-11.4ZM397.7,85.3v-.3c-75.3,0-150.5-.2-225.8,.1-48.3,.2-87.9,41.8-86.9,89.9,.5,24.9,.2,49.8,.2,74.6,0,54,37.9,92.1,92.1,92.1h194.5c83.9,0,167.7,0,251.6-.2,13.4,0,26.2-3.7,37.6-10.7,30.2-18.5,45.5-44,44.9-81-.4-27.1,.8-54.4,.5-81.6-.5-43.7-39.4-82.6-82.9-82.8-75.3-.5-150.6-.1-225.8-.1h0ZM121.8,526.8c-.4,58.3,45.5,105,103.8,105.8,56.3,.8,104.5-46.7,104.7-103.2,.2-57.7-45.5-105-102.1-105.4-58.8-.6-106.1,45.1-106.4,102.8h0Zm548.2,259.8c.4-57.6-45.2-104.8-102-105.5-58.1-.7-105.5,45.6-106,103.6-.5,57.7,45.9,104.7,103.3,105.1,55.3,.3,105.2-44.2,104.7-103.2h0Zm-499.9-19.7c15.8-.1,31.5-.2,47.3-.2l4.5,.2c18.7,0,37.4,0,56.2,.1,13.1,.1,20.9,6.7,21.1,17.8,.2,12.3-7.5,19.5-21.3,19.5-35,.1-70,.2-105-.1-11.6-.1-18.1-5.5-19.9-15.2-1.9-10.3,2.9-17.4,14.8-21.8l2.3-.3Zm94.6-183.4c-3.2,.3-7.4-2-11.2-5.4-7.3-6.6-14.9-12.8-21.8-19.8-3.7-3.8-5.6-2.8-8.5,.7-5.9,7-12.1,13.9-18.3,20.7-8.5,9.3-19.3,10.6-27.7,3.5-8.4-7.1-8.7-19.2-.5-28.7,6-7,12.2-13.8,18.8-20.3,3.9-3.8,3.3-6-.7-9.3-7.1-5.8-13.9-12-20.6-18.3-9.5-9-10.4-19.3-2.8-27.5,7.9-8.5,18.2-8.6,27.7-.3,6.9,6.1,14,12,20.5,18.4,3.7,3.6,6,4,9.4-.3,5.6-6.9,11.6-13.4,17.7-19.9,9.2-9.7,20.1-11,28.3-3.5,8.3,7.6,8.1,18.7-.5,28.6-5.7,6.5-11.2,13.1-17.3,19-4.2,4.1-4.6,6.6,.3,10.6,7.7,6.1,14.8,12.9,21.9,19.7,6.2,6,7.6,13.4,4,21.1-3,6.9-8.7,10.7-18.7,11h0Zm362.6,160c10.7,6.5,14.1,13.1,11.7,22.2-2.7,9.9-9.3,14.4-21.5,14.4-34.3,.1-68.6,.1-102.9,0-11.5,0-19.7-6-21.7-15.6-1.8-9.1,3.2-16.7,14.3-21.5,5.1,0,10.3,1.2,15.2-1l4.8,.5c33.4,.4,66.7,.7,100.1,1h0Zm-60.9,47.7h51.5c13,0,21.9,7.4,21.9,18.3s-8.6,18.9-21.3,18.9h-104.9c-12.3,0-20.8-7.5-21-18.3-.3-10.9,8.7-18.8,21.4-18.8,17.4-.1,34.9-.1,52.4-.1h0Zm9.2-335.1c6.2,6.1,7.9,13.4,7.9,22.1,0,10.3-2.3,20.8,1.6,30.8,11.7,.1,23.3,0,35,.2,11.1,.2,18.5,7.8,18.5,18.5s-7.5,18.3-18.5,18.6c-10.1,.3-20.3,.2-30.4,0-4.4-.1-5.9,1.2-5.8,5.7,.3,9.8,.3,19.6,0,29.5-.3,11.7-8.1,19.9-18.5,19.9s-18.7-8.6-18.9-20.6c-.1-8.6-.5-17.2,.1-25.8,.4-6.7-1.2-9.4-8.5-8.8-8.8,.7-17.8,.4-26.7,.2-11.9-.3-19.4-7.7-19.3-18.8,.1-11.1,7.5-18.2,19.7-18.4,9.2-.2,18.4-.4,27.6,.1,5.9,.3,7.3-1.9,7.1-7.3-.4-10.4-.1-20.9-.1-31.3,1.6-8.5,7.3-13.4,14.5-17,5,.1,10,.1,14.7,2.4h0Z"/>
  </g>
</svg>