<?xml version="1.0" encoding="UTF-8"?>
<svg id="Ebene_2" data-name="Ebene 2" xmlns="http://www.w3.org/2000/svg" viewBox="0 0 1000.1 904.04">
  <defs>
    <style>
      .cls-1 {
        fill: #ff6b35;
      }
    </style>
  </defs>
  <g id="Ebene_1-2" data-name="Ebene 1">
    <path class="cls-1" d="M614.9,711.64c0,13,2.9,17.1,16.4,16.8,37.4-.9,74.9-.1,112.4,.1,0-210.4-.1-420.8,.2-631.2,0-8.9-1.8-10.9-10.7-10.8-39.5,.6-79,.3-118.4,.3,.1,3.5,.4,7,.4,10.4,0,204.8,.1,409.6-.3,614.4h0Zm-159.2-37.3c-.1,6.2,2.8,8.1,13.3,7.9,33.5-.4,66.9-.4,100.4,0,11.6,.1,15.5-1.6,15.2-8.8-.7-26.4-.3-52.8-.3-79.2,0-68.8-.3-137.6,.4-206.5,.1-8.4-4.2-10.3-17.5-10.1-31.9,.5-63.9,.5-95.9,0-12.3-.2-15.9,1.6-15.8,9.1,.6,47.8,.3,95.5,.3,143.3,.1,48.2,.3,96.3-.1,144.3h0Zm-146.7,53.9c33.4-.7,66.9-.9,100.3,.1,12,.3,15.2-4.3,15.1-18.2-.5-71-.2-142-.2-213s-.2-142,.2-213c.1-12.5-3.1-16.5-13.6-16.2-33.9,.7-67.9,.7-101.8,0-10.5-.2-13.6,3.8-13.5,16.3,.3,142.6,.3,285.2,0,427.9-.1,12.2,3,16.3,13.5,16.1h0ZM148.7,441.34c33.4-.4,66.9-.5,100.3,0,12,.2,15.2-2.4,15.1-10.1-.5-39.6-.2-79.2-.2-118.8s-.2-79.2,.2-118.8c.1-7-3.1-9.2-13.6-9.1-33.9,.4-67.9,.4-101.8,0-10.5-.1-13.6,2.1-13.5,9.1,.3,79.6,.3,159.1,0,238.7-.1,6.8,2.9,9.1,13.5,9h0Zm637.4,171c33.4-.3,66.9-.4,100.3,0,12,.1,15.2-1.8,15.1-7.8-.5-30.7-.2-61.3-.2-92s-.2-61.3,.2-92c.1-5.4-3.1-7.1-13.6-7-33.9,.3-67.9,.3-101.8,0-10.5-.1-13.6,1.7-13.5,7,.3,61.6,.3,123.1,0,184.7-.1,5.4,3,7.2,13.5,7.1Zm203.2,240.2H51.4V36.84c0-5.9-4.8-10.7-10.7-10.7H10.7c-5.9,0-10.7,4.8-10.7,10.7V893.34c0,5.9,4.8,10.7,10.7,10.7H989.4c5.9,0,10.7-4.8,10.7-10.7v-30.1c-.1-5.9-4.9-10.7-10.8-10.7ZM191.57,512.41c5.3-.62,10.61-.78,15.91,0,1.9,.31,2.41-3.73,2.4-15.69-.08-61.52-.03-123.04-.03-184.55s-.03-123.04,.03-184.55c.02-10.87-.49-14.29-2.16-14.14-5.38,.62-10.77,.62-16.15,0-1.67-.16-2.16,3.26-2.14,14.14,.05,123.66,.05,247.16,0,370.81-.02,10.56,.46,14.14,2.14,13.98h0Zm637.4,200c5.3-.62,10.61-.78,15.91,0,1.9,.31,2.41-3.73,2.4-15.69-.08-61.52-.03-123.04-.03-184.55s-.03-123.04,.03-184.55c.02-10.87-.49-14.29-2.16-14.14-5.38,.62-10.77,.62-16.15,0-1.67-.16-2.16,3.26-2.14,14.14,.05,123.66,.05,247.16,0,370.81-.02,10.56,.46,14.14,2.14,13.98h0Zm-477.1,96.62c5.3-.94,10.61-1.17,15.91,0,1.9,.47,2.41-5.62,2.4-23.64-.08-92.67-.03-185.34-.03-278.01s-.03-185.34,.03-278.01c.02-16.38-.49-21.53-2.16-21.3-5.38,.94-10.77,.94-16.15,0-1.67-.23-2.16,4.91-2.14,21.3,.05,186.28,.05,372.32,0,558.59-.02,15.91,.46,21.3,2.14,21.06h0Zm160.15-95.09c5.3-.57,10.61-.72,15.91,0,1.9,.29,2.41-3.45,2.4-14.51-.08-56.88-.03-113.77-.03-170.65s-.03-113.77,.03-170.65c.02-10.06-.49-13.22-2.16-13.07-5.38,.57-10.77,.57-16.15,0-1.67-.14-2.16,3.02-2.14,13.07,.05,114.34,.05,228.54,0,342.88-.02,9.77,.46,13.07,2.14,12.93h0Zm159.25,75.08c5.3-1.23,10.61-1.54,15.91,0,1.9,.61,2.41-7.37,2.4-31.03-.08-121.67-.03-243.34-.03-365.01s-.03-243.34,.03-365.01c.02-21.51-.49-28.27-2.16-27.96-5.38,1.23-10.77,1.23-16.15,0-1.67-.31-2.16,6.45-2.14,27.96,.05,244.57,.05,488.83,0,733.39-.02,20.89,.46,27.96,2.14,27.65h0Z"/>
  </g>
</svg>