<?xml version="1.0" encoding="UTF-8"?>
<svg id="Ebene_2" data-name="Ebene 2" xmlns="http://www.w3.org/2000/svg" viewBox="0 0 875.07 835.52">
  <defs>
    <style>
      .cls-1 {
        fill: #ff6b35;
      }
    </style>
  </defs>
  <g id="Ebene_1-2" data-name="Ebene 1">
    <path class="cls-1" d="M874.87,135.17c0-11.6-.6-23.4-3.2-34.7C857.87,39.28,807.57,.17,742.97,.07,538.87-.02,334.87-.02,130.77,.07,55.57,.07,.07,55.67,.07,130.87c-.1,132.7-.1,265.5,.1,398.2,0,10.7,.9,21.6,3.3,32,14,59.3,62.8,98.4,124,99.7,25,.5,50,.1,77.8,.1-4.1,18.8-6.8,35.9-11.6,52.5-9.9,34.6-22.9,67.7-45.7,96.3-10.1,12.7-5.5,24.1,10.7,25.4,11.3,.9,24.2,.8,34.1-3.7,39.4-18,78.6-36.6,116.5-57.5,44.9-24.8,73.9-67.2,108-103.8,5.9-6.4,11.6-9.4,20.6-9.3,102.7,.3,205.4,.7,308.1,0,74.6-.6,129-56.7,129.1-131.3,0-131.5,0-262.9-.2-394.3h0Z"/>
  </g>
</svg>