<?xml version="1.0" encoding="UTF-8"?>
<svg id="Ebene_2" data-name="Ebene 2" xmlns="http://www.w3.org/2000/svg" viewBox="0 0 875 829.2">
  <defs>
    <style>
      .cls-1 {
        fill: #ff6b35;
      }
    </style>
  </defs>
  <g id="Ebene_1-2" data-name="Ebene 1">
    <path class="cls-1" d="M535.3,267.7C535.3,120.1,415.2,0,267.6,0S0,120.1,0,267.7s120.1,267.6,267.7,267.6,267.6-120,267.6-267.6Zm-458.8,0c0-105.4,85.8-191.2,191.2-191.2s191.1,85.8,191.1,191.2-85.8,191.1-191.1,191.1-191.2-85.7-191.2-191.1h0Zm202.3,145.8v-21.5c51.8-3.1,86.6-26.9,86.6-73.4,0-53.5-40.6-67-86.6-76.8v-66.1c38.6,.7,38.2,38,60.8,38,11.8,0,22-8,22-21.6,0-34.1-55.7-51-82.8-51.8v-18.5c0-5.9-4.5-11.8-10.5-11.8s-10.3,5.9-10.3,11.8v18.5c-43.4,1.4-82.8,25.8-82.8,73.1,0,38.6,31.1,61.2,82.8,70.5v72.7c-57.8-2.4-27.6-50.4-66.5-50.4-13.1,0-21.5,8-21.5,21.9,0,27.6,29.1,62.6,88,64v21.5c0,5.9,4.5,11.9,10.3,11.9s10.5-6,10.5-12h0Zm0-125.8c18.8,4.2,42.8,11.1,42.8,34.8s-22,32.7-42.8,34v-68.8Zm-20.9-49.6c-26.2-5.2-39-15.3-39-32.8,0-15,15.3-28.9,39-29.6v62.4Zm562.5,69.2h-239.2c-5.1,38.9-17.2,75.7-35.8,108.9h275c30.4,0,54.6-24.2,54.6-54.6s-24.2-54.3-54.6-54.3Zm0,137.7h-292.3c-32.5,47-77.6,85-130.3,108.9h422.5c30.4,0,54.6-24.2,54.6-54.6,.1-30.1-24.1-54.3-54.5-54.3h0Zm0-275.4h-250.4c9.3,29.7,14.4,61.7,14.4,94.6,0,5.1,0,9.9-.4,14.7h236.3c30.4,0,54.6-24.6,54.6-54.6,.1-30.4-24.1-54.7-54.5-54.7h0Zm0,412.7H250.3c-30.4,0-54.6,24.6-54.6,54.6s24.2,54.6,54.6,54.6H820.4c30.4,0,54.6-24.2,54.6-54.6s-24.2-54.6-54.6-54.6Zm0,137.7H250.3c-30.4,0-54.6,24.6-54.6,54.6s24.2,54.6,54.6,54.6H820.4c30.4,0,54.6-24.2,54.6-54.6s-24.2-54.6-54.6-54.6Zm0-578.8c30.4,0,54.6-24.6,54.6-54.6s-24.2-54.6-54.6-54.6H483.4c32.5,30.4,58.8,67.7,76.3,109.2h260.7Z"/>
  </g>
</svg>