<?xml version="1.0" encoding="UTF-8"?>
<svg id="Ebene_2" data-name="Ebene 2" xmlns="http://www.w3.org/2000/svg" viewBox="0 0 999.12 999.92">
  <defs>
    <style>
      .cls-1 {
        fill: #ff6b35;
      }
    </style>
  </defs>
  <g id="Ebene_1-2" data-name="Ebene 1">
    <path class="cls-1" d="M586.2,0c8.6,6.5,17.5,12.6,25.8,19.4,35.5,28.9,51.4,64.5,33.7,109.3-17.1,43.2-50.5,65.5-96.7,61.7-46.8-3.8-75.6-33.4-84.7-77.8-9.5-46.2,13.4-79.5,52.8-102.3,6.7-3.9,14-6.9,21.1-10.2l48-.1h0ZM327,436.4c7.3,4.6,11,8.6,15.3,9.5,109.5,22.7,158.7,100.3,185.7,200,7.9,29.1,22.3,56.4,33.2,84.7,10.4,26.8,17.4,56.1-15.2,70.6-33.6,15-49.8-13.6-62-37.3-25.4-49.7-49-100.4-71.2-151.6-11.8-27.1-29.1-42.8-58-51.1-50.5-14.6-100.9-30.8-149.5-50.6-60.3-24.5-77.2-73.6-41.7-127.5,48.4-73.5,106.8-139.5,168.1-202.8,24.1-24.9,52-28.4,83.1-14.5,107.9,48,215.9,95.7,323.8,143.6,21.2,9.4,36.1,24.8,26.8,48.7-9.5,24.6-29.6,30.4-55.3,21.8-77.1-25.9-154.9-49.7-231.6-76.5-21.4-7.5-36.3-6.4-50.6,11-33.2,40.6-66.9,80.9-100.9,122h0Zm-134.7,180.3c104.4,.4,192,89.1,191,193.5s-90.3,191.4-194.7,189.7C86.1,998.4,.3,911.4,0,808.9c-.3-104.6,87.7-192.5,192.3-192.2h0Zm115.5,192.5c.7-63-51.2-116.2-114.1-117-63.8-.8-116.9,49.9-118.2,112.9-1.4,66,51.1,119.8,116.5,119.4,63.8-.3,115.1-51.4,115.8-115.3h0Zm691.3-157.2c1.3,104.4-86,193.3-190.5,194-104.5,.6-192.8-87.2-192.8-191.7s85.5-189.7,188.1-191.6c104.4-1.9,194,85,195.2,189.3h0Zm-75.4,2.5c.3-62.9-52-115.9-114.9-116.3-63.6-.4-116.4,50.8-117.4,113.7-1,65.9,51.8,119.4,117.3,118.6,63.8-.7,114.7-52.1,115-116h0ZM38.5,286.4c4.4-29.3,17.4-54.7,37.6-75.8,47.1-49.2,102.7-80.2,173.5-75,22.2,1.7,34.8,9.1,16.1,32.1-49.4,60.5-98.6,121-147.9,181.6-8.3,10.2-15.9,20.2-31.4,9.9-26.5-17.7-46.6-38.8-47.9-72.8h0Z"/>
  </g>
</svg>