<?xml version="1.0" encoding="UTF-8"?>
<svg id="Ebene_2" data-name="Ebene 2" xmlns="http://www.w3.org/2000/svg" viewBox="0 0 875.18 845.75">
  <defs>
    <style>
      .cls-1 {
        fill: #ff6b35;
      }
    </style>
  </defs>
  <g id="Ebene_1-2" data-name="Ebene 1">
    <path class="cls-1" d="M865.49,203.15c-45.7-34.3-91.5-68.4-137-102.9-11.7-8.8-24.3-12.9-38.9-12.8-61.7,.2-123.4,0-185.1,.3-7.5,0-9.1-2.3-8.9-9.2,.5-16.1,.3-32.2,.2-48.3-.1-17.8-12-29.9-29.7-30.1-18.5-.2-37.1-.2-55.6,0-19,.2-30.6,11.8-30.8,30.8-.2,16.1-.4,32.2,.1,48.3,.2,7-2,8.6-8.7,8.5-38-.3-76-.3-114-.2-30,.1-52.5,22.5-52.6,52.4-.1,51.7-.1,103.3,0,155,.1,33.1,21.7,54.5,54.9,54.6,37.4,0,74.8,.2,112.1-.1,6.4-.1,8.3,1.8,8.1,8.2-.5,13.7-.6,27.4,0,41,.4,7.9-1.7,10.2-9.9,10.1-62.3-.4-124.6-.1-186.9-.2-12.3,0-23.3,3.3-33.1,10.7-46.9,35.2-93.9,70.3-140.7,105.6-12.2,9.2-11.9,20.6,.4,29.9,46.6,35,93.3,70,140,105,10.1,7.6,21.4,11,34,10.9,30.7-.1,61.4,0,92.1,0s63.2,.3,94.8-.2c7.9-.1,9.4,2.5,9.3,9.8-.3,44.7-.2,89.3-.1,134,0,20,11.9,31.5,31.9,31.5h51.1c22,0,33-11.1,33.1-33.1,0-44.4,.2-88.7-.2-133.1-.1-7.3,2.1-9.1,9.1-9,37.7,.4,75.4,.2,113,.2,30.5,0,53-22.4,53.1-52.9,.1-52,.1-103.9-.1-155.9-.1-31.3-22.2-53.2-53.5-53.2-37.7,0-75.4-.2-113,.1-6.8,.1-8.9-1.7-8.6-8.6,.6-13.3,.6-26.8,0-40.1-.4-8,1.6-10.7,10.3-10.6,62.3,.4,124.6,.2,186.9,.2,12.3,0,23.3-3.6,33.1-10.9,46.7-35,93.3-70,139.9-105,12.9-9.8,12.7-21.1-.1-30.7h0Zm-268.4,263.1c14.5,0,16,1.6,16,16.3v115.7c0,12.2-2.3,14.5-14.2,14.5-136.7,0-273.4,0-410,.1-4.8,0-8.8-1-12.7-3.9-26.9-19.8-53.9-39.4-80.9-59.1-11-8-10.9-12.8,0-20.8,26.5-19.4,53-38.6,79.4-58.1,4.6-3.4,9.3-4.9,15.1-4.9,68,.1,136.1,.1,204.1,.1,67.7,.1,135.5,.1,203.2,.1h0Zm183-237.3c-26.5,19.4-53,38.6-79.4,58.1-4.6,3.4-9.3,4.9-15.1,4.9-135.8-.1-271.5-.1-407.3-.1-14.5,0-16-1.7-16-16.3v-114.8c0-13.5,1.9-15.4,15.1-15.4h205c67.4,0,134.9,.1,202.3-.1,6.4,0,11.5,1.6,16.7,5.5,26.1,19.4,52.5,38.3,78.7,57.5,11,8,11,12.7,0,20.7h0Z"/>
  </g>
</svg>