<?xml version="1.0" encoding="UTF-8"?>
<svg id="Ebene_2" data-name="Ebene 2" xmlns="http://www.w3.org/2000/svg" viewBox="0 0 505 505">
  <defs>
    <style>
      .cls-1 {
        fill: #fff;
      }

      .cls-2 {
        fill: #ff6b35;
      }
    </style>
  </defs>
  <g id="Ebene_2-2" data-name="Ebene 2">
    <circle class="cls-2" cx="252.5" cy="252.5" r="252.5"/>
    <path class="cls-1" d="M412.57,170.31c-17.1-12.83-34.23-25.59-51.25-38.49-4.38-3.29-9.09-4.83-14.55-4.79-23.08,.07-46.16,0-69.24,.11-2.81,0-3.4-.86-3.33-3.44,.19-6.02,.11-12.05,.07-18.07-.04-6.66-4.49-11.18-11.11-11.26-6.92-.07-13.88-.07-20.8,0-7.11,.07-11.45,4.41-11.52,11.52-.07,6.02-.15,12.05,.04,18.07,.07,2.62-.75,3.22-3.25,3.18-14.22-.11-28.43-.11-42.65-.07-11.22,.04-19.64,8.42-19.68,19.6-.04,19.34-.04,38.64,0,57.98,.04,12.38,8.12,20.39,20.54,20.42,13.99,0,27.98,.07,41.93-.04,2.39-.04,3.1,.67,3.03,3.07-.19,5.12-.22,10.25,0,15.34,.15,2.96-.64,3.82-3.7,3.78-23.31-.15-46.61-.04-69.92-.07-4.6,0-8.72,1.23-12.38,4-17.54,13.17-35.13,26.3-52.63,39.5-4.56,3.44-4.45,7.71,.15,11.18,17.43,13.09,34.9,26.19,52.37,39.28,3.78,2.84,8.01,4.11,12.72,4.08,11.48-.04,22.97,0,34.45,0s23.64,.11,35.46-.07c2.96-.04,3.52,.94,3.48,3.67-.11,16.72-.07,33.41-.04,50.13,0,7.48,4.45,11.78,11.93,11.78h19.12c8.23,0,12.34-4.15,12.38-12.38,0-16.61,.07-33.18-.07-49.79-.04-2.73,.79-3.4,3.4-3.37,14.1,.15,28.21,.07,42.27,.07,11.41,0,19.83-8.38,19.86-19.79,.04-19.45,.04-38.87-.04-58.32-.04-11.71-8.3-19.9-20.01-19.9-14.1,0-28.21-.07-42.27,.04-2.54,.04-3.33-.64-3.22-3.22,.22-4.98,.22-10.03,0-15-.15-2.99,.6-4,3.85-3.97,23.31,.15,46.61,.07,69.92,.07,4.6,0,8.72-1.35,12.38-4.08,17.47-13.09,34.9-26.19,52.33-39.28,4.83-3.67,4.75-7.89-.04-11.48h0Zm-100.4,98.42c5.42,0,5.99,.6,5.99,6.1v43.28c0,4.56-.86,5.42-5.31,5.42-51.14,0-102.27,0-153.37,.04-1.8,0-3.29-.37-4.75-1.46-10.06-7.41-20.16-14.74-30.26-22.11-4.11-2.99-4.08-4.79,0-7.78,9.91-7.26,19.83-14.44,29.7-21.73,1.72-1.27,3.48-1.83,5.65-1.83,25.44,.04,50.91,.04,76.35,.04,25.33,.04,50.69,.04,76.01,.04h0Zm68.46-88.77c-9.91,7.26-19.83,14.44-29.7,21.73-1.72,1.27-3.48,1.83-5.65,1.83-50.8-.04-101.56-.04-152.36-.04-5.42,0-5.99-.64-5.99-6.1v-42.94c0-5.05,.71-5.76,5.65-5.76h76.69c25.21,0,50.46,.04,75.68-.04,2.39,0,4.3,.6,6.25,2.06,9.76,7.26,19.64,14.33,29.44,21.51,4.11,2.99,4.11,4.75,0,7.74h0Z"/>
  </g>
</svg>