<?xml version="1.0" encoding="UTF-8"?>
<svg id="Ebene_2" data-name="Ebene 2" xmlns="http://www.w3.org/2000/svg" viewBox="0 0 874.9 819.6">
  <defs>
    <style>
      .cls-1 {
        fill: #ff6b35;
      }
    </style>
  </defs>
  <g id="Ebene_1-2" data-name="Ebene 1">
    <path class="cls-1" d="M420.1,629.4c9.6,9.4,25.2,9.4,34.9,0l294.2-285.8c9.6-9.4,9.6-24.5,0-33.9l-58.5-56.8c-9.6-9.4-25.2-9.4-34.9,0l-139.2,135.2V24c0-13.2-11-24-24.7-24h-98.6c-13.6,0-24.7,10.7-24.7,24V398.1L219.2,252.9c-9.6-9.4-25.2-9.4-34.9,0l-58.5,56.8c-9.6,9.4-9.6,24.5,0,33.9l294.3,285.8h0Zm333.4-137.8v206.5H121.4v-206.5H0v267.3c0,33.6,27.1,60.7,60.8,60.7H814.1c33.6,0,60.8-27.1,60.8-60.7V491.6h-121.4Z"/>
  </g>
</svg>