<?xml version="1.0" encoding="UTF-8"?>
<svg id="Ebene_2" data-name="Ebene 2" xmlns="http://www.w3.org/2000/svg" viewBox="0 0 874.86 677.2">
  <defs>
    <style>
      .cls-1 {
        fill: #ff6b35;
      }
    </style>
  </defs>
  <g id="Ebene_1-2" data-name="Ebene 1">
    <path class="cls-1" d="M241.8,.1c60.6,0,121.3,.1,181.9-.1,11.5,0,21.1,2.6,27.5,13.1,3,4.9,3.4,10.1,3.4,15.5,.1,60.9,.2,121.9,0,182.8-.1,18.6-10.5,28.6-29.2,28.7-42.7,.2-85.5,.2-128.1,0-6.3,0-8.7,1.8-10.2,7.9-6.3,25.1-2.3,50.5-3,75.8-.7,25.4,0,50.8-.1,76.2,0,11.7-6.6,18-18.3,18.3-9.8,.3-22.2-4.2-28.6,1.7-6.2,5.7-6.3,18-9.1,27.5-4.2,14.6-8.2,29.3-12.8,43.7-1.6,5.1-.3,6.2,4.6,6.1,7.5-.3,14.9-.2,22.4,.1,14.4,.6,25.6,11.4,25.7,25.8,.3,42.7,.2,85.5-.1,128.2-.1,14.5-11.8,25.5-26.8,25.6-43,.2-86,.2-129,.2-27.5,0-55,0-82.5-.1-18.5-.1-29.5-11.3-29.5-29.6l.2-119.2c.1-19.4,7.8-28.4,27.2-30.8,4.3-.5,5.1-2.8,6.1-6.2,16.6-56.6,33.2-113.2,49.9-169.8,7.2-24.6,14.3-49.2,21.9-73.7,1.9-6.2,.7-7.9-5.6-7.8-14.3,.3-28.7,.1-43,.2-18.1,.1-30.3-11.2-30.3-29.1-.2-60.7-.2-121.3,0-181.9C26.4,10.6,37.6,.2,57.4,.2,118.8,0,180.3,.1,241.8,.1h0Zm4.1,109.1c52.3-.1,104.6-.2,156.8,0,6.5,0,8.2-2,7.9-8.2-.5-8.9-.5-17.9,.1-26.9,.5-7.1-1.9-9.1-9-9-48.7,.3-97.4,.1-146.1,.1-55.3,0-110.5,.2-165.8-.2-7.4,0-9.1,2.6-8.7,9.3,.5,8.6,.7,17.4,.1,26-.5,7,1.6,9.1,8.8,9.1,52-.3,103.9-.2,155.9-.2Zm399.3,54.8c-20.3,0-38.8,.5-57.2-.2-8.6-.4-11.2,2.6-9.9,10.5,.3,2,.2,4.2,.1,6.3-.5,14.4-9.9,24.1-24.3,24.3-17.6,.3-35.2,.2-52.8-.1-14.6-.3-23.3-9-23.4-23.7-.2-43-.2-85.9,0-128.9,.1-13.9,7.8-23,21.6-23.7,18.4-1,37-1.1,55.5-.3,14.9,.6,22.9,10.3,23.3,25.4,.1,3,0,6,0,9,.1,13.2,.1,13.3,13,15.2,2.8,.4,4.1,1.9,5.4,4,15.8,26.7,31.7,53.5,48.7,82.2h0Zm-271.6,162.3c0,13.1,.1,26.3,0,39.4-.1,11.2-5.3,16.6-16.2,16.7-11,.1-22.1,.1-33.2,0-9.7-.1-15.5-5-15.6-14.6-.3-28-.4-56.1,0-84.2,.2-10.5,6.2-15.7,16.6-15.8,10.8-.2,21.5-.2,32.2,0,10.1,.2,15.9,6.1,16.1,16.3,.2,14.2,0,28.2,.1,42.2h0Zm400.2-162.2h-76.1c-3.1,0-5.6-.4-7.4-3.6-15.4-27.2-31-54.2-47.4-82.8h40.3c6.6,0,13.3,1,19.7-.1,14.6-2.4,23,3.2,30,16.4,12.3,23.4,26.6,45.7,40.9,70.1h0Zm-3.8-86.4c26.9,0,51.9,.1,76.9-.1,4,0,5.8,1.9,7.5,4.9,6.2,10.9,12.4,21.7,18.8,32.4,2.1,3.5,2.3,6.2,.1,9.7-7.1,11.4-13.9,22.9-20.6,34.5-2,3.5-4.4,5.5-8.5,4.9-.6-.1-1.2-.1-1.8,0-17.1,3-27.3-3.5-35-19.8-10.5-22.3-24.2-43.3-37.4-66.5Z"/>
  </g>
</svg>