<?xml version="1.0" encoding="UTF-8"?>
<svg id="Ebene_2" data-name="Ebene 2" xmlns="http://www.w3.org/2000/svg" xmlns:xlink="http://www.w3.org/1999/xlink" viewBox="0 0 1200 790">
  <defs>
    <style>
      .cls-1 {
        fill: #fff;
      }

      .cls-2 {
        fill: #243c77;
      }

      .cls-3 {
        stroke: #fff;
        stroke-miterlimit: 10;
        stroke-width: 3px;
      }

      .cls-3, .cls-4, .cls-5 {
        fill: none;
      }

      .cls-6 {
        fill: #393247;
      }

      .cls-7 {
        clip-path: url(#clippath);
      }

      .cls-8 {
        fill: #ff6040;
      }

      .cls-5 {
        stroke: #000;
        stroke-linecap: round;
        stroke-linejoin: round;
        stroke-width: 2px;
      }

      .cls-9 {
        fill: #d2d2d2;
      }

      .cls-10 {
        fill: #f2f2f2;
      }
    </style>
    <clipPath id="clippath">
      <rect class="cls-4" width="1200" height="790"/>
    </clipPath>
  </defs>
  <g id="Ebene_1-2" data-name="Ebene 1">
    <g class="cls-7">
      <rect class="cls-2" width="1200" height="790"/>
      <rect class="cls-4" width="1200" height="790"/>
      <g>
        <polygon class="cls-8" points="67.1 763.11 66.46 790 271.31 790 269.31 744.49 195.76 718.77 67.1 763.11"/>
        <path class="cls-8" d="M67.1,771.76c3.84-.96,97.94,8.64,97.94,8.64l7.33-4.35,10.43,4.35s93.14-8.64,87.86-8.64-58.57-31.69-92.18-32.65c-33.61-.96-26.89,5.76-64.33,10.56-37.45,4.8-47.05,22.08-47.05,22.08Z"/>
        <path d="M95.59,441.12s-61.77,25.93-73.94,42.89c-12.16,16.96,5.12,61.13,10.88,92.5,5.76,31.37,10.24,48.01,17.28,62.09,7.04,14.08,14.08,21.12,14.08,21.12l3.2,112.02h96.98l8.29-12.05,9.57,12.05h88.72l-5.12-102.42s20.48,3.2,30.73-10.24c10.24-13.44,6.4-42.25,0-87.06-6.4-44.81-8.32-94.1-29.45-113.3-21.12-19.2-111.93-32.5-111.93-32.5l-59.31,14.9Z"/>
        <path d="M120.56,408.48s-21.44,26.57-24.97,32.65c-3.52,6.08,26.68,32.49,26.68,32.49,0,0,6.93-14.88,7.89-13.92s32.49,13.92,32.49,13.92l14.51-10.72,12.38,10.72s19.68-26.83,13.24-39.21c-5.14-9.86-27.8-25.93-27.8-25.93h-54.41Z"/>
        <path class="cls-1" d="M116.08,380.95s2.72,27.83,2.24,36.81c-.48,8.97-2.24,15.52-2.24,15.52,0,0,16.81,23.04,31.69,31.69l14.88,8.64s21.6-23.04,26.89-43.69c0,0-5.14-7.84-6.82-12.96-1.68-5.12,0-34.04,0-34.04l-66.63-1.96Z"/>
        <g>
          <g>
            <g>
              <path class="cls-1" d="M195.31,347.02h1.25s0-1.03,0-1.03c1.4-.96,3.17-1.52,5.31-.98,6.1,1.56,4.32,22.79-3.47,29.6-1.34,1.17-2.58,2.01-3.71,2.61l-.26-29.2c.27-.34,.57-.67,.9-1Z"/>
              <path class="cls-1" d="M105.1,356.03s-3.27-7.45-9.35-5.78c-6.07,1.67-3.91,22.87,4,29.53,7.91,6.67,10.76,3.3,10.76,3.3,0,0,1.27,5.08,10.25,14.97,8.98,9.89,27.76,24.6,43.89,22.14,15.66-2.39,32.35-25.64,33.61-35.08,1.26-9.44-.64-27.88-1.03-41.35-.39-13.47,3.7-38.83-8.27-51.11-11.96-12.29-60.74-13.74-76.78,.68-16.04,14.42-10.34,49.12-10.33,49.93,0,.81,3.23,12.77,3.23,12.77Z"/>
              <path d="M197.55,352.77l-.98-21.03h0c-2-3.3-2.22-6.8-5.24-12.73-3.02-5.93-1.18-17.78-8.33-20.25-7.15-2.47-11.16,.35-19.87,.93l-8.71,.58s3.26,1.98,3.13,4.8c0,0-4.36-5.15-12.96-2.09-8.6,3.07-12.25,2.51-17.92,.12-5.67-2.38-7.76-.98-7.76-.98,0,0-5.17,2.51-3.89,14.03,1.28,11.51-3.69,20.69-4.79,24.78-1.1,4.09,1.22,23.8,1.22,23.8,0,0-2.93-3.26-3.06-4.08-.13-.82-2.29-4.2-5.3-7l-1.89-12.69s-9.26-19.91-6.92-30.15c3.53-15.41,13.08-20.21,13.08-20.21,0,0-.31-5.53,3.65-10.08l2.4,2.12s2.97-8.85,18.94-11.72c15.97-2.87,27.76,2.3,37.09,1.9,9.33-.4,13.39,1.22,18.65,6.5,5.26,5.29,4,11.14,9.38,13.45l-4.82,.04s5.41,1.15,7.57,10.84c2.16,9.7,.08,7.44,.74,15.15,.66,7.71-.88,13.96-.88,13.96,0,0-.21,9.43-2.52,20Z"/>
            </g>
            <ellipse cx="136.25" cy="337.78" rx="4.82" ry="7.01"/>
            <ellipse cx="173.58" cy="336.18" rx="4.82" ry="7.01"/>
            <path class="cls-5" d="M145.98,325.29c-.85-.66-5.55-4.14-12.04-3.21-5.48,.79-8.75,4.23-9.63,5.22"/>
            <path class="cls-5" d="M183.72,322.6c-.85-.66-5.55-4.14-12.04-3.21-5.48,.79-8.75,4.23-9.63,5.22"/>
            <path class="cls-5" d="M158.32,348.42c2.16,3.5,5.24,8.84,7.54,14.3,.54,1.28,1.32,3.24,.49,4.96-.84,1.74-2.89,2.35-4.41,2.81-3.18,.95-6.09,.52-8.03,0"/>
          </g>
          <path class="cls-5" d="M142.67,390.15c3.64,1.08,10.3,2.54,18.46,1.2,6.04-.99,10.68-3.14,13.64-4.82"/>
        </g>
        <path d="M163.02,500.76s3.75,5.01,4.33,6.93c.57,1.92-3.75,29.29-31.59,82.1-27.85,52.81-44.33,74.1-71.86,69.94l.29,9.28s17.32,6.72,38.44-10.08c21.12-16.8,56.56-98.42,64.77-122.43,8.21-24.01,5.92-32.11-4.38-35.74Z"/>
        <polygon class="cls-1" points="116.78 622.96 148.71 634.33 153.84 591.88 135.76 589.8 116.78 622.96"/>
        <path d="M124.85,487.32s-12.61,27.58-25.1,42.46c-12.48,14.88-47.05,52.81-47.05,52.81,0,0,41.61-52.49,49.93-64.65,8.32-12.16,24.2-41.29,24.2-41.29l-1.99,10.67Z"/>
        <polygon points="70.63 510.26 86.87 544.61 89.77 537.15 70.63 510.26"/>
        <path class="cls-6" d="M149.04,631.57v6.08s68.81,27.53,116.51,31.69l.37,6.75s-117.83-30.12-120.07-33.32,0-11.62,0-11.62l3.2,.42Z"/>
        <polygon points="153.84 594.67 276.43 604.68 240.26 592.2 253.06 514.1 232.26 591.56 144.49 590.8 153.84 594.67"/>
        <path class="cls-9" d="M120.49,439.32l4.47-31.12-5.02-11.32,5.02,3.46s1.01-3.01,4.93-3.46c3.92-.45,7.84,6.22,10.46,12.14,2.61,5.92,7.75,8.33,7.75,8.33,0,0,7.36,2.02,13.45-1.19,6.09-3.21,21.61-12.19,27.99-12.96l-5.02,7.63-57.53,35.41-6.5-6.91Z"/>
        <path class="cls-1" d="M124.85,487.32c.32-1.6,3.07-13.55,2.75-20.91-.32-7.36-4.48-20.48-1.92-30.09,2.56-9.6,.39-33.93,1.96-35.21,1.56-1.28,7.66,.8,9.73,10.96,2.07,10.16,4.34,20.72,4.34,20.72,0,0,44.04-29.34,50.01-29.77,5.97-.43,5.09,4.48,4.04,7.25-1.05,2.77-4.04,5.97-4.04,5.97,0,0,1.92,4.13,.85,9.96-1.07,5.83-3.04,9.03-3.04,9.03,0,0,2.4,1.28,2.61,4.69,.21,3.41,.21,5.55,.21,5.55,0,0,4.45,6.19,3.4,11.74-1.05,5.55-29.22,34.78-29.22,34.78l-3.52,8.75-38.17-13.44Z"/>
        <polygon class="cls-10" points="191.72 416.27 173.58 434.4 192.76 420.47 191.72 416.27"/>
        <g>
          <path class="cls-1" d="M89.77,537.15s-30.51-.16-37.07,2.4c-6.56,2.56-5.6,8-5.6,8,0,0-12.48,4-12.16,8.32,.32,4.32,3.84,4.8,3.84,4.8,0,0-1.76,6.4,.64,8,2.4,1.6,8.16,1.28,8.16,1.28,0,0-2.56,3.2,1.44,4.8s10.8,0,10.8,0l32.28-36.08-2.33-1.53Z"/>
          <path class="cls-10" d="M47.1,547.55s6.72-1.12,18.72-1.44c12-.32,18.44,1.44,18.44,1.44,0,0-6.12-3.36-15.24-3.84-9.12-.48-21.87,1.92-21.87,1.92l-.05,1.92Z"/>
          <path class="cls-10" d="M38.78,560.67s9.28-4.48,21.28-5.12c12-.64,17.28,.75,17.28,.75,0,0-8-3.48-19.28-2.84-11.28,.64-21.67,5.92-21.67,5.92l2.38,1.28Z"/>
          <path class="cls-10" d="M47.58,569.95s3.2-2.72,7.84-3.36c4.64-.64,11.04,0,11.04,0,0,0-5.76-2.72-11.68-2.08-5.92,.64-10.6,5.38-10.6,5.38l3.4,.06Z"/>
        </g>
      </g>
      <path class="cls-3" d="M263.99,422.22c.83-65.8,2.04-114.11,3.83-114.13,3.05-.02,7.05,140.18,13.79,140.17,2.87,0,4.83-25.4,8.43-25.28,3.17,.11,3.7,19.82,5.36,19.91,7.3,.42,28.33-377.75,46.72-377.62,12.99,.09,28.29,188.94,33.7,188.43,1.42-.14,.34-13.16,6.13-15.32,4.96-1.85,10.37,5.98,23.74,16.09,6.73,5.09,27.12,20.5,34.47,15.32,5.39-3.8,2.23-17.55,3.06-17.62,.98-.08,1.38,18.98,6.13,19.91,5.56,1.09,13.74-23.34,17.62-22.21,3.15,.92,.26,17.73,3.06,18.38,2.16,.51,4.1-9.38,7.66-9.96,6.71-1.09,21.28,30.58,36,95.74,19.72,87.28,20.27,148.63,23.74,148.6,7.33-.08,12.09-272.98,29.11-273.45,3.12-.08,5.49,8.99,9.96,8.43,10.06-1.28,11.26-49.13,14.55-49.02,2.98,.1,2.78,39.07,9.19,39.83,4.45,.53,9.2-17.67,13.79-16.85,3.55,.64,3.29,12.06,5.36,12.26,4.25,.4,8.79-47.3,14.55-47.49,10.66-.36,19.7,161.65,32.94,161.62,3.74-.01,5.59-12.98,13.02-42.89,13.19-53.13,24.33-98.01,34.47-98.04,17.6-.06,26.55,135.15,41.36,134.81,11.1-.26,13.87-76.37,22.98-76.6,16.64-.41,31.46,253.07,45.19,252.77,13.31-.3,17.64-238.86,32.17-238.98,5.8-.05,8.97,37.91,14.41,37.72,11.99-.42,8.94-185.15,23.88-186.32,17.65-1.38,47.55,254.44,73.53,252.77,6.98-.45,8.47-19.13,13.79-19.15,22.96-.08,40.06,347.97,47.49,347.74,9.2-.28-8.16-534.43,29.11-537.7,9.31-.82,22.25,31.52,32.94,58.21,20.02,50.03,26.01,99.28,29.11,98.81,2.29-.35-1.77-27.14,6.13-29.87,4.2-1.45,7.44,5.4,12.26,5.36,16.71-.14,22.35-83.16,36-84.26,16.29-1.3,30.53,115.05,50.55,114.89,20.45-.16,31.56-121.72,47.49-121.02,15.76,.7,20.7,120.39,40.6,121.02,5.63,.18,8.14-10.08,12.26-9.19,9.54,2.07,2.3,58.29,2.3,134.81,0,23.51,.68,74.92,3.83,75.06,3.99,.18,11.83-81.48,16.09-153.96,8.8-149.76,1.89-253.15,7.66-253.53,3.46-.23,8.36,36.89,13.02,70.47,8.5,61.2,21.49,148.6,40.6,257.36"/>
      <g>
        <path class="cls-1" d="M1028.64,749.02c.18-.27,.53-.62,1.04-1.05,.51-.43,1.05-.89,1.62-1.38,.57-.48,1.11-.94,1.63-1.39s.93-.79,1.22-1.04c1.77-1.51,3.39-2.56,4.84-3.17,1.45-.61,2.82-.91,4.11-.92,1.68,.01,3.29,.48,4.82,1.39,1.53,.92,2.96,2.15,4.29,3.72,1,1.18,1.81,2.44,2.43,3.78,.62,1.34,.88,2.74,.8,4.22-.08,1.48-.6,3.04-1.56,4.67-.96,1.64-2.49,3.36-4.61,5.16-.77,.65-1.59,1.35-2.47,2.1-.88,.75-1.81,1.41-2.79,1.99l-15.37-18.1Zm19.23,10.8c2.21-1.88,3.38-3.78,3.5-5.7s-.84-4.07-2.86-6.46c-.91-1.07-1.82-1.93-2.72-2.56-.9-.63-1.84-1-2.81-1.12-.98-.11-2.01,.06-3.1,.52-1.09,.46-2.28,1.23-3.56,2.32-.26,.22-.6,.51-1.03,.87s-.88,.75-1.36,1.15l11.19,13.17c.56-.38,1.07-.77,1.55-1.18,.47-.4,.88-.75,1.21-1.03Z"/>
        <path class="cls-1" d="M1056.97,732.93c1.54-1.44,3.1-2.17,4.67-2.18,1.57,0,3.02,.7,4.35,2.12,.18,.19,.36,.41,.54,.65,.18,.24,.34,.49,.5,.74,.15,.25,.28,.49,.37,.71,.09,.22,.16,.42,.18,.59l-7.65,7.16c.53,.49,1.09,.9,1.68,1.21,.59,.32,1.2,.51,1.81,.57,.62,.06,1.24,0,1.85-.21,.62-.2,1.22-.57,1.79-1.11,.65-.61,1.22-1.37,1.72-2.3s.83-1.81,.99-2.65l2.49,1.71c-.1,.35-.23,.77-.41,1.25-.18,.48-.41,.98-.7,1.52-.29,.53-.63,1.08-1.02,1.62-.39,.55-.85,1.07-1.38,1.56-.98,.92-2.01,1.56-3.08,1.92-1.07,.36-2.14,.49-3.2,.38-1.06-.11-2.08-.43-3.06-.95-.98-.52-1.87-1.21-2.66-2.05-.8-.86-1.43-1.8-1.89-2.84-.46-1.03-.7-2.09-.74-3.18-.03-1.09,.18-2.17,.64-3.24,.46-1.07,1.19-2.08,2.19-3.01Zm2.04,2.33c-.74,.69-1.16,1.49-1.28,2.4-.11,.91,.06,1.84,.52,2.79l5.02-4.7c-.03-.07-.08-.14-.13-.22s-.13-.17-.23-.28c-.52-.56-1.15-.84-1.88-.85-.73,0-1.4,.28-2.01,.85Z"/>
        <path class="cls-1" d="M1071.08,719.06c.91-.93,1.86-1.55,2.87-1.88,1.01-.32,2.01-.42,3.03-.29,1.01,.13,2,.47,2.96,1.01s1.86,1.21,2.68,2.02c.84,.82,1.53,1.71,2.08,2.66s.88,1.93,1.01,2.93,.03,1.99-.3,2.98c-.33,.99-.95,1.95-1.85,2.87-.75,.77-1.57,1.38-2.44,1.82-.87,.44-1.75,.62-2.63,.53l7.8,7.63-2.75,2.8-18.53-18.13,2.22-2.26,1.82,1.38,.1-.1c-.06-.49-.06-1.01,0-1.57,.05-.55,.17-1.1,.34-1.63,.17-.54,.39-1.04,.66-1.52,.27-.48,.58-.9,.93-1.26Zm1.71,2.58c-.25,.26-.49,.58-.72,.96-.22,.38-.41,.8-.56,1.24-.15,.44-.25,.9-.32,1.38-.06,.48-.06,.93,.01,1.38l5.02,4.91c1.14,.11,2.05-.03,2.75-.41s1.25-.79,1.69-1.24c.55-.57,.92-1.15,1.11-1.76s.24-1.21,.15-1.82c-.09-.61-.31-1.21-.66-1.8-.35-.59-.79-1.15-1.34-1.69-.51-.5-1.08-.95-1.7-1.33-.62-.38-1.24-.64-1.88-.78-.64-.14-1.27-.14-1.88,0-.62,.13-1.18,.46-1.68,.97Z"/>
        <path class="cls-1" d="M1088.38,706.54c-.3,.05-.67,.22-1.1,.51-.43,.29-.76,.57-1,.84-.32,.36-.5,.73-.54,1.11-.04,.38,0,.79,.11,1.22,.12,.43,.29,.87,.54,1.31,.24,.45,.5,.89,.78,1.34l7.12,6.45-2.66,2.94-12.27-11.12,2.08-2.29,2.68,2.19,.1-.11c-.21-.52-.41-1.03-.59-1.55-.18-.52-.29-1.03-.34-1.52s-.01-.99,.12-1.47c.13-.48,.4-.95,.8-1.39,.64-.71,1.48-1.17,2.51-1.37l1.67,2.92Z"/>
        <path class="cls-1" d="M1092.56,695.31c1.36-1.61,2.82-2.52,4.38-2.71,1.56-.19,3.08,.34,4.57,1.59,.2,.17,.41,.37,.61,.59,.21,.22,.4,.45,.58,.68,.18,.23,.33,.45,.45,.66,.12,.21,.2,.4,.25,.57l-6.76,8.01c.58,.43,1.19,.76,1.81,1.01s1.25,.36,1.87,.35c.62,0,1.23-.15,1.82-.42,.59-.27,1.14-.71,1.65-1.32,.57-.68,1.05-1.51,1.44-2.48,.39-.98,.61-1.89,.67-2.75l2.67,1.41c-.05,.36-.14,.79-.26,1.29-.12,.5-.29,1.03-.52,1.59-.22,.56-.5,1.14-.82,1.73-.33,.59-.72,1.16-1.18,1.71-.87,1.03-1.81,1.78-2.84,2.27-1.02,.49-2.07,.74-3.13,.75-1.06,.01-2.11-.18-3.15-.59-1.04-.41-2-.98-2.88-1.72-.9-.76-1.64-1.62-2.21-2.6-.58-.97-.94-2-1.1-3.08-.16-1.08-.07-2.17,.26-3.29,.33-1.12,.94-2.2,1.82-3.25Zm2.3,2.08c-.65,.77-.98,1.62-.99,2.54,0,.92,.27,1.82,.84,2.71l4.43-5.25c-.04-.06-.09-.13-.16-.2s-.15-.15-.26-.25c-.59-.5-1.24-.7-1.97-.63-.73,.08-1.36,.44-1.9,1.08Z"/>
        <path class="cls-1" d="M1104.63,685.1c-.49,.62-.75,1.2-.79,1.74-.04,.54,.16,.97,.6,1.31,.28,.22,.62,.33,1.01,.31,.39-.01,.91-.28,1.57-.81l2.03-1.66c.79-.66,1.54-1.11,2.23-1.34,.7-.23,1.34-.34,1.94-.32,.59,.02,1.12,.14,1.6,.36,.47,.22,.88,.46,1.22,.72,.61,.47,1.07,1.04,1.4,1.69,.33,.65,.5,1.35,.53,2.1,.02,.75-.11,1.53-.39,2.34-.29,.81-.74,1.62-1.36,2.41-.78,1-1.65,1.81-2.61,2.44-.96,.62-1.82,1.05-2.57,1.28l-2.12-2.84c1.13-.16,2.16-.52,3.09-1.08s1.66-1.19,2.19-1.87c.56-.72,.83-1.39,.82-2.01-.02-.62-.3-1.15-.85-1.58-.32-.25-.67-.37-1.03-.35-.37,.02-.84,.25-1.44,.7l-2.81,2.19c-.65,.53-1.28,.88-1.88,1.07-.6,.19-1.17,.26-1.7,.22-.53-.04-1.02-.16-1.47-.37-.44-.21-.84-.45-1.18-.71-1.27-.99-1.9-2.2-1.9-3.63,0-1.43,.56-2.85,1.67-4.27,.58-.74,1.3-1.46,2.16-2.15,.86-.7,1.71-1.19,2.55-1.48l1.91,2.82c-.6,.14-1.32,.43-2.16,.87s-1.59,1.07-2.24,1.9Z"/>
        <path class="cls-1" d="M1114.06,672.6c-.47,.64-.71,1.23-.72,1.76-.02,.54,.2,.97,.64,1.29,.29,.21,.63,.3,1.02,.28s.9-.32,1.54-.86l1.97-1.73c.77-.69,1.5-1.16,2.18-1.42,.69-.25,1.33-.38,1.92-.38,.59,0,1.13,.1,1.61,.3,.48,.2,.89,.43,1.24,.68,.62,.45,1.11,1,1.46,1.64,.35,.64,.55,1.33,.6,2.08,.05,.75-.05,1.53-.31,2.36-.26,.82-.68,1.64-1.27,2.46-.75,1.03-1.59,1.87-2.52,2.53-.94,.66-1.78,1.11-2.53,1.37l-2.22-2.77c1.12-.2,2.14-.59,3.05-1.19,.91-.6,1.62-1.25,2.13-1.95,.54-.74,.78-1.42,.75-2.04-.04-.62-.34-1.14-.9-1.54-.33-.24-.68-.34-1.04-.31-.36,.03-.83,.28-1.41,.75l-2.73,2.29c-.63,.55-1.25,.92-1.84,1.13-.59,.21-1.16,.3-1.69,.28-.54-.02-1.03-.12-1.48-.32-.45-.19-.85-.42-1.2-.67-1.3-.94-1.98-2.13-2.02-3.56-.05-1.43,.46-2.87,1.52-4.33,.55-.76,1.24-1.5,2.08-2.23,.84-.73,1.67-1.25,2.5-1.57l2.01,2.75c-.59,.16-1.3,.48-2.13,.94-.83,.47-1.55,1.13-2.17,1.98Z"/>
        <path class="cls-1" d="M1113.46,660.08c-.28-.19-.51-.43-.69-.71-.18-.28-.31-.6-.38-.94-.07-.34-.08-.67-.03-1,.05-.33,.18-.64,.38-.94,.19-.28,.43-.5,.73-.68s.62-.3,.97-.36c.35-.07,.69-.07,1.03-.01,.34,.06,.65,.18,.92,.37,.3,.2,.53,.45,.7,.74,.17,.29,.28,.6,.33,.95s.05,.68-.02,1.01c-.07,.33-.2,.64-.39,.91-.39,.58-.94,.93-1.64,1.06-.7,.13-1.34,0-1.91-.39Zm20.62,8.62l-2.24,3.27-13.67-9.35,2.24-3.27,13.67,9.35Z"/>
        <path class="cls-1" d="M1126.72,648.78c.79-1.23,1.67-2.16,2.65-2.79,.98-.62,2.01-1,3.07-1.13,1.07-.13,2.14-.05,3.21,.25,1.08,.3,2.11,.77,3.1,1.4,.99,.63,1.84,1.37,2.55,2.2s1.2,1.75,1.49,2.75c.29,1,.35,2.06,.17,3.18-.18,1.12-.65,2.29-1.41,3.48-.79,1.23-1.67,2.17-2.64,2.8-.97,.63-1.98,1.03-3.04,1.18-1.05,.15-2.11,.09-3.18-.2-1.07-.28-2.1-.74-3.09-1.38-.99-.63-1.84-1.37-2.55-2.23-.71-.85-1.22-1.78-1.53-2.79-.31-1.01-.38-2.08-.21-3.23,.17-1.14,.64-2.31,1.4-3.5Zm12.3,7.76c.37-.59,.57-1.18,.6-1.78,.02-.6-.09-1.17-.34-1.74-.25-.56-.62-1.09-1.11-1.58-.48-.49-1.04-.94-1.67-1.34-.65-.41-1.31-.74-2-.98-.69-.24-1.35-.36-1.99-.35-.64,0-1.24,.14-1.8,.41-.56,.27-1.04,.72-1.44,1.35-.38,.59-.57,1.17-.59,1.76-.02,.59,.1,1.15,.35,1.7,.25,.54,.62,1.06,1.1,1.56s1.04,.94,1.67,1.34c.65,.41,1.31,.75,1.99,.99s1.35,.38,2,.38c.65,0,1.26-.13,1.81-.4,.56-.27,1.03-.71,1.42-1.32Z"/>
        <path class="cls-1" d="M1153.59,637.3l-9.48-5.47c-1.7-.98-2.98-.75-3.82,.71-.2,.35-.36,.77-.47,1.25-.11,.48-.15,.97-.13,1.48,.02,.51,.12,1.02,.3,1.53,.18,.51,.46,.96,.83,1.37l9.2,5.31-1.98,3.43-14.34-8.28,1.55-2.68,2.21,1.07,.07-.12c-.62-.94-.88-2-.77-3.17s.47-2.29,1.08-3.35c.4-.69,.86-1.28,1.38-1.78s1.12-.87,1.78-1.11c.67-.24,1.4-.31,2.2-.21,.8,.1,1.67,.42,2.6,.96l9.76,5.63-1.98,3.43Z"/>
      </g>
    </g>
    <g>
      <path class="cls-1" d="M216.4,135.85c-.44,1.22-1.08,2.43-1.93,3.62-.85,1.19-1.94,2.28-3.27,3.27-1.6,1.19-3.17,1.96-4.71,2.3s-3.02,.35-4.44,.03c-1.42-.32-2.75-.92-3.98-1.82-1.23-.89-2.34-1.99-3.31-3.3-1.02-1.37-1.77-2.8-2.25-4.29-.48-1.49-.66-2.99-.53-4.48s.6-2.94,1.41-4.35c.81-1.41,2.01-2.71,3.6-3.9,1.08-.8,2.23-1.49,3.45-2.06,1.22-.57,2.39-.97,3.51-1.2l1.31,3.69c-.94,.1-1.95,.34-3.02,.7-1.07,.37-2.16,.96-3.26,1.78-1.1,.82-1.91,1.67-2.43,2.55-.52,.88-.79,1.8-.81,2.74-.02,.94,.18,1.91,.59,2.9,.41,1,1.01,2.02,1.8,3.08,3.5,4.7,7.24,5.56,11.22,2.59,.71-.53,1.24-1.01,1.57-1.44,.34-.43,.69-.9,1.06-1.42l-3.57-4.79,3.32-2.47,4.67,6.26Z"/>
      <path class="cls-1" d="M221.47,119.17c-.31-.02-.7,.06-1.19,.24-.48,.18-.88,.38-1.17,.58-.4,.27-.66,.59-.79,.95-.13,.36-.19,.77-.18,1.21,.01,.44,.08,.91,.21,1.4,.13,.49,.28,.99,.44,1.48l5.4,7.95-3.28,2.23-9.31-13.7,2.56-1.74,2.09,2.76,.12-.08c-.09-.55-.15-1.1-.2-1.65-.05-.54-.04-1.07,.03-1.56,.07-.5,.22-.96,.46-1.4,.24-.44,.61-.83,1.1-1.16,.79-.54,1.71-.79,2.76-.74l.94,3.24Z"/>
      <path class="cls-1" d="M228.82,109.56c1.24-.78,2.44-1.23,3.6-1.38,1.16-.14,2.24-.04,3.26,.3,1.02,.34,1.95,.88,2.79,1.61,.84,.73,1.57,1.6,2.2,2.6,.62,1,1.07,2.02,1.35,3.08,.28,1.06,.33,2.1,.17,3.12-.17,1.02-.57,2.01-1.22,2.95s-1.57,1.78-2.77,2.53c-1.24,.78-2.44,1.24-3.59,1.39s-2.23,.07-3.25-.24c-1.02-.31-1.95-.83-2.79-1.55-.84-.72-1.58-1.58-2.2-2.57-.62-1-1.07-2.03-1.35-3.11-.27-1.07-.33-2.13-.18-3.18,.15-1.04,.55-2.04,1.2-3,.65-.96,1.57-1.81,2.77-2.56Zm7.77,12.3c.59-.37,1.02-.82,1.3-1.34,.28-.53,.42-1.1,.44-1.71s-.09-1.25-.32-1.9c-.22-.65-.53-1.29-.93-1.93-.41-.65-.87-1.23-1.39-1.74-.52-.51-1.07-.9-1.65-1.18-.58-.27-1.18-.41-1.8-.4-.62,0-1.24,.2-1.88,.6-.59,.37-1.02,.81-1.29,1.34-.27,.52-.41,1.08-.41,1.68,0,.6,.1,1.23,.32,1.88,.22,.65,.53,1.29,.93,1.93,.41,.65,.86,1.24,1.37,1.75,.51,.52,1.05,.92,1.64,1.2,.59,.28,1.19,.42,1.81,.42,.62,0,1.23-.2,1.85-.58Z"/>
      <path class="cls-1" d="M253.27,101.72l2.4,11.82-4.2,2.3-13.22-11.65,3.63-1.98,9.88,9.08-2.65-13.03,3.48-1.9,9.54,9.27-2.3-13.22,3.57-1.95,2.66,17.42-4.14,2.26-8.65-8.4Z"/>
      <path class="cls-1" d="M268.33,90.94l-1.85,.89-.94-1.94,1.95-1.34-1.55-4.69,2.72-1.32,2.18,4.5,2.85-1.38,1.05,2.17-2.85,1.38,4.14,8.55c.31,.65,.59,1.05,.83,1.22,.24,.16,.54,.16,.91-.02,.28-.14,.54-.33,.76-.57,.23-.24,.54-.65,.93-1.21l1.82,2.28c-.24,.54-.69,1.1-1.33,1.67-.65,.57-1.34,1.03-2.07,1.38-.65,.31-1.22,.49-1.73,.52s-.96-.06-1.36-.28c-.4-.22-.76-.55-1.07-.98-.32-.43-.62-.94-.9-1.52l-4.5-9.3Z"/>
      <path class="cls-1" d="M282.34,84.39c.19-1.24,.61-2.25,1.24-3.04,.64-.79,1.52-1.43,2.64-1.92,.66-.29,1.34-.47,2.04-.56,.7-.08,1.37-.02,2.03,.19,.66,.21,1.27,.6,1.84,1.16,.57,.56,1.08,1.34,1.51,2.33l4.52,10.32-3.63,1.59-4.39-10.02c-.4-.9-.89-1.49-1.48-1.77-.59-.28-1.23-.27-1.91,.03-.42,.18-.82,.44-1.22,.77-.39,.33-.73,.71-1.01,1.15-.28,.44-.49,.91-.64,1.42-.14,.51-.19,1.03-.14,1.56l4.26,9.73-3.63,1.59-10.69-24.4,3.63-1.59,5.03,11.47Z"/>
    </g>
    <g>
      <path class="cls-1" d="M706.84,407.91c-.18-.2-.36-.4-.54-.6-.19-.2-.38-.43-.57-.68l-7.54,6.85-2.78-3.06,17.67-16.05c.26,.28,.55,.61,.88,.97,.33,.36,.67,.73,1,1.11s.66,.72,.96,1.05c.3,.33,.54,.59,.71,.79,2.07,2.27,3.21,4.4,3.44,6.36,.22,1.97-.48,3.7-2.13,5.19-1.04,.95-2.21,1.54-3.51,1.78-1.3,.24-2.7-.06-4.2-.9l-2.11,13.69-3.22-3.54,1.95-12.96Zm7.53-7.08c-.13-.14-.28-.31-.46-.51-.18-.2-.37-.39-.58-.59l-5.06,4.6,1.5,1.65c.87,.96,1.77,1.47,2.7,1.53,.93,.06,1.84-.31,2.73-1.12,.8-.73,1.16-1.5,1.09-2.33-.07-.83-.71-1.91-1.92-3.24Z"/>
      <path class="cls-1" d="M726.85,420.34c1.35,1.63,1.98,3.22,1.89,4.79-.09,1.57-.88,2.97-2.38,4.21-.2,.17-.43,.33-.69,.5-.25,.16-.51,.31-.77,.45-.26,.14-.5,.25-.73,.33-.23,.08-.43,.13-.6,.15l-6.68-8.07c-.52,.5-.96,1.03-1.31,1.6-.35,.57-.58,1.16-.68,1.78s-.07,1.23,.09,1.86c.16,.63,.5,1.25,1,1.86,.57,.68,1.3,1.3,2.19,1.85,.89,.55,1.76,.94,2.59,1.15l-1.86,2.38c-.35-.12-.75-.28-1.22-.49-.47-.21-.96-.47-1.47-.79-.52-.32-1.03-.69-1.56-1.12-.52-.42-1.01-.91-1.47-1.47-.86-1.04-1.44-2.1-1.73-3.19s-.36-2.16-.18-3.21c.17-1.05,.55-2.05,1.14-3,.58-.95,1.32-1.79,2.21-2.53,.91-.75,1.89-1.32,2.95-1.72,1.06-.39,2.13-.58,3.22-.54,1.09,.03,2.15,.31,3.19,.84,1.04,.52,2,1.31,2.87,2.37Zm-2.45,1.89c-.64-.78-1.42-1.25-2.32-1.42-.9-.17-1.84-.05-2.82,.35l4.39,5.3c.07-.03,.15-.07,.23-.12,.08-.05,.18-.12,.29-.22,.59-.49,.91-1.1,.96-1.83s-.19-1.42-.73-2.06Z"/>
      <path class="cls-1" d="M737.87,441.97c0-.33-.05-.71-.14-1.14-.09-.43-.21-.87-.37-1.32-.16-.45-.36-.9-.59-1.34-.23-.44-.48-.84-.74-1.18-.49-.65-1.03-1.11-1.61-1.38-.58-.27-1.17-.39-1.77-.37-.6,.02-1.21,.16-1.82,.43-.61,.27-1.19,.61-1.75,1.03-.65,.49-1.2,1.03-1.65,1.61-.45,.58-.77,1.18-.95,1.81-.19,.62-.23,1.27-.12,1.92,.11,.66,.39,1.29,.86,1.9,.52,.69,1.22,1.31,2.08,1.88,.86,.56,1.74,.92,2.63,1.05l-2.26,2.62c-.75-.27-1.63-.76-2.64-1.45-1.01-.7-1.91-1.57-2.71-2.62-.84-1.11-1.39-2.22-1.64-3.35-.25-1.12-.26-2.2-.03-3.23,.23-1.03,.66-2.01,1.3-2.93,.64-.92,1.44-1.75,2.39-2.47,.92-.7,1.89-1.23,2.92-1.6,1.03-.37,2.07-.53,3.13-.46,1.06,.07,2.1,.39,3.13,.97s2,1.47,2.91,2.67c.7,.92,1.27,1.9,1.73,2.93,.46,1.04,.72,1.96,.78,2.75l-3.07,1.25Z"/>
      <path class="cls-1" d="M748.83,449.41c1.21,1.73,1.7,3.38,1.48,4.93-.22,1.56-1.13,2.89-2.72,4-.22,.15-.46,.3-.73,.44-.27,.14-.54,.27-.81,.39-.27,.11-.52,.2-.76,.26-.24,.06-.44,.09-.61,.1l-5.98-8.6c-.56,.45-1.05,.95-1.44,1.49-.4,.54-.67,1.11-.83,1.71-.15,.6-.17,1.22-.06,1.86,.11,.64,.39,1.29,.84,1.94,.51,.73,1.18,1.41,2.03,2.03,.84,.63,1.67,1.08,2.48,1.36l-2.05,2.22c-.34-.15-.73-.34-1.17-.59-.45-.24-.91-.55-1.4-.91-.49-.36-.97-.78-1.46-1.25-.48-.47-.93-1-1.34-1.59-.77-1.1-1.25-2.21-1.46-3.33-.21-1.11-.18-2.19,.09-3.22,.26-1.03,.72-1.99,1.39-2.89,.66-.9,1.47-1.68,2.41-2.33,.97-.67,1.99-1.16,3.08-1.46,1.09-.3,2.17-.39,3.26-.27,1.08,.13,2.12,.49,3.11,1.1,.99,.61,1.88,1.48,2.66,2.6Zm-2.6,1.68c-.58-.83-1.31-1.36-2.19-1.61-.89-.25-1.83-.21-2.84,.11l3.92,5.65c.07-.02,.15-.05,.24-.1,.09-.04,.19-.11,.31-.19,.63-.44,1-1.02,1.11-1.74,.11-.72-.07-1.43-.55-2.12Z"/>
      <path class="cls-1" d="M755.29,464.46c-.43-.67-.88-1.11-1.38-1.32-.49-.21-.97-.17-1.44,.12-.3,.19-.51,.48-.63,.85-.12,.37-.04,.96,.24,1.75l.89,2.47c.36,.97,.53,1.82,.52,2.55-.02,.74-.13,1.38-.35,1.93-.22,.55-.51,1.01-.87,1.39-.36,.37-.72,.67-1.09,.91-.65,.41-1.33,.66-2.06,.76-.73,.09-1.44,.02-2.16-.2-.71-.23-1.41-.61-2.08-1.15-.67-.54-1.28-1.23-1.82-2.08-.68-1.07-1.16-2.16-1.43-3.28-.27-1.11-.38-2.06-.35-2.85l3.39-1.05c-.23,1.11-.23,2.2,0,3.27,.22,1.07,.57,1.96,1.03,2.69,.49,.77,1.03,1.25,1.62,1.44,.59,.19,1.18,.1,1.77-.27,.34-.22,.57-.5,.67-.85,.1-.35,.04-.88-.18-1.59l-1.13-3.38c-.28-.79-.4-1.5-.38-2.13,.03-.63,.15-1.19,.36-1.68,.21-.49,.49-.91,.84-1.26,.35-.35,.7-.64,1.07-.87,1.36-.86,2.71-1.06,4.05-.58,1.34,.48,2.5,1.48,3.47,3,.5,.79,.94,1.71,1.31,2.75,.37,1.05,.55,2.01,.54,2.9l-3.29,.86c.07-.61,.03-1.39-.1-2.33s-.48-1.86-1.05-2.75Z"/>
      <path class="cls-1" d="M763.59,478.01c-.4-.68-.84-1.14-1.33-1.37-.48-.23-.96-.21-1.44,.07-.31,.18-.53,.46-.66,.83-.13,.37-.07,.95,.17,1.75l.8,2.5c.32,.98,.46,1.84,.42,2.57s-.18,1.37-.42,1.92-.54,.99-.92,1.35c-.37,.36-.75,.65-1.12,.87-.66,.39-1.36,.61-2.08,.68-.73,.06-1.44-.03-2.15-.28-.71-.25-1.38-.66-2.03-1.23-.65-.56-1.23-1.28-1.74-2.15-.64-1.1-1.08-2.21-1.3-3.33s-.31-2.07-.24-2.86l3.42-.92c-.27,1.1-.31,2.19-.13,3.27,.18,1.07,.5,1.98,.93,2.73,.46,.79,.98,1.29,1.57,1.5,.58,.21,1.18,.15,1.78-.21,.35-.21,.59-.48,.7-.83,.12-.35,.08-.88-.12-1.6l-1-3.42c-.25-.8-.35-1.52-.3-2.14,.05-.63,.19-1.18,.42-1.67,.23-.48,.53-.89,.89-1.23,.36-.34,.73-.61,1.1-.83,1.39-.81,2.74-.96,4.07-.42,1.33,.53,2.44,1.57,3.35,3.12,.47,.81,.87,1.74,1.2,2.8,.33,1.06,.47,2.03,.44,2.92l-3.32,.74c.09-.61,.08-1.39-.01-2.33-.1-.95-.41-1.87-.94-2.78Z"/>
      <path class="cls-1" d="M758.43,497.65l-1.9-3.47,14.52-7.96,1.9,3.47-14.52,7.96Zm17.02-14.5c.29-.16,.61-.26,.95-.29,.34-.03,.67,0,1.01,.08s.64,.23,.91,.43c.27,.19,.49,.45,.67,.76,.16,.29,.25,.61,.28,.96s-.01,.69-.11,1.03c-.1,.34-.25,.65-.46,.93-.2,.28-.45,.5-.75,.66-.32,.17-.64,.27-.97,.29-.33,.02-.66-.03-1-.13-.33-.11-.63-.26-.9-.47-.27-.21-.48-.46-.64-.76-.33-.61-.4-1.26-.2-1.94,.2-.68,.6-1.19,1.22-1.53Z"/>
      <path class="cls-1" d="M779.31,500.69c.66,1.31,1.01,2.54,1.04,3.71,.04,1.16-.16,2.24-.59,3.22-.43,.98-1.05,1.86-1.86,2.63-.81,.77-1.74,1.42-2.79,1.95-1.05,.53-2.11,.89-3.19,1.07-1.08,.18-2.12,.14-3.12-.12-1-.26-1.95-.75-2.82-1.48-.88-.73-1.64-1.72-2.27-2.99-.66-1.31-1.01-2.54-1.06-3.7-.05-1.16,.13-2.23,.54-3.21,.4-.98,1-1.86,1.79-2.64,.79-.78,1.71-1.43,2.76-1.96,1.05-.53,2.12-.88,3.22-1.06,1.09-.18,2.15-.14,3.18,.11,1.03,.25,1.99,.74,2.88,1.47,.89,.73,1.66,1.73,2.3,2.99Zm-12.95,6.62c.31,.62,.72,1.09,1.22,1.42,.5,.33,1.06,.52,1.67,.59,.61,.07,1.25,.02,1.92-.14,.67-.16,1.34-.41,2-.75,.69-.35,1.31-.75,1.86-1.22,.56-.47,1-.98,1.32-1.54s.51-1.14,.56-1.76-.09-1.26-.43-1.92c-.31-.62-.72-1.09-1.21-1.4-.5-.32-1.04-.5-1.64-.57-.6-.06-1.23-.01-1.9,.15-.67,.16-1.34,.41-2,.75-.69,.35-1.31,.75-1.87,1.21-.56,.46-1.01,.97-1.35,1.53-.34,.56-.53,1.15-.58,1.76-.05,.62,.08,1.25,.41,1.89Z"/>
      <path class="cls-1" d="M773.94,529.38l9.99-4.47c1.8-.8,2.35-1.97,1.66-3.51-.17-.37-.41-.74-.73-1.11-.32-.37-.7-.69-1.13-.98-.43-.28-.9-.5-1.41-.65-.52-.15-1.05-.2-1.6-.13l-9.69,4.34-1.62-3.61,15.11-6.77,1.27,2.83-2.16,1.17,.06,.13c1.13,.05,2.13,.46,3.02,1.23,.89,.77,1.58,1.72,2.08,2.84,.32,.72,.53,1.44,.63,2.16,.1,.72,.05,1.42-.15,2.1-.2,.68-.57,1.31-1.12,1.9-.55,.59-1.32,1.1-2.31,1.54l-10.28,4.6-1.62-3.61Z"/>
    </g>
  </g>
</svg>