<?xml version="1.0" encoding="UTF-8"?>
<svg id="Ebene_2" data-name="Ebene 2" xmlns="http://www.w3.org/2000/svg" xmlns:xlink="http://www.w3.org/1999/xlink" viewBox="0 0 1200 790">
  <defs>
    <style>
      .cls-1 {
        fill: #f7c663;
      }

      .cls-2 {
        fill: #272733;
      }

      .cls-3 {
        letter-spacing: -.03em;
      }

      .cls-4, .cls-5, .cls-6 {
        fill: #fff;
      }

      .cls-7 {
        fill: #ce3734;
      }

      .cls-8 {
        fill: #5b9b30;
      }

      .cls-9 {
        font-size: 32.61px;
      }

      .cls-9, .cls-10, .cls-11 {
        font-family: QuattrocentoSans-Bold, 'Quattrocento Sans';
      }

      .cls-9, .cls-10, .cls-11, .cls-6 {
        font-weight: 700;
      }

      .cls-12 {
        fill: #243c77;
      }

      .cls-13 {
        fill: #3a5391;
      }

      .cls-14 {
        fill: #96cc52;
      }

      .cls-15 {
        fill: #3e3e4c;
      }

      .cls-16 {
        fill: #ff8f6a;
      }

      .cls-17 {
        letter-spacing: -.01em;
      }

      .cls-18 {
        fill: #d64f3c;
      }

      .cls-19 {
        fill: #216361;
      }

      .cls-20 {
        letter-spacing: 0em;
      }

      .cls-21 {
        fill: #1b1b23;
      }

      .cls-22 {
        fill: #a6a8ab;
      }

      .cls-23 {
        fill: #3cecc0;
      }

      .cls-24 {
        fill: #a9d864;
      }

      .cls-25 {
        fill: #ca4314;
      }

      .cls-26 {
        fill: #ea8a2a;
      }

      .cls-27 {
        letter-spacing: -.02em;
      }

      .cls-28 {
        fill: #ec6a3c;
      }

      .cls-29 {
        fill: #b3e56c;
      }

      .cls-30 {
        fill: #d0d2d3;
      }

      .cls-31 {
        fill: #ecc03c;
      }

      .cls-32 {
        letter-spacing: 0em;
      }

      .cls-33 {
        stroke: #000;
        stroke-linecap: round;
        stroke-linejoin: round;
        stroke-width: .25px;
      }

      .cls-33, .cls-34 {
        fill: none;
      }

      .cls-35 {
        fill: #ededee;
      }

      .cls-36 {
        letter-spacing: -.03em;
      }

      .cls-37 {
        fill: #f7eee2;
      }

      .cls-38 {
        fill: #f2be49;
      }

      .cls-39 {
        letter-spacing: -.02em;
      }

      .cls-40 {
        fill: #bbbdbf;
      }

      .cls-41 {
        fill: #3a9191;
      }

      .cls-42 {
        fill: #dd4d3a;
      }

      .cls-43 {
        fill: #395ebb;
      }

      .cls-10 {
        font-size: 42.08px;
      }

      .cls-44 {
        fill: #efa02e;
      }

      .cls-45 {
        fill: #e86349;
      }

      .cls-11 {
        font-size: 44.18px;
      }

      .cls-46 {
        clip-path: url(#clippath);
      }

      .cls-5 {
        opacity: .2;
      }

      .cls-47 {
        fill: #bc2626;
      }

      .cls-48 {
        fill: #343438;
      }

      .cls-49 {
        fill: #e2513d;
      }

      .cls-50 {
        fill: #3c68ec;
      }

      .cls-51 {
        fill: #70ad40;
      }

      .cls-52 {
        fill: #7792d6;
      }

      .cls-6 {
        font-family: CeraPro-Bold, 'Cera Pro';
        font-size: 10.52px;
      }

      .cls-53 {
        fill: #c6e9fa;
      }

      .cls-54 {
        fill: #58595b;
      }

      .cls-55 {
        fill: #3e5a9c;
      }
    </style>
    <clipPath id="clippath">
      <rect class="cls-34" width="1200" height="790"/>
    </clipPath>
  </defs>
  <g id="Ebene_1-2" data-name="Ebene 1">
    <g class="cls-46">
      <rect class="cls-12" width="1200" height="790"/>
      <rect class="cls-34" x="-6.2" y="130.79" width="1262.38" height="662.75"/>
      <g>
        <g>
          <g>
            <rect class="cls-30" x="413.47" y="496.26" width="265.04" height="29.59"/>
            <rect class="cls-40" x="413.47" y="525.85" width="265.04" height="6.96"/>
            <rect class="cls-52" x="416.95" y="532.81" width="258.07" height="167.15"/>
            <g>
              <rect class="cls-25" x="444.51" y="460.32" width="202.96" height="56.45"/>
              <rect class="cls-4" x="449.73" y="465.55" width="192.51" height="46"/>
            </g>
            <g>
              <rect class="cls-4" x="512.7" y="576.61" width="66.57" height="117.39"/>
              <rect class="cls-53" x="517.93" y="581.84" width="56.12" height="106.94"/>
              <rect class="cls-4" x="566.46" y="626.89" width="2.3" height="28.6"/>
              <rect class="cls-43" x="505.74" y="694" width="82.9" height="5.96"/>
            </g>
            <g>
              <g>
                <rect class="cls-4" x="594.53" y="576.61" width="66.57" height="82.57"/>
                <rect class="cls-53" x="599.75" y="581.84" width="56.12" height="72.12"/>
                <rect class="cls-43" x="591.35" y="659.18" width="73.53" height="5.96"/>
              </g>
              <g>
                <rect class="cls-4" x="430.88" y="576.61" width="66.57" height="82.57"/>
                <rect class="cls-53" x="436.1" y="581.84" width="56.12" height="72.12"/>
                <rect class="cls-43" x="427.4" y="659.18" width="73.53" height="5.96"/>
              </g>
            </g>
            <g>
              <g>
                <path class="cls-35" d="M466.72,581.1c0,3.98-3.23,7.21-7.21,7.21s-7.2-3.23-7.2-7.21h14.41Z"/>
                <path class="cls-35" d="M495.55,581.1c0,3.98-3.23,7.21-7.21,7.21s-7.21-3.23-7.21-7.21h14.41Z"/>
                <path class="cls-35" d="M524.37,581.1c0,3.98-3.23,7.21-7.21,7.21s-7.2-3.23-7.2-7.21h14.41Z"/>
                <path class="cls-35" d="M553.19,581.1c0,3.98-3.23,7.21-7.21,7.21s-7.21-3.23-7.21-7.21h14.41Z"/>
                <path class="cls-35" d="M582.01,581.1c0,3.98-3.23,7.21-7.21,7.21s-7.2-3.23-7.2-7.21h14.41Z"/>
                <path class="cls-35" d="M610.84,581.1c0,3.98-3.23,7.21-7.21,7.21s-7.21-3.23-7.21-7.21h14.41Z"/>
                <path class="cls-35" d="M639.66,581.1c0,3.98-3.23,7.21-7.21,7.21s-7.21-3.23-7.21-7.21h14.41Z"/>
              </g>
              <g>
                <rect class="cls-4" x="452.31" y="548.75" width="14.41" height="32.35"/>
                <rect class="cls-4" x="481.13" y="548.75" width="14.41" height="32.35"/>
                <rect class="cls-4" x="509.96" y="548.75" width="14.41" height="32.35"/>
                <rect class="cls-4" x="538.78" y="548.75" width="14.41" height="32.35"/>
                <rect class="cls-4" x="567.6" y="548.75" width="14.41" height="32.35"/>
                <rect class="cls-4" x="596.43" y="548.75" width="14.41" height="32.35"/>
                <rect class="cls-4" x="625.25" y="548.75" width="14.41" height="32.35"/>
              </g>
              <g>
                <path class="cls-25" d="M452.31,581.1c0,3.98-3.23,7.21-7.21,7.21s-7.21-3.23-7.21-7.21h14.41Z"/>
                <path class="cls-25" d="M481.13,581.1c0,3.98-3.23,7.21-7.21,7.21s-7.21-3.23-7.21-7.21h14.41Z"/>
                <path class="cls-25" d="M509.96,581.1c0,3.98-3.23,7.21-7.21,7.21s-7.21-3.23-7.21-7.21h14.41Z"/>
                <path class="cls-25" d="M538.78,581.1c0,3.98-3.23,7.21-7.21,7.21s-7.21-3.23-7.21-7.21h14.41Z"/>
                <path class="cls-25" d="M567.6,581.1c0,3.98-3.23,7.21-7.21,7.21s-7.2-3.23-7.2-7.21h14.41Z"/>
                <path class="cls-25" d="M596.43,581.1c0,3.98-3.23,7.21-7.21,7.21s-7.21-3.23-7.21-7.21h14.41Z"/>
                <path class="cls-25" d="M625.25,581.1c0,3.98-3.23,7.21-7.21,7.21s-7.2-3.23-7.2-7.21h14.41Z"/>
                <path class="cls-25" d="M654.07,581.1c0,3.98-3.23,7.21-7.21,7.21s-7.21-3.23-7.21-7.21h14.41Z"/>
              </g>
              <g>
                <rect class="cls-25" x="437.9" y="548.75" width="14.41" height="32.35"/>
                <rect class="cls-25" x="466.72" y="548.75" width="14.41" height="32.35"/>
                <rect class="cls-25" x="495.55" y="548.75" width="14.41" height="32.35"/>
                <rect class="cls-25" x="524.37" y="548.75" width="14.41" height="32.35"/>
                <rect class="cls-25" x="553.19" y="548.75" width="14.41" height="32.35"/>
                <rect class="cls-25" x="582.01" y="548.75" width="14.41" height="32.35"/>
                <rect class="cls-25" x="610.84" y="548.75" width="14.41" height="32.35"/>
                <rect class="cls-25" x="639.66" y="548.75" width="14.41" height="32.35"/>
              </g>
            </g>
          </g>
          <g>
            <rect class="cls-28" x="739.55" y="532.94" width="260.62" height="167.02"/>
            <polygon class="cls-25" points="997.14 489.66 743.1 489.66 732.3 520.58 1007.94 520.58 997.14 489.66"/>
            <rect class="cls-25" x="732.3" y="520.58" width="275.64" height="12.36"/>
            <rect class="cls-25" x="739.55" y="664.35" width="260.62" height="35.61"/>
            <g>
              <rect class="cls-4" x="901.19" y="573.45" width="68.27" height="120.4"/>
              <rect class="cls-53" x="906.55" y="578.81" width="57.56" height="109.68"/>
              <rect class="cls-4" x="912.4" y="622.13" width="4.19" height="27.72"/>
              <rect class="cls-31" x="892.81" y="693.85" width="85.03" height="6.11"/>
              <polygon class="cls-31" points="976.3 573.45 894.35 573.45 900.51 556.57 970.14 556.57 976.3 573.45"/>
            </g>
            <g>
              <rect class="cls-4" x="764.32" y="556.57" width="106.75" height="101.57"/>
              <rect class="cls-53" x="769.68" y="561.93" width="96.04" height="90.85"/>
              <rect class="cls-31" x="760.75" y="658.13" width="113.9" height="6.11"/>
            </g>
            <g>
              <g>
                <path class="cls-35" d="M785.84,578.59c0,3.52-2.85,6.37-6.37,6.37s-6.37-2.85-6.37-6.37h12.74Z"/>
                <path class="cls-35" d="M811.32,578.59c0,3.52-2.85,6.37-6.37,6.37s-6.37-2.85-6.37-6.37h12.74Z"/>
                <path class="cls-35" d="M836.8,578.59c0,3.52-2.85,6.37-6.37,6.37s-6.37-2.85-6.37-6.37h12.74Z"/>
                <path class="cls-35" d="M862.29,578.59c0,3.52-2.85,6.37-6.37,6.37s-6.37-2.85-6.37-6.37h12.74Z"/>
              </g>
              <g>
                <rect class="cls-4" x="773.1" y="549.99" width="12.74" height="28.6"/>
                <rect class="cls-4" x="798.58" y="549.99" width="12.74" height="28.6"/>
                <rect class="cls-4" x="824.07" y="549.99" width="12.74" height="28.6"/>
                <rect class="cls-4" x="849.55" y="549.99" width="12.74" height="28.6"/>
              </g>
              <g>
                <path class="cls-31" d="M773.1,578.59c0,3.52-2.85,6.37-6.37,6.37s-6.37-2.85-6.37-6.37h12.74Z"/>
                <path class="cls-31" d="M798.58,578.59c0,3.52-2.85,6.37-6.37,6.37s-6.37-2.85-6.37-6.37h12.74Z"/>
                <path class="cls-31" d="M824.07,578.59c0,3.52-2.85,6.37-6.37,6.37s-6.37-2.85-6.37-6.37h12.74Z"/>
                <path class="cls-31" d="M849.55,578.59c0,3.52-2.85,6.37-6.37,6.37s-6.37-2.85-6.37-6.37h12.74Z"/>
                <path class="cls-31" d="M875.03,578.59c0,3.52-2.85,6.37-6.37,6.37s-6.37-2.85-6.37-6.37h12.74Z"/>
              </g>
              <g>
                <rect class="cls-31" x="760.36" y="549.99" width="12.74" height="28.6"/>
                <rect class="cls-31" x="785.84" y="549.99" width="12.74" height="28.6"/>
                <rect class="cls-31" x="811.32" y="549.99" width="12.74" height="28.6"/>
                <rect class="cls-31" x="836.8" y="549.99" width="12.74" height="28.6"/>
                <rect class="cls-31" x="862.29" y="549.99" width="12.74" height="28.6"/>
              </g>
            </g>
          </g>
          <g>
            <rect class="cls-54" x="-422.61" y="713.21" width="1833.14" height="80.78"/>
            <rect class="cls-22" x="-422.61" y="699.99" width="1833.14" height="13.22"/>
            <g>
              <rect class="cls-23" x="247.64" y="546.64" width="126.65" height="153.35"/>
              <g>
                <g>
                  <rect class="cls-4" x="274.58" y="579.41" width="65.91" height="82.06"/>
                  <rect class="cls-53" x="278.91" y="583.74" width="57.25" height="73.4"/>
                  <rect class="cls-50" x="271.69" y="661.47" width="71.68" height="4.94"/>
                </g>
                <g>
                  <g>
                    <path class="cls-35" d="M291.97,597.21c0,2.84-2.3,5.15-5.15,5.15s-5.15-2.3-5.15-5.15h10.29Z"/>
                    <path class="cls-35" d="M312.56,597.21c0,2.84-2.3,5.15-5.15,5.15s-5.15-2.3-5.15-5.15h10.29Z"/>
                    <path class="cls-35" d="M333.14,597.21c0,2.84-2.3,5.15-5.15,5.15s-5.15-2.3-5.15-5.15h10.29Z"/>
                  </g>
                  <g>
                    <rect class="cls-4" x="281.68" y="564.93" width="10.29" height="32.28"/>
                    <rect class="cls-4" x="302.27" y="564.93" width="10.29" height="32.28"/>
                    <rect class="cls-4" x="322.85" y="564.93" width="10.29" height="32.28"/>
                  </g>
                  <g>
                    <path class="cls-50" d="M281.68,597.21c0,2.84-2.3,5.15-5.15,5.15s-5.15-2.3-5.15-5.15h10.29Z"/>
                    <path class="cls-50" d="M302.27,597.21c0,2.84-2.3,5.15-5.15,5.15s-5.15-2.3-5.15-5.15h10.29Z"/>
                    <path class="cls-50" d="M322.85,597.21c0,2.84-2.3,5.15-5.15,5.15s-5.15-2.3-5.15-5.15h10.29Z"/>
                    <path class="cls-50" d="M343.44,597.21c0,2.84-2.31,5.15-5.15,5.15s-5.15-2.3-5.15-5.15h10.29Z"/>
                  </g>
                  <g>
                    <rect class="cls-50" x="271.39" y="564.93" width="10.29" height="32.28"/>
                    <rect class="cls-50" x="291.97" y="564.93" width="10.29" height="32.28"/>
                    <rect class="cls-50" x="312.56" y="564.93" width="10.29" height="32.28"/>
                    <rect class="cls-50" x="333.14" y="564.93" width="10.29" height="32.28"/>
                  </g>
                </g>
              </g>
              <rect class="cls-50" x="247.64" y="540.66" width="128.18" height="5.98"/>
              <rect class="cls-55" x="247.64" y="537.28" width="131.24" height="3.38"/>
              <rect class="cls-50" x="247.64" y="532.37" width="134.3" height="4.91"/>
            </g>
            <g>
              <rect class="cls-23" x="64.65" y="500.87" width="182.96" height="199.12"/>
              <g>
                <g>
                  <rect class="cls-4" x="77.02" y="579.41" width="65.91" height="82.06"/>
                  <rect class="cls-53" x="81.35" y="583.74" width="57.25" height="73.4"/>
                  <rect class="cls-50" x="74.13" y="661.47" width="71.68" height="4.94"/>
                </g>
                <g>
                  <g>
                    <path class="cls-35" d="M94.41,597.21c0,2.84-2.3,5.15-5.15,5.15s-5.15-2.3-5.15-5.15h10.29Z"/>
                    <path class="cls-35" d="M115,597.21c0,2.84-2.3,5.15-5.14,5.15s-5.15-2.3-5.15-5.15h10.29Z"/>
                    <path class="cls-35" d="M135.58,597.21c0,2.84-2.3,5.15-5.14,5.15s-5.15-2.3-5.15-5.15h10.29Z"/>
                  </g>
                  <g>
                    <rect class="cls-4" x="84.12" y="546.58" width="10.29" height="50.63"/>
                    <rect class="cls-4" x="104.71" y="546.58" width="10.29" height="50.63"/>
                    <rect class="cls-4" x="125.29" y="546.58" width="10.29" height="50.63"/>
                  </g>
                  <g>
                    <path class="cls-50" d="M84.12,597.21c0,2.84-2.3,5.15-5.15,5.15s-5.15-2.3-5.15-5.15h10.29Z"/>
                    <path class="cls-50" d="M104.71,597.21c0,2.84-2.3,5.15-5.15,5.15s-5.15-2.3-5.15-5.15h10.29Z"/>
                    <path class="cls-50" d="M125.29,597.21c0,2.84-2.3,5.15-5.15,5.15s-5.15-2.3-5.15-5.15h10.29Z"/>
                    <path class="cls-50" d="M145.88,597.21c0,2.84-2.31,5.15-5.15,5.15s-5.15-2.3-5.15-5.15h10.3Z"/>
                  </g>
                  <g>
                    <rect class="cls-50" x="73.83" y="546.58" width="10.29" height="50.63"/>
                    <rect class="cls-50" x="94.41" y="546.58" width="10.29" height="50.63"/>
                    <rect class="cls-50" x="115" y="546.58" width="10.29" height="50.63"/>
                    <rect class="cls-50" x="135.58" y="546.58" width="10.3" height="50.63"/>
                  </g>
                </g>
              </g>
              <g>
                <g>
                  <rect class="cls-4" x="169.58" y="579.41" width="65.91" height="82.06"/>
                  <rect class="cls-53" x="173.91" y="583.74" width="57.25" height="73.4"/>
                  <rect class="cls-50" x="166.69" y="661.47" width="71.68" height="4.94"/>
                </g>
                <g>
                  <g>
                    <path class="cls-35" d="M186.97,597.21c0,2.84-2.3,5.15-5.15,5.15s-5.15-2.3-5.15-5.15h10.29Z"/>
                    <path class="cls-35" d="M207.56,597.21c0,2.84-2.3,5.15-5.15,5.15s-5.15-2.3-5.15-5.15h10.29Z"/>
                    <path class="cls-35" d="M228.15,597.21c0,2.84-2.3,5.15-5.15,5.15s-5.15-2.3-5.15-5.15h10.29Z"/>
                  </g>
                  <g>
                    <rect class="cls-4" x="176.68" y="546.58" width="10.29" height="50.63"/>
                    <rect class="cls-4" x="197.27" y="546.58" width="10.29" height="50.63"/>
                    <rect class="cls-4" x="217.85" y="546.58" width="10.29" height="50.63"/>
                  </g>
                  <g>
                    <path class="cls-50" d="M176.68,597.21c0,2.84-2.3,5.15-5.15,5.15s-5.15-2.3-5.15-5.15h10.29Z"/>
                    <path class="cls-50" d="M197.27,597.21c0,2.84-2.3,5.15-5.15,5.15s-5.15-2.3-5.15-5.15h10.29Z"/>
                    <path class="cls-50" d="M217.85,597.21c0,2.84-2.3,5.15-5.15,5.15s-5.15-2.3-5.15-5.15h10.29Z"/>
                    <path class="cls-50" d="M238.44,597.21c0,2.84-2.31,5.15-5.15,5.15s-5.15-2.3-5.15-5.15h10.29Z"/>
                  </g>
                  <g>
                    <rect class="cls-50" x="166.39" y="546.58" width="10.29" height="50.63"/>
                    <rect class="cls-50" x="186.97" y="546.58" width="10.29" height="50.63"/>
                    <rect class="cls-50" x="207.56" y="546.58" width="10.29" height="50.63"/>
                    <rect class="cls-50" x="228.15" y="546.58" width="10.29" height="50.63"/>
                  </g>
                </g>
              </g>
              <rect class="cls-50" x="63.12" y="494.89" width="186.02" height="5.98"/>
              <rect class="cls-13" x="60.06" y="491.51" width="192.14" height="3.38"/>
              <rect class="cls-50" x="57" y="486.6" width="198.26" height="4.91"/>
              <path class="cls-50" d="M83.85,526.25h16.7v-8.56h-16.7v8.56Zm51.25,0h16.7v-8.56h-16.7v8.56Zm-25.62,0h16.7v-8.56h-16.7v8.56Zm102.49-8.56v8.56h16.7v-8.56h-16.7Zm-25.62,8.56h16.7v-8.56h-16.7v8.56Zm-25.62,0h16.7v-8.56h-16.7v8.56Z"/>
            </g>
          </g>
        </g>
        <text class="cls-11" transform="translate(458.88 504)"><tspan class="cls-32" x="0" y="0">D</tspan><tspan x="30.84" y="0">A</tspan><tspan class="cls-27" x="58.59" y="0">X</tspan><tspan x="85.94" y="0">-ET</tspan><tspan class="cls-39" x="153.8" y="0">F</tspan></text>
        <g>
          <rect class="cls-31" x="754.43" y="460.32" width="233.27" height="57.36"/>
          <rect class="cls-4" x="760.74" y="465.53" width="220.67" height="48.27"/>
          <text class="cls-9" transform="translate(770.69 500.92)"><tspan x="0" y="0">MSCI</tspan><tspan class="cls-36" x="76.41" y="0"> </tspan><tspan class="cls-20" x="83.42" y="0">W</tspan><tspan x="117.17" y="0">ORLD</tspan></text>
        </g>
        <g>
          <rect class="cls-23" x="39.5" y="429.54" width="233.27" height="57.36"/>
          <rect class="cls-4" x="45.8" y="434.74" width="220.67" height="48.27"/>
          <text class="cls-10" transform="translate(75.72 472.93)"><tspan x="0" y="0">S&amp;</tspan><tspan class="cls-17" x="52.47" y="0">P</tspan><tspan x="74.35" y="0" xml:space="preserve"> 500</tspan></text>
        </g>
      </g>
      <path class="cls-5" d="M551.56,452.06c-26.83-36.84-52.24-48.62-71.21-52.22-18.07-3.42-30.91,.47-56.97-8.31-15.38-5.18-36.51-12.3-41.54-28.48-4.49-14.45,8.69-20.58,9.49-42.72,.41-11.46-2.92-15.21-18.99-52.22-19.76-45.5-20.62-53.43-18.99-61.71,2.75-14.01,12.71-29.5,27.3-35.6,14.05-5.88,29.94-1.55,61.71,7.12,22.32,6.09,28.95,10.24,36.79,5.93,5.77-3.17,6.55-7.84,17.8-34.42,11.2-26.46,13.47-29.02,15.43-30.86,15.33-14.34,40.13-10.46,46.28-9.49,6.26,.98,37.3,6.7,47.47,29.67,7.22,16.29-4.06,23.21,0,51.03,1.1,7.56,4.33,27.96,18.99,45.1,10.68,12.49,23.22,18.32,45.1,28.48,19.18,8.91,28.16,10.04,40.35,21.36,10.16,9.44,14.09,18.1,15.43,21.36,1.9,4.63,6.75,16.43,3.56,28.48-5.47,20.67-31.11,29.01-36.79,30.86-5.64,1.83-11.56,3.01-61.71,1.19-24.91-.91-33.68-1.57-42.72,4.75-6.38,4.45-9.75,10.17-16.61,26.11-5.73,13.3-13.03,31.72-20.18,54.59Z"/>
      <path class="cls-5" d="M915.74,444.02c-2.81-20.11-11.62-31.84-16.11-36.95-9.39-10.68-21.35-16.76-29.37-20.84-14.06-7.15-16.36-5.09-22.74-10.42-15.04-12.55-25.75-43.41-57.71-45.75-7.25-.53-9.72,.28-15.25-1.63-13.63-4.69-27.29-19.48-26.53-35.06,.5-10.18,6.99-17.26,18.95-30.32,10.28-11.22,12.57-9.75,19.9-18.95,9.09-11.41,12.71-22.61,16.11-33.16,5.03-15.6,7.54-23.39,5.68-31.27-2.92-12.38-11.1-13-19.9-32.21-3.95-8.63-5.7-15.91-6.63-19.9-2.06-8.79-4.34-18.53-2.84-30.32,2.25-17.68,11.68-29.6,16.11-35.06,8.24-10.15,17.85-21.99,31.27-21.79,15.59,.23,26.26,16.58,28.42,19.9,14.32,21.95-.35,35.08,12.32,54.95,8.71,13.66,28.21,27.17,47.37,32.21,6.32,1.66,13.16,2.55,18.95,8.53,7.45,7.68,8.16,18.63,8.53,25.58,.97,18.5-6.47,22.63-3.79,33.16,.99,3.9,3.74,10.11,28.42,24.63,20.66,12.15,63.65,31.61,67.27,62.53,1.64,14.02-2.34,25.58-3.79,29.37-2.03,5.33-7.1,16.4-18,25.58-11.62,9.79-17.92,7.37-36,19.9-5.76,3.99-4.03,3.48-14.21,11.37-23.25,18.02-29.87,18.82-36.95,28.42-3.79,5.14-8.35,13.66-9.47,27.48Z"/>
      <g>
        <path class="cls-4" d="M1118.88,609.22s1.65-.14,2.61,1.93c.96,2.07,1.86,12.02,2.14,14.73,1.74,5.15,5.03,11.89,5.59,12.95,.19,.36,1.44,.86,1.57,.99,.28,.27,.74,.89,1.84,1.69,.68,.49,.36,.98-.33,.77-.06,.37-1.8,1.14-2.75,.8-1-.36-1.48-1.44-1.58-2.28-.04-.33-.15-.65-.31-.94-.87-1.62-6.47-11.39-7.4-13.43-1.11-2.44-5.66-17.21-1.38-17.19Z"/>
        <path class="cls-2" d="M1118.34,588.42s4.7-1.87,7.65,1.91c2.53,3.25,1.1,7.55-.61,11.51-1.2,2.79,.57,6.22,2.02,10.13,2.65,7.16,.06,13.4-3.5,14.67-5.8,2.07-18.51,.32-18.51,.32-4.94-10.59,12.95-38.54,12.95-38.54Z"/>
        <path class="cls-26" d="M1128.78,637.58l-2.06,.97c-1.94-3.45-5.54-8.85-6.2-10.3-1.08-2.37-6.02-18.7-1.87-18.68,0,0,2.49,0,3.41,2.99,.65,2.11,1.46,10.2,2.36,14.28,1.1,3.26,3.14,8.13,4.37,10.74Z"/>
        <path class="cls-16" d="M1121.22,635.92s-9.33,29.36-10.24,31.7-7.05,8.76-10.71,14.54c-3.66,5.79-6.42,11.16-6.61,11.79-.19,.64,1.16,3.3,1.61,3.41,.45,.11,2.2,.74,2.28,1.67s-2.92,.82-3.61,.53-4.68-3.55-4.84-4.12,.61-1.98,1.6-2.45c1-.48,2.26-3.47,2.62-4.59,.36-1.11,4.49-13.74,5.51-15.54,1.02-1.8,6.2-6.22,6.46-7.12,.27-.9,.81-5.37,.66-9.48-.15-4.11-2.22-15.03,2.05-20.35h13.22Z"/>
        <path class="cls-16" d="M1122.9,635.92s2.85,15.18,3.79,19.65c.93,4.47,1.94,11.35,1.91,12.27-.03,.92-.07,3.27,.29,6.45,.36,3.18,3.33,20.06,3.66,20.98,.18,.5,.54,1.1,2.49,1.44,1.36,.24,2.26-.32,3.43,.15,1.17,.46,.51,1.13-.24,1.79-.97,.85-1.67,1.26-2.28,1.25-.96-.01-5.12-.26-5.6-.49-.72-.34-.8-1.32-.57-2.08,.27-.92,.64-.91,.16-2.31-.3-.87-5.23-14.15-6.15-18.4-.91-4.25-.52-7.53-.59-8.34-.15-1.49-15.18-32.38-15.18-32.38h14.9Z"/>
        <path class="cls-21" d="M1121.53,602.83s-3,2.71-.55,6.95h-5.42v-6.95h5.97Z"/>
        <path class="cls-4" d="M1130.03,640.83c.41-.06,1.74,.58,2.27,1.44-.2,.39-1.8,1.11-2.71,.8-.19-.06-.83-.4-1-.71,.06-.33,.68-1.41,1.44-1.53Z"/>
        <g>
          <polygon class="cls-47" points="1139.47 642.91 1137.22 643.66 1122.38 650.14 1124.33 649.51 1139.47 642.91"/>
          <polygon class="cls-49" points="1139.54 642.87 1151.41 665.02 1133.42 672.87 1124.33 649.51 1139.54 642.87"/>
          <polygon class="cls-45" points="1124.33 649.51 1122.38 650.14 1129.93 673.29 1133.42 672.87 1124.33 649.51"/>
          <polygon class="cls-7" points="1123.78 650.3 1131.86 672.03 1133.42 672.87 1133.42 672.87 1124.33 649.51 1123.78 650.3"/>
          <path class="cls-47" d="M1128.19,649.25c.11,.26,.38,.4,.59,.3,.21-.09,.29-.38,.17-.64-.11-.26-.38-.4-.59-.3-.21,.09-.29,.38-.17,.64Z"/>
          <path class="cls-47" d="M1134.46,646.66c.12,.28,.39,.44,.6,.35,.21-.09,.28-.4,.16-.68s-.39-.44-.6-.35c-.21,.09-.28,.4-.16,.68Z"/>
          <polygon class="cls-18" points="1124.33 649.51 1122.38 650.14 1123.78 650.3 1124.33 649.51"/>
          <polygon class="cls-18" points="1131.86 672.03 1129.93 673.29 1133.42 672.87 1131.86 672.03"/>
          <path class="cls-48" d="M1128.57,649.29s.01,0,.01,0c.05,0,.08-.05,.07-.1-.01-.07-1.16-6.97,1.29-7.82,2.45-.84,4.78,5.17,4.81,5.23,.02,.05,.07,.07,.12,.05,.05-.02,.07-.07,.05-.12-.1-.25-2.43-6.23-5.03-5.34-2.6,.89-1.46,7.72-1.41,8.01,0,.04,.04,.07,.09,.07Z"/>
        </g>
        <g>
          <g>
            <polygon class="cls-26" points="1140.94 646.86 1138.16 646.8 1119.24 647.97 1121.63 648.06 1140.94 646.86"/>
            <polygon class="cls-38" points="1141.04 646.86 1145.22 675.99 1122.26 677.41 1121.63 648.06 1141.04 646.86"/>
            <polygon class="cls-38" points="1121.63 648.06 1119.24 647.97 1118.26 676.48 1122.26 677.41 1121.63 648.06"/>
            <polygon class="cls-26" points="1120.71 648.71 1120.89 675.86 1122.26 677.41 1122.26 677.41 1121.63 648.06 1120.71 648.71"/>
            <path class="cls-26" d="M1127.04,648.85c.02,.35,.26,.61,.52,.6,.27-.02,.47-.31,.45-.66-.02-.35-.26-.61-.52-.6-.27,.02-.47,.31-.45,.66Z"/>
            <path class="cls-26" d="M1133.91,648.45c.02,.36,.26,.64,.53,.62,.27-.02,.47-.32,.44-.68-.02-.36-.26-.64-.53-.62-.27,.02-.47,.32-.44,.68Z"/>
            <polygon class="cls-44" points="1120.89 675.86 1122.26 677.41 1118.26 676.48 1120.89 675.86"/>
            <polygon class="cls-44" points="1121.63 648.06 1119.24 647.97 1120.71 648.71 1121.63 648.06"/>
            <path class="cls-48" d="M1127.54,649.01s.09-.04,.09-.09c0-.08,.14-7.65,2.73-7.74,.02,0,.03,0,.05,0,2.56,0,3.89,7.24,3.9,7.31,0,.05,.05,.08,.1,.07,.05,0,.08-.05,.07-.1-.05-.31-1.37-7.46-4.08-7.46-.02,0-.04,0-.06,0-2.75,.1-2.89,7.6-2.9,7.92,0,.05,.04,.09,.09,.09h0Z"/>
          </g>
          <polygon class="cls-1" points="1140.52 648.22 1137.44 648.35 1141.49 655.28 1140.52 648.22"/>
          <polygon class="cls-1" points="1143.06 668.89 1143.92 675.08 1139.82 675.31 1143.06 668.89"/>
        </g>
        <path class="cls-4" d="M1109.35,621.64c.16-6.87-.83-10.66,.32-13.19,.56-1.23,2.01-2.96,2.7-5.08,.95-2.93,.13-4.88,.13-4.88l6.1,1.92c-2.77,3.58,1.59,8.45,1.97,8.86h0s.01,.02,.01,.02c0,0,.01,.01,.01,.01h0c.24,.3,4.26,5.43,4.5,6.4,.24,1-1.38,5.31-1.75,7.48-.37,2.18-1.11,8.12-.69,11.36,.42,3.24,.7,3.56,.7,3.56,0,0-1.44,.9-5.95,.42-4.51-.48-8.99-2.55-8.99-2.55,0,0,.74-5.6,.95-14.33Z"/>
        <path class="cls-4" d="M1110.86,606.33c2.82-4.12,1.64-7.84,1.64-7.84l5.84,2.03c-.67,1.08-.65,2.68-.65,2.68-1.72-.25-2.62-1.27-2.62-1.27,0,2.83-2.59,5.24-2.59,5.24l-1.61-.84Z"/>
        <path class="cls-41" d="M1122.3,633.78s2.11,7.16,3.81,15.84c.91,4.63,2.92,16.35,2.69,19.43-.24,3.27,3.56,25.44,3.56,25.44l-2.35,.78s-.81-1.89-2.23-5.63c-1.1-2.88-2.98-7.54-3.9-10.46-1.76-5.59-1.03-8.8-1.1-10.21-.07-1.42-6.86-16.41-6.86-16.41l3.46-18.78h2.92Z"/>
        <path class="cls-38" d="M1137.9,696.14c.51,.01,1,.21,1.38,.55,.33,.29,.7,.63,.74,.74,.07,.2-3.53,2.28-3.64,2.32-.11,.05-6.79,.11-7.1-.17s.28-3.49,.39-3.79c.08-.21,.57,.28,2-.04,.56-.12,.92-.54,.99-.74,.03-.07,.12-.1,.18-.05,.64,.53,.92,.69,1.87,1.02,.68,.24,2.15,.14,3.19,.16Z"/>
        <path class="cls-4" d="M1136.6,697.37s0-.12,.01-.3c0-.04,0-.08,0-.13,0-.04,0-.08,.02-.12,0-.04,.02-.08,.03-.11,0-.02,.01-.03,.02-.05,0-.01,.02-.03,.02-.04,0-.02,.02-.03,.03-.04,.01-.01,.02-.03,.03-.04,.03-.02,.05-.06,.08-.08,.03-.02,.06-.05,.1-.08,.04-.02,.07-.05,.1-.07,.07-.05,.13-.09,.18-.12,.04-.03,.04-.07-.01-.09-.03,0-.06-.02-.1-.03-.04,0-.08-.02-.13-.02-.05,0-.1,0-.16,0-.06,0-.12,.03-.18,.05-.06,.02-.12,.07-.19,.11-.06,.05-.12,.11-.15,.18-.02,.04-.04,.07-.05,.11-.01,.04-.02,.08-.03,.12-.01,.04,0,.08,0,.11,0,.04,0,.07,0,.11,.01,.07,.03,.13,.05,.18,.02,.05,.05,.1,.08,.14,.06,.08,.12,.13,.17,.17,.05,.03,.08,.05,.08,.05Z"/>
        <path class="cls-4" d="M1135.43,697.37s0-.12,.01-.3c0-.04,0-.08,0-.13,0-.04,0-.08,.02-.12,0-.04,.02-.08,.03-.11,0-.02,.01-.03,.02-.05,0-.01,.02-.03,.02-.04,0-.02,.02-.03,.03-.04,.01-.01,.02-.03,.03-.04,.03-.02,.05-.06,.08-.08,.03-.02,.06-.05,.1-.08,.04-.02,.07-.05,.1-.07,.07-.05,.13-.09,.18-.12,.04-.03,.04-.07-.01-.09-.03,0-.06-.02-.1-.03-.04,0-.08-.02-.13-.02-.05,0-.1,0-.16,0-.06,0-.12,.03-.18,.05-.06,.02-.12,.07-.19,.11-.06,.05-.12,.11-.15,.18-.02,.04-.04,.07-.05,.11-.01,.04-.02,.08-.03,.12-.01,.04,0,.08,0,.11,0,.04,0,.07,0,.11,.01,.07,.03,.13,.05,.18,.02,.05,.05,.1,.08,.14,.06,.08,.12,.13,.17,.17,.05,.03,.08,.05,.08,.05Z"/>
        <path class="cls-4" d="M1134.3,697.18s.02-.12,.05-.3c0-.04,.01-.08,.02-.12,0-.04,.02-.08,.03-.12,.01-.04,.03-.07,.04-.1,0-.02,.02-.03,.02-.05,.01-.01,.02-.02,.03-.04,0-.02,.02-.03,.03-.04,.01-.01,.02-.03,.03-.04,.03-.02,.05-.05,.09-.07,.04-.02,.07-.05,.11-.07,.04-.02,.08-.04,.11-.06,.07-.04,.14-.07,.19-.1,.05-.03,.05-.07,0-.09-.03-.01-.06-.03-.09-.04-.04-.01-.08-.03-.13-.03-.05,0-.1-.01-.16-.01-.06,0-.12,.01-.19,.03-.06,.01-.13,.05-.2,.09-.06,.05-.13,.1-.17,.16-.02,.03-.05,.07-.07,.1-.02,.04-.03,.07-.04,.11-.01,.04-.02,.07-.02,.11,0,.04,0,.07,0,.11,0,.07,.01,.13,.03,.19,.01,.06,.04,.1,.06,.15,.05,.09,.1,.15,.15,.19,.04,.04,.07,.06,.07,.06Z"/>
        <path class="cls-26" d="M1129.27,699.57c.32,.28,6.99,.22,7.1,.17,.02,0,.21-.12,.49-.28-4.18-.84-5.34-3.7-5.34-3.7-1.2,.19-1.77-.21-1.88-.03-.17,.29-.69,3.55-.38,3.83Zm1.75-2.08c.22-.11,.54,.07,.71,.41,.17,.34,.12,.7-.1,.81-.22,.11-.54-.07-.71-.41-.17-.34-.12-.7,.1-.81Z"/>
        <path class="cls-38" d="M1097.94,698.03s.34,1.74,.28,1.94-4.48,.07-4.6,.04c-.12-.03-5.31-4.22-5.41-4.64-.09-.41,2.45-2.97,2.62-3.12,.18-.15,.49,.9,1.76,1.45,.67,.29,1.06,.26,1.28,.18,.15-.06,.31,.03,.35,.19,.09,.41,.27,1.06,.56,1.6,.45,.85,2.61,1.71,3.15,2.36Z"/>
        <path class="cls-26" d="M1088.22,695.38c.09,.41,5.29,4.61,5.41,4.64,.07,.02,1.56,.07,2.83,.07-2.29-.71-3.96-2.81-3.99-5.31,0-.37,.03-.74,.1-1.09-1.24-.55-1.55-1.58-1.72-1.43-.18,.15-2.72,2.71-2.62,3.12Zm2.03-.25c0-.38,.2-.69,.45-.69,.25,0,.46,.3,.46,.68,0,.38-.2,.69-.45,.69s-.46-.3-.46-.68Z"/>
        <path class="cls-4" d="M1095.69,698.01s.06-.11,.14-.27c.02-.03,.04-.07,.06-.11,.02-.04,.05-.07,.07-.1,.02-.03,.05-.06,.07-.09,.01-.01,.03-.02,.04-.04,.01,0,.03-.02,.04-.03,.01-.01,.03-.02,.04-.02,.02,0,.03-.02,.04-.02,.04,0,.07-.03,.11-.04,.04,0,.08-.02,.12-.03,.04,0,.09-.01,.13-.02,.08-.02,.16-.02,.21-.03,.05-.01,.07-.05,.03-.09-.02-.02-.05-.05-.08-.07-.03-.03-.07-.06-.11-.08-.04-.02-.09-.04-.15-.07-.05-.02-.12-.03-.18-.04-.07,0-.14,0-.22,.02-.07,.02-.15,.05-.22,.1-.03,.02-.07,.05-.1,.08-.03,.03-.05,.06-.07,.09-.03,.03-.04,.06-.06,.1-.02,.03-.03,.07-.04,.1-.02,.07-.03,.13-.03,.19,0,.06,0,.11,0,.16,.02,.1,.05,.17,.08,.23,.03,.05,.05,.08,.05,.08Z"/>
        <path class="cls-4" d="M1094.77,697.39s.06-.11,.14-.27c.02-.03,.04-.07,.06-.11,.02-.04,.05-.07,.07-.1,.02-.03,.05-.06,.07-.09,.01-.01,.03-.02,.04-.04,.01,0,.03-.02,.04-.03,.01-.01,.03-.02,.04-.02,.02,0,.03-.02,.04-.02,.04,0,.07-.03,.11-.04,.04,0,.08-.02,.12-.03,.04,0,.09-.01,.13-.02,.08-.02,.16-.02,.21-.03,.05-.01,.07-.05,.03-.09-.02-.02-.05-.05-.08-.07-.03-.03-.07-.06-.11-.08-.04-.02-.09-.04-.15-.07-.05-.02-.12-.03-.18-.04-.07,0-.14,0-.22,.02-.07,.02-.15,.05-.22,.1-.03,.02-.07,.05-.1,.08-.03,.03-.05,.06-.07,.09-.03,.03-.04,.06-.06,.1-.02,.03-.03,.07-.04,.1-.02,.07-.03,.13-.03,.19,0,.06,0,.11,0,.16,.02,.1,.05,.17,.08,.23,.03,.05,.05,.08,.05,.08Z"/>
        <path class="cls-4" d="M1093.86,696.62s.07-.1,.17-.25c.03-.03,.05-.07,.08-.1,.03-.03,.05-.07,.08-.1,.03-.03,.06-.05,.08-.08,.01,0,.03-.02,.04-.03,.01,0,.03-.01,.04-.02,.01-.01,.03-.01,.04-.02,.02,0,.03-.01,.05-.02,.04,0,.07-.02,.11-.02,.04,0,.08-.01,.13-.01,.04,0,.09,0,.13,0,.08,0,.16,0,.21,0,.06,0,.08-.04,.04-.08-.02-.02-.04-.05-.07-.08-.03-.03-.06-.06-.1-.09-.04-.03-.09-.06-.14-.08-.05-.02-.11-.04-.18-.06-.06-.02-.14-.01-.22-.01-.08,.01-.16,.03-.23,.07-.04,.02-.07,.04-.1,.06-.03,.03-.06,.06-.09,.08-.03,.03-.05,.06-.07,.09-.02,.03-.04,.06-.05,.09-.03,.06-.05,.12-.05,.18-.01,.06,0,.11-.01,.16,0,.1,.03,.18,.05,.23,.02,.05,.04,.08,.04,.08Z"/>
        <path class="cls-15" d="M1088.68,694.59c.72,.85,4.35,4.26,5.23,4.64,.62,.27,3.55,.21,4.24,0,.06,.39,.1,.66,.07,.75-.06,.21-4.22,.19-4.6,.04-.32-.13-5.31-4.22-5.41-4.64-.03-.12,.17-.42,.46-.79Z"/>
        <path class="cls-19" d="M1122.78,668.99c-.07-1.42-6.86-16.41-6.86-16.41l4.53-18.8,1.07,.7-3.28,15.38c-.46,1.78-.32,3.65,.39,5.34,1.83,4.35,5.3,12.75,5.35,13.79,.07,1.42-.66,4.62,1.1,10.21,.92,2.92,2.41,9.32,4.64,12.68,1.51,2.28,2.63,2.61,2.63,2.61l-1.51,.5h0l-.84,.28s-.81-1.89-2.23-5.63c-1.1-2.88-2.98-7.54-3.9-10.46-1.76-5.59-1.03-8.8-1.1-10.21Z"/>
        <path class="cls-41" d="M1115.01,657.08c-2.26,7.78-3.29,10.76-4.33,12.1-1.03,1.35-5.51,6.23-8.94,11.09-3.04,4.31-7.98,13.31-7.98,13.31l-1.98-1.26s4.63-14.9,6.51-18.83c.96-1.99,4.44-5.44,5.58-6.58,1.3-1.3,1.21-.91,1.65-9.24,.19-3.63-.24-11.38,.28-15.34,.78-5.91,3.58-8.57,3.58-8.57h12.92s-3.73,11.09-7.29,23.31Z"/>
        <g>
          <path class="cls-19" d="M1115.29,633.79c.07-.02,.1-.02,.1-.02l-.1,.02Z"/>
          <path class="cls-19" d="M1091.78,692.34s4.63-14.9,6.51-18.83c.96-1.99,4.44-5.44,5.58-6.58,1.3-1.3,1.21-.91,1.65-9.24,.19-3.63-.74-9.7-.53-13.69,.26-5.07,3.02-9.29,3.02-9.29h15.55v3.95s-3.35,2.29-10.68,.44c-1-.25-1.79-.5-2.4-.75-.86-.34-1.85-.03-2.34,.76-.46,.74-.88,1.57-1.22,2.52-1.27,3.54-.26,13.17-.44,16.8-.43,8.33,.39,7.2-.91,8.5-1.14,1.14-3.79,3.45-5.16,5.18-1.94,2.44-4.92,8.85-6.24,15.36-.83,4.09-.39,6.13-.39,6.13l-1.98-1.26Z"/>
        </g>
        <path class="cls-4" d="M1123.08,590.07c-2.03-2.44-8.1-4.19-11.73-.25-2.84,3.08-2,7.79,1.52,9.33h0c.4,1.08,1.28,1.6,2.13,2.23,3.74,2.75,6.84,1.74,7.44,1.22,.66-.58,.99-2.16,1.06-3.03,.03-.34,1.53-.86,1.02-1.31-.27-.24-1.03-.95-1.19-1.82-.14-.78,.12-1,.46-1.81,.65-1.56,.05-3.65-.71-4.56Z"/>
        <path class="cls-19" d="M1132.5,693.03c0-.15-.16-.24-.29-.17-.32,.18-.83,.45-1.38,.61-.56,.16-1.14,.29-1.5,.36-.14,.03-.2,.2-.1,.31,.13,.15,.26,.34,.24,.5-.04,.32-.23,1.05,1.87,.32,2.1-.73,1.53-.96,1.3-1.33-.12-.19-.15-.42-.14-.6Z"/>
        <path class="cls-19" d="M1095.03,692.64c.12-.1,.08-.29-.07-.34-.37-.12-.94-.34-1.45-.66-.52-.33-1.03-.7-1.34-.93-.12-.09-.3-.02-.32,.14-.03,.21-.09,.44-.23,.54-.28,.19-.99,.56,1.06,1.7,2.05,1.14,1.83,.53,1.96,.1,.07-.23,.23-.41,.38-.54Z"/>
        <path class="cls-4" d="M1132.33,642.3c.22,.24,.17,.34-.08,.55-.4,.33-.97,.59-1.43,.62-.73,.05-1.93-.71-2.03-.88-.1-.18,.64-1.47,1.42-1.5,.79-.03,1.51,.54,2.12,1.2Z"/>
        <path class="cls-15" d="M1129.16,698.94c1.08,.27,5.4,.64,7.11,.45,1.48-.16,3.53-2.05,3.5-2.28,.4,.19,.52,.57,.49,.73-.05,.37-2.7,2.15-3.9,2.34-.59,.09-6.71-.09-7.02-.36-.09-.08-.2-.41-.18-.88Z"/>
        <g>
          <g>
            <g>
              <polygon class="cls-47" points="1113.08 655.78 1111.49 654.48 1099.96 646.64 1101.31 647.77 1113.08 655.78"/>
              <polygon class="cls-49" points="1113.14 655.82 1102.44 674.63 1088.45 665.12 1101.31 647.77 1113.14 655.82"/>
              <polygon class="cls-45" points="1101.31 647.77 1099.96 646.64 1086.55 662.77 1088.45 665.12 1101.31 647.77"/>
              <polygon class="cls-47" points="1100.49 647.73 1088.35 663.59 1088.45 665.12 1088.45 665.12 1101.31 647.77 1100.49 647.73"/>
              <path class="cls-47" d="M1103.84,651.05c-.17,.24-.17,.53,0,.64,.16,.11,.43,0,.6-.24s.17-.53,0-.64c-.16-.11-.43,0-.6,.24Z"/>
              <path class="cls-47" d="M1109,654.46c-.15,.22-.14,.49,.02,.6s.42,.02,.57-.2c.15-.22,.14-.49-.02-.6-.16-.11-.42-.02-.57,.2Z"/>
              <polygon class="cls-42" points="1088.35 663.59 1088.45 665.12 1086.55 662.77 1088.35 663.59"/>
              <polygon class="cls-42" points="1101.31 647.77 1099.96 646.64 1100.49 647.73 1101.31 647.77"/>
            </g>
            <polygon class="cls-42" points="1099.87 654.63 1098.27 671.89 1100.13 673.15 1099.87 654.63"/>
          </g>
          <path class="cls-48" d="M1109.29,654.64s.06-.02,.07-.05c.09-.21,2.04-4.99,1.03-6.96-.21-.41-.5-.66-.95-.76-2.84-.64-5.28,4.13-5.39,4.34-.02,.04,0,.09,.04,.11,.04,.02,.09,0,.11-.04,.02-.05,2.53-4.82,5.25-4.21,.4,.09,.64,.32,.83,.69,.98,1.9-1.04,6.71-1.06,6.76-.02,.04,0,.09,.04,.1,.01,0,.02,0,.03,0Z"/>
        </g>
        <g>
          <g>
            <g>
              <polygon class="cls-8" points="1120.85 652 1118.11 651.81 1099.42 652.15 1101.77 652.35 1120.85 652"/>
              <polygon class="cls-14" points="1120.94 651.99 1123.81 680.87 1101.14 681.29 1101.77 652.35 1120.94 651.99"/>
              <polygon class="cls-14" points="1101.77 652.35 1099.42 652.15 1097.24 680.19 1101.14 681.29 1101.77 652.35"/>
              <polygon class="cls-8" points="1100.84 652.95 1099.85 679.7 1101.14 681.29 1101.14 681.29 1101.77 652.35 1100.84 652.95"/>
              <path class="cls-8" d="M1107.07,653.75c0,.26,.22,.48,.49,.47,.26,0,.48-.22,.47-.49s-.22-.48-.49-.47c-.26,0-.48,.22-.47,.49Z"/>
              <path class="cls-8" d="M1113.84,653.63c0,.26,.22,.48,.49,.47,.26,0,.48-.22,.47-.49,0-.26-.22-.48-.49-.47-.26,0-.48,.22-.47,.49Z"/>
              <polygon class="cls-51" points="1099.85 679.7 1101.14 681.29 1097.24 680.19 1099.85 679.7"/>
              <ellipse class="cls-29" cx="1111.76" cy="666.79" rx="6.48" ry="4.97" transform="translate(-12.09 20.58) rotate(-1.05)"/>
            </g>
            <polygon class="cls-51" points="1100.83 652.96 1099.42 652.15 1101.77 652.36 1100.83 652.96"/>
            <path class="cls-48" d="M1107.44,654.13h0s.08-.04,.08-.09c0-.08,.02-6.16,2.51-6.37,2.49-.2,4.03,5.56,4.05,5.64,0,.05,.05,.08,.1,.07,.05,0,.08-.06,.07-.1-.07-.33-1.57-6.06-4.22-5.85-2.66,.22-2.69,6.27-2.68,6.61,0,.05,.04,.08,.09,.08Z"/>
            <text class="cls-6" transform="translate(1102.63 670.49)"><tspan x="0" y="0">ET</tspan><tspan class="cls-3" x="12.18" y="0">F</tspan></text>
          </g>
          <polygon class="cls-24" points="1120.18 652.36 1121.05 657.23 1117.06 652.82 1120.18 652.36"/>
          <polygon class="cls-24" points="1123.4 670.26 1124.99 678.62 1120.86 679.12 1123.4 670.26"/>
        </g>
        <path class="cls-4" d="M1105.96,626.1c.11-1.27,1.86-14.91,3.5-17.4,1.65-2.49,4.56-.46,4.41,1.35-.19,2.2-3.87,13.89-4.09,15.32-.21,1.43,.62,17.5,.62,17.5,0,0,.77,1.43,1.17,2.76,.12,.4,.32,1.72-.05,2.08-.25,.24-.76-1.54-.84-1.24-.34,1.13,.43,1.4,.28,1.57-.15,.17-1.1,.29-1.52,.24-.98-.11-1.4-.73-1.49-1.61-.04-.43,.21-3.52,.21-3.52,0,0-2.3-15.95-2.21-17.04Z"/>
        <path class="cls-38" d="M1124.68,638.21c-.9,.41-7.56,3.23-17.17-2.28-.2-.11-.29-.38-.21-.6,.54-1.49,2.37-7.26,2.02-11.48-.82-9.73-2.11-12.3,1.55-17.51,0,0,2.47,1.38,4.88,2.24,1.66,.6,3.59,.75,4.92,.69,2.39,3.23,3.95,4.86,4.51,5.88,.91,1.66-1.46,6.1-1.83,11.57-.39,5.89,1.14,10.59,1.4,11.34,.02,.06,0,.13-.06,.15Z"/>
        <path class="cls-26" d="M1107.51,635.92c-.2-.11-.29-.38-.21-.6,.54-1.49,2.37-7.26,2.02-11.48-.82-9.73-2.11-12.3,1.55-17.51l1.18,1.38c3.15,6.19-2,15.96,.26,23.69,1.6,5.47,7.96,7.83,7.96,7.83h0c-3.04,.23-7.45-.27-12.76-3.32Z"/>
        <path class="cls-38" d="M1113.87,610.25c-.16,1.6-3.36,13.45-3.58,16.45-.09,1.2,.4,16.14,.4,16.14l-2.77,.3s-2.34-14.86-2.52-16.46c-.18-1.61,1.72-14.63,3.82-17.89,1.54-2.39,4.88-.78,4.65,1.46Z"/>
        <path class="cls-4" d="M1110.53,606.81l.33-.48c.62,.34,2.86,1.52,4.88,2.24,1.62,.59,3.51,.75,4.84,.69,.05,0,.1,.02,.14,.07,.09,.12,.18,.24,.27,.35-.35,.09-2.04,.24-4.3-.23-3.38-.71-6.15-2.64-6.15-2.64Z"/>
        <path class="cls-37" d="M1110.86,606.32s.65,.37,1.61,.84c0,0,0,0,0,0-.15,.16-.29,.34-.43,.54-.94-.5-1.51-.9-1.51-.9,.1-.16,.22-.32,.33-.49Z"/>
        <path class="cls-2" d="M1090.23,612.43c-.81,6.06,2.87,11.91,9.56,13.77,2.79,.77,5.6,.77,5.6,.77,0,0,.46-13.07,3.73-18,1.73-2.61,3.87-2.8,4.94-4.91,1.25-2.47,.66-4.22,.66-4.22-1.47-.95-2.28-2.22-1.29-3.54,.48-.64,1.4-.45,1.87,.15,.49,.63,.28,2.02,.28,2.02,0,0,.65-.37,.72-1.51,.1-1.49,.74-3.05,2.72-3.24,2.7-.25,4.79-1.17,5.11-2.14,.37-1.13-1.8-6.03-6.75-6.49-8.22-.76-10.4,6.29-12.98,11.56-2.25,4.6-8.55,8-9.33,8.71-.54,.5-4.21,2.37-4.83,7.08Zm4.87-6.37c.75-.69,3.23-2.23,4.04-2.84,4.09-3.08,5.24-5.52,5.39-5.82-2.35,6.9-11.19,7.47-12.55,15.81-.26,1.57-.29,2.58-.29,2.58-.62-5.39,1.41-7.87,3.42-9.73Z"/>
        <path class="cls-21" d="M1115.84,594.69c.24-1.31,1.23-1.89,3.9-1.95,2.65-.06,4.14-.77,4.16-.78-.68,.83-2.21,1.64-4.54,1.82-1.87,.14-2.96,1.67-3.06,3.16-.08,1.15-.73,1.51-.73,1.51,.5-.76,.02-2.44,.26-3.76Z"/>
        <path class="cls-21" d="M1102.18,614.98c.72-4.78,2.15-7.25,6.85-8.99,4.7-1.75,5.69-6.16,5.69-6.16,0,0,.64,1.76-.61,4.22-1.07,2.11-3.38,2.2-4.94,4.91-2.76,4.79-3.73,18-3.73,18,0,0-2.81,0-5.6-.77-3.28-.91-5.88-2.79-7.54-5.17,4.33,1.97,9.17-1.26,9.89-6.04Z"/>
      </g>
      <path class="cls-5" d="M180.5,416.92c-1.51-5.02-3.92-12-7.71-19.84-1.4-2.9-7.47-14.77-20.23-28.65-11.66-12.67-24.1-26.19-42.39-31.97-27.34-8.64-50.13,5.55-62.37-11.4-.39-.54-.66-.98-1.22-1.84-9.57-14.84-10.87-30.21-11.56-39.69-1.31-17.89,2.9-21.15,6.74-54.02,2.25-19.27,3.58-30.67,2.89-46.3-1.33-30.03-4.5-31.78-2.89-50.71,1.18-13.81,3.15-36.99,19.27-54.02,11.55-12.21,31.2-22.13,49.14-16.54,19.46,6.06,18.96,24.72,47.21,39.69,9.07,4.81,17.98,9.53,29.87,8.82,18.51-1.1,24.59-14.19,39.5-13.23,13.27,.85,22.7,12.13,29.87,20.95,21.48,26.42,16.43,47.07,29.87,79.37,21.9,52.65,59.27,55.39,56.84,83.78-2.32,27.13-38.12,44.26-42.39,46.3-23.25,11.12-31.36-.72-56.84,11.02-22.1,10.19-35.71,27.75-41.43,35.29-12.32,16.24-18.78,32.46-22.16,42.98Z"/>
      <path class="cls-33" d="M1123.14,601.18c-.09,.02-.53,.08-.94-.2-.48-.33-.53-.87-.54-.94"/>
      <circle cx="1122.59" cy="594.74" r=".47"/>
    </g>
    <g>
      <path class="cls-4" d="M157.07,195.8c0,3.2-1.17,5.83-3.5,7.9-2.34,2.06-5.22,3.1-8.64,3.1-2.62,0-4.97-.64-7.03-1.92-2.06-1.28-3.64-3.04-4.73-5.28l4.51-3.17c1.89,2.91,4.24,4.37,7.06,4.37,1.66,0,3.02-.44,4.08-1.32,1.06-.88,1.58-2.07,1.58-3.58,0-3.04-2.16-4.56-6.48-4.56h-7.39v-16.8h18.72v5.86h-12.48v5.76c1.28-.26,2.48-.38,3.6-.38,2.91,0,5.42,.9,7.54,2.71,2.11,1.81,3.17,4.25,3.17,7.32Z"/>
      <path class="cls-4" d="M161.91,190.13c0-4.86,1.07-8.77,3.22-11.71,2.14-2.98,5.26-4.46,9.36-4.46s7.2,1.49,9.31,4.46c2.14,2.94,3.22,6.85,3.22,11.71s-1.09,8.9-3.26,12c-2.18,3.1-5.26,4.66-9.26,4.66s-7.14-1.55-9.31-4.66c-2.18-3.1-3.26-7.1-3.26-12Zm18.43,.05c0-6.82-1.95-10.22-5.86-10.22s-5.9,3.41-5.9,10.22,1.97,10.61,5.9,10.61,5.86-3.54,5.86-10.61Z"/>
      <path class="cls-4" d="M192.39,190.13c0-4.86,1.07-8.77,3.22-11.71,2.14-2.98,5.26-4.46,9.36-4.46s7.2,1.49,9.31,4.46c2.14,2.94,3.22,6.85,3.22,11.71s-1.09,8.9-3.26,12c-2.18,3.1-5.26,4.66-9.26,4.66s-7.14-1.55-9.31-4.66c-2.18-3.1-3.26-7.1-3.26-12Zm18.43,.05c0-6.82-1.95-10.22-5.86-10.22s-5.9,3.41-5.9,10.22,1.97,10.61,5.9,10.61,5.86-3.54,5.86-10.61Z"/>
      <path class="cls-4" d="M157.23,230.93v-13.16h4.59v13.5c0,1.61,.45,2.86,1.36,3.76,.91,.9,2.1,1.34,3.57,1.34s2.69-.45,3.59-1.34c.9-.9,1.34-2.15,1.34-3.76v-13.5h4.59v13.16c0,2.92-.9,5.27-2.69,7.04s-4.07,2.65-6.83,2.65-5.07-.88-6.85-2.65-2.67-4.11-2.67-7.04Z"/>
      <path class="cls-4" d="M179.5,235.66l3.16-2.38c1.59,2.18,3.42,3.26,5.51,3.26,1,0,1.78-.22,2.35-.66,.57-.44,.85-1.05,.85-1.82,0-.63-.19-1.13-.58-1.48-.39-.35-1.15-.79-2.28-1.31l-2.41-1.09c-3.63-1.61-5.44-3.76-5.44-6.46,0-1.9,.7-3.44,2.11-4.61,1.4-1.17,3.18-1.75,5.34-1.75,1.68,0,3.15,.38,4.42,1.14,1.27,.76,2.27,1.8,2.99,3.11l-3.13,2.41c-1.16-1.72-2.58-2.58-4.28-2.58-.82,0-1.48,.19-2.01,.58-.52,.39-.78,.92-.78,1.6,0,.57,.19,1.03,.56,1.38,.37,.35,1.06,.75,2.06,1.21l2.55,1.12c1.93,.86,3.33,1.8,4.22,2.81,.88,1.01,1.33,2.26,1.33,3.76,0,2.02-.74,3.64-2.21,4.88-1.47,1.24-3.35,1.85-5.64,1.85-1.88,0-3.58-.44-5.08-1.33-1.51-.88-2.7-2.1-3.59-3.64Z"/>
      <path class="cls-4" d="M88.01,262.99c-.05-3.22,1.12-5.98,3.5-8.28,2.38-2.3,5.2-3.42,8.47-3.35,2.13,0,4.06,.49,5.8,1.48,1.73,.99,3.1,2.35,4.1,4.1l-3.47,2.45c-1.61-2.52-3.75-3.77-6.43-3.77-2.09,0-3.81,.7-5.18,2.11-1.37,1.41-2.06,3.17-2.06,5.3s.69,3.89,2.06,5.27c1.37,1.38,3.1,2.07,5.18,2.07,2.67,0,4.82-1.26,6.43-3.77l3.47,2.45c-.97,1.75-2.33,3.11-4.08,4.1-1.75,.99-3.69,1.48-5.85,1.48-3.29,.07-6.11-1.05-8.48-3.35-2.37-2.3-3.52-5.06-3.45-8.28Z"/>
      <path class="cls-4" d="M112.18,265.78c-.05-2.4,.83-4.48,2.62-6.22,1.79-1.75,3.92-2.6,6.39-2.55,2.47-.04,4.61,.81,6.41,2.55,1.8,1.75,2.68,3.82,2.63,6.22,.05,2.4-.84,4.48-2.65,6.24-1.81,1.76-3.96,2.61-6.43,2.57-2.47,.04-4.6-.81-6.38-2.57-1.78-1.76-2.65-3.84-2.6-6.24Zm12.12,3.3c.83-.86,1.24-1.95,1.24-3.26s-.41-2.41-1.24-3.3c-.83-.88-1.86-1.33-3.11-1.33s-2.31,.44-3.13,1.31-1.22,1.98-1.22,3.31,.41,2.4,1.22,3.26,1.86,1.29,3.13,1.29,2.28-.43,3.11-1.29Z"/>
      <path class="cls-4" d="M159.75,263.77v10.44h-4.59v-9.79c0-1-.27-1.79-.82-2.38s-1.27-.88-2.18-.88-1.65,.29-2.23,.88c-.58,.59-.87,1.35-.87,2.28v9.89h-4.59v-9.79c0-1-.27-1.79-.82-2.38s-1.27-.88-2.18-.88-1.68,.29-2.24,.88-.85,1.38-.85,2.38v9.79h-4.59v-16.83h4.22v1.5c1.18-1.25,2.77-1.87,4.76-1.87,2.2,0,3.86,.81,5,2.41,1.43-1.61,3.3-2.41,5.61-2.41,1.95,0,3.5,.61,4.64,1.84,1.14,1.22,1.72,2.87,1.72,4.93Z"/>
      <path class="cls-4" d="M179.59,259.51c1.55,1.67,2.33,3.76,2.33,6.27s-.78,4.62-2.33,6.31c-1.55,1.69-3.5,2.53-5.83,2.53-2.11,0-3.79-.68-5.03-2.04v7.75h-4.59v-22.95h4.22v2.11c1.16-1.65,2.96-2.48,5.41-2.48s4.28,.83,5.83,2.5Zm-2.33,6.31c0-1.38-.41-2.5-1.22-3.37-.82-.86-1.86-1.29-3.13-1.29s-2.24,.41-3.04,1.22-1.21,1.95-1.21,3.4,.4,2.59,1.21,3.42c.8,.83,1.82,1.24,3.04,1.24s2.28-.43,3.11-1.29c.83-.86,1.24-1.97,1.24-3.33Z"/>
      <path class="cls-4" d="M199.63,264.22v10h-4.22v-1.63c-1.31,1.36-3.03,2.04-5.13,2.04-1.77,0-3.18-.46-4.23-1.39-1.05-.93-1.58-2.14-1.58-3.64s.57-2.71,1.72-3.59,2.69-1.31,4.64-1.31h4.22v-.75c0-.95-.27-1.68-.8-2.19-.53-.51-1.31-.77-2.33-.77-.84,0-1.6,.18-2.28,.54-.68,.36-1.41,.95-2.18,1.77l-2.38-2.82c1.95-2.31,4.4-3.47,7.34-3.47,2.22,0,3.98,.63,5.27,1.89,1.29,1.26,1.94,3.03,1.94,5.32Zm-4.59,3.71v-.2h-3.6c-1.56,0-2.35,.57-2.35,1.7,0,.57,.22,1.01,.66,1.34,.44,.33,1.02,.49,1.75,.49,1.02,0,1.86-.31,2.53-.94,.67-.62,1-1.42,1-2.4Z"/>
      <path class="cls-4" d="M219.52,263.77v10.44h-4.56v-9.83c0-.97-.29-1.76-.87-2.36-.58-.6-1.33-.9-2.26-.9s-1.69,.3-2.29,.9c-.6,.6-.9,1.39-.9,2.36v9.83h-4.59v-16.83h4.22v1.53c1.27-1.27,2.91-1.9,4.93-1.9s3.49,.61,4.62,1.84c1.13,1.22,1.7,2.87,1.7,4.93Z"/>
      <path class="cls-4" d="M223.29,251.26c0-.82,.28-1.5,.85-2.04,.57-.54,1.26-.82,2.07-.82s1.51,.27,2.09,.82c.58,.54,.87,1.22,.87,2.04s-.29,1.46-.87,2.01-1.27,.82-2.09,.82-1.51-.27-2.07-.82c-.57-.54-.85-1.21-.85-2.01Zm.65,22.95v-16.83h4.59v16.83h-4.59Z"/>
      <path class="cls-4" d="M248.56,267.34h-11.8c.27,1.07,.82,1.89,1.65,2.47,.83,.58,1.85,.87,3.08,.87,1.65,0,3.22-.57,4.69-1.7l1.9,3.13c-2.02,1.68-4.26,2.52-6.73,2.52-2.58,.04-4.78-.8-6.58-2.53-1.8-1.73-2.68-3.83-2.63-6.27-.05-2.43,.8-4.51,2.55-6.26s3.83-2.6,6.26-2.55c2.31,0,4.21,.75,5.7,2.24,1.48,1.5,2.23,3.35,2.23,5.58,0,.82-.1,1.65-.31,2.52Zm-11.8-3.23h7.65c-.02-1.02-.38-1.84-1.07-2.46-.69-.62-1.55-.94-2.57-.94s-1.82,.31-2.55,.92c-.73,.61-1.21,1.44-1.46,2.48Z"/>
      <path class="cls-4" d="M250.9,271.36l2.31-2.79c1.45,1.52,3.03,2.28,4.73,2.28,.63,0,1.15-.12,1.55-.36,.4-.24,.6-.58,.6-1.04,0-.34-.12-.61-.36-.8-.24-.19-.7-.44-1.38-.73l-1.8-.75c-1.61-.66-2.78-1.38-3.5-2.16-.73-.78-1.09-1.77-1.09-2.98,0-1.56,.57-2.79,1.7-3.69,1.13-.9,2.63-1.34,4.49-1.34,2.49,0,4.51,.84,6.05,2.52l-2.31,2.82c-1.13-1.06-2.39-1.6-3.77-1.6-1.2,0-1.8,.4-1.8,1.19,0,.32,.12,.58,.37,.78,.25,.2,.71,.44,1.39,.71l1.63,.68c1.68,.68,2.88,1.41,3.62,2.18,.74,.77,1.1,1.76,1.1,2.96,0,1.68-.62,2.99-1.87,3.94-1.22,.95-2.79,1.43-4.69,1.43-3.01,0-5.34-1.09-6.97-3.26Z"/>
    </g>
    <g>
      <path class="cls-4" d="M526.83,239.16v5.47h-4.03v5.18h-6.48v-5.18h-15.74v-1.73l9.79-24.77h6.67l-8.4,21.02h7.68v-8.88h6.48v8.88h4.03Z"/>
      <path class="cls-4" d="M530.19,233.74c0-4.86,1.07-8.77,3.22-11.71,2.14-2.98,5.26-4.46,9.36-4.46s7.2,1.49,9.31,4.46c2.14,2.94,3.22,6.85,3.22,11.71s-1.09,8.9-3.26,12c-2.18,3.1-5.26,4.66-9.26,4.66s-7.14-1.55-9.31-4.66c-2.18-3.1-3.26-7.1-3.26-12Zm18.43,.05c0-6.82-1.95-10.22-5.86-10.22s-5.9,3.41-5.9,10.22,1.97,10.61,5.9,10.61,5.86-3.54,5.86-10.61Z"/>
      <path class="cls-4" d="M466.84,272.6c-.07-3.22,1.08-5.97,3.45-8.26,2.37-2.29,5.22-3.41,8.55-3.37,4.01,0,7.16,1.62,9.45,4.86l-3.26,2.69c-1.59-2.2-3.67-3.3-6.26-3.3-2.13,0-3.86,.69-5.2,2.07-1.34,1.38-2.01,3.15-2.01,5.3s.69,4,2.07,5.41c1.38,1.41,3.18,2.11,5.41,2.11,2.61,0,4.58-.93,5.92-2.79v-1.84h-6.19v-3.98h10.78v6.63c-1.04,1.84-2.5,3.31-4.39,4.42-1.86,1.11-3.97,1.67-6.32,1.67-3.29,.07-6.12-1.05-8.5-3.35-2.38-2.3-3.55-5.06-3.5-8.28Z"/>
      <path class="cls-4" d="M508.7,276.95h-11.8c.27,1.07,.82,1.89,1.65,2.47,.83,.58,1.85,.87,3.08,.87,1.65,0,3.22-.57,4.69-1.7l1.9,3.13c-2.02,1.68-4.26,2.52-6.73,2.52-2.58,.04-4.78-.8-6.58-2.53-1.8-1.73-2.68-3.83-2.63-6.27-.05-2.43,.8-4.51,2.55-6.26s3.83-2.6,6.26-2.55c2.31,0,4.21,.75,5.7,2.24,1.48,1.5,2.23,3.35,2.23,5.58,0,.82-.1,1.65-.31,2.52Zm-11.8-3.23h7.65c-.02-1.02-.38-1.84-1.07-2.46-.69-.62-1.55-.94-2.57-.94s-1.82,.31-2.55,.92c-.73,.61-1.21,1.44-1.46,2.48Z"/>
      <path class="cls-4" d="M522.91,266.99v4.05h-1.22c-1.41,0-2.51,.37-3.31,1.12-.81,.75-1.21,1.84-1.21,3.26v8.4h-4.59v-16.83h4.22v2.01c1.18-1.47,2.72-2.21,4.62-2.21,.57,0,1.06,.07,1.5,.2Z"/>
      <path class="cls-4" d="M551.71,273.38v10.44h-4.59v-9.79c0-1-.27-1.79-.82-2.38s-1.27-.88-2.18-.88-1.65,.29-2.23,.88c-.58,.59-.87,1.35-.87,2.28v9.89h-4.59v-9.79c0-1-.27-1.79-.82-2.38s-1.27-.88-2.18-.88-1.68,.29-2.24,.88-.85,1.38-.85,2.38v9.79h-4.59v-16.83h4.22v1.5c1.18-1.25,2.77-1.87,4.76-1.87,2.2,0,3.86,.81,5,2.41,1.43-1.61,3.3-2.41,5.61-2.41,1.95,0,3.5,.61,4.64,1.84,1.14,1.22,1.72,2.87,1.72,4.93Z"/>
      <path class="cls-4" d="M570.2,273.82v10h-4.22v-1.63c-1.31,1.36-3.03,2.04-5.13,2.04-1.77,0-3.18-.46-4.23-1.39-1.05-.93-1.58-2.14-1.58-3.64s.57-2.71,1.72-3.59,2.69-1.31,4.64-1.31h4.22v-.75c0-.95-.27-1.68-.8-2.19-.53-.51-1.31-.77-2.33-.77-.84,0-1.6,.18-2.28,.54-.68,.36-1.41,.95-2.18,1.77l-2.38-2.82c1.95-2.31,4.4-3.47,7.34-3.47,2.22,0,3.98,.63,5.27,1.89,1.29,1.26,1.94,3.03,1.94,5.32Zm-4.59,3.71v-.2h-3.6c-1.56,0-2.35,.57-2.35,1.7,0,.57,.22,1.01,.66,1.34,.44,.33,1.02,.49,1.75,.49,1.02,0,1.86-.31,2.53-.94,.67-.62,1-1.42,1-2.4Z"/>
      <path class="cls-4" d="M590.09,273.38v10.44h-4.56v-9.83c0-.97-.29-1.76-.87-2.36-.58-.6-1.33-.9-2.26-.9s-1.69,.3-2.29,.9c-.6,.6-.9,1.39-.9,2.36v9.83h-4.59v-16.83h4.22v1.53c1.27-1.27,2.91-1.9,4.93-1.9s3.49,.61,4.62,1.84c1.13,1.22,1.7,2.87,1.7,4.93Z"/>
      <path class="cls-4" d="M440.73,306.6c-.05-3.22,1.12-5.98,3.5-8.28,2.38-2.3,5.2-3.42,8.47-3.35,2.13,0,4.06,.49,5.8,1.48,1.73,.99,3.1,2.35,4.1,4.1l-3.47,2.45c-1.61-2.52-3.75-3.77-6.43-3.77-2.09,0-3.81,.7-5.18,2.11-1.37,1.41-2.06,3.17-2.06,5.3s.69,3.89,2.06,5.27c1.37,1.38,3.1,2.07,5.18,2.07,2.67,0,4.82-1.26,6.43-3.77l3.47,2.45c-.97,1.75-2.33,3.11-4.08,4.1-1.75,.99-3.69,1.48-5.85,1.48-3.29,.07-6.11-1.05-8.48-3.35-2.37-2.3-3.52-5.06-3.45-8.28Z"/>
      <path class="cls-4" d="M464.91,309.38c-.05-2.4,.83-4.48,2.62-6.22,1.79-1.75,3.92-2.6,6.39-2.55,2.47-.04,4.61,.81,6.41,2.55,1.8,1.75,2.68,3.82,2.63,6.22,.05,2.4-.84,4.48-2.65,6.24-1.81,1.76-3.96,2.61-6.43,2.57-2.47,.04-4.6-.81-6.38-2.57-1.78-1.76-2.65-3.84-2.6-6.24Zm12.12,3.3c.83-.86,1.24-1.95,1.24-3.26s-.41-2.41-1.24-3.3c-.83-.88-1.86-1.33-3.11-1.33s-2.31,.44-3.13,1.31-1.22,1.98-1.22,3.31,.41,2.4,1.22,3.26,1.86,1.29,3.13,1.29,2.28-.43,3.11-1.29Z"/>
      <path class="cls-4" d="M512.47,307.38v10.44h-4.59v-9.79c0-1-.27-1.79-.82-2.38s-1.27-.88-2.18-.88-1.65,.29-2.23,.88c-.58,.59-.87,1.35-.87,2.28v9.89h-4.59v-9.79c0-1-.27-1.79-.82-2.38s-1.27-.88-2.18-.88-1.68,.29-2.24,.88-.85,1.38-.85,2.38v9.79h-4.59v-16.83h4.22v1.5c1.18-1.25,2.77-1.87,4.76-1.87,2.2,0,3.86,.81,5,2.41,1.43-1.61,3.3-2.41,5.61-2.41,1.95,0,3.5,.61,4.64,1.84,1.14,1.22,1.72,2.87,1.72,4.93Z"/>
      <path class="cls-4" d="M532.31,303.11c1.55,1.67,2.33,3.76,2.33,6.27s-.78,4.62-2.33,6.31c-1.55,1.69-3.5,2.53-5.83,2.53-2.11,0-3.79-.68-5.03-2.04v7.75h-4.59v-22.95h4.22v2.11c1.16-1.65,2.96-2.48,5.41-2.48s4.28,.83,5.83,2.5Zm-2.33,6.31c0-1.38-.41-2.5-1.22-3.37-.82-.86-1.86-1.29-3.13-1.29s-2.24,.41-3.04,1.22-1.21,1.95-1.21,3.4,.4,2.59,1.21,3.42c.8,.83,1.82,1.24,3.04,1.24s2.28-.43,3.11-1.29c.83-.86,1.24-1.97,1.24-3.33Z"/>
      <path class="cls-4" d="M552.35,307.82v10h-4.22v-1.63c-1.31,1.36-3.03,2.04-5.13,2.04-1.77,0-3.18-.46-4.23-1.39-1.05-.93-1.58-2.14-1.58-3.64s.57-2.71,1.72-3.59,2.69-1.31,4.64-1.31h4.22v-.75c0-.95-.27-1.68-.8-2.19-.53-.51-1.31-.77-2.33-.77-.84,0-1.6,.18-2.28,.54-.68,.36-1.41,.95-2.18,1.77l-2.38-2.82c1.95-2.31,4.4-3.47,7.34-3.47,2.22,0,3.98,.63,5.27,1.89,1.29,1.26,1.94,3.03,1.94,5.32Zm-4.59,3.71v-.2h-3.6c-1.56,0-2.35,.57-2.35,1.7,0,.57,.22,1.01,.66,1.34,.44,.33,1.02,.49,1.75,.49,1.02,0,1.86-.31,2.53-.94,.67-.62,1-1.42,1-2.4Z"/>
      <path class="cls-4" d="M572.24,307.38v10.44h-4.56v-9.83c0-.97-.29-1.76-.87-2.36-.58-.6-1.33-.9-2.26-.9s-1.69,.3-2.29,.9c-.6,.6-.9,1.39-.9,2.36v9.83h-4.59v-16.83h4.22v1.53c1.27-1.27,2.91-1.9,4.93-1.9s3.49,.61,4.62,1.84c1.13,1.22,1.7,2.87,1.7,4.93Z"/>
      <path class="cls-4" d="M576.02,294.87c0-.82,.28-1.5,.85-2.04,.57-.54,1.26-.82,2.07-.82s1.51,.27,2.09,.82c.58,.54,.87,1.22,.87,2.04s-.29,1.46-.87,2.01-1.27,.82-2.09,.82-1.51-.27-2.07-.82c-.57-.54-.85-1.21-.85-2.01Zm.65,22.95v-16.83h4.59v16.83h-4.59Z"/>
      <path class="cls-4" d="M601.28,310.95h-11.8c.27,1.07,.82,1.89,1.65,2.47,.83,.58,1.85,.87,3.08,.87,1.65,0,3.22-.57,4.69-1.7l1.9,3.13c-2.02,1.68-4.26,2.52-6.73,2.52-2.58,.04-4.78-.8-6.58-2.53-1.8-1.73-2.68-3.83-2.63-6.27-.05-2.43,.8-4.51,2.55-6.26s3.83-2.6,6.26-2.55c2.31,0,4.21,.75,5.7,2.24,1.48,1.5,2.23,3.35,2.23,5.58,0,.82-.1,1.65-.31,2.52Zm-11.8-3.23h7.65c-.02-1.02-.38-1.84-1.07-2.46-.69-.62-1.55-.94-2.57-.94s-1.82,.31-2.55,.92c-.73,.61-1.21,1.44-1.46,2.48Z"/>
      <path class="cls-4" d="M603.62,314.96l2.31-2.79c1.45,1.52,3.03,2.28,4.73,2.28,.63,0,1.15-.12,1.55-.36,.4-.24,.6-.58,.6-1.04,0-.34-.12-.61-.36-.8-.24-.19-.7-.44-1.38-.73l-1.8-.75c-1.61-.66-2.78-1.38-3.5-2.16-.73-.78-1.09-1.77-1.09-2.98,0-1.56,.57-2.79,1.7-3.69,1.13-.9,2.63-1.34,4.49-1.34,2.49,0,4.51,.84,6.05,2.52l-2.31,2.82c-1.13-1.06-2.39-1.6-3.77-1.6-1.2,0-1.8,.4-1.8,1.19,0,.32,.12,.58,.37,.78,.25,.2,.71,.44,1.39,.71l1.63,.68c1.68,.68,2.88,1.41,3.62,2.18,.74,.77,1.1,1.76,1.1,2.96,0,1.68-.62,2.99-1.87,3.94-1.22,.95-2.79,1.43-4.69,1.43-3.01,0-5.34-1.09-6.97-3.26Z"/>
    </g>
    <g>
      <path class="cls-4" d="M831.9,218.14h22.27v1.73l-14.5,29.95h-7.06l12.86-25.82h-13.58v-5.86Z"/>
      <path class="cls-4" d="M856.52,233.74c0-4.86,1.07-8.77,3.22-11.71,2.14-2.98,5.26-4.46,9.36-4.46s7.2,1.49,9.31,4.46c2.14,2.94,3.22,6.85,3.22,11.71s-1.09,8.9-3.26,12c-2.18,3.1-5.26,4.66-9.26,4.66s-7.14-1.55-9.31-4.66c-2.18-3.1-3.26-7.1-3.26-12Zm18.43,.05c0-6.82-1.95-10.22-5.86-10.22s-5.9,3.41-5.9,10.22,1.97,10.61,5.9,10.61,5.86-3.54,5.86-10.61Z"/>
      <path class="cls-4" d="M890.84,231.05c-1.6-1.54-2.4-3.41-2.4-5.62s.8-4.07,2.4-5.59c1.6-1.52,3.54-2.28,5.81-2.28s4.16,.76,5.76,2.28c1.6,1.52,2.4,3.38,2.4,5.59s-.8,4.08-2.4,5.62-3.52,2.3-5.76,2.3-4.21-.77-5.81-2.3Zm8.98-5.62c0-.99-.3-1.81-.89-2.45-.59-.64-1.34-.96-2.23-.96-.96,0-1.74,.32-2.33,.96-.59,.64-.89,1.46-.89,2.45s.29,1.86,.86,2.5c.58,.64,1.36,.96,2.35,.96,.9,0,1.64-.32,2.23-.96,.59-.64,.89-1.47,.89-2.5Zm-5.09,24.38l18.19-31.68h5.23l-18.24,31.68h-5.18Zm15.7-1.78c-1.6-1.54-2.4-3.41-2.4-5.62s.8-4.07,2.4-5.59c1.6-1.52,3.52-2.28,5.76-2.28s4.17,.76,5.78,2.28c1.62,1.52,2.42,3.38,2.42,5.59s-.8,4.08-2.4,5.62c-1.6,1.54-3.54,2.3-5.81,2.3s-4.16-.77-5.76-2.3Zm8.04-3.17c.59-.64,.89-1.46,.89-2.45s-.3-1.81-.89-2.45c-.59-.64-1.34-.96-2.23-.96-.99,0-1.78,.31-2.35,.94-.58,.62-.86,1.45-.86,2.47s.29,1.85,.86,2.47,1.36,.94,2.35,.94c.9,0,1.64-.32,2.23-.96Z"/>
      <path class="cls-4" d="M854.64,274.53v-13.16h4.59v13.5c0,1.61,.45,2.86,1.36,3.76,.91,.9,2.1,1.34,3.57,1.34s2.69-.45,3.59-1.34c.9-.9,1.34-2.15,1.34-3.76v-13.5h4.59v13.16c0,2.92-.9,5.27-2.69,7.04s-4.07,2.65-6.83,2.65-5.07-.88-6.85-2.65-2.67-4.11-2.67-7.04Z"/>
      <path class="cls-4" d="M876.91,279.26l3.16-2.38c1.59,2.18,3.42,3.26,5.51,3.26,1,0,1.78-.22,2.35-.66,.57-.44,.85-1.05,.85-1.82,0-.63-.19-1.13-.58-1.48-.39-.35-1.15-.79-2.28-1.31l-2.41-1.09c-3.63-1.61-5.44-3.76-5.44-6.46,0-1.9,.7-3.44,2.11-4.61,1.4-1.17,3.18-1.75,5.34-1.75,1.68,0,3.15,.38,4.42,1.14,1.27,.76,2.27,1.8,2.99,3.11l-3.13,2.41c-1.16-1.72-2.58-2.58-4.28-2.58-.82,0-1.48,.19-2.01,.58-.52,.39-.78,.92-.78,1.6,0,.57,.19,1.03,.56,1.38,.37,.35,1.06,.75,2.06,1.21l2.55,1.12c1.93,.86,3.33,1.8,4.22,2.81,.88,1.01,1.33,2.26,1.33,3.76,0,2.02-.74,3.64-2.21,4.88-1.47,1.24-3.35,1.85-5.64,1.85-1.88,0-3.58-.44-5.08-1.33-1.51-.88-2.7-2.1-3.59-3.64Z"/>
      <path class="cls-4" d="M785.41,306.6c-.05-3.22,1.12-5.98,3.5-8.28,2.38-2.3,5.2-3.42,8.47-3.35,2.13,0,4.06,.49,5.8,1.48,1.73,.99,3.1,2.35,4.1,4.1l-3.47,2.45c-1.61-2.52-3.75-3.77-6.43-3.77-2.09,0-3.81,.7-5.18,2.11-1.37,1.41-2.06,3.17-2.06,5.3s.69,3.89,2.06,5.27c1.37,1.38,3.1,2.07,5.18,2.07,2.67,0,4.82-1.26,6.43-3.77l3.47,2.45c-.97,1.75-2.33,3.11-4.08,4.1-1.75,.99-3.69,1.48-5.85,1.48-3.29,.07-6.11-1.05-8.48-3.35-2.37-2.3-3.52-5.06-3.45-8.28Z"/>
      <path class="cls-4" d="M809.59,309.38c-.05-2.4,.83-4.48,2.62-6.22,1.79-1.75,3.92-2.6,6.39-2.55,2.47-.04,4.61,.81,6.41,2.55,1.8,1.75,2.68,3.82,2.63,6.22,.05,2.4-.84,4.48-2.65,6.24-1.81,1.76-3.96,2.61-6.43,2.57-2.47,.04-4.6-.81-6.38-2.57-1.78-1.76-2.65-3.84-2.6-6.24Zm12.12,3.3c.83-.86,1.24-1.95,1.24-3.26s-.41-2.41-1.24-3.3c-.83-.88-1.86-1.33-3.11-1.33s-2.31,.44-3.13,1.31-1.22,1.98-1.22,3.31,.41,2.4,1.22,3.26,1.86,1.29,3.13,1.29,2.28-.43,3.11-1.29Z"/>
      <path class="cls-4" d="M857.15,307.38v10.44h-4.59v-9.79c0-1-.27-1.79-.82-2.38s-1.27-.88-2.18-.88-1.65,.29-2.23,.88c-.58,.59-.87,1.35-.87,2.28v9.89h-4.59v-9.79c0-1-.27-1.79-.82-2.38s-1.27-.88-2.18-.88-1.68,.29-2.24,.88-.85,1.38-.85,2.38v9.79h-4.59v-16.83h4.22v1.5c1.18-1.25,2.77-1.87,4.76-1.87,2.2,0,3.86,.81,5,2.41,1.43-1.61,3.3-2.41,5.61-2.41,1.95,0,3.5,.61,4.64,1.84,1.14,1.22,1.72,2.87,1.72,4.93Z"/>
      <path class="cls-4" d="M876.99,303.11c1.55,1.67,2.33,3.76,2.33,6.27s-.78,4.62-2.33,6.31c-1.55,1.69-3.5,2.53-5.83,2.53-2.11,0-3.79-.68-5.03-2.04v7.75h-4.59v-22.95h4.22v2.11c1.16-1.65,2.96-2.48,5.41-2.48s4.28,.83,5.83,2.5Zm-2.33,6.31c0-1.38-.41-2.5-1.22-3.37-.82-.86-1.86-1.29-3.13-1.29s-2.24,.41-3.04,1.22-1.21,1.95-1.21,3.4,.4,2.59,1.21,3.42c.8,.83,1.82,1.24,3.04,1.24s2.28-.43,3.11-1.29c.83-.86,1.24-1.97,1.24-3.33Z"/>
      <path class="cls-4" d="M897.03,307.82v10h-4.22v-1.63c-1.31,1.36-3.03,2.04-5.13,2.04-1.77,0-3.18-.46-4.23-1.39-1.05-.93-1.58-2.14-1.58-3.64s.57-2.71,1.72-3.59,2.69-1.31,4.64-1.31h4.22v-.75c0-.95-.27-1.68-.8-2.19-.53-.51-1.31-.77-2.33-.77-.84,0-1.6,.18-2.28,.54-.68,.36-1.41,.95-2.18,1.77l-2.38-2.82c1.95-2.31,4.4-3.47,7.34-3.47,2.22,0,3.98,.63,5.27,1.89,1.29,1.26,1.94,3.03,1.94,5.32Zm-4.59,3.71v-.2h-3.6c-1.56,0-2.35,.57-2.35,1.7,0,.57,.22,1.01,.66,1.34,.44,.33,1.02,.49,1.75,.49,1.02,0,1.86-.31,2.53-.94,.67-.62,1-1.42,1-2.4Z"/>
      <path class="cls-4" d="M916.92,307.38v10.44h-4.56v-9.83c0-.97-.29-1.76-.87-2.36-.58-.6-1.33-.9-2.26-.9s-1.69,.3-2.29,.9c-.6,.6-.9,1.39-.9,2.36v9.83h-4.59v-16.83h4.22v1.53c1.27-1.27,2.91-1.9,4.93-1.9s3.49,.61,4.62,1.84c1.13,1.22,1.7,2.87,1.7,4.93Z"/>
      <path class="cls-4" d="M920.7,294.87c0-.82,.28-1.5,.85-2.04,.57-.54,1.26-.82,2.07-.82s1.51,.27,2.09,.82c.58,.54,.87,1.22,.87,2.04s-.29,1.46-.87,2.01-1.27,.82-2.09,.82-1.51-.27-2.07-.82c-.57-.54-.85-1.21-.85-2.01Zm.65,22.95v-16.83h4.59v16.83h-4.59Z"/>
      <path class="cls-4" d="M945.96,310.95h-11.8c.27,1.07,.82,1.89,1.65,2.47,.83,.58,1.85,.87,3.08,.87,1.65,0,3.22-.57,4.69-1.7l1.9,3.13c-2.02,1.68-4.26,2.52-6.73,2.52-2.58,.04-4.78-.8-6.58-2.53-1.8-1.73-2.68-3.83-2.63-6.27-.05-2.43,.8-4.51,2.55-6.26s3.83-2.6,6.26-2.55c2.31,0,4.21,.75,5.7,2.24,1.48,1.5,2.23,3.35,2.23,5.58,0,.82-.1,1.65-.31,2.52Zm-11.8-3.23h7.65c-.02-1.02-.38-1.84-1.07-2.46-.69-.62-1.55-.94-2.57-.94s-1.82,.31-2.55,.92c-.73,.61-1.21,1.44-1.46,2.48Z"/>
      <path class="cls-4" d="M948.31,314.96l2.31-2.79c1.45,1.52,3.03,2.28,4.73,2.28,.63,0,1.15-.12,1.55-.36,.4-.24,.6-.58,.6-1.04,0-.34-.12-.61-.36-.8-.24-.19-.7-.44-1.38-.73l-1.8-.75c-1.61-.66-2.78-1.38-3.5-2.16-.73-.78-1.09-1.77-1.09-2.98,0-1.56,.57-2.79,1.7-3.69,1.13-.9,2.63-1.34,4.49-1.34,2.49,0,4.51,.84,6.05,2.52l-2.31,2.82c-1.13-1.06-2.39-1.6-3.77-1.6-1.2,0-1.8,.4-1.8,1.19,0,.32,.12,.58,.37,.78,.25,.2,.71,.44,1.39,.71l1.63,.68c1.68,.68,2.88,1.41,3.62,2.18,.74,.77,1.11,1.76,1.11,2.96,0,1.68-.62,2.99-1.87,3.94-1.22,.95-2.79,1.43-4.69,1.43-3.01,0-5.34-1.09-6.97-3.26Z"/>
    </g>
  </g>
</svg>