<?xml version="1.0" encoding="UTF-8"?>
<svg id="Ebene_2" data-name="Ebene 2" xmlns="http://www.w3.org/2000/svg" viewBox="0 0 767.49 875.01">
  <defs>
    <style>
      .cls-1 {
        fill: #ff6b35;
      }
    </style>
  </defs>
  <g id="Ebene_1-2" data-name="Ebene 1">
    <path class="cls-1" d="M280.14,544.4c6.1-2.3,8.2-5.3,8.1-12.9-.4-53.5,.3-106.8-.3-160.3-.4-41.7-6.1-82.1-21.7-120.5-17-41.8-42.4-73.2-82.5-81.9-25.3-5.5-52.1-4.7-78-2.7-44.2,3.5-77.2,28.3-94.4,76.3C3.14,265.4,.84,289.9,.14,314.6c-1.3,50.1,6.3,98.4,21.9,145.3,15.7,47,31.5,93.9,47.3,141.2,12.7-3.2,22.9-5.5,33.2-8.2,59.4-15.8,119.7-26.5,177.6-48.5ZM763.94,110.9c-7.4-55-38.2-94.3-84.8-105.8-27.1-6.7-54.7-5.7-82.2-3.2-26.2,2.4-48,15.5-66.2,36-29.8,33.5-43.3,76.4-47.8,122.3-3.9,40.1-3.5,80.7-5.1,121l1.4,.1v88.4c0,4.4-.1,8.1,4.8,9.6,17.4,5.7,34.5,12.9,52.1,17.4,50.2,13.1,100.6,25.1,150.9,38.1,7.3,1.8,10.7,.3,13.3-7.5,15.7-46.4,32.3-92.3,47.3-139,18.5-57.4,24.4-116.5,16.3-177.4h0ZM305.64,629.3c-2.4-6.3-5.3-11.9-10.9-10.9-39.4,7.2-79.1,15.8-117.5,29.1-26.3,9.1-52.9,16.5-80.5,25,11.8,42.9,23,84.4,40.4,123.4,19.8,44.3,51,70.7,93.7,77.4,38.1,6,64.3-2.5,89.3-47.2,19-34,17.8-70.6,13.3-107.9-3.8-31.6-17-59.7-27.8-88.9h0Zm185.8-167.8c-8.4-1-18.6-6.2-24.8-2.5-6,3.6-7.9,16.1-11.6,24.7-16.8,38.3-25.3,78.5-23.5,121.6,1.3,31.8,12.8,58.3,31.9,80.1,8.3,9.5,19.4,18.5,30.5,21.5,46.4,13,91-3.6,121.9-48.9,29.5-43.2,40.1-96.9,55.1-149.2-7.1-2.2-13-4.1-19.1-6-53-15.9-105.4-35.1-160.4-41.3h0Z"/>
  </g>
</svg>