<?xml version="1.0" encoding="UTF-8"?>
<svg id="Ebene_2" data-name="Ebene 2" xmlns="http://www.w3.org/2000/svg" viewBox="0 0 875.2 858.86">
  <defs>
    <style>
      .cls-1 {
        fill: #ff6b35;
      }
    </style>
  </defs>
  <g id="Ebene_1-2" data-name="Ebene 1">
    <path class="cls-1" d="M873.3,491.8c-6.2-38-24.3-70.3-44.4-102.1-13.5-21.4-24.9-43.9-37.2-66-3.8-6.7-2.6-11.3,4.2-16.3,20-14.8,34.7-34.1,43.6-57.2,22.1-58.2,24.2-118.2,12.7-178.7-3.2-17-10.6-33.7-18.6-49.2-7.3-13.9-20.3-23.8-36.9-22.1-12.3,1.3-24.7,5.7-35.9,11-61.3,29-112.6,71.5-160.4,118.7-5.6,5.6-10.2,8.6-19.4,7.2-22.4-3.3-45.3-6-67.9-5.7-72.9,1-145.8,3.5-218.8,4.9-6,.1-13.3-2.3-17.9-6.1-19.7-16.6-37.9-35.1-57.9-51.4C183,50,146.4,22.6,103.3,5.9c-36.1-14.1-53.3-2-68.5,26.5-4.7,8.8-7.4,18.8-10,28.6-11.4,43.2-10.9,87.2-4.8,130.9,6,43.1,19.4,83.5,55.1,111.6,10.7,8.4,11.5,15.5,6,25.1-14,24.6-28,49.3-43,73.2C17.4,434.7,1.3,469.1,0,502.9c0,41,9.2,57.2,40.7,72.1,18.2,8.7,37.4,15.4,56.5,21.9,67.9,23,134.5,48.6,189.5,96.5,5.4,4.7,9.7,12.7,11,19.9,7.3,38.6,22.2,73.4,47.9,103.3,45.9,53.4,118.7,56.4,169.5,7.8,30.5-29.2,46.6-65.5,55.4-105.9,1.4-6.5,3.7-14.8,8.5-18.1,31.1-21.6,61.2-45.9,95-62,49.3-23.2,101.6-39.6,152.3-59.9,41.4-16.4,54.2-42.6,47-86.7h0ZM179.3,232.1c-29-6.3-51.7-22.7-68.9-46.6-26.5-36.8-32.8-79.3-32.1-123.8,42.5,41.3,83.1,83.6,115.4,133,2.5,3.8,5.3,7.8,6.2,12.1,1.6,8,1.8,16.2,2.5,24.3-7.6,.5-15.7,2.7-23.1,1h0Zm155.1,281.7c-12.2,6.2-25.8,10.9-39.6,12.4-21.6,2.5-44.3-5.3-65.9-6.9-2.5-.2-6.9-2.1-7.2-3.9-2.6-15.8-5.6-31.6-6.3-47.5-.4-8.6,6.4-13.4,15.8-12.2,36.3,4.9,71.5,13.8,103.4,32.6,14.7,8.8,15,17.8-.2,25.5h0Zm155.5,262.6c-2.4,26.2-14.9,46.7-39.1,58.9-14.4,7.2-27.7,4.3-39.9-4.4-19.3-13.7-29.6-33.3-32-56.3-1.5-13.7,4.1-25.5,19.3-28.4,12.3-2.5,24.9-3.1,37.5-4.6l.2,.8c9.1,.5,18.3,.4,27.3,1.6,21,2.9,28.7,11.2,26.7,32.4h0Zm162.7-290.6c-3.4,31.5-5.7,25.8-35.4,34.7-13.9,4.2-30.2,7.5-44.7,5.8-14.2-1.7-28.3-6.7-40.6-13.3-14.3-7.7-13.4-17.6,1.8-25.3,16.6-8.4,34-15.5,51.7-21.2,15.8-5,32.4-7.7,48.7-10.6,12.1-2.1,17.9,4.4,18.6,16.1,.2,4.7,.3,9.3-.1,13.8Zm60.4-264.4c-12.1,5.9-25.4,10.2-38.6,12.1-14.7,2.1-19.8-4.6-13.4-17.9,8.3-17.2,17.8-34.3,29.8-49,29.8-36.3,61.2-71.2,91.9-106.8,8,58.2-15,134.9-69.7,161.6h0Z"/>
  </g>
</svg>