<?xml version="1.0" encoding="UTF-8"?>
<svg id="Ebene_2" data-name="Ebene 2" xmlns="http://www.w3.org/2000/svg" viewBox="0 0 625.17 479.85">
  <defs>
    <style>
      .cls-1 {
        stroke-miterlimit: 10;
      }

      .cls-1, .cls-2 {
        fill: none;
        stroke: #000;
        stroke-width: 4px;
      }

      .cls-3 {
        fill: #fff;
      }

      .cls-2 {
        stroke-linecap: round;
        stroke-linejoin: round;
      }

      .cls-4 {
        fill: #253c78;
      }
    </style>
  </defs>
  <g id="Ebene_1-2" data-name="Ebene 1">
    <g>
      <path class="cls-1" d="M118.98,124.97c4.09-13.84,18.42-55.82,60.89-86.74,27.42-19.97,55.21-27.05,73.33-29.67"/>
      <polygon points="251.59 17.84 266.05 7.21 249.61 0 251.59 17.84"/>
    </g>
    <g>
      <path class="cls-1" d="M311.94,5.75c14.43,.12,58.74,2.33,100.17,34.63,26.75,20.86,41.22,45.62,48.73,62.31"/>
      <polygon points="451.47 103.69 465.68 114.66 468.07 96.87 451.47 103.69"/>
    </g>
    <g>
      <path class="cls-1" d="M478.86,150.79c4.82,13.6,17.89,55.99,1.7,105.97-10.46,32.27-28.78,54.33-41.89,67.1"/>
      <polygon points="434.51 315.39 429.06 332.49 446.6 328.66 434.51 315.39"/>
    </g>
    <g>
      <path class="cls-1" d="M394.24,362.08c-11.61,8.57-48.36,33.41-100.89,32.47-33.92-.61-60.36-11.72-76.39-20.55"/>
      <polygon points="223.85 367.56 205.91 367.32 214.67 382.99 223.85 367.56"/>
    </g>
    <g>
      <path class="cls-2" d="M166.4,338.91c-11.68-8.48-46.44-36.03-61.38-86.4-9.65-32.52-7.03-61.08-3.44-79.03"/>
      <polygon points="109.79 178.11 104.6 160.93 92.31 174.01 109.79 178.11"/>
    </g>
    <circle class="cls-4" cx="292.75" cy="195.44" r="175.21"/>
    <rect class="cls-3" x="290.09" y="11.34" width="12.55" height="189.57"/>
    <rect class="cls-3" x="385.31" y="67.62" width="12.55" height="189.57" transform="translate(425.04 -260.2) rotate(72)"/>
    <rect class="cls-3" x="208.76" y="72.65" width="12.55" height="189.57" transform="translate(440.73 14.67) rotate(108)"/>
    <rect class="cls-3" x="235.38" y="173.27" width="12.55" height="189.57" transform="translate(279.61 626.97) rotate(-144)"/>
    <rect class="cls-3" x="344.6" y="173.27" width="12.55" height="189.57" transform="translate(-90.55 257.44) rotate(-36)"/>
    <g>
      <path class="cls-3" d="M191.65,84.58c0,.34,.08,.62,.23,.86,.15,.24,.36,.45,.64,.62,.27,.18,.6,.34,.97,.49,.38,.15,.8,.31,1.26,.47,.58,.21,1.15,.44,1.72,.71,.57,.26,1.08,.59,1.54,.98s.83,.88,1.12,1.45c.29,.58,.43,1.27,.43,2.09,0,.86-.16,1.59-.47,2.18-.31,.59-.73,1.07-1.26,1.43s-1.14,.62-1.82,.78c-.69,.16-1.4,.24-2.14,.24-1.06,0-2.04-.13-2.96-.38-.92-.26-1.71-.57-2.36-.94l.72-2.59c.61,.46,1.28,.85,2.03,1.15,.74,.3,1.6,.46,2.56,.46,1.02,0,1.77-.18,2.23-.54,.46-.36,.7-.84,.7-1.45,0-.46-.11-.86-.34-1.19-.22-.33-.5-.61-.84-.84-.34-.23-.69-.42-1.07-.56s-.71-.26-1-.36c-.51-.16-1.03-.35-1.56-.58-.53-.22-1.02-.52-1.46-.88-.45-.36-.81-.81-1.09-1.36-.28-.54-.42-1.22-.42-2.04,0-.77,.13-1.42,.4-1.94,.26-.53,.62-.96,1.08-1.28,.46-.33,.99-.56,1.61-.71s1.28-.22,2-.22c.88,0,1.73,.09,2.56,.26,.82,.18,1.52,.39,2.08,.65l-.65,2.54c-.29-.19-.6-.36-.94-.5s-.68-.26-1.04-.36c-.36-.1-.72-.17-1.08-.23-.36-.06-.7-.08-1.02-.08-.72,0-1.29,.14-1.7,.41-.42,.27-.62,.69-.62,1.25Z"/>
      <path class="cls-3" d="M208.19,85.2c.86,0,1.61,.16,2.23,.49,.62,.33,1.14,.76,1.55,1.31,.41,.54,.71,1.17,.9,1.88,.19,.71,.29,1.45,.29,2.22s-.1,1.53-.3,2.23c-.2,.7-.51,1.32-.92,1.85s-.94,.94-1.56,1.25-1.37,.46-2.23,.46c-.72,0-1.39-.1-2-.31-.62-.21-1.11-.54-1.48-1.01v7.27h-2.62v-17.28h2.11l.19,1.51h.1c.21-.26,.46-.5,.74-.73s.6-.43,.94-.6,.68-.3,1.03-.4c.35-.1,.7-.14,1.03-.14Zm-.43,2.02c-.24,0-.5,.04-.79,.11-.29,.07-.57,.18-.85,.31-.28,.14-.55,.3-.8,.49-.26,.19-.47,.41-.65,.65v4.68c.48,.59,.97,.96,1.48,1.12s.96,.23,1.38,.23c.53,0,.98-.1,1.36-.29,.38-.19,.69-.45,.94-.78,.25-.33,.43-.71,.55-1.15,.12-.44,.18-.92,.18-1.43,0-.48-.05-.96-.16-1.43-.1-.47-.27-.89-.5-1.26-.23-.37-.52-.67-.88-.9-.35-.23-.77-.35-1.25-.35Z"/>
      <path class="cls-3" d="M222.56,96.6l-.19-1.51h-.1c-.43,.54-1.02,.98-1.76,1.31s-1.5,.49-2.27,.49c-1.01,0-1.8-.29-2.38-.88s-.86-1.36-.86-2.32c0-.66,.14-1.24,.42-1.76,.28-.52,.68-.96,1.21-1.32,.53-.36,1.16-.64,1.9-.83s1.56-.29,2.47-.29h1.03v-.36c0-.62-.2-1.08-.6-1.37-.42-.29-1.06-.43-1.94-.43-1.18,0-2.24,.26-3.17,.79l-.5-1.99c1.07-.62,2.37-.94,3.89-.94,1.6,0,2.82,.33,3.65,.98,.38,.3,.7,.7,.95,1.18,.25,.48,.37,1.06,.37,1.73v7.51h-2.11Zm-5.35-14.69c0-.37,.14-.7,.41-.98,.27-.29,.59-.43,.96-.43s.7,.14,.98,.43,.43,.62,.43,.98-.14,.69-.43,.96c-.29,.27-.62,.41-.98,.41s-.69-.14-.96-.41c-.27-.27-.41-.59-.41-.96Zm2.06,12.84c.51,0,1.02-.12,1.54-.37,.51-.25,.92-.58,1.22-1v-2.18h-.46c-1.31,0-2.27,.17-2.87,.5-.6,.34-.9,.87-.9,1.61,0,.96,.49,1.44,1.46,1.44Zm1.2-12.84c0-.37,.14-.7,.41-.98,.27-.29,.59-.43,.96-.43s.7,.14,.98,.43,.43,.62,.43,.98-.14,.69-.43,.96c-.29,.27-.62,.41-.98,.41s-.69-.14-.96-.41c-.27-.27-.41-.59-.41-.96Z"/>
      <path class="cls-3" d="M228.27,87.17h-1.37v-1.44l1.56-.24,.43-3.26h2.02v3.34h2.11v1.61h-2.11v6.34c0,.48,.05,.8,.14,.97,.1,.17,.28,.25,.55,.25,.21,0,.42-.04,.62-.12,.21-.08,.51-.23,.91-.46l.43,1.9c-.3,.26-.73,.46-1.28,.61-.55,.15-1.1,.23-1.64,.23-.48,0-.88-.06-1.19-.19-.31-.13-.56-.32-.73-.56-.18-.25-.3-.55-.36-.9-.06-.35-.1-.74-.1-1.18v-6.89Z"/>
      <path class="cls-3" d="M240.75,85.2c1.41,0,2.5,.36,3.26,1.07,.77,.71,1.15,1.72,1.15,3.01,0,.18-.01,.36-.04,.56-.02,.2-.06,.4-.1,.59s-.09,.36-.14,.52c-.06,.15-.12,.28-.18,.37h-6.98c.03,.48,.12,.93,.26,1.36,.14,.42,.35,.79,.62,1.1,.27,.31,.6,.56,1,.74,.39,.18,.85,.28,1.38,.28,.59,0,1.22-.11,1.88-.34,.66-.22,1.23-.5,1.69-.84l.43,1.97c-.21,.13-.46,.27-.77,.42s-.65,.29-1.03,.42c-.38,.13-.8,.24-1.24,.32s-.9,.13-1.38,.13c-.9,0-1.69-.16-2.38-.47-.69-.31-1.26-.74-1.73-1.27-.46-.54-.82-1.16-1.06-1.86s-.36-1.44-.36-2.21,.12-1.53,.37-2.24c.25-.71,.61-1.34,1.09-1.88,.48-.54,1.08-.97,1.79-1.28,.71-.31,1.52-.47,2.44-.47Zm-.07,2.06c-.67,0-1.24,.2-1.72,.59-.47,.39-.81,.92-1.02,1.6h4.58s.03-.1,.04-.17c0-.06,.01-.14,.01-.24,0-.51-.18-.94-.53-1.27s-.81-.5-1.37-.5Z"/>
      <path class="cls-3" d="M251.22,87.17c-.53,0-.94,.1-1.24,.3-.3,.2-.44,.48-.44,.85,0,.24,.08,.46,.25,.66,.17,.2,.52,.36,1.07,.49l1.7,.38c.67,.14,1.21,.35,1.62,.62,.41,.27,.73,.57,.96,.89,.23,.32,.39,.65,.47,.98s.12,.65,.12,.94c0,.51-.1,.99-.31,1.43s-.5,.82-.89,1.14c-.38,.32-.85,.57-1.39,.76-.54,.18-1.15,.28-1.82,.28-.85,0-1.63-.12-2.35-.37-.72-.25-1.3-.52-1.73-.83l.62-2.28c.54,.53,1.16,.92,1.84,1.18,.68,.26,1.31,.38,1.88,.38,.61,0,1.07-.13,1.39-.4,.32-.26,.48-.63,.48-1.09,0-.27-.08-.5-.24-.68-.16-.18-.48-.34-.96-.47l-2.3-.58c-.54-.13-.99-.31-1.33-.55-.34-.24-.62-.51-.82-.8-.2-.3-.34-.6-.41-.92-.07-.32-.11-.62-.11-.91,0-1.07,.38-1.9,1.13-2.48s1.73-.88,2.93-.88c.62,0,1.3,.08,2.02,.25,.72,.17,1.33,.41,1.82,.73l-.7,2.16c-.32-.26-.77-.52-1.34-.78-.58-.26-1.22-.4-1.92-.4Z"/>
      <path class="cls-3" d="M184.98,125.4h-2.28l-4.32-12.05-4.3,12.05h-2.28l-5.9-15.84h3l4.06,12.29,4.08-12.29h2.71l4.06,12.29,4.06-12.29h3l-5.88,15.84Z"/>
      <path class="cls-3" d="M198.27,125.4l-.19-1.51h-.1c-.43,.54-1.02,.98-1.76,1.31s-1.5,.49-2.27,.49c-1.01,0-1.8-.29-2.38-.88s-.86-1.36-.86-2.32c0-.66,.14-1.24,.42-1.76,.28-.52,.68-.96,1.21-1.32,.53-.36,1.16-.64,1.9-.83s1.56-.29,2.47-.29h1.03v-.36c0-.62-.2-1.08-.6-1.37-.42-.29-1.06-.43-1.94-.43-1.18,0-2.24,.26-3.17,.79l-.5-1.99c1.07-.62,2.37-.94,3.89-.94,1.6,0,2.82,.33,3.65,.98,.38,.3,.7,.7,.95,1.18,.25,.48,.37,1.06,.37,1.73v7.51h-2.11Zm-3.29-1.85c.51,0,1.02-.12,1.54-.37,.51-.25,.92-.58,1.22-1v-2.18h-.46c-1.31,0-2.27,.17-2.87,.5-.6,.34-.9,.87-.9,1.61,0,.96,.49,1.44,1.46,1.44Z"/>
      <path class="cls-3" d="M212.1,117.1c-.18-.13-.4-.26-.66-.38-.26-.13-.55-.24-.85-.34-.3-.1-.62-.17-.95-.23s-.64-.08-.92-.08c-.54,0-1,.1-1.38,.3-.38,.2-.68,.46-.91,.79-.23,.33-.4,.71-.5,1.14-.1,.43-.16,.88-.16,1.34,0,.54,.06,1.05,.19,1.52,.13,.47,.32,.88,.58,1.24,.25,.35,.58,.63,.97,.84,.39,.21,.84,.31,1.36,.31,.58,0,1.19-.12,1.84-.35,.65-.23,1.19-.56,1.62-.97l.48,2.26c-.45,.29-1.06,.56-1.84,.82-.78,.26-1.6,.38-2.48,.38-.93,0-1.74-.16-2.44-.48-.7-.32-1.27-.75-1.73-1.28-.46-.54-.8-1.16-1.03-1.87-.23-.71-.35-1.47-.35-2.27s.11-1.5,.32-2.2,.56-1.31,1.02-1.85c.46-.54,1.06-.96,1.78-1.27s1.58-.47,2.59-.47c.77,0,1.52,.09,2.26,.26,.74,.18,1.33,.41,1.78,.7l-.58,2.14Z"/>
      <path class="cls-3" d="M217.95,116c.45-.7,.97-1.21,1.57-1.52,.6-.31,1.31-.47,2.12-.47,.48,0,.94,.07,1.39,.2s.84,.36,1.19,.66c.34,.3,.62,.7,.82,1.2,.2,.5,.3,1.1,.3,1.82v7.51h-2.64v-7.3c0-.66-.14-1.15-.43-1.48-.29-.33-.68-.49-1.18-.49-.3,0-.62,.05-.95,.14-.33,.1-.64,.24-.92,.43s-.54,.42-.77,.7c-.22,.27-.39,.58-.5,.91v7.08h-2.64v-17.76h2.64v8.35Z"/>
      <path class="cls-3" d="M231.92,115.97c-.53,0-.94,.1-1.24,.3-.3,.2-.44,.48-.44,.85,0,.24,.08,.46,.25,.66,.17,.2,.52,.36,1.07,.49l1.7,.38c.67,.14,1.21,.35,1.62,.62,.41,.27,.73,.57,.96,.89,.23,.32,.39,.65,.47,.98s.12,.65,.12,.94c0,.51-.1,.99-.31,1.43s-.5,.82-.89,1.14c-.38,.32-.85,.57-1.39,.76-.54,.18-1.15,.28-1.82,.28-.85,0-1.63-.12-2.35-.37-.72-.25-1.3-.52-1.73-.83l.62-2.28c.54,.53,1.16,.92,1.84,1.18,.68,.26,1.31,.38,1.88,.38,.61,0,1.07-.13,1.39-.4,.32-.26,.48-.63,.48-1.09,0-.27-.08-.5-.24-.68-.16-.18-.48-.34-.96-.47l-2.3-.58c-.54-.13-.99-.31-1.33-.55-.34-.24-.62-.51-.82-.8-.2-.3-.34-.6-.41-.92-.07-.32-.11-.62-.11-.91,0-1.07,.38-1.9,1.13-2.48s1.73-.88,2.93-.88c.62,0,1.3,.08,2.02,.25,.72,.17,1.33,.41,1.82,.73l-.7,2.16c-.32-.26-.77-.52-1.34-.78-.58-.26-1.22-.4-1.92-.4Z"/>
      <path class="cls-3" d="M239.46,115.97h-1.37v-1.44l1.56-.24,.43-3.26h2.02v3.34h2.11v1.61h-2.11v6.34c0,.48,.05,.8,.14,.97,.1,.17,.28,.25,.55,.25,.21,0,.42-.04,.62-.12,.21-.08,.51-.23,.91-.46l.43,1.9c-.3,.26-.73,.46-1.28,.61-.55,.15-1.1,.23-1.64,.23-.48,0-.88-.06-1.19-.19-.31-.13-.56-.32-.73-.56-.18-.25-.3-.55-.36-.9-.06-.35-.1-.74-.1-1.18v-6.89Z"/>
      <path class="cls-3" d="M249.46,114.36v7.18c0,.66,.17,1.16,.52,1.5s.79,.52,1.33,.52,1.07-.19,1.54-.56c.46-.38,.81-.92,1.03-1.62v-7.01h2.66v11.04h-2.06l-.14-1.54h-.1c-.18,.37-.4,.67-.67,.9-.27,.23-.57,.42-.9,.55-.33,.14-.67,.23-1.02,.29-.35,.06-.7,.08-1.03,.08-.53,0-1.02-.06-1.48-.19-.46-.13-.86-.34-1.2-.64-.34-.3-.62-.69-.82-1.18-.2-.49-.3-1.09-.3-1.81v-7.51h2.64Z"/>
      <path class="cls-3" d="M267.01,125.4v-7.3c0-1.31-.52-1.97-1.56-1.97-.26,0-.53,.05-.83,.14-.3,.1-.58,.24-.86,.42-.28,.18-.54,.41-.77,.68-.23,.27-.4,.58-.49,.94v7.08h-2.64v-11.04h2.06l.12,1.63h.1c.32-.67,.83-1.17,1.52-1.5,.7-.33,1.44-.49,2.22-.49s1.44,.15,2.05,.44c.62,.3,1.08,.8,1.38,1.52,.32-.66,.82-1.15,1.51-1.48,.69-.33,1.42-.49,2.21-.49,.51,0,1,.07,1.45,.2s.86,.36,1.2,.66c.34,.3,.62,.7,.82,1.2,.2,.5,.3,1.1,.3,1.82v7.51h-2.64v-7.3c0-1.31-.52-1.97-1.56-1.97-.26,0-.53,.05-.83,.14-.3,.1-.58,.24-.86,.42-.28,.18-.54,.41-.77,.68-.23,.27-.4,.58-.49,.94v7.08h-2.64Z"/>
    </g>
    <g>
      <path class="cls-3" d="M331.7,98.68l2.21-2.09,1.25,2.14-2.88,.91,2.88,.91-1.25,2.14-2.23-2.06,.67,2.95h-2.45l.65-2.95-2.21,2.06-1.25-2.14,2.86-.91-2.86-.91,1.25-2.14,2.21,2.09-.65-2.98h2.45l-.65,2.98Z"/>
      <path class="cls-3" d="M350.94,112.55h-3l-1.8-4.61h-5.98l-1.63,4.61h-2.88l6.14-15.84h2.38l6.77,15.84Zm-10.01-6.77h4.34l-2.28-5.83-2.06,5.83Z"/>
      <path class="cls-3" d="M358.41,112.84c-.86,0-1.58-.18-2.15-.53-.57-.35-1.08-.78-1.52-1.27h-.1l-.19,1.51h-2.11v-17.76h2.62v7.82c.37-.46,.86-.82,1.46-1.08,.61-.26,1.3-.38,2.06-.38,.83,0,1.56,.16,2.18,.48,.62,.32,1.14,.74,1.56,1.27s.72,1.14,.92,1.84,.3,1.42,.3,2.17c0,.85-.12,1.63-.36,2.35-.24,.72-.58,1.34-1.02,1.87s-.97,.94-1.6,1.25-1.31,.46-2.06,.46Zm-.34-1.99c.46,0,.87-.11,1.21-.34,.34-.22,.63-.52,.86-.88,.23-.36,.4-.78,.52-1.25,.11-.47,.17-.95,.17-1.43s-.06-.97-.18-1.43-.3-.86-.55-1.21-.56-.63-.94-.83c-.38-.2-.81-.3-1.31-.3-.46,0-.94,.11-1.44,.32-.5,.22-.98,.62-1.46,1.21v4.61c.18,.24,.39,.45,.65,.64,.26,.18,.52,.34,.8,.47,.28,.13,.56,.23,.85,.3s.56,.11,.82,.11Z"/>
      <path class="cls-3" d="M372.25,101.15c.86,0,1.61,.16,2.23,.49,.62,.33,1.14,.76,1.55,1.31,.41,.54,.71,1.17,.9,1.88,.19,.71,.29,1.45,.29,2.22s-.1,1.53-.3,2.23c-.2,.7-.51,1.32-.92,1.85s-.94,.94-1.56,1.25-1.37,.46-2.23,.46c-.72,0-1.39-.1-2-.31-.62-.21-1.11-.54-1.48-1.01v7.27h-2.62v-17.28h2.11l.19,1.51h.1c.21-.26,.46-.5,.74-.73s.6-.43,.94-.6,.68-.3,1.03-.4c.35-.1,.7-.14,1.03-.14Zm-.43,2.02c-.24,0-.5,.04-.79,.11-.29,.07-.57,.18-.85,.31-.28,.14-.55,.3-.8,.49-.26,.19-.47,.41-.65,.65v4.68c.48,.59,.97,.96,1.48,1.12s.96,.23,1.38,.23c.53,0,.98-.1,1.36-.29,.38-.19,.69-.45,.94-.78,.25-.33,.43-.71,.55-1.15,.12-.44,.18-.92,.18-1.43,0-.48-.05-.96-.16-1.43-.1-.47-.27-.89-.5-1.26-.23-.37-.52-.67-.88-.9-.35-.23-.77-.35-1.25-.35Z"/>
      <path class="cls-3" d="M386.22,103.91c-.16-.13-.41-.23-.74-.31-.34-.08-.62-.12-.86-.12-.32,0-.58,.08-.79,.23-.21,.15-.39,.35-.55,.6-.16,.25-.3,.53-.41,.85-.11,.32-.22,.65-.31,.98v6.41h-2.64v-11.04h2.06l.12,2.3h.1c.16-.34,.33-.66,.5-.98,.18-.32,.38-.6,.6-.85,.22-.25,.48-.45,.78-.6,.3-.15,.64-.23,1.04-.23,.64,0,1.24,.21,1.8,.62l-.7,2.14Z"/>
      <path class="cls-3" d="M395.49,112.55l-.19-1.51h-.1c-.43,.54-1.02,.98-1.76,1.31s-1.5,.49-2.27,.49c-1.01,0-1.8-.29-2.38-.88s-.86-1.36-.86-2.32c0-.66,.14-1.24,.42-1.76,.28-.52,.68-.96,1.21-1.32,.53-.36,1.16-.64,1.9-.83s1.56-.29,2.47-.29h1.03v-.36c0-.62-.2-1.08-.6-1.37-.42-.29-1.06-.43-1.94-.43-1.18,0-2.24,.26-3.17,.79l-.5-1.99c1.07-.62,2.37-.94,3.89-.94,1.6,0,2.82,.33,3.65,.98,.38,.3,.7,.7,.95,1.18,.25,.48,.37,1.06,.37,1.73v7.51h-2.11Zm-3.29-1.85c.51,0,1.02-.12,1.54-.37,.51-.25,.92-.58,1.22-1v-2.18h-.46c-1.31,0-2.27,.17-2.87,.5-.6,.34-.9,.87-.9,1.61,0,.96,.49,1.44,1.46,1.44Z"/>
      <path class="cls-3" d="M403.57,112.55h-2.64v-17.76h2.64v17.76Z"/>
      <path class="cls-3" d="M409.81,112.55h-2.64v-17.76h2.64v17.76Z"/>
    </g>
    <g>
      <path class="cls-3" d="M350.48,221.58h-.54c-.18,0-.38,0-.59-.02v6.79h-2.76v-15.91h3.53c2.05,0,3.61,.39,4.68,1.16,1.07,.77,1.61,1.9,1.61,3.38,0,.94-.23,1.78-.7,2.53-.46,.75-1.24,1.3-2.33,1.67l5.81,7.18h-3.19l-5.52-6.77Zm-.12-6.89h-.46c-.18,0-.36,0-.55,.02v4.56h1.49c.86,0,1.52-.22,1.97-.65,.45-.43,.67-1.05,.67-1.85,0-.72-.22-1.25-.66-1.58s-1.26-.5-2.46-.5Z"/>
      <path class="cls-3" d="M362.98,217.31v7.18c0,.66,.17,1.16,.52,1.5s.79,.52,1.33,.52,1.07-.19,1.54-.56c.46-.38,.81-.92,1.03-1.62v-7.01h2.66v11.04h-2.06l-.14-1.54h-.1c-.18,.37-.4,.67-.67,.9-.27,.23-.57,.42-.9,.55-.33,.14-.67,.23-1.02,.29-.35,.06-.7,.08-1.03,.08-.53,0-1.02-.06-1.48-.19-.46-.13-.86-.34-1.2-.64-.34-.3-.62-.69-.82-1.18-.2-.49-.3-1.09-.3-1.81v-7.51h2.64Zm-.91-3.65c0-.37,.14-.7,.41-.98,.27-.29,.59-.43,.96-.43s.7,.14,.98,.43,.43,.62,.43,.98-.14,.69-.43,.96c-.29,.27-.62,.41-.98,.41s-.69-.14-.96-.41c-.27-.27-.41-.59-.41-.96Zm3.26,0c0-.37,.14-.7,.41-.98,.27-.29,.59-.43,.96-.43s.7,.14,.98,.43,.43,.62,.43,.98-.14,.69-.43,.96c-.29,.27-.62,.41-.98,.41s-.69-.14-.96-.41c-.27-.27-.41-.59-.41-.96Z"/>
      <path class="cls-3" d="M381.89,220.04c-.18-.13-.4-.26-.66-.38-.26-.13-.55-.24-.85-.34-.3-.1-.62-.17-.95-.23s-.64-.08-.92-.08c-.54,0-1,.1-1.38,.3-.38,.2-.68,.46-.91,.79-.23,.33-.4,.71-.5,1.14-.1,.43-.16,.88-.16,1.34,0,.54,.06,1.05,.19,1.52,.13,.47,.32,.88,.58,1.24,.25,.35,.58,.63,.97,.84,.39,.21,.84,.31,1.36,.31,.58,0,1.19-.12,1.84-.35,.65-.23,1.19-.56,1.62-.97l.48,2.26c-.45,.29-1.06,.56-1.84,.82-.78,.26-1.6,.38-2.48,.38-.93,0-1.74-.16-2.44-.48-.7-.32-1.27-.75-1.73-1.28-.46-.54-.8-1.16-1.03-1.87-.23-.71-.35-1.47-.35-2.27s.11-1.5,.32-2.2,.56-1.31,1.02-1.85c.46-.54,1.06-.96,1.78-1.27s1.58-.47,2.59-.47c.77,0,1.52,.09,2.26,.26,.74,.18,1.33,.41,1.78,.7l-.58,2.14Z"/>
      <path class="cls-3" d="M390.44,221.19l4.7,7.15h-2.88l-3.58-5.42-.94,.94v4.49h-2.64v-17.76h2.64v10.25l3.67-3.53h2.95l-3.94,3.89Z"/>
      <path class="cls-3" d="M398.07,224.87c-.72-.3-1.24-.78-1.56-1.42-.32-.64-.48-1.34-.48-2.09,0-.62,.1-1.21,.31-1.75s.51-1.01,.9-1.4,.86-.7,1.42-.92,1.18-.34,1.88-.34c.42,0,.83,.04,1.24,.12,.41,.08,.76,.2,1.07,.35,.67,0,1.28-.04,1.84-.14,.55-.09,1.08-.21,1.6-.36l.22,.17-.26,1.82-.12,.12-1.7-.19-.02,.07c.54,.69,.82,1.5,.82,2.42,0,.56-.1,1.08-.3,1.57-.2,.49-.49,.91-.88,1.27s-.86,.65-1.43,.86c-.57,.22-1.21,.32-1.93,.32-.18,0-.32,0-.42-.01-.1,0-.2-.01-.3-.01-.27,.1-.48,.22-.62,.37-.14,.15-.22,.31-.22,.47,0,.18,.09,.33,.26,.46,.18,.13,.45,.22,.82,.26l2.33,.29c.53,.06,1.02,.18,1.48,.34,.46,.16,.86,.38,1.2,.65,.34,.27,.61,.6,.8,.98,.19,.38,.29,.82,.29,1.32s-.1,.98-.31,1.44c-.21,.46-.54,.87-.98,1.22-.45,.35-1.01,.63-1.69,.84-.68,.21-1.5,.31-2.46,.31-.85,0-1.6-.08-2.24-.25-.65-.17-1.2-.4-1.64-.68-.45-.29-.79-.63-1.02-1.02-.23-.39-.35-.81-.35-1.26,0-.32,.06-.64,.17-.95,.11-.31,.27-.6,.47-.86,.2-.26,.43-.5,.7-.71s.55-.36,.85-.46v-.1c-.37-.16-.62-.38-.77-.65s-.22-.54-.22-.79c0-.34,.11-.65,.34-.94,.22-.29,.54-.51,.96-.67v-.1Zm1.82,4.01c-.54,.1-1.01,.32-1.39,.68s-.58,.77-.58,1.24c0,.51,.25,.9,.76,1.15,.5,.26,1.24,.38,2.2,.38s1.7-.13,2.26-.4c.56-.26,.84-.69,.84-1.28s-.31-.98-.94-1.22c-.62-.24-1.67-.42-3.14-.55Zm.74-5.35c.66,0,1.15-.21,1.49-.64,.34-.42,.5-.94,.5-1.55,0-.29-.04-.58-.12-.88s-.21-.56-.38-.8c-.18-.24-.4-.44-.66-.59-.26-.15-.57-.23-.92-.23s-.63,.07-.89,.2-.47,.32-.64,.54-.29,.48-.37,.76c-.08,.28-.12,.56-.12,.85s.04,.57,.13,.85,.22,.53,.4,.74c.18,.22,.4,.39,.66,.53,.26,.14,.57,.2,.92,.2Z"/>
      <path class="cls-3" d="M415.28,228.35l-.19-1.51h-.1c-.43,.54-1.02,.98-1.76,1.31s-1.5,.49-2.27,.49c-1.01,0-1.8-.29-2.38-.88s-.86-1.36-.86-2.32c0-.66,.14-1.24,.42-1.76,.28-.52,.68-.96,1.21-1.32,.53-.36,1.16-.64,1.9-.83s1.56-.29,2.47-.29h1.03v-.36c0-.62-.2-1.08-.6-1.37-.42-.29-1.06-.43-1.94-.43-1.18,0-2.24,.26-3.17,.79l-.5-1.99c1.07-.62,2.37-.94,3.89-.94,1.6,0,2.82,.33,3.65,.98,.38,.3,.7,.7,.95,1.18,.25,.48,.37,1.06,.37,1.73v7.51h-2.11Zm-3.29-1.85c.51,0,1.02-.12,1.54-.37,.51-.25,.92-.58,1.22-1v-2.18h-.46c-1.31,0-2.27,.17-2.87,.5-.6,.34-.9,.87-.9,1.61,0,.96,.49,1.44,1.46,1.44Z"/>
      <path class="cls-3" d="M427.97,228.35v-7.3c0-1.31-.56-1.97-1.68-1.97-.27,0-.56,.05-.88,.14-.31,.1-.61,.24-.9,.42-.29,.18-.55,.41-.78,.68-.23,.27-.4,.58-.52,.94v7.08h-2.64v-11.04h2.06l.12,1.63h.1c.34-.67,.86-1.17,1.57-1.5,.71-.33,1.48-.49,2.29-.49,.53,0,1.02,.07,1.49,.2s.88,.36,1.24,.66c.36,.3,.64,.7,.85,1.2,.21,.5,.31,1.1,.31,1.82v7.51h-2.64Z"/>
      <path class="cls-3" d="M435.17,224.87c-.72-.3-1.24-.78-1.56-1.42-.32-.64-.48-1.34-.48-2.09,0-.62,.1-1.21,.31-1.75s.51-1.01,.9-1.4,.86-.7,1.42-.92,1.18-.34,1.88-.34c.42,0,.83,.04,1.24,.12,.41,.08,.76,.2,1.07,.35,.67,0,1.28-.04,1.84-.14,.55-.09,1.08-.21,1.6-.36l.22,.17-.26,1.82-.12,.12-1.7-.19-.02,.07c.54,.69,.82,1.5,.82,2.42,0,.56-.1,1.08-.3,1.57-.2,.49-.49,.91-.88,1.27s-.86,.65-1.43,.86c-.57,.22-1.21,.32-1.93,.32-.18,0-.32,0-.42-.01-.1,0-.2-.01-.3-.01-.27,.1-.48,.22-.62,.37-.14,.15-.22,.31-.22,.47,0,.18,.09,.33,.26,.46,.18,.13,.45,.22,.82,.26l2.33,.29c.53,.06,1.02,.18,1.48,.34,.46,.16,.86,.38,1.2,.65,.34,.27,.61,.6,.8,.98,.19,.38,.29,.82,.29,1.32s-.1,.98-.31,1.44c-.21,.46-.54,.87-.98,1.22-.45,.35-1.01,.63-1.69,.84-.68,.21-1.5,.31-2.46,.31-.85,0-1.6-.08-2.24-.25-.65-.17-1.2-.4-1.64-.68-.45-.29-.79-.63-1.02-1.02-.23-.39-.35-.81-.35-1.26,0-.32,.06-.64,.17-.95,.11-.31,.27-.6,.47-.86,.2-.26,.43-.5,.7-.71s.55-.36,.85-.46v-.1c-.37-.16-.62-.38-.77-.65s-.22-.54-.22-.79c0-.34,.11-.65,.34-.94,.22-.29,.54-.51,.96-.67v-.1Zm1.82,4.01c-.54,.1-1.01,.32-1.39,.68s-.58,.77-.58,1.24c0,.51,.25,.9,.76,1.15,.5,.26,1.24,.38,2.2,.38s1.7-.13,2.26-.4c.56-.26,.84-.69,.84-1.28s-.31-.98-.94-1.22c-.62-.24-1.67-.42-3.14-.55Zm.74-5.35c.66,0,1.15-.21,1.49-.64,.34-.42,.5-.94,.5-1.55,0-.29-.04-.58-.12-.88s-.21-.56-.38-.8c-.18-.24-.4-.44-.66-.59-.26-.15-.57-.23-.92-.23s-.63,.07-.89,.2-.47,.32-.64,.54-.29,.48-.37,.76c-.08,.28-.12,.56-.12,.85s.04,.57,.13,.85,.22,.53,.4,.74c.18,.22,.4,.39,.66,.53,.26,.14,.57,.2,.92,.2Z"/>
    </g>
    <g>
      <path class="cls-3" d="M261.29,322.73h-4.8v4.8h6.89v2.4h-9.65v-15.84h9.17v2.4h-6.41v3.84h4.8v2.4Z"/>
      <path class="cls-3" d="M272.16,321.29c-.16-.13-.41-.23-.74-.31-.34-.08-.62-.12-.86-.12-.32,0-.58,.08-.79,.23-.21,.15-.39,.35-.55,.6-.16,.25-.3,.53-.41,.85-.11,.32-.22,.65-.31,.98v6.41h-2.64v-11.04h2.06l.12,2.3h.1c.16-.34,.33-.66,.5-.98,.18-.32,.38-.6,.6-.85,.22-.25,.48-.45,.78-.6,.3-.15,.64-.23,1.04-.23,.64,0,1.24,.21,1.8,.62l-.7,2.14Z"/>
      <path class="cls-3" d="M277.46,320.52c.45-.7,.97-1.21,1.57-1.52,.6-.31,1.31-.47,2.12-.47,.48,0,.94,.07,1.39,.2s.84,.36,1.19,.66c.34,.3,.62,.7,.82,1.2,.2,.5,.3,1.1,.3,1.82v7.51h-2.64v-7.3c0-.66-.14-1.15-.43-1.48-.29-.33-.68-.49-1.18-.49-.3,0-.62,.05-.95,.14-.33,.1-.64,.24-.92,.43s-.54,.42-.77,.7c-.22,.27-.39,.58-.5,.91v7.08h-2.64v-17.76h2.64v8.35Z"/>
      <path class="cls-3" d="M292.99,318.53c.98,0,1.82,.16,2.52,.49,.7,.33,1.28,.77,1.74,1.32,.46,.55,.79,1.18,1.01,1.9s.32,1.46,.32,2.24-.11,1.52-.32,2.22-.55,1.3-1.01,1.82-1.03,.93-1.73,1.24c-.7,.3-1.52,.46-2.46,.46s-1.82-.16-2.52-.48-1.29-.75-1.75-1.28c-.46-.54-.81-1.16-1.03-1.86-.22-.7-.34-1.45-.34-2.23s.11-1.53,.34-2.23c.22-.7,.56-1.32,1.02-1.86,.46-.54,1.04-.96,1.74-1.27s1.53-.47,2.47-.47Zm.05,9.7c.46,0,.87-.1,1.21-.3s.63-.47,.85-.82c.22-.34,.39-.74,.49-1.19,.1-.45,.16-.92,.16-1.42s-.06-1-.17-1.48c-.11-.47-.28-.89-.52-1.25-.23-.36-.52-.65-.88-.86-.35-.22-.78-.32-1.27-.32-.46,0-.86,.1-1.2,.3-.34,.2-.61,.47-.83,.8-.22,.34-.38,.73-.48,1.18-.1,.45-.16,.92-.16,1.42s.05,1,.16,1.48c.1,.47,.27,.89,.5,1.26,.23,.37,.52,.66,.88,.88,.35,.22,.77,.32,1.25,.32Z"/>
      <path class="cls-3" d="M304.03,329.93h-2.64v-17.76h2.64v17.76Z"/>
      <path class="cls-3" d="M310.03,318.89v7.18c0,.66,.17,1.16,.52,1.5s.79,.52,1.33,.52,1.07-.19,1.54-.56c.46-.38,.81-.92,1.03-1.62v-7.01h2.66v11.04h-2.06l-.14-1.54h-.1c-.18,.37-.4,.67-.67,.9-.27,.23-.57,.42-.9,.55-.33,.14-.67,.23-1.02,.29-.35,.06-.7,.08-1.03,.08-.53,0-1.02-.06-1.48-.19-.46-.13-.86-.34-1.2-.64-.34-.3-.62-.69-.82-1.18-.2-.49-.3-1.09-.3-1.81v-7.51h2.64Z"/>
      <path class="cls-3" d="M327.81,329.93v-7.3c0-1.31-.56-1.97-1.68-1.97-.27,0-.56,.05-.88,.14-.31,.1-.61,.24-.9,.42-.29,.18-.55,.41-.78,.68-.23,.27-.4,.58-.52,.94v7.08h-2.64v-11.04h2.06l.12,1.63h.1c.34-.67,.86-1.17,1.57-1.5,.71-.33,1.48-.49,2.29-.49,.53,0,1.02,.07,1.49,.2s.88,.36,1.24,.66c.36,.3,.64,.7,.85,1.2,.21,.5,.31,1.1,.31,1.82v7.51h-2.64Z"/>
      <path class="cls-3" d="M335.01,326.45c-.72-.3-1.24-.78-1.56-1.42-.32-.64-.48-1.34-.48-2.09,0-.62,.1-1.21,.31-1.75s.51-1.01,.9-1.4,.86-.7,1.42-.92,1.18-.34,1.88-.34c.42,0,.83,.04,1.24,.12,.41,.08,.76,.2,1.07,.35,.67,0,1.28-.04,1.84-.14,.55-.09,1.08-.21,1.6-.36l.22,.17-.26,1.82-.12,.12-1.7-.19-.02,.07c.54,.69,.82,1.5,.82,2.42,0,.56-.1,1.08-.3,1.57-.2,.49-.49,.91-.88,1.27s-.86,.65-1.43,.86c-.57,.22-1.21,.32-1.93,.32-.18,0-.32,0-.42-.01-.1,0-.2-.01-.3-.01-.27,.1-.48,.22-.62,.37-.14,.15-.22,.31-.22,.47,0,.18,.09,.33,.26,.46,.18,.13,.45,.22,.82,.26l2.33,.29c.53,.06,1.02,.18,1.48,.34,.46,.16,.86,.38,1.2,.65,.34,.27,.61,.6,.8,.98,.19,.38,.29,.82,.29,1.32s-.1,.98-.31,1.44c-.21,.46-.54,.87-.98,1.22-.45,.35-1.01,.63-1.69,.84-.68,.21-1.5,.31-2.46,.31-.85,0-1.6-.08-2.24-.25-.65-.17-1.2-.4-1.64-.68-.45-.29-.79-.63-1.02-1.02-.23-.39-.35-.81-.35-1.26,0-.32,.06-.64,.17-.95,.11-.31,.27-.6,.47-.86,.2-.26,.43-.5,.7-.71s.55-.36,.85-.46v-.1c-.37-.16-.62-.38-.77-.65s-.22-.54-.22-.79c0-.34,.11-.65,.34-.94,.22-.29,.54-.51,.96-.67v-.1Zm1.82,4.01c-.54,.1-1.01,.32-1.39,.68s-.58,.77-.58,1.24c0,.51,.25,.9,.76,1.15,.5,.26,1.24,.38,2.2,.38s1.7-.13,2.26-.4c.56-.26,.84-.69,.84-1.28s-.31-.98-.94-1.22c-.62-.24-1.67-.42-3.14-.55Zm.74-5.35c.66,0,1.15-.21,1.49-.64,.34-.42,.5-.94,.5-1.55,0-.29-.04-.58-.12-.88s-.21-.56-.38-.8c-.18-.24-.4-.44-.66-.59-.26-.15-.57-.23-.92-.23s-.63,.07-.89,.2-.47,.32-.64,.54-.29,.48-.37,.76c-.08,.28-.12,.56-.12,.85s.04,.57,.13,.85,.22,.53,.4,.74c.18,.22,.4,.39,.66,.53,.26,.14,.57,.2,.92,.2Z"/>
    </g>
    <g>
      <path class="cls-3" d="M163.88,203.01h-4.54v7.2h-2.76v-15.84h9.05v2.4h-6.29v3.84h4.54v2.4Z"/>
      <path class="cls-3" d="M173.28,201.57c-.16-.13-.41-.23-.74-.31-.34-.08-.62-.12-.86-.12-.32,0-.58,.08-.79,.23-.21,.15-.39,.35-.55,.6-.16,.25-.3,.53-.41,.85-.11,.32-.22,.65-.31,.98v6.41h-2.64v-11.04h2.06l.12,2.3h.1c.16-.34,.33-.66,.5-.98,.18-.32,.38-.6,.6-.85,.22-.25,.48-.45,.78-.6,.3-.15,.64-.23,1.04-.23,.64,0,1.24,.21,1.8,.62l-.7,2.14Z"/>
      <path class="cls-3" d="M178.49,199.17v7.18c0,.66,.17,1.16,.52,1.5s.79,.52,1.33,.52,1.07-.19,1.54-.56c.46-.38,.81-.92,1.03-1.62v-7.01h2.66v11.04h-2.06l-.14-1.54h-.1c-.18,.37-.4,.67-.67,.9-.27,.23-.57,.42-.9,.55-.33,.14-.67,.23-1.02,.29-.35,.06-.7,.08-1.03,.08-.53,0-1.02-.06-1.48-.19-.46-.13-.86-.34-1.2-.64-.34-.3-.62-.69-.82-1.18-.2-.49-.3-1.09-.3-1.81v-7.51h2.64Zm-.91-3.65c0-.37,.14-.7,.41-.98,.27-.29,.59-.43,.96-.43s.7,.14,.98,.43,.43,.62,.43,.98-.14,.69-.43,.96c-.29,.27-.62,.41-.98,.41s-.69-.14-.96-.41c-.27-.27-.41-.59-.41-.96Zm3.26,0c0-.37,.14-.7,.41-.98,.27-.29,.59-.43,.96-.43s.7,.14,.98,.43,.43,.62,.43,.98-.14,.69-.43,.96c-.29,.27-.62,.41-.98,.41s-.69-.14-.96-.41c-.27-.27-.41-.59-.41-.96Z"/>
      <path class="cls-3" d="M191.52,200.8c.45-.7,.97-1.21,1.57-1.52,.6-.31,1.31-.47,2.12-.47,.48,0,.94,.07,1.39,.2s.84,.36,1.19,.66c.34,.3,.62,.7,.82,1.2,.2,.5,.3,1.1,.3,1.82v7.51h-2.64v-7.3c0-.66-.14-1.15-.43-1.48-.29-.33-.68-.49-1.18-.49-.3,0-.62,.05-.95,.14-.33,.1-.64,.24-.92,.43s-.54,.42-.77,.7c-.22,.27-.39,.58-.5,.91v7.08h-2.64v-17.76h2.64v8.35Z"/>
      <path class="cls-3" d="M207.15,198.81c1.41,0,2.5,.36,3.26,1.07,.77,.71,1.15,1.72,1.15,3.01,0,.18-.01,.36-.04,.56-.02,.2-.06,.4-.1,.59s-.09,.36-.14,.52c-.06,.15-.12,.28-.18,.37h-6.98c.03,.48,.12,.93,.26,1.36,.14,.42,.35,.79,.62,1.1,.27,.31,.6,.56,1,.74,.39,.18,.85,.28,1.38,.28,.59,0,1.22-.11,1.88-.34,.66-.22,1.23-.5,1.69-.84l.43,1.97c-.21,.13-.46,.27-.77,.42s-.65,.29-1.03,.42c-.38,.13-.8,.24-1.24,.32s-.9,.13-1.38,.13c-.9,0-1.69-.16-2.38-.47-.69-.31-1.26-.74-1.73-1.27-.46-.54-.82-1.16-1.06-1.86s-.36-1.44-.36-2.21,.12-1.53,.37-2.24c.25-.71,.61-1.34,1.09-1.88,.48-.54,1.08-.97,1.79-1.28,.71-.31,1.52-.47,2.44-.47Zm-.07,2.06c-.67,0-1.24,.2-1.72,.59-.47,.39-.81,.92-1.02,1.6h4.58s.03-.1,.04-.17c0-.06,.01-.14,.01-.24,0-.51-.18-.94-.53-1.27s-.81-.5-1.37-.5Z"/>
      <path class="cls-3" d="M217.61,200.78c-.53,0-.94,.1-1.24,.3-.3,.2-.44,.48-.44,.85,0,.24,.08,.46,.25,.66,.17,.2,.52,.36,1.07,.49l1.7,.38c.67,.14,1.21,.35,1.62,.62,.41,.27,.73,.57,.96,.89,.23,.32,.39,.65,.47,.98s.12,.65,.12,.94c0,.51-.1,.99-.31,1.43s-.5,.82-.89,1.14c-.38,.32-.85,.57-1.39,.76-.54,.18-1.15,.28-1.82,.28-.85,0-1.63-.12-2.35-.37-.72-.25-1.3-.52-1.73-.83l.62-2.28c.54,.53,1.16,.92,1.84,1.18,.68,.26,1.31,.38,1.88,.38,.61,0,1.07-.13,1.39-.4,.32-.26,.48-.63,.48-1.09,0-.27-.08-.5-.24-.68-.16-.18-.48-.34-.96-.47l-2.3-.58c-.54-.13-.99-.31-1.33-.55-.34-.24-.62-.51-.82-.8-.2-.3-.34-.6-.41-.92-.07-.32-.11-.62-.11-.91,0-1.07,.38-1.9,1.13-2.48s1.73-.88,2.93-.88c.62,0,1.3,.08,2.02,.25,.72,.17,1.33,.41,1.82,.73l-.7,2.16c-.32-.26-.77-.52-1.34-.78-.58-.26-1.22-.4-1.92-.4Z"/>
      <path class="cls-3" d="M151.65,239.01h-2.28l-4.32-12.05-4.3,12.05h-2.28l-5.9-15.84h3l4.06,12.29,4.08-12.29h2.71l4.06,12.29,4.06-12.29h3l-5.88,15.84Z"/>
      <path class="cls-3" d="M164.94,239.01l-.19-1.51h-.1c-.43,.54-1.02,.98-1.76,1.31s-1.5,.49-2.27,.49c-1.01,0-1.8-.29-2.38-.88s-.86-1.36-.86-2.32c0-.66,.14-1.24,.42-1.76,.28-.52,.68-.96,1.21-1.32,.53-.36,1.16-.64,1.9-.83s1.56-.29,2.47-.29h1.03v-.36c0-.62-.2-1.08-.6-1.37-.42-.29-1.06-.43-1.94-.43-1.18,0-2.24,.26-3.17,.79l-.5-1.99c1.07-.62,2.37-.94,3.89-.94,1.6,0,2.82,.33,3.65,.98,.38,.3,.7,.7,.95,1.18,.25,.48,.37,1.06,.37,1.73v7.51h-2.11Zm-3.29-1.85c.51,0,1.02-.12,1.54-.37,.51-.25,.92-.58,1.22-1v-2.18h-.46c-1.31,0-2.27,.17-2.87,.5-.6,.34-.9,.87-.9,1.61,0,.96,.49,1.44,1.46,1.44Z"/>
      <path class="cls-3" d="M178.77,230.71c-.18-.13-.4-.26-.66-.38-.26-.13-.55-.24-.85-.34-.3-.1-.62-.17-.95-.23s-.64-.08-.92-.08c-.54,0-1,.1-1.38,.3-.38,.2-.68,.46-.91,.79-.23,.33-.4,.71-.5,1.14-.1,.43-.16,.88-.16,1.34,0,.54,.06,1.05,.19,1.52,.13,.47,.32,.88,.58,1.24,.25,.35,.58,.63,.97,.84,.39,.21,.84,.31,1.36,.31,.58,0,1.19-.12,1.84-.35,.65-.23,1.19-.56,1.62-.97l.48,2.26c-.45,.29-1.06,.56-1.84,.82-.78,.26-1.6,.38-2.48,.38-.93,0-1.74-.16-2.44-.48-.7-.32-1.27-.75-1.73-1.28-.46-.54-.8-1.16-1.03-1.87-.23-.71-.35-1.47-.35-2.27s.11-1.5,.32-2.2,.56-1.31,1.02-1.85c.46-.54,1.06-.96,1.78-1.27s1.58-.47,2.59-.47c.77,0,1.52,.09,2.26,.26,.74,.18,1.33,.41,1.78,.7l-.58,2.14Z"/>
      <path class="cls-3" d="M184.62,229.6c.45-.7,.97-1.21,1.57-1.52,.6-.31,1.31-.47,2.12-.47,.48,0,.94,.07,1.39,.2s.84,.36,1.19,.66c.34,.3,.62,.7,.82,1.2,.2,.5,.3,1.1,.3,1.82v7.51h-2.64v-7.3c0-.66-.14-1.15-.43-1.48-.29-.33-.68-.49-1.18-.49-.3,0-.62,.05-.95,.14-.33,.1-.64,.24-.92,.43s-.54,.42-.77,.7c-.22,.27-.39,.58-.5,.91v7.08h-2.64v-17.76h2.64v8.35Z"/>
      <path class="cls-3" d="M198.59,229.58c-.53,0-.94,.1-1.24,.3-.3,.2-.44,.48-.44,.85,0,.24,.08,.46,.25,.66,.17,.2,.52,.36,1.07,.49l1.7,.38c.67,.14,1.21,.35,1.62,.62,.41,.27,.73,.57,.96,.89,.23,.32,.39,.65,.47,.98s.12,.65,.12,.94c0,.51-.1,.99-.31,1.43s-.5,.82-.89,1.14c-.38,.32-.85,.57-1.39,.76-.54,.18-1.15,.28-1.82,.28-.85,0-1.63-.12-2.35-.37-.72-.25-1.3-.52-1.73-.83l.62-2.28c.54,.53,1.16,.92,1.84,1.18,.68,.26,1.31,.38,1.88,.38,.61,0,1.07-.13,1.39-.4,.32-.26,.48-.63,.48-1.09,0-.27-.08-.5-.24-.68-.16-.18-.48-.34-.96-.47l-2.3-.58c-.54-.13-.99-.31-1.33-.55-.34-.24-.62-.51-.82-.8-.2-.3-.34-.6-.41-.92-.07-.32-.11-.62-.11-.91,0-1.07,.38-1.9,1.13-2.48s1.73-.88,2.93-.88c.62,0,1.3,.08,2.02,.25,.72,.17,1.33,.41,1.82,.73l-.7,2.16c-.32-.26-.77-.52-1.34-.78-.58-.26-1.22-.4-1.92-.4Z"/>
      <path class="cls-3" d="M206.13,229.58h-1.37v-1.44l1.56-.24,.43-3.26h2.02v3.34h2.11v1.61h-2.11v6.34c0,.48,.05,.8,.14,.97,.1,.17,.28,.25,.55,.25,.21,0,.42-.04,.62-.12,.21-.08,.51-.23,.91-.46l.43,1.9c-.3,.26-.73,.46-1.28,.61-.55,.15-1.1,.23-1.64,.23-.48,0-.88-.06-1.19-.19-.31-.13-.56-.32-.73-.56-.18-.25-.3-.55-.36-.9-.06-.35-.1-.74-.1-1.18v-6.89Z"/>
      <path class="cls-3" d="M216.13,227.97v7.18c0,.66,.17,1.16,.52,1.5s.79,.52,1.33,.52,1.07-.19,1.54-.56c.46-.38,.81-.92,1.03-1.62v-7.01h2.66v11.04h-2.06l-.14-1.54h-.1c-.18,.37-.4,.67-.67,.9-.27,.23-.57,.42-.9,.55-.33,.14-.67,.23-1.02,.29-.35,.06-.7,.08-1.03,.08-.53,0-1.02-.06-1.48-.19-.46-.13-.86-.34-1.2-.64-.34-.3-.62-.69-.82-1.18-.2-.49-.3-1.09-.3-1.81v-7.51h2.64Z"/>
      <path class="cls-3" d="M233.68,239.01v-7.3c0-1.31-.52-1.97-1.56-1.97-.26,0-.53,.05-.83,.14-.3,.1-.58,.24-.86,.42-.28,.18-.54,.41-.77,.68-.23,.27-.4,.58-.49,.94v7.08h-2.64v-11.04h2.06l.12,1.63h.1c.32-.67,.83-1.17,1.52-1.5,.7-.33,1.44-.49,2.22-.49s1.44,.15,2.05,.44c.62,.3,1.08,.8,1.38,1.52,.32-.66,.82-1.15,1.51-1.48,.69-.33,1.42-.49,2.21-.49,.51,0,1,.07,1.45,.2s.86,.36,1.2,.66c.34,.3,.62,.7,.82,1.2,.2,.5,.3,1.1,.3,1.82v7.51h-2.64v-7.3c0-1.31-.52-1.97-1.56-1.97-.26,0-.53,.05-.83,.14-.3,.1-.58,.24-.86,.42-.28,.18-.54,.41-.77,.68-.23,.27-.4,.58-.49,.94v7.08h-2.64Z"/>
    </g>
    <g>
      <path d="M443.36,6.43h2.5l4.2,10.4,3.8-10.4h2.4l-5.28,13.2h-1.82l-5.8-13.2Z"/>
      <path d="M460.74,10.13c1.17,0,2.08,.3,2.72,.89,.64,.59,.96,1.43,.96,2.51,0,.15,0,.3-.03,.47-.02,.17-.05,.33-.08,.49-.03,.16-.07,.3-.12,.43-.05,.13-.1,.23-.15,.31h-5.82c.03,.4,.1,.78,.22,1.13,.12,.35,.29,.66,.52,.92,.23,.26,.5,.47,.83,.62,.33,.15,.71,.23,1.15,.23,.49,0,1.02-.09,1.57-.28,.55-.19,1.02-.42,1.41-.7l.36,1.64c-.17,.11-.39,.22-.64,.35-.25,.13-.54,.24-.86,.35-.32,.11-.66,.2-1.03,.27-.37,.07-.75,.11-1.15,.11-.75,0-1.41-.13-1.98-.39-.57-.26-1.05-.61-1.44-1.06s-.68-.96-.88-1.55c-.2-.59-.3-1.2-.3-1.84s.1-1.28,.31-1.87c.21-.59,.51-1.12,.91-1.57,.4-.45,.9-.81,1.49-1.07,.59-.26,1.27-.39,2.03-.39Zm-.06,1.72c-.56,0-1.04,.16-1.43,.49-.39,.33-.68,.77-.85,1.33h3.82s.02-.09,.03-.14c0-.05,0-.12,0-.2,0-.43-.15-.78-.44-1.06-.29-.28-.67-.42-1.14-.42Z"/>
      <path d="M471.92,12.43c-.13-.11-.34-.19-.62-.26-.28-.07-.52-.1-.72-.1-.27,0-.49,.06-.66,.19-.17,.13-.33,.29-.46,.5-.13,.21-.25,.44-.34,.71-.09,.27-.18,.54-.26,.82v5.34h-2.2V10.43h1.72l.1,1.92h.08c.13-.28,.27-.55,.42-.82,.15-.27,.31-.5,.5-.71,.19-.21,.4-.37,.65-.5,.25-.13,.54-.19,.87-.19,.53,0,1.03,.17,1.5,.52l-.58,1.78Z"/>
      <path d="M476.94,11.77c-.44,0-.78,.08-1.03,.25-.25,.17-.37,.4-.37,.71,0,.2,.07,.38,.21,.55,.14,.17,.44,.3,.89,.41l1.42,.32c.56,.12,1.01,.29,1.35,.52,.34,.23,.61,.47,.8,.74s.32,.54,.39,.82c.07,.28,.1,.54,.1,.78,0,.43-.09,.82-.26,1.19-.17,.37-.42,.68-.74,.95-.32,.27-.71,.48-1.16,.63-.45,.15-.96,.23-1.52,.23-.71,0-1.36-.1-1.96-.31-.6-.21-1.08-.44-1.44-.69l.52-1.9c.45,.44,.96,.77,1.53,.98,.57,.21,1.09,.32,1.57,.32,.51,0,.89-.11,1.16-.33,.27-.22,.4-.52,.4-.91,0-.23-.07-.42-.2-.57s-.4-.28-.8-.39l-1.92-.48c-.45-.11-.82-.26-1.11-.46s-.51-.42-.68-.67c-.17-.25-.28-.5-.34-.77-.06-.27-.09-.52-.09-.76,0-.89,.31-1.58,.94-2.07,.63-.49,1.44-.73,2.44-.73,.52,0,1.08,.07,1.68,.21s1.11,.34,1.52,.61l-.58,1.8c-.27-.21-.64-.43-1.12-.65-.48-.22-1.01-.33-1.6-.33Z"/>
      <path d="M486.9,10.13c.81,0,1.51,.14,2.1,.41s1.07,.64,1.45,1.1c.38,.46,.66,.99,.84,1.58,.18,.59,.27,1.22,.27,1.87s-.09,1.27-.27,1.85-.46,1.09-.84,1.52c-.38,.43-.86,.78-1.44,1.03-.58,.25-1.26,.38-2.05,.38s-1.51-.13-2.1-.4c-.59-.27-1.07-.62-1.46-1.07-.39-.45-.67-.96-.86-1.55-.19-.59-.28-1.21-.28-1.86s.09-1.27,.28-1.86c.19-.59,.47-1.1,.85-1.55s.86-.8,1.45-1.06c.59-.26,1.27-.39,2.06-.39Zm.04,8.08c.39,0,.72-.08,1.01-.25,.29-.17,.52-.39,.71-.68,.19-.29,.32-.62,.41-.99,.09-.37,.13-.77,.13-1.18s-.05-.84-.14-1.23c-.09-.39-.24-.74-.43-1.04s-.44-.54-.73-.72c-.29-.18-.65-.27-1.06-.27-.39,0-.72,.08-1,.25-.28,.17-.51,.39-.69,.67-.18,.28-.31,.61-.4,.98-.09,.37-.13,.77-.13,1.18s.04,.84,.13,1.23c.09,.39,.23,.74,.42,1.05s.44,.55,.73,.73c.29,.18,.64,.27,1.04,.27Z"/>
      <path d="M499.04,12.43c-.13-.11-.34-.19-.62-.26-.28-.07-.52-.1-.72-.1-.27,0-.49,.06-.66,.19-.17,.13-.33,.29-.46,.5-.13,.21-.25,.44-.34,.71-.09,.27-.18,.54-.26,.82v5.34h-2.2V10.43h1.72l.1,1.92h.08c.13-.28,.27-.55,.42-.82,.15-.27,.31-.5,.5-.71,.19-.21,.4-.37,.65-.5,.25-.13,.54-.19,.87-.19,.53,0,1.03,.17,1.5,.52l-.58,1.78Z"/>
      <path d="M502.39,16.73c-.6-.25-1.03-.65-1.3-1.18-.27-.53-.4-1.11-.4-1.74,0-.52,.09-1.01,.26-1.46,.17-.45,.42-.84,.75-1.17s.72-.58,1.18-.77c.46-.19,.98-.28,1.57-.28,.35,0,.69,.03,1.03,.1,.34,.06,.64,.16,.89,.29,.56,0,1.07-.04,1.53-.11s.9-.17,1.33-.3l.18,.14-.22,1.52-.1,.1-1.42-.16-.02,.06c.45,.57,.68,1.25,.68,2.02,0,.47-.08,.9-.25,1.31s-.41,.76-.73,1.06c-.32,.3-.72,.54-1.19,.72-.47,.18-1.01,.27-1.61,.27-.15,0-.26,0-.35-.01-.09,0-.17,0-.25,0-.23,.08-.4,.18-.52,.31-.12,.13-.18,.26-.18,.39,0,.15,.07,.27,.22,.38,.15,.11,.37,.18,.68,.22l1.94,.24c.44,.05,.85,.15,1.23,.28,.38,.13,.71,.31,1,.54,.29,.23,.51,.5,.67,.82,.16,.32,.24,.69,.24,1.1s-.09,.81-.26,1.2c-.17,.39-.45,.73-.82,1.02-.37,.29-.84,.53-1.41,.7-.57,.17-1.25,.26-2.05,.26-.71,0-1.33-.07-1.87-.21s-1-.33-1.37-.57c-.37-.24-.66-.52-.85-.85-.19-.33-.29-.68-.29-1.05,0-.27,.05-.53,.14-.79,.09-.26,.22-.5,.39-.72s.36-.42,.58-.59c.22-.17,.46-.3,.71-.38v-.08c-.31-.13-.52-.31-.64-.54s-.18-.45-.18-.66c0-.28,.09-.54,.28-.78,.19-.24,.45-.43,.8-.56v-.08Zm1.52,3.34c-.45,.08-.84,.27-1.16,.57-.32,.3-.48,.64-.48,1.03,0,.43,.21,.75,.63,.96,.42,.21,1.03,.32,1.83,.32s1.41-.11,1.88-.33c.47-.22,.7-.58,.7-1.07s-.26-.82-.78-1.02c-.52-.2-1.39-.35-2.62-.46Zm.62-4.46c.55,0,.96-.18,1.24-.53,.28-.35,.42-.78,.42-1.29,0-.24-.03-.48-.1-.73s-.17-.47-.32-.67c-.15-.2-.33-.36-.55-.49-.22-.13-.48-.19-.77-.19s-.53,.06-.74,.17-.39,.26-.53,.45c-.14,.19-.24,.4-.31,.63-.07,.23-.1,.47-.1,.71s.04,.48,.11,.71c.07,.23,.18,.44,.33,.62,.15,.18,.33,.33,.55,.44,.22,.11,.48,.17,.77,.17Z"/>
      <path d="M515.23,10.13c1.17,0,2.08,.3,2.72,.89,.64,.59,.96,1.43,.96,2.51,0,.15,0,.3-.03,.47-.02,.17-.05,.33-.08,.49-.03,.16-.07,.3-.12,.43-.05,.13-.1,.23-.15,.31h-5.82c.03,.4,.1,.78,.22,1.13,.12,.35,.29,.66,.52,.92,.23,.26,.5,.47,.83,.62,.33,.15,.71,.23,1.15,.23,.49,0,1.02-.09,1.57-.28,.55-.19,1.02-.42,1.41-.7l.36,1.64c-.17,.11-.39,.22-.64,.35-.25,.13-.54,.24-.86,.35-.32,.11-.66,.2-1.03,.27-.37,.07-.75,.11-1.15,.11-.75,0-1.41-.13-1.98-.39-.57-.26-1.05-.61-1.44-1.06s-.68-.96-.88-1.55c-.2-.59-.3-1.2-.3-1.84s.1-1.28,.31-1.87c.21-.59,.51-1.12,.91-1.57,.4-.45,.9-.81,1.49-1.07,.59-.26,1.27-.39,2.03-.39Zm-.06,1.72c-.56,0-1.04,.16-1.43,.49-.39,.33-.68,.77-.85,1.33h3.82s.02-.09,.03-.14c0-.05,0-.12,0-.2,0-.43-.15-.78-.44-1.06-.29-.28-.67-.42-1.14-.42Z"/>
      <path d="M526.41,12.43c-.13-.11-.34-.19-.62-.26-.28-.07-.52-.1-.72-.1-.27,0-.49,.06-.66,.19-.17,.13-.33,.29-.46,.5-.13,.21-.25,.44-.34,.71-.09,.27-.18,.54-.26,.82v5.34h-2.2V10.43h1.72l.1,1.92h.08c.13-.28,.27-.55,.42-.82,.15-.27,.31-.5,.5-.71,.19-.21,.4-.37,.65-.5,.25-.13,.54-.19,.87-.19,.53,0,1.03,.17,1.5,.52l-.58,1.78Z"/>
      <path d="M453.96,32.43h-3.82v11.2h-2.3v-11.2h-3.82v-2h9.94v2Z"/>
      <path d="M458.24,34.13c1.17,0,2.08,.3,2.72,.89,.64,.59,.96,1.43,.96,2.51,0,.15,0,.3-.03,.47-.02,.17-.05,.33-.08,.49-.03,.16-.07,.3-.12,.43-.05,.13-.1,.23-.15,.31h-5.82c.03,.4,.1,.78,.22,1.13,.12,.35,.29,.66,.52,.92,.23,.26,.5,.47,.83,.62,.33,.15,.71,.23,1.15,.23,.49,0,1.02-.09,1.57-.28,.55-.19,1.02-.42,1.41-.7l.36,1.64c-.17,.11-.39,.22-.64,.35-.25,.13-.54,.24-.86,.35-.32,.11-.66,.2-1.03,.27-.37,.07-.75,.11-1.15,.11-.75,0-1.41-.13-1.98-.39-.57-.26-1.05-.61-1.44-1.06s-.68-.96-.88-1.55c-.2-.59-.3-1.2-.3-1.84s.1-1.28,.31-1.87c.21-.59,.51-1.12,.91-1.57,.4-.45,.9-.81,1.49-1.07,.59-.26,1.27-.39,2.03-.39Zm-.06,1.72c-.56,0-1.04,.16-1.43,.49-.39,.33-.68,.77-.85,1.33h3.82s.02-.09,.03-.14c0-.05,0-.12,0-.2,0-.43-.15-.78-.44-1.06-.29-.28-.67-.42-1.14-.42Z"/>
      <path d="M471.26,36.71c-.15-.11-.33-.21-.55-.32-.22-.11-.46-.2-.71-.28s-.52-.14-.79-.19c-.27-.05-.53-.07-.77-.07-.45,0-.84,.08-1.15,.25-.31,.17-.57,.39-.76,.66-.19,.27-.33,.59-.42,.95s-.13,.73-.13,1.12c0,.45,.05,.88,.16,1.27,.11,.39,.27,.74,.48,1.03,.21,.29,.48,.53,.81,.7,.33,.17,.7,.26,1.13,.26,.48,0,.99-.1,1.53-.29,.54-.19,.99-.46,1.35-.81l.4,1.88c-.37,.24-.88,.47-1.53,.68-.65,.21-1.34,.32-2.07,.32-.77,0-1.45-.13-2.03-.4s-1.06-.62-1.44-1.07-.67-.97-.86-1.56-.29-1.22-.29-1.89,.09-1.25,.27-1.83c.18-.58,.46-1.09,.85-1.54s.88-.8,1.48-1.06c.6-.26,1.32-.39,2.16-.39,.64,0,1.27,.07,1.88,.22,.61,.15,1.11,.34,1.48,.58l-.48,1.78Z"/>
      <path d="M476.14,35.79c.37-.59,.81-1.01,1.31-1.27,.5-.26,1.09-.39,1.77-.39,.4,0,.79,.06,1.16,.17,.37,.11,.7,.3,.99,.55,.29,.25,.51,.59,.68,1,.17,.41,.25,.92,.25,1.52v6.26h-2.2v-6.08c0-.55-.12-.96-.36-1.23-.24-.27-.57-.41-.98-.41-.25,0-.52,.04-.79,.12s-.53,.2-.77,.36c-.24,.16-.45,.35-.64,.58-.19,.23-.33,.48-.42,.76v5.9h-2.2v-14.8h2.2v6.96Z"/>
      <path d="M491.14,43.63v-6.08c0-1.09-.47-1.64-1.4-1.64-.23,0-.47,.04-.73,.12s-.51,.2-.75,.35-.46,.34-.65,.57c-.19,.23-.34,.49-.43,.78v5.9h-2.2v-9.2h1.72l.1,1.36h.08c.28-.56,.72-.98,1.31-1.25s1.23-.41,1.91-.41c.44,0,.85,.06,1.24,.17s.73,.3,1.03,.55c.3,.25,.54,.59,.71,1,.17,.41,.26,.92,.26,1.52v6.26h-2.2Z"/>
      <path d="M500.02,34.13c.81,0,1.51,.14,2.1,.41s1.07,.64,1.45,1.1c.38,.46,.66,.99,.84,1.58,.18,.59,.27,1.22,.27,1.87s-.09,1.27-.27,1.85-.46,1.09-.84,1.52c-.38,.43-.86,.78-1.44,1.03-.58,.25-1.26,.38-2.05,.38s-1.51-.13-2.1-.4c-.59-.27-1.07-.62-1.46-1.07-.39-.45-.67-.96-.86-1.55-.19-.59-.28-1.21-.28-1.86s.09-1.27,.28-1.86c.19-.59,.47-1.1,.85-1.55s.86-.8,1.45-1.06c.59-.26,1.27-.39,2.06-.39Zm.04,8.08c.39,0,.72-.08,1.01-.25,.29-.17,.52-.39,.71-.68,.19-.29,.32-.62,.41-.99,.09-.37,.13-.77,.13-1.18s-.05-.84-.14-1.23c-.09-.39-.24-.74-.43-1.04s-.44-.54-.73-.72c-.29-.18-.65-.27-1.06-.27-.39,0-.72,.08-1,.25-.28,.17-.51,.39-.69,.67-.18,.28-.31,.61-.4,.98-.09,.37-.13,.77-.13,1.18s.04,.84,.13,1.23c.09,.39,.23,.74,.42,1.05s.44,.55,.73,.73c.29,.18,.64,.27,1.04,.27Z"/>
      <path d="M509.22,43.63h-2.2v-14.8h2.2v14.8Z"/>
      <path d="M516.2,34.13c.81,0,1.51,.14,2.1,.41s1.07,.64,1.45,1.1c.38,.46,.66,.99,.84,1.58,.18,.59,.27,1.22,.27,1.87s-.09,1.27-.27,1.85-.46,1.09-.84,1.52c-.38,.43-.86,.78-1.44,1.03-.58,.25-1.26,.38-2.05,.38s-1.51-.13-2.1-.4c-.59-.27-1.07-.62-1.46-1.07-.39-.45-.67-.96-.86-1.55-.19-.59-.28-1.21-.28-1.86s.09-1.27,.28-1.86c.19-.59,.47-1.1,.85-1.55s.86-.8,1.45-1.06c.59-.26,1.27-.39,2.06-.39Zm.04,8.08c.39,0,.72-.08,1.01-.25,.29-.17,.52-.39,.71-.68,.19-.29,.32-.62,.41-.99,.09-.37,.13-.77,.13-1.18s-.05-.84-.14-1.23c-.09-.39-.24-.74-.43-1.04s-.44-.54-.73-.72c-.29-.18-.65-.27-1.06-.27-.39,0-.72,.08-1,.25-.28,.17-.51,.39-.69,.67-.18,.28-.31,.61-.4,.98-.09,.37-.13,.77-.13,1.18s.04,.84,.13,1.23c.09,.39,.23,.74,.42,1.05s.44,.55,.73,.73c.29,.18,.64,.27,1.04,.27Z"/>
      <path d="M524.29,40.73c-.6-.25-1.03-.65-1.3-1.18-.27-.53-.4-1.11-.4-1.74,0-.52,.09-1.01,.26-1.46,.17-.45,.42-.84,.75-1.17s.72-.58,1.18-.77c.46-.19,.98-.28,1.57-.28,.35,0,.69,.03,1.03,.1,.34,.06,.64,.16,.89,.29,.56,0,1.07-.04,1.53-.11s.9-.17,1.33-.3l.18,.14-.22,1.52-.1,.1-1.42-.16-.02,.06c.45,.57,.68,1.25,.68,2.02,0,.47-.08,.9-.25,1.31s-.41,.76-.73,1.06c-.32,.3-.72,.54-1.19,.72-.47,.18-1.01,.27-1.61,.27-.15,0-.26,0-.35-.01-.09,0-.17,0-.25,0-.23,.08-.4,.18-.52,.31-.12,.13-.18,.26-.18,.39,0,.15,.07,.27,.22,.38,.15,.11,.37,.18,.68,.22l1.94,.24c.44,.05,.85,.15,1.23,.28,.38,.13,.71,.31,1,.54,.29,.23,.51,.5,.67,.82,.16,.32,.24,.69,.24,1.1s-.09,.81-.26,1.2c-.17,.39-.45,.73-.82,1.02-.37,.29-.84,.53-1.41,.7-.57,.17-1.25,.26-2.05,.26-.71,0-1.33-.07-1.87-.21s-1-.33-1.37-.57c-.37-.24-.66-.52-.85-.85-.19-.33-.29-.68-.29-1.05,0-.27,.05-.53,.14-.79,.09-.26,.22-.5,.39-.72s.36-.42,.58-.59c.22-.17,.46-.3,.71-.38v-.08c-.31-.13-.52-.31-.64-.54s-.18-.45-.18-.66c0-.28,.09-.54,.28-.78,.19-.24,.45-.43,.8-.56v-.08Zm1.52,3.34c-.45,.08-.84,.27-1.16,.57-.32,.3-.48,.64-.48,1.03,0,.43,.21,.75,.63,.96,.42,.21,1.03,.32,1.83,.32s1.41-.11,1.88-.33c.47-.22,.7-.58,.7-1.07s-.26-.82-.78-1.02c-.52-.2-1.39-.35-2.62-.46Zm.62-4.46c.55,0,.96-.18,1.24-.53,.28-.35,.42-.78,.42-1.29,0-.24-.03-.48-.1-.73s-.17-.47-.32-.67c-.15-.2-.33-.36-.55-.49-.22-.13-.48-.19-.77-.19s-.53,.06-.74,.17-.39,.26-.53,.45c-.14,.19-.24,.4-.31,.63-.07,.23-.1,.47-.1,.71s.04,.48,.11,.71c.07,.23,.18,.44,.33,.62,.15,.18,.33,.33,.55,.44,.22,.11,.48,.17,.77,.17Z"/>
      <path d="M532.71,31.47c0-.19,.04-.37,.11-.54,.07-.17,.18-.33,.31-.47,.13-.14,.28-.25,.45-.33s.35-.12,.55-.12c.19,0,.37,.04,.54,.12,.17,.08,.33,.19,.47,.33,.14,.14,.25,.3,.33,.47,.08,.17,.12,.35,.12,.54,0,.2-.04,.38-.12,.55s-.19,.32-.33,.45c-.14,.13-.3,.24-.47,.31-.17,.07-.35,.11-.54,.11-.39,0-.72-.14-1-.42-.28-.28-.42-.61-.42-1Zm2.52,12.16h-2.2v-9.2h2.2v9.2Z"/>
      <path d="M542.17,34.13c1.17,0,2.08,.3,2.72,.89,.64,.59,.96,1.43,.96,2.51,0,.15,0,.3-.03,.47-.02,.17-.05,.33-.08,.49-.03,.16-.07,.3-.12,.43-.05,.13-.1,.23-.15,.31h-5.82c.03,.4,.1,.78,.22,1.13,.12,.35,.29,.66,.52,.92,.23,.26,.5,.47,.83,.62,.33,.15,.71,.23,1.15,.23,.49,0,1.02-.09,1.57-.28,.55-.19,1.02-.42,1.41-.7l.36,1.64c-.17,.11-.39,.22-.64,.35-.25,.13-.54,.24-.86,.35-.32,.11-.66,.2-1.03,.27-.37,.07-.75,.11-1.15,.11-.75,0-1.41-.13-1.98-.39-.57-.26-1.05-.61-1.44-1.06s-.68-.96-.88-1.55c-.2-.59-.3-1.2-.3-1.84s.1-1.28,.31-1.87c.21-.59,.51-1.12,.91-1.57,.4-.45,.9-.81,1.49-1.07,.59-.26,1.27-.39,2.03-.39Zm-.06,1.72c-.56,0-1.04,.16-1.43,.49-.39,.33-.68,.77-.85,1.33h3.82s.02-.09,.03-.14c0-.05,0-.12,0-.2,0-.43-.15-.78-.44-1.06-.29-.28-.67-.42-1.14-.42Z"/>
    </g>
    <g>
      <path d="M509.87,253.76h-2.3v-13.2h2.3v5.76c.76-.72,1.44-1.42,2.04-2.1,.56-.64,1.07-1.26,1.52-1.87,.45-.61,.85-1.2,1.18-1.79h2.52c-.59,.8-1.15,1.53-1.68,2.2-.53,.67-1.12,1.36-1.76,2.08-.24,.27-.49,.54-.74,.82-.25,.28-.51,.56-.78,.84l5.9,7.26h-2.66l-4.7-5.78-.84,.78v5Z"/>
      <path d="M523.01,244.26c.81,0,1.51,.14,2.1,.41s1.07,.64,1.45,1.1c.38,.46,.66,.99,.84,1.58,.18,.59,.27,1.22,.27,1.87s-.09,1.27-.27,1.85-.46,1.09-.84,1.52c-.38,.43-.86,.78-1.44,1.03-.58,.25-1.26,.38-2.05,.38s-1.51-.13-2.1-.4c-.59-.27-1.07-.62-1.46-1.07-.39-.45-.67-.96-.86-1.55-.19-.59-.28-1.21-.28-1.86s.09-1.27,.28-1.86c.19-.59,.47-1.1,.85-1.55s.86-.8,1.45-1.06c.59-.26,1.27-.39,2.06-.39Zm.04,8.08c.39,0,.72-.08,1.01-.25,.29-.17,.52-.39,.71-.68,.19-.29,.32-.62,.41-.99,.09-.37,.13-.77,.13-1.18s-.05-.84-.14-1.23c-.09-.39-.24-.74-.43-1.04s-.44-.54-.73-.72c-.29-.18-.65-.27-1.06-.27-.39,0-.72,.08-1,.25-.28,.17-.51,.39-.69,.67-.18,.28-.31,.61-.4,.98-.09,.37-.13,.77-.13,1.18s.04,.84,.13,1.23c.09,.39,.23,.74,.42,1.05s.44,.55,.73,.73c.29,.18,.64,.27,1.04,.27Z"/>
      <path d="M536.05,253.76v-6.08c0-1.09-.47-1.64-1.4-1.64-.23,0-.47,.04-.73,.12s-.51,.2-.75,.35-.46,.34-.65,.57c-.19,.23-.34,.49-.43,.78v5.9h-2.2v-9.2h1.72l.1,1.36h.08c.28-.56,.72-.98,1.31-1.25s1.23-.41,1.91-.41c.44,0,.85,.06,1.24,.17s.73,.3,1.03,.55c.3,.25,.54,.59,.71,1,.17,.41,.26,.92,.26,1.52v6.26h-2.2Z"/>
      <path d="M543.62,245.9c-.44,0-.78,.08-1.03,.25-.25,.17-.37,.4-.37,.71,0,.2,.07,.38,.21,.55,.14,.17,.44,.3,.89,.41l1.42,.32c.56,.12,1.01,.29,1.35,.52,.34,.23,.61,.47,.8,.74s.32,.54,.39,.82c.07,.28,.1,.54,.1,.78,0,.43-.09,.82-.26,1.19-.17,.37-.42,.68-.74,.95-.32,.27-.71,.48-1.16,.63-.45,.15-.96,.23-1.52,.23-.71,0-1.36-.1-1.96-.31-.6-.21-1.08-.44-1.44-.69l.52-1.9c.45,.44,.96,.77,1.53,.98,.57,.21,1.09,.32,1.57,.32,.51,0,.89-.11,1.16-.33,.27-.22,.4-.52,.4-.91,0-.23-.07-.42-.2-.57s-.4-.28-.8-.39l-1.92-.48c-.45-.11-.82-.26-1.11-.46s-.51-.42-.68-.67c-.17-.25-.28-.5-.34-.77-.06-.27-.09-.52-.09-.76,0-.89,.31-1.58,.94-2.07,.63-.49,1.44-.73,2.44-.73,.52,0,1.08,.07,1.68,.21s1.11,.34,1.52,.61l-.58,1.8c-.27-.21-.64-.43-1.12-.65-.48-.22-1.01-.33-1.6-.33Z"/>
      <path d="M551.61,244.56v5.98c0,.55,.14,.96,.43,1.25s.66,.43,1.11,.43,.89-.16,1.28-.47c.39-.31,.67-.76,.86-1.35v-5.84h2.22v9.2h-1.72l-.12-1.28h-.08c-.15,.31-.33,.56-.56,.75s-.48,.35-.75,.46c-.27,.11-.56,.19-.85,.24-.29,.05-.58,.07-.86,.07-.44,0-.85-.05-1.23-.16-.38-.11-.71-.28-1-.53-.29-.25-.51-.57-.68-.98-.17-.41-.25-.91-.25-1.51v-6.26h2.2Z"/>
      <path d="M566.22,253.76v-6.08c0-1.09-.43-1.64-1.3-1.64-.21,0-.44,.04-.69,.12-.25,.08-.49,.2-.72,.35s-.45,.34-.64,.57c-.19,.23-.33,.49-.41,.78v5.9h-2.2v-9.2h1.72l.1,1.36h.08c.27-.56,.69-.98,1.27-1.25s1.2-.41,1.85-.41,1.2,.12,1.71,.37c.51,.25,.9,.67,1.15,1.27,.27-.55,.69-.96,1.26-1.23s1.19-.41,1.84-.41c.43,0,.83,.06,1.21,.17s.71,.3,1,.55c.29,.25,.51,.59,.68,1,.17,.41,.25,.92,.25,1.52v6.26h-2.2v-6.08c0-1.09-.43-1.64-1.3-1.64-.21,0-.44,.04-.69,.12-.25,.08-.49,.2-.72,.35s-.45,.34-.64,.57c-.19,.23-.33,.49-.41,.78v5.9h-2.2Z"/>
      <path d="M513.35,277.76v-6.08c0-1.09-.47-1.64-1.4-1.64-.23,0-.47,.04-.73,.12s-.51,.2-.75,.35-.46,.34-.65,.57c-.19,.23-.34,.49-.43,.78v5.9h-2.2v-9.2h1.72l.1,1.36h.08c.28-.56,.72-.98,1.31-1.25s1.23-.41,1.91-.41c.44,0,.85,.06,1.24,.17s.73,.3,1.03,.55c.3,.25,.54,.59,.71,1,.17,.41,.26,.92,.26,1.52v6.26h-2.2Z"/>
      <path d="M517.81,265.6c0-.19,.04-.37,.11-.54,.07-.17,.18-.33,.31-.47,.13-.14,.28-.25,.45-.33s.35-.12,.55-.12c.19,0,.37,.04,.54,.12,.17,.08,.33,.19,.47,.33,.14,.14,.25,.3,.33,.47,.08,.17,.12,.35,.12,.54,0,.2-.04,.38-.12,.55s-.19,.32-.33,.45c-.14,.13-.3,.24-.47,.31-.17,.07-.35,.11-.54,.11-.39,0-.72-.14-1-.42-.28-.28-.42-.61-.42-1Zm2.52,12.16h-2.2v-9.2h2.2v9.2Z"/>
      <path d="M530.19,270.84c-.15-.11-.33-.21-.55-.32-.22-.11-.46-.2-.71-.28s-.52-.14-.79-.19c-.27-.05-.53-.07-.77-.07-.45,0-.84,.08-1.15,.25-.31,.17-.57,.39-.76,.66-.19,.27-.33,.59-.42,.95s-.13,.73-.13,1.12c0,.45,.05,.88,.16,1.27,.11,.39,.27,.74,.48,1.03,.21,.29,.48,.53,.81,.7,.33,.17,.7,.26,1.13,.26,.48,0,.99-.1,1.53-.29,.54-.19,.99-.46,1.35-.81l.4,1.88c-.37,.24-.88,.47-1.53,.68-.65,.21-1.34,.32-2.07,.32-.77,0-1.45-.13-2.03-.4s-1.06-.62-1.44-1.07-.67-.97-.86-1.56-.29-1.22-.29-1.89,.09-1.25,.27-1.83c.18-.58,.46-1.09,.85-1.54s.88-.8,1.48-1.06c.6-.26,1.32-.39,2.16-.39,.64,0,1.27,.07,1.88,.22,.61,.15,1.11,.34,1.48,.58l-.48,1.78Z"/>
      <path d="M535.07,269.92c.37-.59,.81-1.01,1.31-1.27,.5-.26,1.09-.39,1.77-.39,.4,0,.79,.06,1.16,.17,.37,.11,.7,.3,.99,.55,.29,.25,.51,.59,.68,1,.17,.41,.25,.92,.25,1.52v6.26h-2.2v-6.08c0-.55-.12-.96-.36-1.23-.24-.27-.57-.41-.98-.41-.25,0-.52,.04-.79,.12s-.53,.2-.77,.36c-.24,.16-.45,.35-.64,.58-.19,.23-.33,.48-.42,.76v5.9h-2.2v-14.8h2.2v6.96Z"/>
      <path d="M544.33,269.9h-1.14v-1.2l1.3-.2,.36-2.72h1.68v2.78h1.76v1.34h-1.76v5.28c0,.4,.04,.67,.12,.81s.23,.21,.46,.21c.17,0,.35-.03,.52-.1,.17-.07,.43-.19,.76-.38l.36,1.58c-.25,.21-.61,.38-1.07,.51-.46,.13-.92,.19-1.37,.19-.4,0-.73-.05-.99-.16s-.46-.26-.61-.47c-.15-.21-.25-.46-.3-.75-.05-.29-.08-.62-.08-.98v-5.74Z"/>
      <path d="M557.23,272.16v1.64h-6.76v-1.64h6.76Z"/>
      <path d="M563.27,270.34h-4v-1.78h6.28v1.78l-4.32,5.64h4.52v1.78h-6.68v-1.78l4.2-5.64Z"/>
      <path d="M571.95,275.1l2.56-6.54h2.12l-3.8,9.28c-.19,.47-.44,.99-.77,1.57-.33,.58-.71,1.13-1.16,1.64-.45,.51-.95,.95-1.51,1.3-.56,.35-1.17,.53-1.82,.53-.11,0-.19,0-.24-.01-.05,0-.11-.02-.18-.05l-.38-1.72s.09,.03,.14,.04c.05,.01,.17,.02,.34,.02,.25,0,.5-.03,.75-.08,.25-.05,.5-.16,.75-.32,.48-.31,.9-.73,1.25-1.28,.35-.55,.7-1.22,1.03-2.02l-4.58-8.9h2.3l3.2,6.54Z"/>
      <path d="M582.79,271.8l3.92,5.96h-2.4l-2.98-4.52-.78,.78v3.74h-2.2v-14.8h2.2v8.54l3.06-2.94h2.46l-3.28,3.24Z"/>
      <path d="M590.53,277.76h-2.2v-14.8h2.2v14.8Z"/>
      <path d="M593.09,265.6c0-.19,.04-.37,.11-.54,.07-.17,.18-.33,.31-.47,.13-.14,.28-.25,.45-.33s.35-.12,.55-.12c.19,0,.37,.04,.54,.12,.17,.08,.33,.19,.47,.33,.14,.14,.25,.3,.33,.47,.08,.17,.12,.35,.12,.54,0,.2-.04,.38-.12,.55s-.19,.32-.33,.45c-.14,.13-.3,.24-.47,.31-.17,.07-.35,.11-.54,.11-.39,0-.72-.14-1-.42-.28-.28-.42-.61-.42-1Zm2.52,12.16h-2.2v-9.2h2.2v9.2Z"/>
      <path d="M601.17,269.9c-.44,0-.78,.08-1.03,.25-.25,.17-.37,.4-.37,.71,0,.2,.07,.38,.21,.55,.14,.17,.44,.3,.89,.41l1.42,.32c.56,.12,1.01,.29,1.35,.52,.34,.23,.61,.47,.8,.74s.32,.54,.39,.82c.07,.28,.1,.54,.1,.78,0,.43-.09,.82-.26,1.19-.17,.37-.42,.68-.74,.95-.32,.27-.71,.48-1.16,.63-.45,.15-.96,.23-1.52,.23-.71,0-1.36-.1-1.96-.31-.6-.21-1.08-.44-1.44-.69l.52-1.9c.45,.44,.96,.77,1.53,.98,.57,.21,1.09,.32,1.57,.32,.51,0,.89-.11,1.16-.33,.27-.22,.4-.52,.4-.91,0-.23-.07-.42-.2-.57s-.4-.28-.8-.39l-1.92-.48c-.45-.11-.82-.26-1.11-.46s-.51-.42-.68-.67c-.17-.25-.28-.5-.34-.77-.06-.27-.09-.52-.09-.76,0-.89,.31-1.58,.94-2.07,.63-.49,1.44-.73,2.44-.73,.52,0,1.08,.07,1.68,.21s1.11,.34,1.52,.61l-.58,1.8c-.27-.21-.64-.43-1.12-.65-.48-.22-1.01-.33-1.6-.33Z"/>
      <path d="M614.13,270.84c-.15-.11-.33-.21-.55-.32-.22-.11-.46-.2-.71-.28s-.52-.14-.79-.19c-.27-.05-.53-.07-.77-.07-.45,0-.84,.08-1.15,.25-.31,.17-.57,.39-.76,.66-.19,.27-.33,.59-.42,.95s-.13,.73-.13,1.12c0,.45,.05,.88,.16,1.27,.11,.39,.27,.74,.48,1.03,.21,.29,.48,.53,.81,.7,.33,.17,.7,.26,1.13,.26,.48,0,.99-.1,1.53-.29,.54-.19,.99-.46,1.35-.81l.4,1.88c-.37,.24-.88,.47-1.53,.68-.65,.21-1.34,.32-2.07,.32-.77,0-1.45-.13-2.03-.4s-1.06-.62-1.44-1.07-.67-.97-.86-1.56-.29-1.22-.29-1.89,.09-1.25,.27-1.83c.18-.58,.46-1.09,.85-1.54s.88-.8,1.48-1.06c.6-.26,1.32-.39,2.16-.39,.64,0,1.27,.07,1.88,.22,.61,.15,1.11,.34,1.48,.58l-.48,1.78Z"/>
      <path d="M619.01,269.92c.37-.59,.81-1.01,1.31-1.27,.5-.26,1.09-.39,1.77-.39,.4,0,.79,.06,1.16,.17,.37,.11,.7,.3,.99,.55,.29,.25,.51,.59,.68,1,.17,.41,.25,.92,.25,1.52v6.26h-2.2v-6.08c0-.55-.12-.96-.36-1.23-.24-.27-.57-.41-.98-.41-.25,0-.52,.04-.79,.12s-.53,.2-.77,.36c-.24,.16-.45,.35-.64,.58-.19,.23-.33,.48-.42,.76v5.9h-2.2v-14.8h2.2v6.96Z"/>
    </g>
    <g>
      <path d="M259.7,428.49l4.38-10.08h2.62v13.2h-2.28v-8.7l-3.8,8.7h-1.84l-3.9-8.7v8.7h-2.3v-13.2h2.62l4.5,10.08Z"/>
      <path d="M275.26,431.61l-.16-1.26h-.08c-.36,.45-.85,.82-1.47,1.09-.62,.27-1.25,.41-1.89,.41-.84,0-1.5-.24-1.98-.73-.48-.49-.72-1.13-.72-1.93,0-.55,.12-1.04,.35-1.47,.23-.43,.57-.8,1.01-1.1,.44-.3,.97-.53,1.58-.69s1.3-.24,2.06-.24h.86v-.3c0-.52-.17-.9-.5-1.14-.35-.24-.89-.36-1.62-.36-.99,0-1.87,.22-2.64,.66l-.42-1.66c.89-.52,1.97-.78,3.24-.78,1.33,0,2.35,.27,3.04,.82,.32,.25,.58,.58,.79,.98,.21,.4,.31,.88,.31,1.44v6.26h-1.76Zm-2.74-1.54c.43,0,.85-.1,1.28-.31s.77-.48,1.02-.83v-1.82h-.38c-1.09,0-1.89,.14-2.39,.42-.5,.28-.75,.73-.75,1.34,0,.8,.41,1.2,1.22,1.2Z"/>
      <path d="M280.01,423.75h-1.14v-1.2l1.3-.2,.36-2.72h1.68v2.78h1.76v1.34h-1.76v5.28c0,.4,.04,.67,.12,.81,.08,.14,.23,.21,.46,.21,.17,0,.35-.03,.52-.1,.17-.07,.43-.19,.76-.38l.36,1.58c-.25,.21-.61,.38-1.07,.51-.46,.13-.92,.19-1.37,.19-.4,0-.73-.05-.99-.16s-.46-.26-.61-.47-.25-.46-.3-.75-.08-.62-.08-.98v-5.74Z"/>
      <path d="M290.41,422.11c1.17,0,2.08,.3,2.72,.89,.64,.59,.96,1.43,.96,2.51,0,.15,0,.3-.03,.47-.02,.17-.05,.33-.08,.49s-.07,.3-.12,.43c-.05,.13-.1,.23-.15,.31h-5.82c.03,.4,.1,.78,.22,1.13s.29,.66,.52,.92c.23,.26,.5,.47,.83,.62,.33,.15,.71,.23,1.15,.23,.49,0,1.02-.09,1.57-.28,.55-.19,1.02-.42,1.41-.7l.36,1.64c-.17,.11-.39,.22-.64,.35-.25,.13-.54,.24-.86,.35-.32,.11-.66,.2-1.03,.27-.37,.07-.75,.11-1.15,.11-.75,0-1.41-.13-1.98-.39-.57-.26-1.05-.61-1.44-1.06-.39-.45-.68-.96-.88-1.55s-.3-1.2-.3-1.84,.1-1.28,.31-1.87c.21-.59,.51-1.12,.91-1.57,.4-.45,.9-.81,1.49-1.07,.59-.26,1.27-.39,2.03-.39Zm-.06,1.72c-.56,0-1.04,.16-1.43,.49-.39,.33-.68,.77-.85,1.33h3.82s.02-.09,.03-.14c0-.05,0-.12,0-.2,0-.43-.15-.78-.44-1.06-.29-.28-.67-.42-1.14-.42Z"/>
      <path d="M301.59,424.41c-.13-.11-.34-.19-.62-.26-.28-.07-.52-.1-.72-.1-.27,0-.49,.06-.66,.19-.17,.13-.33,.29-.46,.5-.13,.21-.25,.44-.34,.71-.09,.27-.18,.54-.26,.82v5.34h-2.2v-9.2h1.72l.1,1.92h.08c.13-.28,.27-.55,.42-.82,.15-.27,.31-.5,.5-.71,.19-.21,.4-.37,.65-.5,.25-.13,.54-.19,.87-.19,.53,0,1.03,.17,1.5,.52l-.58,1.78Z"/>
      <path d="M303.49,419.45c0-.19,.04-.37,.11-.54,.07-.17,.18-.33,.31-.47,.13-.14,.28-.25,.45-.33s.35-.12,.55-.12c.19,0,.37,.04,.54,.12,.17,.08,.33,.19,.47,.33,.14,.14,.25,.3,.33,.47,.08,.17,.12,.35,.12,.54,0,.2-.04,.38-.12,.55-.08,.17-.19,.32-.33,.45-.14,.13-.3,.24-.47,.31-.17,.07-.35,.11-.54,.11-.39,0-.72-.14-1-.42-.28-.28-.42-.61-.42-1Zm2.52,12.16h-2.2v-9.2h2.2v9.2Z"/>
      <path d="M314.37,431.61l-.16-1.26h-.08c-.36,.45-.85,.82-1.47,1.09-.62,.27-1.25,.41-1.89,.41-.84,0-1.5-.24-1.98-.73-.48-.49-.72-1.13-.72-1.93,0-.55,.12-1.04,.35-1.47,.23-.43,.57-.8,1.01-1.1,.44-.3,.97-.53,1.58-.69s1.3-.24,2.06-.24h.86v-.3c0-.52-.17-.9-.5-1.14-.35-.24-.89-.36-1.62-.36-.99,0-1.87,.22-2.64,.66l-.42-1.66c.89-.52,1.97-.78,3.24-.78,1.33,0,2.35,.27,3.04,.82,.32,.25,.58,.58,.79,.98,.21,.4,.31,.88,.31,1.44v6.26h-1.76Zm-2.74-1.54c.43,0,.85-.1,1.28-.31s.77-.48,1.02-.83v-1.82h-.38c-1.09,0-1.89,.14-2.39,.42-.5,.28-.75,.73-.75,1.34,0,.8,.41,1.2,1.22,1.2Z"/>
      <path d="M321.11,431.61h-2.2v-14.8h2.2v14.8Z"/>
      <path d="M323.67,419.45c0-.19,.04-.37,.11-.54,.07-.17,.18-.33,.31-.47,.13-.14,.28-.25,.45-.33s.35-.12,.55-.12c.19,0,.37,.04,.54,.12,.17,.08,.33,.19,.47,.33,.14,.14,.25,.3,.33,.47,.08,.17,.12,.35,.12,.54,0,.2-.04,.38-.12,.55-.08,.17-.19,.32-.33,.45-.14,.13-.3,.24-.47,.31-.17,.07-.35,.11-.54,.11-.39,0-.72-.14-1-.42-.28-.28-.42-.61-.42-1Zm2.52,12.16h-2.2v-9.2h2.2v9.2Z"/>
      <path d="M333.13,422.11c1.17,0,2.08,.3,2.72,.89,.64,.59,.96,1.43,.96,2.51,0,.15,0,.3-.03,.47-.02,.17-.05,.33-.08,.49s-.07,.3-.12,.43c-.05,.13-.1,.23-.15,.31h-5.82c.03,.4,.1,.78,.22,1.13s.29,.66,.52,.92c.23,.26,.5,.47,.83,.62,.33,.15,.71,.23,1.15,.23,.49,0,1.02-.09,1.57-.28,.55-.19,1.02-.42,1.41-.7l.36,1.64c-.17,.11-.39,.22-.64,.35-.25,.13-.54,.24-.86,.35-.32,.11-.66,.2-1.03,.27-.37,.07-.75,.11-1.15,.11-.75,0-1.41-.13-1.98-.39-.57-.26-1.05-.61-1.44-1.06-.39-.45-.68-.96-.88-1.55s-.3-1.2-.3-1.84,.1-1.28,.31-1.87c.21-.59,.51-1.12,.91-1.57,.4-.45,.9-.81,1.49-1.07,.59-.26,1.27-.39,2.03-.39Zm-.06,1.72c-.56,0-1.04,.16-1.43,.49-.39,.33-.68,.77-.85,1.33h3.82s.02-.09,.03-.14c0-.05,0-.12,0-.2,0-.43-.15-.78-.44-1.06-.29-.28-.67-.42-1.14-.42Z"/>
      <path d="M345.21,431.61v-6.08c0-1.09-.47-1.64-1.4-1.64-.23,0-.47,.04-.73,.12s-.51,.2-.75,.35-.46,.34-.65,.57-.34,.49-.43,.78v5.9h-2.2v-9.2h1.72l.1,1.36h.08c.28-.56,.72-.98,1.31-1.25s1.23-.41,1.91-.41c.44,0,.85,.06,1.24,.17s.73,.3,1.03,.55c.3,.25,.54,.59,.71,1,.17,.41,.26,.92,.26,1.52v6.26h-2.2Z"/>
      <path d="M254.88,455.61h-2.3v-13.2h2.3v5.76c.76-.72,1.44-1.42,2.04-2.1,.56-.64,1.07-1.26,1.52-1.87,.45-.61,.85-1.2,1.18-1.79h2.52c-.59,.8-1.15,1.53-1.68,2.2-.53,.67-1.12,1.36-1.76,2.08-.24,.27-.49,.54-.74,.82-.25,.28-.51,.56-.78,.84l5.9,7.26h-2.66l-4.7-5.78-.84,.78v5Z"/>
      <path d="M268.02,446.11c.81,0,1.51,.14,2.1,.41s1.07,.64,1.45,1.1c.38,.46,.66,.99,.84,1.58,.18,.59,.27,1.22,.27,1.87s-.09,1.27-.27,1.85-.46,1.09-.84,1.52c-.38,.43-.86,.78-1.44,1.03s-1.26,.38-2.05,.38-1.51-.13-2.1-.4c-.59-.27-1.07-.62-1.46-1.07-.39-.45-.67-.96-.86-1.55-.19-.59-.28-1.21-.28-1.86s.09-1.27,.28-1.86c.19-.59,.47-1.1,.85-1.55,.38-.45,.86-.8,1.45-1.06,.59-.26,1.27-.39,2.06-.39Zm.04,8.08c.39,0,.72-.08,1.01-.25,.29-.17,.52-.39,.71-.68,.19-.29,.32-.62,.41-.99,.09-.37,.13-.77,.13-1.18s-.05-.84-.14-1.23c-.09-.39-.24-.74-.43-1.04s-.44-.54-.73-.72c-.29-.18-.65-.27-1.06-.27-.39,0-.72,.08-1,.25-.28,.17-.51,.39-.69,.67-.18,.28-.31,.61-.4,.98-.09,.37-.13,.77-.13,1.18s.04,.84,.13,1.23,.23,.74,.42,1.05,.44,.55,.73,.73c.29,.18,.64,.27,1.04,.27Z"/>
      <path d="M281.05,455.61v-6.08c0-1.09-.47-1.64-1.4-1.64-.23,0-.47,.04-.73,.12s-.51,.2-.75,.35-.46,.34-.65,.57-.34,.49-.43,.78v5.9h-2.2v-9.2h1.72l.1,1.36h.08c.28-.56,.72-.98,1.31-1.25s1.23-.41,1.91-.41c.44,0,.85,.06,1.24,.17s.73,.3,1.03,.55c.3,.25,.54,.59,.71,1,.17,.41,.26,.92,.26,1.52v6.26h-2.2Z"/>
      <path d="M288.63,447.75c-.44,0-.78,.08-1.03,.25-.25,.17-.37,.4-.37,.71,0,.2,.07,.38,.21,.55,.14,.17,.44,.3,.89,.41l1.42,.32c.56,.12,1.01,.29,1.35,.52,.34,.23,.61,.47,.8,.74s.32,.54,.39,.82c.07,.28,.1,.54,.1,.78,0,.43-.09,.82-.26,1.19-.17,.37-.42,.68-.74,.95-.32,.27-.71,.48-1.16,.63-.45,.15-.96,.23-1.52,.23-.71,0-1.36-.1-1.96-.31-.6-.21-1.08-.44-1.44-.69l.52-1.9c.45,.44,.96,.77,1.53,.98,.57,.21,1.09,.32,1.57,.32,.51,0,.89-.11,1.16-.33,.27-.22,.4-.52,.4-.91,0-.23-.07-.42-.2-.57s-.4-.28-.8-.39l-1.92-.48c-.45-.11-.82-.26-1.11-.46s-.51-.42-.68-.67c-.17-.25-.28-.5-.34-.77-.06-.27-.09-.52-.09-.76,0-.89,.31-1.58,.94-2.07s1.44-.73,2.44-.73c.52,0,1.08,.07,1.68,.21,.6,.14,1.11,.34,1.52,.61l-.58,1.8c-.27-.21-.64-.43-1.12-.65-.48-.22-1.01-.33-1.6-.33Z"/>
      <path d="M296.61,446.41v5.98c0,.55,.14,.96,.43,1.25s.66,.43,1.11,.43,.89-.16,1.28-.47,.67-.76,.86-1.35v-5.84h2.22v9.2h-1.72l-.12-1.28h-.08c-.15,.31-.33,.56-.56,.75s-.48,.35-.75,.46c-.27,.11-.56,.19-.85,.24-.29,.05-.58,.07-.86,.07-.44,0-.85-.05-1.23-.16-.38-.11-.71-.28-1-.53-.29-.25-.51-.57-.68-.98-.17-.41-.25-.91-.25-1.51v-6.26h2.2Z"/>
      <path d="M311.23,455.61v-6.08c0-1.09-.43-1.64-1.3-1.64-.21,0-.44,.04-.69,.12-.25,.08-.49,.2-.72,.35s-.45,.34-.64,.57-.33,.49-.41,.78v5.9h-2.2v-9.2h1.72l.1,1.36h.08c.27-.56,.69-.98,1.27-1.25s1.2-.41,1.85-.41,1.2,.12,1.71,.37c.51,.25,.9,.67,1.15,1.27,.27-.55,.69-.96,1.26-1.23s1.19-.41,1.84-.41c.43,0,.83,.06,1.21,.17s.71,.3,1,.55c.29,.25,.51,.59,.68,1,.17,.41,.25,.92,.25,1.52v6.26h-2.2v-6.08c0-1.09-.43-1.64-1.3-1.64-.21,0-.44,.04-.69,.12-.25,.08-.49,.2-.72,.35s-.45,.34-.64,.57-.33,.49-.41,.78v5.9h-2.2Z"/>
      <path d="M330.53,448.19h-4v-1.78h6.28v1.78l-4.32,5.64h4.52v1.78h-6.68v-1.78l4.2-5.64Z"/>
      <path d="M339.21,452.95l2.56-6.54h2.12l-3.8,9.28c-.19,.47-.44,.99-.77,1.57-.33,.58-.71,1.13-1.16,1.64-.45,.51-.95,.95-1.51,1.3-.56,.35-1.17,.53-1.82,.53-.11,0-.19,0-.24,0-.05,0-.11-.02-.18-.05l-.38-1.72s.09,.03,.14,.04c.05,.01,.17,.02,.34,.02,.25,0,.5-.03,.75-.08,.25-.05,.5-.16,.75-.32,.48-.31,.9-.73,1.25-1.28,.35-.55,.7-1.22,1.03-2.02l-4.58-8.9h2.3l3.2,6.54Z"/>
      <path d="M350.05,449.65l3.92,5.96h-2.4l-2.98-4.52-.78,.78v3.74h-2.2v-14.8h2.2v8.54l3.06-2.94h2.46l-3.28,3.24Z"/>
      <path d="M357.79,455.61h-2.2v-14.8h2.2v14.8Z"/>
      <path d="M360.35,443.45c0-.19,.04-.37,.11-.54,.07-.17,.18-.33,.31-.47,.13-.14,.28-.25,.45-.33s.35-.12,.55-.12c.19,0,.37,.04,.54,.12,.17,.08,.33,.19,.47,.33,.14,.14,.25,.3,.33,.47,.08,.17,.12,.35,.12,.54,0,.2-.04,.38-.12,.55-.08,.17-.19,.32-.33,.45-.14,.13-.3,.24-.47,.31-.17,.07-.35,.11-.54,.11-.39,0-.72-.14-1-.42-.28-.28-.42-.61-.42-1Zm2.52,12.16h-2.2v-9.2h2.2v9.2Z"/>
      <path d="M368.43,447.75c-.44,0-.78,.08-1.03,.25-.25,.17-.37,.4-.37,.71,0,.2,.07,.38,.21,.55,.14,.17,.44,.3,.89,.41l1.42,.32c.56,.12,1.01,.29,1.35,.52,.34,.23,.61,.47,.8,.74s.32,.54,.39,.82c.07,.28,.1,.54,.1,.78,0,.43-.09,.82-.26,1.19-.17,.37-.42,.68-.74,.95-.32,.27-.71,.48-1.16,.63-.45,.15-.96,.23-1.52,.23-.71,0-1.36-.1-1.96-.31-.6-.21-1.08-.44-1.44-.69l.52-1.9c.45,.44,.96,.77,1.53,.98,.57,.21,1.09,.32,1.57,.32,.51,0,.89-.11,1.16-.33,.27-.22,.4-.52,.4-.91,0-.23-.07-.42-.2-.57s-.4-.28-.8-.39l-1.92-.48c-.45-.11-.82-.26-1.11-.46s-.51-.42-.68-.67c-.17-.25-.28-.5-.34-.77-.06-.27-.09-.52-.09-.76,0-.89,.31-1.58,.94-2.07s1.44-.73,2.44-.73c.52,0,1.08,.07,1.68,.21,.6,.14,1.11,.34,1.52,.61l-.58,1.8c-.27-.21-.64-.43-1.12-.65-.48-.22-1.01-.33-1.6-.33Z"/>
      <path d="M381.39,448.69c-.15-.11-.33-.21-.55-.32-.22-.11-.46-.2-.71-.28s-.52-.14-.79-.19c-.27-.05-.53-.07-.77-.07-.45,0-.84,.08-1.15,.25-.31,.17-.57,.39-.76,.66-.19,.27-.33,.59-.42,.95-.09,.36-.13,.73-.13,1.12,0,.45,.05,.88,.16,1.27,.11,.39,.27,.74,.48,1.03,.21,.29,.48,.53,.81,.7,.33,.17,.7,.26,1.13,.26,.48,0,.99-.1,1.53-.29,.54-.19,.99-.46,1.35-.81l.4,1.88c-.37,.24-.88,.47-1.53,.68-.65,.21-1.34,.32-2.07,.32-.77,0-1.45-.13-2.03-.4s-1.06-.62-1.44-1.07c-.38-.45-.67-.97-.86-1.56-.19-.59-.29-1.22-.29-1.89s.09-1.25,.27-1.83c.18-.58,.46-1.09,.85-1.54,.39-.45,.88-.8,1.48-1.06,.6-.26,1.32-.39,2.16-.39,.64,0,1.27,.07,1.88,.22,.61,.15,1.11,.34,1.48,.58l-.48,1.78Z"/>
      <path d="M386.27,447.77c.37-.59,.81-1.01,1.31-1.27,.5-.26,1.09-.39,1.77-.39,.4,0,.79,.06,1.16,.17,.37,.11,.7,.3,.99,.55,.29,.25,.51,.59,.68,1,.17,.41,.25,.92,.25,1.52v6.26h-2.2v-6.08c0-.55-.12-.96-.36-1.23-.24-.27-.57-.41-.98-.41-.25,0-.52,.04-.79,.12s-.53,.2-.77,.36c-.24,.16-.45,.35-.64,.58-.19,.23-.33,.48-.42,.76v5.9h-2.2v-14.8h2.2v6.96Z"/>
      <path d="M254.88,479.61h-2.3v-13.2h2.3v5.76c.76-.72,1.44-1.42,2.04-2.1,.56-.64,1.07-1.26,1.52-1.87,.45-.61,.85-1.2,1.18-1.79h2.52c-.59,.8-1.15,1.53-1.68,2.2-.53,.67-1.12,1.36-1.76,2.08-.24,.27-.49,.54-.74,.82-.25,.28-.51,.56-.78,.84l5.9,7.26h-2.66l-4.7-5.78-.84,.78v5Z"/>
      <path d="M268.02,470.11c.81,0,1.51,.14,2.1,.41s1.07,.64,1.45,1.1c.38,.46,.66,.99,.84,1.58,.18,.59,.27,1.22,.27,1.87s-.09,1.27-.27,1.85-.46,1.09-.84,1.52c-.38,.43-.86,.78-1.44,1.03s-1.26,.38-2.05,.38-1.51-.13-2.1-.4c-.59-.27-1.07-.62-1.46-1.07-.39-.45-.67-.96-.86-1.55-.19-.59-.28-1.21-.28-1.86s.09-1.27,.28-1.86c.19-.59,.47-1.1,.85-1.55,.38-.45,.86-.8,1.45-1.06,.59-.26,1.27-.39,2.06-.39Zm.04,8.08c.39,0,.72-.08,1.01-.25,.29-.17,.52-.39,.71-.68,.19-.29,.32-.62,.41-.99,.09-.37,.13-.77,.13-1.18s-.05-.84-.14-1.23c-.09-.39-.24-.74-.43-1.04s-.44-.54-.73-.72c-.29-.18-.65-.27-1.06-.27-.39,0-.72,.08-1,.25-.28,.17-.51,.39-.69,.67-.18,.28-.31,.61-.4,.98-.09,.37-.13,.77-.13,1.18s.04,.84,.13,1.23,.23,.74,.42,1.05,.44,.55,.73,.73c.29,.18,.64,.27,1.04,.27Z"/>
      <path d="M280.85,479.61v-6.08c0-1.09-.43-1.64-1.3-1.64-.21,0-.44,.04-.69,.12-.25,.08-.49,.2-.72,.35s-.45,.34-.64,.57-.33,.49-.41,.78v5.9h-2.2v-9.2h1.72l.1,1.36h.08c.27-.56,.69-.98,1.27-1.25s1.2-.41,1.85-.41,1.2,.12,1.71,.37c.51,.25,.9,.67,1.15,1.27,.27-.55,.69-.96,1.26-1.23s1.19-.41,1.84-.41c.43,0,.83,.06,1.21,.17s.71,.3,1,.55c.29,.25,.51,.59,.68,1,.17,.41,.25,.92,.25,1.52v6.26h-2.2v-6.08c0-1.09-.43-1.64-1.3-1.64-.21,0-.44,.04-.69,.12-.25,.08-.49,.2-.72,.35s-.45,.34-.64,.57-.33,.49-.41,.78v5.9h-2.2Z"/>
      <path d="M297.55,479.61v-6.08c0-1.09-.43-1.64-1.3-1.64-.21,0-.44,.04-.69,.12-.25,.08-.49,.2-.72,.35s-.45,.34-.64,.57-.33,.49-.41,.78v5.9h-2.2v-9.2h1.72l.1,1.36h.08c.27-.56,.69-.98,1.27-1.25s1.2-.41,1.85-.41,1.2,.12,1.71,.37c.51,.25,.9,.67,1.15,1.27,.27-.55,.69-.96,1.26-1.23s1.19-.41,1.84-.41c.43,0,.83,.06,1.21,.17s.71,.3,1,.55c.29,.25,.51,.59,.68,1,.17,.41,.25,.92,.25,1.52v6.26h-2.2v-6.08c0-1.09-.43-1.64-1.3-1.64-.21,0-.44,.04-.69,.12-.25,.08-.49,.2-.72,.35s-.45,.34-.64,.57-.33,.49-.41,.78v5.9h-2.2Z"/>
      <path d="M310.42,470.41v5.98c0,.55,.14,.96,.43,1.25s.66,.43,1.11,.43,.89-.16,1.28-.47,.67-.76,.86-1.35v-5.84h2.22v9.2h-1.72l-.12-1.28h-.08c-.15,.31-.33,.56-.56,.75s-.48,.35-.75,.46c-.27,.11-.56,.19-.85,.24-.29,.05-.58,.07-.86,.07-.44,0-.85-.05-1.23-.16-.38-.11-.71-.28-1-.53-.29-.25-.51-.57-.68-.98-.17-.41-.25-.91-.25-1.51v-6.26h2.2Z"/>
      <path d="M325.23,479.61v-6.08c0-1.09-.47-1.64-1.4-1.64-.23,0-.47,.04-.73,.12s-.51,.2-.75,.35-.46,.34-.65,.57-.34,.49-.43,.78v5.9h-2.2v-9.2h1.72l.1,1.36h.08c.28-.56,.72-.98,1.31-1.25s1.23-.41,1.91-.41c.44,0,.85,.06,1.24,.17s.73,.3,1.03,.55c.3,.25,.54,.59,.71,1,.17,.41,.26,.92,.26,1.52v6.26h-2.2Z"/>
      <path d="M329.69,467.45c0-.19,.04-.37,.11-.54,.07-.17,.18-.33,.31-.47,.13-.14,.28-.25,.45-.33s.35-.12,.55-.12c.19,0,.37,.04,.54,.12,.17,.08,.33,.19,.47,.33,.14,.14,.25,.3,.33,.47,.08,.17,.12,.35,.12,.54,0,.2-.04,.38-.12,.55-.08,.17-.19,.32-.33,.45-.14,.13-.3,.24-.47,.31-.17,.07-.35,.11-.54,.11-.39,0-.72-.14-1-.42-.28-.28-.42-.61-.42-1Zm2.52,12.16h-2.2v-9.2h2.2v9.2Z"/>
      <path d="M339.41,473.65l3.92,5.96h-2.4l-2.98-4.52-.78,.78v3.74h-2.2v-14.8h2.2v8.54l3.06-2.94h2.46l-3.28,3.24Z"/>
      <path d="M350.35,479.61l-.16-1.26h-.08c-.36,.45-.85,.82-1.47,1.09-.62,.27-1.25,.41-1.89,.41-.84,0-1.5-.24-1.98-.73-.48-.49-.72-1.13-.72-1.93,0-.55,.12-1.04,.35-1.47,.23-.43,.57-.8,1.01-1.1,.44-.3,.97-.53,1.58-.69s1.3-.24,2.06-.24h.86v-.3c0-.52-.17-.9-.5-1.14-.35-.24-.89-.36-1.62-.36-.99,0-1.87,.22-2.64,.66l-.42-1.66c.89-.52,1.97-.78,3.24-.78,1.33,0,2.35,.27,3.04,.82,.32,.25,.58,.58,.79,.98,.21,.4,.31,.88,.31,1.44v6.26h-1.76Zm-2.74-1.54c.43,0,.85-.1,1.28-.31s.77-.48,1.02-.83v-1.82h-.38c-1.09,0-1.89,.14-2.39,.42-.5,.28-.75,.73-.75,1.34,0,.8,.41,1.2,1.22,1.2Z"/>
      <path d="M355.11,471.75h-1.14v-1.2l1.3-.2,.36-2.72h1.68v2.78h1.76v1.34h-1.76v5.28c0,.4,.04,.67,.12,.81,.08,.14,.23,.21,.46,.21,.17,0,.35-.03,.52-.1,.17-.07,.43-.19,.76-.38l.36,1.58c-.25,.21-.61,.38-1.07,.51-.46,.13-.92,.19-1.37,.19-.4,0-.73-.05-.99-.16s-.46-.26-.61-.47-.25-.46-.3-.75-.08-.62-.08-.98v-5.74Z"/>
      <path d="M361.01,467.45c0-.19,.04-.37,.11-.54,.07-.17,.18-.33,.31-.47,.13-.14,.28-.25,.45-.33s.35-.12,.55-.12c.19,0,.37,.04,.54,.12,.17,.08,.33,.19,.47,.33,.14,.14,.25,.3,.33,.47,.08,.17,.12,.35,.12,.54,0,.2-.04,.38-.12,.55-.08,.17-.19,.32-.33,.45-.14,.13-.3,.24-.47,.31-.17,.07-.35,.11-.54,.11-.39,0-.72-.14-1-.42-.28-.28-.42-.61-.42-1Zm2.52,12.16h-2.2v-9.2h2.2v9.2Z"/>
      <path d="M370.39,470.11c.81,0,1.51,.14,2.1,.41s1.07,.64,1.45,1.1c.38,.46,.66,.99,.84,1.58,.18,.59,.27,1.22,.27,1.87s-.09,1.27-.27,1.85-.46,1.09-.84,1.52c-.38,.43-.86,.78-1.44,1.03s-1.26,.38-2.05,.38-1.51-.13-2.1-.4c-.59-.27-1.07-.62-1.46-1.07-.39-.45-.67-.96-.86-1.55-.19-.59-.28-1.21-.28-1.86s.09-1.27,.28-1.86c.19-.59,.47-1.1,.85-1.55,.38-.45,.86-.8,1.45-1.06,.59-.26,1.27-.39,2.06-.39Zm.04,8.08c.39,0,.72-.08,1.01-.25,.29-.17,.52-.39,.71-.68,.19-.29,.32-.62,.41-.99,.09-.37,.13-.77,.13-1.18s-.05-.84-.14-1.23c-.09-.39-.24-.74-.43-1.04s-.44-.54-.73-.72c-.29-.18-.65-.27-1.06-.27-.39,0-.72,.08-1,.25-.28,.17-.51,.39-.69,.67-.18,.28-.31,.61-.4,.98-.09,.37-.13,.77-.13,1.18s.04,.84,.13,1.23,.23,.74,.42,1.05,.44,.55,.73,.73c.29,.18,.64,.27,1.04,.27Z"/>
      <path d="M383.43,479.61v-6.08c0-1.09-.47-1.64-1.4-1.64-.23,0-.47,.04-.73,.12s-.51,.2-.75,.35-.46,.34-.65,.57-.34,.49-.43,.78v5.9h-2.2v-9.2h1.72l.1,1.36h.08c.28-.56,.72-.98,1.31-1.25s1.23-.41,1.91-.41c.44,0,.85,.06,1.24,.17s.73,.3,1.03,.55c.3,.25,.54,.59,.71,1,.17,.41,.26,.92,.26,1.52v6.26h-2.2Z"/>
    </g>
    <g>
      <path d="M6.3,240.19H2.3v4h5.74v2H0v-13.2H7.64v2H2.3v3.2H6.3v2Z"/>
      <path d="M16.26,246.19v-6.08c0-1.09-.47-1.64-1.4-1.64-.23,0-.47,.04-.73,.12s-.51,.2-.75,.35-.46,.34-.65,.57c-.19,.23-.34,.49-.43,.78v5.9h-2.2v-9.2h1.72l.1,1.36h.08c.28-.56,.72-.98,1.31-1.25s1.23-.41,1.91-.41c.44,0,.85,.06,1.24,.17s.73,.3,1.03,.55c.3,.25,.54,.59,.71,1,.17,.41,.26,.92,.26,1.52v6.26h-2.2Z"/>
      <path d="M25.22,236.69c1.17,0,2.08,.3,2.72,.89,.64,.59,.96,1.43,.96,2.51,0,.15,0,.3-.03,.47-.02,.17-.05,.33-.08,.49-.03,.16-.07,.3-.12,.43-.05,.13-.1,.23-.15,.31h-5.82c.03,.4,.1,.78,.22,1.13,.12,.35,.29,.66,.52,.92,.23,.26,.5,.47,.83,.62,.33,.15,.71,.23,1.15,.23,.49,0,1.02-.09,1.57-.28,.55-.19,1.02-.42,1.41-.7l.36,1.64c-.17,.11-.39,.22-.64,.35-.25,.13-.54,.24-.86,.35-.32,.11-.66,.2-1.03,.27-.37,.07-.75,.11-1.15,.11-.75,0-1.41-.13-1.98-.39-.57-.26-1.05-.61-1.44-1.06s-.68-.96-.88-1.55c-.2-.59-.3-1.2-.3-1.84s.1-1.28,.31-1.87c.21-.59,.51-1.12,.91-1.57,.4-.45,.9-.81,1.49-1.07,.59-.26,1.27-.39,2.03-.39Zm-.06,1.72c-.56,0-1.04,.16-1.43,.49-.39,.33-.68,.77-.85,1.33h3.82s.02-.09,.03-.14c0-.05,0-.12,0-.2,0-.43-.15-.78-.44-1.06-.29-.28-.67-.42-1.14-.42Z"/>
      <path d="M36.4,238.99c-.13-.11-.34-.19-.62-.26-.28-.07-.52-.1-.72-.1-.27,0-.49,.06-.66,.19-.17,.13-.33,.29-.46,.5-.13,.21-.25,.44-.34,.71-.09,.27-.18,.54-.26,.82v5.34h-2.2v-9.2h1.72l.1,1.92h.08c.13-.28,.27-.55,.42-.82,.15-.27,.31-.5,.5-.71,.19-.21,.4-.37,.65-.5,.25-.13,.54-.19,.87-.19,.53,0,1.03,.17,1.5,.52l-.58,1.78Z"/>
      <path d="M39.76,243.29c-.6-.25-1.03-.65-1.3-1.18-.27-.53-.4-1.11-.4-1.74,0-.52,.09-1.01,.26-1.46,.17-.45,.42-.84,.75-1.17s.72-.58,1.18-.77c.46-.19,.98-.28,1.57-.28,.35,0,.69,.03,1.03,.1,.34,.06,.64,.16,.89,.29,.56,0,1.07-.04,1.53-.11s.9-.17,1.33-.3l.18,.14-.22,1.52-.1,.1-1.42-.16-.02,.06c.45,.57,.68,1.25,.68,2.02,0,.47-.08,.9-.25,1.31s-.41,.76-.73,1.06c-.32,.3-.72,.54-1.19,.72-.47,.18-1.01,.27-1.61,.27-.15,0-.26,0-.35-.01-.09,0-.17,0-.25,0-.23,.08-.4,.18-.52,.31-.12,.13-.18,.26-.18,.39,0,.15,.07,.27,.22,.38,.15,.11,.37,.18,.68,.22l1.94,.24c.44,.05,.85,.15,1.23,.28,.38,.13,.71,.31,1,.54,.29,.23,.51,.5,.67,.82,.16,.32,.24,.69,.24,1.1s-.09,.81-.26,1.2c-.17,.39-.45,.73-.82,1.02-.37,.29-.84,.53-1.41,.7-.57,.17-1.25,.26-2.05,.26-.71,0-1.33-.07-1.87-.21s-1-.33-1.37-.57c-.37-.24-.66-.52-.85-.85-.19-.33-.29-.68-.29-1.05,0-.27,.05-.53,.14-.79,.09-.26,.22-.5,.39-.72s.36-.42,.58-.59c.22-.17,.46-.3,.71-.38v-.08c-.31-.13-.52-.31-.64-.54s-.18-.45-.18-.66c0-.28,.09-.54,.28-.78,.19-.24,.45-.43,.8-.56v-.08Zm1.52,3.34c-.45,.08-.84,.27-1.16,.57-.32,.3-.48,.64-.48,1.03,0,.43,.21,.75,.63,.96,.42,.21,1.03,.32,1.83,.32s1.41-.11,1.88-.33c.47-.22,.7-.58,.7-1.07s-.26-.82-.78-1.02c-.52-.2-1.39-.35-2.62-.46Zm.62-4.46c.55,0,.96-.18,1.24-.53,.28-.35,.42-.78,.42-1.29,0-.24-.03-.48-.1-.73s-.17-.47-.32-.67c-.15-.2-.33-.36-.55-.49-.22-.13-.48-.19-.77-.19s-.53,.06-.74,.17-.39,.26-.53,.45c-.14,.19-.24,.4-.31,.63-.07,.23-.1,.47-.1,.71s.04,.48,.11,.71c.07,.23,.18,.44,.33,.62,.15,.18,.33,.33,.55,.44,.22,.11,.48,.17,.77,.17Z"/>
      <path d="M48.18,234.03c0-.19,.04-.37,.11-.54,.07-.17,.18-.33,.31-.47,.13-.14,.28-.25,.45-.33s.35-.12,.55-.12c.19,0,.37,.04,.54,.12,.17,.08,.33,.19,.47,.33,.14,.14,.25,.3,.33,.47,.08,.17,.12,.35,.12,.54,0,.2-.04,.38-.12,.55s-.19,.32-.33,.45c-.14,.13-.3,.24-.47,.31-.17,.07-.35,.11-.54,.11-.39,0-.72-.14-1-.42-.28-.28-.42-.61-.42-1Zm2.52,12.16h-2.2v-9.2h2.2v9.2Z"/>
      <path d="M57.64,236.69c1.17,0,2.08,.3,2.72,.89,.64,.59,.96,1.43,.96,2.51,0,.15,0,.3-.03,.47-.02,.17-.05,.33-.08,.49-.03,.16-.07,.3-.12,.43-.05,.13-.1,.23-.15,.31h-5.82c.03,.4,.1,.78,.22,1.13,.12,.35,.29,.66,.52,.92,.23,.26,.5,.47,.83,.62,.33,.15,.71,.23,1.15,.23,.49,0,1.02-.09,1.57-.28,.55-.19,1.02-.42,1.41-.7l.36,1.64c-.17,.11-.39,.22-.64,.35-.25,.13-.54,.24-.86,.35-.32,.11-.66,.2-1.03,.27-.37,.07-.75,.11-1.15,.11-.75,0-1.41-.13-1.98-.39-.57-.26-1.05-.61-1.44-1.06s-.68-.96-.88-1.55c-.2-.59-.3-1.2-.3-1.84s.1-1.28,.31-1.87c.21-.59,.51-1.12,.91-1.57,.4-.45,.9-.81,1.49-1.07,.59-.26,1.27-.39,2.03-.39Zm-.06,1.72c-.56,0-1.04,.16-1.43,.49-.39,.33-.68,.77-.85,1.33h3.82s.02-.09,.03-.14c0-.05,0-.12,0-.2,0-.43-.15-.78-.44-1.06-.29-.28-.67-.42-1.14-.42Z"/>
      <path d="M6.08,264.19H2.3v6H0v-13.2H7.54v2H2.3v3.2h3.78v2Z"/>
      <path d="M9.04,258.03c0-.19,.04-.37,.11-.54,.07-.17,.18-.33,.31-.47,.13-.14,.28-.25,.45-.33s.35-.12,.55-.12c.19,0,.37,.04,.54,.12,.17,.08,.33,.19,.47,.33,.14,.14,.25,.3,.33,.47,.08,.17,.12,.35,.12,.54,0,.2-.04,.38-.12,.55s-.19,.32-.33,.45c-.14,.13-.3,.24-.47,.31-.17,.07-.35,.11-.54,.11-.39,0-.72-.14-1-.42-.28-.28-.42-.61-.42-1Zm2.52,12.16h-2.2v-9.2h2.2v9.2Z"/>
      <path d="M20.48,270.19v-6.08c0-1.09-.47-1.64-1.4-1.64-.23,0-.47,.04-.73,.12s-.51,.2-.75,.35-.46,.34-.65,.57c-.19,.23-.34,.49-.43,.78v5.9h-2.2v-9.2h1.72l.1,1.36h.08c.28-.56,.72-.98,1.31-1.25s1.23-.41,1.91-.41c.44,0,.85,.06,1.24,.17s.73,.3,1.03,.55c.3,.25,.54,.59,.71,1,.17,.41,.26,.92,.26,1.52v6.26h-2.2Z"/>
      <path d="M30.86,270.19l-.16-1.26h-.08c-.36,.45-.85,.82-1.47,1.09-.62,.27-1.25,.41-1.89,.41-.84,0-1.5-.24-1.98-.73-.48-.49-.72-1.13-.72-1.93,0-.55,.12-1.04,.35-1.47,.23-.43,.57-.8,1.01-1.1,.44-.3,.97-.53,1.58-.69,.61-.16,1.3-.24,2.06-.24h.86v-.3c0-.52-.17-.9-.5-1.14-.35-.24-.89-.36-1.62-.36-.99,0-1.87,.22-2.64,.66l-.42-1.66c.89-.52,1.97-.78,3.24-.78,1.33,0,2.35,.27,3.04,.82,.32,.25,.58,.58,.79,.98,.21,.4,.31,.88,.31,1.44v6.26h-1.76Zm-2.74-1.54c.43,0,.85-.1,1.28-.31,.43-.21,.77-.48,1.02-.83v-1.82h-.38c-1.09,0-1.89,.14-2.39,.42-.5,.28-.75,.73-.75,1.34,0,.8,.41,1.2,1.22,1.2Z"/>
      <path d="M41.44,270.19v-6.08c0-1.09-.47-1.64-1.4-1.64-.23,0-.47,.04-.73,.12s-.51,.2-.75,.35-.46,.34-.65,.57c-.19,.23-.34,.49-.43,.78v5.9h-2.2v-9.2h1.72l.1,1.36h.08c.28-.56,.72-.98,1.31-1.25s1.23-.41,1.91-.41c.44,0,.85,.06,1.24,.17s.73,.3,1.03,.55c.3,.25,.54,.59,.71,1,.17,.41,.26,.92,.26,1.52v6.26h-2.2Z"/>
      <path d="M49.88,262.77h-4v-1.78h6.28v1.78l-4.32,5.64h4.52v1.78h-6.68v-1.78l4.2-5.64Z"/>
      <path d="M58.68,260.69c1.17,0,2.08,.3,2.72,.89,.64,.59,.96,1.43,.96,2.51,0,.15,0,.3-.03,.47-.02,.17-.05,.33-.08,.49-.03,.16-.07,.3-.12,.43-.05,.13-.1,.23-.15,.31h-5.82c.03,.4,.1,.78,.22,1.13,.12,.35,.29,.66,.52,.92,.23,.26,.5,.47,.83,.62,.33,.15,.71,.23,1.15,.23,.49,0,1.02-.09,1.57-.28,.55-.19,1.02-.42,1.41-.7l.36,1.64c-.17,.11-.39,.22-.64,.35-.25,.13-.54,.24-.86,.35-.32,.11-.66,.2-1.03,.27-.37,.07-.75,.11-1.15,.11-.75,0-1.41-.13-1.98-.39-.57-.26-1.05-.61-1.44-1.06s-.68-.96-.88-1.55c-.2-.59-.3-1.2-.3-1.84s.1-1.28,.31-1.87c.21-.59,.51-1.12,.91-1.57,.4-.45,.9-.81,1.49-1.07,.59-.26,1.27-.39,2.03-.39Zm-.06,1.72c-.56,0-1.04,.16-1.43,.49-.39,.33-.68,.77-.85,1.33h3.82s.02-.09,.03-.14c0-.05,0-.12,0-.2,0-.43-.15-.78-.44-1.06-.29-.28-.67-.42-1.14-.42Z"/>
      <path d="M70.76,270.19v-6.08c0-1.09-.47-1.64-1.4-1.64-.23,0-.47,.04-.73,.12s-.51,.2-.75,.35-.46,.34-.65,.57c-.19,.23-.34,.49-.43,.78v5.9h-2.2v-9.2h1.72l.1,1.36h.08c.28-.56,.72-.98,1.31-1.25s1.23-.41,1.91-.41c.44,0,.85,.06,1.24,.17s.73,.3,1.03,.55c.3,.25,.54,.59,.71,1,.17,.41,.26,.92,.26,1.52v6.26h-2.2Z"/>
      <path d="M2.3,294.19H0v-13.2H2.3v13.2Z"/>
      <path d="M11.48,294.19v-6.08c0-1.09-.47-1.64-1.4-1.64-.23,0-.47,.04-.73,.12s-.51,.2-.75,.35-.46,.34-.65,.57c-.19,.23-.34,.49-.43,.78v5.9h-2.2v-9.2h1.72l.1,1.36h.08c.28-.56,.72-.98,1.31-1.25s1.23-.41,1.91-.41c.44,0,.85,.06,1.24,.17s.73,.3,1.03,.55c.3,.25,.54,.59,.71,1,.17,.41,.26,.92,.26,1.52v6.26h-2.2Z"/>
      <path d="M19.92,294.43c-.63,0-1.2-.13-1.72-.38-.52-.25-.96-.6-1.33-1.04-.37-.44-.65-.96-.85-1.56-.2-.6-.3-1.25-.3-1.96,0-.63,.08-1.23,.25-1.81,.17-.58,.42-1.09,.77-1.53,.35-.44,.78-.79,1.29-1.06,.51-.27,1.12-.4,1.83-.4,.64,0,1.21,.11,1.72,.32,.51,.21,.91,.51,1.22,.9v-6.52h2.18v14.8h-1.76l-.16-1.26h-.08c-.37,.41-.8,.77-1.27,1.06-.47,.29-1.07,.44-1.79,.44Zm.28-1.66c.21,0,.44-.03,.68-.09,.24-.06,.48-.14,.71-.25,.23-.11,.46-.24,.67-.39s.39-.33,.54-.53v-3.84c-.4-.49-.81-.83-1.22-1.01-.41-.18-.81-.27-1.2-.27-.43,0-.79,.08-1.1,.25-.31,.17-.56,.4-.77,.69s-.36,.63-.46,1.01-.15,.78-.15,1.19,.05,.8,.14,1.19c.09,.39,.23,.74,.42,1.04,.19,.3,.43,.54,.72,.73,.29,.19,.63,.28,1.02,.28Z"/>
      <path d="M29.86,284.99v5.98c0,.55,.14,.96,.43,1.25s.66,.43,1.11,.43,.89-.16,1.28-.47c.39-.31,.67-.76,.86-1.35v-5.84h2.22v9.2h-1.72l-.12-1.28h-.08c-.15,.31-.33,.56-.56,.75s-.48,.35-.75,.46c-.27,.11-.56,.19-.85,.24-.29,.05-.58,.07-.86,.07-.44,0-.85-.05-1.23-.16-.38-.11-.71-.28-1-.53-.29-.25-.51-.57-.68-.98-.17-.41-.25-.91-.25-1.51v-6.26h2.2Z"/>
      <path d="M41.32,286.33c-.44,0-.78,.08-1.03,.25-.25,.17-.37,.4-.37,.71,0,.2,.07,.38,.21,.55,.14,.17,.44,.3,.89,.41l1.42,.32c.56,.12,1.01,.29,1.35,.52,.34,.23,.61,.47,.8,.74s.32,.54,.39,.82c.07,.28,.1,.54,.1,.78,0,.43-.09,.82-.26,1.19-.17,.37-.42,.68-.74,.95-.32,.27-.71,.48-1.16,.63-.45,.15-.96,.23-1.52,.23-.71,0-1.36-.1-1.96-.31-.6-.21-1.08-.44-1.44-.69l.52-1.9c.45,.44,.96,.77,1.53,.98,.57,.21,1.09,.32,1.57,.32,.51,0,.89-.11,1.16-.33,.27-.22,.4-.52,.4-.91,0-.23-.07-.42-.2-.57s-.4-.28-.8-.39l-1.92-.48c-.45-.11-.82-.26-1.11-.46s-.51-.42-.68-.67c-.17-.25-.28-.5-.34-.77-.06-.27-.09-.52-.09-.76,0-.89,.31-1.58,.94-2.07,.63-.49,1.44-.73,2.44-.73,.52,0,1.08,.07,1.68,.21s1.11,.34,1.52,.61l-.58,1.8c-.27-.21-.64-.43-1.12-.65-.48-.22-1.01-.33-1.6-.33Z"/>
      <path d="M47.6,286.33h-1.14v-1.2l1.3-.2,.36-2.72h1.68v2.78h1.76v1.34h-1.76v5.28c0,.4,.04,.67,.12,.81s.23,.21,.46,.21c.17,0,.35-.03,.52-.1,.17-.07,.43-.19,.76-.38l.36,1.58c-.25,.21-.61,.38-1.07,.51-.46,.13-.92,.19-1.37,.19-.4,0-.73-.05-.99-.16s-.46-.26-.61-.47c-.15-.21-.25-.46-.3-.75-.05-.29-.08-.62-.08-.98v-5.74Z"/>
      <path d="M59.08,286.99c-.13-.11-.34-.19-.62-.26-.28-.07-.52-.1-.72-.1-.27,0-.49,.06-.66,.19-.17,.13-.33,.29-.46,.5-.13,.21-.25,.44-.34,.71-.09,.27-.18,.54-.26,.82v5.34h-2.2v-9.2h1.72l.1,1.92h.08c.13-.28,.27-.55,.42-.82,.15-.27,.31-.5,.5-.71,.19-.21,.4-.37,.65-.5,.25-.13,.54-.19,.87-.19,.53,0,1.03,.17,1.5,.52l-.58,1.78Z"/>
      <path d="M60.98,282.03c0-.19,.04-.37,.11-.54,.07-.17,.18-.33,.31-.47,.13-.14,.28-.25,.45-.33s.35-.12,.55-.12c.19,0,.37,.04,.54,.12,.17,.08,.33,.19,.47,.33,.14,.14,.25,.3,.33,.47,.08,.17,.12,.35,.12,.54,0,.2-.04,.38-.12,.55s-.19,.32-.33,.45c-.14,.13-.3,.24-.47,.31-.17,.07-.35,.11-.54,.11-.39,0-.72-.14-1-.42-.28-.28-.42-.61-.42-1Zm2.52,12.16h-2.2v-9.2h2.2v9.2Z"/>
      <path d="M70.44,284.69c1.17,0,2.08,.3,2.72,.89,.64,.59,.96,1.43,.96,2.51,0,.15,0,.3-.03,.47-.02,.17-.05,.33-.08,.49-.03,.16-.07,.3-.12,.43-.05,.13-.1,.23-.15,.31h-5.82c.03,.4,.1,.78,.22,1.13,.12,.35,.29,.66,.52,.92,.23,.26,.5,.47,.83,.62,.33,.15,.71,.23,1.15,.23,.49,0,1.02-.09,1.57-.28,.55-.19,1.02-.42,1.41-.7l.36,1.64c-.17,.11-.39,.22-.64,.35-.25,.13-.54,.24-.86,.35-.32,.11-.66,.2-1.03,.27-.37,.07-.75,.11-1.15,.11-.75,0-1.41-.13-1.98-.39-.57-.26-1.05-.61-1.44-1.06s-.68-.96-.88-1.55c-.2-.59-.3-1.2-.3-1.84s.1-1.28,.31-1.87c.21-.59,.51-1.12,.91-1.57,.4-.45,.9-.81,1.49-1.07,.59-.26,1.27-.39,2.03-.39Zm-.06,1.72c-.56,0-1.04,.16-1.43,.49-.39,.33-.68,.77-.85,1.33h3.82s.02-.09,.03-.14c0-.05,0-.12,0-.2,0-.43-.15-.78-.44-1.06-.29-.28-.67-.42-1.14-.42Z"/>
    </g>
    <g>
      <path d="M26.11,19.63h-2.3V6.43h2.3v5.76c.76-.72,1.44-1.42,2.04-2.1,.56-.64,1.07-1.26,1.52-1.87,.45-.61,.85-1.2,1.18-1.79h2.52c-.59,.8-1.15,1.53-1.68,2.2-.53,.67-1.12,1.36-1.76,2.08-.24,.27-.49,.54-.74,.82-.25,.28-.51,.56-.78,.84l5.9,7.26h-2.66l-4.7-5.78-.84,.78v5Z"/>
      <path d="M39.25,10.13c.81,0,1.51,.14,2.1,.41s1.07,.64,1.45,1.1c.38,.46,.66,.99,.84,1.58,.18,.59,.27,1.22,.27,1.87s-.09,1.27-.27,1.85-.46,1.09-.84,1.52c-.38,.43-.86,.78-1.44,1.03-.58,.25-1.26,.38-2.05,.38s-1.51-.13-2.1-.4c-.59-.27-1.07-.62-1.46-1.07-.39-.45-.67-.96-.86-1.55-.19-.59-.28-1.21-.28-1.86s.09-1.27,.28-1.86c.19-.59,.47-1.1,.85-1.55s.86-.8,1.45-1.06c.59-.26,1.27-.39,2.06-.39Zm.04,8.08c.39,0,.72-.08,1.01-.25,.29-.17,.52-.39,.71-.68,.19-.29,.32-.62,.41-.99,.09-.37,.13-.77,.13-1.18s-.05-.84-.14-1.23c-.09-.39-.24-.74-.43-1.04s-.44-.54-.73-.72c-.29-.18-.65-.27-1.06-.27-.39,0-.72,.08-1,.25-.28,.17-.51,.39-.69,.67-.18,.28-.31,.61-.4,.98-.09,.37-.13,.77-.13,1.18s.04,.84,.13,1.23c.09,.39,.23,.74,.42,1.05s.44,.55,.73,.73c.29,.18,.64,.27,1.04,.27Z"/>
      <path d="M52.09,19.63v-6.08c0-1.09-.43-1.64-1.3-1.64-.21,0-.44,.04-.69,.12-.25,.08-.49,.2-.72,.35s-.45,.34-.64,.57c-.19,.23-.33,.49-.41,.78v5.9h-2.2V10.43h1.72l.1,1.36h.08c.27-.56,.69-.98,1.27-1.25s1.2-.41,1.85-.41,1.2,.12,1.71,.37c.51,.25,.9,.67,1.15,1.27,.27-.55,.69-.96,1.26-1.23s1.19-.41,1.84-.41c.43,0,.83,.06,1.21,.17s.71,.3,1,.55c.29,.25,.51,.59,.68,1,.17,.41,.25,.92,.25,1.52v6.26h-2.2v-6.08c0-1.09-.43-1.64-1.3-1.64-.21,0-.44,.04-.69,.12-.25,.08-.49,.2-.72,.35s-.45,.34-.64,.57c-.19,.23-.33,.49-.41,.78v5.9h-2.2Z"/>
      <path d="M68.79,19.63v-6.08c0-1.09-.43-1.64-1.3-1.64-.21,0-.44,.04-.69,.12-.25,.08-.49,.2-.72,.35s-.45,.34-.64,.57c-.19,.23-.33,.49-.41,.78v5.9h-2.2V10.43h1.72l.1,1.36h.08c.27-.56,.69-.98,1.27-1.25s1.2-.41,1.85-.41,1.2,.12,1.71,.37c.51,.25,.9,.67,1.15,1.27,.27-.55,.69-.96,1.26-1.23s1.19-.41,1.84-.41c.43,0,.83,.06,1.21,.17s.71,.3,1,.55c.29,.25,.51,.59,.68,1,.17,.41,.25,.92,.25,1.52v6.26h-2.2v-6.08c0-1.09-.43-1.64-1.3-1.64-.21,0-.44,.04-.69,.12-.25,.08-.49,.2-.72,.35s-.45,.34-.64,.57c-.19,.23-.33,.49-.41,.78v5.9h-2.2Z"/>
      <path d="M81.65,10.43v5.98c0,.55,.14,.96,.43,1.25s.66,.43,1.11,.43,.89-.16,1.28-.47c.39-.31,.67-.76,.86-1.35v-5.84h2.22v9.2h-1.72l-.12-1.28h-.08c-.15,.31-.33,.56-.56,.75s-.48,.35-.75,.46c-.27,.11-.56,.19-.85,.24-.29,.05-.58,.07-.86,.07-.44,0-.85-.05-1.23-.16-.38-.11-.71-.28-1-.53-.29-.25-.51-.57-.68-.98-.17-.41-.25-.91-.25-1.51v-6.26h2.2Z"/>
      <path d="M96.47,19.63v-6.08c0-1.09-.47-1.64-1.4-1.64-.23,0-.47,.04-.73,.12s-.51,.2-.75,.35-.46,.34-.65,.57c-.19,.23-.34,.49-.43,.78v5.9h-2.2V10.43h1.72l.1,1.36h.08c.28-.56,.72-.98,1.31-1.25s1.23-.41,1.91-.41c.44,0,.85,.06,1.24,.17s.73,.3,1.03,.55c.3,.25,.54,.59,.71,1,.17,.41,.26,.92,.26,1.52v6.26h-2.2Z"/>
      <path d="M100.93,7.47c0-.19,.04-.37,.11-.54,.07-.17,.18-.33,.31-.47,.13-.14,.28-.25,.45-.33s.35-.12,.55-.12c.19,0,.37,.04,.54,.12,.17,.08,.33,.19,.47,.33,.14,.14,.25,.3,.33,.47,.08,.17,.12,.35,.12,.54,0,.2-.04,.38-.12,.55s-.19,.32-.33,.45c-.14,.13-.3,.24-.47,.31-.17,.07-.35,.11-.54,.11-.39,0-.72-.14-1-.42-.28-.28-.42-.61-.42-1Zm2.52,12.16h-2.2V10.43h2.2v9.2Z"/>
      <path d="M110.65,13.67l3.92,5.96h-2.4l-2.98-4.52-.78,.78v3.74h-2.2V4.83h2.2V13.37l3.06-2.94h2.46l-3.28,3.24Z"/>
      <path d="M121.59,19.63l-.16-1.26h-.08c-.36,.45-.85,.82-1.47,1.09-.62,.27-1.25,.41-1.89,.41-.84,0-1.5-.24-1.98-.73-.48-.49-.72-1.13-.72-1.93,0-.55,.12-1.04,.35-1.47,.23-.43,.57-.8,1.01-1.1,.44-.3,.97-.53,1.58-.69,.61-.16,1.3-.24,2.06-.24h.86v-.3c0-.52-.17-.9-.5-1.14-.35-.24-.89-.36-1.62-.36-.99,0-1.87,.22-2.64,.66l-.42-1.66c.89-.52,1.97-.78,3.24-.78,1.33,0,2.35,.27,3.04,.82,.32,.25,.58,.58,.79,.98,.21,.4,.31,.88,.31,1.44v6.26h-1.76Zm-2.74-1.54c.43,0,.85-.1,1.28-.31,.43-.21,.77-.48,1.02-.83v-1.82h-.38c-1.09,0-1.89,.14-2.39,.42-.5,.28-.75,.73-.75,1.34,0,.8,.41,1.2,1.22,1.2Z"/>
      <path d="M126.35,11.77h-1.14v-1.2l1.3-.2,.36-2.72h1.68v2.78h1.76v1.34h-1.76v5.28c0,.4,.04,.67,.12,.81s.23,.21,.46,.21c.17,0,.35-.03,.52-.1,.17-.07,.43-.19,.76-.38l.36,1.58c-.25,.21-.61,.38-1.07,.51-.46,.13-.92,.19-1.37,.19-.4,0-.73-.05-.99-.16s-.46-.26-.61-.47c-.15-.21-.25-.46-.3-.75-.05-.29-.08-.62-.08-.98v-5.74Z"/>
      <path d="M132.25,7.47c0-.19,.04-.37,.11-.54,.07-.17,.18-.33,.31-.47,.13-.14,.28-.25,.45-.33s.35-.12,.55-.12c.19,0,.37,.04,.54,.12,.17,.08,.33,.19,.47,.33,.14,.14,.25,.3,.33,.47,.08,.17,.12,.35,.12,.54,0,.2-.04,.38-.12,.55s-.19,.32-.33,.45c-.14,.13-.3,.24-.47,.31-.17,.07-.35,.11-.54,.11-.39,0-.72-.14-1-.42-.28-.28-.42-.61-.42-1Zm2.52,12.16h-2.2V10.43h2.2v9.2Z"/>
      <path d="M141.63,10.13c.81,0,1.51,.14,2.1,.41s1.07,.64,1.45,1.1c.38,.46,.66,.99,.84,1.58,.18,.59,.27,1.22,.27,1.87s-.09,1.27-.27,1.85-.46,1.09-.84,1.52c-.38,.43-.86,.78-1.44,1.03-.58,.25-1.26,.38-2.05,.38s-1.51-.13-2.1-.4c-.59-.27-1.07-.62-1.46-1.07-.39-.45-.67-.96-.86-1.55-.19-.59-.28-1.21-.28-1.86s.09-1.27,.28-1.86c.19-.59,.47-1.1,.85-1.55s.86-.8,1.45-1.06c.59-.26,1.27-.39,2.06-.39Zm.04,8.08c.39,0,.72-.08,1.01-.25,.29-.17,.52-.39,.71-.68,.19-.29,.32-.62,.41-.99,.09-.37,.13-.77,.13-1.18s-.05-.84-.14-1.23c-.09-.39-.24-.74-.43-1.04s-.44-.54-.73-.72c-.29-.18-.65-.27-1.06-.27-.39,0-.72,.08-1,.25-.28,.17-.51,.39-.69,.67-.18,.28-.31,.61-.4,.98-.09,.37-.13,.77-.13,1.18s.04,.84,.13,1.23c.09,.39,.23,.74,.42,1.05s.44,.55,.73,.73c.29,.18,.64,.27,1.04,.27Z"/>
      <path d="M154.67,19.63v-6.08c0-1.09-.47-1.64-1.4-1.64-.23,0-.47,.04-.73,.12s-.51,.2-.75,.35-.46,.34-.65,.57c-.19,.23-.34,.49-.43,.78v5.9h-2.2V10.43h1.72l.1,1.36h.08c.28-.56,.72-.98,1.31-1.25s1.23-.41,1.91-.41c.44,0,.85,.06,1.24,.17s.73,.3,1.03,.55c.3,.25,.54,.59,.71,1,.17,.41,.26,.92,.26,1.52v6.26h-2.2Z"/>
      <path d="M34.05,42.53c-.6,.4-1.29,.72-2.06,.97-.77,.25-1.62,.37-2.54,.37-1.11,0-2.06-.18-2.86-.54-.8-.36-1.46-.85-1.99-1.46s-.92-1.32-1.17-2.13c-.25-.81-.38-1.66-.38-2.57s.14-1.83,.42-2.66c.28-.83,.7-1.55,1.25-2.17,.55-.62,1.24-1.11,2.07-1.47,.83-.36,1.79-.54,2.9-.54,.75,0,1.49,.08,2.22,.23,.73,.15,1.39,.36,1.96,.63l-.64,2.08c-.45-.27-.98-.5-1.58-.69-.6-.19-1.28-.29-2.04-.29s-1.4,.11-1.93,.33c-.53,.22-.95,.54-1.27,.95-.32,.41-.55,.91-.7,1.49-.15,.58-.22,1.24-.22,1.97,0,3.25,1.38,4.88,4.14,4.88,.49,0,.89-.04,1.18-.12s.61-.17,.94-.28v-3.32h2.3v4.34Z"/>
      <path d="M40.65,34.13c1.17,0,2.08,.3,2.72,.89,.64,.59,.96,1.43,.96,2.51,0,.15,0,.3-.03,.47-.02,.17-.05,.33-.08,.49-.03,.16-.07,.3-.12,.43-.05,.13-.1,.23-.15,.31h-5.82c.03,.4,.1,.78,.22,1.13,.12,.35,.29,.66,.52,.92,.23,.26,.5,.47,.83,.62,.33,.15,.71,.23,1.15,.23,.49,0,1.02-.09,1.57-.28,.55-.19,1.02-.42,1.41-.7l.36,1.64c-.17,.11-.39,.22-.64,.35-.25,.13-.54,.24-.86,.35-.32,.11-.66,.2-1.03,.27-.37,.07-.75,.11-1.15,.11-.75,0-1.41-.13-1.98-.39-.57-.26-1.05-.61-1.44-1.06s-.68-.96-.88-1.55c-.2-.59-.3-1.2-.3-1.84s.1-1.28,.31-1.87c.21-.59,.51-1.12,.91-1.57,.4-.45,.9-.81,1.49-1.07,.59-.26,1.27-.39,2.03-.39Zm-.06,1.72c-.56,0-1.04,.16-1.43,.49-.39,.33-.68,.77-.85,1.33h3.82s.02-.09,.03-.14c0-.05,0-.12,0-.2,0-.43-.15-.78-.44-1.06-.29-.28-.67-.42-1.14-.42Z"/>
      <path d="M49.37,35.77c-.44,0-.78,.08-1.03,.25-.25,.17-.37,.4-.37,.71,0,.2,.07,.38,.21,.55,.14,.17,.44,.3,.89,.41l1.42,.32c.56,.12,1.01,.29,1.35,.52,.34,.23,.61,.47,.8,.74s.32,.54,.39,.82c.07,.28,.1,.54,.1,.78,0,.43-.09,.82-.26,1.19-.17,.37-.42,.68-.74,.95-.32,.27-.71,.48-1.16,.63-.45,.15-.96,.23-1.52,.23-.71,0-1.36-.1-1.96-.31-.6-.21-1.08-.44-1.44-.69l.52-1.9c.45,.44,.96,.77,1.53,.98,.57,.21,1.09,.32,1.57,.32,.51,0,.89-.11,1.16-.33,.27-.22,.4-.52,.4-.91,0-.23-.07-.42-.2-.57s-.4-.28-.8-.39l-1.92-.48c-.45-.11-.82-.26-1.11-.46s-.51-.42-.68-.67c-.17-.25-.28-.5-.34-.77-.06-.27-.09-.52-.09-.76,0-.89,.31-1.58,.94-2.07,.63-.49,1.44-.73,2.44-.73,.52,0,1.08,.07,1.68,.21s1.11,.34,1.52,.61l-.58,1.8c-.27-.21-.64-.43-1.12-.65-.48-.22-1.01-.33-1.6-.33Z"/>
      <path d="M57.35,34.43v5.98c0,.55,.14,.96,.43,1.25s.66,.43,1.11,.43,.89-.16,1.28-.47c.39-.31,.67-.76,.86-1.35v-5.84h2.22v9.2h-1.72l-.12-1.28h-.08c-.15,.31-.33,.56-.56,.75s-.48,.35-.75,.46c-.27,.11-.56,.19-.85,.24-.29,.05-.58,.07-.86,.07-.44,0-.85-.05-1.23-.16-.38-.11-.71-.28-1-.53-.29-.25-.51-.57-.68-.98-.17-.41-.25-.91-.25-1.51v-6.26h2.2Z"/>
      <path d="M72.17,43.63v-6.08c0-1.09-.47-1.64-1.4-1.64-.23,0-.47,.04-.73,.12s-.51,.2-.75,.35-.46,.34-.65,.57c-.19,.23-.34,.49-.43,.78v5.9h-2.2v-9.2h1.72l.1,1.36h.08c.28-.56,.72-.98,1.31-1.25s1.23-.41,1.91-.41c.44,0,.85,.06,1.24,.17s.73,.3,1.03,.55c.3,.25,.54,.59,.71,1,.17,.41,.26,.92,.26,1.52v6.26h-2.2Z"/>
      <path d="M80.61,43.87c-.63,0-1.2-.13-1.72-.38-.52-.25-.96-.6-1.33-1.04-.37-.44-.65-.96-.85-1.56-.2-.6-.3-1.25-.3-1.96,0-.63,.08-1.23,.25-1.81,.17-.58,.42-1.09,.77-1.53,.35-.44,.78-.79,1.29-1.06,.51-.27,1.12-.4,1.83-.4,.64,0,1.21,.11,1.72,.32,.51,.21,.91,.51,1.22,.9v-6.52h2.18v14.8h-1.76l-.16-1.26h-.08c-.37,.41-.8,.77-1.27,1.06-.47,.29-1.07,.44-1.79,.44Zm.28-1.66c.21,0,.44-.03,.68-.09,.24-.06,.48-.14,.71-.25,.23-.11,.46-.24,.67-.39s.39-.33,.54-.53v-3.84c-.4-.49-.81-.83-1.22-1.01-.41-.18-.81-.27-1.2-.27-.43,0-.79,.08-1.1,.25-.31,.17-.56,.4-.77,.69s-.36,.63-.46,1.01-.15,.78-.15,1.19,.05,.8,.14,1.19c.09,.39,.23,.74,.42,1.04,.19,.3,.43,.54,.72,.73,.29,.19,.63,.28,1.02,.28Z"/>
      <path d="M90.63,35.79c.37-.59,.81-1.01,1.31-1.27,.5-.26,1.09-.39,1.77-.39,.4,0,.79,.06,1.16,.17,.37,.11,.7,.3,.99,.55,.29,.25,.51,.59,.68,1,.17,.41,.25,.92,.25,1.52v6.26h-2.2v-6.08c0-.55-.12-.96-.36-1.23-.24-.27-.57-.41-.98-.41-.25,0-.52,.04-.79,.12s-.53,.2-.77,.36c-.24,.16-.45,.35-.64,.58-.19,.23-.33,.48-.42,.76v5.9h-2.2v-14.8h2.2v6.96Z"/>
      <path d="M103.65,34.13c1.17,0,2.08,.3,2.72,.89,.64,.59,.96,1.43,.96,2.51,0,.15,0,.3-.03,.47-.02,.17-.05,.33-.08,.49-.03,.16-.07,.3-.12,.43-.05,.13-.1,.23-.15,.31h-5.82c.03,.4,.1,.78,.22,1.13,.12,.35,.29,.66,.52,.92,.23,.26,.5,.47,.83,.62,.33,.15,.71,.23,1.15,.23,.49,0,1.02-.09,1.57-.28,.55-.19,1.02-.42,1.41-.7l.36,1.64c-.17,.11-.39,.22-.64,.35-.25,.13-.54,.24-.86,.35-.32,.11-.66,.2-1.03,.27-.37,.07-.75,.11-1.15,.11-.75,0-1.41-.13-1.98-.39-.57-.26-1.05-.61-1.44-1.06s-.68-.96-.88-1.55c-.2-.59-.3-1.2-.3-1.84s.1-1.28,.31-1.87c.21-.59,.51-1.12,.91-1.57,.4-.45,.9-.81,1.49-1.07,.59-.26,1.27-.39,2.03-.39Zm-.06,1.72c-.56,0-1.04,.16-1.43,.49-.39,.33-.68,.77-.85,1.33h3.82s.02-.09,.03-.14c0-.05,0-.12,0-.2,0-.43-.15-.78-.44-1.06-.29-.28-.67-.42-1.14-.42Z"/>
      <path d="M109.25,31.47c0-.19,.04-.37,.11-.54,.07-.17,.18-.33,.31-.47,.13-.14,.28-.25,.45-.33s.35-.12,.55-.12c.19,0,.37,.04,.54,.12,.17,.08,.33,.19,.47,.33,.14,.14,.25,.3,.33,.47,.08,.17,.12,.35,.12,.54,0,.2-.04,.38-.12,.55s-.19,.32-.33,.45c-.14,.13-.3,.24-.47,.31-.17,.07-.35,.11-.54,.11-.39,0-.72-.14-1-.42-.28-.28-.42-.61-.42-1Zm2.52,12.16h-2.2v-9.2h2.2v9.2Z"/>
      <path d="M114.95,35.77h-1.14v-1.2l1.3-.2,.36-2.72h1.68v2.78h1.76v1.34h-1.76v5.28c0,.4,.04,.67,.12,.81s.23,.21,.46,.21c.17,0,.35-.03,.52-.1,.17-.07,.43-.19,.76-.38l.36,1.58c-.25,.21-.61,.38-1.07,.51-.46,.13-.92,.19-1.37,.19-.4,0-.73-.05-.99-.16s-.46-.26-.61-.47c-.15-.21-.25-.46-.3-.75-.05-.29-.08-.62-.08-.98v-5.74Z"/>
      <path d="M32.41,56.43h-3.82v11.2h-2.3v-11.2h-3.82v-2h9.94v2Z"/>
      <path d="M36.69,58.13c1.17,0,2.08,.3,2.72,.89,.64,.59,.96,1.43,.96,2.51,0,.15,0,.3-.03,.47-.02,.17-.05,.33-.08,.49-.03,.16-.07,.3-.12,.43-.05,.13-.1,.23-.15,.31h-5.82c.03,.4,.1,.78,.22,1.13,.12,.35,.29,.66,.52,.92,.23,.26,.5,.47,.83,.62,.33,.15,.71,.23,1.15,.23,.49,0,1.02-.09,1.57-.28,.55-.19,1.02-.42,1.41-.7l.36,1.64c-.17,.11-.39,.22-.64,.35-.25,.13-.54,.24-.86,.35-.32,.11-.66,.2-1.03,.27-.37,.07-.75,.11-1.15,.11-.75,0-1.41-.13-1.98-.39-.57-.26-1.05-.61-1.44-1.06s-.68-.96-.88-1.55c-.2-.59-.3-1.2-.3-1.84s.1-1.28,.31-1.87c.21-.59,.51-1.12,.91-1.57,.4-.45,.9-.81,1.49-1.07,.59-.26,1.27-.39,2.03-.39Zm-.06,1.72c-.56,0-1.04,.16-1.43,.49-.39,.33-.68,.77-.85,1.33h3.82s.02-.09,.03-.14c0-.05,0-.12,0-.2,0-.43-.15-.78-.44-1.06-.29-.28-.67-.42-1.14-.42Z"/>
      <path d="M49.71,60.71c-.15-.11-.33-.21-.55-.32-.22-.11-.46-.2-.71-.28s-.52-.14-.79-.19c-.27-.05-.53-.07-.77-.07-.45,0-.84,.08-1.15,.25-.31,.17-.57,.39-.76,.66-.19,.27-.33,.59-.42,.95s-.13,.73-.13,1.12c0,.45,.05,.88,.16,1.27,.11,.39,.27,.74,.48,1.03,.21,.29,.48,.53,.81,.7,.33,.17,.7,.26,1.13,.26,.48,0,.99-.1,1.53-.29,.54-.19,.99-.46,1.35-.81l.4,1.88c-.37,.24-.88,.47-1.53,.68-.65,.21-1.34,.32-2.07,.32-.77,0-1.45-.13-2.03-.4s-1.06-.62-1.44-1.07-.67-.97-.86-1.56-.29-1.22-.29-1.89,.09-1.25,.27-1.83c.18-.58,.46-1.09,.85-1.54s.88-.8,1.48-1.06c.6-.26,1.32-.39,2.16-.39,.64,0,1.27,.07,1.88,.22,.61,.15,1.11,.34,1.48,.58l-.48,1.78Z"/>
      <path d="M54.59,59.79c.37-.59,.81-1.01,1.31-1.27,.5-.26,1.09-.39,1.77-.39,.4,0,.79,.06,1.16,.17,.37,.11,.7,.3,.99,.55,.29,.25,.51,.59,.68,1,.17,.41,.25,.92,.25,1.52v6.26h-2.2v-6.08c0-.55-.12-.96-.36-1.23-.24-.27-.57-.41-.98-.41-.25,0-.52,.04-.79,.12s-.53,.2-.77,.36c-.24,.16-.45,.35-.64,.58-.19,.23-.33,.48-.42,.76v5.9h-2.2v-14.8h2.2v6.96Z"/>
      <path d="M69.59,67.63v-6.08c0-1.09-.47-1.64-1.4-1.64-.23,0-.47,.04-.73,.12s-.51,.2-.75,.35-.46,.34-.65,.57c-.19,.23-.34,.49-.43,.78v5.9h-2.2v-9.2h1.72l.1,1.36h.08c.28-.56,.72-.98,1.31-1.25s1.23-.41,1.91-.41c.44,0,.85,.06,1.24,.17s.73,.3,1.03,.55c.3,.25,.54,.59,.71,1,.17,.41,.26,.92,.26,1.52v6.26h-2.2Z"/>
      <path d="M78.47,58.13c.81,0,1.51,.14,2.1,.41s1.07,.64,1.45,1.1c.38,.46,.66,.99,.84,1.58,.18,.59,.27,1.22,.27,1.87s-.09,1.27-.27,1.85-.46,1.09-.84,1.52c-.38,.43-.86,.78-1.44,1.03-.58,.25-1.26,.38-2.05,.38s-1.51-.13-2.1-.4c-.59-.27-1.07-.62-1.46-1.07-.39-.45-.67-.96-.86-1.55-.19-.59-.28-1.21-.28-1.86s.09-1.27,.28-1.86c.19-.59,.47-1.1,.85-1.55s.86-.8,1.45-1.06c.59-.26,1.27-.39,2.06-.39Zm.04,8.08c.39,0,.72-.08,1.01-.25,.29-.17,.52-.39,.71-.68,.19-.29,.32-.62,.41-.99,.09-.37,.13-.77,.13-1.18s-.05-.84-.14-1.23c-.09-.39-.24-.74-.43-1.04s-.44-.54-.73-.72c-.29-.18-.65-.27-1.06-.27-.39,0-.72,.08-1,.25-.28,.17-.51,.39-.69,.67-.18,.28-.31,.61-.4,.98-.09,.37-.13,.77-.13,1.18s.04,.84,.13,1.23c.09,.39,.23,.74,.42,1.05s.44,.55,.73,.73c.29,.18,.64,.27,1.04,.27Z"/>
      <path d="M87.67,67.63h-2.2v-14.8h2.2v14.8Z"/>
      <path d="M94.65,58.13c.81,0,1.51,.14,2.1,.41s1.07,.64,1.45,1.1c.38,.46,.66,.99,.84,1.58,.18,.59,.27,1.22,.27,1.87s-.09,1.27-.27,1.85-.46,1.09-.84,1.52c-.38,.43-.86,.78-1.44,1.03-.58,.25-1.26,.38-2.05,.38s-1.51-.13-2.1-.4c-.59-.27-1.07-.62-1.46-1.07-.39-.45-.67-.96-.86-1.55-.19-.59-.28-1.21-.28-1.86s.09-1.27,.28-1.86c.19-.59,.47-1.1,.85-1.55s.86-.8,1.45-1.06c.59-.26,1.27-.39,2.06-.39Zm.04,8.08c.39,0,.72-.08,1.01-.25,.29-.17,.52-.39,.71-.68,.19-.29,.32-.62,.41-.99,.09-.37,.13-.77,.13-1.18s-.05-.84-.14-1.23c-.09-.39-.24-.74-.43-1.04s-.44-.54-.73-.72c-.29-.18-.65-.27-1.06-.27-.39,0-.72,.08-1,.25-.28,.17-.51,.39-.69,.67-.18,.28-.31,.61-.4,.98-.09,.37-.13,.77-.13,1.18s.04,.84,.13,1.23c.09,.39,.23,.74,.42,1.05s.44,.55,.73,.73c.29,.18,.64,.27,1.04,.27Z"/>
      <path d="M102.75,64.73c-.6-.25-1.03-.65-1.3-1.18-.27-.53-.4-1.11-.4-1.74,0-.52,.09-1.01,.26-1.46,.17-.45,.42-.84,.75-1.17s.72-.58,1.18-.77c.46-.19,.98-.28,1.57-.28,.35,0,.69,.03,1.03,.1,.34,.06,.64,.16,.89,.29,.56,0,1.07-.04,1.53-.11s.9-.17,1.33-.3l.18,.14-.22,1.52-.1,.1-1.42-.16-.02,.06c.45,.57,.68,1.25,.68,2.02,0,.47-.08,.9-.25,1.31s-.41,.76-.73,1.06c-.32,.3-.72,.54-1.19,.72-.47,.18-1.01,.27-1.61,.27-.15,0-.26,0-.35-.01-.09,0-.17,0-.25,0-.23,.08-.4,.18-.52,.31-.12,.13-.18,.26-.18,.39,0,.15,.07,.27,.22,.38,.15,.11,.37,.18,.68,.22l1.94,.24c.44,.05,.85,.15,1.23,.28,.38,.13,.71,.31,1,.54,.29,.23,.51,.5,.67,.82,.16,.32,.24,.69,.24,1.1s-.09,.81-.26,1.2c-.17,.39-.45,.73-.82,1.02-.37,.29-.84,.53-1.41,.7-.57,.17-1.25,.26-2.05,.26-.71,0-1.33-.07-1.87-.21s-1-.33-1.37-.57c-.37-.24-.66-.52-.85-.85-.19-.33-.29-.68-.29-1.05,0-.27,.05-.53,.14-.79,.09-.26,.22-.5,.39-.72s.36-.42,.58-.59c.22-.17,.46-.3,.71-.38v-.08c-.31-.13-.52-.31-.64-.54s-.18-.45-.18-.66c0-.28,.09-.54,.28-.78,.19-.24,.45-.43,.8-.56v-.08Zm1.52,3.34c-.45,.08-.84,.27-1.16,.57-.32,.3-.48,.64-.48,1.03,0,.43,.21,.75,.63,.96,.42,.21,1.03,.32,1.83,.32s1.41-.11,1.88-.33c.47-.22,.7-.58,.7-1.07s-.26-.82-.78-1.02c-.52-.2-1.39-.35-2.62-.46Zm.62-4.46c.55,0,.96-.18,1.24-.53,.28-.35,.42-.78,.42-1.29,0-.24-.03-.48-.1-.73s-.17-.47-.32-.67c-.15-.2-.33-.36-.55-.49-.22-.13-.48-.19-.77-.19s-.53,.06-.74,.17-.39,.26-.53,.45c-.14,.19-.24,.4-.31,.63-.07,.23-.1,.47-.1,.71s.04,.48,.11,.71c.07,.23,.18,.44,.33,.62,.15,.18,.33,.33,.55,.44,.22,.11,.48,.17,.77,.17Z"/>
      <path d="M111.17,55.47c0-.19,.04-.37,.11-.54,.07-.17,.18-.33,.31-.47,.13-.14,.28-.25,.45-.33s.35-.12,.55-.12c.19,0,.37,.04,.54,.12,.17,.08,.33,.19,.47,.33,.14,.14,.25,.3,.33,.47,.08,.17,.12,.35,.12,.54,0,.2-.04,.38-.12,.55s-.19,.32-.33,.45c-.14,.13-.3,.24-.47,.31-.17,.07-.35,.11-.54,.11-.39,0-.72-.14-1-.42-.28-.28-.42-.61-.42-1Zm2.52,12.16h-2.2v-9.2h2.2v9.2Z"/>
      <path d="M120.63,58.13c1.17,0,2.08,.3,2.72,.89,.64,.59,.96,1.43,.96,2.51,0,.15,0,.3-.03,.47-.02,.17-.05,.33-.08,.49-.03,.16-.07,.3-.12,.43-.05,.13-.1,.23-.15,.31h-5.82c.03,.4,.1,.78,.22,1.13,.12,.35,.29,.66,.52,.92,.23,.26,.5,.47,.83,.62,.33,.15,.71,.23,1.15,.23,.49,0,1.02-.09,1.57-.28,.55-.19,1.02-.42,1.41-.7l.36,1.64c-.17,.11-.39,.22-.64,.35-.25,.13-.54,.24-.86,.35-.32,.11-.66,.2-1.03,.27-.37,.07-.75,.11-1.15,.11-.75,0-1.41-.13-1.98-.39-.57-.26-1.05-.61-1.44-1.06s-.68-.96-.88-1.55c-.2-.59-.3-1.2-.3-1.84s.1-1.28,.31-1.87c.21-.59,.51-1.12,.91-1.57,.4-.45,.9-.81,1.49-1.07,.59-.26,1.27-.39,2.03-.39Zm-.06,1.72c-.56,0-1.04,.16-1.43,.49-.39,.33-.68,.77-.85,1.33h3.82s.02-.09,.03-.14c0-.05,0-.12,0-.2,0-.43-.15-.78-.44-1.06-.29-.28-.67-.42-1.14-.42Z"/>
    </g>
  </g>
</svg>