<?xml version="1.0" encoding="UTF-8"?>
<svg id="Ebene_2" data-name="Ebene 2" xmlns="http://www.w3.org/2000/svg" viewBox="0 0 845.27 875.2">
  <defs>
    <style>
      .cls-1 {
        fill: #ff6b35;
      }
    </style>
  </defs>
  <g id="Ebene_1-2" data-name="Ebene 1">
    <path class="cls-1" d="M845.1,508.1c-.1-5.3-2.4-11.6-5.5-16-43-57.9-86.5-115.9-130.1-173.3-2.8-3.7-8.9-6.7-13.6-6.7-29.2-.1-58.5-.1-87.8-.1l-48.1,46.8h109.9c6.4-.1,11.6,.4,16.2,6.6,31.8,43,64,85.7,96.1,128.5,1,1.3,1.8,2.8,3.7,5.9h-268.7c-2.3,30.7-13.7,56.5-38.8,75.2-18.2,13.5-38.9,19.8-61.5,18.3-37.4-2.3-83.6-28.8-88.7-93.2H59.1c2.9-4.2,4.7-6.9,6.6-9.5,30.6-40.9,61.3-81.6,91.7-122.7,4.8-6.4,9.7-9.2,18-9.2,36.6,.1,73.1,.1,109.7,.1l-47.9-46.8c-29.2,0-58.5,0-87.8,.1-4.6,0-10.8,3.1-13.5,6.7-43.7,57.6-87.1,115.3-130.1,173.4-3.4,4.6-5.5,11.4-5.5,17.1-.3,113-.3,226-.3,339.1,0,21.5,5.4,26.8,27.4,26.8H820.1c19,0,25.1-6,25.1-24.8,.1-114.3,.1-228.3-.1-342.3h0Zm-434.6-68.2c6.7,6.6,17.7,6.6,24.4,0l205.6-199.8c6.7-6.6,6.7-17.1,0-23.7l-41-39.6c-6.7-6.6-17.7-6.6-24.4,0l-97.2,94.5V16.7c0-9.3-7.7-16.7-17.2-16.7h-69c-9.5,0-17.2,7.5-17.2,16.7V278.1l-104.4-101.3c-6.7-6.6-17.7-6.6-24.4,0l-40.9,39.7c-6.7,6.6-6.7,17.2,0,23.7l205.7,199.7h0Z"/>
  </g>
</svg>