<?xml version="1.0" encoding="UTF-8"?>
<svg id="Ebene_2" data-name="Ebene 2" xmlns="http://www.w3.org/2000/svg" viewBox="0 0 989 989">
  <defs>
    <style>
      .cls-1 {
        fill: #ff6b35;
      }
    </style>
  </defs>
  <g id="Ebene_1-2" data-name="Ebene 1">
    <path class="cls-1" d="M494.5,237.7c-141.6,0-256.8,115.2-256.8,256.8s115.2,256.7,256.8,256.7,256.7-115.2,256.7-256.7c.1-141.6-115.1-256.8-256.7-256.8h0Zm0,415.6c-87.6,0-158.8-71.2-158.8-158.8s71.2-158.8,158.8-158.8,158.8,71.2,158.8,158.8-71.2,158.8-158.8,158.8ZM704.4,0H284.6C127.7,0,0,127.7,0,284.6v419.8c0,156.9,127.7,284.6,284.6,284.6h419.8c156.9,0,284.6-127.7,284.6-284.6V284.6C989,127.7,861.4,0,704.4,0h0Zm186.7,704.4c0,102.9-83.8,186.6-186.7,186.6H284.6c-102.9,0-186.6-83.7-186.6-186.6V284.6c0-102.9,83.7-186.6,186.6-186.6h419.8c102.9,0,186.6,83.7,186.6,186.6v419.8h.1ZM754.8,163.5c-37,0-67.2,30.1-67.2,67.2s30.1,67.2,67.2,67.2,67.2-30.1,67.2-67.2-30.2-67.2-67.2-67.2Z"/>
  </g>
</svg>