<?xml version="1.0" encoding="UTF-8"?>
<svg id="Ebene_2" data-name="Ebene 2" xmlns="http://www.w3.org/2000/svg" viewBox="0 0 1600.25 942.72">
  <defs>
    <style>
      .cls-1 {
        stroke: #ff6b35;
      }

      .cls-1, .cls-2, .cls-3, .cls-4 {
        fill: none;
      }

      .cls-1, .cls-4 {
        stroke-linecap: round;
        stroke-linejoin: round;
        stroke-width: 12px;
      }

      .cls-2 {
        stroke-width: .25px;
      }

      .cls-2, .cls-3 {
        stroke: #000;
        stroke-miterlimit: 10;
      }

      .cls-3 {
        stroke-width: 2px;
      }

      .cls-4 {
        stroke: #253c78;
      }
    </style>
  </defs>
  <g id="Ebene_1-2" data-name="Ebene 1">
    <rect class="cls-2" x=".12" y=".12" width="1600" height="942.47"/>
    <path class="cls-1" d="M205.93,541.33c14.88-35.15,36.06-77.09,66.34-121.27,26.35-38.46,53.47-69.69,77.74-94.32"/>
    <path class="cls-4" d="M350,327.81c1.51-2.04,21.15-27.62,53.9-25.91,23.97,1.25,45.4,16.62,54.94,39.39"/>
    <path class="cls-1" d="M458.84,341.28c15.32,25.49,30.63,52.78,45.61,81.89,27.53,53.53,49.6,104.8,67.37,152.37"/>
    <path class="cls-4" d="M656.82,666.75c-8.16-.38-21.35-2.19-34.21-10.37-13.15-8.37-19.63-19.37-31.1-39.39-5.55-9.69-12.73-23.56-19.37-41.24"/>
    <path class="cls-1" d="M656.82,666.75c2.97-.33,7.42-1.1,12.44-3.11,3.8-1.52,10.95-4.97,21.77-16.58,8.21-8.82,13.2-16.61,14.51-18.66,30.16-47.12,29.96-46.67,31.1-48.72,16.16-29.13,25.91-48.72,25.91-48.72,14.36-28.83,23.22-47.69,30.92-64.16,7.7-16.47,12.33-26.19,16.53-34.79,3.68-7.53,6.36-12.83,7.48-15.07,6.1-12.16,15.73-32.16,31.1-66.34"/>
    <path class="cls-4" d="M848.57,350.61c4.37-9.46,19.58-39.42,49.75-49.75,4.46-1.53,12.44-4.17,22.8-3.11,20.74,2.11,33.71,17.25,37.31,21.77"/>
    <path class="cls-1" d="M960.52,321.59c5.11,6.7,12.84,17.07,21.77,30.06,39.67,57.71,51.81,92.63,97.43,169.99,4.94,8.37,11.99,20.16,20.73,34.21"/>
    <path class="cls-4" d="M1204.1,581.76c-5.15,3.59-14.75,9.27-27.99,11.4-20.16,3.25-35.75-3.83-42.01-6.77-19.5-9.17-29.79-24.02-33.78-30.57"/>
    <path class="cls-1" d="M1204.42,582.02c13.43-9.24,33.08-24.17,53.58-45.87,7.38-7.81,20.02-21.95,51.83-69.45,12.66-18.9,29.56-44.88,48.72-76.7"/>
    <g>
      <path d="M293.3,267.23h-4.77v-12.02h-13.1v12.02h-4.77v-27.36h4.77v11.19h13.1v-11.19h4.77v27.36Z"/>
      <path d="M307.81,247.54c1.69,0,3.14,.28,4.35,.85,1.22,.57,2.22,1.33,3.01,2.28s1.37,2.05,1.74,3.28,.56,2.52,.56,3.88-.19,2.63-.56,3.83c-.37,1.2-.95,2.25-1.74,3.15-.79,.9-1.78,1.61-2.99,2.14-1.2,.52-2.62,.79-4.25,.79s-3.14-.28-4.35-.83c-1.22-.55-2.23-1.29-3.03-2.22-.8-.93-1.4-2-1.78-3.21-.39-1.22-.58-2.5-.58-3.86s.19-2.64,.58-3.86c.39-1.22,.97-2.29,1.76-3.21,.79-.93,1.79-1.66,3.01-2.2,1.22-.54,2.64-.81,4.27-.81Zm.08,16.75c.8,0,1.5-.17,2.09-.52,.59-.35,1.08-.81,1.47-1.41,.39-.59,.67-1.28,.85-2.05,.18-.77,.27-1.59,.27-2.45s-.1-1.73-.29-2.55c-.19-.81-.49-1.53-.89-2.16-.4-.62-.91-1.12-1.51-1.49-.61-.37-1.34-.56-2.2-.56-.8,0-1.49,.17-2.07,.52-.58,.35-1.06,.81-1.43,1.39s-.65,1.26-.83,2.03c-.18,.77-.27,1.59-.27,2.45s.09,1.73,.27,2.55c.18,.82,.47,1.54,.87,2.18,.4,.64,.91,1.14,1.51,1.51s1.33,.56,2.16,.56Z"/>
      <path d="M336.79,252.89c-.3-.22-.68-.44-1.14-.66-.46-.22-.95-.41-1.47-.58-.53-.17-1.07-.3-1.64-.39-.57-.1-1.1-.15-1.6-.15-.94,0-1.73,.17-2.38,.52-.65,.35-1.18,.8-1.58,1.37-.4,.57-.69,1.22-.87,1.97-.18,.75-.27,1.52-.27,2.32,0,.94,.11,1.82,.33,2.63,.22,.82,.55,1.53,1,2.14,.44,.61,1,1.09,1.68,1.45,.68,.36,1.46,.54,2.34,.54,1,0,2.05-.2,3.17-.6,1.12-.4,2.05-.96,2.8-1.68l.83,3.9c-.77,.5-1.83,.97-3.17,1.41-1.34,.44-2.77,.66-4.29,.66-1.6,0-3.01-.28-4.21-.83-1.2-.55-2.2-1.29-2.98-2.22-.79-.93-1.38-2-1.78-3.23-.4-1.23-.6-2.54-.6-3.92s.19-2.59,.56-3.79c.37-1.2,.96-2.27,1.76-3.19,.8-.93,1.82-1.66,3.07-2.2,1.24-.54,2.74-.81,4.48-.81,1.33,0,2.63,.15,3.9,.46,1.27,.3,2.29,.7,3.07,1.2l-1,3.69Z"/>
      <path d="M346.91,250.98c.77-1.22,1.68-2.09,2.72-2.63,1.04-.54,2.26-.81,3.67-.81,.83,0,1.63,.12,2.4,.35,.77,.24,1.46,.62,2.05,1.14,.59,.53,1.06,1.22,1.41,2.07,.35,.86,.52,1.91,.52,3.15v12.98h-4.56v-12.6c0-1.13-.25-1.98-.75-2.55-.5-.57-1.18-.85-2.03-.85-.53,0-1.07,.08-1.64,.25-.57,.17-1.1,.41-1.6,.75-.5,.33-.94,.73-1.33,1.2-.39,.47-.68,1-.87,1.58v12.23h-4.56v-30.68h4.56v14.43Z"/>
      <path d="M374.44,254.88l8.13,12.36h-4.98l-6.18-9.37-1.62,1.62v7.75h-4.56v-30.68h4.56v17.7l6.34-6.09h5.1l-6.8,6.72Z"/>
      <path d="M393.35,247.54c1.69,0,3.14,.28,4.35,.85,1.22,.57,2.22,1.33,3.01,2.28s1.37,2.05,1.74,3.28,.56,2.52,.56,3.88-.19,2.63-.56,3.83c-.37,1.2-.95,2.25-1.74,3.15-.79,.9-1.78,1.61-2.99,2.14-1.2,.52-2.62,.79-4.25,.79s-3.14-.28-4.35-.83c-1.22-.55-2.23-1.29-3.03-2.22-.8-.93-1.4-2-1.78-3.21-.39-1.22-.58-2.5-.58-3.86s.19-2.64,.58-3.86c.39-1.22,.97-2.29,1.76-3.21,.79-.93,1.79-1.66,3.01-2.2,1.22-.54,2.64-.81,4.27-.81Zm.08,16.75c.8,0,1.5-.17,2.09-.52,.59-.35,1.08-.81,1.47-1.41,.39-.59,.67-1.28,.85-2.05,.18-.77,.27-1.59,.27-2.45s-.1-1.73-.29-2.55c-.19-.81-.49-1.53-.89-2.16-.4-.62-.91-1.12-1.51-1.49-.61-.37-1.34-.56-2.2-.56-.8,0-1.49,.17-2.07,.52-.58,.35-1.06,.81-1.43,1.39s-.65,1.26-.83,2.03c-.18,.77-.27,1.59-.27,2.45s.09,1.73,.27,2.55c.18,.82,.47,1.54,.87,2.18,.4,.64,.91,1.14,1.51,1.51s1.33,.56,2.16,.56Z"/>
      <path d="M420.38,267.23v-12.6c0-2.27-.97-3.4-2.9-3.4-.47,0-.97,.08-1.51,.25-.54,.17-1.06,.41-1.55,.73-.5,.32-.95,.71-1.35,1.18-.4,.47-.7,1.01-.89,1.62v12.23h-4.56v-19.07h3.57l.21,2.82h.17c.58-1.16,1.49-2.02,2.72-2.59,1.23-.57,2.55-.85,3.96-.85,.91,0,1.77,.12,2.57,.35,.8,.24,1.51,.62,2.14,1.14,.62,.53,1.11,1.22,1.47,2.07,.36,.86,.54,1.91,.54,3.15v12.98h-4.56Z"/>
      <path d="M434.85,267.36c0,1.41-.16,2.75-.48,4.02-.32,1.27-.78,2.4-1.39,3.38-.61,.98-1.36,1.75-2.26,2.32-.9,.57-1.94,.85-3.13,.85-.22,0-.42,0-.6-.02-.18-.01-.31-.05-.39-.1l-.75-2.78c.08,.05,.21,.09,.37,.1,.17,.01,.33,.02,.5,.02,.83,0,1.48-.26,1.95-.77,.47-.51,.83-1.16,1.08-1.95,.25-.79,.4-1.64,.46-2.55,.06-.91,.08-1.77,.08-2.57v-19.16h4.56v19.2Zm-5.22-25.33c0-.39,.08-.76,.23-1.12,.15-.36,.37-.68,.64-.97,.28-.29,.59-.52,.93-.68,.35-.17,.73-.25,1.14-.25,.8,0,1.51,.31,2.11,.93,.61,.62,.91,1.33,.91,2.14s-.31,1.49-.93,2.05c-.62,.57-1.33,.85-2.14,.85s-1.49-.29-2.05-.87c-.57-.58-.85-1.27-.85-2.07Z"/>
      <path d="M444.96,248.16v12.4c0,1.13,.3,2,.89,2.59,.59,.59,1.36,.89,2.3,.89s1.85-.32,2.65-.97c.8-.65,1.4-1.58,1.78-2.8v-12.11h4.6v19.07h-3.57l-.25-2.65h-.17c-.3,.64-.69,1.15-1.16,1.55-.47,.4-.99,.72-1.56,.95s-1.15,.4-1.76,.5c-.61,.1-1.2,.15-1.78,.15-.91,0-1.76-.11-2.55-.33-.79-.22-1.48-.59-2.07-1.1-.59-.51-1.06-1.19-1.41-2.03-.35-.84-.52-1.89-.52-3.13v-12.98h4.56Z"/>
      <path d="M475.69,267.23v-12.6c0-2.27-.97-3.4-2.9-3.4-.47,0-.97,.08-1.51,.25-.54,.17-1.06,.41-1.55,.73-.5,.32-.95,.71-1.35,1.18-.4,.47-.7,1.01-.89,1.62v12.23h-4.56v-19.07h3.57l.21,2.82h.17c.58-1.16,1.49-2.02,2.72-2.59,1.23-.57,2.55-.85,3.96-.85,.91,0,1.77,.12,2.57,.35,.8,.24,1.51,.62,2.14,1.14,.62,.53,1.11,1.22,1.47,2.07,.36,.86,.54,1.91,.54,3.15v12.98h-4.56Z"/>
      <path d="M494.8,254.88l8.13,12.36h-4.98l-6.18-9.37-1.62,1.62v7.75h-4.56v-30.68h4.56v17.7l6.34-6.09h5.1l-6.8,6.72Z"/>
      <path d="M506.91,250.94h-2.36v-2.49l2.69-.41,.75-5.64h3.48v5.76h3.65v2.78h-3.65v10.95c0,.83,.08,1.39,.25,1.68,.17,.29,.48,.44,.95,.44,.36,0,.72-.07,1.08-.21,.36-.14,.88-.4,1.58-.79l.75,3.28c-.53,.44-1.26,.79-2.22,1.06-.95,.26-1.9,.39-2.84,.39-.83,0-1.51-.11-2.05-.33-.54-.22-.96-.55-1.26-.97-.3-.43-.51-.95-.62-1.55-.11-.61-.17-1.29-.17-2.03v-11.9Z"/>
      <path d="M524.19,248.16v12.4c0,1.13,.3,2,.89,2.59,.59,.59,1.36,.89,2.3,.89s1.85-.32,2.65-.97c.8-.65,1.4-1.58,1.78-2.8v-12.11h4.6v19.07h-3.57l-.25-2.65h-.17c-.3,.64-.69,1.15-1.16,1.55-.47,.4-.99,.72-1.56,.95s-1.15,.4-1.76,.5c-.61,.1-1.2,.15-1.78,.15-.91,0-1.76-.11-2.55-.33-.79-.22-1.48-.59-2.07-1.1-.59-.51-1.06-1.19-1.41-2.03-.35-.84-.52-1.89-.52-3.13v-12.98h4.56Z"/>
      <path d="M553.05,252.31c-.28-.22-.71-.4-1.29-.54-.58-.14-1.08-.21-1.49-.21-.55,0-1.01,.13-1.37,.39-.36,.26-.68,.61-.95,1.04-.28,.43-.51,.92-.71,1.47-.19,.55-.37,1.12-.54,1.7v11.07h-4.56v-19.07h3.57l.21,3.98h.17c.28-.58,.57-1.15,.87-1.7,.3-.55,.65-1.04,1.04-1.47,.39-.43,.84-.77,1.35-1.04,.51-.26,1.11-.39,1.8-.39,1.1,0,2.14,.36,3.11,1.08l-1.2,3.69Z"/>
    </g>
    <g>
      <path d="M821.76,266.89h-4.77v-12.02h-13.1v12.02h-4.77v-27.36h4.77v11.19h13.1v-11.19h4.77v27.36Z"/>
      <path d="M836.28,247.2c1.69,0,3.14,.28,4.35,.85,1.22,.57,2.22,1.33,3.01,2.28s1.37,2.05,1.74,3.28,.56,2.52,.56,3.88-.19,2.63-.56,3.83c-.37,1.2-.95,2.25-1.74,3.15-.79,.9-1.78,1.61-2.99,2.14-1.2,.52-2.62,.79-4.25,.79s-3.14-.28-4.35-.83c-1.22-.55-2.22-1.29-3.03-2.22-.8-.93-1.4-2-1.78-3.21-.39-1.22-.58-2.5-.58-3.86s.19-2.64,.58-3.86c.39-1.22,.97-2.29,1.76-3.21,.79-.93,1.79-1.66,3.01-2.2,1.22-.54,2.64-.81,4.27-.81Zm.08,16.75c.8,0,1.5-.17,2.09-.52,.59-.35,1.08-.81,1.47-1.41,.39-.59,.67-1.28,.85-2.05,.18-.77,.27-1.59,.27-2.45s-.1-1.73-.29-2.55c-.19-.81-.49-1.53-.89-2.16-.4-.62-.91-1.12-1.51-1.49-.61-.37-1.34-.56-2.2-.56-.8,0-1.49,.17-2.07,.52-.58,.35-1.06,.81-1.43,1.39s-.65,1.26-.83,2.03c-.18,.77-.27,1.59-.27,2.45s.09,1.73,.27,2.55c.18,.82,.47,1.54,.87,2.18,.4,.64,.9,1.14,1.51,1.51,.61,.37,1.33,.56,2.16,.56Z"/>
      <path d="M865.26,252.55c-.3-.22-.68-.44-1.14-.66-.46-.22-.95-.41-1.47-.58-.53-.17-1.07-.3-1.64-.39-.57-.1-1.1-.15-1.6-.15-.94,0-1.73,.17-2.38,.52-.65,.35-1.18,.8-1.58,1.37-.4,.57-.69,1.22-.87,1.97s-.27,1.52-.27,2.32c0,.94,.11,1.82,.33,2.63,.22,.82,.55,1.53,1,2.14,.44,.61,1,1.09,1.68,1.45,.68,.36,1.46,.54,2.34,.54,1,0,2.05-.2,3.17-.6,1.12-.4,2.05-.96,2.8-1.68l.83,3.9c-.77,.5-1.83,.97-3.17,1.41-1.34,.44-2.77,.66-4.29,.66-1.6,0-3.01-.28-4.21-.83-1.2-.55-2.2-1.29-2.99-2.22-.79-.93-1.38-2-1.78-3.23-.4-1.23-.6-2.54-.6-3.92s.19-2.59,.56-3.79c.37-1.2,.96-2.27,1.76-3.19,.8-.93,1.82-1.66,3.07-2.2,1.24-.54,2.74-.81,4.48-.81,1.33,0,2.62,.15,3.9,.46,1.27,.3,2.29,.7,3.07,1.2l-1,3.69Z"/>
      <path d="M875.37,250.64c.77-1.22,1.68-2.09,2.72-2.63,1.04-.54,2.26-.81,3.67-.81,.83,0,1.63,.12,2.4,.35,.77,.24,1.46,.62,2.05,1.14,.59,.53,1.06,1.22,1.41,2.07,.35,.86,.52,1.91,.52,3.15v12.98h-4.56v-12.6c0-1.13-.25-1.98-.75-2.55-.5-.57-1.18-.85-2.03-.85-.53,0-1.07,.08-1.64,.25-.57,.17-1.1,.41-1.6,.75-.5,.33-.94,.73-1.33,1.2-.39,.47-.68,1-.87,1.58v12.23h-4.56v-30.68h4.56v14.43Z"/>
      <path d="M902.9,254.54l8.13,12.36h-4.98l-6.18-9.37-1.62,1.62v7.75h-4.56v-30.68h4.56v17.7l6.34-6.09h5.1l-6.8,6.72Z"/>
      <path d="M921.81,247.2c1.69,0,3.14,.28,4.35,.85,1.22,.57,2.22,1.33,3.01,2.28s1.37,2.05,1.74,3.28,.56,2.52,.56,3.88-.19,2.63-.56,3.83c-.37,1.2-.95,2.25-1.74,3.15-.79,.9-1.78,1.61-2.99,2.14-1.2,.52-2.62,.79-4.25,.79s-3.14-.28-4.35-.83c-1.22-.55-2.22-1.29-3.03-2.22-.8-.93-1.4-2-1.78-3.21-.39-1.22-.58-2.5-.58-3.86s.19-2.64,.58-3.86c.39-1.22,.97-2.29,1.76-3.21,.79-.93,1.79-1.66,3.01-2.2,1.22-.54,2.64-.81,4.27-.81Zm.08,16.75c.8,0,1.5-.17,2.09-.52,.59-.35,1.08-.81,1.47-1.41,.39-.59,.67-1.28,.85-2.05,.18-.77,.27-1.59,.27-2.45s-.1-1.73-.29-2.55c-.19-.81-.49-1.53-.89-2.16-.4-.62-.91-1.12-1.51-1.49-.61-.37-1.34-.56-2.2-.56-.8,0-1.49,.17-2.07,.52-.58,.35-1.06,.81-1.43,1.39s-.65,1.26-.83,2.03c-.18,.77-.27,1.59-.27,2.45s.09,1.73,.27,2.55c.18,.82,.47,1.54,.87,2.18,.4,.64,.9,1.14,1.51,1.51,.61,.37,1.33,.56,2.16,.56Z"/>
      <path d="M948.84,266.89v-12.6c0-2.27-.97-3.4-2.9-3.4-.47,0-.97,.08-1.51,.25-.54,.17-1.06,.41-1.55,.73-.5,.32-.95,.71-1.35,1.18-.4,.47-.7,1.01-.89,1.62v12.23h-4.56v-19.07h3.57l.21,2.82h.17c.58-1.16,1.49-2.02,2.72-2.59,1.23-.57,2.55-.85,3.96-.85,.91,0,1.77,.12,2.57,.35,.8,.24,1.51,.62,2.13,1.14,.62,.53,1.11,1.22,1.47,2.07,.36,.86,.54,1.91,.54,3.15v12.98h-4.56Z"/>
      <path d="M963.31,267.02c0,1.41-.16,2.75-.48,4.02-.32,1.27-.78,2.4-1.39,3.38-.61,.98-1.36,1.75-2.26,2.32-.9,.57-1.94,.85-3.13,.85-.22,0-.42,0-.6-.02-.18-.01-.31-.05-.39-.1l-.75-2.78c.08,.05,.21,.09,.37,.1,.17,.01,.33,.02,.5,.02,.83,0,1.48-.26,1.95-.77,.47-.51,.83-1.16,1.08-1.95,.25-.79,.4-1.64,.46-2.55,.05-.91,.08-1.77,.08-2.57v-19.16h4.56v19.2Zm-5.22-25.33c0-.39,.08-.76,.23-1.12,.15-.36,.37-.68,.64-.97,.28-.29,.59-.52,.93-.68,.35-.17,.73-.25,1.14-.25,.8,0,1.51,.31,2.11,.93,.61,.62,.91,1.33,.91,2.14s-.31,1.49-.93,2.05c-.62,.57-1.33,.85-2.14,.85s-1.49-.29-2.05-.87c-.57-.58-.85-1.27-.85-2.07Z"/>
      <path d="M973.43,247.82v12.4c0,1.13,.3,2,.89,2.59,.59,.59,1.36,.89,2.3,.89s1.85-.32,2.65-.97c.8-.65,1.4-1.58,1.78-2.8v-12.11h4.6v19.07h-3.57l-.25-2.65h-.17c-.3,.64-.69,1.15-1.16,1.55-.47,.4-.99,.72-1.55,.95-.57,.23-1.15,.4-1.76,.5-.61,.1-1.2,.15-1.78,.15-.91,0-1.76-.11-2.55-.33-.79-.22-1.48-.59-2.07-1.1-.59-.51-1.06-1.19-1.41-2.03-.35-.84-.52-1.89-.52-3.13v-12.98h4.56Z"/>
      <path d="M1004.15,266.89v-12.6c0-2.27-.97-3.4-2.9-3.4-.47,0-.97,.08-1.51,.25-.54,.17-1.06,.41-1.55,.73-.5,.32-.95,.71-1.35,1.18-.4,.47-.7,1.01-.89,1.62v12.23h-4.56v-19.07h3.57l.21,2.82h.17c.58-1.16,1.49-2.02,2.72-2.59,1.23-.57,2.55-.85,3.96-.85,.91,0,1.77,.12,2.57,.35,.8,.24,1.51,.62,2.13,1.14,.62,.53,1.11,1.22,1.47,2.07,.36,.86,.54,1.91,.54,3.15v12.98h-4.56Z"/>
      <path d="M1023.26,254.54l8.13,12.36h-4.98l-6.18-9.37-1.62,1.62v7.75h-4.56v-30.68h4.56v17.7l6.34-6.09h5.1l-6.8,6.72Z"/>
      <path d="M1035.37,250.6h-2.36v-2.49l2.7-.41,.75-5.64h3.48v5.76h3.65v2.78h-3.65v10.95c0,.83,.08,1.39,.25,1.68,.17,.29,.48,.44,.95,.44,.36,0,.72-.07,1.08-.21,.36-.14,.88-.4,1.58-.79l.75,3.28c-.53,.44-1.26,.79-2.22,1.06-.95,.26-1.9,.39-2.84,.39-.83,0-1.51-.11-2.05-.33-.54-.22-.96-.55-1.26-.97-.3-.43-.51-.95-.62-1.55-.11-.61-.17-1.29-.17-2.03v-11.9Z"/>
      <path d="M1052.66,247.82v12.4c0,1.13,.3,2,.89,2.59,.59,.59,1.36,.89,2.3,.89s1.85-.32,2.65-.97c.8-.65,1.4-1.58,1.78-2.8v-12.11h4.6v19.07h-3.57l-.25-2.65h-.17c-.3,.64-.69,1.15-1.16,1.55-.47,.4-.99,.72-1.55,.95-.57,.23-1.15,.4-1.76,.5-.61,.1-1.2,.15-1.78,.15-.91,0-1.76-.11-2.55-.33-.79-.22-1.48-.59-2.07-1.1-.59-.51-1.06-1.19-1.41-2.03-.35-.84-.52-1.89-.52-3.13v-12.98h4.56Z"/>
      <path d="M1081.51,251.97c-.28-.22-.7-.4-1.29-.54-.58-.14-1.08-.21-1.49-.21-.55,0-1.01,.13-1.37,.39-.36,.26-.68,.61-.95,1.04-.28,.43-.51,.92-.7,1.47-.19,.55-.37,1.12-.54,1.7v11.07h-4.56v-19.07h3.57l.21,3.98h.17c.28-.58,.57-1.15,.87-1.7,.3-.55,.65-1.04,1.04-1.47,.39-.43,.84-.77,1.35-1.04,.51-.26,1.11-.39,1.8-.39,1.11,0,2.14,.36,3.11,1.08l-1.2,3.69Z"/>
    </g>
    <g>
      <path d="M1071.73,624.1c.36-.1,.93-.14,1.7-.14h6.76c2.68,0,4.89,.27,6.61,.82s3.16,1.3,4.29,2.26c1.46,1.26,2.53,2.87,3.19,4.82,.66,1.95,1,4.1,1,6.46,0,1.78-.23,3.49-.68,5.12s-1.27,3.07-2.45,4.3c-1.18,1.24-2.79,2.22-4.85,2.94-2.06,.73-4.69,1.09-7.9,1.09h-3.73c-1.33,0-2.64-.11-3.94-.33v-27.34Zm8.83,23.82c3.34,0,5.78-.8,7.32-2.39,1.53-1.6,2.3-4.2,2.3-7.8,0-1.62-.16-3.05-.48-4.27-.32-1.22-.86-2.25-1.64-3.08-.77-.83-1.81-1.45-3.11-1.86-1.3-.41-2.92-.62-4.85-.62h-3.61v19.9c.77,.08,1.52,.12,2.24,.12h1.82Z"/>
      <path d="M1108.72,631.75c2.43,0,4.31,.62,5.64,1.85,1.33,1.23,1.99,2.96,1.99,5.2,0,.3-.02,.63-.06,.97-.04,.35-.1,.68-.17,1.02-.07,.33-.15,.63-.25,.89s-.2,.48-.31,.64h-12.07c.06,.83,.21,1.61,.46,2.34,.25,.73,.61,1.37,1.08,1.91s1.04,.97,1.72,1.29c.68,.32,1.47,.48,2.38,.48,1.02,0,2.11-.19,3.25-.58,1.15-.39,2.12-.87,2.92-1.45l.75,3.4c-.36,.22-.8,.46-1.33,.73-.53,.26-1.12,.5-1.78,.73-.66,.22-1.38,.41-2.13,.56-.76,.15-1.55,.23-2.38,.23-1.55,0-2.92-.27-4.11-.81s-2.18-1.27-2.98-2.2c-.8-.93-1.41-2-1.82-3.21-.42-1.22-.62-2.49-.62-3.81s.21-2.65,.64-3.88c.43-1.23,1.06-2.31,1.89-3.25,.83-.94,1.86-1.68,3.09-2.22,1.23-.54,2.63-.81,4.21-.81Zm-.12,3.57c-1.16,0-2.15,.34-2.96,1.02-.82,.68-1.4,1.6-1.76,2.76h7.92c.03-.08,.05-.18,.06-.29s.02-.25,.02-.42c0-.88-.3-1.62-.91-2.2-.61-.58-1.4-.87-2.36-.87Z"/>
      <path d="M1131.6,631.75c1.49,0,2.78,.28,3.86,.85s1.97,1.32,2.67,2.26,1.22,2.02,1.55,3.25c.33,1.23,.5,2.51,.5,3.84s-.17,2.64-.52,3.86c-.35,1.22-.88,2.28-1.6,3.19s-1.62,1.63-2.69,2.16c-1.08,.52-2.36,.79-3.86,.79-1.24,0-2.4-.18-3.46-.54-1.06-.36-1.91-.94-2.55-1.74v12.56h-4.52v-29.85h3.65l.33,2.61h.17c.36-.44,.79-.86,1.29-1.26,.5-.4,1.04-.75,1.62-1.04,.58-.29,1.17-.52,1.78-.68,.61-.17,1.2-.25,1.78-.25Zm-.75,3.48c-.42,0-.87,.06-1.37,.19-.5,.12-.99,.3-1.47,.54-.48,.23-.95,.52-1.39,.85-.44,.33-.82,.71-1.12,1.12v8.08c.83,1.02,1.68,1.67,2.55,1.93,.87,.26,1.67,.39,2.38,.39,.91,0,1.69-.17,2.34-.5,.65-.33,1.19-.78,1.62-1.35,.43-.57,.75-1.23,.95-1.99,.21-.76,.31-1.58,.31-2.47,0-.83-.09-1.65-.27-2.47-.18-.81-.47-1.54-.87-2.18-.4-.63-.91-1.15-1.51-1.55-.61-.4-1.33-.6-2.16-.6Z"/>
      <path d="M1155.73,636.52c-.28-.22-.7-.4-1.29-.54-.58-.14-1.08-.21-1.49-.21-.55,0-1.01,.13-1.37,.39-.36,.26-.68,.61-.95,1.04-.28,.43-.51,.92-.7,1.47-.19,.55-.37,1.12-.54,1.7v11.07h-4.56v-19.07h3.57l.21,3.98h.17c.28-.58,.57-1.15,.87-1.7,.3-.55,.65-1.04,1.04-1.47,.39-.43,.84-.77,1.35-1.04,.51-.26,1.11-.39,1.8-.39,1.11,0,2.14,.36,3.11,1.08l-1.2,3.69Z"/>
      <path d="M1168.63,631.75c2.43,0,4.31,.62,5.64,1.85,1.33,1.23,1.99,2.96,1.99,5.2,0,.3-.02,.63-.06,.97-.04,.35-.1,.68-.17,1.02-.07,.33-.15,.63-.25,.89s-.2,.48-.31,.64h-12.07c.06,.83,.21,1.61,.46,2.34,.25,.73,.61,1.37,1.08,1.91s1.04,.97,1.72,1.29c.68,.32,1.47,.48,2.38,.48,1.02,0,2.11-.19,3.25-.58,1.15-.39,2.12-.87,2.92-1.45l.75,3.4c-.36,.22-.8,.46-1.33,.73-.53,.26-1.12,.5-1.78,.73-.66,.22-1.38,.41-2.13,.56-.76,.15-1.55,.23-2.38,.23-1.55,0-2.92-.27-4.11-.81s-2.18-1.27-2.98-2.2c-.8-.93-1.41-2-1.82-3.21-.42-1.22-.62-2.49-.62-3.81s.21-2.65,.64-3.88c.43-1.23,1.06-2.31,1.89-3.25,.83-.94,1.86-1.68,3.09-2.22,1.23-.54,2.63-.81,4.21-.81Zm-.12,3.57c-1.16,0-2.15,.34-2.96,1.02-.82,.68-1.4,1.6-1.76,2.76h7.92c.03-.08,.05-.18,.06-.29s.02-.25,.02-.42c0-.88-.3-1.62-.91-2.2-.61-.58-1.4-.87-2.36-.87Z"/>
      <path d="M1186.7,635.15c-.91,0-1.62,.17-2.13,.52-.51,.35-.77,.84-.77,1.47,0,.41,.15,.79,.44,1.14,.29,.35,.91,.63,1.84,.85l2.94,.66c1.16,.25,2.09,.61,2.8,1.08,.7,.47,1.26,.98,1.66,1.53,.4,.55,.67,1.12,.81,1.7,.14,.58,.21,1.12,.21,1.62,0,.88-.18,1.71-.54,2.47-.36,.76-.87,1.42-1.53,1.97-.66,.55-1.46,.99-2.4,1.31-.94,.32-1.99,.48-3.15,.48-1.46,0-2.82-.21-4.06-.64-1.24-.43-2.24-.9-2.98-1.43l1.08-3.94c.94,.91,2,1.59,3.17,2.03s2.26,.66,3.25,.66c1.05,0,1.85-.23,2.41-.68,.55-.46,.83-1.08,.83-1.89,0-.47-.14-.86-.42-1.18s-.83-.59-1.66-.81l-3.98-1c-.94-.22-1.71-.54-2.3-.95-.59-.41-1.06-.88-1.41-1.39-.35-.51-.58-1.04-.7-1.6-.12-.55-.19-1.08-.19-1.58,0-1.85,.65-3.28,1.95-4.29,1.3-1.01,2.99-1.51,5.06-1.51,1.08,0,2.24,.15,3.48,.44s2.29,.71,3.15,1.26l-1.2,3.73c-.55-.44-1.33-.89-2.32-1.35s-2.1-.68-3.32-.68Z"/>
      <path d="M1204.66,635.15c-.91,0-1.62,.17-2.13,.52-.51,.35-.77,.84-.77,1.47,0,.41,.15,.79,.44,1.14,.29,.35,.91,.63,1.84,.85l2.94,.66c1.16,.25,2.09,.61,2.8,1.08,.7,.47,1.26,.98,1.66,1.53,.4,.55,.67,1.12,.81,1.7,.14,.58,.21,1.12,.21,1.62,0,.88-.18,1.71-.54,2.47-.36,.76-.87,1.42-1.53,1.97-.66,.55-1.46,.99-2.4,1.31-.94,.32-1.99,.48-3.15,.48-1.46,0-2.82-.21-4.06-.64-1.24-.43-2.24-.9-2.98-1.43l1.08-3.94c.94,.91,2,1.59,3.17,2.03s2.26,.66,3.25,.66c1.05,0,1.85-.23,2.41-.68,.55-.46,.83-1.08,.83-1.89,0-.47-.14-.86-.42-1.18s-.83-.59-1.66-.81l-3.98-1c-.94-.22-1.71-.54-2.3-.95-.59-.41-1.06-.88-1.41-1.39-.35-.51-.58-1.04-.7-1.6-.12-.55-.19-1.08-.19-1.58,0-1.85,.65-3.28,1.95-4.29,1.3-1.01,2.99-1.51,5.06-1.51,1.08,0,2.24,.15,3.48,.44s2.29,.71,3.15,1.26l-1.2,3.73c-.55-.44-1.33-.89-2.32-1.35s-2.1-.68-3.32-.68Z"/>
      <path d="M1216.14,626.24c0-.39,.08-.76,.23-1.12,.15-.36,.37-.68,.64-.97,.28-.29,.59-.52,.93-.68s.73-.25,1.14-.25c.39,0,.76,.08,1.12,.25,.36,.17,.68,.39,.97,.68s.52,.62,.68,.97c.17,.36,.25,.73,.25,1.12,0,.41-.08,.79-.25,1.14-.17,.35-.39,.66-.68,.93-.29,.28-.62,.49-.97,.64-.36,.15-.73,.23-1.12,.23-.8,0-1.49-.29-2.07-.87-.58-.58-.87-1.27-.87-2.07Zm5.22,25.21h-4.56v-19.07h4.56v19.07Z"/>
      <path d="M1235.59,631.75c1.69,0,3.14,.28,4.35,.85,1.22,.57,2.22,1.33,3.01,2.28,.79,.95,1.37,2.05,1.74,3.28,.37,1.23,.56,2.52,.56,3.88s-.19,2.63-.56,3.84c-.37,1.2-.95,2.25-1.74,3.15-.79,.9-1.78,1.61-2.99,2.14-1.2,.52-2.62,.79-4.25,.79s-3.14-.28-4.35-.83c-1.22-.55-2.22-1.29-3.03-2.22-.8-.93-1.4-2-1.78-3.21-.39-1.22-.58-2.5-.58-3.86s.19-2.64,.58-3.86c.39-1.22,.97-2.29,1.76-3.21,.79-.93,1.79-1.66,3.01-2.2,1.22-.54,2.64-.81,4.27-.81Zm.08,16.75c.8,0,1.5-.17,2.09-.52,.59-.35,1.08-.82,1.47-1.41,.39-.59,.67-1.28,.85-2.05,.18-.77,.27-1.59,.27-2.45s-.1-1.73-.29-2.55-.49-1.53-.89-2.16-.91-1.12-1.51-1.49c-.61-.37-1.34-.56-2.2-.56-.8,0-1.49,.17-2.07,.52-.58,.35-1.06,.81-1.43,1.39-.37,.58-.65,1.26-.83,2.03-.18,.77-.27,1.59-.27,2.45s.09,1.73,.27,2.55,.47,1.54,.87,2.18c.4,.64,.9,1.14,1.51,1.51,.61,.37,1.33,.56,2.16,.56Z"/>
      <path d="M1262.62,651.44v-12.6c0-2.27-.97-3.4-2.9-3.4-.47,0-.97,.08-1.51,.25-.54,.17-1.06,.41-1.55,.73-.5,.32-.95,.71-1.35,1.18s-.7,1.01-.89,1.62v12.23h-4.56v-19.07h3.57l.21,2.82h.17c.58-1.16,1.49-2.02,2.72-2.59,1.23-.57,2.55-.85,3.96-.85,.91,0,1.77,.12,2.57,.35,.8,.24,1.51,.62,2.13,1.14s1.11,1.22,1.47,2.07,.54,1.91,.54,3.15v12.98h-4.56Z"/>
    </g>
    <g>
      <path d="M549.92,701.84c.36-.1,.93-.14,1.7-.14h6.76c2.68,0,4.89,.27,6.61,.82,1.73,.55,3.16,1.3,4.29,2.26,1.46,1.26,2.53,2.87,3.19,4.82,.66,1.95,.99,4.1,.99,6.46,0,1.78-.23,3.49-.68,5.12s-1.27,3.07-2.45,4.3c-1.18,1.24-2.79,2.22-4.85,2.94-2.06,.73-4.69,1.09-7.9,1.09h-3.73c-1.33,0-2.64-.11-3.94-.33v-27.34Zm8.83,23.82c3.34,0,5.78-.8,7.32-2.39,1.53-1.6,2.3-4.2,2.3-7.8,0-1.62-.16-3.05-.48-4.27-.32-1.22-.86-2.25-1.64-3.08-.77-.83-1.81-1.45-3.11-1.86-1.3-.41-2.92-.62-4.85-.62h-3.61v19.9c.77,.08,1.52,.12,2.24,.12h1.82Z"/>
      <path d="M586.9,709.49c2.43,0,4.31,.62,5.64,1.85,1.33,1.23,1.99,2.96,1.99,5.2,0,.3-.02,.63-.06,.97s-.1,.68-.17,1.02c-.07,.33-.15,.63-.25,.89-.1,.26-.2,.48-.31,.64h-12.06c.05,.83,.21,1.61,.46,2.34,.25,.73,.61,1.37,1.08,1.91,.47,.54,1.04,.97,1.72,1.29,.68,.32,1.47,.48,2.38,.48,1.02,0,2.11-.19,3.25-.58,1.15-.39,2.12-.87,2.92-1.45l.75,3.4c-.36,.22-.8,.46-1.33,.73-.53,.26-1.12,.5-1.78,.73-.66,.22-1.38,.41-2.14,.56-.76,.15-1.56,.23-2.38,.23-1.55,0-2.92-.27-4.1-.81-1.19-.54-2.18-1.27-2.99-2.2-.8-.93-1.41-2-1.82-3.21-.41-1.22-.62-2.49-.62-3.81s.21-2.65,.64-3.88c.43-1.23,1.06-2.31,1.89-3.25s1.86-1.68,3.09-2.22c1.23-.54,2.63-.81,4.21-.81Zm-.12,3.57c-1.16,0-2.15,.34-2.96,1.02-.82,.68-1.4,1.6-1.76,2.76h7.92c.03-.08,.05-.18,.06-.29,.01-.11,.02-.25,.02-.42,0-.88-.3-1.62-.91-2.2-.61-.58-1.4-.87-2.36-.87Z"/>
      <path d="M609.79,709.49c1.49,0,2.78,.28,3.86,.85,1.08,.57,1.97,1.32,2.67,2.26,.71,.94,1.22,2.02,1.55,3.25,.33,1.23,.5,2.51,.5,3.84s-.17,2.64-.52,3.86c-.35,1.22-.88,2.28-1.6,3.19-.72,.91-1.62,1.63-2.69,2.16-1.08,.52-2.36,.79-3.86,.79-1.24,0-2.4-.18-3.46-.54-1.06-.36-1.91-.94-2.55-1.74v12.56h-4.52v-29.85h3.65l.33,2.61h.17c.36-.44,.79-.86,1.29-1.26,.5-.4,1.04-.75,1.62-1.04,.58-.29,1.17-.52,1.78-.68,.61-.17,1.2-.25,1.78-.25Zm-.75,3.48c-.41,0-.87,.06-1.37,.19-.5,.12-.99,.3-1.47,.54-.48,.23-.95,.52-1.39,.85-.44,.33-.82,.71-1.12,1.12v8.08c.83,1.02,1.68,1.67,2.55,1.93,.87,.26,1.67,.39,2.38,.39,.91,0,1.69-.17,2.34-.5,.65-.33,1.19-.78,1.62-1.35,.43-.57,.75-1.23,.95-1.99,.21-.76,.31-1.58,.31-2.47,0-.83-.09-1.65-.27-2.47-.18-.81-.47-1.54-.87-2.18-.4-.63-.91-1.15-1.51-1.55-.61-.4-1.33-.6-2.16-.6Z"/>
      <path d="M633.92,714.26c-.28-.22-.71-.4-1.29-.54-.58-.14-1.08-.21-1.49-.21-.55,0-1.01,.13-1.37,.39-.36,.26-.68,.61-.95,1.04-.28,.43-.51,.92-.71,1.47-.19,.55-.37,1.12-.54,1.7v11.07h-4.56v-19.07h3.57l.21,3.98h.17c.28-.58,.57-1.15,.87-1.7,.3-.55,.65-1.04,1.04-1.47,.39-.43,.84-.77,1.35-1.04,.51-.26,1.11-.39,1.8-.39,1.1,0,2.14,.36,3.11,1.08l-1.2,3.69Z"/>
      <path d="M646.81,709.49c2.43,0,4.31,.62,5.64,1.85,1.33,1.23,1.99,2.96,1.99,5.2,0,.3-.02,.63-.06,.97s-.1,.68-.17,1.02c-.07,.33-.15,.63-.25,.89-.1,.26-.2,.48-.31,.64h-12.06c.05,.83,.21,1.61,.46,2.34,.25,.73,.61,1.37,1.08,1.91,.47,.54,1.04,.97,1.72,1.29,.68,.32,1.47,.48,2.38,.48,1.02,0,2.11-.19,3.25-.58,1.15-.39,2.12-.87,2.92-1.45l.75,3.4c-.36,.22-.8,.46-1.33,.73-.53,.26-1.12,.5-1.78,.73-.66,.22-1.38,.41-2.14,.56-.76,.15-1.56,.23-2.38,.23-1.55,0-2.92-.27-4.1-.81-1.19-.54-2.18-1.27-2.99-2.2-.8-.93-1.41-2-1.82-3.21-.41-1.22-.62-2.49-.62-3.81s.21-2.65,.64-3.88c.43-1.23,1.06-2.31,1.89-3.25s1.86-1.68,3.09-2.22c1.23-.54,2.63-.81,4.21-.81Zm-.12,3.57c-1.16,0-2.15,.34-2.96,1.02-.82,.68-1.4,1.6-1.76,2.76h7.92c.03-.08,.05-.18,.06-.29,.01-.11,.02-.25,.02-.42,0-.88-.3-1.62-.91-2.2-.61-.58-1.4-.87-2.36-.87Z"/>
      <path d="M664.89,712.89c-.91,0-1.62,.17-2.14,.52-.51,.35-.77,.84-.77,1.47,0,.41,.15,.79,.44,1.14,.29,.35,.91,.63,1.85,.85l2.94,.66c1.16,.25,2.09,.61,2.8,1.08,.71,.47,1.26,.98,1.66,1.53,.4,.55,.67,1.12,.81,1.7,.14,.58,.21,1.12,.21,1.62,0,.88-.18,1.71-.54,2.47-.36,.76-.87,1.42-1.53,1.97s-1.47,.99-2.4,1.31c-.94,.32-1.99,.48-3.15,.48-1.47,0-2.82-.21-4.06-.64-1.24-.43-2.24-.9-2.99-1.43l1.08-3.94c.94,.91,2,1.59,3.17,2.03,1.17,.44,2.26,.66,3.25,.66,1.05,0,1.85-.23,2.4-.68,.55-.46,.83-1.08,.83-1.89,0-.47-.14-.86-.42-1.18s-.83-.59-1.66-.81l-3.98-1c-.94-.22-1.71-.54-2.3-.95-.59-.41-1.06-.88-1.41-1.39-.35-.51-.58-1.04-.71-1.6s-.19-1.08-.19-1.58c0-1.85,.65-3.28,1.95-4.29,1.3-1.01,2.99-1.51,5.06-1.51,1.08,0,2.24,.15,3.48,.44,1.24,.29,2.29,.71,3.15,1.26l-1.2,3.73c-.55-.44-1.33-.89-2.32-1.35s-2.1-.68-3.32-.68Z"/>
      <path d="M682.84,712.89c-.91,0-1.62,.17-2.13,.52-.51,.35-.77,.84-.77,1.47,0,.41,.15,.79,.44,1.14,.29,.35,.91,.63,1.84,.85l2.94,.66c1.16,.25,2.09,.61,2.8,1.08,.7,.47,1.26,.98,1.66,1.53,.4,.55,.67,1.12,.81,1.7,.14,.58,.21,1.12,.21,1.62,0,.88-.18,1.71-.54,2.47-.36,.76-.87,1.42-1.53,1.97-.66,.55-1.46,.99-2.4,1.31-.94,.32-1.99,.48-3.15,.48-1.46,0-2.82-.21-4.06-.64-1.24-.43-2.24-.9-2.98-1.43l1.08-3.94c.94,.91,2,1.59,3.17,2.03s2.26,.66,3.25,.66c1.05,0,1.85-.23,2.41-.68,.55-.46,.83-1.08,.83-1.89,0-.47-.14-.86-.42-1.18s-.83-.59-1.66-.81l-3.98-1c-.94-.22-1.71-.54-2.3-.95-.59-.41-1.06-.88-1.41-1.39-.35-.51-.58-1.04-.7-1.6-.12-.55-.19-1.08-.19-1.58,0-1.85,.65-3.28,1.95-4.29,1.3-1.01,2.99-1.51,5.06-1.51,1.08,0,2.24,.15,3.48,.44s2.29,.71,3.15,1.26l-1.2,3.73c-.55-.44-1.33-.89-2.32-1.35s-2.1-.68-3.32-.68Z"/>
      <path d="M694.33,703.98c0-.39,.08-.76,.23-1.12,.15-.36,.37-.68,.64-.97,.28-.29,.59-.52,.93-.68s.73-.25,1.14-.25c.39,0,.76,.08,1.12,.25,.36,.17,.68,.39,.97,.68s.52,.62,.68,.97c.17,.36,.25,.73,.25,1.12,0,.41-.08,.79-.25,1.14-.17,.35-.39,.66-.68,.93-.29,.28-.62,.49-.97,.64-.36,.15-.73,.23-1.12,.23-.8,0-1.49-.29-2.07-.87-.58-.58-.87-1.27-.87-2.07Zm5.22,25.21h-4.56v-19.07h4.56v19.07Z"/>
      <path d="M713.77,709.49c1.69,0,3.14,.28,4.35,.85,1.22,.57,2.22,1.33,3.01,2.28,.79,.95,1.37,2.05,1.74,3.28,.37,1.23,.56,2.52,.56,3.88s-.19,2.63-.56,3.84c-.37,1.2-.95,2.25-1.74,3.15-.79,.9-1.78,1.61-2.99,2.14-1.2,.52-2.62,.79-4.25,.79s-3.14-.28-4.35-.83c-1.22-.55-2.22-1.29-3.03-2.22-.8-.93-1.4-2-1.78-3.21-.39-1.22-.58-2.5-.58-3.86s.19-2.64,.58-3.86c.39-1.22,.97-2.29,1.76-3.21,.79-.93,1.79-1.66,3.01-2.2,1.22-.54,2.64-.81,4.27-.81Zm.08,16.75c.8,0,1.5-.17,2.09-.52,.59-.35,1.08-.82,1.47-1.41,.39-.59,.67-1.28,.85-2.05,.18-.77,.27-1.59,.27-2.45s-.1-1.73-.29-2.55-.49-1.53-.89-2.16-.91-1.12-1.51-1.49c-.61-.37-1.34-.56-2.2-.56-.8,0-1.49,.17-2.07,.52-.58,.35-1.06,.81-1.43,1.39-.37,.58-.65,1.26-.83,2.03-.18,.77-.27,1.59-.27,2.45s.09,1.73,.27,2.55,.47,1.54,.87,2.18c.4,.64,.9,1.14,1.51,1.51,.61,.37,1.33,.56,2.16,.56Z"/>
      <path d="M740.8,729.18v-12.6c0-2.27-.97-3.4-2.9-3.4-.47,0-.97,.08-1.51,.25-.54,.17-1.06,.41-1.55,.73-.5,.32-.95,.71-1.35,1.18s-.7,1.01-.89,1.62v12.23h-4.56v-19.07h3.57l.21,2.82h.17c.58-1.16,1.49-2.02,2.72-2.59,1.23-.57,2.55-.85,3.96-.85,.91,0,1.77,.12,2.57,.35,.8,.24,1.51,.62,2.13,1.14s1.11,1.22,1.47,2.07,.54,1.91,.54,3.15v12.98h-4.56Z"/>
    </g>
    <g>
      <path d="M192.73,487.09l-2.2,4.69-8.53-.57-4.39,9.35,6.01,5.93-2.11,4.5-20.26-21.23,1.74-3.72,29.74,1.04Zm-17.93,10.68l3.19-6.79-10.79-.71,7.61,7.51Z"/>
      <path d="M178.7,472.76l11.04,5.65c1.01,.52,1.91,.65,2.71,.39,.8-.26,1.41-.8,1.84-1.64,.44-.86,.55-1.8,.34-2.81-.21-1.01-.77-1.96-1.68-2.86l-10.78-5.52,2.1-4.1,16.98,8.69-1.62,3.17-2.48-.99-.08,.15c.43,.56,.71,1.14,.85,1.74,.14,.6,.19,1.21,.14,1.82-.05,.61-.17,1.21-.36,1.79-.19,.58-.42,1.14-.68,1.65-.42,.81-.9,1.52-1.46,2.12-.56,.6-1.2,1.05-1.92,1.34s-1.54,.41-2.45,.33c-.91-.08-1.92-.4-3.02-.97l-11.55-5.91,2.08-4.06Z"/>
      <path d="M190.01,457.11l-1.13,2.08-2.08-1.13,.8-2.25c-1.38-.75-2.54-1.44-3.46-2.05-.92-.61-1.68-1.17-2.27-1.68-.59-.51-1.04-.97-1.35-1.37-.31-.41-.55-.78-.71-1.12-.37-.83-.48-1.71-.33-2.66,.15-.94,.48-1.88,1-2.83,.07-.12,.17-.31,.32-.58,.15-.27,.33-.55,.56-.85s.5-.59,.8-.88c.31-.29,.63-.53,.96-.73l2.6,2.59c-.28,.16-.7,.46-1.25,.88-.56,.42-.98,.9-1.27,1.43-.17,.32-.24,.62-.22,.92,.03,.3,.2,.62,.5,.98,.31,.36,.77,.74,1.4,1.16,.62,.42,1.44,.9,2.46,1.46l2.4,1.31,1.74-3.21,2.44,1.33-1.74,3.21,14.31,7.79-2.18,4.01-14.31-7.79Z"/>
      <path d="M198.74,441.42c-.45,.79-.66,1.5-.61,2.11,.05,.62,.34,1.08,.9,1.4,.36,.21,.76,.27,1.21,.19,.44-.08,1-.47,1.65-1.18l2.04-2.22c.79-.88,1.57-1.51,2.33-1.89,.76-.38,1.48-.6,2.16-.68,.68-.07,1.3-.02,1.88,.14,.57,.17,1.07,.38,1.51,.62,.77,.44,1.39,1,1.87,1.69,.48,.69,.8,1.46,.95,2.31,.15,.85,.13,1.76-.06,2.74-.19,.97-.58,1.96-1.15,2.97-.73,1.27-1.59,2.34-2.58,3.21-.99,.87-1.9,1.49-2.73,1.88l-2.88-2.89c1.26-.36,2.37-.94,3.34-1.74,.97-.8,1.7-1.63,2.19-2.49,.52-.91,.72-1.72,.6-2.43-.12-.71-.53-1.26-1.22-1.66-.41-.23-.82-.31-1.23-.23-.41,.08-.92,.43-1.53,1.04l-2.84,2.96c-.66,.71-1.32,1.21-1.97,1.52-.66,.31-1.29,.49-1.91,.53-.62,.05-1.19-.02-1.74-.18-.54-.17-1.03-.37-1.46-.62-1.61-.92-2.52-2.19-2.75-3.82-.23-1.63,.17-3.34,1.2-5.14,.54-.94,1.24-1.87,2.11-2.81,.87-.93,1.76-1.64,2.66-2.1l2.64,2.9c-.66,.26-1.43,.71-2.32,1.34-.89,.64-1.64,1.48-2.24,2.54Z"/>
      <path d="M214.3,419.12c-.35,.15-.73,.35-1.16,.63-.43,.27-.85,.59-1.26,.95-.42,.36-.81,.76-1.19,1.19-.38,.43-.7,.86-.96,1.29-.49,.8-.76,1.57-.8,2.31-.04,.73,.07,1.42,.35,2.06,.27,.64,.68,1.23,1.23,1.77,.54,.54,1.16,1.02,1.84,1.44,.8,.49,1.61,.85,2.42,1.09,.81,.24,1.59,.32,2.34,.26,.75-.06,1.45-.29,2.11-.68,.66-.39,1.22-.96,1.68-1.72,.52-.85,.9-1.86,1.14-3.02,.24-1.16,.25-2.25,.02-3.26l3.76,1.32c.02,.92-.13,2.07-.45,3.44-.32,1.38-.88,2.71-1.67,4.01-.83,1.37-1.8,2.42-2.9,3.16-1.1,.74-2.25,1.2-3.45,1.39-1.2,.19-2.43,.14-3.69-.16-1.26-.3-2.48-.81-3.66-1.53-1.13-.69-2.11-1.51-2.95-2.45s-1.43-2-1.81-3.17c-.37-1.17-.47-2.42-.28-3.76,.19-1.34,.73-2.76,1.64-4.24,.69-1.13,1.5-2.16,2.42-3.09,.92-.93,1.8-1.59,2.62-1.99l2.63,2.77Z"/>
      <path d="M218.27,409.36c-.59-1.31-.83-2.55-.72-3.71s.56-2.33,1.33-3.51c.45-.69,.99-1.3,1.61-1.82,.62-.52,1.31-.88,2.08-1.09,.76-.21,1.6-.23,2.51-.05,.91,.18,1.88,.61,2.92,1.29l10.86,7.1-2.49,3.82-10.55-6.89c-.95-.62-1.8-.88-2.54-.77-.75,.11-1.35,.52-1.82,1.24-.29,.44-.52,.94-.69,1.51s-.25,1.15-.25,1.74c0,.6,.1,1.19,.28,1.77,.18,.58,.46,1.11,.84,1.59l10.24,6.69-2.49,3.82-25.69-16.78,2.49-3.82,12.08,7.89Z"/>
      <path d="M239.21,383.84l8.42,11.05-3.2,4.49-19.55-5.44,2.77-3.88,14.8,4.45-9.29-12.18,2.65-3.71,14.54,4.82-9.03-12.55,2.72-3.81,11.51,16.71-3.15,4.42-13.19-4.36Z"/>
      <path d="M249.2,360.58l9.79,7.6c.9,.7,1.76,.99,2.59,.88,.83-.1,1.54-.53,2.12-1.27,.59-.76,.88-1.66,.86-2.69-.02-1.03-.39-2.07-1.12-3.12l-9.56-7.42,2.82-3.64,15.07,11.69-2.19,2.82-2.25-1.43-.1,.13c.32,.63,.49,1.25,.52,1.87,.03,.62-.04,1.22-.2,1.81-.16,.59-.39,1.16-.69,1.7-.3,.54-.62,1.04-.98,1.5-.56,.72-1.17,1.32-1.83,1.81-.66,.49-1.37,.81-2.14,.96-.77,.16-1.59,.11-2.47-.13-.88-.24-1.81-.75-2.79-1.51l-10.25-7.96,2.8-3.6Z"/>
      <path d="M283.36,348.49l-9.7-8.05c-1.74-1.45-3.24-1.43-4.47,.06-.3,.36-.56,.8-.77,1.32-.22,.52-.36,1.07-.43,1.66-.07,.59-.06,1.18,.05,1.79,.11,.61,.33,1.18,.68,1.72l9.42,7.81-2.91,3.51-14.68-12.17,2.28-2.74,2.3,1.64,.11-.13c-.52-1.19-.61-2.44-.26-3.74,.35-1.31,.97-2.51,1.87-3.59,.58-.7,1.22-1.29,1.91-1.75,.69-.47,1.44-.77,2.24-.92,.8-.14,1.65-.08,2.54,.19,.89,.27,1.81,.8,2.77,1.6l9.99,8.28-2.91,3.51Z"/>
      <path d="M286.79,335.21c-1.22,.58-2.42,.72-3.62,.4-1.19-.32-2.28-.91-3.25-1.77-.81-.71-1.45-1.52-1.91-2.41-.47-.89-.73-1.81-.79-2.77-.06-.96,.08-1.92,.42-2.89s.91-1.91,1.72-2.82c.48-.54,1-1.03,1.56-1.47,.57-.44,1.13-.77,1.68-.98,.77-.87,1.41-1.71,1.92-2.53,.51-.82,.97-1.64,1.36-2.47l.46-.09,2.06,2.43,.02,.29-2.2,1.99,.07,.11c1.51,.08,2.87,.65,4.07,1.71,.73,.64,1.29,1.37,1.69,2.19,.4,.82,.62,1.68,.65,2.59,.03,.91-.14,1.85-.51,2.84-.37,.98-.97,1.94-1.79,2.87-.2,.23-.37,.41-.5,.53-.13,.13-.25,.25-.36,.37-.19,.46-.26,.87-.23,1.23,.03,.36,.15,.63,.36,.81,.23,.2,.52,.26,.89,.18,.37-.08,.79-.33,1.27-.75l3.04-2.69c.69-.61,1.39-1.12,2.12-1.53,.73-.41,1.47-.68,2.21-.81,.75-.13,1.48-.11,2.19,.08s1.4,.57,2.04,1.14c.64,.57,1.14,1.25,1.51,2.05,.36,.8,.52,1.69,.46,2.67-.06,.98-.34,2.03-.85,3.15-.51,1.12-1.31,2.3-2.41,3.54-.97,1.1-1.93,1.97-2.89,2.62s-1.88,1.1-2.77,1.35c-.89,.25-1.71,.3-2.49,.15-.77-.15-1.45-.48-2.03-.99-.41-.37-.76-.8-1.04-1.3-.28-.5-.47-1.03-.58-1.59-.11-.56-.15-1.13-.12-1.71s.16-1.12,.38-1.62l-.12-.11c-.63,.29-1.2,.38-1.72,.25-.52-.12-.94-.33-1.27-.63-.44-.38-.71-.89-.83-1.51-.12-.62-.04-1.29,.23-2.01l-.12-.11Zm1.2-4.86c.75-.85,1.04-1.73,.88-2.65-.16-.92-.64-1.73-1.43-2.42-.37-.33-.8-.61-1.27-.85-.48-.23-.97-.38-1.48-.42-.51-.05-1.02,.01-1.52,.18-.5,.17-.95,.48-1.35,.94-.38,.44-.63,.9-.75,1.38-.12,.49-.13,.97-.03,1.44,.1,.47,.28,.92,.55,1.35,.27,.42,.59,.8,.97,1.13,.37,.33,.79,.6,1.25,.8,.46,.21,.94,.32,1.42,.34,.48,.02,.96-.06,1.44-.25,.48-.19,.92-.51,1.32-.96Zm6.08,7.08c-.5,.81-.73,1.68-.71,2.58,.03,.91,.34,1.63,.94,2.16,.66,.59,1.45,.7,2.36,.34,.91-.36,1.91-1.16,3.01-2.4,1.08-1.22,1.77-2.35,2.07-3.37,.3-1.03,.06-1.88-.7-2.56-.75-.66-1.63-.72-2.66-.19-1.02,.53-2.46,1.68-4.31,3.44Z"/>
    </g>
    <g>
      <path d="M715.23,540.35l-1.71,4.89-8.54,.32-3.4,9.75,6.59,5.28-1.64,4.7-22.35-19.03,1.35-3.88,29.69-2.04Zm-16.73,12.48l2.47-7.09-10.81,.41,8.34,6.68Z"/>
      <path d="M699.8,527.54l11.56,4.48c1.06,.41,1.97,.44,2.74,.1,.77-.34,1.32-.95,1.66-1.82,.35-.9,.37-1.84,.05-2.83-.32-.98-.97-1.87-1.96-2.67l-11.29-4.37,1.66-4.29,17.78,6.89-1.29,3.32-2.56-.73-.06,.16c.48,.51,.83,1.06,1.03,1.64,.2,.58,.31,1.18,.33,1.79,.01,.61-.04,1.22-.17,1.82-.13,.6-.3,1.17-.51,1.72-.33,.85-.74,1.6-1.23,2.26-.49,.66-1.08,1.17-1.77,1.54s-1.49,.56-2.4,.58-1.95-.2-3.11-.65l-12.1-4.69,1.65-4.25Z"/>
      <path d="M709.43,510.81l-.91,2.18-2.18-.91,.56-2.33c-1.45-.61-2.67-1.17-3.66-1.68-.98-.51-1.79-.99-2.43-1.44-.64-.45-1.13-.85-1.49-1.23-.35-.37-.63-.72-.83-1.04-.45-.79-.65-1.66-.6-2.61,.05-.95,.29-1.92,.7-2.92,.05-.13,.14-.33,.25-.61,.12-.28,.27-.58,.47-.9,.2-.32,.43-.64,.71-.96,.27-.32,.57-.59,.88-.82l2.85,2.31c-.26,.19-.65,.52-1.16,1-.51,.48-.89,.99-1.12,1.55-.14,.33-.18,.64-.12,.94s.26,.6,.6,.92c.34,.32,.85,.66,1.51,1.01,.66,.35,1.53,.75,2.6,1.2l2.53,1.05,1.4-3.37,2.56,1.07-1.4,3.37,15.04,6.27-1.75,4.21-15.04-6.27Z"/>
      <path d="M716.49,494.3c-.37,.83-.5,1.55-.39,2.16,.11,.61,.45,1.04,1.04,1.3,.38,.17,.79,.19,1.22,.06,.43-.13,.94-.57,1.52-1.34l1.8-2.42c.7-.96,1.4-1.67,2.12-2.12s1.41-.75,2.07-.9c.67-.14,1.29-.16,1.88-.05s1.11,.26,1.56,.46c.81,.36,1.49,.86,2.04,1.49,.55,.64,.94,1.37,1.18,2.2,.24,.83,.31,1.74,.22,2.73-.09,.99-.37,2.01-.84,3.07-.59,1.34-1.34,2.49-2.23,3.46s-1.73,1.68-2.52,2.15l-3.17-2.58c1.21-.49,2.26-1.18,3.14-2.08,.88-.89,1.52-1.8,1.92-2.71,.42-.96,.54-1.79,.35-2.48-.19-.69-.66-1.2-1.39-1.52-.43-.19-.85-.22-1.25-.1-.4,.12-.87,.52-1.41,1.19l-2.52,3.24c-.58,.77-1.18,1.34-1.8,1.72-.62,.38-1.23,.62-1.84,.73-.61,.11-1.19,.11-1.75,0-.56-.11-1.06-.27-1.52-.47-1.69-.75-2.74-1.92-3.13-3.52-.4-1.59-.17-3.34,.66-5.24,.44-.99,1.04-1.99,1.81-3.01,.77-1.02,1.58-1.81,2.43-2.37l2.92,2.61c-.63,.33-1.35,.85-2.17,1.58-.82,.73-1.48,1.65-1.97,2.76Z"/>
      <path d="M729.67,470.52c-.33,.18-.69,.43-1.09,.75-.4,.32-.78,.68-1.16,1.08-.38,.4-.73,.84-1.06,1.31-.33,.47-.6,.93-.82,1.38-.4,.85-.59,1.64-.56,2.38,.03,.74,.22,1.41,.56,2.01,.34,.61,.81,1.15,1.4,1.63,.6,.48,1.26,.9,1.98,1.24,.85,.41,1.69,.68,2.52,.83,.83,.15,1.62,.16,2.36,.02,.74-.14,1.42-.43,2.03-.89,.62-.46,1.11-1.08,1.49-1.88,.43-.9,.7-1.94,.82-3.12,.12-1.18,.01-2.27-.31-3.25l3.88,.92c.12,.91,.09,2.07-.09,3.47-.18,1.4-.59,2.79-1.25,4.16-.69,1.45-1.54,2.59-2.56,3.44-1.02,.85-2.11,1.43-3.29,1.74-1.17,.31-2.4,.39-3.69,.22-1.28-.17-2.55-.55-3.8-1.14-1.2-.57-2.26-1.28-3.18-2.14-.93-.85-1.63-1.84-2.12-2.96-.49-1.12-.71-2.36-.67-3.71,.05-1.35,.45-2.82,1.19-4.39,.57-1.2,1.27-2.31,2.09-3.32,.82-1.02,1.62-1.77,2.4-2.25l2.9,2.48Z"/>
      <path d="M732.61,460.39c-.73-1.24-1.09-2.45-1.1-3.62,0-1.17,.31-2.38,.96-3.63,.38-.74,.85-1.4,1.41-1.98,.56-.58,1.21-1.01,1.95-1.3,.74-.29,1.57-.39,2.49-.3,.92,.09,1.93,.41,3.04,.98l11.54,5.94-2.09,4.06-11.21-5.77c-1.01-.52-1.88-.69-2.61-.5-.73,.18-1.29,.66-1.68,1.42-.24,.47-.42,.99-.53,1.57-.11,.58-.13,1.17-.07,1.76,.07,.59,.22,1.17,.46,1.73,.24,.56,.58,1.06,1,1.49l10.88,5.6-2.09,4.06-27.28-14.04,2.09-4.05,12.83,6.6Z"/>
      <path d="M750.8,432.85l9.51,10.12-2.72,4.8-20-3.39,2.35-4.15,15.18,2.89-10.5-11.15,2.25-3.97,14.96,3.29-10.28-11.55,2.31-4.07,13.17,15.43-2.68,4.72-13.57-2.98Z"/>
      <path d="M758.32,408.68l10.53,6.55c.96,.6,1.85,.8,2.67,.61,.82-.19,1.48-.68,1.97-1.48,.51-.82,.7-1.74,.57-2.77-.13-1.02-.61-2.02-1.43-2.99l-10.28-6.39,2.43-3.91,16.19,10.07-1.88,3.03-2.38-1.19-.09,.14c.38,.6,.62,1.2,.71,1.81,.09,.61,.09,1.22-.01,1.82-.1,.61-.27,1.19-.51,1.76-.24,.57-.51,1.1-.82,1.59-.48,.77-1.03,1.44-1.63,1.99s-1.28,.95-2.03,1.18c-.75,.23-1.57,.28-2.47,.12-.9-.15-1.88-.56-2.93-1.21l-11.02-6.85,2.41-3.87Z"/>
      <path d="M791.05,393.12l-10.48-7c-1.88-1.26-3.37-1.08-4.44,.53-.26,.39-.47,.86-.63,1.4-.16,.54-.25,1.11-.26,1.7-.01,.59,.07,1.18,.24,1.78,.17,.59,.45,1.14,.85,1.64l10.17,6.79-2.53,3.79-15.86-10.59,1.98-2.96,2.46,1.39,.09-.14c-.64-1.13-.86-2.36-.65-3.7,.21-1.34,.71-2.59,1.49-3.76,.51-.76,1.08-1.41,1.72-1.94,.64-.54,1.35-.92,2.13-1.14,.78-.23,1.63-.25,2.54-.07,.91,.18,1.88,.61,2.92,1.3l10.79,7.21-2.53,3.79Z"/>
      <path d="M793.09,379.56c-1.15,.71-2.34,.97-3.56,.77-1.22-.19-2.36-.67-3.42-1.42-.88-.63-1.59-1.36-2.15-2.2-.56-.84-.91-1.73-1.07-2.67-.16-.94-.12-1.92,.12-2.92,.24-1,.71-2,1.42-2.99,.42-.59,.89-1.13,1.41-1.62,.52-.5,1.04-.88,1.57-1.15,.67-.94,1.22-1.85,1.65-2.72,.43-.87,.79-1.73,1.1-2.6l.45-.14,2.3,2.2,.05,.29-1.98,2.2,.08,.11c1.51-.07,2.92,.35,4.23,1.29,.79,.56,1.42,1.23,1.91,2,.49,.77,.79,1.61,.91,2.51,.12,.9,.05,1.86-.22,2.88-.27,1.02-.76,2.03-1.48,3.04-.18,.25-.32,.44-.44,.58-.12,.14-.22,.27-.32,.41-.14,.48-.17,.9-.1,1.25s.22,.61,.44,.77c.25,.18,.55,.21,.91,.09,.36-.12,.75-.41,1.19-.88l2.74-2.98c.62-.68,1.27-1.26,1.95-1.74,.68-.48,1.39-.83,2.12-1.04,.73-.21,1.46-.26,2.19-.14,.73,.12,1.45,.42,2.14,.92,.7,.5,1.27,1.13,1.71,1.88,.44,.76,.69,1.63,.73,2.61,.04,.98-.13,2.06-.52,3.22-.39,1.17-1.07,2.42-2.03,3.77-.85,1.19-1.72,2.16-2.61,2.9s-1.76,1.29-2.61,1.63c-.85,.34-1.67,.48-2.46,.41-.79-.07-1.49-.33-2.12-.78-.45-.32-.84-.72-1.17-1.19-.33-.47-.58-.98-.75-1.52-.17-.55-.27-1.11-.3-1.69-.03-.58,.04-1.13,.21-1.66l-.13-.1c-.59,.36-1.16,.5-1.68,.43-.53-.07-.97-.23-1.33-.49-.47-.34-.8-.81-.98-1.41-.18-.6-.17-1.28,.02-2.02l-.13-.1Zm.69-4.96c.66-.92,.86-1.83,.6-2.73-.26-.9-.82-1.65-1.67-2.26-.41-.29-.86-.52-1.35-.71-.5-.18-1-.27-1.52-.27-.51,0-1.01,.12-1.49,.34-.48,.22-.89,.58-1.25,1.07-.34,.47-.54,.96-.6,1.45-.07,.5-.02,.98,.12,1.44,.15,.46,.38,.89,.69,1.28,.31,.39,.67,.74,1.08,1.02,.41,.29,.85,.51,1.33,.67,.48,.16,.96,.22,1.44,.19,.48-.03,.95-.16,1.41-.4,.46-.23,.86-.6,1.21-1.09Zm6.78,6.42c-.41,.86-.56,1.74-.44,2.64,.12,.9,.51,1.58,1.16,2.05,.72,.51,1.51,.54,2.38,.09,.87-.45,1.78-1.35,2.74-2.7,.95-1.33,1.52-2.52,1.71-3.57,.19-1.05-.13-1.88-.96-2.47-.81-.58-1.7-.55-2.66,.09-.96,.64-2.27,1.93-3.93,3.87Z"/>
    </g>
    <g>
      <path d="M1233.82,516.16l-3.58,3.49-8.04-3.95-7.14,6.96,3.94,7.95-3.44,3.35-12.92-27.93,2.84-2.77,28.34,12.91Zm-20.61,2.77l5.19-5.06-10.18-5,4.99,10.05Z"/>
      <path d="M1223.77,496.94l9.83,8.73c.9,.8,1.77,1.19,2.63,1.18s1.58-.36,2.18-1.03c.62-.7,.93-1.57,.93-2.6,0-1.04-.36-2.12-1.08-3.26l-9.6-8.52,2.95-3.32,15.13,13.42-2.29,2.57-2.26-1.69-.11,.12c.31,.67,.47,1.31,.49,1.93,.02,.62-.06,1.22-.24,1.79-.18,.57-.42,1.12-.73,1.62-.31,.51-.66,.97-1.03,1.39-.58,.66-1.22,1.19-1.9,1.61-.68,.41-1.41,.65-2.2,.72-.79,.07-1.62-.07-2.51-.41-.89-.34-1.83-.95-2.81-1.83l-10.29-9.13,2.92-3.29Z"/>
      <path d="M1237.81,484.96l-1.39,1.81-1.99-1.52,1.07-2.05c-1.33-1.02-2.43-1.92-3.3-2.7-.87-.79-1.58-1.49-2.13-2.11s-.95-1.16-1.23-1.62c-.27-.46-.47-.88-.6-1.24-.28-.89-.29-1.78-.03-2.67,.26-.89,.71-1.75,1.34-2.58,.08-.11,.21-.27,.39-.51,.18-.23,.4-.47,.67-.72,.27-.25,.57-.48,.92-.71,.34-.22,.7-.4,1.07-.52l2.36,3.07c-.3,.1-.76,.31-1.38,.61-.62,.3-1.1,.68-1.46,1.15-.21,.28-.32,.56-.33,.86,0,.3,.13,.65,.4,1.06,.28,.41,.71,.89,1.29,1.42,.59,.53,1.37,1.17,2.35,1.92l2.3,1.76,2.14-2.8,2.34,1.79-2.14,2.8,13.72,10.5-2.68,3.5-13.72-10.5Z"/>
      <path d="M1247.94,471.11c-.5,.72-.74,1.39-.73,2.01,.02,.62,.3,1.11,.86,1.5,.36,.25,.77,.37,1.23,.35s1.05-.34,1.76-.95l2.2-1.93c.86-.77,1.68-1.29,2.48-1.56,.8-.27,1.55-.4,2.25-.38,.7,.02,1.34,.15,1.93,.39,.58,.24,1.09,.51,1.52,.82,.77,.54,1.39,1.18,1.85,1.92,.46,.75,.75,1.55,.87,2.41,.12,.86,.05,1.76-.19,2.7s-.68,1.87-1.32,2.79c-.81,1.16-1.74,2.1-2.8,2.83-1.06,.73-2.02,1.23-2.89,1.5l-2.83-3.24c1.31-.19,2.49-.62,3.52-1.28,1.03-.66,1.82-1.39,2.37-2.18,.58-.83,.82-1.61,.73-2.32-.09-.71-.49-1.31-1.18-1.8-.41-.28-.83-.41-1.26-.39-.43,.03-.97,.3-1.62,.82l-3.06,2.55c-.71,.61-1.41,1.03-2.1,1.25s-1.35,.31-1.99,.28-1.23-.17-1.78-.41-1.04-.51-1.47-.81c-1.61-1.12-2.5-2.5-2.66-4.14-.16-1.64,.33-3.28,1.47-4.92,.59-.85,1.36-1.69,2.3-2.5,.94-.81,1.88-1.39,2.84-1.73l2.58,3.21c-.69,.17-1.51,.51-2.45,1.02s-1.75,1.25-2.42,2.21Z"/>
      <path d="M1263.97,450.81c-.36,.12-.75,.3-1.19,.54-.44,.24-.87,.52-1.29,.85-.42,.33-.83,.69-1.21,1.1-.38,.4-.71,.8-.97,1.21-.5,.76-.76,1.5-.8,2.23-.04,.73,.09,1.42,.38,2.07,.29,.65,.72,1.27,1.29,1.85,.57,.58,1.21,1.1,1.92,1.56,.83,.55,1.67,.97,2.51,1.26,.84,.29,1.65,.44,2.42,.43,.77,0,1.5-.18,2.17-.52,.68-.34,1.25-.87,1.72-1.58,.53-.8,.91-1.77,1.14-2.91,.24-1.14,.23-2.22-.01-3.24l3.9,1.59c.03,.91-.11,2.04-.42,3.38-.32,1.34-.88,2.62-1.68,3.85-.85,1.3-1.83,2.27-2.96,2.92-1.12,.65-2.31,1.03-3.54,1.13-1.24,.1-2.51-.04-3.81-.44-1.3-.39-2.57-.99-3.8-1.79-1.18-.77-2.2-1.65-3.07-2.65s-1.5-2.09-1.9-3.28c-.4-1.18-.51-2.44-.33-3.75,.18-1.32,.73-2.68,1.65-4.09,.7-1.07,1.52-2.03,2.46-2.88,.94-.85,1.84-1.44,2.69-1.78l2.75,2.94Z"/>
      <path d="M1267.27,441.82c-.7-1.32-1.02-2.55-.97-3.7,.05-1.15,.43-2.3,1.16-3.46,.42-.68,.94-1.27,1.55-1.77,.61-.5,1.3-.85,2.08-1.04,.78-.19,1.64-.18,2.58,.01,.95,.2,1.98,.65,3.1,1.35l11.66,7.31-2.34,3.73-11.32-7.1c-1.02-.64-1.91-.91-2.67-.83-.76,.09-1.37,.48-1.81,1.18-.27,.43-.47,.92-.62,1.48-.14,.56-.19,1.13-.15,1.73s.18,1.18,.4,1.76c.22,.58,.55,1.11,.97,1.6l10.99,6.89-2.34,3.73-27.57-17.28,2.34-3.73,12.96,8.13Z"/>
      <path d="M1286.27,417.04l9.99,10.67-2.76,4.55-20.76-4.75,2.38-3.94,15.77,3.93-11.02-11.77,2.28-3.77,15.54,4.3-10.79-12.14,2.34-3.87,13.84,16.19-2.71,4.49-14.09-3.89Z"/>
      <path d="M1292.81,394.09l11.34,6.65c1.04,.61,1.97,.82,2.81,.65,.83-.18,1.48-.65,1.94-1.44,.47-.81,.61-1.72,.41-2.73-.2-1.02-.76-2.01-1.69-2.99l-11.07-6.5,2.25-3.83,17.44,10.24-1.74,2.97-2.55-1.22-.08,.14c.43,.6,.72,1.2,.85,1.8,.14,.61,.17,1.21,.11,1.81-.06,.6-.2,1.18-.41,1.73-.21,.56-.46,1.08-.74,1.56-.45,.76-.96,1.41-1.55,1.94s-1.26,.92-2.02,1.14c-.76,.22-1.61,.25-2.55,.08-.94-.16-1.98-.58-3.12-1.25l-11.87-6.96,2.23-3.8Z"/>
      <path d="M1325.1,378.72l-11.6-6.64c-2.08-1.19-3.59-.98-4.52,.64-.23,.39-.39,.86-.5,1.4-.11,.54-.13,1.1-.08,1.68,.05,.58,.2,1.17,.44,1.75,.24,.58,.59,1.12,1.06,1.6l11.26,6.44-2.19,3.82-17.55-10.05,1.71-2.99,2.69,1.31,.08-.14c-.79-1.1-1.15-2.31-1.08-3.64,.07-1.33,.44-2.58,1.12-3.77,.44-.76,.96-1.42,1.56-1.97,.6-.55,1.29-.94,2.07-1.19,.78-.24,1.65-.29,2.61-.14,.96,.15,2.01,.55,3.16,1.21l11.94,6.84-2.19,3.82Z"/>
      <path d="M1325.41,365.22c-1.07,.78-2.25,1.11-3.53,1-1.28-.11-2.53-.5-3.73-1.17-1-.56-1.85-1.23-2.55-2.02-.7-.79-1.2-1.64-1.51-2.57-.31-.92-.42-1.88-.33-2.89,.09-1,.42-2.02,1-3.04,.34-.61,.74-1.17,1.19-1.69,.46-.52,.93-.94,1.43-1.24,.55-.98,.97-1.91,1.28-2.79,.31-.88,.55-1.76,.73-2.64l.44-.16,2.7,2.02,.09,.28-1.69,2.31,.1,.1c1.54-.18,3.06,.15,4.54,.98,.9,.5,1.65,1.12,2.27,1.84,.62,.73,1.06,1.53,1.32,2.41s.34,1.83,.22,2.85c-.12,1.02-.47,2.05-1.05,3.1-.14,.26-.26,.46-.36,.6-.1,.14-.18,.29-.26,.43-.07,.48-.04,.9,.09,1.24s.32,.59,.57,.73c.28,.16,.6,.17,.94,.02,.35-.14,.71-.46,1.09-.95l2.36-3.13c.53-.71,1.11-1.33,1.74-1.85,.63-.52,1.3-.91,2.01-1.17,.71-.26,1.46-.35,2.23-.29,.77,.06,1.55,.32,2.35,.76,.79,.44,1.47,1.02,2.05,1.74,.57,.72,.96,1.56,1.16,2.53,.2,.97,.19,2.04-.03,3.21-.22,1.18-.72,2.46-1.5,3.86-.69,1.23-1.43,2.25-2.23,3.04-.8,.79-1.61,1.39-2.43,1.78-.83,.4-1.65,.59-2.46,.57-.82-.01-1.58-.22-2.3-.62-.51-.29-.97-.65-1.38-1.09-.41-.44-.74-.93-1-1.45-.26-.53-.45-1.08-.57-1.65s-.13-1.12-.04-1.65l-.15-.09c-.56,.39-1.11,.57-1.66,.54-.55-.03-1.03-.17-1.44-.39-.54-.3-.95-.74-1.22-1.33-.28-.58-.38-1.25-.29-2l-.15-.09Zm-.06-4.94c.53-.95,.6-1.87,.19-2.73s-1.09-1.57-2.07-2.12c-.46-.26-.96-.46-1.5-.61-.54-.15-1.07-.2-1.6-.16-.53,.04-1.02,.19-1.48,.44s-.83,.63-1.12,1.14c-.27,.49-.41,.98-.4,1.48,0,.49,.12,.96,.35,1.41s.52,.85,.91,1.22c.38,.37,.8,.68,1.26,.94,.46,.26,.95,.45,1.47,.57,.52,.12,1.02,.15,1.51,.09,.49-.06,.95-.23,1.38-.49,.43-.26,.79-.65,1.08-1.16Zm7.95,5.87c-.29,.88-.3,1.76-.04,2.64,.26,.88,.77,1.53,1.51,1.94,.82,.46,1.64,.43,2.46-.07,.82-.5,1.62-1.46,2.4-2.85,.77-1.37,1.17-2.59,1.2-3.64,.03-1.05-.42-1.84-1.37-2.37-.92-.52-1.83-.43-2.72,.27-.89,.69-2.04,2.05-3.44,4.08Z"/>
    </g>
    <g>
      <path d="M519.19,377.05c-.15-.26-.31-.53-.46-.81-.16-.28-.31-.58-.47-.9l-10.19,5.81-2.36-4.14,23.88-13.62c.22,.38,.47,.82,.75,1.31,.28,.49,.56,.99,.85,1.49,.29,.5,.56,.98,.81,1.42,.25,.44,.46,.8,.61,1.06,1.75,3.07,2.51,5.74,2.27,8.01-.24,2.27-1.47,4.04-3.69,5.3-1.41,.8-2.87,1.18-4.39,1.12-1.52-.06-3.02-.74-4.5-2.06l-5.8,14.86-2.73-4.79,5.43-14.08Zm10.23-6.08c-.11-.19-.24-.42-.39-.68-.15-.26-.32-.53-.51-.81l-6.84,3.9,1.27,2.23c.74,1.3,1.63,2.1,2.66,2.4s2.15,.11,3.35-.57c1.08-.62,1.68-1.4,1.81-2.35,.13-.95-.32-2.32-1.35-4.12Z"/>
      <path d="M538.72,395.51c1.17,2.13,1.54,4.07,1.1,5.83-.44,1.76-1.64,3.17-3.6,4.25-.27,.15-.56,.29-.88,.42s-.65,.24-.97,.34c-.32,.1-.62,.17-.9,.21-.28,.04-.51,.05-.71,.04l-5.82-10.57c-.7,.45-1.31,.96-1.83,1.53-.52,.57-.91,1.19-1.15,1.86-.25,.67-.34,1.38-.3,2.13,.05,.75,.29,1.52,.73,2.32,.49,.9,1.19,1.75,2.08,2.57,.89,.82,1.79,1.44,2.68,1.86l-2.62,2.29c-.37-.21-.79-.48-1.28-.81-.48-.33-.98-.74-1.5-1.21-.51-.47-1.02-1.01-1.52-1.6-.5-.59-.95-1.25-1.35-1.98-.75-1.36-1.17-2.68-1.27-3.99-.1-1.3,.06-2.53,.48-3.67,.42-1.15,1.07-2.2,1.93-3.15,.87-.95,1.88-1.75,3.04-2.39,1.19-.65,2.42-1.09,3.71-1.31,1.28-.22,2.54-.19,3.76,.08,1.22,.27,2.37,.82,3.43,1.64,1.07,.82,1.98,1.92,2.74,3.3Zm-3.18,1.61c-.56-1.02-1.33-1.72-2.32-2.11-.99-.39-2.08-.46-3.27-.21l3.82,6.94c.09-.02,.18-.04,.28-.09,.1-.04,.23-.1,.37-.18,.77-.43,1.27-1.05,1.48-1.86,.22-.81,.09-1.64-.38-2.49Z"/>
      <path d="M544.46,415.17l-3.91-7.31,3.25-1.74,6.13,11.48-3.25,1.74-14.53-2.39,4.41,8.27-3.25,1.74-6.52-12.21,3.25-1.74,14.42,2.17Z"/>
      <path d="M556.81,429.43c1.12,2.16,1.44,4.11,.95,5.86-.48,1.74-1.72,3.13-3.71,4.16-.27,.14-.57,.27-.89,.39-.33,.12-.65,.23-.98,.32-.33,.09-.63,.15-.91,.19-.28,.03-.52,.04-.71,.02l-5.55-10.71c-.71,.43-1.33,.92-1.87,1.48s-.94,1.17-1.2,1.83c-.26,.67-.38,1.37-.35,2.12,.03,.75,.25,1.53,.67,2.34,.47,.91,1.14,1.78,2.01,2.62,.87,.84,1.75,1.48,2.63,1.93l-2.68,2.23c-.36-.22-.78-.5-1.25-.84-.48-.35-.96-.76-1.46-1.25-.5-.49-.99-1.03-1.48-1.64-.48-.61-.92-1.28-1.3-2.01-.71-1.38-1.1-2.71-1.17-4.02-.07-1.3,.12-2.52,.58-3.66,.45-1.14,1.12-2.17,2.01-3.1,.89-.93,1.92-1.7,3.1-2.31,1.2-.62,2.45-1.03,3.74-1.21,1.29-.19,2.54-.12,3.76,.18,1.22,.3,2.35,.88,3.39,1.72,1.04,.84,1.93,1.97,2.65,3.37Zm-3.22,1.53c-.53-1.03-1.29-1.75-2.27-2.17-.98-.41-2.06-.51-3.26-.3l3.64,7.03c.09-.01,.18-.04,.29-.08,.1-.04,.23-.1,.38-.17,.79-.41,1.3-1.01,1.53-1.82,.24-.81,.13-1.64-.31-2.5Z"/>
      <path d="M562.06,447.22c-.41-.82-.88-1.37-1.42-1.68-.54-.3-1.09-.31-1.66-.03-.37,.19-.65,.49-.82,.9-.18,.41-.16,1.09,.07,2.03l.73,2.93c.3,1.15,.39,2.14,.29,2.98-.1,.84-.31,1.56-.63,2.17-.32,.61-.7,1.1-1.16,1.48s-.91,.69-1.35,.91c-.79,.4-1.61,.6-2.45,.62-.84,.02-1.66-.14-2.45-.49-.79-.34-1.54-.87-2.25-1.56-.71-.7-1.32-1.57-1.84-2.6-.66-1.31-1.07-2.62-1.25-3.92-.17-1.3-.19-2.41-.06-3.31l4-.8c-.39,1.25-.53,2.5-.39,3.75,.13,1.25,.42,2.32,.87,3.21,.47,.94,1.03,1.55,1.69,1.84,.66,.29,1.34,.26,2.06-.1,.42-.21,.71-.51,.87-.9,.16-.39,.15-1-.02-1.84l-.89-4c-.22-.94-.28-1.77-.18-2.48,.1-.72,.31-1.34,.61-1.88,.3-.54,.67-.99,1.11-1.35,.44-.36,.88-.65,1.32-.87,1.66-.83,3.23-.89,4.71-.18,1.48,.71,2.69,1.99,3.62,3.84,.48,.96,.87,2.07,1.17,3.31,.3,1.24,.39,2.37,.28,3.38l-3.87,.6c.15-.69,.2-1.59,.16-2.68-.04-1.09-.33-2.19-.87-3.27Z"/>
      <path d="M570.06,463.42c-.4-.82-.87-1.39-1.4-1.69-.54-.31-1.09-.32-1.66-.05-.37,.18-.65,.48-.83,.89-.18,.41-.17,1.09,.04,2.03l.69,2.94c.28,1.15,.37,2.15,.25,2.99-.11,.84-.33,1.56-.65,2.16-.32,.6-.71,1.09-1.18,1.47-.46,.38-.92,.68-1.36,.89-.8,.39-1.61,.58-2.45,.59-.84,0-1.65-.16-2.44-.52-.79-.35-1.53-.89-2.23-1.59-.7-.71-1.3-1.58-1.81-2.63-.64-1.32-1.04-2.63-1.2-3.94-.16-1.31-.17-2.41-.02-3.31l4.01-.75c-.41,1.24-.56,2.49-.44,3.74,.12,1.25,.39,2.32,.83,3.22,.46,.94,1.01,1.57,1.67,1.86,.65,.3,1.34,.27,2.06-.08,.42-.21,.72-.5,.88-.89,.16-.39,.17-1,0-1.84l-.85-4.02c-.21-.94-.26-1.77-.15-2.49,.11-.72,.32-1.34,.63-1.88,.31-.53,.68-.98,1.13-1.33,.44-.35,.89-.64,1.34-.86,1.67-.81,3.24-.85,4.71-.12,1.48,.73,2.67,2.02,3.57,3.89,.47,.97,.85,2.08,1.13,3.32,.28,1.25,.36,2.37,.24,3.39l-3.88,.55c.16-.69,.22-1.58,.2-2.68-.02-1.09-.3-2.19-.83-3.28Z"/>
      <path d="M562.6,485.55l-1.96-4.12,17.23-8.18,1.95,4.12-17.23,8.17Zm20.54-15.52c.35-.17,.72-.26,1.11-.27,.39-.02,.77,.04,1.16,.16,.38,.12,.72,.31,1.02,.55,.3,.24,.54,.55,.71,.92,.17,.35,.25,.72,.25,1.12,0,.4-.06,.79-.2,1.17s-.33,.73-.59,1.04c-.25,.3-.56,.54-.9,.7-.38,.18-.75,.27-1.14,.26-.38,0-.76-.07-1.14-.22-.37-.14-.71-.35-1-.6-.29-.26-.52-.56-.69-.91-.34-.72-.38-1.47-.1-2.25,.28-.77,.78-1.33,1.5-1.68Z"/>
      <path d="M586.46,490.12c.71,1.53,1.06,2.97,1.05,4.31,0,1.34-.27,2.57-.81,3.69-.54,1.11-1.28,2.1-2.24,2.95-.96,.85-2.06,1.57-3.29,2.13-1.23,.57-2.47,.93-3.72,1.1s-2.45,.08-3.59-.26c-1.15-.34-2.21-.94-3.19-1.82-.98-.87-1.81-2.05-2.5-3.53-.71-1.53-1.06-2.96-1.07-4.3,0-1.34,.24-2.56,.75-3.68,.5-1.12,1.23-2.1,2.17-2.96,.94-.86,2.03-1.58,3.26-2.14,1.23-.57,2.48-.93,3.74-1.09,1.27-.16,2.48-.07,3.66,.25,1.17,.33,2.26,.93,3.25,1.81s1.84,2.06,2.52,3.54Zm-15.17,7.09c.34,.73,.78,1.29,1.35,1.68,.56,.39,1.19,.64,1.9,.75,.7,.1,1.44,.07,2.22-.09,.78-.16,1.56-.42,2.33-.78,.8-.37,1.53-.82,2.19-1.33,.66-.52,1.19-1.09,1.58-1.71,.4-.62,.64-1.29,.72-2,.08-.71-.05-1.45-.41-2.23-.34-.73-.78-1.28-1.34-1.67-.56-.38-1.18-.62-1.86-.72-.68-.1-1.41-.06-2.19,.1-.78,.16-1.56,.42-2.33,.78-.8,.37-1.54,.81-2.2,1.31-.67,.5-1.2,1.07-1.61,1.7-.41,.63-.66,1.3-.74,2.01-.08,.71,.05,1.44,.4,2.19Z"/>
      <path d="M579.62,522.9l11.53-5.1c2.07-.92,2.72-2.26,1.94-4.03-.19-.43-.47-.86-.84-1.28-.37-.43-.8-.8-1.29-1.13-.49-.33-1.03-.58-1.63-.75-.59-.18-1.21-.23-1.84-.16l-11.19,4.95-1.85-4.17,17.44-7.72,1.44,3.26-2.49,1.33,.07,.15c1.3,.06,2.45,.54,3.47,1.44,1.02,.9,1.81,1.99,2.38,3.28,.37,.83,.61,1.67,.72,2.49,.11,.83,.05,1.63-.18,2.41s-.66,1.51-1.3,2.18c-.64,.67-1.53,1.26-2.66,1.77l-11.87,5.25-1.85-4.17Z"/>
    </g>
    <g>
      <path d="M1019.46,329.78c-.15-.26-.3-.53-.46-.81-.16-.28-.31-.58-.47-.9l-10.19,5.81-2.36-4.14,23.88-13.62c.22,.38,.47,.82,.75,1.31,.28,.49,.57,.99,.85,1.49,.29,.5,.56,.98,.81,1.42,.25,.44,.46,.8,.61,1.06,1.75,3.07,2.51,5.74,2.27,8.01-.24,2.27-1.47,4.04-3.69,5.3-1.41,.8-2.87,1.18-4.39,1.12-1.52-.06-3.02-.74-4.5-2.06l-5.79,14.86-2.73-4.79,5.43-14.08Zm10.23-6.08c-.11-.19-.24-.42-.39-.68-.15-.26-.32-.53-.51-.81l-6.84,3.9,1.27,2.23c.74,1.3,1.62,2.1,2.66,2.4,1.03,.3,2.15,.11,3.35-.57,1.08-.62,1.68-1.4,1.81-2.35,.13-.95-.32-2.32-1.35-4.12Z"/>
      <path d="M1038.99,348.24c1.17,2.13,1.54,4.07,1.1,5.83-.44,1.76-1.64,3.17-3.6,4.25-.27,.15-.56,.29-.88,.42-.32,.13-.65,.25-.97,.35-.32,.1-.62,.17-.9,.21-.28,.04-.51,.05-.71,.04l-5.82-10.57c-.7,.45-1.31,.96-1.83,1.53s-.91,1.19-1.15,1.86c-.25,.67-.34,1.38-.3,2.13,.05,.75,.29,1.52,.73,2.32,.49,.9,1.19,1.75,2.08,2.57s1.79,1.44,2.68,1.86l-2.62,2.29c-.37-.21-.79-.48-1.28-.81-.48-.33-.98-.74-1.5-1.21-.51-.47-1.02-1.01-1.52-1.6-.5-.59-.95-1.25-1.35-1.98-.75-1.36-1.17-2.68-1.27-3.99-.1-1.3,.06-2.53,.48-3.67,.42-1.15,1.07-2.2,1.93-3.15,.87-.95,1.88-1.74,3.04-2.38,1.19-.65,2.42-1.09,3.71-1.31,1.28-.22,2.54-.19,3.76,.08,1.22,.27,2.37,.82,3.43,1.64,1.07,.82,1.98,1.92,2.74,3.3Zm-3.18,1.61c-.56-1.02-1.33-1.72-2.32-2.11-.99-.39-2.08-.46-3.26-.21l3.82,6.94c.09-.02,.18-.04,.28-.09s.23-.1,.37-.18c.78-.43,1.27-1.05,1.49-1.86,.21-.81,.09-1.64-.38-2.49Z"/>
      <path d="M1044.73,367.9l-3.91-7.31,3.25-1.74,6.13,11.48-3.25,1.74-14.53-2.39,4.41,8.27-3.25,1.74-6.52-12.21,3.25-1.74,14.42,2.17Z"/>
      <path d="M1057.08,382.16c1.12,2.16,1.44,4.11,.95,5.86s-1.72,3.13-3.71,4.16c-.27,.14-.57,.27-.89,.39-.33,.12-.65,.23-.98,.32s-.63,.15-.91,.19c-.28,.03-.52,.04-.71,.02l-5.55-10.71c-.71,.43-1.33,.92-1.87,1.48s-.94,1.17-1.2,1.83c-.26,.67-.38,1.37-.35,2.12,.03,.75,.25,1.53,.67,2.34,.47,.91,1.14,1.78,2.01,2.62,.87,.84,1.75,1.48,2.63,1.93l-2.68,2.23c-.36-.22-.78-.5-1.25-.84-.47-.35-.96-.76-1.46-1.25-.5-.49-.99-1.03-1.48-1.64-.48-.61-.92-1.28-1.3-2.01-.71-1.38-1.1-2.71-1.17-4.02-.07-1.3,.12-2.52,.58-3.66,.45-1.14,1.12-2.17,2.01-3.1,.89-.93,1.92-1.7,3.1-2.31,1.2-.62,2.45-1.03,3.74-1.21,1.29-.19,2.54-.12,3.76,.18,1.22,.3,2.35,.88,3.39,1.72,1.04,.84,1.93,1.97,2.65,3.37Zm-3.22,1.53c-.53-1.03-1.29-1.75-2.26-2.17-.98-.41-2.06-.51-3.26-.3l3.64,7.03c.09-.01,.18-.04,.29-.08,.1-.04,.23-.1,.38-.17,.79-.41,1.3-1.01,1.53-1.82,.24-.81,.13-1.64-.31-2.5Z"/>
      <path d="M1062.32,399.95c-.41-.82-.88-1.37-1.42-1.68s-1.09-.31-1.66-.03c-.37,.19-.65,.49-.82,.9-.18,.41-.16,1.09,.07,2.03l.73,2.93c.3,1.15,.39,2.14,.29,2.99s-.31,1.56-.63,2.17c-.32,.61-.7,1.1-1.16,1.48-.46,.38-.91,.69-1.35,.91-.79,.4-1.61,.6-2.45,.62-.84,.02-1.66-.14-2.45-.49-.79-.35-1.54-.87-2.25-1.56-.71-.7-1.32-1.57-1.84-2.6-.66-1.31-1.07-2.62-1.25-3.92-.17-1.3-.19-2.41-.06-3.31l4-.8c-.39,1.25-.53,2.5-.4,3.75,.13,1.25,.42,2.32,.87,3.21,.47,.94,1.03,1.55,1.69,1.84,.66,.29,1.34,.25,2.06-.1,.42-.21,.71-.51,.87-.9,.16-.39,.15-1-.02-1.84l-.89-4c-.22-.94-.28-1.77-.18-2.48,.1-.72,.31-1.34,.61-1.88,.3-.54,.67-.99,1.11-1.35s.88-.65,1.33-.87c1.66-.83,3.22-.89,4.71-.18,1.48,.71,2.69,1.99,3.62,3.84,.48,.96,.87,2.07,1.17,3.31,.3,1.24,.39,2.37,.28,3.38l-3.88,.6c.15-.69,.2-1.59,.16-2.68-.04-1.09-.33-2.19-.88-3.27Z"/>
      <path d="M1070.32,416.15c-.4-.82-.87-1.39-1.4-1.69-.53-.31-1.09-.32-1.66-.05-.37,.18-.65,.48-.83,.89s-.17,1.09,.04,2.03l.69,2.94c.28,1.15,.37,2.15,.25,2.99-.12,.84-.33,1.56-.65,2.16-.32,.6-.71,1.09-1.18,1.47-.46,.38-.92,.68-1.36,.89-.8,.39-1.61,.58-2.45,.59-.84,0-1.66-.16-2.44-.52-.79-.35-1.53-.89-2.23-1.59-.7-.71-1.3-1.58-1.81-2.63-.64-1.32-1.04-2.63-1.2-3.94-.16-1.31-.17-2.41-.02-3.31l4.01-.75c-.41,1.24-.56,2.49-.44,3.74,.12,1.25,.39,2.32,.83,3.22,.46,.94,1.01,1.57,1.67,1.86,.65,.3,1.34,.27,2.06-.08,.42-.21,.72-.5,.88-.89s.17-1,0-1.84l-.84-4.01c-.21-.94-.26-1.77-.15-2.49,.11-.72,.32-1.34,.63-1.88,.31-.53,.68-.98,1.13-1.33,.44-.35,.89-.64,1.34-.86,1.67-.81,3.24-.85,4.71-.12,1.47,.73,2.67,2.02,3.57,3.89,.47,.97,.85,2.08,1.13,3.32,.28,1.25,.36,2.37,.24,3.39l-3.88,.55c.16-.69,.22-1.58,.2-2.68-.03-1.09-.3-2.19-.83-3.28Z"/>
      <path d="M1062.86,438.28l-1.96-4.12,17.23-8.18,1.96,4.12-17.23,8.18Zm20.54-15.53c.35-.17,.72-.26,1.11-.27,.39-.02,.77,.04,1.16,.16,.38,.12,.72,.31,1.02,.55,.3,.24,.54,.55,.71,.92,.17,.35,.25,.72,.26,1.12,0,.4-.06,.79-.2,1.17-.14,.39-.33,.73-.59,1.04-.25,.3-.55,.54-.9,.7-.38,.18-.75,.27-1.14,.26-.38,0-.76-.07-1.14-.22s-.71-.35-1-.6c-.29-.26-.52-.56-.69-.91-.34-.72-.38-1.47-.1-2.25,.28-.77,.78-1.33,1.5-1.68Z"/>
      <path d="M1086.72,442.83c.71,1.53,1.06,2.97,1.05,4.31,0,1.34-.28,2.57-.81,3.68-.54,1.12-1.28,2.1-2.24,2.95-.96,.85-2.06,1.57-3.29,2.13-1.23,.57-2.47,.93-3.72,1.1s-2.45,.08-3.59-.26c-1.15-.34-2.21-.94-3.19-1.82-.98-.87-1.81-2.05-2.5-3.53-.71-1.53-1.06-2.96-1.07-4.3,0-1.34,.24-2.56,.75-3.68s1.23-2.1,2.17-2.96c.94-.86,2.03-1.58,3.26-2.14,1.23-.57,2.48-.93,3.74-1.09,1.27-.16,2.48-.07,3.66,.25,1.17,.33,2.26,.93,3.25,1.81,1,.88,1.84,2.06,2.52,3.54Zm-15.17,7.09c.34,.73,.79,1.29,1.35,1.68,.56,.39,1.19,.64,1.9,.75,.7,.1,1.44,.07,2.22-.09,.78-.16,1.56-.42,2.33-.78,.8-.37,1.53-.81,2.19-1.33,.66-.52,1.19-1.09,1.58-1.71s.64-1.29,.72-2-.05-1.45-.41-2.23c-.34-.73-.78-1.28-1.34-1.67-.56-.38-1.18-.62-1.86-.72s-1.41-.06-2.19,.1c-.78,.16-1.56,.42-2.33,.78-.8,.37-1.54,.81-2.2,1.31s-1.2,1.07-1.61,1.7-.66,1.3-.74,2.01c-.08,.71,.05,1.44,.39,2.19Z"/>
      <path d="M1079.89,475.63l11.53-5.1c2.07-.92,2.72-2.26,1.93-4.03-.19-.43-.47-.86-.84-1.28-.37-.43-.8-.8-1.29-1.13-.49-.33-1.03-.58-1.63-.75-.59-.18-1.21-.23-1.84-.16l-11.19,4.95-1.84-4.17,17.44-7.72,1.44,3.26-2.5,1.33,.07,.15c1.3,.06,2.45,.54,3.47,1.44,1.01,.9,1.81,1.99,2.38,3.28,.37,.83,.61,1.67,.72,2.49,.11,.83,.05,1.63-.18,2.41s-.66,1.51-1.3,2.18c-.64,.67-1.53,1.26-2.66,1.77l-11.87,5.25-1.85-4.17Z"/>
    </g>
    <g>
      <path class="cls-3" d="M92.95,784.92H1409.49"/>
      <polygon points="1406.58 794.89 1423.85 784.92 1406.58 774.95 1406.58 794.89"/>
    </g>
    <g>
      <path d="M1475.1,796.56h-19.4v-4.15l13.6-19.07h-12.98v-4.15h18.16v4.15l-13.6,19.07h14.22v4.15Z"/>
      <path d="M1487.91,776.86c2.43,0,4.31,.62,5.64,1.85,1.33,1.23,1.99,2.96,1.99,5.2,0,.3-.02,.63-.06,.97-.04,.35-.1,.68-.17,1.02-.07,.33-.15,.63-.25,.89s-.2,.48-.31,.64h-12.07c.06,.83,.21,1.61,.46,2.34,.25,.73,.61,1.37,1.08,1.91s1.04,.97,1.72,1.29c.68,.32,1.47,.48,2.38,.48,1.02,0,2.11-.19,3.25-.58,1.15-.39,2.12-.87,2.92-1.45l.75,3.4c-.36,.22-.8,.46-1.33,.73-.53,.26-1.12,.5-1.78,.73-.66,.22-1.38,.41-2.13,.56-.76,.15-1.55,.23-2.38,.23-1.55,0-2.92-.27-4.11-.81s-2.18-1.27-2.98-2.2c-.8-.93-1.41-2-1.82-3.21-.42-1.22-.62-2.49-.62-3.81s.21-2.65,.64-3.88c.43-1.23,1.06-2.31,1.89-3.25,.83-.94,1.86-1.68,3.09-2.22,1.23-.54,2.63-.81,4.21-.81Zm-.12,3.57c-1.16,0-2.15,.34-2.96,1.02-.82,.68-1.4,1.6-1.76,2.76h7.92c.03-.08,.05-.18,.06-.29s.02-.25,.02-.42c0-.88-.3-1.62-.91-2.2-.61-.58-1.4-.87-2.36-.87Z"/>
      <path d="M1499.52,771.35c0-.39,.08-.76,.23-1.12,.15-.36,.37-.68,.64-.97,.28-.29,.59-.52,.93-.68s.73-.25,1.14-.25c.39,0,.76,.08,1.12,.25,.36,.17,.68,.39,.97,.68s.52,.62,.68,.97c.17,.36,.25,.73,.25,1.12,0,.41-.08,.79-.25,1.14-.17,.35-.39,.66-.68,.93-.29,.28-.62,.49-.97,.64-.36,.15-.73,.23-1.12,.23-.8,0-1.49-.29-2.07-.87-.58-.58-.87-1.27-.87-2.07Zm5.22,25.21h-4.56v-19.07h4.56v19.07Z"/>
      <path d="M1511.34,780.26h-2.36v-2.49l2.7-.41,.75-5.64h3.48v5.76h3.65v2.78h-3.65v10.95c0,.83,.08,1.39,.25,1.68,.17,.29,.48,.43,.95,.43,.36,0,.72-.07,1.08-.21,.36-.14,.88-.4,1.58-.79l.75,3.28c-.53,.44-1.26,.79-2.22,1.06-.95,.26-1.9,.39-2.84,.39-.83,0-1.51-.11-2.05-.33s-.96-.55-1.26-.97c-.3-.43-.51-.95-.62-1.55-.11-.61-.17-1.29-.17-2.03v-11.9Z"/>
    </g>
    <g>
      <path class="cls-3" d="M92.95,272.71V784.98"/>
      <polygon points="82.97 275.63 92.95 258.36 102.92 275.63 82.97 275.63"/>
    </g>
    <g>
      <path d="M83.77,210.09c1.1,0,2.09,.23,2.99,.68,.89,.46,1.65,1.17,2.29,2.14,.55-1.66,1.41-2.96,2.59-3.9,1.18-.94,2.67-1.41,4.48-1.41,1.15,0,2.23,.21,3.25,.62s1.91,1.05,2.67,1.91c.77,.86,1.38,1.92,1.83,3.19,.45,1.27,.68,2.76,.68,4.48v4.44c0,1.44-.12,2.64-.35,3.61h-27.38c-.08-.3-.12-.73-.12-1.29v-5.39c0-2.93,.6-5.18,1.79-6.74,1.19-1.56,2.96-2.34,5.29-2.34Zm-3.27,8.29c0,.55,.02,1.04,.06,1.47,.04,.43,.09,.84,.15,1.22h7.09c.03-.33,.04-.67,.04-1.02v-1.06c0-1.22-.41-2.17-1.22-2.86-.81-.69-1.89-1.04-3.21-1.04-.83,0-1.52,.28-2.07,.85-.55,.57-.83,1.38-.83,2.43Zm10.82-.37v3.07h9.29c.06-.5,.08-1.01,.08-1.53v-1.62c0-1.69-.41-3-1.24-3.94-.83-.94-2.02-1.41-3.59-1.41-1.4,0-2.51,.43-3.32,1.29-.81,.86-1.22,2.24-1.22,4.15Z"/>
      <path d="M104.18,197.44v4.77h-27.36v-4.77h27.36Z"/>
      <path d="M93.85,182.69v2.69h10.3v4.77h-27.47v-6.59c0-1.55,.19-2.96,.56-4.23,.37-1.27,.93-2.36,1.67-3.28,.74-.91,1.65-1.62,2.74-2.11s2.34-.75,3.77-.75c1.15,0,2.24,.19,3.25,.58,1.02,.39,1.91,.97,2.68,1.74,.77,.77,1.38,1.76,1.83,2.96,.45,1.2,.68,2.61,.68,4.21Zm-13.27,.21v1.29c0,.41,.05,.82,.15,1.2h9.1c.03-.39,.04-.79,.04-1.22v-1.35c0-1.49-.41-2.62-1.24-3.38-.83-.76-2.02-1.14-3.59-1.14-1.32,0-2.39,.34-3.22,1.02-.83,.68-1.24,1.87-1.24,3.59Z"/>
    </g>
  </g>
</svg>