<?xml version="1.0" encoding="UTF-8"?>
<svg id="Ebene_2" data-name="Ebene 2" xmlns="http://www.w3.org/2000/svg" xmlns:xlink="http://www.w3.org/1999/xlink" viewBox="0 0 1200 790">
  <defs>
    <style>
      .cls-1 {
        fill: #fff;
      }

      .cls-2 {
        fill: #243c77;
      }

      .cls-3 {
        stroke: #fff;
        stroke-miterlimit: 10;
        stroke-width: 3px;
      }

      .cls-3, .cls-4, .cls-5 {
        fill: none;
      }

      .cls-6 {
        fill: #393247;
      }

      .cls-7 {
        clip-path: url(#clippath);
      }

      .cls-8 {
        fill: #ff6040;
      }

      .cls-5 {
        stroke: #000;
        stroke-linecap: round;
        stroke-linejoin: round;
        stroke-width: 2px;
      }

      .cls-9 {
        fill: #d2d2d2;
      }

      .cls-10 {
        fill: #f2f2f2;
      }
    </style>
    <clipPath id="clippath">
      <rect class="cls-4" width="1200" height="790"/>
    </clipPath>
  </defs>
  <g id="Ebene_1-2" data-name="Ebene 1">
    <g class="cls-7">
      <rect class="cls-2" width="1200" height="790"/>
      <rect class="cls-4" width="1200" height="790"/>
      <g>
        <polygon class="cls-8" points="67.1 763.11 66.46 790 271.31 790 269.31 744.49 195.76 718.77 67.1 763.11"/>
        <path class="cls-8" d="M67.1,771.76c3.84-.96,97.94,8.64,97.94,8.64l7.33-4.35,10.43,4.35s93.14-8.64,87.86-8.64-58.57-31.69-92.18-32.65c-33.61-.96-26.89,5.76-64.33,10.56-37.45,4.8-47.05,22.08-47.05,22.08Z"/>
        <path d="M95.59,441.12s-61.77,25.93-73.94,42.89c-12.16,16.96,5.12,61.13,10.88,92.5,5.76,31.37,10.24,48.01,17.28,62.09,7.04,14.08,14.08,21.12,14.08,21.12l3.2,112.02h96.98l8.29-12.05,9.57,12.05h88.72l-5.12-102.42s20.48,3.2,30.73-10.24c10.24-13.44,6.4-42.25,0-87.06-6.4-44.81-8.32-94.1-29.45-113.3-21.12-19.2-111.93-32.5-111.93-32.5l-59.31,14.9Z"/>
        <path d="M120.56,408.48s-21.44,26.57-24.97,32.65c-3.52,6.08,26.68,32.49,26.68,32.49,0,0,6.93-14.88,7.89-13.92s32.49,13.92,32.49,13.92l14.51-10.72,12.38,10.72s19.68-26.83,13.24-39.21c-5.14-9.86-27.8-25.93-27.8-25.93h-54.41Z"/>
        <path class="cls-1" d="M116.08,380.95s2.72,27.83,2.24,36.81c-.48,8.97-2.24,15.52-2.24,15.52,0,0,16.81,23.04,31.69,31.69l14.88,8.64s21.6-23.04,26.89-43.69c0,0-5.14-7.84-6.82-12.96-1.68-5.12,0-34.04,0-34.04l-66.63-1.96Z"/>
        <g>
          <g>
            <g>
              <path class="cls-1" d="M195.31,347.02h1.25s0-1.03,0-1.03c1.4-.96,3.17-1.52,5.31-.98,6.1,1.56,4.32,22.79-3.47,29.6-1.34,1.17-2.58,2.01-3.71,2.61l-.26-29.2c.27-.34,.57-.67,.9-1Z"/>
              <path class="cls-1" d="M105.1,356.03s-3.27-7.45-9.35-5.78c-6.07,1.67-3.91,22.87,4,29.53,7.91,6.67,10.76,3.3,10.76,3.3,0,0,1.27,5.08,10.25,14.97,8.98,9.89,27.76,24.6,43.89,22.14,15.66-2.39,32.35-25.64,33.61-35.08,1.26-9.44-.64-27.88-1.03-41.35-.39-13.47,3.7-38.83-8.27-51.11-11.96-12.29-60.74-13.74-76.78,.68-16.04,14.42-10.34,49.12-10.33,49.93,0,.81,3.23,12.77,3.23,12.77Z"/>
              <path d="M197.55,352.77l-.98-21.03h0c-2-3.3-2.22-6.8-5.24-12.73-3.02-5.93-1.18-17.78-8.33-20.25-7.15-2.47-11.16,.35-19.87,.93l-8.71,.58s3.26,1.98,3.13,4.8c0,0-4.36-5.15-12.96-2.09-8.6,3.07-12.25,2.51-17.92,.12-5.67-2.38-7.76-.98-7.76-.98,0,0-5.17,2.51-3.89,14.03,1.28,11.51-3.69,20.69-4.79,24.78-1.1,4.09,1.22,23.8,1.22,23.8,0,0-2.93-3.26-3.06-4.08-.13-.82-2.29-4.2-5.3-7l-1.89-12.69s-9.26-19.91-6.92-30.15c3.53-15.41,13.08-20.21,13.08-20.21,0,0-.31-5.53,3.65-10.08l2.4,2.12s2.97-8.85,18.94-11.72c15.97-2.87,27.76,2.3,37.09,1.9,9.33-.4,13.39,1.22,18.65,6.5,5.26,5.29,4,11.14,9.38,13.45l-4.82,.04s5.41,1.15,7.57,10.84c2.16,9.7,.08,7.44,.74,15.15,.66,7.71-.88,13.96-.88,13.96,0,0-.21,9.43-2.52,20Z"/>
            </g>
            <ellipse cx="136.25" cy="337.78" rx="4.82" ry="7.01"/>
            <ellipse cx="173.58" cy="336.18" rx="4.82" ry="7.01"/>
            <path class="cls-5" d="M145.98,325.29c-.85-.66-5.55-4.14-12.04-3.21-5.48,.79-8.75,4.23-9.63,5.22"/>
            <path class="cls-5" d="M183.72,322.6c-.85-.66-5.55-4.14-12.04-3.21-5.48,.79-8.75,4.23-9.63,5.22"/>
            <path class="cls-5" d="M158.32,348.42c2.16,3.5,5.24,8.84,7.54,14.3,.54,1.28,1.32,3.24,.49,4.96-.84,1.74-2.89,2.35-4.41,2.81-3.18,.95-6.09,.52-8.03,0"/>
          </g>
          <path class="cls-5" d="M142.67,390.15c3.64,1.08,10.3,2.54,18.46,1.2,6.04-.99,10.68-3.14,13.64-4.82"/>
        </g>
        <path d="M163.02,500.76s3.75,5.01,4.33,6.93c.57,1.92-3.75,29.29-31.59,82.1-27.85,52.81-44.33,74.1-71.86,69.94l.29,9.28s17.32,6.72,38.44-10.08c21.12-16.8,56.56-98.42,64.77-122.43,8.21-24.01,5.92-32.11-4.38-35.74Z"/>
        <polygon class="cls-1" points="116.78 622.96 148.71 634.33 153.84 591.88 135.76 589.8 116.78 622.96"/>
        <path d="M124.85,487.32s-12.61,27.58-25.1,42.46c-12.48,14.88-47.05,52.81-47.05,52.81,0,0,41.61-52.49,49.93-64.65,8.32-12.16,24.2-41.29,24.2-41.29l-1.99,10.67Z"/>
        <polygon points="70.63 510.26 86.87 544.61 89.77 537.15 70.63 510.26"/>
        <path class="cls-6" d="M149.04,631.57v6.08s68.81,27.53,116.51,31.69l.37,6.75s-117.83-30.12-120.07-33.32,0-11.62,0-11.62l3.2,.42Z"/>
        <polygon points="153.84 594.67 276.43 604.68 240.26 592.2 253.06 514.1 232.26 591.56 144.49 590.8 153.84 594.67"/>
        <path class="cls-9" d="M120.49,439.32l4.47-31.12-5.02-11.32,5.02,3.46s1.01-3.01,4.93-3.46c3.92-.45,7.84,6.22,10.46,12.14,2.61,5.92,7.75,8.33,7.75,8.33,0,0,7.36,2.02,13.45-1.19,6.09-3.21,21.61-12.19,27.99-12.96l-5.02,7.63-57.53,35.41-6.5-6.91Z"/>
        <path class="cls-1" d="M124.85,487.32c.32-1.6,3.07-13.55,2.75-20.91-.32-7.36-4.48-20.48-1.92-30.09,2.56-9.6,.39-33.93,1.96-35.21,1.56-1.28,7.66,.8,9.73,10.96,2.07,10.16,4.34,20.72,4.34,20.72,0,0,44.04-29.34,50.01-29.77,5.97-.43,5.09,4.48,4.04,7.25-1.05,2.77-4.04,5.97-4.04,5.97,0,0,1.92,4.13,.85,9.96-1.07,5.83-3.04,9.03-3.04,9.03,0,0,2.4,1.28,2.61,4.69,.21,3.41,.21,5.55,.21,5.55,0,0,4.45,6.19,3.4,11.74-1.05,5.55-29.22,34.78-29.22,34.78l-3.52,8.75-38.17-13.44Z"/>
        <polygon class="cls-10" points="191.72 416.27 173.58 434.4 192.76 420.47 191.72 416.27"/>
        <g>
          <path class="cls-1" d="M89.77,537.15s-30.51-.16-37.07,2.4c-6.56,2.56-5.6,8-5.6,8,0,0-12.48,4-12.16,8.32,.32,4.32,3.84,4.8,3.84,4.8,0,0-1.76,6.4,.64,8,2.4,1.6,8.16,1.28,8.16,1.28,0,0-2.56,3.2,1.44,4.8s10.8,0,10.8,0l32.28-36.08-2.33-1.53Z"/>
          <path class="cls-10" d="M47.1,547.55s6.72-1.12,18.72-1.44c12-.32,18.44,1.44,18.44,1.44,0,0-6.12-3.36-15.24-3.84-9.12-.48-21.87,1.92-21.87,1.92l-.05,1.92Z"/>
          <path class="cls-10" d="M38.78,560.67s9.28-4.48,21.28-5.12c12-.64,17.28,.75,17.28,.75,0,0-8-3.48-19.28-2.84-11.28,.64-21.67,5.92-21.67,5.92l2.38,1.28Z"/>
          <path class="cls-10" d="M47.58,569.95s3.2-2.72,7.84-3.36c4.64-.64,11.04,0,11.04,0,0,0-5.76-2.72-11.68-2.08-5.92,.64-10.6,5.38-10.6,5.38l3.4,.06Z"/>
        </g>
      </g>
      <path class="cls-3" d="M263.99,422.22c.83-65.8,2.04-114.11,3.83-114.13,3.05-.02,7.05,140.18,13.79,140.17,2.87,0,4.83-25.4,8.43-25.28,3.17,.11,3.7,19.82,5.36,19.91,7.3,.42,28.33-377.75,46.72-377.62,12.99,.09,28.29,188.94,33.7,188.43,1.42-.14,.34-13.16,6.13-15.32,4.96-1.85,10.37,5.98,23.74,16.09,6.73,5.09,27.12,20.5,34.47,15.32,5.39-3.8,2.23-17.55,3.06-17.62,.98-.08,1.38,18.98,6.13,19.91,5.56,1.09,13.74-23.34,17.62-22.21,3.15,.92,.26,17.73,3.06,18.38,2.16,.51,4.1-9.38,7.66-9.96,6.71-1.09,21.28,30.58,36,95.74,19.72,87.28,20.27,148.63,23.74,148.6,7.33-.08,12.09-272.98,29.11-273.45,3.12-.08,5.49,8.99,9.96,8.43,10.06-1.28,11.26-49.13,14.55-49.02,2.98,.1,2.78,39.07,9.19,39.83,4.45,.53,9.2-17.67,13.79-16.85,3.55,.64,3.29,12.06,5.36,12.26,4.25,.4,8.79-47.3,14.55-47.49,10.66-.36,19.7,161.65,32.94,161.62,3.74-.01,5.59-12.98,13.02-42.89,13.19-53.13,24.33-98.01,34.47-98.04,17.6-.06,26.55,135.15,41.36,134.81,11.1-.26,13.87-76.37,22.98-76.6,16.64-.41,31.46,253.07,45.19,252.77,13.31-.3,17.64-238.86,32.17-238.98,5.8-.05,8.97,37.91,14.41,37.72,11.99-.42,8.94-185.15,23.88-186.32,17.65-1.38,47.55,254.44,73.53,252.77,6.98-.45,8.47-19.13,13.79-19.15,22.96-.08,40.06,347.97,47.49,347.74,9.2-.28-8.16-534.43,29.11-537.7,9.31-.82,22.25,31.52,32.94,58.21,20.02,50.03,26.01,99.28,29.11,98.81,2.29-.35-1.77-27.14,6.13-29.87,4.2-1.45,7.44,5.4,12.26,5.36,16.71-.14,22.35-83.16,36-84.26,16.29-1.3,30.53,115.05,50.55,114.89,20.45-.16,31.56-121.72,47.49-121.02,15.76,.7,20.7,120.39,40.6,121.02,5.63,.18,8.14-10.08,12.26-9.19,9.54,2.07,2.3,58.29,2.3,134.81,0,23.51,.68,74.92,3.83,75.06,3.99,.18,11.83-81.48,16.09-153.96,8.8-149.76,1.89-253.15,7.66-253.53,3.46-.23,8.36,36.89,13.02,70.47,8.5,61.2,21.49,148.6,40.6,257.36"/>
      <g>
        <path class="cls-1" d="M171.44,135.3l-2.73,2.06-16.08-10.5,5.77,18.3-2.73,2.06-21.4-13.6,3.59-2.72,15.98,11.02-6.25-18.39,3.24-2.46,15.98,11.02-6.28-18.37,3.59-2.72,7.31,24.27Z"/>
        <path class="cls-1" d="M187.59,124.14l-1.51-1.71-.12,.08c-.08,1.04-.44,2.08-1.09,3.11-.65,1.03-1.45,1.87-2.4,2.52-1.25,.85-2.48,1.15-3.69,.91-1.21-.24-2.21-.95-3.02-2.15-.55-.81-.87-1.66-.96-2.54-.09-.88,.04-1.77,.39-2.66,.35-.89,.9-1.77,1.66-2.62s1.69-1.67,2.83-2.44l1.28-.87-.3-.45c-.53-.77-1.16-1.17-1.9-1.19-.76,0-1.69,.36-2.78,1.1-1.47,1-2.56,2.21-3.26,3.65l-2.3-2.05c.8-1.68,2.15-3.16,4.04-4.44,1.99-1.35,3.77-1.97,5.36-1.85,.73,.05,1.45,.27,2.17,.66,.71,.39,1.35,1,1.92,1.83l6.33,9.32-2.62,1.78Zm-5.64,.48c.64-.43,1.17-1.02,1.59-1.76,.43-.74,.65-1.49,.68-2.27l-1.84-2.71-.57,.38c-1.63,1.11-2.67,2.12-3.13,3.04s-.38,1.84,.24,2.75c.81,1.19,1.82,1.38,3.03,.55Z"/>
        <path class="cls-1" d="M198.25,102.5c-.33-.02-.71,0-1.15,.04-.44,.05-.89,.13-1.35,.25-.46,.12-.92,.28-1.39,.47-.46,.19-.87,.4-1.24,.63-.69,.43-1.2,.93-1.51,1.48-.32,.55-.49,1.13-.53,1.73-.03,.6,.06,1.22,.27,1.85,.21,.63,.5,1.24,.88,1.83,.43,.69,.92,1.29,1.46,1.78,.54,.5,1.11,.87,1.72,1.11,.61,.24,1.24,.34,1.9,.29,.66-.05,1.32-.28,1.97-.69,.73-.46,1.42-1.1,2.05-1.91,.64-.81,1.06-1.65,1.28-2.53l2.41,2.48c-.34,.72-.9,1.56-1.68,2.5-.78,.94-1.73,1.77-2.85,2.47-1.18,.74-2.34,1.19-3.48,1.34-1.14,.15-2.21,.07-3.22-.25-1.01-.32-1.94-.83-2.81-1.55-.86-.72-1.61-1.59-2.25-2.6-.61-.98-1.06-1.99-1.34-3.05-.28-1.06-.34-2.11-.18-3.16,.16-1.05,.57-2.06,1.24-3.03,.67-.97,1.64-1.86,2.92-2.66,.98-.61,2-1.1,3.08-1.47,1.08-.36,2.01-.54,2.81-.53l.97,3.17Z"/>
        <path class="cls-1" d="M205.15,96.46c.05-1.25,.35-2.3,.9-3.16,.54-.86,1.35-1.59,2.41-2.2,.62-.36,1.28-.62,1.96-.78,.68-.16,1.36-.17,2.04-.04,.68,.14,1.33,.45,1.96,.94,.63,.49,1.22,1.21,1.76,2.14l5.64,9.75-3.43,1.98-5.48-9.47c-.49-.85-1.05-1.38-1.67-1.59-.62-.21-1.25-.13-1.9,.24-.39,.23-.77,.53-1.12,.9-.35,.37-.65,.79-.88,1.25-.23,.47-.39,.96-.47,1.48-.09,.52-.08,1.04,.03,1.56l5.32,9.19-3.43,1.98-13.34-23.06,3.43-1.98,6.27,10.84Z"/>
        <path class="cls-1" d="M223.68,86.06c-.7,.37-1.17,.8-1.42,1.27-.25,.47-.25,.95,.01,1.44,.17,.32,.44,.55,.8,.7,.36,.15,.95,.11,1.76-.1l2.53-.69c.99-.28,1.85-.39,2.58-.32,.73,.07,1.36,.24,1.9,.5,.53,.26,.97,.58,1.31,.97,.34,.39,.62,.77,.82,1.15,.36,.68,.56,1.38,.59,2.11,.04,.73-.09,1.44-.37,2.14-.28,.69-.72,1.36-1.31,1.98-.59,.63-1.33,1.18-2.22,1.65-1.12,.6-2.25,.99-3.38,1.17s-2.08,.22-2.87,.12l-.78-3.46c1.09,.32,2.18,.4,3.26,.26,1.08-.14,2-.41,2.76-.82,.8-.43,1.33-.93,1.56-1.51,.24-.57,.19-1.17-.13-1.78-.19-.36-.46-.6-.8-.74-.34-.13-.88-.11-1.6,.06l-3.46,.86c-.81,.21-1.53,.28-2.15,.21-.62-.07-1.17-.24-1.65-.49-.47-.25-.87-.56-1.19-.94-.32-.37-.58-.75-.79-1.13-.76-1.42-.84-2.78-.26-4.08,.58-1.3,1.67-2.38,3.26-3.22,.83-.44,1.77-.8,2.85-1.09,1.07-.29,2.05-.39,2.93-.32l.6,3.35c-.6-.11-1.38-.14-2.33-.08-.95,.06-1.89,.33-2.82,.83Z"/>
        <path class="cls-1" d="M233.92,80.73l-1.84,.92-.96-1.93,1.93-1.37-1.6-4.67,2.71-1.35,2.23,4.48,2.83-1.41,1.08,2.16-2.84,1.41,4.24,8.51c.32,.64,.6,1.05,.84,1.21,.24,.16,.54,.15,.91-.03,.28-.14,.53-.33,.76-.58,.23-.25,.53-.65,.92-1.22l1.85,2.26c-.24,.55-.67,1.11-1.31,1.68-.64,.57-1.32,1.04-2.05,1.41-.64,.32-1.22,.5-1.72,.54s-.96-.05-1.36-.27c-.4-.21-.76-.54-1.09-.97-.32-.43-.63-.93-.92-1.51l-4.61-9.25Z"/>
        <path class="cls-1" d="M246.62,71.87l4.5,9.78c.41,.89,.96,1.47,1.64,1.72,.68,.25,1.4,.21,2.14-.13,.76-.35,1.34-.93,1.74-1.73,.4-.8,.53-1.75,.39-2.85l-4.4-9.55,3.63-1.67,6.93,15.04-2.81,1.3-1.16-2-.13,.06c0,.61-.13,1.16-.35,1.65-.23,.49-.52,.93-.88,1.32s-.76,.73-1.21,1.03-.9,.55-1.35,.76c-.72,.33-1.43,.55-2.13,.66-.7,.11-1.38,.07-2.03-.11-.65-.19-1.27-.55-1.85-1.09-.58-.54-1.09-1.3-1.55-2.28l-4.71-10.23,3.6-1.66Z"/>
        <path class="cls-1" d="M277.4,76.48l-4.09-10.15c-.73-1.83-1.83-2.45-3.27-1.86-.36,.14-.71,.36-1.07,.66-.36,.3-.68,.66-.97,1.07-.29,.41-.52,.87-.69,1.38-.17,.51-.22,1.03-.16,1.58l3.97,9.85-3.67,1.48-6.19-15.36,2.87-1.16,1.08,2.2,.13-.05c.07-1.11,.5-2.09,1.28-2.94,.78-.85,1.72-1.49,2.81-1.93,1.05-.42,2.08-.6,3.1-.53,1.02,.07,1.95,.52,2.77,1.35,.08-1.09,.5-2.06,1.28-2.9,.77-.84,1.71-1.48,2.8-1.92,.71-.29,1.42-.46,2.13-.53,.71-.07,1.39,.02,2.04,.25,.65,.23,1.25,.63,1.81,1.21,.56,.58,1.04,1.37,1.44,2.37l4.21,10.45-3.67,1.48-4.09-10.15c-.73-1.83-1.83-2.45-3.27-1.86-.36,.14-.71,.37-1.07,.66-.36,.3-.68,.66-.97,1.07-.29,.41-.52,.87-.69,1.38-.17,.51-.22,1.03-.16,1.58l3.97,9.85-3.67,1.48Z"/>
      </g>
      <g>
        <path class="cls-1" d="M697.89,385.36c-.22-.15-.44-.3-.67-.46-.23-.16-.47-.33-.71-.53l-5.73,8.42-3.42-2.33,13.43-19.73c.32,.22,.68,.46,1.09,.74s.82,.56,1.24,.84c.42,.28,.81,.55,1.18,.8,.37,.25,.66,.45,.88,.6,2.54,1.73,4.15,3.52,4.83,5.38,.68,1.86,.39,3.71-.86,5.55-.79,1.16-1.79,2.01-3,2.55-1.21,.54-2.64,.57-4.3,.11l1.15,13.8-3.96-2.69-1.13-13.05Zm5.66-8.64c-.16-.11-.35-.24-.57-.38-.22-.15-.45-.29-.71-.44l-3.85,5.65,1.85,1.26c1.07,.73,2.07,1.01,2.99,.86s1.72-.73,2.39-1.72c.61-.89,.78-1.73,.52-2.52-.26-.79-1.14-1.69-2.63-2.7Z"/>
        <path class="cls-1" d="M720.46,394.03c1.58,1.4,2.45,2.88,2.61,4.44,.16,1.56-.41,3.07-1.7,4.53-.18,.2-.38,.4-.6,.6-.23,.2-.46,.39-.69,.57-.24,.18-.46,.32-.67,.44-.21,.12-.4,.19-.57,.24l-7.85-6.94c-.44,.57-.79,1.17-1.05,1.79-.26,.62-.39,1.24-.4,1.86,0,.62,.12,1.23,.38,1.83,.26,.6,.68,1.16,1.28,1.68,.66,.59,1.48,1.09,2.45,1.5,.97,.41,1.88,.65,2.74,.74l-1.47,2.64c-.36-.06-.79-.16-1.28-.29-.49-.13-1.02-.32-1.58-.55-.56-.24-1.13-.53-1.71-.86-.58-.34-1.14-.75-1.68-1.22-1.01-.89-1.74-1.85-2.2-2.89-.46-1.03-.69-2.08-.68-3.15,.01-1.06,.23-2.11,.66-3.14,.43-1.03,1.03-1.98,1.79-2.84,.78-.88,1.66-1.6,2.65-2.15,.99-.55,2.02-.9,3.1-1.03,1.08-.13,2.17-.02,3.29,.33,1.11,.36,2.18,.99,3.2,1.9Zm-2.13,2.25c-.75-.67-1.59-1.02-2.51-1.04-.92-.03-1.83,.23-2.73,.78l5.15,4.56c.06-.04,.13-.09,.21-.15,.07-.06,.16-.15,.25-.26,.51-.58,.73-1.23,.67-1.95-.06-.73-.41-1.37-1.04-1.93Z"/>
        <path class="cls-1" d="M730.71,409.61l-4.83-5.34,2.37-2.15,7.59,8.38-2.37,2.15-12.74,1.05,5.46,6.03-2.37,2.15-8.07-8.91,2.37-2.15,12.6-1.21Z"/>
        <path class="cls-1" d="M744.11,420.44c1.24,1.71,1.76,3.35,1.57,4.91-.19,1.56-1.07,2.91-2.65,4.05-.21,.15-.45,.31-.72,.45-.26,.15-.53,.28-.8,.4-.27,.12-.52,.21-.75,.28-.23,.07-.44,.1-.61,.11l-6.14-8.49c-.56,.46-1.03,.97-1.42,1.51-.39,.55-.65,1.12-.79,1.73s-.15,1.23-.03,1.86c.12,.64,.41,1.28,.88,1.92,.52,.72,1.21,1.38,2.06,2,.85,.61,1.69,1.05,2.51,1.32l-2.01,2.25c-.34-.14-.73-.33-1.19-.56-.45-.24-.92-.53-1.42-.89-.49-.35-.99-.76-1.48-1.22-.49-.46-.95-.98-1.37-1.56-.79-1.09-1.29-2.19-1.52-3.3-.23-1.11-.22-2.18,.03-3.22,.24-1.04,.69-2.01,1.33-2.92,.64-.91,1.43-1.7,2.37-2.38,.95-.69,1.97-1.2,3.05-1.52,1.08-.32,2.17-.43,3.25-.33,1.08,.11,2.13,.45,3.13,1.05,1,.59,1.91,1.44,2.71,2.55Zm-2.57,1.73c-.59-.82-1.33-1.34-2.22-1.57-.89-.23-1.84-.18-2.84,.16l4.03,5.57c.07-.02,.15-.06,.24-.1,.08-.05,.19-.11,.3-.2,.62-.45,.98-1.04,1.08-1.76s-.1-1.43-.59-2.11Z"/>
        <path class="cls-1" d="M750.65,436.16c-.39-.69-.82-1.15-1.3-1.39-.48-.24-.96-.22-1.44,.05-.31,.18-.54,.45-.68,.82s-.09,.95,.15,1.76l.76,2.51c.31,.98,.43,1.84,.38,2.58-.05,.73-.2,1.37-.45,1.91-.25,.54-.56,.98-.94,1.34-.38,.35-.76,.63-1.13,.85-.67,.38-1.37,.59-2.09,.65-.73,.05-1.44-.05-2.14-.32-.7-.27-1.37-.69-2.01-1.26-.64-.57-1.21-1.3-1.71-2.18-.63-1.11-1.04-2.22-1.25-3.35-.21-1.12-.27-2.08-.19-2.87l3.44-.87c-.29,1.1-.35,2.19-.18,3.27,.17,1.08,.46,1.99,.89,2.74,.45,.79,.96,1.3,1.54,1.53s1.17,.16,1.78-.18c.35-.2,.59-.47,.72-.82,.12-.34,.09-.88-.1-1.6l-.95-3.43c-.23-.8-.32-1.52-.26-2.15,.06-.63,.21-1.18,.45-1.66,.24-.48,.54-.88,.91-1.21,.36-.33,.73-.6,1.11-.81,1.4-.79,2.76-.91,4.08-.36,1.32,.55,2.42,1.61,3.3,3.18,.46,.81,.85,1.75,1.16,2.82,.31,1.06,.44,2.04,.39,2.92l-3.33,.69c.1-.61,.11-1.38,.03-2.33-.08-.95-.38-1.88-.9-2.8Z"/>
        <path class="cls-1" d="M758.02,450.81c-.32-.72-.71-1.23-1.16-1.51-.45-.29-.93-.32-1.44-.09-.33,.15-.58,.39-.75,.75-.17,.35-.18,.94-.03,1.76l.5,2.57c.21,1.01,.25,1.88,.12,2.6-.13,.72-.34,1.34-.64,1.85-.3,.51-.65,.92-1.07,1.24-.41,.31-.82,.56-1.21,.73-.7,.31-1.42,.45-2.15,.44-.73-.02-1.43-.2-2.1-.53-.67-.33-1.3-.82-1.88-1.45-.58-.64-1.08-1.41-1.48-2.34-.51-1.16-.82-2.31-.91-3.45-.1-1.14-.06-2.1,.09-2.87l3.51-.52c-.4,1.07-.56,2.14-.5,3.23,.06,1.09,.26,2.03,.61,2.82,.37,.83,.83,1.39,1.39,1.67,.56,.28,1.15,.28,1.79,0,.37-.16,.64-.41,.79-.74,.16-.33,.18-.86,.06-1.6l-.6-3.51c-.15-.82-.17-1.55-.05-2.16,.12-.62,.32-1.15,.61-1.61,.29-.45,.63-.83,1.02-1.12,.4-.29,.79-.53,1.19-.7,1.47-.65,2.83-.63,4.09,.05,1.26,.68,2.25,1.84,2.97,3.49,.38,.86,.67,1.83,.87,2.92,.2,1.09,.24,2.07,.1,2.95l-3.39,.35c.16-.59,.24-1.37,.26-2.32,.01-.95-.19-1.91-.62-2.88Z"/>
        <path class="cls-1" d="M750.19,469.61l-1.32-3.73,15.61-5.52,1.32,3.73-15.61,5.52Zm19.12-11.58c.32-.11,.64-.16,.98-.14,.34,.02,.67,.1,.98,.24,.32,.14,.59,.33,.83,.57,.24,.23,.41,.52,.53,.86,.11,.32,.15,.65,.12,.99-.03,.34-.12,.67-.28,1-.15,.32-.35,.6-.6,.84-.25,.24-.53,.42-.84,.53-.34,.12-.67,.16-1.01,.13-.33-.04-.65-.13-.96-.29-.31-.16-.58-.36-.81-.61-.23-.25-.4-.53-.51-.85-.23-.66-.19-1.31,.11-1.95,.31-.64,.79-1.08,1.44-1.31Z"/>
        <path class="cls-1" d="M770.13,476.61c.37,1.42,.45,2.7,.24,3.84s-.63,2.16-1.25,3.03-1.42,1.6-2.37,2.18c-.95,.58-2,1.03-3.13,1.32-1.14,.3-2.25,.42-3.34,.37-1.09-.05-2.1-.3-3.03-.77-.93-.46-1.75-1.14-2.45-2.04-.71-.89-1.24-2.03-1.6-3.4-.37-1.42-.46-2.7-.26-3.84,.2-1.14,.59-2.15,1.2-3.03,.6-.88,1.37-1.61,2.31-2.21,.94-.59,1.97-1.04,3.11-1.34,1.14-.3,2.26-.42,3.37-.36,1.11,.06,2.14,.31,3.09,.77,.95,.46,1.79,1.14,2.51,2.04,.72,.9,1.26,2.04,1.62,3.41Zm-14.05,3.76c.18,.67,.48,1.22,.9,1.64,.42,.42,.92,.73,1.51,.93,.58,.19,1.22,.28,1.91,.26,.69-.02,1.39-.12,2.11-.31,.74-.19,1.44-.46,2.08-.81,.64-.34,1.18-.75,1.61-1.22,.43-.47,.74-1.01,.92-1.6,.18-.59,.17-1.25-.01-1.97-.18-.67-.47-1.22-.89-1.63-.42-.41-.91-.71-1.48-.9-.57-.19-1.2-.27-1.89-.25-.69,.02-1.4,.12-2.11,.31-.74,.19-1.44,.46-2.08,.79-.65,.33-1.19,.73-1.64,1.21-.45,.48-.76,1.01-.94,1.6-.18,.59-.18,1.24,0,1.93Z"/>
        <path class="cls-1" d="M757.94,503.32l10.83-1.6c1.95-.29,2.8-1.26,2.55-2.93-.06-.4-.19-.83-.41-1.27s-.48-.86-.82-1.24c-.34-.39-.73-.72-1.19-1.01-.46-.28-.96-.47-1.5-.56l-10.51,1.55-.58-3.92,16.38-2.42,.45,3.06-2.4,.54,.02,.14c1.07,.35,1.93,1.02,2.57,2,.64,.98,1.05,2.08,1.23,3.29,.12,.78,.12,1.53,.02,2.25-.1,.72-.34,1.38-.71,1.98-.37,.6-.9,1.11-1.59,1.53-.69,.42-1.57,.71-2.64,.86l-11.15,1.65-.58-3.92Z"/>
      </g>
      <g>
        <path class="cls-1" d="M1028.64,749.02c.18-.27,.53-.62,1.04-1.05,.51-.43,1.05-.89,1.62-1.38,.57-.48,1.11-.94,1.63-1.39s.93-.79,1.22-1.04c1.77-1.51,3.39-2.56,4.84-3.17,1.45-.61,2.82-.91,4.11-.92,1.68,.01,3.29,.48,4.82,1.39,1.53,.92,2.96,2.15,4.29,3.72,1,1.18,1.81,2.44,2.43,3.78,.62,1.34,.88,2.74,.8,4.22-.08,1.48-.6,3.04-1.56,4.67-.96,1.64-2.49,3.36-4.61,5.16-.77,.65-1.59,1.35-2.47,2.1-.88,.75-1.81,1.41-2.79,1.99l-15.37-18.1Zm19.23,10.8c2.21-1.88,3.38-3.78,3.5-5.7s-.84-4.07-2.86-6.46c-.91-1.07-1.82-1.93-2.72-2.56-.9-.63-1.84-1-2.81-1.12-.98-.11-2.01,.06-3.1,.52-1.09,.46-2.28,1.23-3.56,2.32-.26,.22-.6,.51-1.03,.87s-.88,.75-1.36,1.15l11.19,13.17c.56-.38,1.07-.77,1.55-1.18,.47-.4,.88-.75,1.21-1.03Z"/>
        <path class="cls-1" d="M1056.97,732.93c1.54-1.44,3.1-2.17,4.67-2.18,1.57,0,3.02,.7,4.35,2.12,.18,.19,.36,.41,.54,.65,.18,.24,.34,.49,.5,.74,.15,.25,.28,.49,.37,.71,.09,.22,.16,.42,.18,.59l-7.65,7.16c.53,.49,1.09,.9,1.68,1.21,.59,.32,1.2,.51,1.81,.57,.62,.06,1.24,0,1.85-.21,.62-.2,1.22-.57,1.79-1.11,.65-.61,1.22-1.37,1.72-2.3s.83-1.81,.99-2.65l2.49,1.71c-.1,.35-.23,.77-.41,1.25-.18,.48-.41,.98-.7,1.52-.29,.53-.63,1.08-1.02,1.62-.39,.55-.85,1.07-1.38,1.56-.98,.92-2.01,1.56-3.08,1.92-1.07,.36-2.14,.49-3.2,.38-1.06-.11-2.08-.43-3.06-.95-.98-.52-1.87-1.21-2.66-2.05-.8-.86-1.43-1.8-1.89-2.84-.46-1.03-.7-2.09-.74-3.18-.03-1.09,.18-2.17,.64-3.24,.46-1.07,1.19-2.08,2.19-3.01Zm2.04,2.33c-.74,.69-1.16,1.49-1.28,2.4-.11,.91,.06,1.84,.52,2.79l5.02-4.7c-.03-.07-.08-.14-.13-.22s-.13-.17-.23-.28c-.52-.56-1.15-.84-1.88-.85-.73,0-1.4,.28-2.01,.85Z"/>
        <path class="cls-1" d="M1071.08,719.06c.91-.93,1.86-1.55,2.87-1.88,1.01-.32,2.01-.42,3.03-.29,1.01,.13,2,.47,2.96,1.01s1.86,1.21,2.68,2.02c.84,.82,1.53,1.71,2.08,2.66s.88,1.93,1.01,2.93,.03,1.99-.3,2.98c-.33,.99-.95,1.95-1.85,2.87-.75,.77-1.57,1.38-2.44,1.82-.87,.44-1.75,.62-2.63,.53l7.8,7.63-2.75,2.8-18.53-18.13,2.22-2.26,1.82,1.38,.1-.1c-.06-.49-.06-1.01,0-1.57,.05-.55,.17-1.1,.34-1.63,.17-.54,.39-1.04,.66-1.52,.27-.48,.58-.9,.93-1.26Zm1.71,2.58c-.25,.26-.49,.58-.72,.96-.22,.38-.41,.8-.56,1.24-.15,.44-.25,.9-.32,1.38-.06,.48-.06,.93,.01,1.38l5.02,4.91c1.14,.11,2.05-.03,2.75-.41s1.25-.79,1.69-1.24c.55-.57,.92-1.15,1.11-1.76s.24-1.21,.15-1.82c-.09-.61-.31-1.21-.66-1.8-.35-.59-.79-1.15-1.34-1.69-.51-.5-1.08-.95-1.7-1.33-.62-.38-1.24-.64-1.88-.78-.64-.14-1.27-.14-1.88,0-.62,.13-1.18,.46-1.68,.97Z"/>
        <path class="cls-1" d="M1088.38,706.54c-.3,.05-.67,.22-1.1,.51-.43,.29-.76,.57-1,.84-.32,.36-.5,.73-.54,1.11-.04,.38,0,.79,.11,1.22,.12,.43,.29,.87,.54,1.31,.24,.45,.5,.89,.78,1.34l7.12,6.45-2.66,2.94-12.27-11.12,2.08-2.29,2.68,2.19,.1-.11c-.21-.52-.41-1.03-.59-1.55-.18-.52-.29-1.03-.34-1.52s-.01-.99,.12-1.47c.13-.48,.4-.95,.8-1.39,.64-.71,1.48-1.17,2.51-1.37l1.67,2.92Z"/>
        <path class="cls-1" d="M1092.56,695.31c1.36-1.61,2.82-2.52,4.38-2.71,1.56-.19,3.08,.34,4.57,1.59,.2,.17,.41,.37,.61,.59,.21,.22,.4,.45,.58,.68,.18,.23,.33,.45,.45,.66,.12,.21,.2,.4,.25,.57l-6.76,8.01c.58,.43,1.19,.76,1.81,1.01s1.25,.36,1.87,.35c.62,0,1.23-.15,1.82-.42,.59-.27,1.14-.71,1.65-1.32,.57-.68,1.05-1.51,1.44-2.48,.39-.98,.61-1.89,.67-2.75l2.67,1.41c-.05,.36-.14,.79-.26,1.29-.12,.5-.29,1.03-.52,1.59-.22,.56-.5,1.14-.82,1.73-.33,.59-.72,1.16-1.18,1.71-.87,1.03-1.81,1.78-2.84,2.27-1.02,.49-2.07,.74-3.13,.75-1.06,.01-2.11-.18-3.15-.59-1.04-.41-2-.98-2.88-1.72-.9-.76-1.64-1.62-2.21-2.6-.58-.97-.94-2-1.1-3.08-.16-1.08-.07-2.17,.26-3.29,.33-1.12,.94-2.2,1.82-3.25Zm2.3,2.08c-.65,.77-.98,1.62-.99,2.54,0,.92,.27,1.82,.84,2.71l4.43-5.25c-.04-.06-.09-.13-.16-.2s-.15-.15-.26-.25c-.59-.5-1.24-.7-1.97-.63-.73,.08-1.36,.44-1.9,1.08Z"/>
        <path class="cls-1" d="M1104.63,685.1c-.49,.62-.75,1.2-.79,1.74-.04,.54,.16,.97,.6,1.31,.28,.22,.62,.33,1.01,.31,.39-.01,.91-.28,1.57-.81l2.03-1.66c.79-.66,1.54-1.11,2.23-1.34,.7-.23,1.34-.34,1.94-.32,.59,.02,1.12,.14,1.6,.36,.47,.22,.88,.46,1.22,.72,.61,.47,1.07,1.04,1.4,1.69,.33,.65,.5,1.35,.53,2.1,.02,.75-.11,1.53-.39,2.34-.29,.81-.74,1.62-1.36,2.41-.78,1-1.65,1.81-2.61,2.44-.96,.62-1.82,1.05-2.57,1.28l-2.12-2.84c1.13-.16,2.16-.52,3.09-1.08s1.66-1.19,2.19-1.87c.56-.72,.83-1.39,.82-2.01-.02-.62-.3-1.15-.85-1.58-.32-.25-.67-.37-1.03-.35-.37,.02-.84,.25-1.44,.7l-2.81,2.19c-.65,.53-1.28,.88-1.88,1.07-.6,.19-1.17,.26-1.7,.22-.53-.04-1.02-.16-1.47-.37-.44-.21-.84-.45-1.18-.71-1.27-.99-1.9-2.2-1.9-3.63,0-1.43,.56-2.85,1.67-4.27,.58-.74,1.3-1.46,2.16-2.15,.86-.7,1.71-1.19,2.55-1.48l1.91,2.82c-.6,.14-1.32,.43-2.16,.87s-1.59,1.07-2.24,1.9Z"/>
        <path class="cls-1" d="M1114.06,672.6c-.47,.64-.71,1.23-.72,1.76-.02,.54,.2,.97,.64,1.29,.29,.21,.63,.3,1.02,.28s.9-.32,1.54-.86l1.97-1.73c.77-.69,1.5-1.16,2.18-1.42,.69-.25,1.33-.38,1.92-.38,.59,0,1.13,.1,1.61,.3,.48,.2,.89,.43,1.24,.68,.62,.45,1.11,1,1.46,1.64,.35,.64,.55,1.33,.6,2.08,.05,.75-.05,1.53-.31,2.36-.26,.82-.68,1.64-1.27,2.46-.75,1.03-1.59,1.87-2.52,2.53-.94,.66-1.78,1.11-2.53,1.37l-2.22-2.77c1.12-.2,2.14-.59,3.05-1.19,.91-.6,1.62-1.25,2.13-1.95,.54-.74,.78-1.42,.75-2.04-.04-.62-.34-1.14-.9-1.54-.33-.24-.68-.34-1.04-.31-.36,.03-.83,.28-1.41,.75l-2.73,2.29c-.63,.55-1.25,.92-1.84,1.13-.59,.21-1.16,.3-1.69,.28-.54-.02-1.03-.12-1.48-.32-.45-.19-.85-.42-1.2-.67-1.3-.94-1.98-2.13-2.02-3.56-.05-1.43,.46-2.87,1.52-4.33,.55-.76,1.24-1.5,2.08-2.23,.84-.73,1.67-1.25,2.5-1.57l2.01,2.75c-.59,.16-1.3,.48-2.13,.94-.83,.47-1.55,1.13-2.17,1.98Z"/>
        <path class="cls-1" d="M1113.46,660.08c-.28-.19-.51-.43-.69-.71-.18-.28-.31-.6-.38-.94-.07-.34-.08-.67-.03-1,.05-.33,.18-.64,.38-.94,.19-.28,.43-.5,.73-.68s.62-.3,.97-.36c.35-.07,.69-.07,1.03-.01,.34,.06,.65,.18,.92,.37,.3,.2,.53,.45,.7,.74,.17,.29,.28,.6,.33,.95s.05,.68-.02,1.01c-.07,.33-.2,.64-.39,.91-.39,.58-.94,.93-1.64,1.06-.7,.13-1.34,0-1.91-.39Zm20.62,8.62l-2.24,3.27-13.67-9.35,2.24-3.27,13.67,9.35Z"/>
        <path class="cls-1" d="M1126.72,648.78c.79-1.23,1.67-2.16,2.65-2.79,.98-.62,2.01-1,3.07-1.13,1.07-.13,2.14-.05,3.21,.25,1.08,.3,2.11,.77,3.1,1.4,.99,.63,1.84,1.37,2.55,2.2s1.2,1.75,1.49,2.75c.29,1,.35,2.06,.17,3.18-.18,1.12-.65,2.29-1.41,3.48-.79,1.23-1.67,2.17-2.64,2.8-.97,.63-1.98,1.03-3.04,1.18-1.05,.15-2.11,.09-3.18-.2-1.07-.28-2.1-.74-3.09-1.38-.99-.63-1.84-1.37-2.55-2.23-.71-.85-1.22-1.78-1.53-2.79-.31-1.01-.38-2.08-.21-3.23,.17-1.14,.64-2.31,1.4-3.5Zm12.3,7.76c.37-.59,.57-1.18,.6-1.78,.02-.6-.09-1.17-.34-1.74-.25-.56-.62-1.09-1.11-1.58-.48-.49-1.04-.94-1.67-1.34-.65-.41-1.31-.74-2-.98-.69-.24-1.35-.36-1.99-.35-.64,0-1.24,.14-1.8,.41-.56,.27-1.04,.72-1.44,1.35-.38,.59-.57,1.17-.59,1.76-.02,.59,.1,1.15,.35,1.7,.25,.54,.62,1.06,1.1,1.56s1.04,.94,1.67,1.34c.65,.41,1.31,.75,1.99,.99s1.35,.38,2,.38c.65,0,1.26-.13,1.81-.4,.56-.27,1.03-.71,1.42-1.32Z"/>
        <path class="cls-1" d="M1153.59,637.3l-9.48-5.47c-1.7-.98-2.98-.75-3.82,.71-.2,.35-.36,.77-.47,1.25-.11,.48-.15,.97-.13,1.48,.02,.51,.12,1.02,.3,1.53,.18,.51,.46,.96,.83,1.37l9.2,5.31-1.98,3.43-14.34-8.28,1.55-2.68,2.21,1.07,.07-.12c-.62-.94-.88-2-.77-3.17s.47-2.29,1.08-3.35c.4-.69,.86-1.28,1.38-1.78s1.12-.87,1.78-1.11c.67-.24,1.4-.31,2.2-.21,.8,.1,1.67,.42,2.6,.96l9.76,5.63-1.98,3.43Z"/>
      </g>
    </g>
  </g>
</svg>