<?xml version="1.0" encoding="UTF-8"?>
<svg id="Ebene_2" data-name="Ebene 2" xmlns="http://www.w3.org/2000/svg" viewBox="0 0 1600.25 942.72">
  <defs>
    <style>
      .cls-1 {
        stroke: #ff2b00;
      }

      .cls-1, .cls-2 {
        stroke-width: 2px;
      }

      .cls-1, .cls-2, .cls-3, .cls-4 {
        fill: none;
        stroke-miterlimit: 10;
      }

      .cls-2 {
        stroke: #39a534;
      }

      .cls-3 {
        stroke-width: .25px;
      }

      .cls-3, .cls-4 {
        stroke: #000;
      }

      .cls-4 {
        stroke-width: 7px;
      }

      .cls-5 {
        fill: #ff6b35;
      }
    </style>
  </defs>
  <g id="Ebene_1-2" data-name="Ebene 1">
    <path class="cls-2" d="M25.12,144.76H1445.17"/>
    <path class="cls-1" d="M22.89,490.71H1442.93"/>
    <path class="cls-4" d="M65.12,163.76c12.65,86.15,26.65,168.36,41.5,246.5,13.6,71.56,26.51,132.35,71.5,191.5,40.94,53.82,73.8,60.74,89,62,6,.5,30.77,1.9,62-17,72.89-44.13,92.99-145.66,146-278,53.72-134.1,91.13-223.95,171-249,11.5-3.61,61.21-19.35,110,1,47.59,19.85,79.99,67.83,111.5,114.5,3.33,4.94,33.39,49.63,75,82,6.58,5.12,18.31,13.7,34,14,20.19,.38,35.63-13.15,45-22,59.11-55.82,59.74-97.98,101.5-119.5,27.95-14.4,61.74-13.08,86-3,41.13,17.09,57.35,60.4,73.5,105.5,27.9,77.92,44.23,197.81,49.5,236.5,1.39,10.19,4.54,34.07,23,51,14.45,13.26,32.42,16.88,44,18"/>
    <rect class="cls-3" x=".12" y=".12" width="1600" height="942.47"/>
    <circle class="cls-5" cx="125.12" cy="490.76" r="13"/>
    <circle class="cls-5" cx="270.12" cy="663.76" r="13"/>
    <circle class="cls-5" cx="429.12" cy="490.76" r="13"/>
    <circle class="cls-5" cx="795.12" cy="144.76" r="13"/>
    <circle class="cls-5" cx="978.12" cy="329.76" r="13"/>
    <circle class="cls-5" cx="1168.12" cy="178.76" r="13"/>
    <circle class="cls-5" cx="1326.12" cy="490.76" r="13"/>
    <g>
      <path d="M1509.82,153.53c-.03-.25-.04-.52-.04-.81v-.81c0-1.63,.32-3.42,.97-5.37,.65-1.95,1.49-3.9,2.51-5.85,1.02-1.95,2.15-3.83,3.38-5.64,1.23-1.81,2.43-3.39,3.59-4.75h-12.07v-4.35h16.79v4.35c-1.19,1.3-2.38,2.88-3.57,4.75-1.19,1.87-2.25,3.81-3.19,5.83s-1.7,3.99-2.28,5.93c-.58,1.94-.87,3.62-.87,5.06v.87c0,.28,.01,.54,.04,.79h-5.27Z"/>
      <path d="M1543.73,125.96c1.02,0,1.93,.21,2.74,.62,.8,.41,1.49,.97,2.05,1.66,.57,.69,1,1.5,1.29,2.42,.29,.93,.44,1.9,.44,2.92s-.15,1.96-.44,2.9-.72,1.77-1.29,2.49c-.57,.72-1.26,1.29-2.09,1.72s-1.78,.64-2.86,.64-1.97-.2-2.76-.6c-.79-.4-1.45-.95-1.99-1.64-.54-.69-.94-1.5-1.2-2.42-.26-.93-.39-1.9-.39-2.92,0-1.08,.15-2.09,.44-3.05,.29-.95,.72-1.78,1.29-2.49,.57-.71,1.25-1.26,2.05-1.66,.8-.4,1.71-.6,2.74-.6Zm-.12,12.69c.55,0,1.02-.13,1.41-.39,.39-.26,.71-.62,.95-1.08,.25-.46,.43-.98,.56-1.58,.12-.59,.19-1.24,.19-1.93,0-1.49-.25-2.7-.75-3.63-.5-.93-1.27-1.39-2.32-1.39s-1.79,.46-2.22,1.37c-.43,.91-.64,2.07-.64,3.48,0,1.71,.25,3,.75,3.86,.5,.86,1.19,1.29,2.07,1.29Zm1.7,15.88h-3.73l19.2-29.64h3.73l-19.2,29.64Zm17.21-16.17c1.02,0,1.93,.21,2.74,.62,.8,.41,1.49,.97,2.05,1.66,.57,.69,1,1.5,1.29,2.43,.29,.93,.44,1.9,.44,2.92s-.14,1.96-.44,2.9c-.29,.94-.72,1.77-1.29,2.49-.57,.72-1.26,1.29-2.09,1.72-.83,.43-1.78,.64-2.86,.64s-1.97-.2-2.76-.6c-.79-.4-1.45-.95-1.99-1.64-.54-.69-.94-1.5-1.2-2.43-.26-.93-.39-1.9-.39-2.92,0-1.08,.15-2.09,.44-3.05,.29-.95,.72-1.78,1.29-2.49s1.25-1.26,2.05-1.66c.8-.4,1.71-.6,2.74-.6Zm-.12,12.69c.55,0,1.02-.13,1.41-.39,.39-.26,.71-.62,.95-1.08,.25-.46,.44-.98,.56-1.58,.12-.59,.19-1.24,.19-1.93,0-1.49-.25-2.7-.75-3.63-.5-.93-1.27-1.39-2.32-1.39s-1.79,.46-2.22,1.37-.64,2.07-.64,3.48c0,1.71,.25,3,.75,3.86,.5,.86,1.19,1.29,2.07,1.29Z"/>
    </g>
    <g>
      <path d="M1507.53,473.16c1.05-.64,2.26-1.16,3.63-1.58,1.37-.42,2.73-.62,4.08-.62,1.16,0,2.22,.17,3.19,.5,.97,.33,1.8,.79,2.51,1.39,.71,.59,1.25,1.31,1.64,2.14,.39,.83,.58,1.74,.58,2.74,0,1.47-.37,2.66-1.12,3.59-.75,.93-1.69,1.71-2.82,2.34,1.66,.55,2.95,1.38,3.88,2.49s1.39,2.56,1.39,4.35c0,1.16-.21,2.26-.62,3.3-.42,1.04-1.05,1.94-1.91,2.72-.86,.77-1.92,1.39-3.19,1.84-1.27,.46-2.75,.68-4.44,.68-3.43,0-6.25-.94-8.46-2.82l1.16-3.77c.97,.8,2.05,1.44,3.23,1.91,1.19,.47,2.46,.71,3.81,.71,1.74,0,3.06-.41,3.96-1.22,.9-.81,1.35-2.01,1.35-3.59,0-1.41-.41-2.52-1.22-3.34-.82-.81-2.18-1.22-4.08-1.22h-1.12v-3.61h1.29c1.22,0,2.16-.39,2.82-1.16,.66-.77,1-1.8,1-3.07,0-1.13-.35-1.93-1.04-2.38-.69-.46-1.52-.68-2.49-.68-.53,0-1.07,.06-1.64,.17-.57,.11-1.11,.27-1.64,.48-.53,.21-1.02,.44-1.47,.7-.46,.26-.85,.55-1.18,.85l-1.08-3.81Z"/>
      <path d="M1544.72,470.96c1.02,0,1.93,.21,2.74,.62,.8,.41,1.49,.97,2.05,1.66,.57,.69,1,1.5,1.29,2.42,.29,.93,.44,1.9,.44,2.92s-.15,1.96-.44,2.9-.72,1.77-1.29,2.49c-.57,.72-1.26,1.29-2.09,1.72s-1.78,.64-2.86,.64-1.97-.2-2.76-.6c-.79-.4-1.45-.95-1.99-1.64-.54-.69-.94-1.5-1.2-2.42-.26-.93-.39-1.9-.39-2.92,0-1.08,.15-2.09,.44-3.05,.29-.95,.72-1.78,1.29-2.49,.57-.71,1.25-1.26,2.05-1.66,.8-.4,1.71-.6,2.74-.6Zm-.12,12.69c.55,0,1.02-.13,1.41-.39,.39-.26,.71-.62,.95-1.08,.25-.46,.43-.98,.56-1.58,.12-.59,.19-1.24,.19-1.93,0-1.49-.25-2.7-.75-3.63-.5-.93-1.27-1.39-2.32-1.39s-1.79,.46-2.22,1.37c-.43,.91-.64,2.07-.64,3.48,0,1.71,.25,3,.75,3.86,.5,.86,1.19,1.29,2.07,1.29Zm1.7,15.88h-3.73l19.2-29.64h3.73l-19.2,29.64Zm17.21-16.17c1.02,0,1.93,.21,2.74,.62,.8,.41,1.49,.97,2.05,1.66,.57,.69,1,1.5,1.29,2.43,.29,.93,.44,1.9,.44,2.92s-.14,1.96-.44,2.9c-.29,.94-.72,1.77-1.29,2.49-.57,.72-1.26,1.29-2.09,1.72-.83,.43-1.78,.64-2.86,.64s-1.97-.2-2.76-.6c-.79-.4-1.45-.95-1.99-1.64-.54-.69-.94-1.5-1.2-2.43-.26-.93-.39-1.9-.39-2.92,0-1.08,.15-2.09,.44-3.05,.29-.95,.72-1.78,1.29-2.49s1.25-1.26,2.05-1.66c.8-.4,1.71-.6,2.74-.6Zm-.12,12.69c.55,0,1.02-.13,1.41-.39,.39-.26,.71-.62,.95-1.08,.25-.46,.44-.98,.56-1.58,.12-.59,.19-1.24,.19-1.93,0-1.49-.25-2.7-.75-3.63-.5-.93-1.27-1.39-2.32-1.39s-1.79,.46-2.22,1.37-.64,2.07-.64,3.48c0,1.71,.25,3,.75,3.86,.5,.86,1.19,1.29,2.07,1.29Z"/>
    </g>
    <g>
      <path d="M207.47,589.53h-4.77v-20.15l-3.36,1.49-.91-4.15,9.04-4.56v27.36Z"/>
      <path d="M213.44,587.08c0-.39,.08-.76,.23-1.12,.15-.36,.37-.68,.64-.97s.59-.52,.93-.68c.35-.17,.73-.25,1.14-.25,.39,0,.76,.08,1.12,.25,.36,.17,.68,.39,.97,.68s.52,.62,.68,.97c.17,.36,.25,.73,.25,1.12,0,.42-.08,.79-.25,1.14-.17,.35-.39,.66-.68,.93s-.62,.49-.97,.64c-.36,.15-.73,.23-1.12,.23-.8,0-1.49-.29-2.07-.87-.58-.58-.87-1.27-.87-2.07Z"/>
    </g>
    <g>
      <path d="M401.38,606.11c.52-.28,1.13-.54,1.8-.81,.68-.26,1.38-.5,2.11-.7,.73-.21,1.47-.37,2.22-.48,.75-.11,1.48-.17,2.2-.17,1.16,0,2.24,.16,3.23,.48,1,.32,1.84,.77,2.55,1.37,.71,.59,1.26,1.31,1.66,2.16s.6,1.78,.6,2.8c0,1.41-.35,2.81-1.06,4.21-.7,1.4-1.59,2.79-2.65,4.19-1.06,1.4-2.23,2.78-3.5,4.15-1.27,1.37-2.46,2.73-3.57,4.08h11.07v4.15h-16.79v-4.15c1.08-1.46,2.3-2.91,3.67-4.33s2.65-2.81,3.86-4.17,2.22-2.68,3.05-3.98c.83-1.3,1.24-2.57,1.24-3.81s-.39-2.03-1.16-2.53c-.77-.5-1.78-.75-3.03-.75s-2.36,.19-3.5,.56c-1.15,.37-2.16,.81-3.05,1.31l-.95-3.57Z"/>
      <path d="M422.53,629.08c0-.39,.08-.76,.23-1.12,.15-.36,.37-.68,.64-.97s.59-.52,.93-.68c.35-.17,.73-.25,1.14-.25,.39,0,.76,.08,1.12,.25,.36,.17,.68,.39,.97,.68s.52,.62,.68,.97c.17,.36,.25,.73,.25,1.12,0,.42-.08,.79-.25,1.14-.17,.35-.39,.66-.68,.93s-.62,.49-.97,.64c-.36,.15-.73,.23-1.12,.23-.8,0-1.49-.29-2.07-.87-.58-.58-.87-1.27-.87-2.07Z"/>
    </g>
    <g>
      <path d="M556.21,256.16c1.05-.64,2.26-1.16,3.63-1.58,1.37-.42,2.73-.62,4.08-.62,1.16,0,2.22,.17,3.19,.5,.97,.33,1.8,.79,2.51,1.39,.71,.59,1.25,1.31,1.64,2.14,.39,.83,.58,1.74,.58,2.74,0,1.47-.37,2.66-1.12,3.59-.75,.93-1.69,1.71-2.82,2.34,1.66,.55,2.95,1.38,3.88,2.49s1.39,2.56,1.39,4.35c0,1.16-.21,2.26-.62,3.3-.42,1.04-1.05,1.94-1.91,2.72-.86,.77-1.92,1.39-3.19,1.84-1.27,.46-2.75,.68-4.44,.68-3.43,0-6.25-.94-8.46-2.82l1.16-3.77c.97,.8,2.05,1.44,3.23,1.91,1.19,.47,2.46,.71,3.81,.71,1.74,0,3.06-.41,3.96-1.22,.9-.81,1.35-2.01,1.35-3.59,0-1.41-.41-2.52-1.22-3.34-.82-.81-2.18-1.22-4.08-1.22h-1.12v-3.61h1.29c1.22,0,2.16-.39,2.82-1.16,.66-.77,1-1.8,1-3.07,0-1.13-.35-1.93-1.04-2.38-.69-.46-1.52-.68-2.49-.68-.53,0-1.07,.06-1.64,.17-.57,.11-1.11,.27-1.64,.48-.53,.21-1.02,.44-1.47,.7-.46,.26-.85,.55-1.18,.85l-1.08-3.81Z"/>
      <path d="M577.56,279.08c0-.39,.08-.76,.23-1.12,.15-.36,.37-.68,.64-.97s.59-.52,.93-.68c.35-.17,.73-.25,1.14-.25,.39,0,.76,.08,1.12,.25,.36,.17,.68,.39,.97,.68s.52,.62,.68,.97c.17,.36,.25,.73,.25,1.12,0,.42-.08,.79-.25,1.14-.17,.35-.39,.66-.68,.93s-.62,.49-.97,.64c-.36,.15-.73,.23-1.12,.23-.8,0-1.49-.29-2.07-.87-.58-.58-.87-1.27-.87-2.07Z"/>
    </g>
    <g>
      <path d="M935.79,239.65h-2.86v7.88h-4.77v-7.88h-11.77v-3.73l11.57-15.75h4.98v15.75h2.86v3.73Zm-7.63-3.73v-10.03l-7.09,10.03h7.09Z"/>
      <path d="M939.94,245.08c0-.39,.08-.76,.23-1.12,.15-.36,.37-.68,.64-.97s.59-.52,.93-.68c.35-.17,.73-.25,1.14-.25,.39,0,.76,.08,1.12,.25,.36,.17,.68,.39,.97,.68s.52,.62,.68,.97c.17,.36,.25,.73,.25,1.12,0,.42-.08,.79-.25,1.14-.17,.35-.39,.66-.68,.93s-.62,.49-.97,.64c-.36,.15-.73,.23-1.12,.23-.8,0-1.49-.29-2.07-.87-.58-.58-.87-1.27-.87-2.07Z"/>
    </g>
    <g>
      <path d="M1098.33,281.01l1.62-15.05h14.06v4.35h-10.2l-.62,6.55c.58-.17,1.19-.28,1.82-.35,.64-.07,1.22-.1,1.74-.1,1.27,0,2.43,.19,3.48,.56s1.96,.92,2.74,1.64,1.38,1.6,1.8,2.63c.43,1.04,.64,2.22,.64,3.54s-.21,2.47-.62,3.59c-.41,1.12-1.04,2.1-1.89,2.94-.84,.84-1.9,1.51-3.17,1.99-1.27,.48-2.76,.73-4.48,.73s-3.24-.24-4.66-.73c-1.42-.48-2.67-1.17-3.75-2.05l1.2-3.94c.42,.39,.89,.74,1.43,1.06,.54,.32,1.12,.59,1.74,.83,.62,.24,1.26,.42,1.91,.56,.65,.14,1.29,.21,1.93,.21,.69,0,1.36-.09,2.01-.27s1.22-.46,1.7-.85c.48-.39,.87-.89,1.16-1.51s.44-1.38,.44-2.26c0-.66-.08-1.27-.25-1.82s-.44-1.02-.83-1.41c-.39-.39-.91-.69-1.55-.91-.65-.22-1.47-.33-2.47-.33-.86,0-1.8,.08-2.82,.25-1.02,.17-1.99,.43-2.9,.79l-1.2-.62Z"/>
      <path d="M1119.65,291.08c0-.39,.08-.76,.23-1.12,.15-.36,.37-.68,.64-.97s.59-.52,.93-.68c.35-.17,.73-.25,1.14-.25,.39,0,.76,.08,1.12,.25,.36,.17,.68,.39,.97,.68s.52,.62,.68,.97c.17,.36,.25,.73,.25,1.12,0,.42-.08,.79-.25,1.14-.17,.35-.39,.66-.68,.93s-.62,.49-.97,.64c-.36,.15-.73,.23-1.12,.23-.8,0-1.49-.29-2.07-.87-.58-.58-.87-1.27-.87-2.07Z"/>
    </g>
    <g>
      <path d="M1327.79,292.65h-2.86v7.88h-4.77v-7.88h-11.77v-3.73l11.57-15.75h4.98v15.75h2.86v3.73Zm-7.63-3.73v-10.03l-7.09,10.03h7.09Z"/>
      <path d="M1331.94,298.08c0-.39,.08-.76,.23-1.12,.15-.36,.37-.68,.64-.97s.59-.52,.93-.68c.35-.17,.73-.25,1.14-.25,.39,0,.76,.08,1.12,.25,.36,.17,.68,.39,.97,.68s.52,.62,.68,.97c.17,.36,.25,.73,.25,1.12,0,.42-.08,.79-.25,1.14-.17,.35-.39,.66-.68,.93s-.62,.49-.97,.64c-.36,.15-.73,.23-1.12,.23-.8,0-1.49-.29-2.07-.87-.58-.58-.87-1.27-.87-2.07Z"/>
    </g>
    <g>
      <path d="M96.79,817.93h-.9c-.31,0-.63-.01-.98-.04v11.32h-4.6v-26.52h5.88c3.41,0,6.01,.64,7.8,1.93,1.79,1.29,2.68,3.16,2.68,5.63,0,1.56-.39,2.97-1.16,4.22s-2.07,2.17-3.88,2.78l9.68,11.96h-5.32l-9.2-11.28Zm-.2-11.48h-.76c-.29,0-.6,.01-.92,.04v7.6h2.48c1.44,0,2.53-.36,3.28-1.08,.75-.72,1.12-1.75,1.12-3.08,0-1.2-.37-2.08-1.1-2.64-.73-.56-2.1-.84-4.1-.84Z"/>
      <path d="M117.63,810.81v11.96c0,1.09,.29,1.93,.86,2.5,.57,.57,1.31,.86,2.22,.86s1.79-.31,2.56-.94c.77-.63,1.35-1.53,1.72-2.7v-11.68h4.44v18.4h-3.44l-.24-2.56h-.16c-.29,.61-.67,1.11-1.12,1.5s-.95,.69-1.5,.92c-.55,.23-1.11,.39-1.7,.48s-1.16,.14-1.72,.14c-.88,0-1.7-.11-2.46-.32s-1.43-.57-2-1.06c-.57-.49-1.03-1.15-1.36-1.96-.33-.81-.5-1.82-.5-3.02v-12.52h4.4Zm-1.52-6.08c0-.61,.23-1.16,.68-1.64,.45-.48,.99-.72,1.6-.72s1.16,.24,1.64,.72c.48,.48,.72,1.03,.72,1.64s-.24,1.15-.72,1.6c-.48,.45-1.03,.68-1.64,.68s-1.15-.23-1.6-.68c-.45-.45-.68-.99-.68-1.6Zm5.44,0c0-.61,.23-1.16,.68-1.64,.45-.48,.99-.72,1.6-.72s1.16,.24,1.64,.72,.72,1.03,.72,1.64-.24,1.15-.72,1.6c-.48,.45-1.03,.68-1.64,.68s-1.15-.23-1.6-.68c-.45-.45-.68-.99-.68-1.6Z"/>
      <path d="M149.15,815.37c-.29-.21-.66-.43-1.1-.64-.44-.21-.91-.4-1.42-.56-.51-.16-1.03-.29-1.58-.38-.55-.09-1.06-.14-1.54-.14-.91,0-1.67,.17-2.3,.5-.63,.33-1.13,.77-1.52,1.32-.39,.55-.67,1.18-.84,1.9-.17,.72-.26,1.47-.26,2.24,0,.91,.11,1.75,.32,2.54,.21,.79,.53,1.47,.96,2.06,.43,.59,.97,1.05,1.62,1.4s1.41,.52,2.26,.52c.96,0,1.98-.19,3.06-.58,1.08-.39,1.98-.93,2.7-1.62l.8,3.76c-.75,.48-1.77,.93-3.06,1.36-1.29,.43-2.67,.64-4.14,.64-1.55,0-2.9-.27-4.06-.8-1.16-.53-2.12-1.25-2.88-2.14-.76-.89-1.33-1.93-1.72-3.12s-.58-2.45-.58-3.78,.18-2.5,.54-3.66c.36-1.16,.93-2.19,1.7-3.08s1.76-1.6,2.96-2.12c1.2-.52,2.64-.78,4.32-.78,1.28,0,2.53,.15,3.76,.44,1.23,.29,2.21,.68,2.96,1.16l-.96,3.56Z"/>
      <path d="M163.39,817.29l7.84,11.92h-4.8l-5.96-9.04-1.56,1.56v7.48h-4.4v-29.6h4.4v17.08l6.12-5.88h4.92l-6.56,6.48Z"/>
      <path d="M176.11,823.41c-1.2-.51-2.07-1.29-2.6-2.36-.53-1.07-.8-2.23-.8-3.48,0-1.04,.17-2.01,.52-2.92,.35-.91,.85-1.69,1.5-2.34s1.44-1.17,2.36-1.54c.92-.37,1.97-.56,3.14-.56,.69,0,1.38,.07,2.06,.2s1.27,.32,1.78,.58c1.12,0,2.14-.08,3.06-.23s1.81-.35,2.66-.59l.36,.28-.44,3.04-.2,.2-2.84-.32-.04,.12c.91,1.15,1.36,2.49,1.36,4.04,0,.93-.17,1.81-.5,2.62-.33,.81-.82,1.52-1.46,2.12-.64,.6-1.43,1.08-2.38,1.44-.95,.36-2.02,.54-3.22,.54-.29,0-.53,0-.7-.02-.17-.01-.34-.02-.5-.02-.45,.16-.8,.37-1.04,.62-.24,.25-.36,.51-.36,.78,0,.29,.15,.55,.44,.76,.29,.21,.75,.36,1.36,.44l3.88,.48c.88,.11,1.7,.29,2.46,.56,.76,.27,1.43,.63,2,1.08s1.02,1,1.34,1.64c.32,.64,.48,1.37,.48,2.2s-.17,1.63-.52,2.4c-.35,.77-.89,1.45-1.64,2.04-.75,.59-1.69,1.05-2.82,1.4-1.13,.35-2.5,.52-4.1,.52-1.41,0-2.66-.14-3.74-.42-1.08-.28-1.99-.66-2.74-1.14-.75-.48-1.31-1.05-1.7-1.7-.39-.65-.58-1.35-.58-2.1,0-.53,.09-1.06,.28-1.58,.19-.52,.45-1,.78-1.44,.33-.44,.72-.83,1.16-1.18,.44-.35,.91-.6,1.42-.76v-.16c-.61-.27-1.04-.63-1.28-1.08-.24-.45-.36-.89-.36-1.32,0-.56,.19-1.08,.56-1.56,.37-.48,.91-.85,1.6-1.12v-.16Zm3.04,6.68c-.91,.16-1.68,.54-2.32,1.14-.64,.6-.96,1.29-.96,2.06,0,.85,.42,1.49,1.26,1.92,.84,.43,2.06,.64,3.66,.64s2.83-.22,3.76-.66c.93-.44,1.4-1.15,1.4-2.14s-.52-1.64-1.56-2.04c-1.04-.4-2.79-.71-5.24-.92Zm1.24-8.92c1.09,0,1.92-.35,2.48-1.06,.56-.71,.84-1.57,.84-2.58,0-.48-.07-.97-.2-1.46s-.35-.94-.64-1.34c-.29-.4-.66-.73-1.1-.98-.44-.25-.95-.38-1.54-.38s-1.05,.11-1.48,.34-.78,.53-1.06,.9c-.28,.37-.49,.79-.62,1.26-.13,.47-.2,.94-.2,1.42s.07,.95,.22,1.42c.15,.47,.37,.88,.66,1.24,.29,.36,.66,.65,1.1,.88,.44,.23,.95,.34,1.54,.34Z"/>
      <path d="M204.79,829.21l-.32-2.52h-.16c-.72,.91-1.7,1.63-2.94,2.18-1.24,.55-2.5,.82-3.78,.82-1.68,0-3-.49-3.96-1.46-.96-.97-1.44-2.26-1.44-3.86,0-1.09,.23-2.07,.7-2.94,.47-.87,1.14-1.6,2.02-2.2,.88-.6,1.93-1.06,3.16-1.38,1.23-.32,2.6-.48,4.12-.48h1.72v-.6c0-1.04-.33-1.8-1-2.28-.69-.48-1.77-.72-3.24-.72-1.97,0-3.73,.44-5.28,1.32l-.84-3.32c1.79-1.04,3.95-1.56,6.48-1.56,2.67,0,4.69,.55,6.08,1.64,.64,.51,1.17,1.16,1.58,1.96,.41,.8,.62,1.76,.62,2.88v12.52h-3.52Zm-5.48-3.08c.85,0,1.71-.21,2.56-.62,.85-.41,1.53-.97,2.04-1.66v-3.64h-.76c-2.19,0-3.78,.28-4.78,.84-1,.56-1.5,1.45-1.5,2.68,0,1.6,.81,2.4,2.44,2.4Z"/>
      <path d="M225.95,829.21v-12.16c0-2.19-.93-3.28-2.8-3.28-.45,0-.94,.08-1.46,.24-.52,.16-1.02,.39-1.5,.7-.48,.31-.91,.69-1.3,1.14-.39,.45-.67,.97-.86,1.56v11.8h-4.4v-18.4h3.44l.2,2.72h.16c.56-1.12,1.43-1.95,2.62-2.5s2.46-.82,3.82-.82c.88,0,1.71,.11,2.48,.34,.77,.23,1.46,.59,2.06,1.1s1.07,1.17,1.42,2c.35,.83,.52,1.84,.52,3.04v12.52h-4.4Z"/>
      <path d="M237.95,823.41c-1.2-.51-2.07-1.29-2.6-2.36-.53-1.07-.8-2.23-.8-3.48,0-1.04,.17-2.01,.52-2.92,.35-.91,.85-1.69,1.5-2.34s1.44-1.17,2.36-1.54c.92-.37,1.97-.56,3.14-.56,.69,0,1.38,.07,2.06,.2s1.27,.32,1.78,.58c1.12,0,2.14-.08,3.06-.23s1.81-.35,2.66-.59l.36,.28-.44,3.04-.2,.2-2.84-.32-.04,.12c.91,1.15,1.36,2.49,1.36,4.04,0,.93-.17,1.81-.5,2.62-.33,.81-.82,1.52-1.46,2.12-.64,.6-1.43,1.08-2.38,1.44-.95,.36-2.02,.54-3.22,.54-.29,0-.53,0-.7-.02-.17-.01-.34-.02-.5-.02-.45,.16-.8,.37-1.04,.62-.24,.25-.36,.51-.36,.78,0,.29,.15,.55,.44,.76,.29,.21,.75,.36,1.36,.44l3.88,.48c.88,.11,1.7,.29,2.46,.56,.76,.27,1.43,.63,2,1.08s1.02,1,1.34,1.64c.32,.64,.48,1.37,.48,2.2s-.17,1.63-.52,2.4c-.35,.77-.89,1.45-1.64,2.04-.75,.59-1.69,1.05-2.82,1.4-1.13,.35-2.5,.52-4.1,.52-1.41,0-2.66-.14-3.74-.42-1.08-.28-1.99-.66-2.74-1.14-.75-.48-1.31-1.05-1.7-1.7-.39-.65-.58-1.35-.58-2.1,0-.53,.09-1.06,.28-1.58,.19-.52,.45-1,.78-1.44,.33-.44,.72-.83,1.16-1.18,.44-.35,.91-.6,1.42-.76v-.16c-.61-.27-1.04-.63-1.28-1.08-.24-.45-.36-.89-.36-1.32,0-.56,.19-1.08,.56-1.56,.37-.48,.91-.85,1.6-1.12v-.16Zm3.04,6.68c-.91,.16-1.68,.54-2.32,1.14-.64,.6-.96,1.29-.96,2.06,0,.85,.42,1.49,1.26,1.92,.84,.43,2.06,.64,3.66,.64s2.83-.22,3.76-.66c.93-.44,1.4-1.15,1.4-2.14s-.52-1.64-1.56-2.04c-1.04-.4-2.79-.71-5.24-.92Zm1.24-8.92c1.09,0,1.92-.35,2.48-1.06,.56-.71,.84-1.57,.84-2.58,0-.48-.07-.97-.2-1.46s-.35-.94-.64-1.34c-.29-.4-.66-.73-1.1-.98-.44-.25-.95-.38-1.54-.38s-1.05,.11-1.48,.34-.78,.53-1.06,.9c-.28,.37-.49,.79-.62,1.26-.13,.47-.2,.94-.2,1.42s.07,.95,.22,1.42c.15,.47,.37,.88,.66,1.24,.29,.36,.66,.65,1.1,.88,.44,.23,.95,.34,1.54,.34Z"/>
      <path d="M312.68,804.69c.51-.27,1.09-.53,1.74-.78,.65-.25,1.33-.48,2.04-.68,.71-.2,1.42-.35,2.14-.46,.72-.11,1.43-.16,2.12-.16,1.12,0,2.16,.15,3.12,.46s1.78,.75,2.46,1.32c.68,.57,1.21,1.27,1.6,2.08,.39,.81,.58,1.71,.58,2.7,0,1.36-.34,2.71-1.02,4.06-.68,1.35-1.53,2.69-2.56,4.04-1.03,1.35-2.15,2.68-3.38,4-1.23,1.32-2.37,2.63-3.44,3.94h10.68v4h-16.2v-4c1.04-1.41,2.22-2.81,3.54-4.18s2.56-2.71,3.72-4.02c1.16-1.31,2.14-2.59,2.94-3.84,.8-1.25,1.2-2.48,1.2-3.68s-.37-1.96-1.12-2.44c-.75-.48-1.72-.72-2.92-.72s-2.27,.18-3.38,.54c-1.11,.36-2.09,.78-2.94,1.26l-.92-3.44Z"/>
      <path d="M333.08,826.85c0-.37,.07-.73,.22-1.08,.15-.35,.35-.66,.62-.94s.57-.5,.9-.66c.33-.16,.7-.24,1.1-.24,.37,0,.73,.08,1.08,.24,.35,.16,.66,.38,.94,.66,.28,.28,.5,.59,.66,.94,.16,.35,.24,.71,.24,1.08,0,.4-.08,.77-.24,1.1-.16,.33-.38,.63-.66,.9-.28,.27-.59,.47-.94,.62-.35,.15-.71,.22-1.08,.22-.77,0-1.44-.28-2-.84-.56-.56-.84-1.23-.84-2Z"/>
      <path d="M366.96,817.21h-8v8h11.48v4h-16.08v-26.4h15.28v4h-10.68v6.4h8v4Z"/>
      <path d="M385.08,814.81c-.27-.21-.68-.39-1.24-.52-.56-.13-1.04-.2-1.44-.2-.53,0-.97,.13-1.32,.38-.35,.25-.65,.59-.92,1-.27,.41-.49,.89-.68,1.42-.19,.53-.36,1.08-.52,1.64v10.68h-4.4v-18.4h3.44l.2,3.84h.16c.27-.56,.55-1.11,.84-1.64,.29-.53,.63-1.01,1-1.42,.37-.41,.81-.75,1.3-1,.49-.25,1.07-.38,1.74-.38,1.07,0,2.07,.35,3,1.04l-1.16,3.56Z"/>
      <path d="M393.92,813.53c.75-1.17,1.62-2.02,2.62-2.54,1-.52,2.18-.78,3.54-.78,.8,0,1.57,.11,2.32,.34,.75,.23,1.41,.59,1.98,1.1,.57,.51,1.03,1.17,1.36,2,.33,.83,.5,1.84,.5,3.04v12.52h-4.4v-12.16c0-1.09-.24-1.91-.72-2.46-.48-.55-1.13-.82-1.96-.82-.51,0-1.03,.08-1.58,.24-.55,.16-1.06,.4-1.54,.72-.48,.32-.91,.71-1.28,1.16-.37,.45-.65,.96-.84,1.52v11.8h-4.4v-29.6h4.4v13.92Z"/>
      <path d="M419.8,810.21c1.63,0,3.03,.27,4.2,.82,1.17,.55,2.14,1.28,2.9,2.2,.76,.92,1.32,1.97,1.68,3.16,.36,1.19,.54,2.43,.54,3.74s-.18,2.54-.54,3.7c-.36,1.16-.92,2.17-1.68,3.04-.76,.87-1.72,1.55-2.88,2.06-1.16,.51-2.53,.76-4.1,.76s-3.03-.27-4.2-.8c-1.17-.53-2.15-1.25-2.92-2.14s-1.35-1.93-1.72-3.1c-.37-1.17-.56-2.41-.56-3.72s.19-2.55,.56-3.72c.37-1.17,.94-2.21,1.7-3.1,.76-.89,1.73-1.6,2.9-2.12,1.17-.52,2.55-.78,4.12-.78Zm.08,16.16c.77,0,1.45-.17,2.02-.5,.57-.33,1.05-.79,1.42-1.36,.37-.57,.65-1.23,.82-1.98,.17-.75,.26-1.53,.26-2.36s-.09-1.67-.28-2.46c-.19-.79-.47-1.48-.86-2.08s-.87-1.08-1.46-1.44c-.59-.36-1.29-.54-2.12-.54-.77,0-1.44,.17-2,.5-.56,.33-1.02,.78-1.38,1.34-.36,.56-.63,1.21-.8,1.96-.17,.75-.26,1.53-.26,2.36s.09,1.67,.26,2.46c.17,.79,.45,1.49,.84,2.1s.87,1.1,1.46,1.46c.59,.36,1.28,.54,2.08,.54Z"/>
      <path d="M438.2,829.21h-4.4v-29.6h4.4v29.6Z"/>
      <path d="M448.2,810.81v11.96c0,1.09,.29,1.93,.86,2.5,.57,.57,1.31,.86,2.22,.86s1.79-.31,2.56-.94c.77-.63,1.35-1.53,1.72-2.7v-11.68h4.44v18.4h-3.44l-.24-2.56h-.16c-.29,.61-.67,1.11-1.12,1.5s-.95,.69-1.5,.92c-.55,.23-1.11,.39-1.7,.48s-1.16,.14-1.72,.14c-.88,0-1.7-.11-2.46-.32s-1.43-.57-2-1.06c-.57-.49-1.03-1.15-1.36-1.96-.33-.81-.5-1.82-.5-3.02v-12.52h4.4Z"/>
      <path d="M477.84,829.21v-12.16c0-2.19-.93-3.28-2.8-3.28-.45,0-.94,.08-1.46,.24-.52,.16-1.02,.39-1.5,.7-.48,.31-.91,.69-1.3,1.14-.39,.45-.67,.97-.86,1.56v11.8h-4.4v-18.4h3.44l.2,2.72h.16c.56-1.12,1.43-1.95,2.62-2.5s2.46-.82,3.82-.82c.88,0,1.71,.11,2.48,.34,.77,.23,1.46,.59,2.06,1.1s1.07,1.17,1.42,2c.35,.83,.52,1.84,.52,3.04v12.52h-4.4Z"/>
      <path d="M489.84,823.41c-1.2-.51-2.07-1.29-2.6-2.36-.53-1.07-.8-2.23-.8-3.48,0-1.04,.17-2.01,.52-2.92,.35-.91,.85-1.69,1.5-2.34s1.44-1.17,2.36-1.54c.92-.37,1.97-.56,3.14-.56,.69,0,1.38,.07,2.06,.2s1.27,.32,1.78,.58c1.12,0,2.14-.08,3.06-.23s1.81-.35,2.66-.59l.36,.28-.44,3.04-.2,.2-2.84-.32-.04,.12c.91,1.15,1.36,2.49,1.36,4.04,0,.93-.17,1.81-.5,2.62-.33,.81-.82,1.52-1.46,2.12-.64,.6-1.43,1.08-2.38,1.44-.95,.36-2.02,.54-3.22,.54-.29,0-.53,0-.7-.02-.17-.01-.34-.02-.5-.02-.45,.16-.8,.37-1.04,.62-.24,.25-.36,.51-.36,.78,0,.29,.15,.55,.44,.76,.29,.21,.75,.36,1.36,.44l3.88,.48c.88,.11,1.7,.29,2.46,.56,.76,.27,1.43,.63,2,1.08s1.02,1,1.34,1.64c.32,.64,.48,1.37,.48,2.2s-.17,1.63-.52,2.4c-.35,.77-.89,1.45-1.64,2.04-.75,.59-1.69,1.05-2.82,1.4-1.13,.35-2.5,.52-4.1,.52-1.41,0-2.66-.14-3.74-.42-1.08-.28-1.99-.66-2.74-1.14-.75-.48-1.31-1.05-1.7-1.7-.39-.65-.58-1.35-.58-2.1,0-.53,.09-1.06,.28-1.58,.19-.52,.45-1,.78-1.44,.33-.44,.72-.83,1.16-1.18,.44-.35,.91-.6,1.42-.76v-.16c-.61-.27-1.04-.63-1.28-1.08-.24-.45-.36-.89-.36-1.32,0-.56,.19-1.08,.56-1.56,.37-.48,.91-.85,1.6-1.12v-.16Zm3.04,6.68c-.91,.16-1.68,.54-2.32,1.14-.64,.6-.96,1.29-.96,2.06,0,.85,.42,1.49,1.26,1.92,.84,.43,2.06,.64,3.66,.64s2.83-.22,3.76-.66c.93-.44,1.4-1.15,1.4-2.14s-.52-1.64-1.56-2.04c-1.04-.4-2.79-.71-5.24-.92Zm1.24-8.92c1.09,0,1.92-.35,2.48-1.06,.56-.71,.84-1.57,.84-2.58,0-.48-.07-.97-.2-1.46s-.35-.94-.64-1.34c-.29-.4-.66-.73-1.1-.98-.44-.25-.95-.38-1.54-.38s-1.05,.11-1.48,.34-.78,.53-1.06,.9c-.28,.37-.49,.79-.62,1.26-.13,.47-.2,.94-.2,1.42s.07,.95,.22,1.42c.15,.47,.37,.88,.66,1.24,.29,.36,.66,.65,1.1,.88,.44,.23,.95,.34,1.54,.34Z"/>
      <path d="M574.69,804.73c1.01-.61,2.18-1.12,3.5-1.52,1.32-.4,2.63-.6,3.94-.6,1.12,0,2.15,.16,3.08,.48,.93,.32,1.74,.77,2.42,1.34,.68,.57,1.21,1.26,1.58,2.06,.37,.8,.56,1.68,.56,2.64,0,1.41-.36,2.57-1.08,3.46-.72,.89-1.63,1.65-2.72,2.26,1.6,.53,2.85,1.33,3.74,2.4,.89,1.07,1.34,2.47,1.34,4.2,0,1.12-.2,2.18-.6,3.18-.4,1-1.01,1.87-1.84,2.62-.83,.75-1.85,1.34-3.08,1.78-1.23,.44-2.65,.66-4.28,.66-3.31,0-6.03-.91-8.16-2.72l1.12-3.64c.93,.77,1.97,1.39,3.12,1.84,1.15,.45,2.37,.68,3.68,.68,1.68,0,2.95-.39,3.82-1.18,.87-.79,1.3-1.94,1.3-3.46,0-1.36-.39-2.43-1.18-3.22-.79-.79-2.1-1.18-3.94-1.18h-1.08v-3.48h1.24c1.17,0,2.08-.37,2.72-1.12,.64-.75,.96-1.73,.96-2.96,0-1.09-.33-1.86-1-2.3-.67-.44-1.47-.66-2.4-.66-.51,0-1.03,.05-1.58,.16-.55,.11-1.07,.26-1.58,.46-.51,.2-.98,.43-1.42,.68-.44,.25-.82,.53-1.14,.82l-1.04-3.68Z"/>
      <path d="M595.29,826.85c0-.37,.07-.73,.22-1.08,.15-.35,.35-.66,.62-.94s.57-.5,.9-.66c.33-.16,.7-.24,1.1-.24,.37,0,.73,.08,1.08,.24,.35,.16,.66,.38,.94,.66,.28,.28,.5,.59,.66,.94,.16,.35,.24,.71,.24,1.08,0,.4-.08,.77-.24,1.1-.16,.33-.38,.63-.66,.9-.28,.27-.59,.47-.94,.62-.35,.15-.71,.22-1.08,.22-.77,0-1.44-.28-2-.84-.56-.56-.84-1.23-.84-2Z"/>
      <path d="M628.73,817.21h-7.56v12h-4.6v-26.4h15.08v4h-10.48v6.4h7.56v4Z"/>
      <path d="M644.41,814.81c-.27-.21-.68-.39-1.24-.52-.56-.13-1.04-.2-1.44-.2-.53,0-.97,.13-1.32,.38-.35,.25-.65,.59-.92,1-.27,.41-.49,.89-.68,1.42-.19,.53-.36,1.08-.52,1.64v10.68h-4.4v-18.4h3.44l.2,3.84h.16c.27-.56,.55-1.11,.84-1.64,.29-.53,.63-1.01,1-1.42,.37-.41,.81-.75,1.3-1,.49-.25,1.07-.38,1.74-.38,1.07,0,2.07,.35,3,1.04l-1.16,3.56Z"/>
      <path d="M653.09,810.81v11.96c0,1.09,.29,1.93,.86,2.5,.57,.57,1.31,.86,2.22,.86s1.79-.31,2.56-.94c.77-.63,1.35-1.53,1.72-2.7v-11.68h4.44v18.4h-3.44l-.24-2.56h-.16c-.29,.61-.67,1.11-1.12,1.5s-.95,.69-1.5,.92c-.55,.23-1.11,.39-1.7,.48s-1.16,.14-1.72,.14c-.88,0-1.7-.11-2.46-.32s-1.43-.57-2-1.06c-.57-.49-1.03-1.15-1.36-1.96-.33-.81-.5-1.82-.5-3.02v-12.52h4.4Zm-1.52-6.08c0-.61,.23-1.16,.68-1.64,.45-.48,.99-.72,1.6-.72s1.16,.24,1.64,.72c.48,.48,.72,1.03,.72,1.64s-.24,1.15-.72,1.6c-.48,.45-1.03,.68-1.64,.68s-1.15-.23-1.6-.68c-.45-.45-.68-.99-.68-1.6Zm5.44,0c0-.61,.23-1.16,.68-1.64,.45-.48,.99-.72,1.6-.72s1.16,.24,1.64,.72,.72,1.03,.72,1.64-.24,1.15-.72,1.6c-.48,.45-1.03,.68-1.64,.68s-1.15-.23-1.6-.68c-.45-.45-.68-.99-.68-1.6Z"/>
      <path d="M674.81,813.53c.75-1.17,1.62-2.02,2.62-2.54,1-.52,2.18-.78,3.54-.78,.8,0,1.57,.11,2.32,.34,.75,.23,1.41,.59,1.98,1.1,.57,.51,1.03,1.17,1.36,2,.33,.83,.5,1.84,.5,3.04v12.52h-4.4v-12.16c0-1.09-.24-1.91-.72-2.46-.48-.55-1.13-.82-1.96-.82-.51,0-1.03,.08-1.58,.24-.55,.16-1.06,.4-1.54,.72-.48,.32-.91,.71-1.28,1.16-.37,.45-.65,.96-.84,1.52v11.8h-4.4v-29.6h4.4v13.92Z"/>
      <path d="M700.85,810.21c2.35,0,4.16,.59,5.44,1.78,1.28,1.19,1.92,2.86,1.92,5.02,0,.29-.02,.61-.06,.94-.04,.33-.09,.66-.16,.98-.07,.32-.15,.61-.24,.86-.09,.25-.19,.46-.3,.62h-11.64c.05,.8,.2,1.55,.44,2.26,.24,.71,.59,1.32,1.04,1.84,.45,.52,1.01,.93,1.66,1.24s1.42,.46,2.3,.46c.99,0,2.03-.19,3.14-.56,1.11-.37,2.05-.84,2.82-1.4l.72,3.28c-.35,.21-.77,.45-1.28,.7-.51,.25-1.08,.49-1.72,.7-.64,.21-1.33,.39-2.06,.54s-1.5,.22-2.3,.22c-1.49,0-2.81-.26-3.96-.78-1.15-.52-2.11-1.23-2.88-2.12s-1.36-1.93-1.76-3.1c-.4-1.17-.6-2.4-.6-3.68s.21-2.55,.62-3.74c.41-1.19,1.02-2.23,1.82-3.14,.8-.91,1.79-1.62,2.98-2.14,1.19-.52,2.54-.78,4.06-.78Zm-.12,3.44c-1.12,0-2.07,.33-2.86,.98-.79,.65-1.35,1.54-1.7,2.66h7.64c.03-.08,.05-.17,.06-.28,.01-.11,.02-.24,.02-.4,0-.85-.29-1.56-.88-2.12-.59-.56-1.35-.84-2.28-.84Z"/>
      <path d="M718.28,813.49c-.88,0-1.57,.17-2.06,.5s-.74,.81-.74,1.42c0,.4,.14,.77,.42,1.1,.28,.33,.87,.61,1.78,.82l2.84,.64c1.12,.24,2.02,.59,2.7,1.04,.68,.45,1.21,.95,1.6,1.48,.39,.53,.65,1.08,.78,1.64,.13,.56,.2,1.08,.2,1.56,0,.85-.17,1.65-.52,2.38-.35,.73-.84,1.37-1.48,1.9-.64,.53-1.41,.95-2.32,1.26-.91,.31-1.92,.46-3.04,.46-1.41,0-2.72-.21-3.92-.62-1.2-.41-2.16-.87-2.88-1.38l1.04-3.8c.91,.88,1.93,1.53,3.06,1.96,1.13,.43,2.18,.64,3.14,.64,1.01,0,1.79-.22,2.32-.66,.53-.44,.8-1.05,.8-1.82,0-.45-.13-.83-.4-1.14s-.8-.57-1.6-.78l-3.84-.96c-.91-.21-1.65-.52-2.22-.92s-1.03-.85-1.36-1.34c-.33-.49-.56-1.01-.68-1.54-.12-.53-.18-1.04-.18-1.52,0-1.79,.63-3.17,1.88-4.14,1.25-.97,2.88-1.46,4.88-1.46,1.04,0,2.16,.14,3.36,.42s2.21,.69,3.04,1.22l-1.16,3.6c-.53-.43-1.28-.86-2.24-1.3-.96-.44-2.03-.66-3.2-.66Z"/>
      <path d="M767.68,829.21h-3.8l-7.2-20.08-7.16,20.08h-3.8l-9.84-26.4h5l6.76,20.48,6.8-20.48h4.52l6.76,20.48,6.76-20.48h5l-9.8,26.4Z"/>
      <path d="M789.84,829.21l-.32-2.52h-.16c-.72,.91-1.7,1.63-2.94,2.18-1.24,.55-2.5,.82-3.78,.82-1.68,0-3-.49-3.96-1.46-.96-.97-1.44-2.26-1.44-3.86,0-1.09,.23-2.07,.7-2.94,.47-.87,1.14-1.6,2.02-2.2,.88-.6,1.93-1.06,3.16-1.38,1.23-.32,2.6-.48,4.12-.48h1.72v-.6c0-1.04-.33-1.8-1-2.28-.69-.48-1.77-.72-3.24-.72-1.97,0-3.73,.44-5.28,1.32l-.84-3.32c1.79-1.04,3.95-1.56,6.48-1.56,2.67,0,4.69,.55,6.08,1.64,.64,.51,1.17,1.16,1.58,1.96,.41,.8,.62,1.76,.62,2.88v12.52h-3.52Zm-5.48-3.08c.85,0,1.71-.21,2.56-.62,.85-.41,1.53-.97,2.04-1.66v-3.64h-.76c-2.19,0-3.78,.28-4.78,.84-1,.56-1.5,1.45-1.5,2.68,0,1.6,.81,2.4,2.44,2.4Z"/>
      <path d="M812.88,815.37c-.29-.21-.66-.43-1.1-.64-.44-.21-.91-.4-1.42-.56s-1.03-.29-1.58-.38c-.55-.09-1.06-.14-1.54-.14-.91,0-1.67,.17-2.3,.5-.63,.33-1.13,.77-1.52,1.32-.39,.55-.67,1.18-.84,1.9-.17,.72-.26,1.47-.26,2.24,0,.91,.11,1.75,.32,2.54,.21,.79,.53,1.47,.96,2.06,.43,.59,.97,1.05,1.62,1.4,.65,.35,1.41,.52,2.26,.52,.96,0,1.98-.19,3.06-.58,1.08-.39,1.98-.93,2.7-1.62l.8,3.76c-.75,.48-1.77,.93-3.06,1.36-1.29,.43-2.67,.64-4.14,.64-1.55,0-2.9-.27-4.06-.8s-2.12-1.25-2.88-2.14c-.76-.89-1.33-1.93-1.72-3.12s-.58-2.45-.58-3.78,.18-2.5,.54-3.66c.36-1.16,.93-2.19,1.7-3.08s1.76-1.6,2.96-2.12c1.2-.52,2.64-.78,4.32-.78,1.28,0,2.53,.15,3.76,.44,1.23,.29,2.21,.68,2.96,1.16l-.96,3.56Z"/>
      <path d="M822.64,813.53c.75-1.17,1.62-2.02,2.62-2.54,1-.52,2.18-.78,3.54-.78,.8,0,1.57,.11,2.32,.34,.75,.23,1.41,.59,1.98,1.1s1.03,1.17,1.36,2c.33,.83,.5,1.84,.5,3.04v12.52h-4.4v-12.16c0-1.09-.24-1.91-.72-2.46-.48-.55-1.13-.82-1.96-.82-.51,0-1.04,.08-1.58,.24-.55,.16-1.06,.4-1.54,.72-.48,.32-.91,.71-1.28,1.16-.38,.45-.65,.96-.84,1.52v11.8h-4.4v-29.6h4.4v13.92Z"/>
      <path d="M845.92,813.49c-.88,0-1.57,.17-2.06,.5-.49,.33-.74,.81-.74,1.42,0,.4,.14,.77,.42,1.1,.28,.33,.87,.61,1.78,.82l2.84,.64c1.12,.24,2.02,.59,2.7,1.04,.68,.45,1.21,.95,1.6,1.48,.38,.53,.64,1.08,.78,1.64,.13,.56,.2,1.08,.2,1.56,0,.85-.17,1.65-.52,2.38-.35,.73-.84,1.37-1.48,1.9-.64,.53-1.41,.95-2.32,1.26-.91,.31-1.92,.46-3.04,.46-1.41,0-2.72-.21-3.92-.62s-2.16-.87-2.88-1.38l1.04-3.8c.91,.88,1.93,1.53,3.06,1.96,1.13,.43,2.18,.64,3.14,.64,1.01,0,1.79-.22,2.32-.66,.53-.44,.8-1.05,.8-1.82,0-.45-.13-.83-.4-1.14-.27-.31-.8-.57-1.6-.78l-3.84-.96c-.91-.21-1.65-.52-2.22-.92-.57-.4-1.03-.85-1.36-1.34-.33-.49-.56-1.01-.68-1.54-.12-.53-.18-1.04-.18-1.52,0-1.79,.63-3.17,1.88-4.14,1.25-.97,2.88-1.46,4.88-1.46,1.04,0,2.16,.14,3.36,.42,1.2,.28,2.21,.69,3.04,1.22l-1.16,3.6c-.53-.43-1.28-.86-2.24-1.3-.96-.44-2.03-.66-3.2-.66Z"/>
      <path d="M858.48,813.49h-2.28v-2.4l2.6-.4,.72-5.44h3.36v5.56h3.52v2.68h-3.52v10.56c0,.8,.08,1.34,.24,1.62s.46,.42,.92,.42c.35,0,.69-.07,1.04-.2,.35-.13,.85-.39,1.52-.76l.72,3.16c-.51,.43-1.22,.77-2.14,1.02-.92,.25-1.83,.38-2.74,.38-.8,0-1.46-.11-1.98-.32-.52-.21-.93-.53-1.22-.94-.29-.41-.49-.91-.6-1.5-.11-.59-.16-1.24-.16-1.96v-11.48Z"/>
      <path d="M875.16,810.81v11.96c0,1.09,.29,1.93,.86,2.5,.57,.57,1.31,.86,2.22,.86s1.79-.31,2.56-.94c.77-.63,1.35-1.53,1.72-2.7v-11.68h4.44v18.4h-3.44l-.24-2.56h-.16c-.29,.61-.67,1.11-1.12,1.5s-.95,.69-1.5,.92c-.55,.23-1.11,.39-1.7,.48-.59,.09-1.16,.14-1.72,.14-.88,0-1.7-.11-2.46-.32s-1.43-.57-2-1.06c-.57-.49-1.03-1.15-1.36-1.96-.33-.81-.5-1.82-.5-3.02v-12.52h4.4Z"/>
      <path d="M904.4,829.21v-12.16c0-2.19-.87-3.28-2.6-3.28-.43,0-.89,.08-1.38,.24s-.97,.39-1.44,.7-.89,.69-1.28,1.14c-.39,.45-.66,.97-.82,1.56v11.8h-4.4v-18.4h3.44l.2,2.72h.16c.53-1.12,1.38-1.95,2.54-2.5s2.39-.82,3.7-.82,2.39,.25,3.42,.74c1.03,.49,1.79,1.34,2.3,2.54,.53-1.09,1.37-1.91,2.52-2.46s2.37-.82,3.68-.82c.85,0,1.66,.11,2.42,.34,.76,.23,1.43,.59,2,1.1,.57,.51,1.03,1.17,1.36,2,.33,.83,.5,1.84,.5,3.04v12.52h-4.4v-12.16c0-2.19-.87-3.28-2.6-3.28-.43,0-.89,.08-1.38,.24s-.97,.39-1.44,.7-.89,.69-1.28,1.14c-.39,.45-.66,.97-.82,1.56v11.8h-4.4Z"/>
      <path d="M1002.11,821.61h-2.76v7.6h-4.6v-7.6h-11.36v-3.6l11.16-15.2h4.8v15.2h2.76v3.6Zm-7.36-3.6v-9.68l-6.84,9.68h6.84Z"/>
      <path d="M1006.11,826.85c0-.37,.07-.73,.22-1.08,.15-.35,.35-.66,.62-.94,.27-.28,.57-.5,.9-.66s.7-.24,1.1-.24c.37,0,.73,.08,1.08,.24s.66,.38,.94,.66c.28,.28,.5,.59,.66,.94,.16,.35,.24,.71,.24,1.08,0,.4-.08,.77-.24,1.1-.16,.33-.38,.63-.66,.9-.28,.27-.59,.47-.94,.62s-.71,.22-1.08,.22c-.77,0-1.44-.28-2-.84-.56-.56-.84-1.23-.84-2Z"/>
      <path d="M1030.75,809.17c0,.56,.12,1.04,.38,1.44,.25,.4,.61,.75,1.06,1.04,.45,.29,.99,.57,1.62,.82,.62,.25,1.33,.51,2.1,.78,.96,.35,1.91,.74,2.86,1.18,.95,.44,1.8,.99,2.56,1.64s1.38,1.46,1.86,2.42,.72,2.12,.72,3.48c0,1.44-.26,2.65-.78,3.64-.52,.99-1.22,1.78-2.1,2.38-.88,.6-1.89,1.03-3.04,1.3-1.15,.27-2.33,.4-3.56,.4-1.76,0-3.41-.21-4.94-.64-1.54-.43-2.85-.95-3.94-1.56l1.2-4.32c1.01,.77,2.14,1.41,3.38,1.92,1.24,.51,2.66,.76,4.26,.76,1.71,0,2.95-.3,3.72-.9,.77-.6,1.16-1.41,1.16-2.42,0-.77-.19-1.43-.56-1.98-.37-.55-.84-1.01-1.4-1.4-.56-.39-1.15-.7-1.78-.94s-1.18-.44-1.66-.6c-.85-.27-1.72-.59-2.6-.96-.88-.37-1.69-.86-2.44-1.46-.75-.6-1.35-1.35-1.82-2.26-.47-.91-.7-2.04-.7-3.4,0-1.28,.22-2.36,.66-3.24,.44-.88,1.04-1.59,1.8-2.14s1.65-.94,2.68-1.18,2.14-.36,3.34-.36c1.47,0,2.89,.15,4.26,.44,1.37,.29,2.53,.65,3.46,1.08l-1.08,4.24c-.48-.32-1-.6-1.56-.84-.56-.24-1.14-.44-1.74-.6-.6-.16-1.2-.29-1.8-.38-.6-.09-1.17-.14-1.7-.14-1.2,0-2.15,.23-2.84,.68-.69,.45-1.04,1.15-1.04,2.08Z"/>
      <path d="M1058.31,810.21c1.44,0,2.68,.27,3.72,.82,1.04,.55,1.9,1.27,2.58,2.18,.68,.91,1.18,1.95,1.5,3.14,.32,1.19,.48,2.42,.48,3.7s-.17,2.55-.5,3.72c-.33,1.17-.85,2.2-1.54,3.08-.7,.88-1.56,1.57-2.6,2.08-1.04,.51-2.28,.76-3.72,.76-1.2,0-2.31-.17-3.34-.52-1.03-.35-1.85-.91-2.46-1.68v12.12h-4.36v-28.8h3.52l.32,2.52h.16c.35-.43,.76-.83,1.24-1.22s1-.72,1.56-1,1.13-.5,1.72-.66,1.16-.24,1.72-.24Zm-.72,3.36c-.4,0-.84,.06-1.32,.18-.48,.12-.95,.29-1.42,.52-.47,.23-.91,.5-1.34,.82s-.79,.68-1.08,1.08v7.8c.8,.99,1.62,1.61,2.46,1.86,.84,.25,1.61,.38,2.3,.38,.88,0,1.63-.16,2.26-.48,.63-.32,1.15-.75,1.56-1.3,.41-.55,.72-1.19,.92-1.92,.2-.73,.3-1.53,.3-2.38,0-.8-.09-1.59-.26-2.38-.17-.79-.46-1.49-.84-2.1-.39-.61-.88-1.11-1.46-1.5s-1.28-.58-2.08-.58Z"/>
      <path d="M1082.27,829.21l-.32-2.52h-.16c-.72,.91-1.7,1.63-2.94,2.18-1.24,.55-2.5,.82-3.78,.82-1.68,0-3-.49-3.96-1.46-.96-.97-1.44-2.26-1.44-3.86,0-1.09,.23-2.07,.7-2.94,.47-.87,1.14-1.6,2.02-2.2,.88-.6,1.93-1.06,3.16-1.38,1.22-.32,2.6-.48,4.12-.48h1.72v-.6c0-1.04-.33-1.8-1-2.28-.69-.48-1.77-.72-3.24-.72-1.97,0-3.73,.44-5.28,1.32l-.84-3.32c1.79-1.04,3.95-1.56,6.48-1.56,2.67,0,4.69,.55,6.08,1.64,.64,.51,1.17,1.16,1.58,1.96,.41,.8,.62,1.76,.62,2.88v12.52h-3.52Zm-8.92-24.48c0-.61,.23-1.16,.68-1.64,.45-.48,.99-.72,1.6-.72s1.16,.24,1.64,.72c.48,.48,.72,1.03,.72,1.64s-.24,1.15-.72,1.6c-.48,.45-1.03,.68-1.64,.68s-1.15-.23-1.6-.68c-.45-.45-.68-.99-.68-1.6Zm3.44,21.4c.85,0,1.71-.21,2.56-.62,.85-.41,1.53-.97,2.04-1.66v-3.64h-.76c-2.19,0-3.78,.28-4.78,.84-1,.56-1.5,1.45-1.5,2.68,0,1.6,.81,2.4,2.44,2.4Zm2-21.4c0-.61,.22-1.16,.68-1.64,.45-.48,.99-.72,1.6-.72s1.16,.24,1.64,.72c.48,.48,.72,1.03,.72,1.64s-.24,1.15-.72,1.6c-.48,.45-1.03,.68-1.64,.68s-1.15-.23-1.6-.68c-.46-.45-.68-.99-.68-1.6Z"/>
      <path d="M1091.79,813.49h-2.28v-2.4l2.6-.4,.72-5.44h3.36v5.56h3.52v2.68h-3.52v10.56c0,.8,.08,1.34,.24,1.62s.47,.42,.92,.42c.35,0,.69-.07,1.04-.2,.35-.13,.85-.39,1.52-.76l.72,3.16c-.51,.43-1.22,.77-2.14,1.02-.92,.25-1.83,.38-2.74,.38-.8,0-1.46-.11-1.98-.32s-.93-.53-1.22-.94c-.29-.41-.49-.91-.6-1.5-.11-.59-.16-1.24-.16-1.96v-11.48Z"/>
      <path d="M1112.59,810.21c2.35,0,4.16,.59,5.44,1.78s1.92,2.86,1.92,5.02c0,.29-.02,.61-.06,.94-.04,.33-.09,.66-.16,.98-.07,.32-.15,.61-.24,.86-.09,.25-.19,.46-.3,.62h-11.64c.05,.8,.2,1.55,.44,2.26,.24,.71,.59,1.32,1.04,1.84,.45,.52,1.01,.93,1.66,1.24,.65,.31,1.42,.46,2.3,.46,.99,0,2.03-.19,3.14-.56,1.11-.37,2.05-.84,2.82-1.4l.72,3.28c-.35,.21-.78,.45-1.28,.7-.51,.25-1.08,.49-1.72,.7-.64,.21-1.33,.39-2.06,.54-.73,.15-1.5,.22-2.3,.22-1.49,0-2.81-.26-3.96-.78-1.15-.52-2.11-1.23-2.88-2.12s-1.36-1.93-1.76-3.1c-.4-1.17-.6-2.4-.6-3.68s.21-2.55,.62-3.74c.41-1.19,1.02-2.23,1.82-3.14,.8-.91,1.79-1.62,2.98-2.14,1.19-.52,2.54-.78,4.06-.78Zm-.12,3.44c-1.12,0-2.07,.33-2.86,.98-.79,.65-1.35,1.54-1.7,2.66h7.64c.03-.08,.05-.17,.06-.28,.01-.11,.02-.24,.02-.4,0-.85-.29-1.56-.88-2.12-.59-.56-1.35-.84-2.28-.84Z"/>
      <path d="M1130.03,813.49c-.88,0-1.57,.17-2.06,.5-.49,.33-.74,.81-.74,1.42,0,.4,.14,.77,.42,1.1,.28,.33,.87,.61,1.78,.82l2.84,.64c1.12,.24,2.02,.59,2.7,1.04,.68,.45,1.21,.95,1.6,1.48s.65,1.08,.78,1.64c.13,.56,.2,1.08,.2,1.56,0,.85-.17,1.65-.52,2.38-.35,.73-.84,1.37-1.48,1.9-.64,.53-1.41,.95-2.32,1.26-.91,.31-1.92,.46-3.04,.46-1.41,0-2.72-.21-3.92-.62-1.2-.41-2.16-.87-2.88-1.38l1.04-3.8c.91,.88,1.93,1.53,3.06,1.96,1.13,.43,2.18,.64,3.14,.64,1.01,0,1.79-.22,2.32-.66,.53-.44,.8-1.05,.8-1.82,0-.45-.13-.83-.4-1.14-.27-.31-.8-.57-1.6-.78l-3.84-.96c-.91-.21-1.65-.52-2.22-.92-.57-.4-1.03-.85-1.36-1.34s-.56-1.01-.68-1.54-.18-1.04-.18-1.52c0-1.79,.62-3.17,1.88-4.14,1.25-.97,2.88-1.46,4.88-1.46,1.04,0,2.16,.14,3.36,.42,1.2,.28,2.21,.69,3.04,1.22l-1.16,3.6c-.53-.43-1.28-.86-2.24-1.3-.96-.44-2.03-.66-3.2-.66Z"/>
      <path d="M1179.43,829.21h-3.8l-7.2-20.08-7.16,20.08h-3.8l-9.84-26.4h5l6.76,20.48,6.8-20.48h4.52l6.76,20.48,6.76-20.48h5l-9.8,26.4Z"/>
      <path d="M1201.59,829.21l-.32-2.52h-.16c-.72,.91-1.7,1.63-2.94,2.18-1.24,.55-2.5,.82-3.78,.82-1.68,0-3-.49-3.96-1.46-.96-.97-1.44-2.26-1.44-3.86,0-1.09,.23-2.07,.7-2.94,.47-.87,1.14-1.6,2.02-2.2,.88-.6,1.93-1.06,3.16-1.38,1.23-.32,2.6-.48,4.12-.48h1.72v-.6c0-1.04-.33-1.8-1-2.28-.69-.48-1.77-.72-3.24-.72-1.97,0-3.73,.44-5.28,1.32l-.84-3.32c1.79-1.04,3.95-1.56,6.48-1.56,2.67,0,4.69,.55,6.08,1.64,.64,.51,1.17,1.16,1.58,1.96,.41,.8,.62,1.76,.62,2.88v12.52h-3.52Zm-5.48-3.08c.85,0,1.71-.21,2.56-.62,.85-.41,1.53-.97,2.04-1.66v-3.64h-.76c-2.19,0-3.78,.28-4.78,.84-1,.56-1.5,1.45-1.5,2.68,0,1.6,.81,2.4,2.44,2.4Z"/>
      <path d="M1224.63,815.37c-.29-.21-.66-.43-1.1-.64-.44-.21-.91-.4-1.42-.56s-1.03-.29-1.58-.38c-.55-.09-1.06-.14-1.54-.14-.91,0-1.67,.17-2.3,.5-.63,.33-1.13,.77-1.52,1.32-.39,.55-.67,1.18-.84,1.9-.17,.72-.26,1.47-.26,2.24,0,.91,.11,1.75,.32,2.54,.21,.79,.53,1.47,.96,2.06,.43,.59,.97,1.05,1.62,1.4,.65,.35,1.41,.52,2.26,.52,.96,0,1.98-.19,3.06-.58,1.08-.39,1.98-.93,2.7-1.62l.8,3.76c-.75,.48-1.77,.93-3.06,1.36-1.29,.43-2.67,.64-4.14,.64-1.55,0-2.9-.27-4.06-.8s-2.12-1.25-2.88-2.14c-.76-.89-1.33-1.93-1.72-3.12s-.58-2.45-.58-3.78,.18-2.5,.54-3.66c.36-1.16,.93-2.19,1.7-3.08s1.76-1.6,2.96-2.12c1.2-.52,2.64-.78,4.32-.78,1.28,0,2.53,.15,3.76,.44,1.23,.29,2.21,.68,2.96,1.16l-.96,3.56Z"/>
      <path d="M1234.39,813.53c.75-1.17,1.62-2.02,2.62-2.54,1-.52,2.18-.78,3.54-.78,.8,0,1.57,.11,2.32,.34s1.41,.59,1.98,1.1c.57,.51,1.03,1.17,1.36,2,.33,.83,.5,1.84,.5,3.04v12.52h-4.4v-12.16c0-1.09-.24-1.91-.72-2.46-.48-.55-1.13-.82-1.96-.82-.51,0-1.03,.08-1.58,.24s-1.06,.4-1.54,.72c-.48,.32-.91,.71-1.28,1.16-.37,.45-.65,.96-.84,1.52v11.8h-4.4v-29.6h4.4v13.92Z"/>
      <path d="M1257.67,813.49c-.88,0-1.57,.17-2.06,.5-.49,.33-.74,.81-.74,1.42,0,.4,.14,.77,.42,1.1,.28,.33,.87,.61,1.78,.82l2.84,.64c1.12,.24,2.02,.59,2.7,1.04,.68,.45,1.21,.95,1.6,1.48,.38,.53,.64,1.08,.78,1.64,.13,.56,.2,1.08,.2,1.56,0,.85-.17,1.65-.52,2.38-.35,.73-.84,1.37-1.48,1.9-.64,.53-1.41,.95-2.32,1.26-.91,.31-1.92,.46-3.04,.46-1.41,0-2.72-.21-3.92-.62s-2.16-.87-2.88-1.38l1.04-3.8c.91,.88,1.93,1.53,3.06,1.96,1.13,.43,2.18,.64,3.14,.64,1.01,0,1.79-.22,2.32-.66,.53-.44,.8-1.05,.8-1.82,0-.45-.13-.83-.4-1.14-.27-.31-.8-.57-1.6-.78l-3.84-.96c-.91-.21-1.65-.52-2.22-.92-.57-.4-1.03-.85-1.36-1.34-.33-.49-.56-1.01-.68-1.54-.12-.53-.18-1.04-.18-1.52,0-1.79,.63-3.17,1.88-4.14,1.25-.97,2.88-1.46,4.88-1.46,1.04,0,2.16,.14,3.36,.42,1.2,.28,2.21,.69,3.04,1.22l-1.16,3.6c-.53-.43-1.28-.86-2.24-1.3-.96-.44-2.03-.66-3.2-.66Z"/>
      <path d="M1270.23,813.49h-2.28v-2.4l2.6-.4,.72-5.44h3.36v5.56h3.52v2.68h-3.52v10.56c0,.8,.08,1.34,.24,1.62s.46,.42,.92,.42c.35,0,.69-.07,1.04-.2,.35-.13,.85-.39,1.52-.76l.72,3.16c-.51,.43-1.22,.77-2.14,1.02-.92,.25-1.83,.38-2.74,.38-.8,0-1.46-.11-1.98-.32-.52-.21-.93-.53-1.22-.94-.29-.41-.49-.91-.6-1.5-.11-.59-.16-1.24-.16-1.96v-11.48Z"/>
      <path d="M1286.91,810.81v11.96c0,1.09,.29,1.93,.86,2.5,.57,.57,1.31,.86,2.22,.86s1.79-.31,2.56-.94c.77-.63,1.35-1.53,1.72-2.7v-11.68h4.44v18.4h-3.44l-.24-2.56h-.16c-.29,.61-.67,1.11-1.12,1.5s-.95,.69-1.5,.92c-.55,.23-1.11,.39-1.7,.48-.59,.09-1.16,.14-1.72,.14-.88,0-1.7-.11-2.46-.32s-1.43-.57-2-1.06c-.57-.49-1.03-1.15-1.36-1.96-.33-.81-.5-1.82-.5-3.02v-12.52h4.4Z"/>
      <path d="M1316.15,829.21v-12.16c0-2.19-.87-3.28-2.6-3.28-.43,0-.89,.08-1.38,.24-.49,.16-.97,.39-1.44,.7s-.89,.69-1.28,1.14c-.39,.45-.66,.97-.82,1.56v11.8h-4.4v-18.4h3.44l.2,2.72h.16c.53-1.12,1.38-1.95,2.54-2.5,1.16-.55,2.39-.82,3.7-.82s2.39,.25,3.42,.74c1.03,.49,1.79,1.34,2.3,2.54,.53-1.09,1.38-1.91,2.52-2.46s2.37-.82,3.68-.82c.85,0,1.66,.11,2.42,.34s1.43,.59,2,1.1c.57,.51,1.03,1.17,1.36,2,.33,.83,.5,1.84,.5,3.04v12.52h-4.4v-12.16c0-2.19-.87-3.28-2.6-3.28-.43,0-.89,.08-1.38,.24-.49,.16-.97,.39-1.44,.7s-.89,.69-1.28,1.14c-.39,.45-.66,.97-.82,1.56v11.8h-4.4Z"/>
      <path d="M1395.74,817.13l1.56-14.52h13.56v4.2h-9.84l-.6,6.32c.56-.16,1.15-.27,1.76-.34s1.17-.1,1.68-.1c1.23,0,2.35,.18,3.36,.54,1.01,.36,1.89,.89,2.64,1.58,.75,.69,1.33,1.54,1.74,2.54s.62,2.14,.62,3.42-.2,2.38-.6,3.46c-.4,1.08-1.01,2.03-1.82,2.84-.81,.81-1.83,1.45-3.06,1.92-1.23,.47-2.67,.7-4.32,.7s-3.13-.23-4.5-.7c-1.37-.47-2.58-1.13-3.62-1.98l1.16-3.8c.4,.37,.86,.71,1.38,1.02,.52,.31,1.08,.57,1.68,.8s1.21,.41,1.84,.54,1.25,.2,1.86,.2c.67,0,1.31-.09,1.94-.26,.62-.17,1.17-.45,1.64-.82,.46-.37,.84-.86,1.12-1.46,.28-.6,.42-1.33,.42-2.18,0-.64-.08-1.23-.24-1.76s-.43-.99-.8-1.36c-.38-.37-.88-.67-1.5-.88-.63-.21-1.42-.32-2.38-.32-.83,0-1.73,.08-2.72,.24s-1.92,.41-2.8,.76l-1.16-.6Z"/>
      <path d="M1416.29,826.85c0-.37,.07-.73,.22-1.08,.15-.35,.35-.66,.62-.94,.27-.28,.57-.5,.9-.66s.7-.24,1.1-.24c.37,0,.73,.08,1.08,.24s.66,.38,.94,.66c.28,.28,.5,.59,.66,.94,.16,.35,.24,.71,.24,1.08,0,.4-.08,.77-.24,1.1-.16,.33-.38,.63-.66,.9-.28,.27-.59,.47-.94,.62s-.71,.22-1.08,.22c-.77,0-1.44-.28-2-.84-.56-.56-.84-1.23-.84-2Z"/>
      <path d="M1458.37,829.21h-5l-3-7.68h-9.96l-2.72,7.68h-4.8l10.24-26.4h3.96l11.28,26.4Zm-16.68-11.28h7.24l-3.8-9.72-3.44,9.72Z"/>
      <path d="M1470.81,829.69c-1.44,0-2.63-.29-3.58-.88-.95-.59-1.79-1.29-2.54-2.12h-.16l-.32,2.52h-3.52v-29.6h4.36v13.04c.61-.77,1.43-1.37,2.44-1.8,1.01-.43,2.16-.64,3.44-.64,1.39,0,2.6,.27,3.64,.8,1.04,.53,1.91,1.24,2.6,2.12s1.21,1.9,1.54,3.06c.33,1.16,.5,2.37,.5,3.62,0,1.41-.2,2.72-.6,3.92-.4,1.2-.97,2.24-1.7,3.12-.73,.88-1.62,1.57-2.66,2.08-1.04,.51-2.19,.76-3.44,.76Zm-.56-3.32c.77,0,1.45-.19,2.02-.56,.57-.37,1.05-.86,1.44-1.46,.38-.6,.67-1.29,.86-2.08,.19-.79,.28-1.58,.28-2.38s-.1-1.62-.3-2.38c-.2-.76-.51-1.43-.92-2.02-.41-.59-.93-1.05-1.56-1.38-.63-.33-1.35-.5-2.18-.5-.77,0-1.57,.18-2.4,.54-.83,.36-1.64,1.03-2.44,2.02v7.68c.29,.4,.65,.75,1.08,1.06,.43,.31,.87,.57,1.34,.78,.46,.21,.94,.38,1.42,.5,.48,.12,.93,.18,1.36,.18Z"/>
      <path d="M1493.89,810.21c1.44,0,2.68,.27,3.72,.82,1.04,.55,1.9,1.27,2.58,2.18,.68,.91,1.18,1.95,1.5,3.14,.32,1.19,.48,2.42,.48,3.7s-.17,2.55-.5,3.72c-.33,1.17-.85,2.2-1.54,3.08-.7,.88-1.56,1.57-2.6,2.08-1.04,.51-2.28,.76-3.72,.76-1.2,0-2.31-.17-3.34-.52-1.03-.35-1.85-.91-2.46-1.68v12.12h-4.36v-28.8h3.52l.32,2.52h.16c.35-.43,.76-.83,1.24-1.22s1-.72,1.56-1,1.13-.5,1.72-.66,1.16-.24,1.72-.24Zm-.72,3.36c-.4,0-.84,.06-1.32,.18-.48,.12-.95,.29-1.42,.52-.47,.23-.91,.5-1.34,.82s-.79,.68-1.08,1.08v7.8c.8,.99,1.62,1.61,2.46,1.86,.84,.25,1.61,.38,2.3,.38,.88,0,1.63-.16,2.26-.48,.63-.32,1.15-.75,1.56-1.3,.41-.55,.72-1.19,.92-1.92,.2-.73,.3-1.53,.3-2.38,0-.8-.09-1.59-.26-2.38-.17-.79-.46-1.49-.84-2.1-.39-.61-.88-1.11-1.46-1.5s-1.28-.58-2.08-.58Z"/>
      <path d="M1517.17,814.81c-.27-.21-.68-.39-1.24-.52-.56-.13-1.04-.2-1.44-.2-.53,0-.97,.13-1.32,.38-.35,.25-.65,.59-.92,1-.27,.41-.49,.89-.68,1.42-.19,.53-.36,1.08-.52,1.64v10.68h-4.4v-18.4h3.44l.2,3.84h.16c.27-.56,.55-1.11,.84-1.64,.29-.53,.62-1.01,1-1.42,.37-.41,.8-.75,1.3-1,.49-.25,1.07-.38,1.74-.38,1.07,0,2.07,.35,3,1.04l-1.16,3.56Z"/>
      <path d="M1532.62,829.21l-.32-2.52h-.16c-.72,.91-1.7,1.63-2.94,2.18-1.24,.55-2.5,.82-3.78,.82-1.68,0-3-.49-3.96-1.46-.96-.97-1.44-2.26-1.44-3.86,0-1.09,.23-2.07,.7-2.94,.47-.87,1.14-1.6,2.02-2.2,.88-.6,1.93-1.06,3.16-1.38,1.23-.32,2.6-.48,4.12-.48h1.72v-.6c0-1.04-.33-1.8-1-2.28-.69-.48-1.77-.72-3.24-.72-1.97,0-3.73,.44-5.28,1.32l-.84-3.32c1.79-1.04,3.95-1.56,6.48-1.56,2.67,0,4.69,.55,6.08,1.64,.64,.51,1.17,1.16,1.58,1.96,.41,.8,.62,1.76,.62,2.88v12.52h-3.52Zm-5.48-3.08c.85,0,1.71-.21,2.56-.62,.85-.41,1.53-.97,2.04-1.66v-3.64h-.76c-2.19,0-3.78,.28-4.78,.84-1,.56-1.5,1.45-1.5,2.68,0,1.6,.81,2.4,2.44,2.4Z"/>
      <path d="M1546.1,829.21h-4.4v-29.6h4.4v29.6Z"/>
      <path d="M1556.49,829.21h-4.4v-29.6h4.4v29.6Z"/>
    </g>
  </g>
</svg>