<?xml version="1.0" encoding="UTF-8"?>
<svg id="Ebene_2" data-name="Ebene 2" xmlns="http://www.w3.org/2000/svg" viewBox="0 0 875 529.1">
  <defs>
    <style>
      .cls-1 {
        fill: #ff6b35;
      }
    </style>
  </defs>
  <g id="Ebene_1-2" data-name="Ebene 1">
    <path class="cls-1" d="M793.2,468.3V42.2c0-11.5-4.2-21.8-10.9-28.5-5.7-8.3-14.5-13.7-24.2-13.7H112.7c-17,0-30.9,16.8-30.9,37.4V463.5c0,1.6,0,3.2,.2,4.8H0v18.6c0,10.1,4.2,19.2,10.7,26,6.9,9.9,18.4,16.2,31.5,16.2H836.6c21.2,0,38.4-16.6,38.4-37.4v-23.4h-81.8ZM437.4,6.9c6.1,0,11.1,5,11.1,11.1s-5,10.9-11.1,10.9-10.9-5-10.9-10.9,5-11.1,10.9-11.1Zm56.5,476.3h-116.7v-11.3h116.7v11.3Zm268.2-43H109V37.4H762.1V440.2Z"/>
  </g>
</svg>