<?xml version="1.0" encoding="UTF-8"?>
<svg id="Ebene_2" data-name="Ebene 2" xmlns="http://www.w3.org/2000/svg" viewBox="0 0 1000 886.5">
  <defs>
    <style>
      .cls-1 {
        fill: #ff6b35;
      }
    </style>
  </defs>
  <g id="Ebene_1-2" data-name="Ebene 1">
    <path class="cls-1" d="M976.4,553.3c-5.9,.6-10-.6-13.2-6.8-41.6-81.1-83.5-162-125.2-242.9-1-1.8-1.7-3.8-2.6-6.1,17.9-3.3,34.6-8.8,50.7-16,21.8-9.6,31-32.2,22.1-53.4-9-21.5-32.5-31.7-54.4-21.6-37.7,17.3-74.2,17.4-110.3-3.9-2.4-1.4-5-2.4-7.5-3.6-54.7-27.6-113.3-40-174.1-43.7-11.4-.7-22.9-1.3-34.4-2,30.2-11.2,51.8-40,51.8-74,0-43.8-35.5-79.3-79.3-79.3s-79.3,35.5-79.3,79.3c0,33.9,21.5,62.6,51.5,73.9-9.1,.6-18.1,1.2-27.2,1.7-69.2,3.2-135,18.8-196.4,51.4-33.2,17.7-66.3,16.7-99.9,1.3-22.8-10.4-46.6-2-56.4,19.2-9.8,21.1-.5,44.2,22.3,55.3,15.7,7.5,32.3,12.3,50.4,15.4-2.1,4.2-4,7.8-5.8,11.5-40.1,77.6-80.2,155.1-119.9,232.9-4.3,8.4-9,13.2-18.8,11.4-9.4-1.8-16,2.3-20.5,10.3v6.3c16.1,56.6,58.3,85.9,110.6,102.6,70.4,22.6,140.1,19.6,207.7-11.4,25.3-11.6,47-28.1,63.3-51.1,8.3-11.7,14.3-24.5,16.9-38.7,2-10.7-3.5-19.1-14-17.7-15,2-20.7-5.4-26.8-17.4-38.3-75.3-77.5-150.2-116.4-225.3-6.5-12.7-6.5-12.4,7.4-14.3,29.3-4,57.3-13,84.8-23.6,28-10.9,56-22.3,86.4-25.3,13.5-1.4,13.5-1.8,13.5,12.2,0,160.6-.1,321.3,.1,482,0,7.5-.5,11-9.8,12.1-29.6,3.4-53.6,28.5-56.5,58.1-.8,7.6-3.8,8-9.6,7.9-18.8-.2-37.5-.1-56.2-.1-39.6,0-67.2,27-68.1,66.6H766.7c-.9-36.8-29.9-65.5-67.7-66.5-19.1-.4-38.2-.2-57.3,0-5.7,.1-8.1-.7-8.8-7.6-3.2-30.7-27.8-55.4-58.3-58.8-6.1-.6-8.1-1.8-8.1-8.3,.2-163.5,.2-327,0-490.5-.1-7.8,3.2-8.2,9.2-7.7,26.2,2.3,50.8,10.3,75.1,19.8,34.8,13.6,69.8,27,107.5,30.4,10.1,.9,4,6.4,2.3,9.8-28.1,54.5-56.4,108.9-84.6,163.4-13,25.2-26.3,50.3-39,75.7-2.8,5.4-6,7.9-12.1,7.1-3-.4-6.2-.2-9.3,0-10.8,.4-16.2,7.3-14.1,17.9,5.9,29.5,23.4,51.4,46.5,69.2,31.8,24.6,68.6,37.5,107.9,43.1,56.1,7.9,110.7,2.3,162.4-22.4,28-13.3,51.9-31.8,68.4-58.8,6.2-10.1,9.1-21.5,13.3-32.4v-6.3c-5-9.9-13.8-11.4-23.6-10.3h0Zm-677-.9H100.6c33.2-62.1,65.7-123.1,99.4-186.3,33.5,62.9,66.1,124,99.4,186.3Zm401.1,.3c33.2-62.3,65.8-123.5,99.5-186.6,33.6,63.1,66.3,124.3,99.5,186.6h-199Z"/>
  </g>
</svg>