<?xml version="1.0" encoding="UTF-8"?>
<svg id="Ebene_2" data-name="Ebene 2" xmlns="http://www.w3.org/2000/svg" viewBox="0 0 572.13 875.01">
  <defs>
    <style>
      .cls-1 {
        fill: #ff6b35;
      }
    </style>
  </defs>
  <g id="Ebene_1-2" data-name="Ebene 1">
    <path class="cls-1" d="M554.31,502.11h-50.9c-3,0-5.5-2.4-5.8-5.3-.7-9.9-1.4-18.7-2-27.4-.2-3-2.8-5.3-5.8-5.3h-128.6c-3,0-5.5,2.4-5.6,5.3-.4,9.6-.9,18.6-1.3,28-.2,3-2.6,5.3-5.6,5.3h-115.7c-3,0-5.5-2.4-5.6-5.3-.4-9.5-.9-18.5-1.2-27.9-.1-3-2.6-5.3-5.6-5.3H91.11c-3,0-5.5,2.4-5.7,5.3-.5,10-1.1,19.4-1.8,30.3-.2,3-2.7,5.3-5.7,5.3H17.71c-3,0-5.3,2.4-5.3,5.3v359.3c0,3,2.4,5.3,5.3,5.3H554.21c3,0,5.3-2.4,5.3-5.3V507.41c.1-2.9-2.2-5.3-5.2-5.3h0Zm-8.5-63.5l26.3-361.3c.2-3-2-5.5-5-5.8l-50.8-3.7c-3-.2-5.3-2.8-5.3-5.8v-27.4c0-3-2.4-5.5-5.3-5.8l-128.4-9.2c-3-.2-5.6,2-6,4.9-1.1,9.5-2.2,18.5-3.3,27.8-.4,3-3.1,5.2-6,4.9l-115.3-8.4c-3-.2-5.3-2.8-5.3-5.8,.3-9.5,.5-18.6,.8-27.9,.1-3-2.2-5.5-5.2-5.8L107.81,.01c-3-.2-5.7,2-6,4.9-1.3,9.9-2.5,19.3-3.9,30-.4,3-3.1,5.2-6,4.9l-60-4.4c-3-.2-5.5,2-5.8,5L.01,398.71c-.2,3,2,5.5,5,5.8l535,38.9c3,.4,5.6-1.8,5.8-4.8h0Z"/>
  </g>
</svg>