<?xml version="1.0" encoding="UTF-8"?>
<svg id="Ebene_2" data-name="Ebene 2" xmlns="http://www.w3.org/2000/svg" viewBox="0 0 875 545.51">
  <defs>
    <style>
      .cls-1 {
        fill: #ff6b35;
      }
    </style>
  </defs>
  <g id="Ebene_1-2" data-name="Ebene 1">
    <path class="cls-1" d="M272.7,0C120.4,.6-.2,122.3,0,275.3c.2,148.6,124,271,273.4,270.2,152.8,.5,274.4-126.3,272.6-276.4C544.2,120.7,422-.7,272.7,0Zm.4,454.4c-101.4-.1-181.4-80.6-181.4-182.5S172.5,91,273.6,91.1c100.5,.1,181.4,81.3,181.2,181.9-.2,100.4-81.3,181.5-181.7,181.4h0ZM874.8,85.3c-1.3-35.7-27.2-62.1-61.1-62.8-33.8-.7-61,23.6-63.3,58.8-1.6,25.1-1.1,50.3-.7,75.5,.4,21.8,9.3,39.9,28.1,51.7,6.3,3.9,7.4,8.3,7.4,14.8-.2,60.1-.1,120.2-.1,180.3v89.6c0,11.6,4,21.2,14.8,26.7,19.2,9.9,39.1-3.7,39.1-27,.1-90,.1-179.9-.1-269.9,0-6.7,1.6-10.9,7.7-14.7,16.5-10.4,26.1-25.7,27.2-45.3,.8-14,.2-28,.2-42h.8c.1-12,.4-23.9,0-35.7h0Zm-166.6-62.5c-7.2-.3-9.5,4.8-9.5,11.6,.1,24.8,0,49.7,0,74.5v20.2h-17.5V37.7c0-6.8-.4-14.4-8.8-14.7-9.6-.3-9.4,7.9-9.4,14.9V117.8c0,3.8-.5,7.6-.7,11.1h-17.2c0-31.6-.1-62.1,0-92.7,0-6.6-.6-13.2-8.8-13.4s-9,6.3-8.9,13c.1,27.4,.1,54.7,.1,82.1v11.5h-18.3V36.6c0-6.4-.3-13.6-8.4-13.7-8.5-.2-9.8,6.9-9.8,13.9,0,38.9-.3,77.8,.1,116.6,.2,23.3,9,42.9,29.3,55.6,5.8,3.6,7.2,7.4,7.2,13.7-.2,58-.1,115.9-.1,173.9,0,33.1-.1,66.2,0,99.3,.1,14.4,10.4,25.7,24.2,27,13,1.3,25.4-7.8,28.3-21.4,1.1-4.9,1.2-10,1.2-15,.1-87.5,.1-174.9-.1-262.4,0-7.5,1.6-12.2,8.3-16.6,17-11.1,26.4-27.5,26.7-47.9,.5-41.7,.2-83.5,.3-125.3,0-5.9-1.5-11.2-8.2-11.5h0ZM272.9,102.1c-93.9,0-170.2,76.2-170.2,169.9s75.6,171.1,170,171.3c93.2,.2,170.9-76.3,171-168.3,.1-96.4-75.5-172.9-170.8-172.9h0Z"/>
  </g>
</svg>