<?xml version="1.0" encoding="UTF-8"?>
<svg id="Ebene_2" data-name="Ebene 2" xmlns="http://www.w3.org/2000/svg" viewBox="0 0 875.09 761.5">
  <defs>
    <style>
      .cls-1 {
        fill: #ff6b35;
      }
    </style>
  </defs>
  <g id="Ebene_1-2" data-name="Ebene 1">
    <path class="cls-1" d="M120.65,625c-30.9,8.9-44.8-5.2-48.5-47.7-13.8,5.6-18.9,16.9-21,30.1-.8,5.2,.1,10.5-.3,15.7-.3,3.8,3,9.2-1,11.1-4.3,1.9-8-2.8-11.1-5.7-10.7-10.1-11.5-22.4-8.1-35.8,2.6-10.1,8.7-18.2,13.6-27-14-5.9-16.8-4.8-43.3,17.4-2.9-12.5,1-22.3,9.7-30.6,16.1-15.5,36.7-22.1,57.7-26.6,11.5-2.4,16.7-7.2,20.3-18.9,17.6-56.2,58.8-85.9,114.4-98.4,18.3-4.1,36.7-5.7,55.5-5.6,6.4,.1,9.6-.4,7.2-8.5-18.4-61.3-42.4-120.4-70.9-177.7-3.2-6.6-8.1-5.4-13.2-5.2-19.8,.8-37.9-3.2-52.5-17.5-14.4-14-16.6-33.7-6.3-53.6,9.2-17.8,27-26.3,46.7-22.3,16.3,3.3,31.1,9.4,41.3,23.3,3.7,5,6.9,3.8,11.3,2.3,56.5-19.7,114.3-35.1,173.4-44.8,74.8-12.3,149.6-17.6,224.2,.8,7.5,1.8,10.9-2.1,15.1-6.8,22.4-24.7,54.6-22.7,72,4.3,12.9,19.9,7.3,42.9-15.8,58.4-7.7,5.2-9.1,9.6-7.3,18.3,12.5,63.3,3.8,124.8-16,185.2-3.4,10.3-6.5,20.9-11.3,30.7-4.5,9.3,1.1,10.1,7.3,11.5,29.1,6.5,56.3,17.8,80.6,35.1,38.1,27.2,58.2,64.4,60.2,111,.3,8.4,3.6,11.8,10.7,15,17.4,7.9,33.8,17.7,46.8,32,10.5,11.5,17.2,24.3,10.1,40.8-5.2-1.1-5.4-5.9-7.5-9-4.2-6-8.8-11.6-15.1-15.6-4.3-2.7-9.8-4.7-13.7-2.4-5.2,3.1,.3,7.9,1.3,11.5,9.2,30,.7,48.4-27.9,56.4,7.5-22,15.8-43.7-4.9-62.7-19.4,43.2-31.3,50.6-59,35.5,6.2-3.4,12.2-6.1,17.6-9.8,11.6-7.9,19.8-17.8,18.7-33.1-.7-10.5-4.6-19-14.7-23.2-10.7-4.4-19.9-1.1-27.5,6.8-4.1,4.4-7.3,9.6-10.8,14.4-14.9-18.9-8.7-38.2,14.4-45.1,11.1-3.2,22.5-3.1,33.8-2.6,7,.3,9-2.1,9.4-8.8,1.9-32.8-13.7-56.8-38.4-75.7-30.4-23.4-66.4-34.4-103.4-42.6-5-1.1-6.5,1.4-8.2,4.8-43.1,83.8-102.9,154.1-170.9,218.2-3.6,3.4-6.7,5.5-2.5,11.7,13.6,20,14.2,28.3,5.8,54.1,18.8-5.9,36.7-11.6,55.3-13.8,19.9-2.3,39.5-2.2,58.6,5.2,20.1,7.8,33.2,22.4,41,42.2,2.5,6.3,2.5,9.5-5.9,9.5-61.6-.2-123.3-.3-184.9,.1-9.1,.1-10.1-4.2-9-11.3,1.7-11,5.6-21,12.4-29.9,9.5-12.6,15.6-26.4,14.1-42.7-.9-10.3-5.2-17.2-15.8-20.1-32.5-9-65.6-12.8-99.5-12.8-36,0-72.8,46.3-49.4,85.2,16.5,27.6,13.4,31.6-17.8,31.6-53.5,0-107-.3-160.5,.2-10.5,.1-11.5-2.8-7.6-11.6,15.1-33.9,53.4-52.5,94.5-45.7,15.2,2.5,30.2,5.9,44.5,11.4,6.4,2.4,8.7,2.4,9.7-5.6,3.9-34.7,19.2-61.4,54.4-73.1,4.7-1.6,5.9-4.4,5.6-9.1-3.7-62.8-14.1-124.5-29.5-185.4-1-4-2.3-7.1-7.8-7.3-38.8-1-77,1.7-112.9,17.9-25.4,11.5-44.6,29.1-52.6,57-4,14-2.9,15.3,10.8,18.9,8.1,2.2,16.4,4.5,24.1,8.2,23.9,11.3,26.6,30.2,6.9,49.3-1.7-4.5-3.1-8.9-5.2-13.1-6.4-13.7-18.2-19.9-30.1-16.2-12.2,3.8-20.6,18.3-18.4,32,1.9,12.3,9.2,21.3,18.5,29,2.4,1.7,4.8,3.7,8.5,6.9h0Zm251.6-213.8c6.5-.3,12.9-.4,19.4-1,45.3-3.7,89.6-13,133.5-24.1,31.7-8,63-17.8,91.3-34.9,27.1-16.4,32.5-39.2,14.9-65.4-4.8-7.1-10.8-13.1-17.4-18.5-3.1-2.5-5.2-4.6-4.5-9.9,2.7-20.2-7.1-35.6-25.3-41.5-17.3-5.6-33.3,1.1-43.4,19.5-2.8,5.1-5.8,5.7-10.4,5.6-22.7-.4-45.3,2-67.4,7.1-9.1,2.1-12.5,.1-16.3-8.9-16.8-40.3-63.7-58.1-103.3-40.4-40.1,17.9-59.3,65-39.1,103.3,8.9,17,10,29.7,3.7,47.9-11.3,32.5,3.7,52.7,37.8,58.5,8.8,1.9,17.6,2.7,26.5,2.7h0ZM398.05,0c9.1,11.1,17.5,21.3,26.1,31.8,8.2-7.6,16.1-14.6,23.6-21.9,3.7-3.5,6-4.5,8.7,1,8,15.8,16.2,31.6,24.6,47.2,3.4,6.4,.7,7.3-5.1,7.3-47.1,.8-93,8.8-139.7,22,3.1-22.7,6.1-44.4,9.4-67.8,8,5,15.5,8.8,22,13.8,7.8,5.9,12.5,6.2,16.4-4.2C387.55,19.7,392.95,10.7,398.05,0h0Zm35.3,268.3c4.5,35.3-32.6,59.6-55,59.4-34.5-.3-62.7-28.8-64.9-61.8-1.8-28.3,34.2-56.7,68.2-56.3,16.6,.2,31.8,5.7,40.7,20.1,6.9,11.4,10.4,24.8,11,38.6h0Zm-102.6,.3c-.3,21,19.1,40.8,40.1,41,20.1,.3,47.8-20.6,47.5-35.8-.4-27.4-19.9-46.8-47.1-46.8-24.3,0-40.2,16.3-40.5,41.6h0Zm50.6,97.8c63-21,127.5-33.1,193.6-37.5-8.2,3.2-18.1,2.1-20.1,15.3-1.1,7.3-8.4,4.1-11.5-1-7.6-12.5-17.2-1.8-25.8-2.5-7.5-.6-6.6,5.2-6.9,9.9-.2,3-1.7,5.5-4.5,6.6-3.9,1.5-6.3-1.2-7.9-4-3-5.2-5.9-10.1-13-6.6-7.9,3.9-21.6-2.7-23.4,12.7-.3,3.3-2.6,6.2-5.8,7.3-3.8,1.3-6.5-2-7.7-4.5-6.1-12.9-15.5-2.8-23.2-3.3-5.8-.4-10.1,2.3-9.9,10.1,.2,5.2-6.8,10.6-9.5,5.4-6.2-11.8-14.9-9.1-24.4-7.9h0Zm194.9-140c12.4,.3,22.5,11,22.2,24-.2,12.6-12.6,24.7-25.3,24.6-11.8-.1-24.6-13-24.1-24.4,.8-13.3,13.4-24.5,27.2-24.2h0Zm-1.5,41.6c9.2-.1,16.6-7,16.8-15.7,.2-10-8.4-19-18-19s-17.1,7.9-16.7,17.1c.4,10,8.3,17.8,17.9,17.6Z"/>
  </g>
</svg>