<?xml version="1.0" encoding="UTF-8"?>
<svg id="Ebene_2" data-name="Ebene 2" xmlns="http://www.w3.org/2000/svg" viewBox="0 0 864.09 1000.2">
  <defs>
    <style>
      .cls-1 {
        fill: #ff6b35;
      }
    </style>
  </defs>
  <g id="Ebene_1-2" data-name="Ebene 1">
    <path class="cls-1" d="M859.1,626.6c-3.4-9.4-8.6-17.7-15-25.2-11.3-45.4-33.5-97.6-65.9-149.3-51.9-82.9-189.3-216.5-241.5-237.1-2.6-1-4.9-1.6-7.1-2.2-1.8-12.9-9.1-24.8-26.3-33-26.9-12.6-53.5-25-78.4-33.6C394.9,61.3,313.9,0,218.7,0,98.1,0,0,98.1,0,218.7s98.1,218.7,218.7,218.7c99.3,0,183.2-66.6,209.8-157.4,19.9-3,37-2,46.6,12.4,26.8,39.9,56.4,172.7,105.5,257.6-12.4-1.7-25.2-2.6-38.4-2.6-56.7,0-107.6,16.6-143.6,43.2-30.8-48.1-84.6-80-145.9-80-81.2,0-149.1,55.9-167.9,131.4l-7.5,.1,4.3,358.1,88.6-1.5,32.1-56.9c55.8-21.4,121.8-76.7,167.7-135.6,62.2,9.1,140.6,14.3,172.2,14.3,34.2,0,163.6-15.1,200.5-28.6,86.1-31.8,138.3-105.6,116.4-165.3ZM218.7,282.8c-35.4,0-64.1-28.7-64.1-64.1s28.7-64,64.1-64,64.1,28.7,64.1,64-28.8,64.1-64.1,64.1Z"/>
  </g>
</svg>