<?xml version="1.0" encoding="UTF-8"?>
<svg id="Ebene_2" data-name="Ebene 2" xmlns="http://www.w3.org/2000/svg" viewBox="0 0 875 836.1">
  <defs>
    <style>
      .cls-1 {
        fill: #ff6b35;
      }
    </style>
  </defs>
  <g id="Ebene_1-2" data-name="Ebene 1">
    <path class="cls-1" d="M848.7,0h-76.8c-14.5,0-26.3,11.8-26.3,26.3V103.1c0,14.5,11.8,26.3,26.3,26.3h76.8c14.5,0,26.3-11.8,26.3-26.3V26.3c0-14.5-11.8-26.3-26.3-26.3Zm-76.6,317.4v-100.7c0-14.5-11.8-26.3-26.3-26.3h-100.7c-14.5,0-26.3,11.8-26.3,26.3v100.7c0,14.5,11.8,26.3,26.3,26.3h100.7c14.5,0,26.3-11.8,26.3-26.3Zm-242.7,342.9h-101c-14.5,0-26.3,11.8-26.3,26.3v100.7c0,14.5,11.8,26.3,26.3,26.3h101c14.5,0,26.3-11.8,26.3-26.3v-100.8c0-14.5-11.8-26.2-26.3-26.2Zm277.9-277.3h-100.6c-14.5,0-26.3,11.8-26.3,26.3v100.7c0,14.5,11.8,26.3,26.3,26.3h100.7c14.5,0,26.3-11.8,26.3-26.3v-100.8c-.1-14.5-11.9-26.2-26.4-26.2Zm-240.9,0h-166.4c-14.5,0-26.3,11.8-26.3,26.3v166.3c0,14.5,11.8,26.3,26.3,26.3h166.3c14.5,0,26.3-11.8,26.3-26.3v-166.4c0-14.5-11.7-26.2-26.2-26.2h0Zm-375.7-45.1h212.1c14.5,0,26.3-11.8,26.3-26.3V99.5c0-14.5-11.8-26.3-26.3-26.3H190.7c-14.5,0-26.3,11.8-26.3,26.3v212.1c.1,14.5,11.8,26.3,26.3,26.3Zm112,169.2H26.3c-14.5,0-26.3,11.8-26.3,26.3v276.4c0,14.5,11.8,26.3,26.3,26.3H302.7c14.5,0,26.3-11.8,26.3-26.3v-276.4c0-14.5-11.8-26.3-26.3-26.3ZM632.3,146.8V45.8c0-14.5-11.8-26.3-26.3-26.3h-100.7c-14.5,0-26.3,11.8-26.3,26.3v101c0,14.5,11.8,26.3,26.3,26.3h100.7c14.5,0,26.3-11.8,26.3-26.3Z"/>
  </g>
</svg>