<?xml version="1.0" encoding="UTF-8"?>
<svg id="Ebene_2" data-name="Ebene 2" xmlns="http://www.w3.org/2000/svg" viewBox="0 0 875 833.1">
  <defs>
    <style>
      .cls-1 {
        fill: #ff6b35;
      }
    </style>
  </defs>
  <g id="Ebene_1-2" data-name="Ebene 1">
    <path class="cls-1" d="M0,0V578.6c0,38.1,29.2,68.9,65.3,68.9H809.7c36.1,0,65.3-30.8,65.3-68.9V0H0ZM810.7,517.9c0,32.5-24.9,58.7-55.7,58.7H120c-30.8,0-55.7-26.3-55.7-58.7V134.4H810.7v383.5Zm-179.7,266.8l-175.1-166.1c-4.7-4.5-11-6.5-17.2-6.1l-1.2-.1-1.2,.1c-6.2-.4-12.5,1.7-17.2,6.1l-175,166.2c-8.8,8.3-8.8,21.9,0,30.2s23,8.3,31.9,0l139.1-132.1v128.8c0,11.8,10.1,21.4,22.5,21.4s22.5-9.5,22.5-21.4v-128.8l139.1,132.1c8.8,8.3,23,8.3,31.9,0,8.6-8.4,8.6-21.9-.1-30.3ZM275.9,354.3l149.2-19.7c-3.8-24.9-14.6-49-32.9-69.7-52.2-59-144.8-66.7-207-17.2s-70.3,137.5-18.1,196.5c51.6,58.4,142.8,66.5,204.9,18.7l-96.1-108.6h0Zm211.1-79h257.6v26.6H487v-26.6Zm.3,69.9h257.6v26.5H487.3v-26.5h0Zm0,69.8h164v26.5h-164v-26.5Z"/>
  </g>
</svg>