<?xml version="1.0" encoding="UTF-8"?>
<svg id="Ebene_2" data-name="Ebene 2" xmlns="http://www.w3.org/2000/svg" xmlns:xlink="http://www.w3.org/1999/xlink" viewBox="0 0 1200 790">
  <defs>
    <style>
      .cls-1, .cls-2 {
        fill: #fff;
      }

      .cls-3, .cls-4 {
        fill: #253c78;
      }

      .cls-2, .cls-5 {
        stroke-linecap: round;
        stroke-linejoin: round;
      }

      .cls-2, .cls-4 {
        stroke: #242c58;
      }

      .cls-6 {
        clip-path: url(#clippath);
      }

      .cls-7, .cls-5 {
        fill: none;
      }

      .cls-5 {
        stroke: #1d1d1b;
        stroke-width: 2px;
      }

      .cls-8 {
        fill: #ff6b35;
      }

      .cls-9 {
        fill: #7792d6;
      }

      .cls-10 {
        fill: #1d1d1b;
      }

      .cls-4 {
        stroke-miterlimit: 10;
        stroke-width: .25px;
      }
    </style>
    <clipPath id="clippath">
      <rect class="cls-7" width="1200" height="790"/>
    </clipPath>
  </defs>
  <g id="Ebene_1-2" data-name="Ebene 1">
    <g class="cls-6">
      <rect class="cls-3" y=".83" width="1200" height="790"/>
      <path class="cls-4" d="M224.53,158.55c-.15-1.58,.8-2.98,2.04-3.32,1.54-.42,3.45,.78,3.7,2.81"/>
      <path class="cls-4" d="M247.3,158.55c.15-1.58-.8-2.98-2.04-3.32-1.54-.42-3.45,.78-3.7,2.81"/>
      <rect class="cls-7" x="0" width="1200" height="790"/>
      <g>
        <path class="cls-1" d="M521.34,541.83c-3.78-30.11-6.65-53.56-8.43-68.17-3.58-29.49-5.32-44.47-9.18-66.33-2.72-15.42-5.39-27.98-7.23-36.24,19.96-1.37,36.42-3.15,48.57-4.67,13.22-1.65,20.27-2.83,28.27-4.85,6.85-1.73,13.63-4.26,28.42-9.7,50.64-18.63,60.05-30.14,75.06-23.74,0,0,5.74,2.45,29.11,26.81,0,0,10.37,4.08,11.49,4.6,5.44,2.51,7.9,20.38-5.36,88.09,.61,4.96,9.1,83.77-46.72,125.62-1.04,.78-2.71,2.04-4.96,3.58-6.6,4.52-39.87,26.99-78.53,17.11-17.14-4.38-28.47-13.37-33.7-17.62-15.24-12.36-23.1-26.5-26.81-34.47Z"/>
        <path d="M503.29,401.79c4.08,8.34,8.47,15.65,10.17,24.36,4.75,24.18,15.65,45.92,31.98,63.89,3.82,4.2,6.15,8.44,7.39,12.72,.04,.13,.15,.53,.27,1,1.79,7.12-.03,12.88-1.44,21.12-1.31,7.62-1.96,11.51-1.02,15.22,.89,3.49,2.72,6.8,5.65,10.18,9.01,10.48,18.03,20.89,30.51,27.53,14.43,7.74,34.66,6.4,50.98-6.33,13.34-10.41,23.33-23.75,32.58-37.76,1.64-2.44,.97-4.57,.49-6.88-.61-2.86-1.16-5.73-1.77-8.53-2.5-11.51,.91-20.65,8.77-29.66,15.71-18.09,26.19-39.16,31.06-62.73,1.77-8.53,6.27-15.59,11.02-23.14-.12,2.92,0,5.91-.43,8.83-4.51,30.09-1.1,59.81,4.26,89.29,2.25,12.12,6.21,24.06,11.08,35.57,2.86,6.7,9.68,6.58,14.92,8.71,18.94,7.55,37.34,16.08,54.75,26.8,15.77,9.68,23.75,24.42,29.36,41.05,8.77,25.95,16.44,52.2,21.68,79.18,5.73,29.6,7.98,59.32,6.27,89.41-.79,13.16-9.07,21.01-20.1,25.15-26.13,9.81-53.05,17.42-80.46,23.02-16.14,3.29-32.34,5.79-48.42,8.89-12.18,2.38-24.12,2.07-36.24,2.13-31.91,.24-63.89-.43-95.8,.24-30.7,.61-60.84-2.62-91.05-8.28-31.12-5.79-61.82-12.73-91.78-22.66-8.47-2.8-16.81-5.97-25.03-9.44-12.73-5.36-14.74-16.81-15.65-28.26-1.4-17.85,1.83-35.51,3.72-53.11,2.56-23.69,6.64-47.2,12.49-70.35,5.48-21.74,12.12-43.18,24.06-62.25,9.56-15.29,25.03-23.69,41.66-29.78,13.83-4.99,27.71-9.81,41.54-14.86,3.17-1.16,5.42-3.17,6.88-6.82,8.28-21.26,13.03-43.12,15.1-65.9,1.83-19.73,2.68-39.28-.24-58.96-.3-2.5-.85-5.18,.79-8.59h0Zm25.64-27.65c-8.28,0-16.57-.18-24.85,.06-5.54,.18-7.8-1.89-7.98-7.61-.49-14.13-1.46-28.38,.49-42.33,4.69-33.19,22.23-70.35,65.96-83.68,19.67-6.03,39.47-10.54,59.75-7.92,38.13,4.87,71.69,19.06,90.32,55.42,12,23.33,11.94,49.21,10.9,74.85-.06,2.31,.3,4.69-4.08,3.84-3.41-.67-3.96,3.78-4.51,6.33-.85,4.02-2.01,4.63-5.85,2.62-16.63-8.71-27.53-22.29-34.23-39.41-1.83-4.69-2.62-5.54-7.31-2.25-30.39,21.2-64.19,33.07-100.92,37.94-12.55,1.71-25.09,2.25-37.7,2.13h0Z"/>
        <path class="cls-2" d="M551.98,407.41c.15-4.71,9.59-7.64,11.49-8.23,11.64-3.61,26.17,.51,27.19,6.93,.71,4.45-5.16,9.56-9.57,11.7-12.48,6.03-29.31-4.02-29.11-10.4Z"/>
        <path class="cls-2" d="M627.94,407.41c.15-4.71,9.59-7.64,11.49-8.23,11.64-3.61,26.17,.51,27.19,6.93,.71,4.45-5.16,9.56-9.57,11.7-12.48,6.03-29.31-4.02-29.11-10.4Z"/>
        <path class="cls-5" d="M600.75,482.51c1.66-2.78,4.86-6.97,10.78-10.4,10.39-6.03,21.93-5.55,25.27-5.41,4.57,.19,8.18,.95,10.51,1.57"/>
        <circle class="cls-10" cx="571.51" cy="408.81" r="7.28"/>
        <circle class="cls-10" cx="648.31" cy="408.81" r="7.28"/>
        <path class="cls-5" d="M545.44,490.04c5.22,6.27,17.02,18.71,36.42,25.75,3.2,1.16,15.6,5.44,31.02,4.98,37.23-1.11,62.23-28.98,67.42-35.02"/>
        <path class="cls-5" d="M608.46,423.32c1.96,3.77,3.6,8.72,1.94,13.6-1.45,4.26-4.81,6.67-3.88,8.16,.59,.95,2.87,1.45,10.18-.45"/>
      </g>
      <path class="cls-8" d="M1138.27,280.69c30.06-35.63,41.3-76.7,30.16-122.34-9.96-40.87-35.44-70.98-70.55-92.9-42.26-26.34-88.51-35.4-137.77-29.2-47.59,6-88.94,25.01-121.05,61.22-31.82,35.82-44.02,77.65-32.63,124.72,4.57,18.77,11.15,37.06,12.29,56.6,1.48,24.2-1.86,47.4-13.72,68.93-1.81,3.29-3.86,6.43-5.91,9.77,.81,.29,1.19,.52,1.52,.48,31.35-4.14,60.98-13.29,87.66-30.68,2.52-1.67,4.53-2.62,7.81-1.05,41.3,19.34,84.56,25.01,129.44,17.01,44.69-8,83.27-27.54,112.76-62.55h0Z"/>
      <path class="cls-9" d="M65.58,280.69c29.49,35.02,68.08,54.55,112.76,62.55,44.88,8,88.13,2.33,129.44-17.01,3.29-1.57,5.29-.62,7.81,1.05,26.68,17.39,56.31,26.54,87.66,30.68,.33,.05,.71-.19,1.52-.48-2.05-3.33-4.1-6.48-5.91-9.77-11.86-21.53-15.2-44.73-13.72-68.93,1.14-19.53,7.72-37.83,12.29-56.6,11.39-47.07-.81-88.9-32.63-124.72-32.11-36.21-73.46-55.21-121.05-61.22-49.26-6.19-95.52,2.86-137.77,29.2-35.11,21.91-60.6,52.02-70.55,92.9-11.15,45.64,.1,86.7,30.16,122.34h0Z"/>
      <g>
        <path class="cls-1" d="M881.87,167.39h-2.73v10.44h-4.83v-27.83h6.68c1.57,0,3,.19,4.28,.56,1.29,.38,2.39,.94,3.32,1.69,.92,.75,1.64,1.67,2.14,2.77,.5,1.1,.76,2.37,.76,3.81,0,1.17-.2,2.27-.59,3.29-.39,1.03-.98,1.93-1.76,2.71-.78,.78-1.79,1.4-3,1.86-1.22,.46-2.64,.69-4.26,.69Zm-.21-13.44h-1.3c-.42,0-.83,.05-1.22,.15v9.22c.39,.03,.8,.04,1.24,.04h1.36c1.51,0,2.65-.42,3.42-1.25,.77-.84,1.15-2.05,1.15-3.64,0-1.34-.34-2.42-1.03-3.26-.69-.84-1.9-1.25-3.63-1.25Z"/>
        <path class="cls-1" d="M903.79,157.9c2.46,0,4.37,.62,5.71,1.87,1.34,1.25,2.02,3,2.02,5.27,0,.31-.02,.64-.06,.99-.04,.35-.1,.69-.17,1.03-.07,.34-.15,.64-.25,.9-.1,.27-.2,.48-.31,.65h-12.22c.06,.84,.21,1.63,.46,2.37,.25,.74,.62,1.39,1.09,1.93,.48,.55,1.06,.98,1.74,1.3,.69,.32,1.49,.48,2.42,.48,1.04,0,2.13-.2,3.3-.59,1.16-.39,2.15-.88,2.96-1.47l.76,3.44c-.36,.22-.81,.47-1.34,.74-.53,.27-1.13,.51-1.81,.73-.67,.22-1.39,.41-2.16,.57-.77,.15-1.57,.23-2.42,.23-1.57,0-2.95-.27-4.16-.82-1.2-.55-2.21-1.29-3.02-2.23-.81-.94-1.43-2.02-1.85-3.25-.42-1.23-.63-2.52-.63-3.86s.22-2.68,.65-3.93c.43-1.25,1.07-2.34,1.91-3.3,.84-.95,1.88-1.7,3.13-2.25,1.25-.55,2.67-.82,4.26-.82Zm-.13,3.61c-1.18,0-2.18,.34-3,1.03-.83,.69-1.42,1.62-1.78,2.79h8.02c.03-.08,.05-.18,.06-.29,.01-.11,.02-.25,.02-.42,0-.9-.31-1.64-.92-2.23-.62-.59-1.41-.88-2.39-.88Z"/>
        <path class="cls-1" d="M927.27,162.73c-.28-.22-.71-.41-1.3-.55-.59-.14-1.09-.21-1.51-.21-.56,0-1.02,.13-1.39,.4-.36,.27-.69,.62-.97,1.05-.28,.43-.52,.93-.71,1.49-.2,.56-.38,1.13-.55,1.72v11.21h-4.62v-19.32h3.61l.21,4.03h.17c.28-.59,.57-1.16,.88-1.72,.31-.56,.66-1.06,1.05-1.49,.39-.43,.85-.78,1.37-1.05,.52-.27,1.13-.4,1.83-.4,1.12,0,2.17,.36,3.15,1.09l-1.22,3.74Z"/>
        <path class="cls-1" d="M932.86,161.35h-2.39v-2.39l2.39-.38c0-1.6,.05-2.95,.15-4.07,.1-1.12,.23-2.06,.4-2.83,.17-.77,.36-1.39,.57-1.87,.21-.48,.43-.87,.65-1.18,.56-.73,1.29-1.25,2.21-1.58,.91-.32,1.91-.48,3-.48h.67c.31,0,.65,.03,1.03,.09,.38,.06,.77,.15,1.18,.29,.41,.13,.78,.3,1.11,.51l-1.05,3.57c-.28-.17-.74-.4-1.39-.69-.64-.29-1.27-.44-1.89-.44-.36,0-.67,.08-.92,.25-.25,.17-.46,.48-.63,.92-.17,.45-.29,1.05-.36,1.81-.07,.76-.1,1.72-.1,2.9v2.77h3.7v2.81h-3.7v16.51h-4.62v-16.51Z"/>
        <path class="cls-1" d="M953.31,157.9c1.71,0,3.18,.29,4.41,.86,1.23,.57,2.25,1.34,3.04,2.31,.8,.97,1.39,2.07,1.76,3.32,.38,1.25,.57,2.56,.57,3.93s-.19,2.67-.57,3.89c-.38,1.22-.97,2.28-1.76,3.19-.8,.91-1.81,1.63-3.02,2.16-1.22,.53-2.65,.8-4.31,.8s-3.18-.28-4.41-.84c-1.23-.56-2.25-1.31-3.07-2.25-.81-.94-1.41-2.02-1.81-3.25-.39-1.23-.59-2.53-.59-3.91s.2-2.67,.59-3.91c.39-1.23,.99-2.32,1.79-3.25s1.81-1.68,3.04-2.23,2.67-.82,4.33-.82Zm.08,16.97c.81,0,1.52-.17,2.12-.52,.6-.35,1.1-.83,1.49-1.43,.39-.6,.68-1.29,.86-2.08,.18-.78,.27-1.61,.27-2.48s-.1-1.76-.29-2.58c-.2-.83-.5-1.55-.9-2.18-.41-.63-.92-1.13-1.53-1.51-.62-.38-1.36-.57-2.23-.57-.81,0-1.51,.18-2.1,.52-.59,.35-1.07,.82-1.45,1.41-.38,.59-.66,1.27-.84,2.06-.18,.78-.27,1.61-.27,2.48s.09,1.76,.27,2.58c.18,.83,.48,1.56,.88,2.21,.41,.64,.92,1.16,1.53,1.53,.62,.38,1.34,.57,2.18,.57Z"/>
        <path class="cls-1" d="M978.81,162.73c-.28-.22-.71-.41-1.3-.55-.59-.14-1.09-.21-1.51-.21-.56,0-1.02,.13-1.39,.4-.36,.27-.69,.62-.97,1.05-.28,.43-.52,.93-.71,1.49-.2,.56-.38,1.13-.55,1.72v11.21h-4.62v-19.32h3.61l.21,4.03h.17c.28-.59,.57-1.16,.88-1.72,.31-.56,.66-1.06,1.05-1.49,.39-.43,.85-.78,1.36-1.05,.52-.27,1.13-.4,1.83-.4,1.12,0,2.17,.36,3.15,1.09l-1.22,3.74Z"/>
        <path class="cls-1" d="M995.98,177.85v-12.77c0-2.3-.91-3.44-2.73-3.44-.45,0-.93,.08-1.45,.25-.52,.17-1.02,.41-1.51,.73-.49,.32-.94,.72-1.34,1.2-.41,.48-.69,1.02-.86,1.64v12.39h-4.62v-19.32h3.61l.21,2.86h.17c.56-1.18,1.45-2.05,2.67-2.62,1.22-.57,2.51-.86,3.89-.86s2.51,.26,3.59,.78c1.08,.52,1.88,1.41,2.42,2.67,.56-1.15,1.44-2.01,2.65-2.58,1.2-.57,2.49-.86,3.86-.86,.9,0,1.74,.12,2.54,.36s1.5,.62,2.1,1.15c.6,.53,1.08,1.23,1.43,2.1,.35,.87,.52,1.93,.52,3.19v13.15h-4.62v-12.77c0-2.3-.91-3.44-2.73-3.44-.45,0-.93,.08-1.45,.25-.52,.17-1.02,.41-1.51,.73-.49,.32-.94,.72-1.34,1.2-.41,.48-.69,1.02-.86,1.64v12.39h-4.62Z"/>
        <path class="cls-1" d="M1030.3,177.85l-.34-2.65h-.17c-.76,.95-1.79,1.72-3.09,2.29-1.3,.57-2.62,.86-3.97,.86-1.76,0-3.15-.51-4.16-1.53-1.01-1.02-1.51-2.37-1.51-4.05,0-1.15,.25-2.18,.74-3.09,.49-.91,1.2-1.68,2.12-2.31s2.03-1.11,3.32-1.45c1.29-.34,2.73-.5,4.33-.5h1.81v-.63c0-1.09-.35-1.89-1.05-2.39-.73-.5-1.86-.76-3.4-.76-2.07,0-3.92,.46-5.54,1.39l-.88-3.49c1.88-1.09,4.14-1.64,6.8-1.64,2.8,0,4.93,.57,6.38,1.72,.67,.53,1.22,1.22,1.66,2.06,.43,.84,.65,1.85,.65,3.02v13.15h-3.7Zm-5.75-3.23c.9,0,1.79-.22,2.69-.65,.9-.43,1.61-1.01,2.14-1.74v-3.82h-.8c-2.3,0-3.97,.29-5.02,.88s-1.58,1.53-1.58,2.81c0,1.68,.85,2.52,2.56,2.52Z"/>
        <path class="cls-1" d="M1052.51,177.85v-12.77c0-2.3-.98-3.44-2.94-3.44-.48,0-.99,.08-1.53,.25s-1.07,.41-1.58,.73c-.5,.32-.96,.72-1.37,1.2-.41,.48-.71,1.02-.9,1.64v12.39h-4.62v-19.32h3.61l.21,2.86h.17c.59-1.18,1.5-2.05,2.75-2.62,1.25-.57,2.58-.86,4.01-.86,.92,0,1.79,.12,2.6,.36,.81,.24,1.53,.62,2.16,1.15,.63,.53,1.13,1.23,1.49,2.1,.36,.87,.55,1.93,.55,3.19v13.15h-4.62Z"/>
        <path class="cls-1" d="M1077.46,163.32c-.31-.22-.69-.45-1.15-.67-.46-.22-.96-.42-1.49-.59-.53-.17-1.09-.3-1.66-.4-.57-.1-1.11-.15-1.62-.15-.95,0-1.76,.18-2.42,.52-.66,.35-1.19,.81-1.6,1.39-.41,.57-.7,1.24-.88,1.99-.18,.76-.27,1.54-.27,2.35,0,.95,.11,1.84,.34,2.67,.22,.83,.56,1.55,1.01,2.16,.45,.62,1.01,1.11,1.7,1.47s1.48,.55,2.37,.55c1.01,0,2.08-.2,3.21-.61,1.13-.41,2.08-.97,2.83-1.7l.84,3.95c-.78,.5-1.86,.98-3.21,1.43-1.36,.45-2.81,.67-4.35,.67-1.62,0-3.04-.28-4.26-.84-1.22-.56-2.23-1.31-3.02-2.25-.8-.94-1.4-2.03-1.81-3.28-.41-1.25-.61-2.57-.61-3.97s.19-2.62,.57-3.84c.38-1.22,.97-2.3,1.79-3.23,.81-.94,1.85-1.68,3.11-2.23,1.26-.55,2.77-.82,4.54-.82,1.34,0,2.66,.15,3.95,.46,1.29,.31,2.32,.71,3.11,1.22l-1.01,3.74Z"/>
        <path class="cls-1" d="M1091.58,157.9c2.46,0,4.37,.62,5.71,1.87,1.34,1.25,2.02,3,2.02,5.27,0,.31-.02,.64-.06,.99-.04,.35-.1,.69-.17,1.03-.07,.34-.15,.64-.25,.9-.1,.27-.2,.48-.31,.65h-12.22c.06,.84,.21,1.63,.46,2.37,.25,.74,.62,1.39,1.09,1.93,.48,.55,1.06,.98,1.74,1.3,.69,.32,1.49,.48,2.42,.48,1.04,0,2.13-.2,3.3-.59s2.15-.88,2.96-1.47l.76,3.44c-.36,.22-.81,.47-1.34,.74s-1.13,.51-1.81,.73c-.67,.22-1.39,.41-2.16,.57-.77,.15-1.58,.23-2.42,.23-1.57,0-2.95-.27-4.16-.82s-2.21-1.29-3.02-2.23c-.81-.94-1.43-2.02-1.85-3.25-.42-1.23-.63-2.52-.63-3.86s.22-2.68,.65-3.93c.43-1.25,1.07-2.34,1.91-3.3,.84-.95,1.88-1.7,3.13-2.25,1.25-.55,2.67-.82,4.26-.82Zm-.13,3.61c-1.18,0-2.18,.34-3,1.03-.83,.69-1.42,1.62-1.79,2.79h8.02c.03-.08,.05-.18,.06-.29,.01-.11,.02-.25,.02-.42,0-.9-.31-1.64-.92-2.23-.62-.59-1.42-.88-2.39-.88Z"/>
        <path class="cls-1" d="M935.11,228.25h-4.83v-27.72h4.83v27.72Z"/>
        <path class="cls-1" d="M954.38,228.25v-12.77c0-2.3-.98-3.44-2.94-3.44-.47,0-.99,.08-1.53,.25-.55,.17-1.07,.41-1.58,.73-.5,.32-.96,.72-1.37,1.2s-.71,1.02-.9,1.64v12.39h-4.62v-19.32h3.61l.21,2.86h.17c.59-1.18,1.51-2.05,2.75-2.62,1.25-.57,2.58-.86,4.01-.86,.92,0,1.79,.12,2.6,.36,.81,.24,1.53,.62,2.16,1.15,.63,.53,1.13,1.23,1.49,2.1,.36,.87,.54,1.93,.54,3.19v13.15h-4.62Z"/>
        <path class="cls-1" d="M972.11,228.76c-1.32,0-2.52-.27-3.61-.8-1.09-.53-2.02-1.26-2.79-2.18s-1.36-2.02-1.79-3.28c-.42-1.26-.63-2.63-.63-4.12,0-1.32,.17-2.58,.53-3.8,.35-1.22,.89-2.29,1.62-3.21,.73-.92,1.63-1.67,2.71-2.23,1.08-.56,2.36-.84,3.84-.84,1.34,0,2.55,.22,3.61,.67,1.06,.45,1.92,1.08,2.56,1.89v-13.69h4.58v31.08h-3.7l-.34-2.65h-.17c-.78,.87-1.67,1.61-2.67,2.23s-2.25,.92-3.76,.92Zm.59-3.49c.45,0,.92-.06,1.43-.19s1-.3,1.49-.52c.49-.22,.96-.5,1.41-.82,.45-.32,.83-.69,1.13-1.11v-8.06c-.84-1.04-1.69-1.74-2.56-2.12-.87-.38-1.71-.57-2.52-.57-.9,0-1.67,.18-2.31,.52-.64,.35-1.18,.83-1.62,1.45-.43,.62-.76,1.32-.97,2.12-.21,.8-.32,1.63-.32,2.5s.1,1.67,.29,2.5c.2,.83,.49,1.55,.88,2.18,.39,.63,.9,1.14,1.51,1.53,.62,.39,1.33,.59,2.14,.59Z"/>
        <path class="cls-1" d="M997.31,208.3c2.46,0,4.37,.62,5.71,1.87,1.34,1.25,2.02,3,2.02,5.27,0,.31-.02,.64-.06,.99-.04,.35-.1,.69-.17,1.03-.07,.34-.15,.64-.25,.9-.1,.27-.2,.48-.31,.65h-12.22c.06,.84,.21,1.63,.46,2.37,.25,.74,.62,1.39,1.09,1.93,.48,.55,1.06,.98,1.74,1.3,.69,.32,1.49,.48,2.42,.48,1.04,0,2.13-.2,3.3-.59s2.15-.88,2.96-1.47l.76,3.44c-.36,.22-.81,.47-1.34,.74s-1.13,.51-1.81,.73c-.67,.22-1.39,.41-2.16,.57-.77,.15-1.58,.23-2.42,.23-1.57,0-2.95-.27-4.16-.82s-2.21-1.29-3.02-2.23c-.81-.94-1.43-2.02-1.85-3.25-.42-1.23-.63-2.52-.63-3.86s.22-2.68,.65-3.93c.43-1.25,1.07-2.34,1.91-3.3,.84-.95,1.88-1.7,3.13-2.25,1.25-.55,2.67-.82,4.26-.82Zm-.13,3.61c-1.18,0-2.18,.34-3,1.03-.83,.69-1.42,1.62-1.79,2.79h8.02c.03-.08,.05-.18,.06-.29,.01-.11,.02-.25,.02-.42,0-.9-.31-1.64-.92-2.23-.62-.59-1.42-.88-2.39-.88Z"/>
        <path class="cls-1" d="M1012.89,208.93l4.54,6.51,4.33-6.51h5.25l-7.06,9.37,7.48,9.95h-5.25l-4.91-7.06-4.79,7.06h-5.25l7.43-9.87-7.01-9.45h5.25Z"/>
        <path class="cls-1" d="M1029.48,201.62c.78-.59,1.76-1.1,2.92-1.53,1.16-.43,2.37-.65,3.63-.65,1.04,0,1.99,.17,2.86,.5,.87,.34,1.62,.8,2.25,1.39s1.12,1.29,1.47,2.1c.35,.81,.53,1.69,.53,2.65,0,1.26-.27,2.39-.82,3.4-.55,1.01-1.15,2.04-1.81,3.09-.66,1.05-1.27,2.21-1.83,3.49-.56,1.27-.84,2.81-.84,4.6h-4.37c0-1.9,.27-3.53,.8-4.87,.53-1.34,1.11-2.53,1.74-3.55,.63-1.02,1.21-1.97,1.74-2.86,.53-.88,.8-1.81,.8-2.79,0-1.12-.34-1.9-1.01-2.35-.67-.45-1.43-.67-2.27-.67-.9,0-1.78,.2-2.65,.59-.87,.39-1.55,.9-2.06,1.51l-1.09-4.03Zm3.28,24.15c0-.78,.29-1.46,.88-2.04,.59-.57,1.29-.86,2.1-.86s1.53,.29,2.14,.86c.62,.57,.92,1.27,.92,2.08s-.31,1.51-.95,2.08c-.63,.57-1.35,.86-2.16,.86s-1.5-.29-2.08-.88c-.57-.59-.86-1.29-.86-2.1Z"/>
      </g>
    </g>
    <g>
      <path class="cls-1" d="M111.98,194.37h-2.79v10.69h-4.94v-28.49h6.84c1.6,0,3.07,.19,4.39,.58,1.32,.38,2.45,.96,3.4,1.73,.95,.77,1.68,1.71,2.19,2.84,.52,1.12,.77,2.43,.77,3.91,0,1.2-.2,2.32-.6,3.37-.4,1.05-1,1.98-1.81,2.77-.8,.8-1.83,1.43-3.07,1.9s-2.7,.7-4.36,.7Zm-.21-13.76h-1.33c-.43,0-.85,.05-1.25,.15v9.44c.4,.03,.82,.04,1.27,.04h1.4c1.55,0,2.72-.43,3.5-1.28,.79-.86,1.18-2.1,1.18-3.72,0-1.37-.35-2.48-1.05-3.34-.7-.86-1.94-1.28-3.72-1.28Z"/>
      <path class="cls-1" d="M137.31,189.59c-.29-.23-.73-.42-1.33-.56-.6-.14-1.12-.21-1.55-.21-.57,0-1.05,.14-1.42,.41-.37,.27-.7,.63-.99,1.08-.29,.44-.53,.95-.73,1.53-.2,.57-.39,1.16-.56,1.76v11.48h-4.73v-19.78h3.7l.21,4.13h.17c.29-.6,.59-1.19,.9-1.76,.31-.57,.67-1.08,1.07-1.53,.4-.44,.87-.8,1.4-1.08,.53-.27,1.15-.41,1.87-.41,1.15,0,2.22,.37,3.23,1.12l-1.25,3.83Z"/>
      <path class="cls-1" d="M141.39,178.93c0-.4,.08-.79,.24-1.16,.16-.37,.38-.71,.67-1.01,.29-.3,.61-.54,.97-.71,.36-.17,.75-.26,1.18-.26,.4,0,.79,.09,1.16,.26,.37,.17,.71,.41,1.01,.71,.3,.3,.54,.64,.71,1.01,.17,.37,.26,.76,.26,1.16,0,.43-.09,.82-.26,1.18-.17,.36-.41,.68-.71,.97-.3,.29-.64,.51-1.01,.67-.37,.16-.76,.24-1.16,.24-.83,0-1.55-.3-2.15-.9s-.9-1.32-.9-2.15Zm5.42,26.14h-4.73v-19.78h4.73v19.78Z"/>
      <path class="cls-1" d="M168.01,190.2c-.32-.23-.71-.46-1.18-.69-.47-.23-.98-.43-1.53-.6-.54-.17-1.11-.31-1.7-.41-.59-.1-1.14-.15-1.66-.15-.97,0-1.8,.18-2.47,.54-.67,.36-1.22,.83-1.63,1.42-.42,.59-.72,1.27-.9,2.04-.19,.77-.28,1.58-.28,2.41,0,.97,.11,1.89,.34,2.73,.23,.85,.57,1.58,1.03,2.21,.46,.63,1.04,1.13,1.74,1.5,.7,.37,1.51,.56,2.43,.56,1.03,0,2.13-.21,3.29-.62,1.16-.42,2.13-1,2.9-1.74l.86,4.04c-.8,.52-1.9,1-3.29,1.46-1.39,.46-2.87,.69-4.45,.69-1.66,0-3.12-.29-4.36-.86-1.25-.57-2.28-1.34-3.1-2.3-.82-.96-1.43-2.08-1.85-3.35-.42-1.28-.62-2.63-.62-4.06s.19-2.69,.58-3.93c.39-1.25,1-2.35,1.83-3.31,.83-.96,1.89-1.72,3.18-2.28s2.84-.84,4.64-.84c1.38,0,2.72,.16,4.04,.47,1.32,.32,2.38,.73,3.18,1.25l-1.03,3.83Z"/>
      <path class="cls-1" d="M182.46,184.65c2.52,0,4.47,.64,5.85,1.91,1.38,1.28,2.06,3.07,2.06,5.4,0,.32-.02,.65-.06,1.01-.04,.36-.1,.71-.17,1.05-.07,.34-.16,.65-.26,.92-.1,.27-.21,.49-.32,.67h-12.51c.06,.86,.21,1.67,.47,2.43,.26,.76,.63,1.42,1.12,1.98,.49,.56,1.08,1,1.78,1.33,.7,.33,1.53,.49,2.47,.49,1.06,0,2.19-.2,3.38-.6,1.19-.4,2.2-.9,3.03-1.5l.77,3.53c-.37,.23-.83,.48-1.38,.75-.54,.27-1.16,.52-1.85,.75s-1.43,.42-2.21,.58c-.79,.16-1.61,.24-2.47,.24-1.61,0-3.02-.28-4.26-.84-1.23-.56-2.26-1.32-3.1-2.28-.83-.96-1.46-2.07-1.89-3.33-.43-1.26-.65-2.58-.65-3.96s.22-2.74,.67-4.02c.44-1.27,1.1-2.4,1.96-3.38,.86-.97,1.93-1.74,3.2-2.3,1.28-.56,2.73-.84,4.36-.84Zm-.13,3.7c-1.2,0-2.23,.35-3.07,1.05-.85,.7-1.46,1.66-1.83,2.86h8.21c.03-.09,.05-.19,.06-.3,.01-.11,.02-.26,.02-.43,0-.92-.32-1.68-.95-2.28-.63-.6-1.45-.9-2.45-.9Z"/>
      <path class="cls-1" d="M211.48,205.07h-4.94v-28.38h4.94v28.38Z"/>
      <path class="cls-1" d="M231.22,205.07v-13.07c0-2.35-1-3.53-3.01-3.53-.49,0-1.01,.09-1.57,.26-.56,.17-1.1,.42-1.61,.75-.52,.33-.98,.74-1.4,1.23-.42,.49-.72,1.05-.92,1.68v12.69h-4.73v-19.78h3.7l.21,2.92h.17c.6-1.2,1.54-2.1,2.82-2.69,1.27-.59,2.64-.88,4.11-.88,.95,0,1.83,.12,2.67,.37,.83,.24,1.57,.64,2.21,1.18,.65,.54,1.15,1.26,1.53,2.15,.37,.89,.56,1.98,.56,3.27v13.46h-4.73Z"/>
      <path class="cls-1" d="M249.36,205.59c-1.35,0-2.58-.27-3.7-.82-1.12-.54-2.07-1.29-2.86-2.24-.79-.95-1.4-2.06-1.83-3.35-.43-1.29-.65-2.69-.65-4.21,0-1.35,.18-2.64,.54-3.89s.91-2.34,1.66-3.29c.75-.95,1.67-1.71,2.77-2.28,1.1-.57,2.41-.86,3.93-.86,1.38,0,2.61,.23,3.7,.69s1.96,1.1,2.62,1.94v-14.02h4.69v31.82h-3.78l-.34-2.71h-.17c-.8,.89-1.71,1.65-2.73,2.28-1.02,.63-2.3,.95-3.85,.95Zm.6-3.57c.46,0,.95-.06,1.46-.19s1.02-.31,1.53-.54c.5-.23,.98-.51,1.44-.84,.46-.33,.85-.71,1.16-1.14v-8.26c-.86-1.06-1.73-1.78-2.62-2.17-.89-.39-1.75-.58-2.58-.58-.92,0-1.71,.18-2.37,.54-.66,.36-1.21,.85-1.66,1.48-.44,.63-.77,1.35-.99,2.17s-.32,1.67-.32,2.56,.1,1.71,.3,2.56c.2,.85,.5,1.59,.9,2.24s.92,1.17,1.55,1.57c.63,.4,1.36,.6,2.19,.6Z"/>
      <path class="cls-1" d="M275.16,184.65c2.52,0,4.47,.64,5.85,1.91,1.38,1.28,2.06,3.07,2.06,5.4,0,.32-.02,.65-.06,1.01-.04,.36-.1,.71-.17,1.05-.07,.34-.16,.65-.26,.92-.1,.27-.21,.49-.32,.67h-12.51c.06,.86,.21,1.67,.47,2.43,.26,.76,.63,1.42,1.12,1.98,.49,.56,1.08,1,1.78,1.33,.7,.33,1.53,.49,2.47,.49,1.06,0,2.19-.2,3.38-.6,1.19-.4,2.2-.9,3.03-1.5l.77,3.53c-.37,.23-.83,.48-1.38,.75-.54,.27-1.16,.52-1.85,.75s-1.43,.42-2.21,.58c-.79,.16-1.61,.24-2.47,.24-1.61,0-3.02-.28-4.26-.84-1.23-.56-2.26-1.32-3.1-2.28-.83-.96-1.46-2.07-1.89-3.33-.43-1.26-.65-2.58-.65-3.96s.22-2.74,.67-4.02c.44-1.27,1.1-2.4,1.96-3.38,.86-.97,1.93-1.74,3.2-2.3,1.28-.56,2.73-.84,4.36-.84Zm-.13,3.7c-1.2,0-2.23,.35-3.07,1.05-.85,.7-1.46,1.66-1.83,2.86h8.21c.03-.09,.05-.19,.06-.3,.01-.11,.02-.26,.02-.43,0-.92-.32-1.68-.95-2.28-.63-.6-1.45-.9-2.45-.9Z"/>
      <path class="cls-1" d="M291.12,185.29l4.64,6.66,4.43-6.66h5.38l-7.22,9.59,7.65,10.19h-5.38l-5.03-7.22-4.9,7.22h-5.38l7.61-10.1-7.18-9.67h5.38Z"/>
      <path class="cls-1" d="M308.1,177.81c.8-.6,1.8-1.12,2.99-1.57,1.19-.44,2.43-.67,3.72-.67,1.06,0,2.04,.17,2.92,.52,.89,.34,1.66,.82,2.3,1.42s1.15,1.32,1.5,2.15c.36,.83,.54,1.73,.54,2.71,0,1.29-.28,2.45-.84,3.48-.56,1.03-1.18,2.09-1.85,3.16-.67,1.08-1.3,2.27-1.87,3.57-.57,1.31-.86,2.87-.86,4.71h-4.47c0-1.95,.27-3.61,.82-4.99,.54-1.38,1.14-2.59,1.78-3.63s1.24-2.02,1.78-2.92c.54-.9,.82-1.86,.82-2.86,0-1.15-.34-1.95-1.03-2.41-.69-.46-1.46-.69-2.32-.69-.92,0-1.82,.2-2.71,.6-.89,.4-1.59,.92-2.11,1.55l-1.12-4.13Zm3.35,24.73c0-.8,.3-1.5,.9-2.09,.6-.59,1.32-.88,2.15-.88s1.56,.29,2.19,.88c.63,.59,.95,1.3,.95,2.13s-.32,1.54-.97,2.13c-.65,.59-1.38,.88-2.21,.88s-1.54-.3-2.13-.9c-.59-.6-.88-1.32-.88-2.15Z"/>
    </g>
  </g>
</svg>