<?xml version="1.0" encoding="UTF-8"?>
<svg id="Ebene_2" data-name="Ebene 2" xmlns="http://www.w3.org/2000/svg" viewBox="0 0 505 505">
  <defs>
    <style>
      .cls-1 {
        fill: #fff;
      }

      .cls-2 {
        fill: #171614;
      }
    </style>
  </defs>
  <g id="Ebene_2-2" data-name="Ebene 2">
    <circle class="cls-1" cx="252.5" cy="252.5" r="252.5"/>
    <path class="cls-2" d="M255.67,361.62c-1.11,2.84-3.83,4.71-6.8,4.74h-.1c-3.01,0-5.69-1.83-6.83-4.64l-55.19-136.91-19.75,40.68c-1.24,2.52-3.83,4.15-6.64,4.15h-47.48c.52,.88,.95,1.8,1.5,2.75l12.82,18.47c3.17,4.15,6.64,8.21,10.43,12.29,42.87,46.27,72.39,80.53,90.7,102.51,13.14,15.89,33.91,16.09,47.12,.26,17.49-21.12,45.32-53.72,85.11-97.18l-84.62,.03-20.27,52.84h0ZM330.41,101.31c-22.17,.03-42.44,8.57-57.61,22.5-15.17,14.03-27.3,14.03-42.57,.07-15.2-13.83-35.41-22.33-57.65-22.23-34.23,.03-63.76,20.24-77.3,49.34-8.7,18.74-7.39,53.1-1.86,73.05,2.65,9.48,6.64,20.34,12.03,31.68,.98-.46,2.06-.82,3.24-.82h47.05l25.01-51.4c1.28-2.62,4.28-4.32,6.87-4.12,2.94,.1,5.49,1.9,6.6,4.58l54.41,134.94,15.4-40.09c1.08-2.84,3.83-4.71,6.83-4.71h95.22c1.96,0,3.76,.78,5.07,2.06,2.26-3.07,4.97-6.8,7.62-10.53,6.93-9.61,21.19-31.85,27.89-51.37,9.32-27.4,9.32-47.64,9.32-47.64-.07-47.25-38.42-85.44-85.57-85.31h0Z"/>
  </g>
</svg>