<?xml version="1.0" encoding="UTF-8"?>
<svg id="Ebene_2" data-name="Ebene 2" xmlns="http://www.w3.org/2000/svg" viewBox="0 0 999.97 967.58">
  <defs>
    <style>
      .cls-1 {
        fill: #ff6b35;
      }
    </style>
  </defs>
  <g id="Ebene_1-2" data-name="Ebene 1">
    <path class="cls-1" d="M509.67,796.1c-3.4,8.7-11.7,14.4-20.8,14.5h-.3c-9.2,0-17.4-5.6-20.9-14.2l-168.8-418.7-60.4,124.4c-3.8,7.7-11.7,12.7-20.3,12.7H72.97c1.6,2.7,2.9,5.5,4.6,8.4l39.2,56.5c9.7,12.7,20.3,25.1,31.9,37.6,131.1,141.5,221.4,246.3,277.4,313.5,40.2,48.6,103.7,49.2,144.1,.8,53.5-64.6,138.6-164.3,260.3-297.2l-258.8,.1-62,161.6h0ZM738.27,0c-67.8,.1-129.8,26.2-176.2,68.8-46.4,42.9-83.5,42.9-130.2,.2C385.37,26.7,323.57,.7,255.57,1,150.87,1.1,60.57,62.9,19.17,151.9-7.43,209.2-3.43,314.3,13.47,375.3c8.1,29,20.3,62.2,36.8,96.9,3-1.4,6.3-2.5,9.9-2.5H204.07l76.5-157.2c3.9-8,13.1-13.2,21-12.6,9,.3,16.8,5.8,20.2,14l166.4,412.7,47.1-122.6c3.3-8.7,11.7-14.4,20.9-14.4h291.2c6,0,11.5,2.4,15.5,6.3,6.9-9.4,15.2-20.8,23.3-32.2,21.2-29.4,64.8-97.4,85.3-157.1,28.5-83.8,28.5-145.7,28.5-145.7C999.77,116.4,882.47-.4,738.27,0h0Z"/>
  </g>
</svg>