<?xml version="1.0" encoding="UTF-8"?>
<svg id="Ebene_2" data-name="Ebene 2" xmlns="http://www.w3.org/2000/svg" viewBox="0 0 875 735.75">
  <defs>
    <style>
      .cls-1 {
        fill: #ff6b35;
      }
    </style>
  </defs>
  <g id="Ebene_1-2" data-name="Ebene 1">
    <path class="cls-1" d="M539.6,0h266.7C844.2,0,875,30.8,875,68.7v242.5c0,114.6-23.8,205-71.5,271.2-38.7,53.7-99.8,102.4-183.3,146-33.6,17.5-76.3,2.4-94-31.1l-23.2-43.9c-17.7-33.5-4-73.3,28.8-92.4,39.2-22.8,68.1-45.5,86.8-68.2,13.8-16.8,24.5-35.2,32.1-55.1,12.6-33.1-17.4-62.4-55.3-62.4h-55.8c-37.9,0-68.7-30.8-68.7-68.7V68.6C470.9,30.7,501.7-.1,539.6,0ZM68.7,0H335.4C373.3,0,404.1,30.8,404.1,68.7v242.5c0,114.6-23.8,205-71.5,271.2-38.7,53.7-99.8,102.4-183.3,146-33.6,17.5-76.3,2.4-94-31.1l-23.2-43.9c-17.7-33.5-4-73.3,28.8-92.4,39.2-22.8,68.1-45.5,86.8-68.2,13.8-16.8,24.5-35.2,32.1-55.1,12.6-33.1-17.4-62.4-55.3-62.4h-55.8C30.8,375.3,0,344.5,0,306.6V68.6C0,30.7,30.8-.1,68.7,0Z"/>
  </g>
</svg>