<?xml version="1.0" encoding="UTF-8"?>
<svg id="Ebene_2" data-name="Ebene 2" xmlns="http://www.w3.org/2000/svg" viewBox="0 0 619.91 479.85">
  <defs>
    <style>
      .cls-1 {
        stroke-miterlimit: 10;
      }

      .cls-1, .cls-2 {
        fill: none;
        stroke: #000;
        stroke-width: 4px;
      }

      .cls-3 {
        fill: #fff;
      }

      .cls-2 {
        stroke-linecap: round;
        stroke-linejoin: round;
      }

      .cls-4 {
        fill: #253c78;
      }
    </style>
  </defs>
  <g id="Ebene_1-2" data-name="Ebene 1">
    <g>
      <path class="cls-1" d="M118.98,124.97c4.09-13.84,18.42-55.82,60.89-86.74,27.42-19.97,55.21-27.05,73.33-29.67"/>
      <polygon points="251.59 17.84 266.05 7.21 249.61 0 251.59 17.84"/>
    </g>
    <g>
      <path class="cls-1" d="M311.94,5.75c14.43,.12,58.74,2.33,100.17,34.63,26.75,20.86,41.22,45.62,48.73,62.31"/>
      <polygon points="451.47 103.69 465.68 114.66 468.07 96.87 451.47 103.69"/>
    </g>
    <g>
      <path class="cls-1" d="M478.86,150.79c4.82,13.6,17.89,55.99,1.7,105.97-10.46,32.27-28.78,54.33-41.89,67.1"/>
      <polygon points="434.51 315.39 429.06 332.49 446.6 328.66 434.51 315.39"/>
    </g>
    <g>
      <path class="cls-1" d="M394.24,362.08c-11.61,8.57-48.36,33.41-100.89,32.47-33.92-.61-60.36-11.72-76.39-20.55"/>
      <polygon points="223.85 367.56 205.91 367.32 214.67 382.99 223.85 367.56"/>
    </g>
    <g>
      <path class="cls-2" d="M166.4,338.91c-11.68-8.48-46.44-36.03-61.38-86.4-9.65-32.52-7.03-61.08-3.44-79.03"/>
      <polygon points="109.79 178.11 104.6 160.93 92.31 174.01 109.79 178.11"/>
    </g>
    <circle class="cls-4" cx="292.75" cy="195.44" r="175.21"/>
    <rect class="cls-3" x="290.09" y="11.34" width="12.55" height="189.57"/>
    <rect class="cls-3" x="385.31" y="67.62" width="12.55" height="189.57" transform="translate(425.04 -260.2) rotate(72)"/>
    <rect class="cls-3" x="208.76" y="72.65" width="12.55" height="189.57" transform="translate(440.73 14.67) rotate(108)"/>
    <rect class="cls-3" x="235.38" y="173.27" width="12.55" height="189.57" transform="translate(279.61 626.97) rotate(-144)"/>
    <rect class="cls-3" x="344.6" y="173.27" width="12.55" height="189.57" transform="translate(-90.55 257.44) rotate(-36)"/>
    <g>
      <path class="cls-3" d="M204.96,94.2h6.6v2.4h-9.36v-15.84h2.76v13.44Z"/>
      <path class="cls-3" d="M220.39,96.6l-.19-1.51h-.1c-.43,.54-1.02,.98-1.76,1.31s-1.5,.49-2.27,.49c-1.01,0-1.8-.29-2.38-.88s-.86-1.36-.86-2.32c0-.66,.14-1.24,.42-1.76,.28-.52,.68-.96,1.21-1.32,.53-.36,1.16-.64,1.9-.83s1.56-.29,2.47-.29h1.03v-.36c0-.62-.2-1.08-.6-1.37-.42-.29-1.06-.43-1.94-.43-1.18,0-2.24,.26-3.17,.79l-.5-1.99c1.07-.62,2.37-.94,3.89-.94,1.6,0,2.82,.33,3.65,.98,.38,.3,.7,.7,.95,1.18,.25,.48,.37,1.06,.37,1.73v7.51h-2.11Zm-3.29-1.85c.51,0,1.02-.12,1.54-.37,.51-.25,.92-.58,1.22-1v-2.18h-.46c-1.31,0-2.27,.17-2.87,.5-.6,.34-.9,.87-.9,1.61,0,.96,.49,1.44,1.46,1.44Z"/>
      <path class="cls-3" d="M226.1,87.17h-1.37v-1.44l1.56-.24,.43-3.26h2.02v3.34h2.11v1.61h-2.11v6.34c0,.48,.05,.8,.14,.97,.1,.17,.28,.25,.55,.25,.21,0,.42-.04,.62-.12,.21-.08,.51-.23,.91-.46l.43,1.9c-.3,.26-.73,.46-1.28,.61-.55,.15-1.1,.23-1.64,.23-.48,0-.88-.06-1.19-.19-.31-.13-.56-.32-.73-.56-.18-.25-.3-.55-.36-.9-.06-.35-.1-.74-.1-1.18v-6.89Z"/>
      <path class="cls-3" d="M238.58,85.2c1.41,0,2.5,.36,3.26,1.07,.77,.71,1.15,1.72,1.15,3.01,0,.18-.01,.36-.04,.56-.02,.2-.06,.4-.1,.59s-.09,.36-.14,.52c-.06,.15-.12,.28-.18,.37h-6.98c.03,.48,.12,.93,.26,1.36,.14,.42,.35,.79,.62,1.1,.27,.31,.6,.56,1,.74,.39,.18,.85,.28,1.38,.28,.59,0,1.22-.11,1.88-.34,.66-.22,1.23-.5,1.69-.84l.43,1.97c-.21,.13-.46,.27-.77,.42s-.65,.29-1.03,.42c-.38,.13-.8,.24-1.24,.32s-.9,.13-1.38,.13c-.9,0-1.69-.16-2.38-.47-.69-.31-1.26-.74-1.73-1.27-.46-.54-.82-1.16-1.06-1.86s-.36-1.44-.36-2.21,.12-1.53,.37-2.24c.25-.71,.61-1.34,1.09-1.88,.48-.54,1.08-.97,1.79-1.28,.71-.31,1.52-.47,2.44-.47Zm-.07,2.06c-.67,0-1.24,.2-1.72,.59-.47,.39-.81,.92-1.02,1.6h4.58s.03-.1,.04-.17c0-.06,.01-.14,.01-.24,0-.51-.18-.94-.53-1.27s-.81-.5-1.37-.5Z"/>
      <path class="cls-3" d="M197.27,124.08c-.72,.48-1.54,.87-2.47,1.16-.93,.3-1.94,.44-3.05,.44-1.33,0-2.47-.22-3.43-.65-.96-.43-1.76-1.02-2.39-1.75s-1.1-1.59-1.4-2.56c-.3-.97-.46-2-.46-3.08s.17-2.2,.5-3.19,.84-1.86,1.5-2.6c.66-.74,1.49-1.33,2.48-1.76,.99-.43,2.15-.65,3.48-.65,.9,0,1.78,.09,2.66,.28,.88,.18,1.66,.44,2.35,.76l-.77,2.5c-.54-.32-1.18-.6-1.9-.83-.72-.23-1.54-.35-2.45-.35s-1.68,.13-2.32,.4c-.63,.26-1.14,.64-1.52,1.14-.38,.5-.66,1.09-.84,1.79-.18,.7-.26,1.48-.26,2.36,0,3.9,1.66,5.86,4.97,5.86,.59,0,1.06-.05,1.42-.14s.73-.21,1.13-.34v-3.98h2.76v5.21Z"/>
      <path class="cls-3" d="M206.43,116.76c-.16-.13-.41-.23-.74-.31-.34-.08-.62-.12-.86-.12-.32,0-.58,.08-.79,.23-.21,.15-.39,.35-.55,.6-.16,.25-.3,.53-.41,.85-.11,.32-.22,.65-.31,.98v6.41h-2.64v-11.04h2.06l.12,2.3h.1c.16-.34,.33-.66,.5-.98,.18-.32,.38-.6,.6-.85,.22-.25,.48-.45,.78-.6,.3-.15,.64-.23,1.04-.23,.64,0,1.24,.21,1.8,.62l-.7,2.14Z"/>
      <path class="cls-3" d="M213.8,114c.98,0,1.82,.16,2.52,.49,.7,.33,1.28,.77,1.74,1.32,.46,.55,.79,1.18,1.01,1.9s.32,1.46,.32,2.24-.11,1.52-.32,2.22-.55,1.3-1.01,1.82-1.03,.93-1.73,1.24c-.7,.3-1.52,.46-2.46,.46s-1.82-.16-2.52-.48-1.29-.75-1.75-1.28c-.46-.54-.81-1.16-1.03-1.86-.22-.7-.34-1.45-.34-2.23s.11-1.53,.34-2.23c.22-.7,.56-1.32,1.02-1.86,.46-.54,1.04-.96,1.74-1.27s1.53-.47,2.47-.47Zm.05,9.7c.46,0,.87-.1,1.21-.3s.63-.47,.85-.82c.22-.34,.39-.74,.49-1.19,.1-.45,.16-.92,.16-1.42s-.06-1-.17-1.48c-.11-.47-.28-.89-.52-1.25-.23-.36-.52-.65-.88-.86-.35-.22-.78-.32-1.27-.32-.46,0-.86,.1-1.2,.3-.34,.2-.61,.47-.83,.8-.22,.34-.38,.73-.48,1.18-.1,.45-.16,.92-.16,1.42s.05,1,.16,1.48c.1,.47,.27,.89,.5,1.26,.23,.37,.52,.66,.88,.88,.35,.22,.77,.32,1.25,.32Z"/>
      <path class="cls-3" d="M230.19,117.72l-2.38,7.68h-3.19l-4.01-11.04h2.76l2.88,8.47,2.62-8.47h2.64l2.62,8.47,2.88-8.47h2.71l-4.01,11.04h-3.14l-2.38-7.68Z"/>
      <path class="cls-3" d="M242.19,115.97h-1.37v-1.44l1.56-.24,.43-3.26h2.02v3.34h2.11v1.61h-2.11v6.34c0,.48,.05,.8,.14,.97,.1,.17,.28,.25,.55,.25,.21,0,.42-.04,.62-.12,.21-.08,.51-.23,.91-.46l.43,1.9c-.3,.26-.73,.46-1.28,.61-.55,.15-1.1,.23-1.64,.23-.48,0-.88-.06-1.19-.19-.31-.13-.56-.32-.73-.56-.18-.25-.3-.55-.36-.9-.06-.35-.1-.74-.1-1.18v-6.89Z"/>
      <path class="cls-3" d="M252.3,116c.45-.7,.97-1.21,1.57-1.52,.6-.31,1.31-.47,2.12-.47,.48,0,.94,.07,1.39,.2s.84,.36,1.19,.66c.34,.3,.62,.7,.82,1.2,.2,.5,.3,1.1,.3,1.82v7.51h-2.64v-7.3c0-.66-.14-1.15-.43-1.48-.29-.33-.68-.49-1.18-.49-.3,0-.62,.05-.95,.14-.33,.1-.64,.24-.92,.43s-.54,.42-.77,.7c-.22,.27-.39,.58-.5,.91v7.08h-2.64v-17.76h2.64v8.35Z"/>
    </g>
    <g>
      <path class="cls-3" d="M322.79,98.68l2.21-2.09,1.25,2.14-2.88,.91,2.88,.91-1.25,2.14-2.23-2.06,.67,2.95h-2.45l.65-2.95-2.21,2.06-1.25-2.14,2.86-.91-2.86-.91,1.25-2.14,2.21,2.09-.65-2.98h2.45l-.65,2.98Z"/>
      <path class="cls-3" d="M333.5,105.79h-.54c-.18,0-.38,0-.59-.02v6.79h-2.76v-15.91h3.53c2.05,0,3.61,.39,4.68,1.16,1.07,.77,1.61,1.9,1.61,3.38,0,.94-.23,1.78-.7,2.53-.46,.75-1.24,1.3-2.33,1.67l5.81,7.18h-3.19l-5.52-6.77Zm-.12-6.89h-.46c-.18,0-.36,0-.55,.02v4.56h1.49c.86,0,1.52-.22,1.97-.65,.45-.43,.67-1.05,.67-1.85,0-.72-.22-1.25-.66-1.58s-1.26-.5-2.46-.5Z"/>
      <path class="cls-3" d="M348.28,101.15c1.41,0,2.5,.36,3.26,1.07,.77,.71,1.15,1.72,1.15,3.01,0,.18-.01,.36-.04,.56-.02,.2-.06,.4-.1,.59s-.09,.36-.14,.52c-.06,.15-.12,.28-.18,.37h-6.98c.03,.48,.12,.93,.26,1.36,.14,.42,.35,.79,.62,1.1,.27,.31,.6,.56,1,.74,.39,.18,.85,.28,1.38,.28,.59,0,1.22-.11,1.88-.34,.66-.22,1.23-.5,1.69-.84l.43,1.97c-.21,.13-.46,.27-.77,.42s-.65,.29-1.03,.42c-.38,.13-.8,.24-1.24,.32s-.9,.13-1.38,.13c-.9,0-1.69-.16-2.38-.47-.69-.31-1.26-.74-1.73-1.27-.46-.54-.82-1.16-1.06-1.86s-.36-1.44-.36-2.21,.12-1.53,.37-2.24c.25-.71,.61-1.34,1.09-1.88,.48-.54,1.08-.97,1.79-1.28,.71-.31,1.52-.47,2.44-.47Zm-.07,2.06c-.67,0-1.24,.2-1.72,.59-.47,.39-.81,.92-1.02,1.6h4.58s.03-.1,.04-.17c0-.06,.01-.14,.01-.24,0-.51-.18-.94-.53-1.27s-.81-.5-1.37-.5Z"/>
      <path class="cls-3" d="M361.46,112.84c-.86,0-1.58-.18-2.15-.53-.57-.35-1.08-.78-1.52-1.27h-.1l-.19,1.51h-2.11v-17.76h2.62v7.82c.37-.46,.86-.82,1.46-1.08,.61-.26,1.3-.38,2.06-.38,.83,0,1.56,.16,2.18,.48,.62,.32,1.14,.74,1.56,1.27s.72,1.14,.92,1.84,.3,1.42,.3,2.17c0,.85-.12,1.63-.36,2.35-.24,.72-.58,1.34-1.02,1.87s-.97,.94-1.6,1.25-1.31,.46-2.06,.46Zm-.34-1.99c.46,0,.87-.11,1.21-.34,.34-.22,.63-.52,.86-.88,.23-.36,.4-.78,.52-1.25,.11-.47,.17-.95,.17-1.43s-.06-.97-.18-1.43-.3-.86-.55-1.21-.56-.63-.94-.83c-.38-.2-.81-.3-1.31-.3-.46,0-.94,.11-1.44,.32-.5,.22-.98,.62-1.46,1.21v4.61c.18,.24,.39,.45,.65,.64,.26,.18,.52,.34,.8,.47,.28,.13,.56,.23,.85,.3s.56,.11,.82,.11Z"/>
      <path class="cls-3" d="M374.08,101.15c.98,0,1.82,.16,2.52,.49,.7,.33,1.28,.77,1.74,1.32,.46,.55,.79,1.18,1.01,1.9s.32,1.46,.32,2.24-.11,1.52-.32,2.22-.55,1.3-1.01,1.82-1.03,.93-1.73,1.24c-.7,.3-1.52,.46-2.46,.46s-1.82-.16-2.52-.48-1.29-.75-1.75-1.28c-.46-.54-.81-1.16-1.03-1.86-.22-.7-.34-1.45-.34-2.23s.11-1.53,.34-2.23c.22-.7,.56-1.32,1.02-1.86,.46-.54,1.04-.96,1.74-1.27s1.53-.47,2.47-.47Zm.05,9.7c.46,0,.87-.1,1.21-.3s.63-.47,.85-.82c.22-.34,.39-.74,.49-1.19,.1-.45,.16-.92,.16-1.42s-.06-1-.17-1.48c-.11-.47-.28-.89-.52-1.25-.23-.36-.52-.65-.88-.86-.35-.22-.78-.32-1.27-.32-.46,0-.86,.1-1.2,.3-.34,.2-.61,.47-.83,.8-.22,.34-.38,.73-.48,1.18-.1,.45-.16,.92-.16,1.42s.05,1,.16,1.48c.1,.47,.27,.89,.5,1.26,.23,.37,.52,.66,.88,.88,.35,.22,.77,.32,1.25,.32Z"/>
      <path class="cls-3" d="M384.88,101.51v7.18c0,.66,.17,1.16,.52,1.5s.79,.52,1.33,.52,1.07-.19,1.54-.56c.46-.38,.81-.92,1.03-1.62v-7.01h2.66v11.04h-2.06l-.14-1.54h-.1c-.18,.37-.4,.67-.67,.9-.27,.23-.57,.42-.9,.55-.33,.14-.67,.23-1.02,.29-.35,.06-.7,.08-1.03,.08-.53,0-1.02-.06-1.48-.19-.46-.13-.86-.34-1.2-.64-.34-.3-.62-.69-.82-1.18-.2-.49-.3-1.09-.3-1.81v-7.51h2.64Z"/>
      <path class="cls-3" d="M402.66,112.55v-7.3c0-1.31-.56-1.97-1.68-1.97-.27,0-.56,.05-.88,.14-.31,.1-.61,.24-.9,.42-.29,.18-.55,.41-.78,.68-.23,.27-.4,.58-.52,.94v7.08h-2.64v-11.04h2.06l.12,1.63h.1c.34-.67,.86-1.17,1.57-1.5,.71-.33,1.48-.49,2.29-.49,.53,0,1.02,.07,1.49,.2s.88,.36,1.24,.66c.36,.3,.64,.7,.85,1.2,.21,.5,.31,1.1,.31,1.82v7.51h-2.64Z"/>
      <path class="cls-3" d="M412.79,112.84c-.75,0-1.44-.15-2.06-.46s-1.16-.72-1.6-1.25-.78-1.15-1.02-1.87c-.24-.72-.36-1.5-.36-2.35,0-.75,.1-1.48,.3-2.17s.51-1.31,.92-1.84c.42-.53,.93-.95,1.55-1.27,.62-.32,1.35-.48,2.2-.48,.77,0,1.46,.13,2.06,.38,.61,.26,1.1,.62,1.46,1.08v-7.82h2.62v17.76h-2.11l-.19-1.51h-.1c-.45,.5-.96,.92-1.52,1.27-.57,.35-1.28,.53-2.15,.53Zm.34-1.99c.26,0,.53-.04,.82-.11s.57-.17,.85-.3,.55-.28,.8-.47c.25-.18,.47-.4,.65-.64v-4.61c-.48-.59-.97-1-1.46-1.21-.5-.22-.98-.32-1.44-.32-.51,0-.95,.1-1.32,.3-.37,.2-.68,.48-.92,.83-.25,.35-.43,.76-.55,1.21s-.18,.93-.18,1.43,.06,.96,.17,1.43c.11,.47,.28,.89,.5,1.25,.22,.36,.51,.65,.86,.88,.35,.22,.76,.34,1.22,.34Z"/>
    </g>
    <g>
      <path class="cls-3" d="M357.28,212.52c.21-.06,.54-.08,.98-.08h3.91c1.55,0,2.83,.16,3.83,.48,1,.32,1.83,.75,2.48,1.31,.85,.73,1.46,1.66,1.85,2.79,.38,1.13,.58,2.37,.58,3.74,0,1.03-.13,2.02-.4,2.97-.26,.94-.74,1.77-1.42,2.49-.68,.71-1.62,1.28-2.81,1.7-1.19,.42-2.72,.63-4.57,.63h-2.16c-.77,0-1.53-.06-2.28-.19v-15.83Zm5.11,13.79c1.94,0,3.35-.46,4.24-1.39,.89-.92,1.33-2.43,1.33-4.52,0-.94-.09-1.76-.28-2.47-.18-.71-.5-1.3-.95-1.78-.45-.48-1.05-.84-1.8-1.08-.75-.24-1.69-.36-2.81-.36h-2.09v11.52c.45,.05,.88,.07,1.3,.07h1.06Z"/>
      <path class="cls-3" d="M378.69,216.95c1.41,0,2.5,.36,3.26,1.07,.77,.71,1.15,1.72,1.15,3.01,0,.18-.01,.36-.04,.56-.02,.2-.06,.4-.1,.59s-.09,.36-.14,.52c-.06,.15-.12,.28-.18,.37h-6.98c.03,.48,.12,.93,.26,1.36,.14,.42,.35,.79,.62,1.1,.27,.31,.6,.56,1,.74,.39,.18,.85,.28,1.38,.28,.59,0,1.22-.11,1.88-.34,.66-.22,1.23-.5,1.69-.84l.43,1.97c-.21,.13-.46,.27-.77,.42s-.65,.29-1.03,.42c-.38,.13-.8,.24-1.24,.32s-.9,.13-1.38,.13c-.9,0-1.69-.16-2.38-.47-.69-.31-1.26-.74-1.73-1.27-.46-.54-.82-1.16-1.06-1.86s-.36-1.44-.36-2.21,.12-1.53,.37-2.24c.25-.71,.61-1.34,1.09-1.88,.48-.54,1.08-.97,1.79-1.28,.71-.31,1.52-.47,2.44-.47Zm-.07,2.06c-.67,0-1.24,.2-1.72,.59-.47,.39-.81,.92-1.02,1.6h4.58s.03-.1,.04-.17c0-.06,.01-.14,.01-.24,0-.51-.18-.94-.53-1.27s-.81-.5-1.37-.5Z"/>
      <path class="cls-3" d="M394.31,220.04c-.18-.13-.4-.26-.66-.38-.26-.13-.55-.24-.85-.34-.3-.1-.62-.17-.95-.23s-.64-.08-.92-.08c-.54,0-1,.1-1.38,.3-.38,.2-.68,.46-.91,.79-.23,.33-.4,.71-.5,1.14-.1,.43-.16,.88-.16,1.34,0,.54,.06,1.05,.19,1.52,.13,.47,.32,.88,.58,1.24,.25,.35,.58,.63,.97,.84,.39,.21,.84,.31,1.36,.31,.58,0,1.19-.12,1.84-.35,.65-.23,1.19-.56,1.62-.97l.48,2.26c-.45,.29-1.06,.56-1.84,.82-.78,.26-1.6,.38-2.48,.38-.93,0-1.74-.16-2.44-.48-.7-.32-1.27-.75-1.73-1.28-.46-.54-.8-1.16-1.03-1.87-.23-.71-.35-1.47-.35-2.27s.11-1.5,.32-2.2,.56-1.31,1.02-1.85c.46-.54,1.06-.96,1.78-1.27s1.58-.47,2.59-.47c.77,0,1.52,.09,2.26,.26,.74,.18,1.33,.41,1.78,.7l-.58,2.14Z"/>
      <path class="cls-3" d="M400.31,228.35h-2.64v-17.76h2.64v17.76Z"/>
      <path class="cls-3" d="M403.39,213.76c0-.22,.04-.44,.13-.65,.09-.21,.21-.4,.37-.56,.16-.17,.34-.3,.54-.4,.2-.1,.42-.14,.66-.14,.22,0,.44,.05,.65,.14,.21,.1,.4,.23,.56,.4,.17,.17,.3,.36,.4,.56,.1,.21,.14,.42,.14,.65,0,.24-.05,.46-.14,.66-.1,.2-.23,.38-.4,.54-.17,.16-.36,.28-.56,.37-.21,.09-.42,.13-.65,.13-.46,0-.86-.17-1.2-.5s-.5-.74-.5-1.2Zm3.02,14.59h-2.64v-11.04h2.64v11.04Z"/>
      <path class="cls-3" d="M417.11,228.35v-7.3c0-1.31-.56-1.97-1.68-1.97-.27,0-.56,.05-.88,.14-.31,.1-.61,.24-.9,.42-.29,.18-.55,.41-.78,.68-.23,.27-.4,.58-.52,.94v7.08h-2.64v-11.04h2.06l.12,1.63h.1c.34-.67,.86-1.17,1.57-1.5,.71-.33,1.48-.49,2.29-.49,.53,0,1.02,.07,1.49,.2s.88,.36,1.24,.66c.36,.3,.64,.7,.85,1.2,.21,.5,.31,1.1,.31,1.82v7.51h-2.64Z"/>
      <path class="cls-3" d="M427.87,216.95c1.41,0,2.5,.36,3.26,1.07,.77,.71,1.15,1.72,1.15,3.01,0,.18-.01,.36-.04,.56-.02,.2-.06,.4-.1,.59s-.09,.36-.14,.52c-.06,.15-.12,.28-.18,.37h-6.98c.03,.48,.12,.93,.26,1.36,.14,.42,.35,.79,.62,1.1,.27,.31,.6,.56,1,.74,.39,.18,.85,.28,1.38,.28,.59,0,1.22-.11,1.88-.34,.66-.22,1.23-.5,1.69-.84l.43,1.97c-.21,.13-.46,.27-.77,.42s-.65,.29-1.03,.42c-.38,.13-.8,.24-1.24,.32s-.9,.13-1.38,.13c-.9,0-1.69-.16-2.38-.47-.69-.31-1.26-.74-1.73-1.27-.46-.54-.82-1.16-1.06-1.86s-.36-1.44-.36-2.21,.12-1.53,.37-2.24c.25-.71,.61-1.34,1.09-1.88,.48-.54,1.08-.97,1.79-1.28,.71-.31,1.52-.47,2.44-.47Zm-.07,2.06c-.67,0-1.24,.2-1.72,.59-.47,.39-.81,.92-1.02,1.6h4.58s.03-.1,.04-.17c0-.06,.01-.14,.01-.24,0-.51-.18-.94-.53-1.27s-.81-.5-1.37-.5Z"/>
    </g>
    <g>
      <path class="cls-3" d="M255.57,323.16h-.54c-.18,0-.38,0-.59-.02v6.79h-2.76v-15.91h3.53c2.05,0,3.61,.39,4.68,1.16,1.07,.77,1.61,1.9,1.61,3.38,0,.94-.23,1.78-.7,2.53-.46,.75-1.24,1.3-2.33,1.67l5.81,7.18h-3.19l-5.52-6.77Zm-.12-6.89h-.46c-.18,0-.36,0-.55,.02v4.56h1.49c.86,0,1.52-.22,1.97-.65,.45-.43,.67-1.05,.67-1.85,0-.72-.22-1.25-.66-1.58s-1.26-.5-2.46-.5Z"/>
      <path class="cls-3" d="M270.36,318.53c1.41,0,2.5,.36,3.26,1.07,.77,.71,1.15,1.72,1.15,3.01,0,.18-.01,.36-.04,.56-.02,.2-.06,.4-.1,.59s-.09,.36-.14,.52c-.06,.15-.12,.28-.18,.37h-6.98c.03,.48,.12,.93,.26,1.36,.14,.42,.35,.79,.62,1.1,.27,.31,.6,.56,1,.74,.39,.18,.85,.28,1.38,.28,.59,0,1.22-.11,1.88-.34,.66-.22,1.23-.5,1.69-.84l.43,1.97c-.21,.13-.46,.27-.77,.42s-.65,.29-1.03,.42c-.38,.13-.8,.24-1.24,.32s-.9,.13-1.38,.13c-.9,0-1.69-.16-2.38-.47-.69-.31-1.26-.74-1.73-1.27-.46-.54-.82-1.16-1.06-1.86s-.36-1.44-.36-2.21,.12-1.53,.37-2.24c.25-.71,.61-1.34,1.09-1.88,.48-.54,1.08-.97,1.79-1.28,.71-.31,1.52-.47,2.44-.47Zm-.07,2.06c-.67,0-1.24,.2-1.72,.59-.47,.39-.81,.92-1.02,1.6h4.58s.03-.1,.04-.17c0-.06,.01-.14,.01-.24,0-.51-.18-.94-.53-1.27s-.81-.5-1.37-.5Z"/>
      <path class="cls-3" d="M285.98,321.62c-.18-.13-.4-.26-.66-.38-.26-.13-.55-.24-.85-.34-.3-.1-.62-.17-.95-.23s-.64-.08-.92-.08c-.54,0-1,.1-1.38,.3-.38,.2-.68,.46-.91,.79-.23,.33-.4,.71-.5,1.14-.1,.43-.16,.88-.16,1.34,0,.54,.06,1.05,.19,1.52,.13,.47,.32,.88,.58,1.24,.25,.35,.58,.63,.97,.84,.39,.21,.84,.31,1.36,.31,.58,0,1.19-.12,1.84-.35,.65-.23,1.19-.56,1.62-.97l.48,2.26c-.45,.29-1.06,.56-1.84,.82-.78,.26-1.6,.38-2.48,.38-.93,0-1.74-.16-2.44-.48-.7-.32-1.27-.75-1.73-1.28-.46-.54-.8-1.16-1.03-1.87-.23-.71-.35-1.47-.35-2.27s.11-1.5,.32-2.2,.56-1.31,1.02-1.85c.46-.54,1.06-.96,1.78-1.27s1.58-.47,2.59-.47c.77,0,1.52,.09,2.26,.26,.74,.18,1.33,.41,1.78,.7l-.58,2.14Z"/>
      <path class="cls-3" d="M293.95,318.53c.98,0,1.82,.16,2.52,.49,.7,.33,1.28,.77,1.74,1.32,.46,.55,.79,1.18,1.01,1.9s.32,1.46,.32,2.24-.11,1.52-.32,2.22-.55,1.3-1.01,1.82-1.03,.93-1.73,1.24c-.7,.3-1.52,.46-2.46,.46s-1.82-.16-2.52-.48-1.29-.75-1.75-1.28c-.46-.54-.81-1.16-1.03-1.86-.22-.7-.34-1.45-.34-2.23s.11-1.53,.34-2.23c.22-.7,.56-1.32,1.02-1.86,.46-.54,1.04-.96,1.74-1.27s1.53-.47,2.47-.47Zm.05,9.7c.46,0,.87-.1,1.21-.3s.63-.47,.85-.82c.22-.34,.39-.74,.49-1.19,.1-.45,.16-.92,.16-1.42s-.06-1-.17-1.48c-.11-.47-.28-.89-.52-1.25-.23-.36-.52-.65-.88-.86-.35-.22-.78-.32-1.27-.32-.46,0-.86,.1-1.2,.3-.34,.2-.61,.47-.83,.8-.22,.34-.38,.73-.48,1.18-.1,.45-.16,.92-.16,1.42s.05,1,.16,1.48c.1,.47,.27,.89,.5,1.26,.23,.37,.52,.66,.88,.88,.35,.22,.77,.32,1.25,.32Z"/>
      <path class="cls-3" d="M308.25,329.93h-3.19l-4.42-11.04h2.76l3.34,8.86,3.48-8.86h2.59l-4.56,11.04Z"/>
      <path class="cls-3" d="M319.53,318.53c1.41,0,2.5,.36,3.26,1.07,.77,.71,1.15,1.72,1.15,3.01,0,.18-.01,.36-.04,.56-.02,.2-.06,.4-.1,.59s-.09,.36-.14,.52c-.06,.15-.12,.28-.18,.37h-6.98c.03,.48,.12,.93,.26,1.36,.14,.42,.35,.79,.62,1.1,.27,.31,.6,.56,1,.74,.39,.18,.85,.28,1.38,.28,.59,0,1.22-.11,1.88-.34,.66-.22,1.23-.5,1.69-.84l.43,1.97c-.21,.13-.46,.27-.77,.42s-.65,.29-1.03,.42c-.38,.13-.8,.24-1.24,.32s-.9,.13-1.38,.13c-.9,0-1.69-.16-2.38-.47-.69-.31-1.26-.74-1.73-1.27-.46-.54-.82-1.16-1.06-1.86s-.36-1.44-.36-2.21,.12-1.53,.37-2.24c.25-.71,.61-1.34,1.09-1.88,.48-.54,1.08-.97,1.79-1.28,.71-.31,1.52-.47,2.44-.47Zm-.07,2.06c-.67,0-1.24,.2-1.72,.59-.47,.39-.81,.92-1.02,1.6h4.58s.03-.1,.04-.17c0-.06,.01-.14,.01-.24,0-.51-.18-.94-.53-1.27s-.81-.5-1.37-.5Z"/>
      <path class="cls-3" d="M332.95,321.29c-.16-.13-.41-.23-.74-.31-.34-.08-.62-.12-.86-.12-.32,0-.58,.08-.79,.23-.21,.15-.39,.35-.55,.6-.16,.25-.3,.53-.41,.85-.11,.32-.22,.65-.31,.98v6.41h-2.64v-11.04h2.06l.12,2.3h.1c.16-.34,.33-.66,.5-.98,.18-.32,.38-.6,.6-.85,.22-.25,.48-.45,.78-.6,.3-.15,.64-.23,1.04-.23,.64,0,1.24,.21,1.8,.62l-.7,2.14Z"/>
      <path class="cls-3" d="M340.39,326.74l3.07-7.85h2.54l-4.56,11.14c-.22,.56-.53,1.19-.92,1.88-.39,.7-.86,1.35-1.39,1.97-.54,.62-1.14,1.14-1.81,1.56s-1.4,.64-2.18,.64c-.13,0-.22,0-.29-.01-.06,0-.14-.03-.22-.06l-.46-2.06s.1,.03,.17,.05c.06,.02,.2,.02,.41,.02,.3,0,.6-.03,.9-.1,.3-.06,.6-.19,.9-.38,.58-.37,1.08-.88,1.5-1.54,.42-.66,.84-1.46,1.24-2.42l-5.5-10.68h2.76l3.84,7.85Z"/>
    </g>
    <g>
      <path class="cls-3" d="M172.47,203.01h-4.8v4.8h6.89v2.4h-9.65v-15.84h9.17v2.4h-6.41v3.84h4.8v2.4Z"/>
      <path class="cls-3" d="M183.87,210.21l-.19-1.51h-.1c-.43,.54-1.02,.98-1.76,1.31s-1.5,.49-2.27,.49c-1.01,0-1.8-.29-2.38-.88s-.86-1.36-.86-2.32c0-.66,.14-1.24,.42-1.76,.28-.52,.68-.96,1.21-1.32,.53-.36,1.16-.64,1.9-.83s1.56-.29,2.47-.29h1.03v-.36c0-.62-.2-1.08-.6-1.37-.42-.29-1.06-.43-1.94-.43-1.18,0-2.24,.26-3.17,.79l-.5-1.99c1.07-.62,2.37-.94,3.89-.94,1.6,0,2.82,.33,3.65,.98,.38,.3,.7,.7,.95,1.18,.25,.48,.37,1.06,.37,1.73v7.51h-2.11Zm-3.29-1.85c.51,0,1.02-.12,1.54-.37,.51-.25,.92-.58,1.22-1v-2.18h-.46c-1.31,0-2.27,.17-2.87,.5-.6,.34-.9,.87-.9,1.61,0,.96,.49,1.44,1.46,1.44Z"/>
      <path class="cls-3" d="M195.48,201.57c-.16-.13-.41-.23-.74-.31-.34-.08-.62-.12-.86-.12-.32,0-.58,.08-.79,.23-.21,.15-.39,.35-.55,.6-.16,.25-.3,.53-.41,.85-.11,.32-.22,.65-.31,.98v6.41h-2.64v-11.04h2.06l.12,2.3h.1c.16-.34,.33-.66,.5-.98,.18-.32,.38-.6,.6-.85,.22-.25,.48-.45,.78-.6,.3-.15,.64-.23,1.04-.23,.64,0,1.24,.21,1.8,.62l-.7,2.14Z"/>
      <path class="cls-3" d="M200.93,210.21h-2.64v-17.76h2.64v17.76Z"/>
      <path class="cls-3" d="M209.16,207.02l3.07-7.85h2.54l-4.56,11.14c-.22,.56-.53,1.19-.92,1.88-.39,.7-.86,1.35-1.39,1.97-.54,.62-1.14,1.14-1.81,1.56s-1.4,.64-2.18,.64c-.13,0-.22,0-.29-.01-.06,0-.14-.03-.22-.06l-.46-2.06s.1,.03,.17,.05c.06,.02,.2,.02,.41,.02,.3,0,.6-.03,.9-.1,.3-.06,.6-.19,.9-.38,.58-.37,1.08-.88,1.5-1.54,.42-.66,.84-1.46,1.24-2.42l-5.5-10.68h2.76l3.84,7.85Z"/>
      <path class="cls-3" d="M163.94,237.69c-.72,.48-1.54,.87-2.47,1.16-.93,.3-1.94,.44-3.05,.44-1.33,0-2.47-.22-3.43-.65-.96-.43-1.76-1.02-2.39-1.75s-1.1-1.59-1.4-2.56c-.3-.97-.46-2-.46-3.08s.17-2.2,.5-3.19,.84-1.86,1.5-2.6c.66-.74,1.49-1.33,2.48-1.76,.99-.43,2.15-.65,3.48-.65,.9,0,1.78,.09,2.66,.28,.88,.18,1.66,.44,2.35,.76l-.77,2.5c-.54-.32-1.18-.6-1.9-.83-.72-.23-1.54-.35-2.45-.35s-1.68,.13-2.32,.4c-.63,.26-1.14,.64-1.52,1.14-.38,.5-.66,1.09-.84,1.79-.18,.7-.26,1.48-.26,2.36,0,3.9,1.66,5.86,4.97,5.86,.59,0,1.06-.05,1.42-.14s.73-.21,1.13-.34v-3.98h2.76v5.21Z"/>
      <path class="cls-3" d="M173.1,230.37c-.16-.13-.41-.23-.74-.31-.34-.08-.62-.12-.86-.12-.32,0-.58,.08-.79,.23-.21,.15-.39,.35-.55,.6-.16,.25-.3,.53-.41,.85-.11,.32-.22,.65-.31,.98v6.41h-2.64v-11.04h2.06l.12,2.3h.1c.16-.34,.33-.66,.5-.98,.18-.32,.38-.6,.6-.85,.22-.25,.48-.45,.78-.6,.3-.15,.64-.23,1.04-.23,.64,0,1.24,.21,1.8,.62l-.7,2.14Z"/>
      <path class="cls-3" d="M180.47,227.61c.98,0,1.82,.16,2.52,.49,.7,.33,1.28,.77,1.74,1.32,.46,.55,.79,1.18,1.01,1.9s.32,1.46,.32,2.24-.11,1.52-.32,2.22-.55,1.3-1.01,1.82-1.03,.93-1.73,1.24c-.7,.3-1.52,.46-2.46,.46s-1.82-.16-2.52-.48-1.29-.75-1.75-1.28c-.46-.54-.81-1.16-1.03-1.86-.22-.7-.34-1.45-.34-2.23s.11-1.53,.34-2.23c.22-.7,.56-1.32,1.02-1.86,.46-.54,1.04-.96,1.74-1.27s1.53-.47,2.47-.47Zm.05,9.7c.46,0,.87-.1,1.21-.3s.63-.47,.85-.82c.22-.34,.39-.74,.49-1.19,.1-.45,.16-.92,.16-1.42s-.06-1-.17-1.48c-.11-.47-.28-.89-.52-1.25-.23-.36-.52-.65-.88-.86-.35-.22-.78-.32-1.27-.32-.46,0-.86,.1-1.2,.3-.34,.2-.61,.47-.83,.8-.22,.34-.38,.73-.48,1.18-.1,.45-.16,.92-.16,1.42s.05,1,.16,1.48c.1,.47,.27,.89,.5,1.26,.23,.37,.52,.66,.88,.88,.35,.22,.77,.32,1.25,.32Z"/>
      <path class="cls-3" d="M196.86,231.33l-2.38,7.68h-3.19l-4.01-11.04h2.76l2.88,8.47,2.62-8.47h2.64l2.62,8.47,2.88-8.47h2.71l-4.01,11.04h-3.14l-2.38-7.68Z"/>
      <path class="cls-3" d="M208.86,229.58h-1.37v-1.44l1.56-.24,.43-3.26h2.02v3.34h2.11v1.61h-2.11v6.34c0,.48,.05,.8,.14,.97,.1,.17,.28,.25,.55,.25,.21,0,.42-.04,.62-.12,.21-.08,.51-.23,.91-.46l.43,1.9c-.3,.26-.73,.46-1.28,.61-.55,.15-1.1,.23-1.64,.23-.48,0-.88-.06-1.19-.19-.31-.13-.56-.32-.73-.56-.18-.25-.3-.55-.36-.9-.06-.35-.1-.74-.1-1.18v-6.89Z"/>
      <path class="cls-3" d="M218.97,229.6c.45-.7,.97-1.21,1.57-1.52,.6-.31,1.31-.47,2.12-.47,.48,0,.94,.07,1.39,.2s.84,.36,1.19,.66c.34,.3,.62,.7,.82,1.2,.2,.5,.3,1.1,.3,1.82v7.51h-2.64v-7.3c0-.66-.14-1.15-.43-1.48-.29-.33-.68-.49-1.18-.49-.3,0-.62,.05-.95,.14-.33,.1-.64,.24-.92,.43s-.54,.42-.77,.7c-.22,.27-.39,.58-.5,.91v7.08h-2.64v-17.76h2.64v8.35Z"/>
    </g>
    <g>
      <path d="M447.52,14.51c0,1.21,.28,2.08,.84,2.61,.56,.53,1.34,.79,2.34,.79s1.78-.26,2.35-.79c.57-.53,.85-1.4,.85-2.61V6.43h2.2V14.99c0,.65-.11,1.27-.32,1.86-.21,.59-.54,1.1-.99,1.55-.45,.45-1.02,.8-1.72,1.06-.7,.26-1.53,.39-2.49,.39s-1.78-.13-2.46-.39c-.68-.26-1.24-.61-1.67-1.06-.43-.45-.75-.96-.94-1.55-.19-.59-.29-1.21-.29-1.86V6.43h2.3V14.51Z"/>
      <path d="M459.28,11.77h-1.14v-1.2l1.3-.2,.36-2.72h1.68v2.78h1.76v1.34h-1.76v5.28c0,.4,.04,.67,.12,.81s.23,.21,.46,.21c.17,0,.35-.03,.52-.1,.17-.07,.43-.19,.76-.38l.36,1.58c-.25,.21-.61,.38-1.07,.51-.46,.13-.92,.19-1.37,.19-.4,0-.73-.05-.99-.16s-.46-.26-.61-.47c-.15-.21-.25-.46-.3-.75-.05-.29-.08-.62-.08-.98v-5.74Z"/>
      <path d="M465.18,7.47c0-.19,.04-.37,.11-.54,.07-.17,.18-.33,.31-.47,.13-.14,.28-.25,.45-.33s.35-.12,.55-.12c.19,0,.37,.04,.54,.12,.17,.08,.33,.19,.47,.33,.14,.14,.25,.3,.33,.47,.08,.17,.12,.35,.12,.54,0,.2-.04,.38-.12,.55s-.19,.32-.33,.45c-.14,.13-.3,.24-.47,.31-.17,.07-.35,.11-.54,.11-.39,0-.72-.14-1-.42-.28-.28-.42-.61-.42-1Zm2.52,12.16h-2.2V10.43h2.2v9.2Z"/>
      <path d="M472.78,19.63h-2.2V4.83h2.2v14.8Z"/>
      <path d="M475.34,7.47c0-.19,.04-.37,.11-.54,.07-.17,.18-.33,.31-.47,.13-.14,.28-.25,.45-.33s.35-.12,.55-.12c.19,0,.37,.04,.54,.12,.17,.08,.33,.19,.47,.33,.14,.14,.25,.3,.33,.47,.08,.17,.12,.35,.12,.54,0,.2-.04,.38-.12,.55s-.19,.32-.33,.45c-.14,.13-.3,.24-.47,.31-.17,.07-.35,.11-.54,.11-.39,0-.72-.14-1-.42-.28-.28-.42-.61-.42-1Zm2.52,12.16h-2.2V10.43h2.2v9.2Z"/>
      <path d="M481.04,11.77h-1.14v-1.2l1.3-.2,.36-2.72h1.68v2.78h1.76v1.34h-1.76v5.28c0,.4,.04,.67,.12,.81s.23,.21,.46,.21c.17,0,.35-.03,.52-.1,.17-.07,.43-.19,.76-.38l.36,1.58c-.25,.21-.61,.38-1.07,.51-.46,.13-.92,.19-1.37,.19-.4,0-.73-.05-.99-.16s-.46-.26-.61-.47c-.15-.21-.25-.46-.3-.75-.05-.29-.08-.62-.08-.98v-5.74Z"/>
      <path d="M486.94,7.47c0-.19,.04-.37,.11-.54,.07-.17,.18-.33,.31-.47,.13-.14,.28-.25,.45-.33s.35-.12,.55-.12c.19,0,.37,.04,.54,.12,.17,.08,.33,.19,.47,.33,.14,.14,.25,.3,.33,.47,.08,.17,.12,.35,.12,.54,0,.2-.04,.38-.12,.55s-.19,.32-.33,.45c-.14,.13-.3,.24-.47,.31-.17,.07-.35,.11-.54,.11-.39,0-.72-.14-1-.42-.28-.28-.42-.61-.42-1Zm2.52,12.16h-2.2V10.43h2.2v9.2Z"/>
      <path d="M496.4,10.13c1.17,0,2.08,.3,2.72,.89,.64,.59,.96,1.43,.96,2.51,0,.15,0,.3-.03,.47-.02,.17-.05,.33-.08,.49-.03,.16-.07,.3-.12,.43-.05,.13-.1,.23-.15,.31h-5.82c.03,.4,.1,.78,.22,1.13,.12,.35,.29,.66,.52,.92,.23,.26,.5,.47,.83,.62,.33,.15,.71,.23,1.15,.23,.49,0,1.02-.09,1.57-.28,.55-.19,1.02-.42,1.41-.7l.36,1.64c-.17,.11-.39,.22-.64,.35-.25,.13-.54,.24-.86,.35-.32,.11-.66,.2-1.03,.27-.37,.07-.75,.11-1.15,.11-.75,0-1.41-.13-1.98-.39-.57-.26-1.05-.61-1.44-1.06s-.68-.96-.88-1.55c-.2-.59-.3-1.2-.3-1.84s.1-1.28,.31-1.87c.21-.59,.51-1.12,.91-1.57,.4-.45,.9-.81,1.49-1.07,.59-.26,1.27-.39,2.03-.39Zm-.06,1.72c-.56,0-1.04,.16-1.43,.49-.39,.33-.68,.77-.85,1.33h3.82s.02-.09,.03-.14c0-.05,0-.12,0-.2,0-.43-.15-.78-.44-1.06-.29-.28-.67-.42-1.14-.42Z"/>
      <path d="M505.12,11.77c-.44,0-.78,.08-1.03,.25-.25,.17-.37,.4-.37,.71,0,.2,.07,.38,.21,.55,.14,.17,.44,.3,.89,.41l1.42,.32c.56,.12,1.01,.29,1.35,.52,.34,.23,.61,.47,.8,.74s.32,.54,.39,.82c.07,.28,.1,.54,.1,.78,0,.43-.09,.82-.26,1.19-.17,.37-.42,.68-.74,.95-.32,.27-.71,.48-1.16,.63-.45,.15-.96,.23-1.52,.23-.71,0-1.36-.1-1.96-.31-.6-.21-1.08-.44-1.44-.69l.52-1.9c.45,.44,.96,.77,1.53,.98,.57,.21,1.09,.32,1.57,.32,.51,0,.89-.11,1.16-.33,.27-.22,.4-.52,.4-.91,0-.23-.07-.42-.2-.57s-.4-.28-.8-.39l-1.92-.48c-.45-.11-.82-.26-1.11-.46s-.51-.42-.68-.67c-.17-.25-.28-.5-.34-.77-.06-.27-.09-.52-.09-.76,0-.89,.31-1.58,.94-2.07,.63-.49,1.44-.73,2.44-.73,.52,0,1.08,.07,1.68,.21s1.11,.34,1.52,.61l-.58,1.8c-.27-.21-.64-.43-1.12-.65-.48-.22-1.01-.33-1.6-.33Z"/>
      <path d="M453.96,32.43h-3.82v11.2h-2.3v-11.2h-3.82v-2h9.94v2Z"/>
      <path d="M458.24,34.13c1.17,0,2.08,.3,2.72,.89,.64,.59,.96,1.43,.96,2.51,0,.15,0,.3-.03,.47-.02,.17-.05,.33-.08,.49-.03,.16-.07,.3-.12,.43-.05,.13-.1,.23-.15,.31h-5.82c.03,.4,.1,.78,.22,1.13,.12,.35,.29,.66,.52,.92,.23,.26,.5,.47,.83,.62,.33,.15,.71,.23,1.15,.23,.49,0,1.02-.09,1.57-.28,.55-.19,1.02-.42,1.41-.7l.36,1.64c-.17,.11-.39,.22-.64,.35-.25,.13-.54,.24-.86,.35-.32,.11-.66,.2-1.03,.27-.37,.07-.75,.11-1.15,.11-.75,0-1.41-.13-1.98-.39-.57-.26-1.05-.61-1.44-1.06s-.68-.96-.88-1.55c-.2-.59-.3-1.2-.3-1.84s.1-1.28,.31-1.87c.21-.59,.51-1.12,.91-1.57,.4-.45,.9-.81,1.49-1.07,.59-.26,1.27-.39,2.03-.39Zm-.06,1.72c-.56,0-1.04,.16-1.43,.49-.39,.33-.68,.77-.85,1.33h3.82s.02-.09,.03-.14c0-.05,0-.12,0-.2,0-.43-.15-.78-.44-1.06-.29-.28-.67-.42-1.14-.42Z"/>
      <path d="M471.26,36.71c-.15-.11-.33-.21-.55-.32-.22-.11-.46-.2-.71-.28s-.52-.14-.79-.19c-.27-.05-.53-.07-.77-.07-.45,0-.84,.08-1.15,.25-.31,.17-.57,.39-.76,.66-.19,.27-.33,.59-.42,.95s-.13,.73-.13,1.12c0,.45,.05,.88,.16,1.27,.11,.39,.27,.74,.48,1.03,.21,.29,.48,.53,.81,.7,.33,.17,.7,.26,1.13,.26,.48,0,.99-.1,1.53-.29,.54-.19,.99-.46,1.35-.81l.4,1.88c-.37,.24-.88,.47-1.53,.68-.65,.21-1.34,.32-2.07,.32-.77,0-1.45-.13-2.03-.4s-1.06-.62-1.44-1.07-.67-.97-.86-1.56-.29-1.22-.29-1.89,.09-1.25,.27-1.83c.18-.58,.46-1.09,.85-1.54s.88-.8,1.48-1.06c.6-.26,1.32-.39,2.16-.39,.64,0,1.27,.07,1.88,.22,.61,.15,1.11,.34,1.48,.58l-.48,1.78Z"/>
      <path d="M476.14,35.79c.37-.59,.81-1.01,1.31-1.27,.5-.26,1.09-.39,1.77-.39,.4,0,.79,.06,1.16,.17,.37,.11,.7,.3,.99,.55,.29,.25,.51,.59,.68,1,.17,.41,.25,.92,.25,1.52v6.26h-2.2v-6.08c0-.55-.12-.96-.36-1.23-.24-.27-.57-.41-.98-.41-.25,0-.52,.04-.79,.12s-.53,.2-.77,.36c-.24,.16-.45,.35-.64,.58-.19,.23-.33,.48-.42,.76v5.9h-2.2v-14.8h2.2v6.96Z"/>
      <path d="M491.14,43.63v-6.08c0-1.09-.47-1.64-1.4-1.64-.23,0-.47,.04-.73,.12s-.51,.2-.75,.35-.46,.34-.65,.57c-.19,.23-.34,.49-.43,.78v5.9h-2.2v-9.2h1.72l.1,1.36h.08c.28-.56,.72-.98,1.31-1.25s1.23-.41,1.91-.41c.44,0,.85,.06,1.24,.17s.73,.3,1.03,.55c.3,.25,.54,.59,.71,1,.17,.41,.26,.92,.26,1.52v6.26h-2.2Z"/>
      <path d="M500.02,34.13c.81,0,1.51,.14,2.1,.41s1.07,.64,1.45,1.1c.38,.46,.66,.99,.84,1.58,.18,.59,.27,1.22,.27,1.87s-.09,1.27-.27,1.85-.46,1.09-.84,1.52c-.38,.43-.86,.78-1.44,1.03-.58,.25-1.26,.38-2.05,.38s-1.51-.13-2.1-.4c-.59-.27-1.07-.62-1.46-1.07-.39-.45-.67-.96-.86-1.55-.19-.59-.28-1.21-.28-1.86s.09-1.27,.28-1.86c.19-.59,.47-1.1,.85-1.55s.86-.8,1.45-1.06c.59-.26,1.27-.39,2.06-.39Zm.04,8.08c.39,0,.72-.08,1.01-.25,.29-.17,.52-.39,.71-.68,.19-.29,.32-.62,.41-.99,.09-.37,.13-.77,.13-1.18s-.05-.84-.14-1.23c-.09-.39-.24-.74-.43-1.04s-.44-.54-.73-.72c-.29-.18-.65-.27-1.06-.27-.39,0-.72,.08-1,.25-.28,.17-.51,.39-.69,.67-.18,.28-.31,.61-.4,.98-.09,.37-.13,.77-.13,1.18s.04,.84,.13,1.23c.09,.39,.23,.74,.42,1.05s.44,.55,.73,.73c.29,.18,.64,.27,1.04,.27Z"/>
      <path d="M509.22,43.63h-2.2v-14.8h2.2v14.8Z"/>
      <path d="M516.2,34.13c.81,0,1.51,.14,2.1,.41s1.07,.64,1.45,1.1c.38,.46,.66,.99,.84,1.58,.18,.59,.27,1.22,.27,1.87s-.09,1.27-.27,1.85-.46,1.09-.84,1.52c-.38,.43-.86,.78-1.44,1.03-.58,.25-1.26,.38-2.05,.38s-1.51-.13-2.1-.4c-.59-.27-1.07-.62-1.46-1.07-.39-.45-.67-.96-.86-1.55-.19-.59-.28-1.21-.28-1.86s.09-1.27,.28-1.86c.19-.59,.47-1.1,.85-1.55s.86-.8,1.45-1.06c.59-.26,1.27-.39,2.06-.39Zm.04,8.08c.39,0,.72-.08,1.01-.25,.29-.17,.52-.39,.71-.68,.19-.29,.32-.62,.41-.99,.09-.37,.13-.77,.13-1.18s-.05-.84-.14-1.23c-.09-.39-.24-.74-.43-1.04s-.44-.54-.73-.72c-.29-.18-.65-.27-1.06-.27-.39,0-.72,.08-1,.25-.28,.17-.51,.39-.69,.67-.18,.28-.31,.61-.4,.98-.09,.37-.13,.77-.13,1.18s.04,.84,.13,1.23c.09,.39,.23,.74,.42,1.05s.44,.55,.73,.73c.29,.18,.64,.27,1.04,.27Z"/>
      <path d="M524.29,40.73c-.6-.25-1.03-.65-1.3-1.18-.27-.53-.4-1.11-.4-1.74,0-.52,.09-1.01,.26-1.46,.17-.45,.42-.84,.75-1.17s.72-.58,1.18-.77c.46-.19,.98-.28,1.57-.28,.35,0,.69,.03,1.03,.1,.34,.06,.64,.16,.89,.29,.56,0,1.07-.04,1.53-.11s.9-.17,1.33-.3l.18,.14-.22,1.52-.1,.1-1.42-.16-.02,.06c.45,.57,.68,1.25,.68,2.02,0,.47-.08,.9-.25,1.31s-.41,.76-.73,1.06c-.32,.3-.72,.54-1.19,.72-.47,.18-1.01,.27-1.61,.27-.15,0-.26,0-.35-.01-.09,0-.17,0-.25,0-.23,.08-.4,.18-.52,.31-.12,.13-.18,.26-.18,.39,0,.15,.07,.27,.22,.38,.15,.11,.37,.18,.68,.22l1.94,.24c.44,.05,.85,.15,1.23,.28,.38,.13,.71,.31,1,.54,.29,.23,.51,.5,.67,.82,.16,.32,.24,.69,.24,1.1s-.09,.81-.26,1.2c-.17,.39-.45,.73-.82,1.02-.37,.29-.84,.53-1.41,.7-.57,.17-1.25,.26-2.05,.26-.71,0-1.33-.07-1.87-.21s-1-.33-1.37-.57c-.37-.24-.66-.52-.85-.85-.19-.33-.29-.68-.29-1.05,0-.27,.05-.53,.14-.79,.09-.26,.22-.5,.39-.72s.36-.42,.58-.59c.22-.17,.46-.3,.71-.38v-.08c-.31-.13-.52-.31-.64-.54s-.18-.45-.18-.66c0-.28,.09-.54,.28-.78,.19-.24,.45-.43,.8-.56v-.08Zm1.52,3.34c-.45,.08-.84,.27-1.16,.57-.32,.3-.48,.64-.48,1.03,0,.43,.21,.75,.63,.96,.42,.21,1.03,.32,1.83,.32s1.41-.11,1.88-.33c.47-.22,.7-.58,.7-1.07s-.26-.82-.78-1.02c-.52-.2-1.39-.35-2.62-.46Zm.62-4.46c.55,0,.96-.18,1.24-.53,.28-.35,.42-.78,.42-1.29,0-.24-.03-.48-.1-.73s-.17-.47-.32-.67c-.15-.2-.33-.36-.55-.49-.22-.13-.48-.19-.77-.19s-.53,.06-.74,.17-.39,.26-.53,.45c-.14,.19-.24,.4-.31,.63-.07,.23-.1,.47-.1,.71s.04,.48,.11,.71c.07,.23,.18,.44,.33,.62,.15,.18,.33,.33,.55,.44,.22,.11,.48,.17,.77,.17Z"/>
      <path d="M537.02,40.97l2.56-6.54h2.12l-3.8,9.28c-.19,.47-.44,.99-.77,1.57-.33,.58-.71,1.13-1.16,1.64-.45,.51-.95,.95-1.51,1.3-.56,.35-1.17,.53-1.82,.53-.11,0-.19,0-.24-.01-.05,0-.11-.02-.18-.05l-.38-1.72s.09,.03,.14,.04c.05,.01,.17,.02,.34,.02,.25,0,.5-.03,.75-.08,.25-.05,.5-.16,.75-.32,.48-.31,.9-.73,1.25-1.28,.35-.55,.7-1.22,1.03-2.02l-4.58-8.9h2.3l3.2,6.54Z"/>
    </g>
    <g>
      <path d="M516.85,243.4c-.43-.29-.94-.53-1.53-.71-.59-.18-1.27-.27-2.03-.27-.72,0-1.34,.11-1.85,.34-.51,.23-.93,.55-1.25,.96-.32,.41-.56,.91-.71,1.49-.15,.58-.23,1.22-.23,1.93,0,1.61,.34,2.83,1.03,3.66s1.68,1.24,2.97,1.24c.8,0,1.53-.12,2.19-.36,.66-.24,1.2-.53,1.63-.88l.6,1.98c-.53,.32-1.18,.6-1.93,.85-.75,.25-1.6,.37-2.55,.37-1.09,0-2.04-.18-2.84-.54-.8-.36-1.46-.85-1.99-1.46s-.92-1.32-1.17-2.13c-.25-.81-.38-1.66-.38-2.57s.14-1.83,.42-2.66c.28-.83,.7-1.55,1.25-2.17,.55-.62,1.24-1.11,2.06-1.47,.82-.36,1.78-.54,2.87-.54,.72,0,1.44,.08,2.16,.23,.72,.15,1.34,.36,1.86,.63l-.58,2.08Z"/>
      <path d="M523.61,244.26c.81,0,1.51,.14,2.1,.41s1.07,.64,1.45,1.1c.38,.46,.66,.99,.84,1.58,.18,.59,.27,1.22,.27,1.87s-.09,1.27-.27,1.85-.46,1.09-.84,1.52c-.38,.43-.86,.78-1.44,1.03-.58,.25-1.26,.38-2.05,.38s-1.51-.13-2.1-.4c-.59-.27-1.07-.62-1.46-1.07-.39-.45-.67-.96-.86-1.55-.19-.59-.28-1.21-.28-1.86s.09-1.27,.28-1.86c.19-.59,.47-1.1,.85-1.55s.86-.8,1.45-1.06c.59-.26,1.27-.39,2.06-.39Zm.04,8.08c.39,0,.72-.08,1.01-.25,.29-.17,.52-.39,.71-.68,.19-.29,.32-.62,.41-.99,.09-.37,.13-.77,.13-1.18s-.05-.84-.14-1.23c-.09-.39-.24-.74-.43-1.04s-.44-.54-.73-.72c-.29-.18-.65-.27-1.06-.27-.39,0-.72,.08-1,.25-.28,.17-.51,.39-.69,.67-.18,.28-.31,.61-.4,.98-.09,.37-.13,.77-.13,1.18s.04,.84,.13,1.23c.09,.39,.23,.74,.42,1.05s.44,.55,.73,.73c.29,.18,.64,.27,1.04,.27Z"/>
      <path d="M536.65,253.76v-6.08c0-1.09-.47-1.64-1.4-1.64-.23,0-.47,.04-.73,.12s-.51,.2-.75,.35-.46,.34-.65,.57c-.19,.23-.34,.49-.43,.78v5.9h-2.2v-9.2h1.72l.1,1.36h.08c.28-.56,.72-.98,1.31-1.25s1.23-.41,1.91-.41c.44,0,.85,.06,1.24,.17s.73,.3,1.03,.55c.3,.25,.54,.59,.71,1,.17,.41,.26,.92,.26,1.52v6.26h-2.2Z"/>
      <path d="M544.23,245.9c-.44,0-.78,.08-1.03,.25-.25,.17-.37,.4-.37,.71,0,.2,.07,.38,.21,.55,.14,.17,.44,.3,.89,.41l1.42,.32c.56,.12,1.01,.29,1.35,.52,.34,.23,.61,.47,.8,.74s.32,.54,.39,.82c.07,.28,.1,.54,.1,.78,0,.43-.09,.82-.26,1.19-.17,.37-.42,.68-.74,.95-.32,.27-.71,.48-1.16,.63-.45,.15-.96,.23-1.52,.23-.71,0-1.36-.1-1.96-.31-.6-.21-1.08-.44-1.44-.69l.52-1.9c.45,.44,.96,.77,1.53,.98,.57,.21,1.09,.32,1.57,.32,.51,0,.89-.11,1.16-.33,.27-.22,.4-.52,.4-.91,0-.23-.07-.42-.2-.57s-.4-.28-.8-.39l-1.92-.48c-.45-.11-.82-.26-1.11-.46s-.51-.42-.68-.67c-.17-.25-.28-.5-.34-.77-.06-.27-.09-.52-.09-.76,0-.89,.31-1.58,.94-2.07,.63-.49,1.44-.73,2.44-.73,.52,0,1.08,.07,1.68,.21s1.11,.34,1.52,.61l-.58,1.8c-.27-.21-.64-.43-1.12-.65-.48-.22-1.01-.33-1.6-.33Z"/>
      <path d="M552.21,244.56v5.98c0,.55,.14,.96,.43,1.25s.66,.43,1.11,.43,.89-.16,1.28-.47c.39-.31,.67-.76,.86-1.35v-5.84h2.22v9.2h-1.72l-.12-1.28h-.08c-.15,.31-.33,.56-.56,.75s-.48,.35-.75,.46c-.27,.11-.56,.19-.85,.24-.29,.05-.58,.07-.86,.07-.44,0-.85-.05-1.23-.16-.38-.11-.71-.28-1-.53-.29-.25-.51-.57-.68-.98-.17-.41-.25-.91-.25-1.51v-6.26h2.2Z"/>
      <path d="M566.83,253.76v-6.08c0-1.09-.43-1.64-1.3-1.64-.21,0-.44,.04-.69,.12-.25,.08-.49,.2-.72,.35s-.45,.34-.64,.57c-.19,.23-.33,.49-.41,.78v5.9h-2.2v-9.2h1.72l.1,1.36h.08c.27-.56,.69-.98,1.27-1.25s1.2-.41,1.85-.41,1.2,.12,1.71,.37c.51,.25,.9,.67,1.15,1.27,.27-.55,.69-.96,1.26-1.23s1.19-.41,1.84-.41c.43,0,.83,.06,1.21,.17s.71,.3,1,.55c.29,.25,.51,.59,.68,1,.17,.41,.25,.92,.25,1.52v6.26h-2.2v-6.08c0-1.09-.43-1.64-1.3-1.64-.21,0-.44,.04-.69,.12-.25,.08-.49,.2-.72,.35s-.45,.34-.64,.57c-.19,.23-.33,.49-.41,.78v5.9h-2.2Z"/>
      <path d="M582.69,244.26c.72,0,1.34,.14,1.86,.41,.52,.27,.95,.64,1.29,1.09,.34,.45,.59,.98,.75,1.57,.16,.59,.24,1.21,.24,1.85s-.08,1.27-.25,1.86c-.17,.59-.42,1.1-.77,1.54s-.78,.79-1.3,1.04c-.52,.25-1.14,.38-1.86,.38-.6,0-1.16-.09-1.67-.26-.51-.17-.92-.45-1.23-.84v6.06h-2.18v-14.4h1.76l.16,1.26h.08c.17-.21,.38-.42,.62-.61s.5-.36,.78-.5c.28-.14,.57-.25,.86-.33,.29-.08,.58-.12,.86-.12Zm-.36,1.68c-.2,0-.42,.03-.66,.09-.24,.06-.48,.15-.71,.26-.23,.11-.46,.25-.67,.41-.21,.16-.39,.34-.54,.54v3.9c.4,.49,.81,.8,1.23,.93,.42,.13,.8,.19,1.15,.19,.44,0,.82-.08,1.13-.24,.31-.16,.57-.38,.78-.65,.21-.27,.36-.59,.46-.96,.1-.37,.15-.76,.15-1.19,0-.4-.04-.8-.13-1.19-.09-.39-.23-.74-.42-1.05s-.44-.56-.73-.75-.64-.29-1.04-.29Z"/>
      <path d="M589.39,245.9h-1.14v-1.2l1.3-.2,.36-2.72h1.68v2.78h1.76v1.34h-1.76v5.28c0,.4,.04,.67,.12,.81s.23,.21,.46,.21c.17,0,.35-.03,.52-.1,.17-.07,.43-.19,.76-.38l.36,1.58c-.25,.21-.61,.38-1.07,.51-.46,.13-.92,.19-1.37,.19-.4,0-.73-.05-.99-.16s-.46-.26-.61-.47c-.15-.21-.25-.46-.3-.75-.05-.29-.08-.62-.08-.98v-5.74Z"/>
      <path d="M595.29,241.6c0-.19,.04-.37,.11-.54,.07-.17,.18-.33,.31-.47,.13-.14,.28-.25,.45-.33s.35-.12,.55-.12c.19,0,.37,.04,.54,.12,.17,.08,.33,.19,.47,.33,.14,.14,.25,.3,.33,.47,.08,.17,.12,.35,.12,.54,0,.2-.04,.38-.12,.55s-.19,.32-.33,.45c-.14,.13-.3,.24-.47,.31-.17,.07-.35,.11-.54,.11-.39,0-.72-.14-1-.42-.28-.28-.42-.61-.42-1Zm2.52,12.16h-2.2v-9.2h2.2v9.2Z"/>
      <path d="M604.67,244.26c.81,0,1.51,.14,2.1,.41s1.07,.64,1.45,1.1c.38,.46,.66,.99,.84,1.58,.18,.59,.27,1.22,.27,1.87s-.09,1.27-.27,1.85-.46,1.09-.84,1.52c-.38,.43-.86,.78-1.44,1.03-.58,.25-1.26,.38-2.05,.38s-1.51-.13-2.1-.4c-.59-.27-1.07-.62-1.46-1.07-.39-.45-.67-.96-.86-1.55-.19-.59-.28-1.21-.28-1.86s.09-1.27,.28-1.86c.19-.59,.47-1.1,.85-1.55s.86-.8,1.45-1.06c.59-.26,1.27-.39,2.06-.39Zm.04,8.08c.39,0,.72-.08,1.01-.25,.29-.17,.52-.39,.71-.68,.19-.29,.32-.62,.41-.99,.09-.37,.13-.77,.13-1.18s-.05-.84-.14-1.23c-.09-.39-.24-.74-.43-1.04s-.44-.54-.73-.72c-.29-.18-.65-.27-1.06-.27-.39,0-.72,.08-1,.25-.28,.17-.51,.39-.69,.67-.18,.28-.31,.61-.4,.98-.09,.37-.13,.77-.13,1.18s.04,.84,.13,1.23c.09,.39,.23,.74,.42,1.05s.44,.55,.73,.73c.29,.18,.64,.27,1.04,.27Z"/>
      <path d="M617.71,253.76v-6.08c0-1.09-.47-1.64-1.4-1.64-.23,0-.47,.04-.73,.12s-.51,.2-.75,.35-.46,.34-.65,.57c-.19,.23-.34,.49-.43,.78v5.9h-2.2v-9.2h1.72l.1,1.36h.08c.28-.56,.72-.98,1.31-1.25s1.23-.41,1.91-.41c.44,0,.85,.06,1.24,.17s.73,.3,1.03,.55c.3,.25,.54,.59,.71,1,.17,.41,.26,.92,.26,1.52v6.26h-2.2Z"/>
      <path d="M513.35,277.76v-6.08c0-1.09-.47-1.64-1.4-1.64-.23,0-.47,.04-.73,.12s-.51,.2-.75,.35-.46,.34-.65,.57c-.19,.23-.34,.49-.43,.78v5.9h-2.2v-9.2h1.72l.1,1.36h.08c.28-.56,.72-.98,1.31-1.25s1.23-.41,1.91-.41c.44,0,.85,.06,1.24,.17s.73,.3,1.03,.55c.3,.25,.54,.59,.71,1,.17,.41,.26,.92,.26,1.52v6.26h-2.2Z"/>
      <path d="M522.23,268.26c.81,0,1.51,.14,2.1,.41s1.07,.64,1.45,1.1c.38,.46,.66,.99,.84,1.58,.18,.59,.27,1.22,.27,1.87s-.09,1.27-.27,1.85-.46,1.09-.84,1.52c-.38,.43-.86,.78-1.44,1.03-.58,.25-1.26,.38-2.05,.38s-1.51-.13-2.1-.4c-.59-.27-1.07-.62-1.46-1.07-.39-.45-.67-.96-.86-1.55-.19-.59-.28-1.21-.28-1.86s.09-1.27,.28-1.86c.19-.59,.47-1.1,.85-1.55s.86-.8,1.45-1.06c.59-.26,1.27-.39,2.06-.39Zm.04,8.08c.39,0,.72-.08,1.01-.25,.29-.17,.52-.39,.71-.68,.19-.29,.32-.62,.41-.99,.09-.37,.13-.77,.13-1.18s-.05-.84-.14-1.23c-.09-.39-.24-.74-.43-1.04s-.44-.54-.73-.72c-.29-.18-.65-.27-1.06-.27-.39,0-.72,.08-1,.25-.28,.17-.51,.39-.69,.67-.18,.28-.31,.61-.4,.98-.09,.37-.13,.77-.13,1.18s.04,.84,.13,1.23c.09,.39,.23,.74,.42,1.05s.44,.55,.73,.73c.29,.18,.64,.27,1.04,.27Z"/>
      <path d="M535.27,277.76v-6.08c0-1.09-.47-1.64-1.4-1.64-.23,0-.47,.04-.73,.12s-.51,.2-.75,.35-.46,.34-.65,.57c-.19,.23-.34,.49-.43,.78v5.9h-2.2v-9.2h1.72l.1,1.36h.08c.28-.56,.72-.98,1.31-1.25s1.23-.41,1.91-.41c.44,0,.85,.06,1.24,.17s.73,.3,1.03,.55c.3,.25,.54,.59,.71,1,.17,.41,.26,.92,.26,1.52v6.26h-2.2Z"/>
      <path d="M546.73,272.16v1.64h-6.76v-1.64h6.76Z"/>
      <path d="M556.51,270.84c-.15-.11-.33-.21-.55-.32-.22-.11-.46-.2-.71-.28s-.52-.14-.79-.19c-.27-.05-.53-.07-.77-.07-.45,0-.84,.08-1.15,.25-.31,.17-.57,.39-.76,.66-.19,.27-.33,.59-.42,.95s-.13,.73-.13,1.12c0,.45,.05,.88,.16,1.27,.11,.39,.27,.74,.48,1.03,.21,.29,.48,.53,.81,.7,.33,.17,.7,.26,1.13,.26,.48,0,.99-.1,1.53-.29,.54-.19,.99-.46,1.35-.81l.4,1.88c-.37,.24-.88,.47-1.53,.68-.65,.21-1.34,.32-2.07,.32-.77,0-1.45-.13-2.03-.4s-1.06-.62-1.44-1.07-.67-.97-.86-1.56-.29-1.22-.29-1.89,.09-1.25,.27-1.83c.18-.58,.46-1.09,.85-1.54s.88-.8,1.48-1.06c.6-.26,1.32-.39,2.16-.39,.64,0,1.27,.07,1.88,.22,.61,.15,1.11,.34,1.48,.58l-.48,1.78Z"/>
      <path d="M563.17,275.1l2.56-6.54h2.12l-3.8,9.28c-.19,.47-.44,.99-.77,1.57-.33,.58-.71,1.13-1.16,1.64-.45,.51-.95,.95-1.51,1.3-.56,.35-1.17,.53-1.82,.53-.11,0-.19,0-.24-.01-.05,0-.11-.02-.18-.05l-.38-1.72s.09,.03,.14,.04c.05,.01,.17,.02,.34,.02,.25,0,.5-.03,.75-.08,.25-.05,.5-.16,.75-.32,.48-.31,.9-.73,1.25-1.28,.35-.55,.7-1.22,1.03-2.02l-4.58-8.9h2.3l3.2,6.54Z"/>
      <path d="M576.49,270.84c-.15-.11-.33-.21-.55-.32-.22-.11-.46-.2-.71-.28s-.52-.14-.79-.19c-.27-.05-.53-.07-.77-.07-.45,0-.84,.08-1.15,.25-.31,.17-.57,.39-.76,.66-.19,.27-.33,.59-.42,.95s-.13,.73-.13,1.12c0,.45,.05,.88,.16,1.27,.11,.39,.27,.74,.48,1.03,.21,.29,.48,.53,.81,.7,.33,.17,.7,.26,1.13,.26,.48,0,.99-.1,1.53-.29,.54-.19,.99-.46,1.35-.81l.4,1.88c-.37,.24-.88,.47-1.53,.68-.65,.21-1.34,.32-2.07,.32-.77,0-1.45-.13-2.03-.4s-1.06-.62-1.44-1.07-.67-.97-.86-1.56-.29-1.22-.29-1.89,.09-1.25,.27-1.83c.18-.58,.46-1.09,.85-1.54s.88-.8,1.48-1.06c.6-.26,1.32-.39,2.16-.39,.64,0,1.27,.07,1.88,.22,.61,.15,1.11,.34,1.48,.58l-.48,1.78Z"/>
      <path d="M581.49,277.76h-2.2v-14.8h2.2v14.8Z"/>
      <path d="M584.05,265.6c0-.19,.04-.37,.11-.54,.07-.17,.18-.33,.31-.47,.13-.14,.28-.25,.45-.33s.35-.12,.55-.12c.19,0,.37,.04,.54,.12,.17,.08,.33,.19,.47,.33,.14,.14,.25,.3,.33,.47,.08,.17,.12,.35,.12,.54,0,.2-.04,.38-.12,.55s-.19,.32-.33,.45c-.14,.13-.3,.24-.47,.31-.17,.07-.35,.11-.54,.11-.39,0-.72-.14-1-.42-.28-.28-.42-.61-.42-1Zm2.52,12.16h-2.2v-9.2h2.2v9.2Z"/>
      <path d="M596.43,270.84c-.15-.11-.33-.21-.55-.32-.22-.11-.46-.2-.71-.28s-.52-.14-.79-.19c-.27-.05-.53-.07-.77-.07-.45,0-.84,.08-1.15,.25-.31,.17-.57,.39-.76,.66-.19,.27-.33,.59-.42,.95s-.13,.73-.13,1.12c0,.45,.05,.88,.16,1.27,.11,.39,.27,.74,.48,1.03,.21,.29,.48,.53,.81,.7,.33,.17,.7,.26,1.13,.26,.48,0,.99-.1,1.53-.29,.54-.19,.99-.46,1.35-.81l.4,1.88c-.37,.24-.88,.47-1.53,.68-.65,.21-1.34,.32-2.07,.32-.77,0-1.45-.13-2.03-.4s-1.06-.62-1.44-1.07-.67-.97-.86-1.56-.29-1.22-.29-1.89,.09-1.25,.27-1.83c.18-.58,.46-1.09,.85-1.54s.88-.8,1.48-1.06c.6-.26,1.32-.39,2.16-.39,.64,0,1.27,.07,1.88,.22,.61,.15,1.11,.34,1.48,.58l-.48,1.78Z"/>
      <path d="M604.63,277.76l-.16-1.26h-.08c-.36,.45-.85,.82-1.47,1.09-.62,.27-1.25,.41-1.89,.41-.84,0-1.5-.24-1.98-.73-.48-.49-.72-1.13-.72-1.93,0-.55,.12-1.04,.35-1.47,.23-.43,.57-.8,1.01-1.1,.44-.3,.97-.53,1.58-.69,.61-.16,1.3-.24,2.06-.24h.86v-.3c0-.52-.17-.9-.5-1.14-.35-.24-.89-.36-1.62-.36-.99,0-1.87,.22-2.64,.66l-.42-1.66c.89-.52,1.97-.78,3.24-.78,1.33,0,2.35,.27,3.04,.82,.32,.25,.58,.58,.79,.98,.21,.4,.31,.88,.31,1.44v6.26h-1.76Zm-2.74-1.54c.43,0,.85-.1,1.28-.31,.43-.21,.77-.48,1.02-.83v-1.82h-.38c-1.09,0-1.89,.14-2.39,.42-.5,.28-.75,.73-.75,1.34,0,.8,.41,1.2,1.22,1.2Z"/>
      <path d="M611.37,277.76h-2.2v-14.8h2.2v14.8Z"/>
    </g>
    <g>
      <path d="M259.7,428.49l4.38-10.08h2.62v13.2h-2.28v-8.7l-3.8,8.7h-1.84l-3.9-8.7v8.7h-2.3v-13.2h2.62l4.5,10.08Z"/>
      <path d="M275.26,431.61l-.16-1.26h-.08c-.36,.45-.85,.82-1.47,1.09-.62,.27-1.25,.41-1.89,.41-.84,0-1.5-.24-1.98-.73-.48-.49-.72-1.13-.72-1.93,0-.55,.12-1.04,.35-1.47,.23-.43,.57-.8,1.01-1.1s.97-.53,1.58-.69c.61-.16,1.3-.24,2.06-.24h.86v-.3c0-.52-.17-.9-.5-1.14-.35-.24-.89-.36-1.62-.36-.99,0-1.87,.22-2.64,.66l-.42-1.66c.89-.52,1.97-.78,3.24-.78,1.33,0,2.35,.27,3.04,.82,.32,.25,.58,.58,.79,.98s.31,.88,.31,1.44v6.26h-1.76Zm-2.74-1.54c.43,0,.85-.1,1.28-.31,.43-.21,.77-.48,1.02-.83v-1.82h-.38c-1.09,0-1.89,.14-2.39,.42s-.75,.73-.75,1.34c0,.8,.41,1.2,1.22,1.2Z"/>
      <path d="M280.01,423.75h-1.14v-1.2l1.3-.2,.36-2.72h1.68v2.78h1.76v1.34h-1.76v5.28c0,.4,.04,.67,.12,.81,.08,.14,.23,.21,.46,.21,.17,0,.35-.03,.52-.1,.17-.07,.43-.19,.76-.38l.36,1.58c-.25,.21-.61,.38-1.07,.51s-.92,.19-1.37,.19c-.4,0-.73-.05-.99-.16s-.46-.26-.61-.47-.25-.46-.3-.75-.08-.62-.08-.98v-5.74Z"/>
      <path d="M290.41,422.11c1.17,0,2.08,.3,2.72,.89,.64,.59,.96,1.43,.96,2.51,0,.15,0,.3-.03,.47-.02,.17-.05,.33-.08,.49s-.07,.3-.12,.43-.1,.23-.15,.31h-5.82c.03,.4,.1,.78,.22,1.13,.12,.35,.29,.66,.52,.92,.23,.26,.5,.47,.83,.62,.33,.15,.71,.23,1.15,.23,.49,0,1.02-.09,1.57-.28,.55-.19,1.02-.42,1.41-.7l.36,1.64c-.17,.11-.39,.22-.64,.35-.25,.13-.54,.24-.86,.35-.32,.11-.66,.2-1.03,.27-.37,.07-.75,.11-1.15,.11-.75,0-1.41-.13-1.98-.39-.57-.26-1.05-.61-1.44-1.06s-.68-.96-.88-1.55-.3-1.2-.3-1.84,.1-1.28,.31-1.87,.51-1.12,.91-1.57,.9-.81,1.49-1.07c.59-.26,1.27-.39,2.03-.39Zm-.06,1.72c-.56,0-1.04,.16-1.43,.49-.39,.33-.68,.77-.85,1.33h3.82s.02-.09,.03-.14c0-.05,0-.12,0-.2,0-.43-.15-.78-.44-1.06-.29-.28-.67-.42-1.14-.42Z"/>
      <path d="M301.59,424.41c-.13-.11-.34-.19-.62-.26-.28-.07-.52-.1-.72-.1-.27,0-.49,.06-.66,.19-.17,.13-.33,.29-.46,.5-.13,.21-.25,.44-.34,.71s-.18,.54-.26,.82v5.34h-2.2v-9.2h1.72l.1,1.92h.08c.13-.28,.27-.55,.42-.82,.15-.27,.31-.5,.5-.71,.19-.21,.4-.37,.65-.5,.25-.13,.54-.19,.87-.19,.53,0,1.03,.17,1.5,.52l-.58,1.78Z"/>
      <path d="M303.49,419.45c0-.19,.04-.37,.11-.54,.07-.17,.18-.33,.31-.47,.13-.14,.28-.25,.45-.33s.35-.12,.55-.12c.19,0,.37,.04,.54,.12,.17,.08,.33,.19,.47,.33,.14,.14,.25,.3,.33,.47,.08,.17,.12,.35,.12,.54,0,.2-.04,.38-.12,.55-.08,.17-.19,.32-.33,.45-.14,.13-.3,.24-.47,.31-.17,.07-.35,.11-.54,.11-.39,0-.72-.14-1-.42-.28-.28-.42-.61-.42-1Zm2.52,12.16h-2.2v-9.2h2.2v9.2Z"/>
      <path d="M314.37,431.61l-.16-1.26h-.08c-.36,.45-.85,.82-1.47,1.09-.62,.27-1.25,.41-1.89,.41-.84,0-1.5-.24-1.98-.73-.48-.49-.72-1.13-.72-1.93,0-.55,.12-1.04,.35-1.47,.23-.43,.57-.8,1.01-1.1s.97-.53,1.58-.69c.61-.16,1.3-.24,2.06-.24h.86v-.3c0-.52-.17-.9-.5-1.14-.35-.24-.89-.36-1.62-.36-.99,0-1.87,.22-2.64,.66l-.42-1.66c.89-.52,1.97-.78,3.24-.78,1.33,0,2.35,.27,3.04,.82,.32,.25,.58,.58,.79,.98s.31,.88,.31,1.44v6.26h-1.76Zm-2.74-1.54c.43,0,.85-.1,1.28-.31,.43-.21,.77-.48,1.02-.83v-1.82h-.38c-1.09,0-1.89,.14-2.39,.42s-.75,.73-.75,1.34c0,.8,.41,1.2,1.22,1.2Z"/>
      <path d="M321.11,431.61h-2.2v-14.8h2.2v14.8Z"/>
      <path d="M326.79,423.75c-.44,0-.78,.08-1.03,.25-.25,.17-.37,.4-.37,.71,0,.2,.07,.38,.21,.55,.14,.17,.44,.3,.89,.41l1.42,.32c.56,.12,1.01,.29,1.35,.52,.34,.23,.61,.47,.8,.74,.19,.27,.32,.54,.39,.82,.07,.28,.1,.54,.1,.78,0,.43-.09,.82-.26,1.19-.17,.37-.42,.68-.74,.95-.32,.27-.71,.48-1.16,.63-.45,.15-.96,.23-1.52,.23-.71,0-1.36-.1-1.96-.31-.6-.21-1.08-.44-1.44-.69l.52-1.9c.45,.44,.96,.77,1.53,.98,.57,.21,1.09,.32,1.57,.32,.51,0,.89-.11,1.16-.33,.27-.22,.4-.52,.4-.91,0-.23-.07-.42-.2-.57s-.4-.28-.8-.39l-1.92-.48c-.45-.11-.82-.26-1.11-.46s-.51-.42-.68-.67c-.17-.25-.28-.5-.34-.77-.06-.27-.09-.52-.09-.76,0-.89,.31-1.58,.94-2.07,.63-.49,1.44-.73,2.44-.73,.52,0,1.08,.07,1.68,.21s1.11,.34,1.52,.61l-.58,1.8c-.27-.21-.64-.43-1.12-.65-.48-.22-1.01-.33-1.6-.33Z"/>
      <path d="M261.86,445.25c-.43-.29-.94-.53-1.53-.71-.59-.18-1.27-.27-2.03-.27-.72,0-1.34,.11-1.85,.34-.51,.23-.93,.55-1.25,.96-.32,.41-.56,.91-.71,1.49s-.23,1.22-.23,1.93c0,1.61,.34,2.83,1.03,3.66s1.68,1.24,2.97,1.24c.8,0,1.53-.12,2.19-.36,.66-.24,1.2-.53,1.63-.88l.6,1.98c-.53,.32-1.18,.6-1.93,.85-.75,.25-1.6,.37-2.55,.37-1.09,0-2.04-.18-2.84-.54-.8-.36-1.46-.85-1.99-1.46s-.92-1.32-1.17-2.13-.38-1.66-.38-2.57,.14-1.83,.42-2.66c.28-.83,.7-1.55,1.25-2.17,.55-.62,1.24-1.11,2.06-1.47,.82-.36,1.78-.54,2.87-.54,.72,0,1.44,.08,2.16,.23,.72,.15,1.34,.36,1.86,.63l-.58,2.08Z"/>
      <path d="M268.62,446.11c.81,0,1.51,.14,2.1,.41s1.07,.64,1.45,1.1,.66,.99,.84,1.58c.18,.59,.27,1.22,.27,1.87s-.09,1.27-.27,1.85-.46,1.09-.84,1.52c-.38,.43-.86,.78-1.44,1.03-.58,.25-1.26,.38-2.05,.38s-1.51-.13-2.1-.4c-.59-.27-1.07-.62-1.46-1.07-.39-.45-.67-.96-.86-1.55-.19-.59-.28-1.21-.28-1.86s.09-1.27,.28-1.86,.47-1.1,.85-1.55,.86-.8,1.45-1.06,1.27-.39,2.06-.39Zm.04,8.08c.39,0,.72-.08,1.01-.25,.29-.17,.52-.39,.71-.68,.19-.29,.32-.62,.41-.99,.09-.37,.13-.77,.13-1.18s-.05-.84-.14-1.23c-.09-.39-.24-.74-.43-1.04s-.44-.54-.73-.72c-.29-.18-.65-.27-1.06-.27-.39,0-.72,.08-1,.25-.28,.17-.51,.39-.69,.67-.18,.28-.31,.61-.4,.98s-.13,.77-.13,1.18,.04,.84,.13,1.23c.09,.39,.23,.74,.42,1.05s.44,.55,.73,.73c.29,.18,.64,.27,1.04,.27Z"/>
      <path d="M281.65,455.61v-6.08c0-1.09-.47-1.64-1.4-1.64-.23,0-.47,.04-.73,.12s-.51,.2-.75,.35-.46,.34-.65,.57c-.19,.23-.34,.49-.43,.78v5.9h-2.2v-9.2h1.72l.1,1.36h.08c.28-.56,.72-.98,1.31-1.25s1.23-.41,1.91-.41c.44,0,.85,.06,1.24,.17s.73,.3,1.03,.55c.3,.25,.54,.59,.71,1,.17,.41,.26,.92,.26,1.52v6.26h-2.2Z"/>
      <path d="M289.23,447.75c-.44,0-.78,.08-1.03,.25-.25,.17-.37,.4-.37,.71,0,.2,.07,.38,.21,.55,.14,.17,.44,.3,.89,.41l1.42,.32c.56,.12,1.01,.29,1.35,.52,.34,.23,.61,.47,.8,.74,.19,.27,.32,.54,.39,.82,.07,.28,.1,.54,.1,.78,0,.43-.09,.82-.26,1.19-.17,.37-.42,.68-.74,.95-.32,.27-.71,.48-1.16,.63-.45,.15-.96,.23-1.52,.23-.71,0-1.36-.1-1.96-.31-.6-.21-1.08-.44-1.44-.69l.52-1.9c.45,.44,.96,.77,1.53,.98,.57,.21,1.09,.32,1.57,.32,.51,0,.89-.11,1.16-.33,.27-.22,.4-.52,.4-.91,0-.23-.07-.42-.2-.57s-.4-.28-.8-.39l-1.92-.48c-.45-.11-.82-.26-1.11-.46s-.51-.42-.68-.67c-.17-.25-.28-.5-.34-.77-.06-.27-.09-.52-.09-.76,0-.89,.31-1.58,.94-2.07,.63-.49,1.44-.73,2.44-.73,.52,0,1.08,.07,1.68,.21s1.11,.34,1.52,.61l-.58,1.8c-.27-.21-.64-.43-1.12-.65-.48-.22-1.01-.33-1.6-.33Z"/>
      <path d="M297.21,446.41v5.98c0,.55,.14,.96,.43,1.25,.29,.29,.66,.43,1.11,.43s.89-.16,1.28-.47,.67-.76,.86-1.35v-5.84h2.22v9.2h-1.72l-.12-1.28h-.08c-.15,.31-.33,.56-.56,.75s-.48,.35-.75,.46c-.27,.11-.56,.19-.85,.24-.29,.05-.58,.07-.86,.07-.44,0-.85-.05-1.23-.16-.38-.11-.71-.28-1-.53-.29-.25-.51-.57-.68-.98-.17-.41-.25-.91-.25-1.51v-6.26h2.2Z"/>
      <path d="M311.83,455.61v-6.08c0-1.09-.43-1.64-1.3-1.64-.21,0-.44,.04-.69,.12-.25,.08-.49,.2-.72,.35s-.45,.34-.64,.57c-.19,.23-.33,.49-.41,.78v5.9h-2.2v-9.2h1.72l.1,1.36h.08c.27-.56,.69-.98,1.27-1.25s1.2-.41,1.85-.41,1.2,.12,1.71,.37c.51,.25,.9,.67,1.15,1.27,.27-.55,.69-.96,1.26-1.23s1.19-.41,1.84-.41c.43,0,.83,.06,1.21,.17s.71,.3,1,.55c.29,.25,.51,.59,.68,1,.17,.41,.25,.92,.25,1.52v6.26h-2.2v-6.08c0-1.09-.43-1.64-1.3-1.64-.21,0-.44,.04-.69,.12-.25,.08-.49,.2-.72,.35s-.45,.34-.64,.57c-.19,.23-.33,.49-.41,.78v5.9h-2.2Z"/>
      <path d="M327.69,446.11c.72,0,1.34,.14,1.86,.41,.52,.27,.95,.64,1.29,1.09,.34,.45,.59,.98,.75,1.57,.16,.59,.24,1.21,.24,1.85s-.08,1.27-.25,1.86c-.17,.59-.42,1.1-.77,1.54-.35,.44-.78,.79-1.3,1.04-.52,.25-1.14,.38-1.86,.38-.6,0-1.16-.09-1.67-.26-.51-.17-.92-.45-1.23-.84v6.06h-2.18v-14.4h1.76l.16,1.26h.08c.17-.21,.38-.42,.62-.61s.5-.36,.78-.5c.28-.14,.57-.25,.86-.33,.29-.08,.58-.12,.86-.12Zm-.36,1.68c-.2,0-.42,.03-.66,.09-.24,.06-.48,.15-.71,.26s-.46,.25-.67,.41c-.21,.16-.39,.34-.54,.54v3.9c.4,.49,.81,.8,1.23,.93,.42,.13,.8,.19,1.15,.19,.44,0,.82-.08,1.13-.24,.31-.16,.57-.38,.78-.65,.21-.27,.36-.59,.46-.96,.1-.37,.15-.76,.15-1.19,0-.4-.04-.8-.13-1.19-.09-.39-.23-.74-.42-1.05s-.44-.56-.73-.75-.64-.29-1.04-.29Z"/>
      <path d="M334.39,447.75h-1.14v-1.2l1.3-.2,.36-2.72h1.68v2.78h1.76v1.34h-1.76v5.28c0,.4,.04,.67,.12,.81,.08,.14,.23,.21,.46,.21,.17,0,.35-.03,.52-.1,.17-.07,.43-.19,.76-.38l.36,1.58c-.25,.21-.61,.38-1.07,.51s-.92,.19-1.37,.19c-.4,0-.73-.05-.99-.16s-.46-.26-.61-.47-.25-.46-.3-.75-.08-.62-.08-.98v-5.74Z"/>
      <path d="M340.29,443.45c0-.19,.04-.37,.11-.54,.07-.17,.18-.33,.31-.47,.13-.14,.28-.25,.45-.33s.35-.12,.55-.12c.19,0,.37,.04,.54,.12,.17,.08,.33,.19,.47,.33,.14,.14,.25,.3,.33,.47,.08,.17,.12,.35,.12,.54,0,.2-.04,.38-.12,.55-.08,.17-.19,.32-.33,.45-.14,.13-.3,.24-.47,.31-.17,.07-.35,.11-.54,.11-.39,0-.72-.14-1-.42-.28-.28-.42-.61-.42-1Zm2.52,12.16h-2.2v-9.2h2.2v9.2Z"/>
      <path d="M349.67,446.11c.81,0,1.51,.14,2.1,.41s1.07,.64,1.45,1.1,.66,.99,.84,1.58c.18,.59,.27,1.22,.27,1.87s-.09,1.27-.27,1.85-.46,1.09-.84,1.52c-.38,.43-.86,.78-1.44,1.03-.58,.25-1.26,.38-2.05,.38s-1.51-.13-2.1-.4c-.59-.27-1.07-.62-1.46-1.07-.39-.45-.67-.96-.86-1.55-.19-.59-.28-1.21-.28-1.86s.09-1.27,.28-1.86,.47-1.1,.85-1.55,.86-.8,1.45-1.06,1.27-.39,2.06-.39Zm.04,8.08c.39,0,.72-.08,1.01-.25,.29-.17,.52-.39,.71-.68,.19-.29,.32-.62,.41-.99,.09-.37,.13-.77,.13-1.18s-.05-.84-.14-1.23c-.09-.39-.24-.74-.43-1.04s-.44-.54-.73-.72c-.29-.18-.65-.27-1.06-.27-.39,0-.72,.08-1,.25-.28,.17-.51,.39-.69,.67-.18,.28-.31,.61-.4,.98s-.13,.77-.13,1.18,.04,.84,.13,1.23c.09,.39,.23,.74,.42,1.05s.44,.55,.73,.73c.29,.18,.64,.27,1.04,.27Z"/>
      <path d="M362.71,455.61v-6.08c0-1.09-.47-1.64-1.4-1.64-.23,0-.47,.04-.73,.12s-.51,.2-.75,.35-.46,.34-.65,.57c-.19,.23-.34,.49-.43,.78v5.9h-2.2v-9.2h1.72l.1,1.36h.08c.28-.56,.72-.98,1.31-1.25s1.23-.41,1.91-.41c.44,0,.85,.06,1.24,.17s.73,.3,1.03,.55c.3,.25,.54,.59,.71,1,.17,.41,.26,.92,.26,1.52v6.26h-2.2Z"/>
      <path d="M379.49,448.69c-.15-.11-.33-.21-.55-.32-.22-.11-.46-.2-.71-.28s-.52-.14-.79-.19-.53-.07-.77-.07c-.45,0-.84,.08-1.15,.25-.31,.17-.57,.39-.76,.66s-.33,.59-.42,.95-.13,.73-.13,1.12c0,.45,.05,.88,.16,1.27,.11,.39,.27,.74,.48,1.03,.21,.29,.48,.53,.81,.7,.33,.17,.7,.26,1.13,.26,.48,0,.99-.1,1.53-.29,.54-.19,.99-.46,1.35-.81l.4,1.88c-.37,.24-.88,.47-1.53,.68-.65,.21-1.34,.32-2.07,.32-.77,0-1.45-.13-2.03-.4s-1.06-.62-1.44-1.07c-.38-.45-.67-.97-.86-1.56s-.29-1.22-.29-1.89,.09-1.25,.27-1.83c.18-.58,.46-1.09,.85-1.54s.88-.8,1.48-1.06c.6-.26,1.32-.39,2.16-.39,.64,0,1.27,.07,1.88,.22,.61,.15,1.11,.34,1.48,.58l-.48,1.78Z"/>
      <path d="M386.15,452.95l2.56-6.54h2.12l-3.8,9.28c-.19,.47-.44,.99-.77,1.57-.33,.58-.71,1.13-1.16,1.64-.45,.51-.95,.95-1.51,1.3-.56,.35-1.17,.53-1.82,.53-.11,0-.19,0-.24,0-.05,0-.11-.02-.18-.05l-.38-1.72s.09,.03,.14,.04c.05,.01,.17,.02,.34,.02,.25,0,.5-.03,.75-.08,.25-.05,.5-.16,.75-.32,.48-.31,.9-.73,1.25-1.28,.35-.55,.7-1.22,1.03-2.02l-4.58-8.9h2.3l3.2,6.54Z"/>
      <path d="M399.47,448.69c-.15-.11-.33-.21-.55-.32-.22-.11-.46-.2-.71-.28s-.52-.14-.79-.19-.53-.07-.77-.07c-.45,0-.84,.08-1.15,.25-.31,.17-.57,.39-.76,.66s-.33,.59-.42,.95-.13,.73-.13,1.12c0,.45,.05,.88,.16,1.27,.11,.39,.27,.74,.48,1.03,.21,.29,.48,.53,.81,.7,.33,.17,.7,.26,1.13,.26,.48,0,.99-.1,1.53-.29,.54-.19,.99-.46,1.35-.81l.4,1.88c-.37,.24-.88,.47-1.53,.68-.65,.21-1.34,.32-2.07,.32-.77,0-1.45-.13-2.03-.4s-1.06-.62-1.44-1.07c-.38-.45-.67-.97-.86-1.56s-.29-1.22-.29-1.89,.09-1.25,.27-1.83c.18-.58,.46-1.09,.85-1.54s.88-.8,1.48-1.06c.6-.26,1.32-.39,2.16-.39,.64,0,1.27,.07,1.88,.22,.61,.15,1.11,.34,1.48,.58l-.48,1.78Z"/>
      <path d="M404.47,455.61h-2.2v-14.8h2.2v14.8Z"/>
      <path d="M407.03,443.45c0-.19,.04-.37,.11-.54,.07-.17,.18-.33,.31-.47,.13-.14,.28-.25,.45-.33s.35-.12,.55-.12c.19,0,.37,.04,.54,.12,.17,.08,.33,.19,.47,.33,.14,.14,.25,.3,.33,.47,.08,.17,.12,.35,.12,.54,0,.2-.04,.38-.12,.55-.08,.17-.19,.32-.33,.45-.14,.13-.3,.24-.47,.31-.17,.07-.35,.11-.54,.11-.39,0-.72-.14-1-.42-.28-.28-.42-.61-.42-1Zm2.52,12.16h-2.2v-9.2h2.2v9.2Z"/>
      <path d="M419.42,448.69c-.15-.11-.33-.21-.55-.32-.22-.11-.46-.2-.71-.28s-.52-.14-.79-.19-.53-.07-.77-.07c-.45,0-.84,.08-1.15,.25-.31,.17-.57,.39-.76,.66s-.33,.59-.42,.95-.13,.73-.13,1.12c0,.45,.05,.88,.16,1.27,.11,.39,.27,.74,.48,1.03,.21,.29,.48,.53,.81,.7,.33,.17,.7,.26,1.13,.26,.48,0,.99-.1,1.53-.29,.54-.19,.99-.46,1.35-.81l.4,1.88c-.37,.24-.88,.47-1.53,.68-.65,.21-1.34,.32-2.07,.32-.77,0-1.45-.13-2.03-.4s-1.06-.62-1.44-1.07c-.38-.45-.67-.97-.86-1.56s-.29-1.22-.29-1.89,.09-1.25,.27-1.83c.18-.58,.46-1.09,.85-1.54s.88-.8,1.48-1.06c.6-.26,1.32-.39,2.16-.39,.64,0,1.27,.07,1.88,.22,.61,.15,1.11,.34,1.48,.58l-.48,1.78Z"/>
      <path d="M427.62,455.61l-.16-1.26h-.08c-.36,.45-.85,.82-1.47,1.09-.62,.27-1.25,.41-1.89,.41-.84,0-1.5-.24-1.98-.73-.48-.49-.72-1.13-.72-1.93,0-.55,.12-1.04,.35-1.47,.23-.43,.57-.8,1.01-1.1s.97-.53,1.58-.69c.61-.16,1.3-.24,2.06-.24h.86v-.3c0-.52-.17-.9-.5-1.14-.35-.24-.89-.36-1.62-.36-.99,0-1.87,.22-2.64,.66l-.42-1.66c.89-.52,1.97-.78,3.24-.78,1.33,0,2.35,.27,3.04,.82,.32,.25,.58,.58,.79,.98s.31,.88,.31,1.44v6.26h-1.76Zm-2.74-1.54c.43,0,.85-.1,1.28-.31,.43-.21,.77-.48,1.02-.83v-1.82h-.38c-1.09,0-1.89,.14-2.39,.42s-.75,.73-.75,1.34c0,.8,.41,1.2,1.22,1.2Z"/>
      <path d="M434.35,455.61h-2.2v-14.8h2.2v14.8Z"/>
      <path d="M261.86,469.25c-.43-.29-.94-.53-1.53-.71-.59-.18-1.27-.27-2.03-.27-.72,0-1.34,.11-1.85,.34-.51,.23-.93,.55-1.25,.96-.32,.41-.56,.91-.71,1.49s-.23,1.22-.23,1.93c0,1.61,.34,2.83,1.03,3.66s1.68,1.24,2.97,1.24c.8,0,1.53-.12,2.19-.36,.66-.24,1.2-.53,1.63-.88l.6,1.98c-.53,.32-1.18,.6-1.93,.85-.75,.25-1.6,.37-2.55,.37-1.09,0-2.04-.18-2.84-.54-.8-.36-1.46-.85-1.99-1.46s-.92-1.32-1.17-2.13-.38-1.66-.38-2.57,.14-1.83,.42-2.66c.28-.83,.7-1.55,1.25-2.17,.55-.62,1.24-1.11,2.06-1.47,.82-.36,1.78-.54,2.87-.54,.72,0,1.44,.08,2.16,.23,.72,.15,1.34,.36,1.86,.63l-.58,2.08Z"/>
      <path d="M268.62,470.11c.81,0,1.51,.14,2.1,.41s1.07,.64,1.45,1.1,.66,.99,.84,1.58c.18,.59,.27,1.22,.27,1.87s-.09,1.27-.27,1.85-.46,1.09-.84,1.52c-.38,.43-.86,.78-1.44,1.03-.58,.25-1.26,.38-2.05,.38s-1.51-.13-2.1-.4c-.59-.27-1.07-.62-1.46-1.07-.39-.45-.67-.96-.86-1.55-.19-.59-.28-1.21-.28-1.86s.09-1.27,.28-1.86,.47-1.1,.85-1.55,.86-.8,1.45-1.06,1.27-.39,2.06-.39Zm.04,8.08c.39,0,.72-.08,1.01-.25,.29-.17,.52-.39,.71-.68,.19-.29,.32-.62,.41-.99,.09-.37,.13-.77,.13-1.18s-.05-.84-.14-1.23c-.09-.39-.24-.74-.43-1.04s-.44-.54-.73-.72c-.29-.18-.65-.27-1.06-.27-.39,0-.72,.08-1,.25-.28,.17-.51,.39-.69,.67-.18,.28-.31,.61-.4,.98s-.13,.77-.13,1.18,.04,.84,.13,1.23c.09,.39,.23,.74,.42,1.05s.44,.55,.73,.73c.29,.18,.64,.27,1.04,.27Z"/>
      <path d="M281.45,479.61v-6.08c0-1.09-.43-1.64-1.3-1.64-.21,0-.44,.04-.69,.12-.25,.08-.49,.2-.72,.35s-.45,.34-.64,.57c-.19,.23-.33,.49-.41,.78v5.9h-2.2v-9.2h1.72l.1,1.36h.08c.27-.56,.69-.98,1.27-1.25s1.2-.41,1.85-.41,1.2,.12,1.71,.37c.51,.25,.9,.67,1.15,1.27,.27-.55,.69-.96,1.26-1.23s1.19-.41,1.84-.41c.43,0,.83,.06,1.21,.17s.71,.3,1,.55c.29,.25,.51,.59,.68,1,.17,.41,.25,.92,.25,1.52v6.26h-2.2v-6.08c0-1.09-.43-1.64-1.3-1.64-.21,0-.44,.04-.69,.12-.25,.08-.49,.2-.72,.35s-.45,.34-.64,.57c-.19,.23-.33,.49-.41,.78v5.9h-2.2Z"/>
      <path d="M298.15,479.61v-6.08c0-1.09-.43-1.64-1.3-1.64-.21,0-.44,.04-.69,.12-.25,.08-.49,.2-.72,.35s-.45,.34-.64,.57c-.19,.23-.33,.49-.41,.78v5.9h-2.2v-9.2h1.72l.1,1.36h.08c.27-.56,.69-.98,1.27-1.25s1.2-.41,1.85-.41,1.2,.12,1.71,.37c.51,.25,.9,.67,1.15,1.27,.27-.55,.69-.96,1.26-1.23s1.19-.41,1.84-.41c.43,0,.83,.06,1.21,.17s.71,.3,1,.55c.29,.25,.51,.59,.68,1,.17,.41,.25,.92,.25,1.52v6.26h-2.2v-6.08c0-1.09-.43-1.64-1.3-1.64-.21,0-.44,.04-.69,.12-.25,.08-.49,.2-.72,.35s-.45,.34-.64,.57c-.19,.23-.33,.49-.41,.78v5.9h-2.2Z"/>
      <path d="M311.01,470.41v5.98c0,.55,.14,.96,.43,1.25,.29,.29,.66,.43,1.11,.43s.89-.16,1.28-.47,.67-.76,.86-1.35v-5.84h2.22v9.2h-1.72l-.12-1.28h-.08c-.15,.31-.33,.56-.56,.75s-.48,.35-.75,.46c-.27,.11-.56,.19-.85,.24-.29,.05-.58,.07-.86,.07-.44,0-.85-.05-1.23-.16-.38-.11-.71-.28-1-.53-.29-.25-.51-.57-.68-.98-.17-.41-.25-.91-.25-1.51v-6.26h2.2Z"/>
      <path d="M325.83,479.61v-6.08c0-1.09-.47-1.64-1.4-1.64-.23,0-.47,.04-.73,.12s-.51,.2-.75,.35-.46,.34-.65,.57c-.19,.23-.34,.49-.43,.78v5.9h-2.2v-9.2h1.72l.1,1.36h.08c.28-.56,.72-.98,1.31-1.25s1.23-.41,1.91-.41c.44,0,.85,.06,1.24,.17s.73,.3,1.03,.55c.3,.25,.54,.59,.71,1,.17,.41,.26,.92,.26,1.52v6.26h-2.2Z"/>
      <path d="M330.29,467.45c0-.19,.04-.37,.11-.54,.07-.17,.18-.33,.31-.47,.13-.14,.28-.25,.45-.33s.35-.12,.55-.12c.19,0,.37,.04,.54,.12,.17,.08,.33,.19,.47,.33,.14,.14,.25,.3,.33,.47,.08,.17,.12,.35,.12,.54,0,.2-.04,.38-.12,.55-.08,.17-.19,.32-.33,.45-.14,.13-.3,.24-.47,.31-.17,.07-.35,.11-.54,.11-.39,0-.72-.14-1-.42-.28-.28-.42-.61-.42-1Zm2.52,12.16h-2.2v-9.2h2.2v9.2Z"/>
      <path d="M342.67,472.69c-.15-.11-.33-.21-.55-.32-.22-.11-.46-.2-.71-.28s-.52-.14-.79-.19-.53-.07-.77-.07c-.45,0-.84,.08-1.15,.25-.31,.17-.57,.39-.76,.66s-.33,.59-.42,.95-.13,.73-.13,1.12c0,.45,.05,.88,.16,1.27,.11,.39,.27,.74,.48,1.03,.21,.29,.48,.53,.81,.7,.33,.17,.7,.26,1.13,.26,.48,0,.99-.1,1.53-.29,.54-.19,.99-.46,1.35-.81l.4,1.88c-.37,.24-.88,.47-1.53,.68-.65,.21-1.34,.32-2.07,.32-.77,0-1.45-.13-2.03-.4s-1.06-.62-1.44-1.07c-.38-.45-.67-.97-.86-1.56s-.29-1.22-.29-1.89,.09-1.25,.27-1.83c.18-.58,.46-1.09,.85-1.54s.88-.8,1.48-1.06c.6-.26,1.32-.39,2.16-.39,.64,0,1.27,.07,1.88,.22,.61,.15,1.11,.34,1.48,.58l-.48,1.78Z"/>
      <path d="M350.88,479.61l-.16-1.26h-.08c-.36,.45-.85,.82-1.47,1.09-.62,.27-1.25,.41-1.89,.41-.84,0-1.5-.24-1.98-.73-.48-.49-.72-1.13-.72-1.93,0-.55,.12-1.04,.35-1.47,.23-.43,.57-.8,1.01-1.1s.97-.53,1.58-.69c.61-.16,1.3-.24,2.06-.24h.86v-.3c0-.52-.17-.9-.5-1.14-.35-.24-.89-.36-1.62-.36-.99,0-1.87,.22-2.64,.66l-.42-1.66c.89-.52,1.97-.78,3.24-.78,1.33,0,2.35,.27,3.04,.82,.32,.25,.58,.58,.79,.98s.31,.88,.31,1.44v6.26h-1.76Zm-2.74-1.54c.43,0,.85-.1,1.28-.31,.43-.21,.77-.48,1.02-.83v-1.82h-.38c-1.09,0-1.89,.14-2.39,.42s-.75,.73-.75,1.34c0,.8,.41,1.2,1.22,1.2Z"/>
      <path d="M355.63,471.75h-1.14v-1.2l1.3-.2,.36-2.72h1.68v2.78h1.76v1.34h-1.76v5.28c0,.4,.04,.67,.12,.81,.08,.14,.23,.21,.46,.21,.17,0,.35-.03,.52-.1,.17-.07,.43-.19,.76-.38l.36,1.58c-.25,.21-.61,.38-1.07,.51s-.92,.19-1.37,.19c-.4,0-.73-.05-.99-.16s-.46-.26-.61-.47-.25-.46-.3-.75-.08-.62-.08-.98v-5.74Z"/>
      <path d="M361.53,467.45c0-.19,.04-.37,.11-.54,.07-.17,.18-.33,.31-.47,.13-.14,.28-.25,.45-.33s.35-.12,.55-.12c.19,0,.37,.04,.54,.12,.17,.08,.33,.19,.47,.33,.14,.14,.25,.3,.33,.47,.08,.17,.12,.35,.12,.54,0,.2-.04,.38-.12,.55-.08,.17-.19,.32-.33,.45-.14,.13-.3,.24-.47,.31-.17,.07-.35,.11-.54,.11-.39,0-.72-.14-1-.42-.28-.28-.42-.61-.42-1Zm2.52,12.16h-2.2v-9.2h2.2v9.2Z"/>
      <path d="M370.92,470.11c.81,0,1.51,.14,2.1,.41s1.07,.64,1.45,1.1,.66,.99,.84,1.58c.18,.59,.27,1.22,.27,1.87s-.09,1.27-.27,1.85-.46,1.09-.84,1.52c-.38,.43-.86,.78-1.44,1.03-.58,.25-1.26,.38-2.05,.38s-1.51-.13-2.1-.4c-.59-.27-1.07-.62-1.46-1.07-.39-.45-.67-.96-.86-1.55-.19-.59-.28-1.21-.28-1.86s.09-1.27,.28-1.86,.47-1.1,.85-1.55,.86-.8,1.45-1.06,1.27-.39,2.06-.39Zm.04,8.08c.39,0,.72-.08,1.01-.25,.29-.17,.52-.39,.71-.68,.19-.29,.32-.62,.41-.99,.09-.37,.13-.77,.13-1.18s-.05-.84-.14-1.23c-.09-.39-.24-.74-.43-1.04s-.44-.54-.73-.72c-.29-.18-.65-.27-1.06-.27-.39,0-.72,.08-1,.25-.28,.17-.51,.39-.69,.67-.18,.28-.31,.61-.4,.98s-.13,.77-.13,1.18,.04,.84,.13,1.23c.09,.39,.23,.74,.42,1.05s.44,.55,.73,.73c.29,.18,.64,.27,1.04,.27Z"/>
      <path d="M383.95,479.61v-6.08c0-1.09-.47-1.64-1.4-1.64-.23,0-.47,.04-.73,.12s-.51,.2-.75,.35-.46,.34-.65,.57c-.19,.23-.34,.49-.43,.78v5.9h-2.2v-9.2h1.72l.1,1.36h.08c.28-.56,.72-.98,1.31-1.25s1.23-.41,1.91-.41c.44,0,.85,.06,1.24,.17s.73,.3,1.03,.55c.3,.25,.54,.59,.71,1,.17,.41,.26,.92,.26,1.52v6.26h-2.2Z"/>
    </g>
    <g>
      <path d="M6.3,240.19H2.3v4h5.74v2H0v-13.2H7.64v2H2.3v3.2H6.3v2Z"/>
      <path d="M16.26,246.19v-6.08c0-1.09-.47-1.64-1.4-1.64-.23,0-.47,.04-.73,.12s-.51,.2-.75,.35-.46,.34-.65,.57c-.19,.23-.34,.49-.43,.78v5.9h-2.2v-9.2h1.72l.1,1.36h.08c.28-.56,.72-.98,1.31-1.25s1.23-.41,1.91-.41c.44,0,.85,.06,1.24,.17s.73,.3,1.03,.55c.3,.25,.54,.59,.71,1,.17,.41,.26,.92,.26,1.52v6.26h-2.2Z"/>
      <path d="M25.22,236.69c1.17,0,2.08,.3,2.72,.89,.64,.59,.96,1.43,.96,2.51,0,.15,0,.3-.03,.47-.02,.17-.05,.33-.08,.49-.03,.16-.07,.3-.12,.43-.05,.13-.1,.23-.15,.31h-5.82c.03,.4,.1,.78,.22,1.13,.12,.35,.29,.66,.52,.92,.23,.26,.5,.47,.83,.62,.33,.15,.71,.23,1.15,.23,.49,0,1.02-.09,1.57-.28,.55-.19,1.02-.42,1.41-.7l.36,1.64c-.17,.11-.39,.22-.64,.35-.25,.13-.54,.24-.86,.35-.32,.11-.66,.2-1.03,.27-.37,.07-.75,.11-1.15,.11-.75,0-1.41-.13-1.98-.39-.57-.26-1.05-.61-1.44-1.06s-.68-.96-.88-1.55c-.2-.59-.3-1.2-.3-1.84s.1-1.28,.31-1.87c.21-.59,.51-1.12,.91-1.57,.4-.45,.9-.81,1.49-1.07,.59-.26,1.27-.39,2.03-.39Zm-.06,1.72c-.56,0-1.04,.16-1.43,.49-.39,.33-.68,.77-.85,1.33h3.82s.02-.09,.03-.14c0-.05,0-.12,0-.2,0-.43-.15-.78-.44-1.06-.29-.28-.67-.42-1.14-.42Z"/>
      <path d="M36.4,238.99c-.13-.11-.34-.19-.62-.26-.28-.07-.52-.1-.72-.1-.27,0-.49,.06-.66,.19-.17,.13-.33,.29-.46,.5-.13,.21-.25,.44-.34,.71-.09,.27-.18,.54-.26,.82v5.34h-2.2v-9.2h1.72l.1,1.92h.08c.13-.28,.27-.55,.42-.82,.15-.27,.31-.5,.5-.71,.19-.21,.4-.37,.65-.5,.25-.13,.54-.19,.87-.19,.53,0,1.03,.17,1.5,.52l-.58,1.78Z"/>
      <path d="M39.76,243.29c-.6-.25-1.03-.65-1.3-1.18-.27-.53-.4-1.11-.4-1.74,0-.52,.09-1.01,.26-1.46,.17-.45,.42-.84,.75-1.17s.72-.58,1.18-.77c.46-.19,.98-.28,1.57-.28,.35,0,.69,.03,1.03,.1,.34,.06,.64,.16,.89,.29,.56,0,1.07-.04,1.53-.11s.9-.17,1.33-.3l.18,.14-.22,1.52-.1,.1-1.42-.16-.02,.06c.45,.57,.68,1.25,.68,2.02,0,.47-.08,.9-.25,1.31s-.41,.76-.73,1.06c-.32,.3-.72,.54-1.19,.72-.47,.18-1.01,.27-1.61,.27-.15,0-.26,0-.35-.01-.09,0-.17,0-.25,0-.23,.08-.4,.18-.52,.31-.12,.13-.18,.26-.18,.39,0,.15,.07,.27,.22,.38,.15,.11,.37,.18,.68,.22l1.94,.24c.44,.05,.85,.15,1.23,.28,.38,.13,.71,.31,1,.54,.29,.23,.51,.5,.67,.82,.16,.32,.24,.69,.24,1.1s-.09,.81-.26,1.2c-.17,.39-.45,.73-.82,1.02-.37,.29-.84,.53-1.41,.7-.57,.17-1.25,.26-2.05,.26-.71,0-1.33-.07-1.87-.21s-1-.33-1.37-.57c-.37-.24-.66-.52-.85-.85-.19-.33-.29-.68-.29-1.05,0-.27,.05-.53,.14-.79,.09-.26,.22-.5,.39-.72s.36-.42,.58-.59c.22-.17,.46-.3,.71-.38v-.08c-.31-.13-.52-.31-.64-.54s-.18-.45-.18-.66c0-.28,.09-.54,.28-.78,.19-.24,.45-.43,.8-.56v-.08Zm1.52,3.34c-.45,.08-.84,.27-1.16,.57-.32,.3-.48,.64-.48,1.03,0,.43,.21,.75,.63,.96,.42,.21,1.03,.32,1.83,.32s1.41-.11,1.88-.33c.47-.22,.7-.58,.7-1.07s-.26-.82-.78-1.02c-.52-.2-1.39-.35-2.62-.46Zm.62-4.46c.55,0,.96-.18,1.24-.53,.28-.35,.42-.78,.42-1.29,0-.24-.03-.48-.1-.73s-.17-.47-.32-.67c-.15-.2-.33-.36-.55-.49-.22-.13-.48-.19-.77-.19s-.53,.06-.74,.17-.39,.26-.53,.45c-.14,.19-.24,.4-.31,.63-.07,.23-.1,.47-.1,.71s.04,.48,.11,.71c.07,.23,.18,.44,.33,.62,.15,.18,.33,.33,.55,.44,.22,.11,.48,.17,.77,.17Z"/>
      <path d="M52.48,243.53l2.56-6.54h2.12l-3.8,9.28c-.19,.47-.44,.99-.77,1.57-.33,.58-.71,1.13-1.16,1.64-.45,.51-.95,.95-1.51,1.3-.56,.35-1.17,.53-1.82,.53-.11,0-.19,0-.24-.01-.05,0-.11-.02-.18-.05l-.38-1.72s.09,.03,.14,.04c.05,.01,.17,.02,.34,.02,.25,0,.5-.03,.75-.08,.25-.05,.5-.16,.75-.32,.48-.31,.9-.73,1.25-1.28,.35-.55,.7-1.22,1.03-2.02l-4.58-8.9h2.3l3.2,6.54Z"/>
      <path d="M6.08,264.19H2.3v6H0v-13.2H7.54v2H2.3v3.2h3.78v2Z"/>
      <path d="M9.04,258.03c0-.19,.04-.37,.11-.54,.07-.17,.18-.33,.31-.47,.13-.14,.28-.25,.45-.33s.35-.12,.55-.12c.19,0,.37,.04,.54,.12,.17,.08,.33,.19,.47,.33,.14,.14,.25,.3,.33,.47,.08,.17,.12,.35,.12,.54,0,.2-.04,.38-.12,.55s-.19,.32-.33,.45c-.14,.13-.3,.24-.47,.31-.17,.07-.35,.11-.54,.11-.39,0-.72-.14-1-.42-.28-.28-.42-.61-.42-1Zm2.52,12.16h-2.2v-9.2h2.2v9.2Z"/>
      <path d="M20.48,270.19v-6.08c0-1.09-.47-1.64-1.4-1.64-.23,0-.47,.04-.73,.12s-.51,.2-.75,.35-.46,.34-.65,.57c-.19,.23-.34,.49-.43,.78v5.9h-2.2v-9.2h1.72l.1,1.36h.08c.28-.56,.72-.98,1.31-1.25s1.23-.41,1.91-.41c.44,0,.85,.06,1.24,.17s.73,.3,1.03,.55c.3,.25,.54,.59,.71,1,.17,.41,.26,.92,.26,1.52v6.26h-2.2Z"/>
      <path d="M30.86,270.19l-.16-1.26h-.08c-.36,.45-.85,.82-1.47,1.09-.62,.27-1.25,.41-1.89,.41-.84,0-1.5-.24-1.98-.73-.48-.49-.72-1.13-.72-1.93,0-.55,.12-1.04,.35-1.47,.23-.43,.57-.8,1.01-1.1,.44-.3,.97-.53,1.58-.69,.61-.16,1.3-.24,2.06-.24h.86v-.3c0-.52-.17-.9-.5-1.14-.35-.24-.89-.36-1.62-.36-.99,0-1.87,.22-2.64,.66l-.42-1.66c.89-.52,1.97-.78,3.24-.78,1.33,0,2.35,.27,3.04,.82,.32,.25,.58,.58,.79,.98,.21,.4,.31,.88,.31,1.44v6.26h-1.76Zm-2.74-1.54c.43,0,.85-.1,1.28-.31,.43-.21,.77-.48,1.02-.83v-1.82h-.38c-1.09,0-1.89,.14-2.39,.42-.5,.28-.75,.73-.75,1.34,0,.8,.41,1.2,1.22,1.2Z"/>
      <path d="M41.44,270.19v-6.08c0-1.09-.47-1.64-1.4-1.64-.23,0-.47,.04-.73,.12s-.51,.2-.75,.35-.46,.34-.65,.57c-.19,.23-.34,.49-.43,.78v5.9h-2.2v-9.2h1.72l.1,1.36h.08c.28-.56,.72-.98,1.31-1.25s1.23-.41,1.91-.41c.44,0,.85,.06,1.24,.17s.73,.3,1.03,.55c.3,.25,.54,.59,.71,1,.17,.41,.26,.92,.26,1.52v6.26h-2.2Z"/>
      <path d="M53.32,263.27c-.15-.11-.33-.21-.55-.32-.22-.11-.46-.2-.71-.28s-.52-.14-.79-.19c-.27-.05-.53-.07-.77-.07-.45,0-.84,.08-1.15,.25-.31,.17-.57,.39-.76,.66-.19,.27-.33,.59-.42,.95s-.13,.73-.13,1.12c0,.45,.05,.88,.16,1.27,.11,.39,.27,.74,.48,1.03,.21,.29,.48,.53,.81,.7,.33,.17,.7,.26,1.13,.26,.48,0,.99-.1,1.53-.29,.54-.19,.99-.46,1.35-.81l.4,1.88c-.37,.24-.88,.47-1.53,.68-.65,.21-1.34,.32-2.07,.32-.77,0-1.45-.13-2.03-.4s-1.06-.62-1.44-1.07-.67-.97-.86-1.56-.29-1.22-.29-1.89,.09-1.25,.27-1.83c.18-.58,.46-1.09,.85-1.54s.88-.8,1.48-1.06c.6-.26,1.32-.39,2.16-.39,.64,0,1.27,.07,1.88,.22,.61,.15,1.11,.34,1.48,.58l-.48,1.78Z"/>
      <path d="M60.04,260.69c1.17,0,2.08,.3,2.72,.89,.64,.59,.96,1.43,.96,2.51,0,.15,0,.3-.03,.47-.02,.17-.05,.33-.08,.49-.03,.16-.07,.3-.12,.43-.05,.13-.1,.23-.15,.31h-5.82c.03,.4,.1,.78,.22,1.13,.12,.35,.29,.66,.52,.92,.23,.26,.5,.47,.83,.62,.33,.15,.71,.23,1.15,.23,.49,0,1.02-.09,1.57-.28,.55-.19,1.02-.42,1.41-.7l.36,1.64c-.17,.11-.39,.22-.64,.35-.25,.13-.54,.24-.86,.35-.32,.11-.66,.2-1.03,.27-.37,.07-.75,.11-1.15,.11-.75,0-1.41-.13-1.98-.39-.57-.26-1.05-.61-1.44-1.06s-.68-.96-.88-1.55c-.2-.59-.3-1.2-.3-1.84s.1-1.28,.31-1.87c.21-.59,.51-1.12,.91-1.57,.4-.45,.9-.81,1.49-1.07,.59-.26,1.27-.39,2.03-.39Zm-.06,1.72c-.56,0-1.04,.16-1.43,.49-.39,.33-.68,.77-.85,1.33h3.82s.02-.09,.03-.14c0-.05,0-.12,0-.2,0-.43-.15-.78-.44-1.06-.29-.28-.67-.42-1.14-.42Z"/>
      <path d="M2.3,294.19H0v-13.2H2.3v13.2Z"/>
      <path d="M11.48,294.19v-6.08c0-1.09-.47-1.64-1.4-1.64-.23,0-.47,.04-.73,.12s-.51,.2-.75,.35-.46,.34-.65,.57c-.19,.23-.34,.49-.43,.78v5.9h-2.2v-9.2h1.72l.1,1.36h.08c.28-.56,.72-.98,1.31-1.25s1.23-.41,1.91-.41c.44,0,.85,.06,1.24,.17s.73,.3,1.03,.55c.3,.25,.54,.59,.71,1,.17,.41,.26,.92,.26,1.52v6.26h-2.2Z"/>
      <path d="M19.92,294.43c-.63,0-1.2-.13-1.72-.38-.52-.25-.96-.6-1.33-1.04-.37-.44-.65-.96-.85-1.56-.2-.6-.3-1.25-.3-1.96,0-.63,.08-1.23,.25-1.81,.17-.58,.42-1.09,.77-1.53,.35-.44,.78-.79,1.29-1.06,.51-.27,1.12-.4,1.83-.4,.64,0,1.21,.11,1.72,.32,.51,.21,.91,.51,1.22,.9v-6.52h2.18v14.8h-1.76l-.16-1.26h-.08c-.37,.41-.8,.77-1.27,1.06-.47,.29-1.07,.44-1.79,.44Zm.28-1.66c.21,0,.44-.03,.68-.09,.24-.06,.48-.14,.71-.25,.23-.11,.46-.24,.67-.39s.39-.33,.54-.53v-3.84c-.4-.49-.81-.83-1.22-1.01-.41-.18-.81-.27-1.2-.27-.43,0-.79,.08-1.1,.25-.31,.17-.56,.4-.77,.69s-.36,.63-.46,1.01-.15,.78-.15,1.19,.05,.8,.14,1.19c.09,.39,.23,.74,.42,1.04,.19,.3,.43,.54,.72,.73,.29,.19,.63,.28,1.02,.28Z"/>
      <path d="M29.86,284.99v5.98c0,.55,.14,.96,.43,1.25s.66,.43,1.11,.43,.89-.16,1.28-.47c.39-.31,.67-.76,.86-1.35v-5.84h2.22v9.2h-1.72l-.12-1.28h-.08c-.15,.31-.33,.56-.56,.75s-.48,.35-.75,.46c-.27,.11-.56,.19-.85,.24-.29,.05-.58,.07-.86,.07-.44,0-.85-.05-1.23-.16-.38-.11-.71-.28-1-.53-.29-.25-.51-.57-.68-.98-.17-.41-.25-.91-.25-1.51v-6.26h2.2Z"/>
      <path d="M41.32,286.33c-.44,0-.78,.08-1.03,.25-.25,.17-.37,.4-.37,.71,0,.2,.07,.38,.21,.55,.14,.17,.44,.3,.89,.41l1.42,.32c.56,.12,1.01,.29,1.35,.52,.34,.23,.61,.47,.8,.74s.32,.54,.39,.82c.07,.28,.1,.54,.1,.78,0,.43-.09,.82-.26,1.19-.17,.37-.42,.68-.74,.95-.32,.27-.71,.48-1.16,.63-.45,.15-.96,.23-1.52,.23-.71,0-1.36-.1-1.96-.31-.6-.21-1.08-.44-1.44-.69l.52-1.9c.45,.44,.96,.77,1.53,.98,.57,.21,1.09,.32,1.57,.32,.51,0,.89-.11,1.16-.33,.27-.22,.4-.52,.4-.91,0-.23-.07-.42-.2-.57s-.4-.28-.8-.39l-1.92-.48c-.45-.11-.82-.26-1.11-.46s-.51-.42-.68-.67c-.17-.25-.28-.5-.34-.77-.06-.27-.09-.52-.09-.76,0-.89,.31-1.58,.94-2.07,.63-.49,1.44-.73,2.44-.73,.52,0,1.08,.07,1.68,.21s1.11,.34,1.52,.61l-.58,1.8c-.27-.21-.64-.43-1.12-.65-.48-.22-1.01-.33-1.6-.33Z"/>
      <path d="M47.6,286.33h-1.14v-1.2l1.3-.2,.36-2.72h1.68v2.78h1.76v1.34h-1.76v5.28c0,.4,.04,.67,.12,.81s.23,.21,.46,.21c.17,0,.35-.03,.52-.1,.17-.07,.43-.19,.76-.38l.36,1.58c-.25,.21-.61,.38-1.07,.51-.46,.13-.92,.19-1.37,.19-.4,0-.73-.05-.99-.16s-.46-.26-.61-.47c-.15-.21-.25-.46-.3-.75-.05-.29-.08-.62-.08-.98v-5.74Z"/>
      <path d="M59.08,286.99c-.13-.11-.34-.19-.62-.26-.28-.07-.52-.1-.72-.1-.27,0-.49,.06-.66,.19-.17,.13-.33,.29-.46,.5-.13,.21-.25,.44-.34,.71-.09,.27-.18,.54-.26,.82v5.34h-2.2v-9.2h1.72l.1,1.92h.08c.13-.28,.27-.55,.42-.82,.15-.27,.31-.5,.5-.71,.19-.21,.4-.37,.65-.5,.25-.13,.54-.19,.87-.19,.53,0,1.03,.17,1.5,.52l-.58,1.78Z"/>
      <path d="M65.28,291.53l2.56-6.54h2.12l-3.8,9.28c-.19,.47-.44,.99-.77,1.57-.33,.58-.71,1.13-1.16,1.64-.45,.51-.95,.95-1.51,1.3-.56,.35-1.17,.53-1.82,.53-.11,0-.19,0-.24-.01-.05,0-.11-.02-.18-.05l-.38-1.72s.09,.03,.14,.04c.05,.01,.17,.02,.34,.02,.25,0,.5-.03,.75-.08,.25-.05,.5-.16,.75-.32,.48-.31,.9-.73,1.25-1.28,.35-.55,.7-1.22,1.03-2.02l-4.58-8.9h2.3l3.2,6.54Z"/>
    </g>
    <g>
      <path d="M33.09,9.27c-.43-.29-.94-.53-1.53-.71-.59-.18-1.27-.27-2.03-.27-.72,0-1.34,.11-1.85,.34-.51,.23-.93,.55-1.25,.96-.32,.41-.56,.91-.71,1.49-.15,.58-.23,1.22-.23,1.93,0,1.61,.34,2.83,1.03,3.66s1.68,1.24,2.97,1.24c.8,0,1.53-.12,2.19-.36,.66-.24,1.2-.53,1.63-.88l.6,1.98c-.53,.32-1.18,.6-1.93,.85-.75,.25-1.6,.37-2.55,.37-1.09,0-2.04-.18-2.84-.54-.8-.36-1.46-.85-1.99-1.46s-.92-1.32-1.17-2.13c-.25-.81-.38-1.66-.38-2.57s.14-1.83,.42-2.66c.28-.83,.7-1.55,1.25-2.17,.55-.62,1.24-1.11,2.06-1.47,.82-.36,1.78-.54,2.87-.54,.72,0,1.44,.08,2.16,.23,.72,.15,1.34,.36,1.86,.63l-.58,2.08Z"/>
      <path d="M39.85,10.13c.81,0,1.51,.14,2.1,.41s1.07,.64,1.45,1.1c.38,.46,.66,.99,.84,1.58,.18,.59,.27,1.22,.27,1.87s-.09,1.27-.27,1.85-.46,1.09-.84,1.52c-.38,.43-.86,.78-1.44,1.03-.58,.25-1.26,.38-2.05,.38s-1.51-.13-2.1-.4c-.59-.27-1.07-.62-1.46-1.07-.39-.45-.67-.96-.86-1.55-.19-.59-.28-1.21-.28-1.86s.09-1.27,.28-1.86c.19-.59,.47-1.1,.85-1.55s.86-.8,1.45-1.06c.59-.26,1.27-.39,2.06-.39Zm.04,8.08c.39,0,.72-.08,1.01-.25,.29-.17,.52-.39,.71-.68,.19-.29,.32-.62,.41-.99,.09-.37,.13-.77,.13-1.18s-.05-.84-.14-1.23c-.09-.39-.24-.74-.43-1.04s-.44-.54-.73-.72c-.29-.18-.65-.27-1.06-.27-.39,0-.72,.08-1,.25-.28,.17-.51,.39-.69,.67-.18,.28-.31,.61-.4,.98-.09,.37-.13,.77-.13,1.18s.04,.84,.13,1.23c.09,.39,.23,.74,.42,1.05s.44,.55,.73,.73c.29,.18,.64,.27,1.04,.27Z"/>
      <path d="M52.69,19.63v-6.08c0-1.09-.43-1.64-1.3-1.64-.21,0-.44,.04-.69,.12-.25,.08-.49,.2-.72,.35s-.45,.34-.64,.57c-.19,.23-.33,.49-.41,.78v5.9h-2.2V10.43h1.72l.1,1.36h.08c.27-.56,.69-.98,1.27-1.25s1.2-.41,1.85-.41,1.2,.12,1.71,.37c.51,.25,.9,.67,1.15,1.27,.27-.55,.69-.96,1.26-1.23s1.19-.41,1.84-.41c.43,0,.83,.06,1.21,.17s.71,.3,1,.55c.29,.25,.51,.59,.68,1,.17,.41,.25,.92,.25,1.52v6.26h-2.2v-6.08c0-1.09-.43-1.64-1.3-1.64-.21,0-.44,.04-.69,.12-.25,.08-.49,.2-.72,.35s-.45,.34-.64,.57c-.19,.23-.33,.49-.41,.78v5.9h-2.2Z"/>
      <path d="M69.39,19.63v-6.08c0-1.09-.43-1.64-1.3-1.64-.21,0-.44,.04-.69,.12-.25,.08-.49,.2-.72,.35s-.45,.34-.64,.57c-.19,.23-.33,.49-.41,.78v5.9h-2.2V10.43h1.72l.1,1.36h.08c.27-.56,.69-.98,1.27-1.25s1.2-.41,1.85-.41,1.2,.12,1.71,.37c.51,.25,.9,.67,1.15,1.27,.27-.55,.69-.96,1.26-1.23s1.19-.41,1.84-.41c.43,0,.83,.06,1.21,.17s.71,.3,1,.55c.29,.25,.51,.59,.68,1,.17,.41,.25,.92,.25,1.52v6.26h-2.2v-6.08c0-1.09-.43-1.64-1.3-1.64-.21,0-.44,.04-.69,.12-.25,.08-.49,.2-.72,.35s-.45,.34-.64,.57c-.19,.23-.33,.49-.41,.78v5.9h-2.2Z"/>
      <path d="M82.25,10.43v5.98c0,.55,.14,.96,.43,1.25s.66,.43,1.11,.43,.89-.16,1.28-.47c.39-.31,.67-.76,.86-1.35v-5.84h2.22v9.2h-1.72l-.12-1.28h-.08c-.15,.31-.33,.56-.56,.75s-.48,.35-.75,.46c-.27,.11-.56,.19-.85,.24-.29,.05-.58,.07-.86,.07-.44,0-.85-.05-1.23-.16-.38-.11-.71-.28-1-.53-.29-.25-.51-.57-.68-.98-.17-.41-.25-.91-.25-1.51v-6.26h2.2Z"/>
      <path d="M97.07,19.63v-6.08c0-1.09-.47-1.64-1.4-1.64-.23,0-.47,.04-.73,.12s-.51,.2-.75,.35-.46,.34-.65,.57c-.19,.23-.34,.49-.43,.78v5.9h-2.2V10.43h1.72l.1,1.36h.08c.28-.56,.72-.98,1.31-1.25s1.23-.41,1.91-.41c.44,0,.85,.06,1.24,.17s.73,.3,1.03,.55c.3,.25,.54,.59,.71,1,.17,.41,.26,.92,.26,1.52v6.26h-2.2Z"/>
      <path d="M101.53,7.47c0-.19,.04-.37,.11-.54,.07-.17,.18-.33,.31-.47,.13-.14,.28-.25,.45-.33s.35-.12,.55-.12c.19,0,.37,.04,.54,.12,.17,.08,.33,.19,.47,.33,.14,.14,.25,.3,.33,.47,.08,.17,.12,.35,.12,.54,0,.2-.04,.38-.12,.55s-.19,.32-.33,.45c-.14,.13-.3,.24-.47,.31-.17,.07-.35,.11-.54,.11-.39,0-.72-.14-1-.42-.28-.28-.42-.61-.42-1Zm2.52,12.16h-2.2V10.43h2.2v9.2Z"/>
      <path d="M113.91,12.71c-.15-.11-.33-.21-.55-.32-.22-.11-.46-.2-.71-.28s-.52-.14-.79-.19c-.27-.05-.53-.07-.77-.07-.45,0-.84,.08-1.15,.25-.31,.17-.57,.39-.76,.66-.19,.27-.33,.59-.42,.95s-.13,.73-.13,1.12c0,.45,.05,.88,.16,1.27,.11,.39,.27,.74,.48,1.03,.21,.29,.48,.53,.81,.7,.33,.17,.7,.26,1.13,.26,.48,0,.99-.1,1.53-.29,.54-.19,.99-.46,1.35-.81l.4,1.88c-.37,.24-.88,.47-1.53,.68-.65,.21-1.34,.32-2.07,.32-.77,0-1.45-.13-2.03-.4s-1.06-.62-1.44-1.07-.67-.97-.86-1.56-.29-1.22-.29-1.89,.09-1.25,.27-1.83c.18-.58,.46-1.09,.85-1.54s.88-.8,1.48-1.06c.6-.26,1.32-.39,2.16-.39,.64,0,1.27,.07,1.88,.22,.61,.15,1.11,.34,1.48,.58l-.48,1.78Z"/>
      <path d="M122.11,19.63l-.16-1.26h-.08c-.36,.45-.85,.82-1.47,1.09-.62,.27-1.25,.41-1.89,.41-.84,0-1.5-.24-1.98-.73-.48-.49-.72-1.13-.72-1.93,0-.55,.12-1.04,.35-1.47,.23-.43,.57-.8,1.01-1.1,.44-.3,.97-.53,1.58-.69,.61-.16,1.3-.24,2.06-.24h.86v-.3c0-.52-.17-.9-.5-1.14-.35-.24-.89-.36-1.62-.36-.99,0-1.87,.22-2.64,.66l-.42-1.66c.89-.52,1.97-.78,3.24-.78,1.33,0,2.35,.27,3.04,.82,.32,.25,.58,.58,.79,.98,.21,.4,.31,.88,.31,1.44v6.26h-1.76Zm-2.74-1.54c.43,0,.85-.1,1.28-.31,.43-.21,.77-.48,1.02-.83v-1.82h-.38c-1.09,0-1.89,.14-2.39,.42-.5,.28-.75,.73-.75,1.34,0,.8,.41,1.2,1.22,1.2Z"/>
      <path d="M126.87,11.77h-1.14v-1.2l1.3-.2,.36-2.72h1.68v2.78h1.76v1.34h-1.76v5.28c0,.4,.04,.67,.12,.81s.23,.21,.46,.21c.17,0,.35-.03,.52-.1,.17-.07,.43-.19,.76-.38l.36,1.58c-.25,.21-.61,.38-1.07,.51-.46,.13-.92,.19-1.37,.19-.4,0-.73-.05-.99-.16s-.46-.26-.61-.47c-.15-.21-.25-.46-.3-.75-.05-.29-.08-.62-.08-.98v-5.74Z"/>
      <path d="M132.77,7.47c0-.19,.04-.37,.11-.54,.07-.17,.18-.33,.31-.47,.13-.14,.28-.25,.45-.33s.35-.12,.55-.12c.19,0,.37,.04,.54,.12,.17,.08,.33,.19,.47,.33,.14,.14,.25,.3,.33,.47,.08,.17,.12,.35,.12,.54,0,.2-.04,.38-.12,.55s-.19,.32-.33,.45c-.14,.13-.3,.24-.47,.31-.17,.07-.35,.11-.54,.11-.39,0-.72-.14-1-.42-.28-.28-.42-.61-.42-1Zm2.52,12.16h-2.2V10.43h2.2v9.2Z"/>
      <path d="M142.15,10.13c.81,0,1.51,.14,2.1,.41s1.07,.64,1.45,1.1c.38,.46,.66,.99,.84,1.58,.18,.59,.27,1.22,.27,1.87s-.09,1.27-.27,1.85-.46,1.09-.84,1.52c-.38,.43-.86,.78-1.44,1.03-.58,.25-1.26,.38-2.05,.38s-1.51-.13-2.1-.4c-.59-.27-1.07-.62-1.46-1.07-.39-.45-.67-.96-.86-1.55-.19-.59-.28-1.21-.28-1.86s.09-1.27,.28-1.86c.19-.59,.47-1.1,.85-1.55s.86-.8,1.45-1.06c.59-.26,1.27-.39,2.06-.39Zm.04,8.08c.39,0,.72-.08,1.01-.25,.29-.17,.52-.39,.71-.68,.19-.29,.32-.62,.41-.99,.09-.37,.13-.77,.13-1.18s-.05-.84-.14-1.23c-.09-.39-.24-.74-.43-1.04s-.44-.54-.73-.72c-.29-.18-.65-.27-1.06-.27-.39,0-.72,.08-1,.25-.28,.17-.51,.39-.69,.67-.18,.28-.31,.61-.4,.98-.09,.37-.13,.77-.13,1.18s.04,.84,.13,1.23c.09,.39,.23,.74,.42,1.05s.44,.55,.73,.73c.29,.18,.64,.27,1.04,.27Z"/>
      <path d="M155.19,19.63v-6.08c0-1.09-.47-1.64-1.4-1.64-.23,0-.47,.04-.73,.12s-.51,.2-.75,.35-.46,.34-.65,.57c-.19,.23-.34,.49-.43,.78v5.9h-2.2V10.43h1.72l.1,1.36h.08c.28-.56,.72-.98,1.31-1.25s1.23-.41,1.91-.41c.44,0,.85,.06,1.24,.17s.73,.3,1.03,.55c.3,.25,.54,.59,.71,1,.17,.41,.26,.92,.26,1.52v6.26h-2.2Z"/>
      <path d="M34.73,43.63h-2.3v-5.8h-6.32v5.8h-2.3v-13.2h2.3v5.4h6.32v-5.4h2.3v13.2Z"/>
      <path d="M41.81,34.13c1.17,0,2.08,.3,2.72,.89,.64,.59,.96,1.43,.96,2.51,0,.15,0,.3-.03,.47-.02,.17-.05,.33-.08,.49-.03,.16-.07,.3-.12,.43-.05,.13-.1,.23-.15,.31h-5.82c.03,.4,.1,.78,.22,1.13,.12,.35,.29,.66,.52,.92,.23,.26,.5,.47,.83,.62,.33,.15,.71,.23,1.15,.23,.49,0,1.02-.09,1.57-.28,.55-.19,1.02-.42,1.41-.7l.36,1.64c-.17,.11-.39,.22-.64,.35-.25,.13-.54,.24-.86,.35-.32,.11-.66,.2-1.03,.27-.37,.07-.75,.11-1.15,.11-.75,0-1.41-.13-1.98-.39-.57-.26-1.05-.61-1.44-1.06s-.68-.96-.88-1.55c-.2-.59-.3-1.2-.3-1.84s.1-1.28,.31-1.87c.21-.59,.51-1.12,.91-1.57,.4-.45,.9-.81,1.49-1.07,.59-.26,1.27-.39,2.03-.39Zm-.06,1.72c-.56,0-1.04,.16-1.43,.49-.39,.33-.68,.77-.85,1.33h3.82s.02-.09,.03-.14c0-.05,0-.12,0-.2,0-.43-.15-.78-.44-1.06-.29-.28-.67-.42-1.14-.42Z"/>
      <path d="M53.33,43.63l-.16-1.26h-.08c-.36,.45-.85,.82-1.47,1.09-.62,.27-1.25,.41-1.89,.41-.84,0-1.5-.24-1.98-.73-.48-.49-.72-1.13-.72-1.93,0-.55,.12-1.04,.35-1.47,.23-.43,.57-.8,1.01-1.1,.44-.3,.97-.53,1.58-.69,.61-.16,1.3-.24,2.06-.24h.86v-.3c0-.52-.17-.9-.5-1.14-.35-.24-.89-.36-1.62-.36-.99,0-1.87,.22-2.64,.66l-.42-1.66c.89-.52,1.97-.78,3.24-.78,1.33,0,2.35,.27,3.04,.82,.32,.25,.58,.58,.79,.98,.21,.4,.31,.88,.31,1.44v6.26h-1.76Zm-2.74-1.54c.43,0,.85-.1,1.28-.31,.43-.21,.77-.48,1.02-.83v-1.82h-.38c-1.09,0-1.89,.14-2.39,.42-.5,.28-.75,.73-.75,1.34,0,.8,.41,1.2,1.22,1.2Z"/>
      <path d="M60.07,43.63h-2.2v-14.8h2.2v14.8Z"/>
      <path d="M63.37,35.77h-1.14v-1.2l1.3-.2,.36-2.72h1.68v2.78h1.76v1.34h-1.76v5.28c0,.4,.04,.67,.12,.81s.23,.21,.46,.21c.17,0,.35-.03,.52-.1,.17-.07,.43-.19,.76-.38l.36,1.58c-.25,.21-.61,.38-1.07,.51-.46,.13-.92,.19-1.37,.19-.4,0-.73-.05-.99-.16s-.46-.26-.61-.47c-.15-.21-.25-.46-.3-.75-.05-.29-.08-.62-.08-.98v-5.74Z"/>
      <path d="M71.79,35.79c.37-.59,.81-1.01,1.31-1.27,.5-.26,1.09-.39,1.77-.39,.4,0,.79,.06,1.16,.17,.37,.11,.7,.3,.99,.55,.29,.25,.51,.59,.68,1,.17,.41,.25,.92,.25,1.52v6.26h-2.2v-6.08c0-.55-.12-.96-.36-1.23-.24-.27-.57-.41-.98-.41-.25,0-.52,.04-.79,.12s-.53,.2-.77,.36c-.24,.16-.45,.35-.64,.58-.19,.23-.33,.48-.42,.76v5.9h-2.2v-14.8h2.2v6.96Z"/>
      <path d="M87.73,36.71c-.15-.11-.33-.21-.55-.32-.22-.11-.46-.2-.71-.28s-.52-.14-.79-.19c-.27-.05-.53-.07-.77-.07-.45,0-.84,.08-1.15,.25-.31,.17-.57,.39-.76,.66-.19,.27-.33,.59-.42,.95s-.13,.73-.13,1.12c0,.45,.05,.88,.16,1.27,.11,.39,.27,.74,.48,1.03,.21,.29,.48,.53,.81,.7,.33,.17,.7,.26,1.13,.26,.48,0,.99-.1,1.53-.29,.54-.19,.99-.46,1.35-.81l.4,1.88c-.37,.24-.88,.47-1.53,.68-.65,.21-1.34,.32-2.07,.32-.77,0-1.45-.13-2.03-.4s-1.06-.62-1.44-1.07-.67-.97-.86-1.56-.29-1.22-.29-1.89,.09-1.25,.27-1.83c.18-.58,.46-1.09,.85-1.54s.88-.8,1.48-1.06c.6-.26,1.32-.39,2.16-.39,.64,0,1.27,.07,1.88,.22,.61,.15,1.11,.34,1.48,.58l-.48,1.78Z"/>
      <path d="M95.93,43.63l-.16-1.26h-.08c-.36,.45-.85,.82-1.47,1.09-.62,.27-1.25,.41-1.89,.41-.84,0-1.5-.24-1.98-.73-.48-.49-.72-1.13-.72-1.93,0-.55,.12-1.04,.35-1.47,.23-.43,.57-.8,1.01-1.1,.44-.3,.97-.53,1.58-.69,.61-.16,1.3-.24,2.06-.24h.86v-.3c0-.52-.17-.9-.5-1.14-.35-.24-.89-.36-1.62-.36-.99,0-1.87,.22-2.64,.66l-.42-1.66c.89-.52,1.97-.78,3.24-.78,1.33,0,2.35,.27,3.04,.82,.32,.25,.58,.58,.79,.98,.21,.4,.31,.88,.31,1.44v6.26h-1.76Zm-2.74-1.54c.43,0,.85-.1,1.28-.31,.43-.21,.77-.48,1.02-.83v-1.82h-.38c-1.09,0-1.89,.14-2.39,.42-.5,.28-.75,.73-.75,1.34,0,.8,.41,1.2,1.22,1.2Z"/>
      <path d="M105.61,36.43c-.13-.11-.34-.19-.62-.26-.28-.07-.52-.1-.72-.1-.27,0-.49,.06-.66,.19-.17,.13-.33,.29-.46,.5-.13,.21-.25,.44-.34,.71-.09,.27-.18,.54-.26,.82v5.34h-2.2v-9.2h1.72l.1,1.92h.08c.13-.28,.27-.55,.42-.82,.15-.27,.31-.5,.5-.71,.19-.21,.4-.37,.65-.5,.25-.13,.54-.19,.87-.19,.53,0,1.03,.17,1.5,.52l-.58,1.78Z"/>
      <path d="M111.83,34.13c1.17,0,2.08,.3,2.72,.89,.64,.59,.96,1.43,.96,2.51,0,.15,0,.3-.03,.47-.02,.17-.05,.33-.08,.49-.03,.16-.07,.3-.12,.43-.05,.13-.1,.23-.15,.31h-5.82c.03,.4,.1,.78,.22,1.13,.12,.35,.29,.66,.52,.92,.23,.26,.5,.47,.83,.62,.33,.15,.71,.23,1.15,.23,.49,0,1.02-.09,1.57-.28,.55-.19,1.02-.42,1.41-.7l.36,1.64c-.17,.11-.39,.22-.64,.35-.25,.13-.54,.24-.86,.35-.32,.11-.66,.2-1.03,.27-.37,.07-.75,.11-1.15,.11-.75,0-1.41-.13-1.98-.39-.57-.26-1.05-.61-1.44-1.06s-.68-.96-.88-1.55c-.2-.59-.3-1.2-.3-1.84s.1-1.28,.31-1.87c.21-.59,.51-1.12,.91-1.57,.4-.45,.9-.81,1.49-1.07,.59-.26,1.27-.39,2.03-.39Zm-.06,1.72c-.56,0-1.04,.16-1.43,.49-.39,.33-.68,.77-.85,1.33h3.82s.02-.09,.03-.14c0-.05,0-.12,0-.2,0-.43-.15-.78-.44-1.06-.29-.28-.67-.42-1.14-.42Z"/>
      <path d="M32.41,56.43h-3.82v11.2h-2.3v-11.2h-3.82v-2h9.94v2Z"/>
      <path d="M36.69,58.13c1.17,0,2.08,.3,2.72,.89,.64,.59,.96,1.43,.96,2.51,0,.15,0,.3-.03,.47-.02,.17-.05,.33-.08,.49-.03,.16-.07,.3-.12,.43-.05,.13-.1,.23-.15,.31h-5.82c.03,.4,.1,.78,.22,1.13,.12,.35,.29,.66,.52,.92,.23,.26,.5,.47,.83,.62,.33,.15,.71,.23,1.15,.23,.49,0,1.02-.09,1.57-.28,.55-.19,1.02-.42,1.41-.7l.36,1.64c-.17,.11-.39,.22-.64,.35-.25,.13-.54,.24-.86,.35-.32,.11-.66,.2-1.03,.27-.37,.07-.75,.11-1.15,.11-.75,0-1.41-.13-1.98-.39-.57-.26-1.05-.61-1.44-1.06s-.68-.96-.88-1.55c-.2-.59-.3-1.2-.3-1.84s.1-1.28,.31-1.87c.21-.59,.51-1.12,.91-1.57,.4-.45,.9-.81,1.49-1.07,.59-.26,1.27-.39,2.03-.39Zm-.06,1.72c-.56,0-1.04,.16-1.43,.49-.39,.33-.68,.77-.85,1.33h3.82s.02-.09,.03-.14c0-.05,0-.12,0-.2,0-.43-.15-.78-.44-1.06-.29-.28-.67-.42-1.14-.42Z"/>
      <path d="M49.71,60.71c-.15-.11-.33-.21-.55-.32-.22-.11-.46-.2-.71-.28s-.52-.14-.79-.19c-.27-.05-.53-.07-.77-.07-.45,0-.84,.08-1.15,.25-.31,.17-.57,.39-.76,.66-.19,.27-.33,.59-.42,.95s-.13,.73-.13,1.12c0,.45,.05,.88,.16,1.27,.11,.39,.27,.74,.48,1.03,.21,.29,.48,.53,.81,.7,.33,.17,.7,.26,1.13,.26,.48,0,.99-.1,1.53-.29,.54-.19,.99-.46,1.35-.81l.4,1.88c-.37,.24-.88,.47-1.53,.68-.65,.21-1.34,.32-2.07,.32-.77,0-1.45-.13-2.03-.4s-1.06-.62-1.44-1.07-.67-.97-.86-1.56-.29-1.22-.29-1.89,.09-1.25,.27-1.83c.18-.58,.46-1.09,.85-1.54s.88-.8,1.48-1.06c.6-.26,1.32-.39,2.16-.39,.64,0,1.27,.07,1.88,.22,.61,.15,1.11,.34,1.48,.58l-.48,1.78Z"/>
      <path d="M54.59,59.79c.37-.59,.81-1.01,1.31-1.27,.5-.26,1.09-.39,1.77-.39,.4,0,.79,.06,1.16,.17,.37,.11,.7,.3,.99,.55,.29,.25,.51,.59,.68,1,.17,.41,.25,.92,.25,1.52v6.26h-2.2v-6.08c0-.55-.12-.96-.36-1.23-.24-.27-.57-.41-.98-.41-.25,0-.52,.04-.79,.12s-.53,.2-.77,.36c-.24,.16-.45,.35-.64,.58-.19,.23-.33,.48-.42,.76v5.9h-2.2v-14.8h2.2v6.96Z"/>
      <path d="M69.59,67.63v-6.08c0-1.09-.47-1.64-1.4-1.64-.23,0-.47,.04-.73,.12s-.51,.2-.75,.35-.46,.34-.65,.57c-.19,.23-.34,.49-.43,.78v5.9h-2.2v-9.2h1.72l.1,1.36h.08c.28-.56,.72-.98,1.31-1.25s1.23-.41,1.91-.41c.44,0,.85,.06,1.24,.17s.73,.3,1.03,.55c.3,.25,.54,.59,.71,1,.17,.41,.26,.92,.26,1.52v6.26h-2.2Z"/>
      <path d="M78.47,58.13c.81,0,1.51,.14,2.1,.41s1.07,.64,1.45,1.1c.38,.46,.66,.99,.84,1.58,.18,.59,.27,1.22,.27,1.87s-.09,1.27-.27,1.85-.46,1.09-.84,1.52c-.38,.43-.86,.78-1.44,1.03-.58,.25-1.26,.38-2.05,.38s-1.51-.13-2.1-.4c-.59-.27-1.07-.62-1.46-1.07-.39-.45-.67-.96-.86-1.55-.19-.59-.28-1.21-.28-1.86s.09-1.27,.28-1.86c.19-.59,.47-1.1,.85-1.55s.86-.8,1.45-1.06c.59-.26,1.27-.39,2.06-.39Zm.04,8.08c.39,0,.72-.08,1.01-.25,.29-.17,.52-.39,.71-.68,.19-.29,.32-.62,.41-.99,.09-.37,.13-.77,.13-1.18s-.05-.84-.14-1.23c-.09-.39-.24-.74-.43-1.04s-.44-.54-.73-.72c-.29-.18-.65-.27-1.06-.27-.39,0-.72,.08-1,.25-.28,.17-.51,.39-.69,.67-.18,.28-.31,.61-.4,.98-.09,.37-.13,.77-.13,1.18s.04,.84,.13,1.23c.09,.39,.23,.74,.42,1.05s.44,.55,.73,.73c.29,.18,.64,.27,1.04,.27Z"/>
      <path d="M87.67,67.63h-2.2v-14.8h2.2v14.8Z"/>
      <path d="M94.65,58.13c.81,0,1.51,.14,2.1,.41s1.07,.64,1.45,1.1c.38,.46,.66,.99,.84,1.58,.18,.59,.27,1.22,.27,1.87s-.09,1.27-.27,1.85-.46,1.09-.84,1.52c-.38,.43-.86,.78-1.44,1.03-.58,.25-1.26,.38-2.05,.38s-1.51-.13-2.1-.4c-.59-.27-1.07-.62-1.46-1.07-.39-.45-.67-.96-.86-1.55-.19-.59-.28-1.21-.28-1.86s.09-1.27,.28-1.86c.19-.59,.47-1.1,.85-1.55s.86-.8,1.45-1.06c.59-.26,1.27-.39,2.06-.39Zm.04,8.08c.39,0,.72-.08,1.01-.25,.29-.17,.52-.39,.71-.68,.19-.29,.32-.62,.41-.99,.09-.37,.13-.77,.13-1.18s-.05-.84-.14-1.23c-.09-.39-.24-.74-.43-1.04s-.44-.54-.73-.72c-.29-.18-.65-.27-1.06-.27-.39,0-.72,.08-1,.25-.28,.17-.51,.39-.69,.67-.18,.28-.31,.61-.4,.98-.09,.37-.13,.77-.13,1.18s.04,.84,.13,1.23c.09,.39,.23,.74,.42,1.05s.44,.55,.73,.73c.29,.18,.64,.27,1.04,.27Z"/>
      <path d="M102.75,64.73c-.6-.25-1.03-.65-1.3-1.18-.27-.53-.4-1.11-.4-1.74,0-.52,.09-1.01,.26-1.46,.17-.45,.42-.84,.75-1.17s.72-.58,1.18-.77c.46-.19,.98-.28,1.57-.28,.35,0,.69,.03,1.03,.1,.34,.06,.64,.16,.89,.29,.56,0,1.07-.04,1.53-.11s.9-.17,1.33-.3l.18,.14-.22,1.52-.1,.1-1.42-.16-.02,.06c.45,.57,.68,1.25,.68,2.02,0,.47-.08,.9-.25,1.31s-.41,.76-.73,1.06c-.32,.3-.72,.54-1.19,.72-.47,.18-1.01,.27-1.61,.27-.15,0-.26,0-.35-.01-.09,0-.17,0-.25,0-.23,.08-.4,.18-.52,.31-.12,.13-.18,.26-.18,.39,0,.15,.07,.27,.22,.38,.15,.11,.37,.18,.68,.22l1.94,.24c.44,.05,.85,.15,1.23,.28,.38,.13,.71,.31,1,.54,.29,.23,.51,.5,.67,.82,.16,.32,.24,.69,.24,1.1s-.09,.81-.26,1.2c-.17,.39-.45,.73-.82,1.02-.37,.29-.84,.53-1.41,.7-.57,.17-1.25,.26-2.05,.26-.71,0-1.33-.07-1.87-.21s-1-.33-1.37-.57c-.37-.24-.66-.52-.85-.85-.19-.33-.29-.68-.29-1.05,0-.27,.05-.53,.14-.79,.09-.26,.22-.5,.39-.72s.36-.42,.58-.59c.22-.17,.46-.3,.71-.38v-.08c-.31-.13-.52-.31-.64-.54s-.18-.45-.18-.66c0-.28,.09-.54,.28-.78,.19-.24,.45-.43,.8-.56v-.08Zm1.52,3.34c-.45,.08-.84,.27-1.16,.57-.32,.3-.48,.64-.48,1.03,0,.43,.21,.75,.63,.96,.42,.21,1.03,.32,1.83,.32s1.41-.11,1.88-.33c.47-.22,.7-.58,.7-1.07s-.26-.82-.78-1.02c-.52-.2-1.39-.35-2.62-.46Zm.62-4.46c.55,0,.96-.18,1.24-.53,.28-.35,.42-.78,.42-1.29,0-.24-.03-.48-.1-.73s-.17-.47-.32-.67c-.15-.2-.33-.36-.55-.49-.22-.13-.48-.19-.77-.19s-.53,.06-.74,.17-.39,.26-.53,.45c-.14,.19-.24,.4-.31,.63-.07,.23-.1,.47-.1,.71s.04,.48,.11,.71c.07,.23,.18,.44,.33,.62,.15,.18,.33,.33,.55,.44,.22,.11,.48,.17,.77,.17Z"/>
      <path d="M115.47,64.97l2.56-6.54h2.12l-3.8,9.28c-.19,.47-.44,.99-.77,1.57-.33,.58-.71,1.13-1.16,1.64-.45,.51-.95,.95-1.51,1.3-.56,.35-1.17,.53-1.82,.53-.11,0-.19,0-.24-.01-.05,0-.11-.02-.18-.05l-.38-1.72s.09,.03,.14,.04c.05,.01,.17,.02,.34,.02,.25,0,.5-.03,.75-.08,.25-.05,.5-.16,.75-.32,.48-.31,.9-.73,1.25-1.28,.35-.55,.7-1.22,1.03-2.02l-4.58-8.9h2.3l3.2,6.54Z"/>
    </g>
  </g>
</svg>