<?xml version="1.0" encoding="UTF-8"?>
<svg id="Ebene_2" data-name="Ebene 2" xmlns="http://www.w3.org/2000/svg" viewBox="0 0 1200 790">
  <defs>
    <style>
      .cls-1 {
        fill: #35c9ff;
      }

      .cls-1, .cls-2, .cls-3, .cls-4, .cls-5, .cls-6, .cls-7 {
        stroke: #fff;
        stroke-miterlimit: 10;
      }

      .cls-8 {
        fill: #fff;
      }

      .cls-2 {
        fill: #6b35ff;
      }

      .cls-9, .cls-5 {
        fill: #243c77;
      }

      .cls-3 {
        fill: #602578;
      }

      .cls-10 {
        opacity: .8;
      }

      .cls-4 {
        stroke-width: 2px;
      }

      .cls-4, .cls-11 {
        fill: none;
      }

      .cls-6 {
        fill: #fa0;
      }

      .cls-7 {
        fill: #ff6040;
      }
    </style>
  </defs>
  <g id="Ebene_1-2" data-name="Ebene 1">
    <rect class="cls-9" width="1200" height="790"/>
    <rect class="cls-11" width="1200" height="790"/>
    <g class="cls-10">
      <g>
        <path class="cls-4" d="M279.83,134.21c-20.76,12.23-144.65,87.68-156.87,216.07-15.22,159.87,155.36,269.06,189.04,290.61,271.06,173.5,741.16,53.07,785.87-137.87,36.14-154.33-197.2-390.65-450.5-433.85-108.03-18.43-201.57,1.36-263.67,21.64"/>
        <polygon class="cls-8" points="383.4 80.55 370.11 95.42 389.63 99.5 383.4 80.55"/>
      </g>
    </g>
    <polygon class="cls-1" points="670.83 405.21 533.01 405.21 464.1 524.56 533.01 643.92 670.83 643.92 739.75 524.56 670.83 405.21"/>
    <rect class="cls-11" width="1200" height="790"/>
    <polygon class="cls-7" points="894.13 270.9 756.31 270.9 687.4 390.26 756.31 509.62 894.13 509.62 963.04 390.26 894.13 270.9"/>
    <polygon class="cls-5" points="1116.72 139.56 978.89 139.56 909.98 258.92 978.89 378.28 1116.72 378.28 1185.63 258.92 1116.72 139.56"/>
    <polygon class="cls-6" points="669.27 144.68 531.45 144.68 462.54 264.04 531.45 383.4 669.27 383.4 738.19 264.04 669.27 144.68"/>
    <polygon class="cls-3" points="891.6 11.94 753.77 11.94 684.86 131.3 753.77 250.66 891.6 250.66 960.51 131.3 891.6 11.94"/>
    <polygon class="cls-2" points="445.31 273.63 307.49 273.63 238.58 392.99 307.49 512.35 445.31 512.35 514.23 392.99 445.31 273.63"/>
    <polygon class="cls-5" points="215.53 405.05 77.71 405.05 8.79 524.41 77.71 643.77 215.53 643.77 284.44 524.41 215.53 405.05"/>
    <g>
      <path class="cls-8" d="M540.53,264.03h-14.8v14.8h21.24v7.4h-29.75v-48.84h28.27v7.4h-19.76v11.84h14.8v7.4Z"/>
      <path class="cls-8" d="M588.26,273.28v-35.89h8.51v48.84h-10.43l-21.46-35.82v35.82h-8.51v-48.84h10.43l21.46,35.89Z"/>
      <path class="cls-8" d="M621.79,265.36h-1.67c-.57,0-1.17-.02-1.81-.07v20.94h-8.51v-49.06h10.88c6.31,0,11.12,1.19,14.43,3.57,3.3,2.38,4.96,5.85,4.96,10.41,0,2.9-.72,5.5-2.15,7.8-1.43,2.31-3.82,4.02-7.18,5.15l17.91,22.13h-9.84l-17.02-20.87Zm-.37-21.24h-1.41c-.54,0-1.11,.03-1.7,.07v14.06h4.59c2.66,0,4.69-.67,6.07-2,1.38-1.33,2.07-3.23,2.07-5.7,0-2.22-.68-3.85-2.04-4.88-1.36-1.04-3.88-1.55-7.58-1.55Z"/>
      <path class="cls-8" d="M660.86,249.16c0,1.04,.23,1.92,.7,2.66,.47,.74,1.12,1.38,1.96,1.92,.84,.54,1.84,1.05,3,1.52,1.16,.47,2.45,.95,3.88,1.44,1.78,.64,3.54,1.37,5.29,2.18,1.75,.81,3.33,1.83,4.74,3.03,1.41,1.21,2.55,2.7,3.44,4.48,.89,1.78,1.33,3.92,1.33,6.44,0,2.66-.48,4.91-1.44,6.73-.96,1.83-2.26,3.29-3.88,4.4-1.63,1.11-3.5,1.91-5.62,2.4-2.12,.49-4.32,.74-6.59,.74-3.26,0-6.3-.4-9.14-1.18-2.84-.79-5.27-1.75-7.29-2.89l2.22-7.99c1.87,1.43,3.96,2.62,6.25,3.55,2.29,.94,4.92,1.41,7.88,1.41,3.16,0,5.45-.56,6.88-1.67,1.43-1.11,2.15-2.6,2.15-4.48,0-1.43-.35-2.65-1.04-3.66-.69-1.01-1.55-1.87-2.59-2.59-1.04-.71-2.13-1.29-3.29-1.74-1.16-.44-2.18-.81-3.07-1.11-1.58-.49-3.18-1.08-4.81-1.78-1.63-.69-3.13-1.59-4.51-2.7-1.38-1.11-2.5-2.5-3.37-4.18-.86-1.68-1.29-3.77-1.29-6.29,0-2.37,.41-4.37,1.22-5.99s1.92-2.95,3.33-3.96c1.41-1.01,3.06-1.74,4.96-2.18,1.9-.44,3.96-.67,6.18-.67,2.71,0,5.34,.27,7.88,.81,2.54,.54,4.67,1.21,6.4,2l-2,7.84c-.89-.59-1.85-1.11-2.89-1.55s-2.11-.81-3.22-1.11c-1.11-.3-2.22-.53-3.33-.7-1.11-.17-2.16-.26-3.15-.26-2.22,0-3.97,.42-5.25,1.26-1.28,.84-1.92,2.12-1.92,3.85Z"/>
    </g>
    <g>
      <path class="cls-8" d="M559.68,509.02h-14.13v41.44h-8.51v-41.44h-14.13v-7.4h36.78v7.4Z"/>
      <path class="cls-8" d="M591.05,528.26h-14.8v14.8h21.24v7.4h-29.75v-48.84h28.27v7.4h-19.76v11.84h14.8v7.4Z"/>
      <path class="cls-8" d="M615.4,543.06h20.35v7.4h-28.86v-48.84h8.51v41.44Z"/>
      <path class="cls-8" d="M649.88,513.39c0,1.04,.23,1.92,.7,2.66,.47,.74,1.12,1.38,1.96,1.92,.84,.54,1.84,1.05,3,1.52,1.16,.47,2.45,.95,3.88,1.44,1.78,.64,3.54,1.37,5.29,2.18,1.75,.81,3.33,1.83,4.74,3.03,1.41,1.21,2.55,2.7,3.44,4.48,.89,1.78,1.33,3.92,1.33,6.44,0,2.66-.48,4.91-1.44,6.73-.96,1.83-2.26,3.29-3.88,4.4s-3.5,1.91-5.62,2.41c-2.12,.49-4.32,.74-6.59,.74-3.26,0-6.3-.4-9.14-1.18-2.84-.79-5.27-1.75-7.29-2.89l2.22-7.99c1.87,1.43,3.96,2.62,6.25,3.55,2.29,.94,4.92,1.41,7.88,1.41,3.16,0,5.45-.55,6.88-1.67,1.43-1.11,2.15-2.6,2.15-4.48,0-1.43-.35-2.65-1.04-3.66-.69-1.01-1.55-1.87-2.59-2.59-1.04-.71-2.13-1.29-3.29-1.74-1.16-.44-2.18-.81-3.07-1.11-1.58-.49-3.18-1.08-4.81-1.78-1.63-.69-3.13-1.59-4.51-2.7-1.38-1.11-2.5-2.5-3.37-4.18-.86-1.68-1.29-3.77-1.29-6.29,0-2.37,.41-4.37,1.22-5.99s1.92-2.95,3.33-3.96c1.41-1.01,3.06-1.74,4.96-2.18,1.9-.44,3.96-.67,6.18-.67,2.71,0,5.34,.27,7.88,.81,2.54,.54,4.67,1.21,6.4,2l-2,7.84c-.89-.59-1.85-1.11-2.89-1.55s-2.11-.81-3.22-1.11c-1.11-.3-2.22-.53-3.33-.7-1.11-.17-2.16-.26-3.15-.26-2.22,0-3.97,.42-5.25,1.26-1.28,.84-1.92,2.12-1.92,3.85Z"/>
    </g>
    <g>
      <path class="cls-8" d="M312.58,402.21l16.21-37.3h9.69v48.84h-8.44v-32.19l-14.06,32.19h-6.81l-14.43-32.19v32.19h-8.51v-48.84h9.69l16.65,37.3Z"/>
      <path class="cls-8" d="M392.28,413.75h-9.25l-5.55-14.21h-18.43l-5.03,14.21h-8.88l18.94-48.84h7.33l20.87,48.84Zm-30.86-20.87h13.39l-7.03-17.98-6.36,17.98Z"/>
      <path class="cls-8" d="M426.24,372.31h-14.13v41.44h-8.51v-41.44h-14.13v-7.4h36.78v7.4Z"/>
      <path class="cls-8" d="M446.3,392.88h-1.67c-.57,0-1.17-.02-1.81-.07v20.94h-8.51v-49.06h10.88c6.31,0,11.12,1.19,14.43,3.57,3.3,2.38,4.96,5.85,4.96,10.41,0,2.9-.72,5.5-2.15,7.8-1.43,2.31-3.82,4.02-7.18,5.15l17.91,22.13h-9.84l-17.02-20.87Zm-.37-21.24h-1.41c-.54,0-1.11,.03-1.7,.07v14.06h4.59c2.66,0,4.69-.67,6.07-2,1.38-1.33,2.07-3.23,2.07-5.7,0-2.22-.68-3.85-2.04-4.88-1.36-1.04-3.88-1.55-7.58-1.55Z"/>
    </g>
    <g>
      <path class="cls-8" d="M782.92,413.94h-8.51v-21.46h-23.38v21.46h-8.51v-48.84h8.51v19.98h23.38v-19.98h8.51v48.84Z"/>
      <path class="cls-8" d="M804.45,406.54h20.35v7.4h-28.86v-48.84h8.51v41.44Z"/>
      <path class="cls-8" d="M860.1,372.5h-14.13v41.44h-8.51v-41.44h-14.13v-7.4h36.78v7.4Z"/>
      <path class="cls-8" d="M908.57,413.94h-8.51v-21.46h-23.38v21.46h-8.51v-48.84h8.51v19.98h23.38v-19.98h8.51v48.84Z"/>
    </g>
    <g>
      <path class="cls-8" d="M764.12,153.16h-8.51v-48.84h8.51v48.84Z"/>
      <path class="cls-8" d="M809.04,140.21v-35.89h8.51v48.84h-10.43l-21.46-35.82v35.82h-8.51v-48.84h10.43l21.46,35.89Z"/>
      <path class="cls-8" d="M853.07,130.96h-13.99v22.2h-8.51v-48.84h27.9v7.4h-19.39v11.84h13.99v7.4Z"/>
      <path class="cls-8" d="M898.43,111.72h-14.13v41.44h-8.51v-41.44h-14.13v-7.4h36.78v7.4Z"/>
    </g>
  </g>
</svg>