<?xml version="1.0" encoding="UTF-8"?>
<svg id="Ebene_2" data-name="Ebene 2" xmlns="http://www.w3.org/2000/svg" viewBox="0 0 865.04 875.03">
  <defs>
    <style>
      .cls-1 {
        fill: #ff6b35;
      }
    </style>
  </defs>
  <g id="Ebene_1-2" data-name="Ebene 1">
    <path class="cls-1" d="M761,.13c26.9-.9,52.9,3.1,79.1,8,10.6,1.9,15.9,6.1,17.8,17.5,25.2,157.5-14.6,290.8-146.9,387.9-133.9,98.2-275.9,184.2-416.8,271.8-10.5,6.5-16.6,6.7-25.5-2.4-28.2-29.1-57.2-57.6-86.4-85.7-8-7.7-10.1-13.5-3.6-23.8,91.3-144.1,178.5-290.9,280.5-427.9C533.9,45.23,638.1,2.13,761,.13h0Zm-194.7,214.3c-.1,48.1,37.8,86.1,85.8,85.8,47.7-.3,86-38.8,85.7-86.4-.2-46.9-40-86.8-86.4-86.6-46.8,0-85,39.2-85.1,87.2h0Zm-212.1-12.5c-42,65.7-81.6,127.2-120.7,189.1-6,9.5-11.5,9.7-20.9,5.3-52.4-24.8-105.5-22.6-158.9-3.3-11.9,4.3-24.1,9-33.6-4.5-9.8-13.9-3.1-25.7,6.6-35.5,37.2-37.8,74.5-75.5,112.7-112.5,28.9-28,64.5-39.4,104.5-38.8,35.6,.6,71.3,.2,110.3,.2h0Zm309.9,379.9c0,14.1,.2,28.1,0,42.2-.5,41.4-13.2,77.8-43.4,107.4-35,34.5-69.6,69.5-104,104.6-11.5,11.7-24.1,18.8-39.1,9-14.6-9.5-8.2-23.3-3.7-35.8,19.2-52.8,20.6-105.1-4.5-156.4-4.6-9.4-3.7-14.2,5.9-20.2,58.5-37.2,116.7-74.9,174.7-113,12.2-8,14.5-3.4,14.3,8.4-.5,17.8-.2,35.8-.2,53.8h0Zm-501.8,71c-28.8,17.2-48.6,39.1-44.5,74,2,17.6,14.4,28.3,31.1,30.2,34.9,4.1,56.5-16.3,72.7-44.2,37.4,30.3,39.1,28.7,21,76.2-13.8,36.2-44.7,54.1-81,63.9-46.2,12.6-94.2,10.1-141,18.4-6,1-12.1,2.2-20.6,3.7,12.2-55.2,8.3-111.6,23.4-165.6,9.7-34.6,28.7-61.9,62.1-77.3,37.2-17.1,47.5-14.3,76.8,20.7h0Z"/>
  </g>
</svg>