<?xml version="1.0" encoding="UTF-8"?>
<svg id="Ebene_2" data-name="Ebene 2" xmlns="http://www.w3.org/2000/svg" viewBox="0 0 874.95 833.37">
  <defs>
    <style>
      .cls-1 {
        fill: #ff6b35;
      }
    </style>
  </defs>
  <g id="Ebene_1-2" data-name="Ebene 1">
    <path class="cls-1" d="M167.26,830.18c2.5-29.7,4.8-57.9,7.2-86.2,5.2-61.1,9.9-122.3,16.1-183.4,1.6-16-4.1-26.6-14-37.9C118.96,457.38,61.96,391.58,4.66,325.88c-1.2-1.4-2.3-2.7-3.8-4.5-1.6-1.9-.9-3.9,1.5-4.4,27.8-6.6,54.4-13,81-19.2,62.9-14.7,125.8-29.4,188.7-43.7,9.5-2.2,15.6-6.7,20.6-15.1,45.6-76.8,91.7-153.5,137.6-230.1,1.4-2.3,2.8-4.6,4.6-7.3,1.3-2.1,3.4-2.1,4.7,0,7.5,12.1,14.6,23.4,21.6,34.9,40.8,67.6,81.4,135.3,122.7,202.5,3.7,5.9,11.3,11.5,18.1,13.2,89.6,21.3,179.3,41.8,270.5,62.9,2.4,.6,3.2,2.6,1.8,4.7s-2.7,4-4.2,5.7c-59.7,69.2-119.5,138.2-179,207.6-3.5,4-5.7,11-5.2,16.3,6.9,83,14.4,165.9,21.7,248.8,.9,9.6,1.8,19.3,3,30.8,.2,2.4-1.4,3.7-3.7,2.9-4-1.4-7.1-2.5-10.1-3.7-81.5-34.2-163-68.3-244.2-103-10.2-4.3-18.3-4-28.2,.3-80.2,34.6-160.7,68.7-241.1,102.9-3.7,1.6-7.5,3-12.2,4.8-2.3,.7-4-.5-3.8-3h0Z"/>
  </g>
</svg>