<?xml version="1.0" encoding="UTF-8"?>
<svg id="Ebene_2" data-name="Ebene 2" xmlns="http://www.w3.org/2000/svg" viewBox="0 0 505 505">
  <defs>
    <style>
      .cls-1 {
        fill: #fff;
      }

      .cls-2 {
        fill: #ff6b35;
      }
    </style>
  </defs>
  <g id="Ebene_2-2" data-name="Ebene 2">
    <circle class="cls-2" cx="252.5" cy="252.5" r="252.5"/>
    <g id="Ebene_1-2" data-name="Ebene 1-2">
      <path class="cls-1" d="M149.92,391.16c.95-11.28,1.82-21.98,2.73-32.72,1.97-23.2,3.76-46.43,6.11-69.63,.61-6.07-1.56-10.1-5.31-14.39-21.87-24.79-43.51-49.77-65.26-74.71-.46-.53-.87-1.03-1.44-1.71-.61-.72-.34-1.48,.57-1.67,10.55-2.51,20.65-4.94,30.75-7.29,23.88-5.58,47.76-11.16,71.64-16.59,3.61-.84,5.92-2.54,7.82-5.73,17.31-29.16,34.81-58.27,52.24-87.35,.53-.87,1.06-1.75,1.75-2.77,.49-.8,1.29-.8,1.78,0,2.85,4.59,5.54,8.88,8.2,13.25,15.49,25.66,30.9,51.36,46.58,76.88,1.4,2.24,4.29,4.37,6.87,5.01,34.02,8.09,68.07,15.87,102.69,23.88,.91,.23,1.21,.99,.68,1.78s-1.03,1.52-1.59,2.16c-22.66,26.27-45.37,52.47-67.95,78.81-1.33,1.52-2.16,4.18-1.97,6.19,2.62,31.51,5.47,62.98,8.24,94.45,.34,3.64,.68,7.33,1.14,11.69,.08,.91-.53,1.4-1.4,1.1-1.52-.53-2.7-.95-3.83-1.4-30.94-12.98-61.88-25.93-92.71-39.1-3.87-1.63-6.95-1.52-10.71,.11-30.45,13.14-61.01,26.08-91.53,39.06-1.4,.61-2.85,1.14-4.63,1.82-.87,.27-1.52-.19-1.44-1.14h0Z"/>
    </g>
  </g>
</svg>