<?xml version="1.0" encoding="UTF-8"?>
<svg id="Ebene_2" data-name="Ebene 2" xmlns="http://www.w3.org/2000/svg" xmlns:xlink="http://www.w3.org/1999/xlink" viewBox="0 0 1023.32 900">
  <defs>
    <style>
      .cls-1 {
        fill: #fff;
      }

      .cls-2 {
        fill: none;
        stroke: #fff;
        stroke-miterlimit: 10;
      }

      .cls-3 {
        fill: url(#Unbenannter_Verlauf_13);
      }
    </style>
    <linearGradient id="Unbenannter_Verlauf_13" data-name="Unbenannter Verlauf 13" x1="511.38" y1="864.34" x2="503.41" y2="-158.95" gradientUnits="userSpaceOnUse">
      <stop offset="0" stop-color="#ff6b35"/>
      <stop offset="1" stop-color="#6a0800"/>
    </linearGradient>
  </defs>
  <g id="Ebene_1-2" data-name="Ebene 1">
    <path class="cls-3" d="M509.04,0C339.36,300,169.68,600,0,900H1023.32C851.89,600,680.46,300,509.04,0Z"/>
    <g>
      <path class="cls-1" d="M310.8,725.63c0,.45,.1,.83,.3,1.15,.2,.32,.48,.6,.85,.83,.36,.23,.79,.45,1.3,.66,.5,.2,1.06,.41,1.68,.62,.77,.28,1.53,.59,2.29,.94s1.44,.79,2.05,1.31c.61,.52,1.1,1.17,1.49,1.94,.38,.77,.58,1.7,.58,2.78,0,1.15-.21,2.12-.62,2.91s-.98,1.42-1.68,1.9c-.7,.48-1.52,.83-2.43,1.04s-1.87,.32-2.85,.32c-1.41,0-2.73-.17-3.95-.51-1.23-.34-2.28-.76-3.15-1.25l.96-3.46c.81,.62,1.71,1.13,2.7,1.54,.99,.41,2.13,.61,3.41,.61,1.37,0,2.36-.24,2.98-.72,.62-.48,.93-1.12,.93-1.94,0-.62-.15-1.15-.45-1.58-.3-.44-.67-.81-1.12-1.12-.45-.31-.92-.56-1.42-.75-.5-.19-.94-.35-1.33-.48-.68-.21-1.38-.47-2.08-.77s-1.35-.69-1.95-1.17c-.6-.48-1.08-1.08-1.46-1.81-.37-.72-.56-1.63-.56-2.72,0-1.02,.18-1.89,.53-2.59,.35-.7,.83-1.27,1.44-1.71,.61-.44,1.32-.75,2.14-.94,.82-.19,1.71-.29,2.67-.29,1.17,0,2.31,.12,3.41,.35,1.1,.24,2.02,.52,2.77,.86l-.86,3.39c-.38-.26-.8-.48-1.25-.67-.45-.19-.91-.35-1.39-.48-.48-.13-.96-.23-1.44-.3-.48-.08-.93-.11-1.36-.11-.96,0-1.72,.18-2.27,.54-.55,.36-.83,.92-.83,1.66Z"/>
      <path class="cls-1" d="M344.01,727.52v2.46l-4.61,.35c.68,1.2,1.02,2.46,1.02,3.81,0,1.05-.21,2.06-.64,3.04l4.35,4.48h-3.97l-2.02-2.08c-.75,.75-1.66,1.34-2.75,1.79s-2.34,.67-3.74,.67c-1.2,0-2.25-.17-3.17-.5-.92-.33-1.69-.78-2.3-1.34-.62-.57-1.08-1.21-1.39-1.94-.31-.72-.46-1.47-.46-2.24,0-.58,.09-1.17,.27-1.78,.18-.61,.45-1.19,.8-1.74,.35-.55,.8-1.07,1.34-1.54,.54-.47,1.17-.85,1.87-1.15-.62-.73-1.1-1.45-1.44-2.18-.34-.72-.51-1.56-.51-2.5,0-.79,.12-1.48,.37-2.06,.25-.59,.59-1.08,1.02-1.49s.94-.71,1.52-.91c.58-.2,1.18-.3,1.82-.3,.72,0,1.49,.12,2.29,.37,.8,.25,1.56,.59,2.29,1.04l-.9,3.07c-.19-.17-.43-.35-.7-.53-.28-.18-.57-.34-.88-.48-.31-.14-.62-.26-.94-.35-.32-.1-.62-.14-.9-.14-.51,0-.94,.17-1.3,.52-.35,.34-.53,.86-.53,1.55s.19,1.31,.58,1.85c.38,.55,.85,1.11,1.41,1.69l5.5,5.71c.02-.11,.04-.22,.05-.35,.01-.13,.02-.26,.02-.38,0-.49-.08-1.02-.24-1.58-.16-.56-.44-1.14-.85-1.71h-1.57v-1.94l9.28-1.18Zm-12.06,11.46c.85,0,1.62-.14,2.3-.43s1.26-.68,1.73-1.17l-5.44-5.54c-.41,.11-.76,.29-1.07,.54s-.57,.55-.78,.88c-.21,.33-.37,.7-.48,1.1-.11,.41-.16,.81-.16,1.22,0,1.15,.37,2,1.1,2.56,.74,.56,1.67,.83,2.8,.83Z"/>
      <path class="cls-1" d="M353.77,733.7h-2.08v7.95h-3.68v-21.2h5.09c1.19,0,2.28,.14,3.26,.43s1.82,.71,2.53,1.29c.7,.57,1.25,1.28,1.63,2.11s.58,1.81,.58,2.91c0,.89-.15,1.73-.45,2.51-.3,.78-.75,1.47-1.34,2.07-.6,.59-1.36,1.06-2.29,1.41s-2.01,.52-3.25,.52Zm-.16-10.24h-.99c-.32,0-.63,.04-.93,.11v7.03c.3,.02,.61,.03,.94,.03h1.04c1.15,0,2.02-.32,2.61-.96,.59-.64,.88-1.56,.88-2.77,0-1.02-.26-1.85-.78-2.48-.52-.64-1.45-.96-2.77-.96Z"/>
      <path class="cls-1" d="M372.01,732l1.25-11.62h10.85v3.36h-7.87l-.48,5.06c.45-.13,.92-.22,1.41-.27,.49-.05,.94-.08,1.34-.08,.98,0,1.88,.14,2.69,.43s1.51,.71,2.11,1.26c.6,.56,1.06,1.23,1.39,2.03s.5,1.71,.5,2.74-.16,1.9-.48,2.77c-.32,.86-.81,1.62-1.46,2.27-.65,.65-1.47,1.16-2.45,1.54-.98,.37-2.13,.56-3.46,.56s-2.5-.19-3.6-.56c-1.1-.37-2.06-.9-2.9-1.58l.93-3.04c.32,.3,.69,.57,1.1,.82,.42,.25,.86,.46,1.34,.64,.48,.18,.97,.33,1.47,.43,.5,.11,1,.16,1.49,.16,.53,0,1.05-.07,1.55-.21,.5-.14,.94-.36,1.31-.66s.67-.69,.9-1.17c.22-.48,.34-1.06,.34-1.74,0-.51-.06-.98-.19-1.41-.13-.43-.34-.79-.64-1.09-.3-.3-.7-.53-1.2-.7-.5-.17-1.14-.26-1.9-.26-.66,0-1.39,.06-2.18,.19-.79,.13-1.54,.33-2.24,.61l-.93-.48Z"/>
      <path class="cls-1" d="M396.84,720.39c1.37,0,2.58,.29,3.63,.88,1.06,.59,1.95,1.37,2.67,2.35,.72,.98,1.27,2.12,1.65,3.41,.37,1.29,.56,2.65,.56,4.08s-.19,2.8-.58,4.11-.94,2.47-1.68,3.49c-.74,1.01-1.65,1.82-2.74,2.43s-2.34,.91-3.74,.91-2.6-.29-3.63-.86c-1.04-.58-1.89-1.35-2.58-2.34-.68-.98-1.2-2.12-1.55-3.41-.35-1.29-.53-2.65-.53-4.08,0-1.51,.19-2.94,.58-4.27s.94-2.5,1.66-3.49c.72-.99,1.62-1.78,2.67-2.35s2.26-.86,3.6-.86Zm-.1,18.59c.81,0,1.51-.2,2.1-.59,.59-.39,1.07-.94,1.46-1.65,.38-.7,.67-1.54,.86-2.5,.19-.96,.29-2,.29-3.1s-.1-2.17-.29-3.1c-.19-.94-.49-1.75-.88-2.43-.39-.68-.89-1.21-1.49-1.58-.6-.37-1.29-.56-2.08-.56s-1.47,.19-2.03,.56c-.57,.37-1.02,.9-1.38,1.57-.35,.67-.61,1.48-.78,2.43-.17,.95-.26,1.99-.26,3.12,0,2.58,.39,4.53,1.17,5.86,.78,1.32,1.88,1.98,3.31,1.98Z"/>
      <path class="cls-1" d="M417.16,720.39c1.37,0,2.58,.29,3.63,.88,1.06,.59,1.95,1.37,2.67,2.35s1.27,2.12,1.65,3.41c.37,1.29,.56,2.65,.56,4.08s-.19,2.8-.58,4.11c-.38,1.31-.94,2.47-1.68,3.49s-1.65,1.82-2.74,2.43c-1.09,.61-2.34,.91-3.74,.91s-2.6-.29-3.63-.86c-1.03-.58-1.89-1.35-2.58-2.34-.68-.98-1.2-2.12-1.55-3.41-.35-1.29-.53-2.65-.53-4.08,0-1.51,.19-2.94,.58-4.27,.38-1.33,.94-2.5,1.66-3.49,.73-.99,1.62-1.78,2.67-2.35,1.06-.58,2.26-.86,3.6-.86Zm-.1,18.59c.81,0,1.51-.2,2.1-.59,.59-.39,1.07-.94,1.46-1.65,.38-.7,.67-1.54,.86-2.5,.19-.96,.29-2,.29-3.1s-.1-2.17-.29-3.1c-.19-.94-.49-1.75-.88-2.43-.4-.68-.89-1.21-1.49-1.58-.6-.37-1.29-.56-2.08-.56s-1.47,.19-2.03,.56c-.57,.37-1.02,.9-1.38,1.57-.35,.67-.61,1.48-.78,2.43s-.26,1.99-.26,3.12c0,2.58,.39,4.53,1.17,5.86,.78,1.32,1.88,1.98,3.31,1.98Z"/>
      <path class="cls-1" d="M448.04,732.07h-6.4v6.4h9.18v3.2h-12.86v-21.12h12.22v3.2h-8.54v5.12h6.4v3.2Z"/>
      <path class="cls-1" d="M468.65,723.75h-6.11v17.92h-3.68v-17.92h-6.11v-3.2h15.9v3.2Z"/>
      <path class="cls-1" d="M481.87,732.07h-6.05v9.6h-3.68v-21.12h12.06v3.2h-8.38v5.12h6.05v3.2Z"/>
      <path class="cls-1" d="M498.44,741.67h-3.68v-21.12h3.68v21.12Z"/>
      <path class="cls-1" d="M513.13,741.67v-9.73c0-1.75-.75-2.62-2.24-2.62-.36,0-.75,.06-1.17,.19s-.82,.31-1.2,.56c-.38,.25-.73,.55-1.04,.91-.31,.36-.54,.78-.69,1.25v9.44h-3.52v-14.72h2.75l.16,2.18h.13c.45-.9,1.15-1.56,2.1-2,.95-.44,1.97-.66,3.06-.66,.7,0,1.37,.09,1.98,.27,.62,.18,1.17,.48,1.65,.88s.86,.94,1.14,1.6,.42,1.47,.42,2.43v10.02h-3.52Z"/>
      <path class="cls-1" d="M529.03,741.67h-4.26l-5.89-14.72h3.68l4.45,11.81,4.64-11.81h3.46l-6.08,14.72Z"/>
      <path class="cls-1" d="M544.07,726.47c1.88,0,3.33,.47,4.35,1.42,1.02,.95,1.54,2.29,1.54,4.02,0,.23-.02,.49-.05,.75-.03,.27-.07,.53-.13,.78-.05,.26-.12,.49-.19,.69-.08,.2-.16,.37-.24,.5h-9.31c.04,.64,.16,1.24,.35,1.81,.19,.57,.47,1.06,.83,1.47,.36,.42,.8,.75,1.33,.99,.52,.25,1.14,.37,1.84,.37,.79,0,1.63-.15,2.51-.45,.88-.3,1.64-.67,2.26-1.12l.58,2.62c-.28,.17-.62,.36-1.02,.56s-.86,.39-1.38,.56c-.51,.17-1.06,.31-1.65,.43-.59,.12-1.2,.18-1.84,.18-1.2,0-2.25-.21-3.17-.62-.92-.42-1.69-.98-2.3-1.7-.62-.71-1.09-1.54-1.41-2.48-.32-.94-.48-1.92-.48-2.94s.17-2.04,.5-2.99c.33-.95,.82-1.79,1.46-2.51,.64-.72,1.43-1.3,2.38-1.71s2.03-.62,3.25-.62Zm-.1,2.75c-.9,0-1.66,.26-2.29,.78-.63,.52-1.08,1.23-1.36,2.13h6.11c.02-.06,.04-.14,.05-.22,.01-.09,.02-.19,.02-.32,0-.68-.24-1.25-.7-1.7-.47-.45-1.08-.67-1.82-.67Z"/>
      <path class="cls-1" d="M558.03,729.09c-.7,0-1.25,.13-1.65,.4s-.59,.65-.59,1.14c0,.32,.11,.61,.34,.88s.7,.49,1.42,.66l2.27,.51c.9,.19,1.62,.47,2.16,.83,.54,.36,.97,.76,1.28,1.18,.31,.43,.52,.86,.62,1.31s.16,.86,.16,1.25c0,.68-.14,1.32-.42,1.9-.28,.59-.67,1.09-1.18,1.52-.51,.43-1.13,.76-1.86,1.01s-1.54,.37-2.43,.37c-1.13,0-2.18-.17-3.14-.5s-1.73-.7-2.3-1.1l.83-3.04c.73,.7,1.54,1.23,2.45,1.57,.91,.34,1.74,.51,2.51,.51,.81,0,1.43-.18,1.86-.53,.43-.35,.64-.84,.64-1.46,0-.36-.11-.67-.32-.91-.21-.25-.64-.45-1.28-.62l-3.07-.77c-.73-.17-1.32-.42-1.78-.74s-.82-.68-1.09-1.07c-.27-.39-.45-.8-.54-1.23-.1-.43-.14-.83-.14-1.22,0-1.43,.5-2.53,1.5-3.31,1-.78,2.3-1.17,3.9-1.17,.83,0,1.73,.11,2.69,.34s1.77,.55,2.43,.98l-.93,2.88c-.43-.34-1.02-.69-1.79-1.04-.77-.35-1.62-.53-2.56-.53Z"/>
      <path class="cls-1" d="M568.07,729.09h-1.82v-1.92l2.08-.32,.58-4.35h2.69v4.45h2.82v2.14h-2.82v8.45c0,.64,.06,1.07,.19,1.3,.13,.22,.37,.34,.74,.34,.28,0,.55-.05,.83-.16,.28-.11,.68-.31,1.22-.61l.58,2.53c-.41,.34-.98,.61-1.71,.82-.74,.2-1.47,.3-2.19,.3-.64,0-1.17-.09-1.58-.26-.42-.17-.74-.42-.98-.75-.23-.33-.39-.73-.48-1.2-.09-.47-.13-.99-.13-1.57v-9.18Z"/>
      <path class="cls-1" d="M587.56,741.67v-9.73c0-1.75-.69-2.62-2.08-2.62-.34,0-.71,.06-1.1,.19-.4,.13-.78,.31-1.15,.56-.37,.25-.71,.55-1.02,.91-.31,.36-.53,.78-.66,1.25v9.44h-3.52v-14.72h2.75l.16,2.18h.13c.43-.9,1.1-1.56,2.03-2s1.91-.66,2.96-.66,1.91,.2,2.74,.59c.82,.4,1.43,1.07,1.84,2.03,.43-.88,1.1-1.53,2.02-1.97s1.9-.66,2.94-.66c.68,0,1.33,.09,1.94,.27,.61,.18,1.14,.48,1.6,.88,.46,.41,.82,.94,1.09,1.6,.27,.66,.4,1.47,.4,2.43v10.02h-3.52v-9.73c0-1.75-.69-2.62-2.08-2.62-.34,0-.71,.06-1.1,.19-.4,.13-.78,.31-1.15,.56-.37,.25-.71,.55-1.02,.91-.31,.36-.53,.78-.66,1.25v9.44h-3.52Z"/>
      <path class="cls-1" d="M611.43,726.47c1.88,0,3.33,.47,4.35,1.42,1.02,.95,1.54,2.29,1.54,4.02,0,.23-.02,.49-.05,.75s-.08,.53-.13,.78c-.05,.26-.12,.49-.19,.69-.08,.2-.15,.37-.24,.5h-9.31c.04,.64,.16,1.24,.35,1.81,.19,.57,.47,1.06,.83,1.47,.36,.42,.81,.75,1.33,.99,.52,.25,1.14,.37,1.84,.37,.79,0,1.63-.15,2.51-.45,.88-.3,1.64-.67,2.26-1.12l.58,2.62c-.28,.17-.62,.36-1.02,.56-.41,.2-.86,.39-1.38,.56-.51,.17-1.06,.31-1.65,.43-.59,.12-1.2,.18-1.84,.18-1.19,0-2.25-.21-3.17-.62s-1.69-.98-2.3-1.7c-.62-.71-1.09-1.54-1.41-2.48-.32-.94-.48-1.92-.48-2.94s.17-2.04,.5-2.99c.33-.95,.82-1.79,1.46-2.51,.64-.72,1.43-1.3,2.38-1.71s2.03-.62,3.25-.62Zm-.1,2.75c-.9,0-1.66,.26-2.29,.78-.63,.52-1.08,1.23-1.36,2.13h6.11c.02-.06,.04-.14,.05-.22,0-.09,.02-.19,.02-.32,0-.68-.24-1.25-.7-1.7-.47-.45-1.08-.67-1.82-.67Z"/>
      <path class="cls-1" d="M630.76,741.67v-9.73c0-1.75-.75-2.62-2.24-2.62-.36,0-.75,.06-1.17,.19-.42,.13-.82,.31-1.2,.56-.38,.25-.73,.55-1.04,.91-.31,.36-.54,.78-.69,1.25v9.44h-3.52v-14.72h2.75l.16,2.18h.13c.45-.9,1.15-1.56,2.1-2s1.97-.66,3.06-.66c.7,0,1.37,.09,1.98,.27,.62,.18,1.17,.48,1.65,.88,.48,.41,.86,.94,1.14,1.6,.28,.66,.42,1.47,.42,2.43v10.02h-3.52Z"/>
      <path class="cls-1" d="M639.08,729.09h-1.82v-1.92l2.08-.32,.58-4.35h2.69v4.45h2.82v2.14h-2.82v8.45c0,.64,.06,1.07,.19,1.3,.13,.22,.37,.34,.74,.34,.28,0,.55-.05,.83-.16,.28-.11,.68-.31,1.22-.61l.58,2.53c-.41,.34-.98,.61-1.71,.82-.74,.2-1.47,.3-2.19,.3-.64,0-1.17-.09-1.58-.26-.42-.17-.74-.42-.98-.75-.23-.33-.39-.73-.48-1.2-.09-.47-.13-.99-.13-1.57v-9.18Z"/>
      <path class="cls-1" d="M667.18,731.43l-3.17,10.24h-4.26l-5.34-14.72h3.68l3.84,11.3,3.49-11.3h3.52l3.49,11.3,3.84-11.3h3.62l-5.34,14.72h-4.19l-3.17-10.24Z"/>
      <path class="cls-1" d="M681.99,722.21c0-.3,.06-.59,.18-.86s.28-.53,.5-.75c.21-.22,.45-.4,.72-.53s.56-.19,.88-.19c.3,0,.59,.06,.86,.19s.53,.3,.75,.53c.22,.22,.4,.47,.53,.75s.19,.57,.19,.86c0,.32-.06,.61-.19,.88s-.3,.51-.53,.72c-.22,.21-.47,.38-.75,.5s-.57,.18-.86,.18c-.62,0-1.15-.22-1.6-.67s-.67-.98-.67-1.6Zm4.03,19.46h-3.52v-14.72h3.52v14.72Z"/>
      <path class="cls-1" d="M691.11,729.09h-1.82v-1.92l2.08-.32,.58-4.35h2.69v4.45h2.82v2.14h-2.82v8.45c0,.64,.06,1.07,.19,1.3,.13,.22,.37,.34,.74,.34,.28,0,.55-.05,.83-.16,.28-.11,.68-.31,1.22-.61l.58,2.53c-.41,.34-.98,.61-1.71,.82-.74,.2-1.47,.3-2.19,.3-.64,0-1.17-.09-1.58-.26-.42-.17-.74-.42-.98-.75-.24-.33-.4-.73-.48-1.2-.08-.47-.13-.99-.13-1.57v-9.18Z"/>
      <path class="cls-1" d="M704.58,729.12c.6-.94,1.3-1.62,2.1-2.03,.8-.42,1.74-.62,2.83-.62,.64,0,1.26,.09,1.86,.27,.6,.18,1.12,.48,1.58,.88s.82,.94,1.09,1.6,.4,1.47,.4,2.43v10.02h-3.52v-9.73c0-.87-.19-1.53-.58-1.97-.38-.44-.91-.66-1.57-.66-.41,0-.83,.06-1.26,.19s-.85,.32-1.23,.58-.73,.57-1.02,.93c-.3,.36-.52,.77-.67,1.22v9.44h-3.52v-23.68h3.52v11.14Z"/>
      <path class="cls-1" d="M299.31,760.61c0-.3,.06-.59,.18-.86,.12-.28,.28-.53,.5-.75,.21-.22,.45-.4,.72-.53s.56-.19,.88-.19c.3,0,.59,.06,.86,.19s.53,.3,.75,.53,.4,.48,.53,.75c.13,.28,.19,.57,.19,.86,0,.32-.06,.61-.19,.88-.13,.27-.3,.51-.53,.72-.22,.21-.47,.38-.75,.5-.28,.12-.57,.18-.86,.18-.62,0-1.15-.22-1.6-.67-.45-.45-.67-.98-.67-1.6Zm4.03,19.46h-3.52v-14.72h3.52v14.72Z"/>
      <path class="cls-1" d="M317.61,780.07v-9.73c0-1.75-.75-2.62-2.24-2.62-.36,0-.75,.06-1.17,.19s-.82,.32-1.2,.56-.73,.55-1.04,.91c-.31,.36-.54,.78-.69,1.25v9.44h-3.52v-14.72h2.75l.16,2.18h.13c.45-.9,1.15-1.56,2.1-2,.95-.44,1.97-.66,3.06-.66,.7,0,1.37,.09,1.98,.27,.62,.18,1.17,.47,1.65,.88s.86,.94,1.14,1.6c.28,.66,.42,1.47,.42,2.43v10.02h-3.52Z"/>
      <path class="cls-1" d="M328.97,780.07h-3.52v-23.68h3.52v23.68Z"/>
      <path class="cls-1" d="M340.14,764.87c1.3,0,2.42,.22,3.36,.66,.94,.44,1.71,1.02,2.32,1.76,.61,.74,1.06,1.58,1.34,2.53s.43,1.95,.43,2.99-.14,2.03-.43,2.96c-.29,.93-.74,1.74-1.34,2.43-.61,.69-1.38,1.24-2.3,1.65-.93,.4-2.02,.61-3.28,.61s-2.42-.21-3.36-.64c-.94-.43-1.72-1-2.34-1.71-.62-.71-1.08-1.54-1.38-2.48-.3-.94-.45-1.93-.45-2.98s.15-2.04,.45-2.98c.3-.94,.75-1.76,1.36-2.48,.61-.71,1.38-1.28,2.32-1.7s2.04-.62,3.3-.62Zm.06,12.93c.62,0,1.16-.13,1.62-.4,.46-.27,.84-.63,1.14-1.09,.3-.46,.52-.99,.66-1.58,.14-.6,.21-1.23,.21-1.89s-.08-1.34-.22-1.97c-.15-.63-.38-1.18-.69-1.66-.31-.48-.7-.86-1.17-1.15-.47-.29-1.04-.43-1.7-.43-.62,0-1.15,.13-1.6,.4-.45,.27-.82,.62-1.1,1.07-.29,.45-.5,.97-.64,1.57-.14,.6-.21,1.23-.21,1.89s.07,1.34,.21,1.97c.14,.63,.36,1.19,.67,1.68,.31,.49,.7,.88,1.17,1.17,.47,.29,1.02,.43,1.66,.43Z"/>
      <path class="cls-1" d="M357.71,764.87c1.3,0,2.42,.22,3.36,.66s1.71,1.02,2.32,1.76c.61,.74,1.06,1.58,1.34,2.53s.43,1.95,.43,2.99-.14,2.03-.43,2.96c-.29,.93-.74,1.74-1.34,2.43s-1.38,1.24-2.3,1.65c-.93,.4-2.02,.61-3.28,.61s-2.42-.21-3.36-.64-1.72-1-2.34-1.71-1.08-1.54-1.38-2.48c-.3-.94-.45-1.93-.45-2.98s.15-2.04,.45-2.98c.3-.94,.75-1.76,1.36-2.48,.61-.71,1.38-1.28,2.32-1.7,.94-.42,2.04-.62,3.3-.62Zm.06,12.93c.62,0,1.16-.13,1.62-.4s.84-.63,1.14-1.09,.52-.99,.66-1.58,.21-1.23,.21-1.89-.08-1.34-.22-1.97c-.15-.63-.38-1.18-.69-1.66-.31-.48-.7-.86-1.17-1.15-.47-.29-1.04-.43-1.7-.43-.62,0-1.15,.13-1.6,.4s-.82,.62-1.1,1.07c-.29,.45-.5,.97-.64,1.57-.14,.6-.21,1.23-.21,1.89s.07,1.34,.21,1.97,.36,1.19,.67,1.68c.31,.49,.7,.88,1.17,1.17,.47,.29,1.02,.43,1.66,.43Z"/>
      <path class="cls-1" d="M376.91,764.87c1.15,0,2.14,.22,2.98,.66s1.52,1.02,2.06,1.74,.94,1.56,1.2,2.51,.38,1.94,.38,2.96-.13,2.04-.4,2.98c-.27,.94-.68,1.76-1.23,2.46s-1.25,1.26-2.08,1.66c-.83,.4-1.82,.61-2.98,.61-.96,0-1.85-.14-2.67-.42-.82-.28-1.48-.72-1.97-1.34v9.7h-3.49v-23.04h2.82l.26,2.02h.13c.28-.34,.61-.67,.99-.98,.38-.31,.8-.58,1.25-.8,.45-.22,.91-.4,1.38-.53,.47-.13,.93-.19,1.38-.19Zm-.58,2.69c-.32,0-.67,.05-1.06,.14s-.76,.24-1.14,.42c-.37,.18-.73,.4-1.07,.66-.34,.26-.63,.54-.86,.86v6.24c.64,.79,1.3,1.29,1.97,1.49,.67,.2,1.29,.3,1.84,.3,.7,0,1.31-.13,1.81-.38s.92-.6,1.25-1.04c.33-.44,.58-.95,.74-1.54,.16-.59,.24-1.22,.24-1.9,0-.64-.07-1.27-.21-1.9-.14-.63-.36-1.19-.67-1.68-.31-.49-.7-.89-1.17-1.2-.47-.31-1.02-.46-1.66-.46Z"/>
      <path class="cls-1" d="M393.67,764.87c1.3,0,2.42,.22,3.36,.66s1.71,1.02,2.32,1.76c.61,.74,1.06,1.58,1.34,2.53s.43,1.95,.43,2.99-.14,2.03-.43,2.96c-.29,.93-.74,1.74-1.34,2.43s-1.38,1.24-2.3,1.65c-.93,.4-2.02,.61-3.28,.61s-2.42-.21-3.36-.64-1.72-1-2.34-1.71-1.08-1.54-1.38-2.48c-.3-.94-.45-1.93-.45-2.98s.15-2.04,.45-2.98c.3-.94,.75-1.76,1.36-2.48,.61-.71,1.38-1.28,2.32-1.7,.94-.42,2.04-.62,3.3-.62Zm.06,12.93c.62,0,1.16-.13,1.62-.4s.84-.63,1.14-1.09,.52-.99,.66-1.58,.21-1.23,.21-1.89-.08-1.34-.22-1.97c-.15-.63-.38-1.18-.69-1.66-.31-.48-.7-.86-1.17-1.15-.47-.29-1.04-.43-1.7-.43-.62,0-1.15,.13-1.6,.4s-.82,.62-1.1,1.07c-.29,.45-.5,.97-.64,1.57-.14,.6-.21,1.23-.21,1.89s.07,1.34,.21,1.97,.36,1.19,.67,1.68c.31,.49,.7,.88,1.17,1.17,.47,.29,1.02,.43,1.66,.43Z"/>
      <path class="cls-1" d="M415.82,764.03c0,.45,.1,.83,.3,1.15s.49,.6,.85,.83c.36,.23,.79,.45,1.3,.66,.5,.2,1.06,.41,1.68,.62,.77,.28,1.53,.59,2.29,.94,.76,.35,1.44,.79,2.05,1.31s1.1,1.17,1.49,1.94c.38,.77,.58,1.7,.58,2.78,0,1.15-.21,2.12-.62,2.91s-.98,1.42-1.68,1.9c-.7,.48-1.51,.83-2.43,1.04-.92,.21-1.87,.32-2.85,.32-1.41,0-2.73-.17-3.95-.51-1.23-.34-2.28-.76-3.15-1.25l.96-3.46c.81,.62,1.71,1.13,2.7,1.54s2.13,.61,3.41,.61c1.36,0,2.36-.24,2.98-.72,.62-.48,.93-1.12,.93-1.94,0-.62-.15-1.15-.45-1.58-.3-.44-.67-.81-1.12-1.12s-.92-.56-1.42-.75c-.5-.19-.94-.35-1.33-.48-.68-.21-1.38-.47-2.08-.77s-1.36-.69-1.95-1.17c-.6-.48-1.08-1.08-1.46-1.81-.37-.72-.56-1.63-.56-2.72,0-1.02,.18-1.89,.53-2.59,.35-.7,.83-1.27,1.44-1.71,.61-.44,1.32-.75,2.14-.94,.82-.19,1.71-.29,2.67-.29,1.17,0,2.31,.12,3.41,.35s2.02,.52,2.77,.86l-.86,3.39c-.38-.26-.8-.48-1.25-.67-.45-.19-.91-.35-1.39-.48-.48-.13-.96-.23-1.44-.3-.48-.07-.93-.11-1.36-.11-.96,0-1.72,.18-2.27,.54-.56,.36-.83,.92-.83,1.66Z"/>
      <path class="cls-1" d="M430.12,767.49h-1.82v-1.92l2.08-.32,.58-4.35h2.69v4.45h2.82v2.14h-2.82v8.45c0,.64,.06,1.07,.19,1.3,.13,.22,.37,.34,.74,.34,.28,0,.55-.05,.83-.16,.28-.11,.68-.31,1.22-.61l.58,2.53c-.41,.34-.98,.61-1.71,.82s-1.47,.3-2.19,.3c-.64,0-1.17-.08-1.58-.26s-.74-.42-.98-.75c-.24-.33-.4-.73-.48-1.2-.08-.47-.13-.99-.13-1.57v-9.18Z"/>
      <path class="cls-1" d="M446.63,764.87c1.3,0,2.42,.22,3.36,.66,.94,.44,1.71,1.02,2.32,1.76,.61,.74,1.06,1.58,1.34,2.53s.43,1.95,.43,2.99-.14,2.03-.43,2.96c-.29,.93-.74,1.74-1.34,2.43-.61,.69-1.38,1.24-2.3,1.65-.93,.4-2.02,.61-3.28,.61s-2.42-.21-3.36-.64c-.94-.43-1.72-1-2.34-1.71-.62-.71-1.08-1.54-1.38-2.48-.3-.94-.45-1.93-.45-2.98s.15-2.04,.45-2.98c.3-.94,.75-1.76,1.36-2.48,.61-.71,1.38-1.28,2.32-1.7s2.04-.62,3.3-.62Zm.06,12.93c.62,0,1.16-.13,1.62-.4,.46-.27,.84-.63,1.14-1.09,.3-.46,.52-.99,.66-1.58,.14-.6,.21-1.23,.21-1.89s-.08-1.34-.22-1.97c-.15-.63-.38-1.18-.69-1.66-.31-.48-.7-.86-1.17-1.15-.47-.29-1.04-.43-1.7-.43-.62,0-1.15,.13-1.6,.4-.45,.27-.82,.62-1.1,1.07-.29,.45-.5,.97-.64,1.57-.14,.6-.21,1.23-.21,1.89s.07,1.34,.21,1.97c.14,.63,.36,1.19,.67,1.68,.31,.49,.7,.88,1.17,1.17,.47,.29,1.02,.43,1.66,.43Z"/>
      <path class="cls-1" d="M469,768.99c-.24-.17-.53-.34-.88-.51-.35-.17-.73-.32-1.14-.45s-.83-.23-1.26-.3c-.44-.07-.85-.11-1.23-.11-.73,0-1.34,.13-1.84,.4s-.91,.62-1.22,1.06c-.31,.44-.53,.94-.67,1.52-.14,.58-.21,1.17-.21,1.79,0,.73,.08,1.4,.26,2.03,.17,.63,.43,1.18,.77,1.65,.34,.47,.77,.84,1.3,1.12,.52,.28,1.12,.42,1.81,.42,.77,0,1.58-.15,2.45-.46s1.58-.74,2.16-1.3l.64,3.01c-.6,.38-1.41,.75-2.45,1.09-1.03,.34-2.14,.51-3.31,.51-1.24,0-2.32-.21-3.25-.64s-1.7-1-2.3-1.71c-.61-.71-1.07-1.55-1.38-2.5-.31-.95-.46-1.96-.46-3.02s.14-2,.43-2.93,.74-1.75,1.36-2.46c.62-.71,1.41-1.28,2.37-1.7s2.11-.62,3.46-.62c1.02,0,2.03,.12,3.01,.35s1.77,.54,2.37,.93l-.77,2.85Z"/>
      <path class="cls-1" d="M480.39,770.53l6.27,9.54h-3.84l-4.77-7.23-1.25,1.25v5.98h-3.52v-23.68h3.52v13.66l4.9-4.7h3.94l-5.25,5.18Z"/>
      <path class="cls-1" d="M508.9,775.07l7.01-16.13h4.19v21.12h-3.65v-13.92l-6.08,13.92h-2.94l-6.24-13.92v13.92h-3.68v-21.12h4.19l7.2,16.13Z"/>
      <path class="cls-1" d="M533.8,780.07l-.26-2.02h-.13c-.58,.73-1.36,1.31-2.35,1.74-.99,.44-2,.66-3.02,.66-1.34,0-2.4-.39-3.17-1.17-.77-.78-1.15-1.81-1.15-3.09,0-.87,.19-1.66,.56-2.35s.91-1.28,1.62-1.76c.7-.48,1.55-.85,2.53-1.1,.98-.26,2.08-.38,3.3-.38h1.38v-.48c0-.83-.27-1.44-.8-1.82-.56-.38-1.42-.58-2.59-.58-1.58,0-2.99,.35-4.22,1.06l-.67-2.66c1.43-.83,3.16-1.25,5.18-1.25,2.13,0,3.75,.44,4.86,1.31,.51,.41,.93,.93,1.26,1.57,.33,.64,.5,1.41,.5,2.3v10.02h-2.82Zm-4.38-2.46c.68,0,1.36-.17,2.05-.5,.68-.33,1.23-.77,1.63-1.33v-2.91h-.61c-1.75,0-3.02,.22-3.82,.67-.8,.45-1.2,1.16-1.2,2.14,0,1.28,.65,1.92,1.95,1.92Z"/>
      <path class="cls-1" d="M549.29,768.55c-.21-.17-.54-.31-.99-.42-.45-.11-.83-.16-1.15-.16-.43,0-.78,.1-1.06,.3-.28,.2-.52,.47-.74,.8-.21,.33-.4,.71-.54,1.14-.15,.43-.29,.86-.42,1.31v8.54h-3.52v-14.72h2.75l.16,3.07h.13c.21-.45,.44-.88,.67-1.31s.5-.8,.8-1.14c.3-.33,.64-.6,1.04-.8,.39-.2,.86-.3,1.39-.3,.85,0,1.65,.28,2.4,.83l-.93,2.85Z"/>
      <path class="cls-1" d="M559.94,770.53l6.27,9.54h-3.84l-4.77-7.23-1.25,1.25v5.98h-3.52v-23.68h3.52v13.66l4.9-4.7h3.94l-5.25,5.18Z"/>
      <path class="cls-1" d="M574.66,764.87c1.88,0,3.33,.48,4.35,1.42,1.02,.95,1.54,2.29,1.54,4.02,0,.23-.02,.49-.05,.75-.03,.27-.07,.53-.13,.78-.05,.26-.12,.49-.19,.69-.08,.2-.16,.37-.24,.5h-9.31c.04,.64,.16,1.24,.35,1.81,.19,.57,.47,1.06,.83,1.47,.36,.42,.8,.75,1.33,.99,.52,.25,1.14,.37,1.84,.37,.79,0,1.63-.15,2.51-.45,.88-.3,1.64-.67,2.26-1.12l.58,2.62c-.28,.17-.62,.36-1.02,.56s-.86,.39-1.38,.56c-.51,.17-1.06,.31-1.65,.43s-1.2,.18-1.84,.18c-1.2,0-2.25-.21-3.17-.62-.92-.42-1.69-.98-2.3-1.7-.62-.71-1.09-1.54-1.41-2.48-.32-.94-.48-1.92-.48-2.94s.17-2.04,.5-2.99,.82-1.79,1.46-2.51c.64-.72,1.43-1.3,2.38-1.71s2.03-.62,3.25-.62Zm-.1,2.75c-.9,0-1.66,.26-2.29,.78-.63,.52-1.08,1.23-1.36,2.13h6.11c.02-.06,.04-.14,.05-.22s.02-.19,.02-.32c0-.68-.24-1.25-.7-1.7-.47-.45-1.08-.67-1.82-.67Z"/>
      <path class="cls-1" d="M584.81,767.49h-1.82v-1.92l2.08-.32,.58-4.35h2.69v4.45h2.82v2.14h-2.82v8.45c0,.64,.06,1.07,.19,1.3,.13,.22,.37,.34,.74,.34,.28,0,.55-.05,.83-.16,.28-.11,.68-.31,1.22-.61l.58,2.53c-.41,.34-.98,.61-1.71,.82s-1.47,.3-2.19,.3c-.64,0-1.17-.08-1.58-.26s-.74-.42-.98-.75c-.24-.33-.4-.73-.48-1.2-.08-.47-.13-.99-.13-1.57v-9.18Z"/>
      <path class="cls-1" d="M606.89,780.07h-3.68v-21.12h3.68v21.12Z"/>
      <path class="cls-1" d="M621.58,780.07v-9.73c0-1.75-.75-2.62-2.24-2.62-.36,0-.75,.06-1.17,.19s-.82,.32-1.2,.56-.73,.55-1.04,.91c-.31,.36-.54,.78-.69,1.25v9.44h-3.52v-14.72h2.75l.16,2.18h.13c.45-.9,1.15-1.56,2.1-2,.95-.44,1.97-.66,3.06-.66,.7,0,1.37,.09,1.98,.27,.62,.18,1.17,.47,1.65,.88s.86,.94,1.14,1.6c.28,.66,.42,1.47,.42,2.43v10.02h-3.52Z"/>
      <path class="cls-1" d="M635.08,780.45c-1,0-1.92-.2-2.75-.61-.83-.41-1.54-.96-2.13-1.66-.59-.7-1.04-1.54-1.36-2.5s-.48-2-.48-3.14c0-1,.13-1.97,.4-2.9s.68-1.74,1.23-2.45c.55-.7,1.24-1.27,2.06-1.7s1.8-.64,2.93-.64c1.02,0,1.94,.17,2.75,.51,.81,.34,1.46,.82,1.95,1.44v-10.43h3.49v23.68h-2.82l-.26-2.02h-.13c-.6,.66-1.27,1.23-2.03,1.7-.76,.47-1.71,.7-2.86,.7Zm.45-2.66c.34,0,.7-.05,1.09-.14,.38-.1,.76-.23,1.14-.4,.37-.17,.73-.38,1.07-.62,.34-.24,.63-.53,.86-.85v-6.14c-.64-.79-1.29-1.33-1.95-1.62-.66-.29-1.3-.43-1.92-.43-.68,0-1.27,.13-1.76,.4-.49,.27-.9,.63-1.23,1.1-.33,.47-.58,1.01-.74,1.62-.16,.61-.24,1.24-.24,1.9s.08,1.28,.22,1.9c.15,.63,.37,1.18,.67,1.66,.3,.48,.68,.87,1.15,1.17,.47,.3,1.01,.45,1.63,.45Z"/>
      <path class="cls-1" d="M647.08,760.61c0-.3,.06-.59,.18-.86,.12-.28,.28-.53,.5-.75,.21-.22,.45-.4,.72-.53,.27-.13,.56-.19,.88-.19,.3,0,.59,.06,.86,.19,.28,.13,.53,.3,.75,.53,.22,.22,.4,.48,.53,.75,.13,.28,.19,.57,.19,.86,0,.32-.06,.61-.19,.88-.13,.27-.3,.51-.53,.72-.22,.21-.48,.38-.75,.5-.28,.12-.57,.18-.86,.18-.62,0-1.15-.22-1.6-.67-.45-.45-.67-.98-.67-1.6Zm4.03,19.46h-3.52v-14.72h3.52v14.72Z"/>
      <path class="cls-1" d="M666.89,768.99c-.23-.17-.53-.34-.88-.51-.35-.17-.73-.32-1.14-.45s-.83-.23-1.26-.3c-.44-.07-.85-.11-1.23-.11-.73,0-1.34,.13-1.84,.4-.5,.27-.91,.62-1.22,1.06-.31,.44-.53,.94-.67,1.52-.14,.58-.21,1.17-.21,1.79,0,.73,.08,1.4,.26,2.03,.17,.63,.43,1.18,.77,1.65,.34,.47,.77,.84,1.3,1.12s1.12,.42,1.81,.42c.77,0,1.58-.15,2.45-.46,.86-.31,1.58-.74,2.16-1.3l.64,3.01c-.6,.38-1.41,.75-2.45,1.09-1.04,.34-2.14,.51-3.31,.51-1.24,0-2.32-.21-3.25-.64-.93-.43-1.7-1-2.3-1.71-.61-.71-1.07-1.55-1.38-2.5s-.46-1.96-.46-3.02,.14-2,.43-2.93,.74-1.75,1.36-2.46c.62-.71,1.41-1.28,2.37-1.7s2.11-.62,3.46-.62c1.02,0,2.03,.12,3.01,.35s1.77,.54,2.37,.93l-.77,2.85Z"/>
      <path class="cls-1" d="M680.01,780.07l-.26-2.02h-.13c-.58,.73-1.36,1.31-2.35,1.74-.99,.44-2,.66-3.02,.66-1.34,0-2.4-.39-3.17-1.17-.77-.78-1.15-1.81-1.15-3.09,0-.87,.19-1.66,.56-2.35,.37-.69,.91-1.28,1.62-1.76,.7-.48,1.55-.85,2.53-1.1s2.08-.38,3.3-.38h1.38v-.48c0-.83-.27-1.44-.8-1.82-.55-.38-1.42-.58-2.59-.58-1.58,0-2.99,.35-4.22,1.06l-.67-2.66c1.43-.83,3.16-1.25,5.18-1.25,2.13,0,3.75,.44,4.86,1.31,.51,.41,.93,.93,1.26,1.57,.33,.64,.5,1.41,.5,2.3v10.02h-2.82Zm-4.38-2.46c.68,0,1.37-.17,2.05-.5,.68-.33,1.23-.77,1.63-1.33v-2.91h-.61c-1.75,0-3.02,.22-3.82,.67-.8,.45-1.2,1.16-1.2,2.14,0,1.28,.65,1.92,1.95,1.92Z"/>
      <path class="cls-1" d="M687.62,767.49h-1.82v-1.92l2.08-.32,.58-4.35h2.69v4.45h2.82v2.14h-2.82v8.45c0,.64,.06,1.07,.19,1.3s.37,.34,.74,.34c.28,0,.55-.05,.83-.16,.28-.11,.68-.31,1.22-.61l.58,2.53c-.41,.34-.98,.61-1.71,.82-.74,.2-1.47,.3-2.19,.3-.64,0-1.17-.08-1.58-.26s-.74-.42-.98-.75c-.23-.33-.39-.73-.48-1.2-.09-.47-.13-.99-.13-1.57v-9.18Z"/>
      <path class="cls-1" d="M704.13,764.87c1.3,0,2.42,.22,3.36,.66s1.71,1.02,2.32,1.76c.61,.74,1.06,1.58,1.34,2.53s.43,1.95,.43,2.99-.14,2.03-.43,2.96c-.29,.93-.74,1.74-1.34,2.43s-1.38,1.24-2.3,1.65c-.93,.4-2.02,.61-3.28,.61s-2.42-.21-3.36-.64-1.72-1-2.34-1.71-1.08-1.54-1.38-2.48c-.3-.94-.45-1.93-.45-2.98s.15-2.04,.45-2.98c.3-.94,.75-1.76,1.36-2.48,.61-.71,1.38-1.28,2.32-1.7,.94-.42,2.04-.62,3.3-.62Zm.06,12.93c.62,0,1.16-.13,1.62-.4s.84-.63,1.14-1.09,.52-.99,.66-1.58,.21-1.23,.21-1.89-.08-1.34-.22-1.97c-.15-.63-.38-1.18-.69-1.66-.31-.48-.7-.86-1.17-1.15-.47-.29-1.04-.43-1.7-.43-.62,0-1.15,.13-1.6,.4s-.82,.62-1.1,1.07c-.29,.45-.5,.97-.64,1.57-.14,.6-.21,1.23-.21,1.89s.07,1.34,.21,1.97,.36,1.19,.67,1.68c.31,.49,.7,.88,1.17,1.17,.47,.29,1.02,.43,1.66,.43Z"/>
      <path class="cls-1" d="M723.56,768.55c-.21-.17-.54-.31-.99-.42-.45-.11-.83-.16-1.15-.16-.43,0-.78,.1-1.06,.3-.28,.2-.52,.47-.74,.8-.21,.33-.39,.71-.54,1.14-.15,.43-.29,.86-.42,1.31v8.54h-3.52v-14.72h2.75l.16,3.07h.13c.21-.45,.44-.88,.67-1.31,.23-.43,.5-.8,.8-1.14s.65-.6,1.04-.8c.39-.2,.86-.3,1.39-.3,.85,0,1.65,.28,2.4,.83l-.93,2.85Z"/>
      <path class="cls-1" d="M512.36,809.51h4.86v2.62h-4.86v5.02h-2.94v-5.02h-4.83v-2.62h4.83v-4.7h2.94v4.7Z"/>
      <path class="cls-1" d="M424.07,840.83c0,.45,.1,.83,.3,1.15,.2,.32,.48,.6,.85,.83,.36,.23,.79,.45,1.3,.66,.5,.2,1.06,.41,1.68,.62,.77,.28,1.53,.59,2.29,.94,.76,.35,1.44,.79,2.05,1.31,.61,.52,1.1,1.17,1.49,1.94,.38,.77,.58,1.7,.58,2.78,0,1.15-.21,2.12-.62,2.91s-.98,1.42-1.68,1.9c-.7,.48-1.52,.83-2.43,1.04-.92,.21-1.87,.32-2.85,.32-1.41,0-2.73-.17-3.95-.51s-2.28-.76-3.15-1.25l.96-3.46c.81,.62,1.71,1.13,2.7,1.54,.99,.41,2.13,.61,3.41,.61,1.37,0,2.36-.24,2.98-.72,.62-.48,.93-1.12,.93-1.94,0-.62-.15-1.15-.45-1.58s-.67-.81-1.12-1.12c-.45-.31-.92-.56-1.42-.75-.5-.19-.94-.35-1.33-.48-.68-.21-1.38-.47-2.08-.77s-1.35-.69-1.95-1.17c-.6-.48-1.08-1.08-1.46-1.81-.37-.72-.56-1.63-.56-2.72,0-1.02,.18-1.89,.53-2.59,.35-.7,.83-1.27,1.44-1.71,.61-.44,1.32-.75,2.14-.94,.82-.19,1.71-.29,2.67-.29,1.17,0,2.31,.12,3.41,.35,1.1,.23,2.02,.52,2.77,.86l-.86,3.39c-.38-.26-.8-.48-1.25-.67-.45-.19-.91-.35-1.39-.48-.48-.13-.96-.23-1.44-.3-.48-.07-.93-.11-1.36-.11-.96,0-1.72,.18-2.27,.54-.55,.36-.83,.92-.83,1.66Z"/>
      <path class="cls-1" d="M437.45,837.41c0-.3,.06-.59,.18-.86,.12-.28,.28-.53,.5-.75,.21-.22,.45-.4,.72-.53,.27-.13,.56-.19,.88-.19,.3,0,.59,.06,.86,.19,.28,.13,.53,.3,.75,.53,.22,.22,.4,.48,.53,.75,.13,.28,.19,.57,.19,.86,0,.32-.06,.61-.19,.88-.13,.27-.3,.51-.53,.72-.22,.21-.48,.38-.75,.5-.28,.12-.57,.18-.86,.18-.62,0-1.15-.22-1.6-.67-.45-.45-.67-.98-.67-1.6Zm4.03,19.46h-3.52v-14.72h3.52v14.72Z"/>
      <path class="cls-1" d="M447.85,852.23c-.96-.41-1.65-1.04-2.08-1.89-.43-.85-.64-1.78-.64-2.78,0-.83,.14-1.61,.42-2.34,.28-.72,.68-1.35,1.2-1.87,.52-.52,1.15-.93,1.89-1.23,.74-.3,1.57-.45,2.51-.45,.55,0,1.1,.05,1.65,.16,.54,.1,1.02,.26,1.42,.47,.9,0,1.71-.06,2.45-.18,.74-.12,1.45-.28,2.13-.48l.29,.22-.35,2.43-.16,.16-2.27-.26-.03,.1c.72,.92,1.09,2,1.09,3.23,0,.75-.13,1.45-.4,2.1-.27,.65-.66,1.22-1.17,1.7-.51,.48-1.15,.86-1.9,1.15-.76,.29-1.62,.43-2.58,.43-.24,0-.42,0-.56-.02-.14,0-.27-.02-.4-.02-.36,.13-.64,.29-.83,.5-.19,.2-.29,.41-.29,.62,0,.24,.12,.44,.35,.61,.23,.17,.6,.29,1.09,.35l3.1,.38c.7,.09,1.36,.24,1.97,.45,.61,.21,1.14,.5,1.6,.86,.46,.36,.82,.8,1.07,1.31s.38,1.1,.38,1.76-.14,1.3-.42,1.92c-.28,.62-.71,1.16-1.31,1.63-.6,.47-1.35,.84-2.26,1.12-.91,.28-2,.42-3.28,.42-1.13,0-2.13-.11-2.99-.34-.86-.22-1.59-.53-2.19-.91-.6-.38-1.05-.84-1.36-1.36-.31-.52-.46-1.08-.46-1.68,0-.43,.07-.85,.22-1.26s.36-.8,.62-1.15c.27-.35,.58-.67,.93-.94,.35-.28,.73-.48,1.14-.61v-.13c-.49-.21-.83-.5-1.02-.86-.19-.36-.29-.71-.29-1.06,0-.45,.15-.86,.45-1.25s.72-.68,1.28-.9v-.13Zm2.43,5.34c-.73,.13-1.34,.43-1.86,.91-.51,.48-.77,1.03-.77,1.65,0,.68,.34,1.2,1.01,1.54s1.65,.51,2.93,.51,2.26-.18,3.01-.53c.75-.35,1.12-.92,1.12-1.71s-.42-1.31-1.25-1.63c-.83-.32-2.23-.57-4.19-.74Zm.99-7.14c.87,0,1.54-.28,1.98-.85,.45-.56,.67-1.25,.67-2.06,0-.38-.05-.77-.16-1.17-.11-.39-.28-.75-.51-1.07-.23-.32-.53-.58-.88-.78-.35-.2-.76-.3-1.23-.3s-.84,.09-1.18,.27c-.34,.18-.62,.42-.85,.72s-.39,.63-.5,1.01c-.11,.37-.16,.75-.16,1.14s.06,.76,.18,1.14c.12,.37,.29,.7,.53,.99,.23,.29,.53,.52,.88,.7,.35,.18,.76,.27,1.23,.27Z"/>
      <path class="cls-1" d="M471.69,856.87v-9.73c0-1.75-.75-2.62-2.24-2.62-.36,0-.75,.06-1.17,.19-.42,.13-.82,.32-1.2,.56-.38,.25-.73,.55-1.04,.91-.31,.36-.54,.78-.69,1.25v9.44h-3.52v-14.72h2.75l.16,2.18h.13c.45-.9,1.15-1.56,2.1-2s1.97-.66,3.06-.66c.7,0,1.37,.09,1.98,.27,.62,.18,1.17,.47,1.65,.88,.48,.41,.86,.94,1.14,1.6,.28,.66,.42,1.47,.42,2.43v10.02h-3.52Z"/>
      <path class="cls-1" d="M488.3,856.87l-.26-2.02h-.13c-.58,.73-1.36,1.31-2.35,1.74-.99,.44-2,.66-3.02,.66-1.34,0-2.4-.39-3.17-1.17-.77-.78-1.15-1.81-1.15-3.09,0-.87,.19-1.66,.56-2.35s.91-1.28,1.62-1.76c.7-.48,1.55-.85,2.53-1.1,.98-.26,2.08-.38,3.3-.38h1.38v-.48c0-.83-.27-1.44-.8-1.82-.56-.38-1.42-.58-2.59-.58-1.58,0-2.99,.35-4.22,1.06l-.67-2.66c1.43-.83,3.16-1.25,5.18-1.25,2.13,0,3.75,.44,4.86,1.31,.51,.41,.93,.93,1.26,1.57,.33,.64,.5,1.41,.5,2.3v10.02h-2.82Zm-4.38-2.46c.68,0,1.36-.17,2.05-.5,.68-.33,1.23-.77,1.63-1.33v-2.91h-.61c-1.75,0-3.02,.22-3.82,.67-.8,.45-1.2,1.16-1.2,2.14,0,1.28,.65,1.92,1.95,1.92Z"/>
      <path class="cls-1" d="M499.08,856.87h-3.52v-23.68h3.52v23.68Z"/>
      <path class="cls-1" d="M514.82,840.83c0,.45,.1,.83,.3,1.15s.49,.6,.85,.83c.36,.23,.79,.45,1.3,.66,.5,.2,1.06,.41,1.68,.62,.77,.28,1.53,.59,2.29,.94,.76,.35,1.44,.79,2.05,1.31s1.1,1.17,1.49,1.94c.38,.77,.58,1.7,.58,2.78,0,1.15-.21,2.12-.62,2.91s-.98,1.42-1.68,1.9c-.7,.48-1.51,.83-2.43,1.04-.92,.21-1.87,.32-2.85,.32-1.41,0-2.73-.17-3.95-.51-1.23-.34-2.28-.76-3.15-1.25l.96-3.46c.81,.62,1.71,1.13,2.7,1.54s2.13,.61,3.41,.61c1.36,0,2.36-.24,2.98-.72,.62-.48,.93-1.12,.93-1.94,0-.62-.15-1.15-.45-1.58-.3-.44-.67-.81-1.12-1.12s-.92-.56-1.42-.75c-.5-.19-.94-.35-1.33-.48-.68-.21-1.38-.47-2.08-.77s-1.36-.69-1.95-1.17c-.6-.48-1.08-1.08-1.46-1.81-.37-.72-.56-1.63-.56-2.72,0-1.02,.18-1.89,.53-2.59,.35-.7,.83-1.27,1.44-1.71,.61-.44,1.32-.75,2.14-.94,.82-.19,1.71-.29,2.67-.29,1.17,0,2.31,.12,3.41,.35s2.02,.52,2.77,.86l-.86,3.39c-.38-.26-.8-.48-1.25-.67-.45-.19-.91-.35-1.39-.48-.48-.13-.96-.23-1.44-.3-.48-.07-.93-.11-1.36-.11-.96,0-1.72,.18-2.27,.54-.56,.36-.83,.92-.83,1.66Z"/>
      <path class="cls-1" d="M535.56,841.66c1.88,0,3.33,.48,4.35,1.42,1.02,.95,1.54,2.29,1.54,4.02,0,.23-.02,.49-.05,.75-.03,.27-.07,.53-.13,.78-.05,.26-.12,.49-.19,.69-.08,.2-.16,.37-.24,.5h-9.31c.04,.64,.16,1.24,.35,1.81,.19,.57,.47,1.06,.83,1.47,.36,.42,.8,.75,1.33,.99,.52,.25,1.14,.37,1.84,.37,.79,0,1.63-.15,2.51-.45,.88-.3,1.64-.67,2.26-1.12l.58,2.62c-.28,.17-.62,.36-1.02,.56s-.86,.39-1.38,.56c-.51,.17-1.06,.31-1.65,.43s-1.2,.18-1.84,.18c-1.2,0-2.25-.21-3.17-.62-.92-.42-1.69-.98-2.3-1.7-.62-.71-1.09-1.54-1.41-2.48-.32-.94-.48-1.92-.48-2.94s.17-2.04,.5-2.99,.82-1.79,1.46-2.51c.64-.72,1.43-1.3,2.38-1.71s2.03-.62,3.25-.62Zm-.1,2.75c-.9,0-1.66,.26-2.29,.78-.63,.52-1.08,1.23-1.36,2.13h6.11c.02-.06,.04-.14,.05-.22s.02-.19,.02-.32c0-.68-.24-1.25-.7-1.7-.47-.45-1.08-.67-1.82-.67Z"/>
      <path class="cls-1" d="M553.45,845.35c-.21-.17-.54-.31-.99-.42-.45-.11-.83-.16-1.15-.16-.43,0-.78,.1-1.06,.3-.28,.2-.52,.47-.74,.8-.21,.33-.4,.71-.54,1.14-.15,.43-.29,.86-.42,1.31v8.54h-3.52v-14.72h2.75l.16,3.07h.13c.21-.45,.44-.88,.67-1.31s.5-.8,.8-1.14c.3-.33,.64-.6,1.04-.8,.39-.2,.86-.3,1.39-.3,.85,0,1.65,.28,2.4,.83l-.93,2.85Z"/>
      <path class="cls-1" d="M565.26,856.87h-4.26l-5.89-14.72h3.68l4.45,11.81,4.64-11.81h3.46l-6.08,14.72Z"/>
      <path class="cls-1" d="M573.26,837.41c0-.3,.06-.59,.18-.86,.12-.28,.28-.53,.5-.75,.21-.22,.45-.4,.72-.53s.56-.19,.88-.19c.3,0,.59,.06,.86,.19s.53,.3,.75,.53,.4,.48,.53,.75c.13,.28,.19,.57,.19,.86,0,.32-.06,.61-.19,.88-.13,.27-.3,.51-.53,.72-.22,.21-.47,.38-.75,.5-.28,.12-.57,.18-.86,.18-.62,0-1.15-.22-1.6-.67-.45-.45-.67-.98-.67-1.6Zm4.03,19.46h-3.52v-14.72h3.52v14.72Z"/>
      <path class="cls-1" d="M593.06,845.79c-.24-.17-.53-.34-.88-.51-.35-.17-.73-.32-1.14-.45s-.83-.23-1.26-.3c-.44-.07-.85-.11-1.23-.11-.73,0-1.34,.13-1.84,.4s-.91,.62-1.22,1.06c-.31,.44-.53,.94-.67,1.52-.14,.58-.21,1.17-.21,1.79,0,.73,.08,1.4,.26,2.03,.17,.63,.43,1.18,.77,1.65,.34,.47,.77,.84,1.3,1.12,.52,.28,1.12,.42,1.81,.42,.77,0,1.58-.15,2.45-.46s1.58-.74,2.16-1.3l.64,3.01c-.6,.38-1.41,.75-2.45,1.09-1.03,.34-2.14,.51-3.31,.51-1.24,0-2.32-.21-3.25-.64s-1.7-1-2.3-1.71c-.61-.71-1.07-1.55-1.38-2.5-.31-.95-.46-1.96-.46-3.02s.14-2,.43-2.93,.74-1.75,1.36-2.46c.62-.71,1.41-1.28,2.37-1.7s2.11-.62,3.46-.62c1.02,0,2.03,.12,3.01,.35s1.77,.54,2.37,.93l-.77,2.85Z"/>
      <path class="cls-1" d="M603.82,841.66c1.88,0,3.33,.48,4.35,1.42,1.02,.95,1.54,2.29,1.54,4.02,0,.23-.02,.49-.05,.75-.03,.27-.07,.53-.13,.78-.05,.26-.12,.49-.19,.69-.08,.2-.16,.37-.24,.5h-9.31c.04,.64,.16,1.24,.35,1.81,.19,.57,.47,1.06,.83,1.47,.36,.42,.8,.75,1.33,.99,.52,.25,1.14,.37,1.84,.37,.79,0,1.63-.15,2.51-.45,.88-.3,1.64-.67,2.26-1.12l.58,2.62c-.28,.17-.62,.36-1.02,.56s-.86,.39-1.38,.56c-.51,.17-1.06,.31-1.65,.43s-1.2,.18-1.84,.18c-1.2,0-2.25-.21-3.17-.62-.92-.42-1.69-.98-2.3-1.7-.62-.71-1.09-1.54-1.41-2.48-.32-.94-.48-1.92-.48-2.94s.17-2.04,.5-2.99,.82-1.79,1.46-2.51c.64-.72,1.43-1.3,2.38-1.71s2.03-.62,3.25-.62Zm-.1,2.75c-.9,0-1.66,.26-2.29,.78-.63,.52-1.08,1.23-1.36,2.13h6.11c.02-.06,.04-.14,.05-.22s.02-.19,.02-.32c0-.68-.24-1.25-.7-1.7-.47-.45-1.08-.67-1.82-.67Z"/>
    </g>
    <g>
      <path class="cls-1" d="M403.77,530.85c-.68-.47-1.5-.85-2.45-1.14s-2.03-.43-3.25-.43c-1.15,0-2.14,.18-2.96,.54-.82,.36-1.49,.88-2,1.54-.51,.66-.89,1.46-1.13,2.38-.25,.93-.37,1.96-.37,3.09,0,2.58,.55,4.53,1.65,5.86,1.1,1.32,2.68,1.98,4.75,1.98,1.28,0,2.45-.19,3.5-.58,1.06-.38,1.93-.85,2.61-1.41l.96,3.17c-.85,.51-1.88,.97-3.09,1.36s-2.57,.59-4.08,.59c-1.75,0-3.26-.29-4.54-.86-1.28-.58-2.34-1.35-3.18-2.34-.84-.98-1.47-2.12-1.87-3.41-.41-1.29-.61-2.66-.61-4.11s.22-2.93,.67-4.26c.45-1.32,1.11-2.48,2-3.47,.89-.99,1.98-1.78,3.3-2.35s2.84-.86,4.59-.86c1.15,0,2.3,.12,3.46,.37,1.15,.25,2.14,.58,2.97,1.01l-.93,3.33Z"/>
      <path class="cls-1" d="M417.37,547.43l-.26-2.02h-.13c-.58,.73-1.36,1.31-2.35,1.74-.99,.44-2,.66-3.02,.66-1.34,0-2.4-.39-3.17-1.17-.77-.78-1.15-1.81-1.15-3.09,0-.87,.19-1.66,.56-2.35s.91-1.28,1.62-1.76c.7-.48,1.55-.85,2.53-1.1,.98-.26,2.08-.38,3.29-.38h1.38v-.48c0-.83-.27-1.44-.8-1.82-.55-.38-1.42-.58-2.59-.58-1.58,0-2.99,.35-4.22,1.06l-.67-2.66c1.43-.83,3.16-1.25,5.18-1.25,2.13,0,3.75,.44,4.86,1.31,.51,.41,.93,.93,1.26,1.57,.33,.64,.5,1.41,.5,2.3v10.02h-2.82Zm-4.38-2.46c.68,0,1.36-.17,2.05-.5,.68-.33,1.23-.77,1.63-1.33v-2.91h-.61c-1.75,0-3.02,.22-3.82,.67-.8,.45-1.2,1.16-1.2,2.14,0,1.28,.65,1.92,1.95,1.92Z"/>
      <path class="cls-1" d="M428.92,534.85c-.71,0-1.25,.13-1.65,.4s-.59,.65-.59,1.14c0,.32,.11,.61,.34,.88,.22,.27,.7,.49,1.42,.66l2.27,.51c.9,.19,1.62,.47,2.16,.83,.54,.36,.97,.76,1.28,1.18s.52,.86,.62,1.31c.11,.45,.16,.86,.16,1.25,0,.68-.14,1.32-.42,1.9s-.67,1.09-1.18,1.52c-.51,.43-1.13,.76-1.86,1.01-.73,.25-1.54,.37-2.43,.37-1.13,0-2.18-.17-3.13-.5-.96-.33-1.73-.7-2.3-1.1l.83-3.04c.72,.7,1.54,1.23,2.45,1.57,.91,.34,1.74,.51,2.51,.51,.81,0,1.43-.18,1.86-.53,.43-.35,.64-.84,.64-1.46,0-.36-.11-.67-.32-.91-.21-.25-.64-.45-1.28-.62l-3.07-.77c-.73-.17-1.32-.42-1.78-.74-.46-.32-.82-.68-1.09-1.07-.27-.39-.45-.8-.54-1.23s-.14-.83-.14-1.22c0-1.43,.5-2.53,1.5-3.31,1-.78,2.3-1.17,3.9-1.17,.83,0,1.73,.11,2.69,.34,.96,.22,1.77,.55,2.43,.98l-.93,2.88c-.43-.34-1.02-.69-1.79-1.04-.77-.35-1.62-.53-2.56-.53Z"/>
      <path class="cls-1" d="M441.82,534.88c.6-.94,1.3-1.62,2.1-2.03,.8-.42,1.74-.62,2.83-.62,.64,0,1.26,.09,1.86,.27,.6,.18,1.12,.47,1.58,.88s.82,.94,1.09,1.6c.27,.66,.4,1.47,.4,2.43v10.02h-3.52v-9.73c0-.88-.19-1.53-.58-1.97-.38-.44-.91-.66-1.57-.66-.41,0-.83,.06-1.26,.19-.44,.13-.85,.32-1.23,.58-.38,.26-.73,.57-1.02,.93-.3,.36-.52,.77-.67,1.22v9.44h-3.52v-23.68h3.52v11.14Z"/>
      <path class="cls-1" d="M468.51,547.43h-3.52v-20.61c-.49-.17-1-.33-1.52-.48-.52-.15-1.1-.22-1.74-.22-.28,0-.51,.06-.7,.19-.19,.13-.35,.36-.48,.7-.13,.34-.22,.8-.27,1.38-.05,.58-.08,1.31-.08,2.21v2.11h2.82v2.14h-2.82v12.58h-3.52v-12.58h-1.82v-1.82l1.82-.29c0-1.22,.04-2.25,.11-3.1,.07-.85,.18-1.57,.3-2.16,.13-.59,.27-1.06,.43-1.42,.16-.36,.33-.66,.5-.9,.43-.55,.99-.95,1.68-1.2,.69-.25,1.46-.37,2.29-.37,.49,0,1.22,.06,2.18,.19,.96,.13,1.95,.37,2.98,.74l1.38-.77v23.68Z"/>
      <path class="cls-1" d="M479.67,532.23c1.3,0,2.42,.22,3.36,.66,.94,.44,1.71,1.02,2.32,1.76,.61,.74,1.05,1.58,1.34,2.53,.29,.95,.43,1.95,.43,2.99s-.14,2.03-.43,2.96c-.29,.93-.74,1.74-1.34,2.43-.61,.69-1.38,1.24-2.3,1.65-.93,.4-2.02,.61-3.28,.61s-2.42-.21-3.36-.64c-.94-.43-1.72-1-2.34-1.71s-1.08-1.54-1.38-2.48c-.3-.94-.45-1.93-.45-2.98s.15-2.04,.45-2.98c.3-.94,.75-1.76,1.36-2.48s1.38-1.28,2.32-1.7c.94-.42,2.04-.62,3.3-.62Zm.06,12.93c.62,0,1.16-.13,1.62-.4,.46-.27,.84-.63,1.13-1.09s.52-.99,.66-1.58,.21-1.23,.21-1.89-.08-1.34-.22-1.97c-.15-.63-.38-1.18-.69-1.66-.31-.48-.7-.86-1.17-1.15-.47-.29-1.04-.43-1.7-.43-.62,0-1.15,.13-1.6,.4-.45,.27-.82,.62-1.1,1.07-.29,.45-.5,.97-.64,1.57-.14,.6-.21,1.23-.21,1.89s.07,1.34,.21,1.97,.36,1.19,.67,1.68c.31,.49,.7,.88,1.17,1.17,.47,.29,1.02,.43,1.66,.43Z"/>
      <path class="cls-1" d="M501.53,537.19l-3.17,10.24h-4.26l-5.34-14.72h3.68l3.84,11.3,3.49-11.3h3.52l3.49,11.3,3.84-11.3h3.62l-5.34,14.72h-4.19l-3.17-10.24Z"/>
      <path class="cls-1" d="M527.32,531.4c0,.45,.1,.83,.3,1.15,.2,.32,.48,.6,.85,.83,.36,.23,.79,.45,1.3,.66,.5,.2,1.06,.41,1.68,.62,.77,.28,1.53,.59,2.29,.94,.76,.35,1.44,.79,2.05,1.31s1.1,1.17,1.49,1.94c.38,.77,.58,1.7,.58,2.78,0,1.15-.21,2.12-.62,2.91s-.98,1.42-1.68,1.9c-.71,.48-1.52,.83-2.43,1.04-.92,.21-1.87,.32-2.85,.32-1.41,0-2.73-.17-3.95-.51s-2.28-.76-3.15-1.25l.96-3.46c.81,.62,1.71,1.13,2.7,1.54s2.13,.61,3.41,.61c1.37,0,2.36-.24,2.98-.72,.62-.48,.93-1.12,.93-1.94,0-.62-.15-1.15-.45-1.58-.3-.44-.67-.81-1.12-1.12-.45-.31-.92-.56-1.42-.75-.5-.19-.94-.35-1.33-.48-.68-.21-1.38-.47-2.08-.77s-1.36-.69-1.95-1.17c-.6-.48-1.08-1.08-1.46-1.81-.37-.72-.56-1.63-.56-2.72,0-1.02,.18-1.89,.53-2.59,.35-.7,.83-1.27,1.44-1.71s1.32-.75,2.14-.94c.82-.19,1.71-.29,2.67-.29,1.17,0,2.31,.12,3.41,.35,1.1,.23,2.02,.52,2.77,.86l-.86,3.39c-.38-.26-.8-.48-1.25-.67-.45-.19-.91-.35-1.39-.48s-.96-.23-1.44-.3c-.48-.07-.93-.11-1.36-.11-.96,0-1.72,.18-2.27,.54-.55,.36-.83,.92-.83,1.66Z"/>
      <path class="cls-1" d="M541.63,534.85h-1.82v-1.92l2.08-.32,.58-4.35h2.69v4.45h2.82v2.14h-2.82v8.45c0,.64,.06,1.07,.19,1.3,.13,.22,.37,.34,.74,.34,.28,0,.55-.05,.83-.16,.28-.11,.68-.31,1.22-.61l.58,2.53c-.41,.34-.98,.61-1.71,.82s-1.47,.3-2.19,.3c-.64,0-1.17-.08-1.58-.26s-.74-.42-.98-.75c-.23-.33-.39-.73-.48-1.2-.08-.47-.13-.99-.13-1.57v-9.18Z"/>
      <path class="cls-1" d="M559.99,535.91c-.21-.17-.54-.31-.99-.42-.45-.11-.83-.16-1.15-.16-.43,0-.78,.1-1.06,.3-.28,.2-.52,.47-.74,.8-.21,.33-.4,.71-.54,1.14-.15,.43-.29,.86-.42,1.31v8.54h-3.52v-14.72h2.75l.16,3.07h.13c.21-.45,.44-.88,.67-1.31,.23-.43,.5-.8,.8-1.14s.65-.6,1.04-.8c.39-.2,.86-.3,1.39-.3,.85,0,1.65,.28,2.4,.83l-.93,2.85Z"/>
      <path class="cls-1" d="M572.34,547.43l-.26-2.02h-.13c-.58,.73-1.36,1.31-2.35,1.74-.99,.44-2,.66-3.02,.66-1.34,0-2.4-.39-3.17-1.17-.77-.78-1.15-1.81-1.15-3.09,0-.87,.19-1.66,.56-2.35s.91-1.28,1.62-1.76c.7-.48,1.55-.85,2.53-1.1,.98-.26,2.08-.38,3.29-.38h1.38v-.48c0-.83-.27-1.44-.8-1.82-.55-.38-1.42-.58-2.59-.58-1.58,0-2.99,.35-4.22,1.06l-.67-2.66c1.43-.83,3.16-1.25,5.18-1.25,2.13,0,3.75,.44,4.86,1.31,.51,.41,.93,.93,1.26,1.57,.33,.64,.5,1.41,.5,2.3v10.02h-2.82Zm-4.38-2.46c.68,0,1.36-.17,2.05-.5,.68-.33,1.23-.77,1.63-1.33v-2.91h-.61c-1.75,0-3.02,.22-3.82,.67-.8,.45-1.2,1.16-1.2,2.14,0,1.28,.65,1.92,1.95,1.92Z"/>
      <path class="cls-1" d="M579.96,534.85h-1.82v-1.92l2.08-.32,.58-4.35h2.69v4.45h2.82v2.14h-2.82v8.45c0,.64,.06,1.07,.19,1.3,.13,.22,.37,.34,.74,.34,.28,0,.55-.05,.83-.16,.28-.11,.68-.31,1.22-.61l.58,2.53c-.41,.34-.98,.61-1.71,.82s-1.47,.3-2.19,.3c-.64,0-1.17-.08-1.58-.26s-.74-.42-.98-.75c-.24-.33-.4-.73-.48-1.2-.09-.47-.13-.99-.13-1.57v-9.18Z"/>
      <path class="cls-1" d="M596.6,532.23c1.88,0,3.33,.48,4.35,1.42,1.02,.95,1.54,2.29,1.54,4.02,0,.23-.02,.49-.05,.75-.03,.27-.07,.53-.13,.78-.05,.26-.12,.49-.19,.69-.07,.2-.15,.37-.24,.5h-9.31c.04,.64,.16,1.24,.35,1.81,.19,.57,.47,1.06,.83,1.47,.36,.42,.8,.75,1.33,.99,.52,.25,1.14,.37,1.84,.37,.79,0,1.63-.15,2.51-.45,.88-.3,1.64-.67,2.26-1.12l.58,2.62c-.28,.17-.62,.36-1.02,.56s-.87,.39-1.38,.56-1.06,.31-1.65,.43-1.2,.18-1.84,.18c-1.19,0-2.25-.21-3.17-.62-.92-.42-1.69-.98-2.3-1.7-.62-.71-1.09-1.54-1.41-2.48-.32-.94-.48-1.92-.48-2.94s.17-2.04,.5-2.99c.33-.95,.82-1.79,1.46-2.51,.64-.72,1.43-1.3,2.38-1.71s2.03-.62,3.25-.62Zm-.1,2.75c-.9,0-1.66,.26-2.29,.78-.63,.52-1.08,1.23-1.36,2.13h6.11c.02-.06,.04-.14,.05-.22,0-.08,.02-.19,.02-.32,0-.68-.23-1.25-.7-1.7-.47-.45-1.08-.67-1.82-.67Z"/>
      <path class="cls-1" d="M608.02,542.79c-.96-.41-1.65-1.04-2.08-1.89-.43-.85-.64-1.78-.64-2.78,0-.83,.14-1.61,.42-2.34,.28-.72,.68-1.35,1.2-1.87,.52-.52,1.15-.93,1.89-1.23,.74-.3,1.57-.45,2.51-.45,.55,0,1.1,.05,1.65,.16,.54,.1,1.02,.26,1.42,.47,.9,0,1.71-.06,2.45-.18,.74-.12,1.44-.28,2.13-.48l.29,.22-.35,2.43-.16,.16-2.27-.26-.03,.1c.72,.92,1.09,2,1.09,3.23,0,.75-.13,1.45-.4,2.1-.27,.65-.66,1.22-1.17,1.7-.51,.48-1.15,.86-1.9,1.15-.76,.29-1.62,.43-2.58,.43-.24,0-.42,0-.56-.02-.14,0-.27-.02-.4-.02-.36,.13-.64,.29-.83,.5-.19,.2-.29,.41-.29,.62,0,.24,.12,.44,.35,.61,.23,.17,.6,.29,1.09,.35l3.1,.38c.7,.09,1.36,.24,1.97,.45,.61,.21,1.14,.5,1.6,.86,.46,.36,.82,.8,1.07,1.31,.26,.51,.38,1.1,.38,1.76s-.14,1.3-.42,1.92c-.28,.62-.71,1.16-1.31,1.63-.6,.47-1.35,.84-2.26,1.12-.91,.28-2,.42-3.28,.42-1.13,0-2.13-.11-2.99-.34-.86-.22-1.59-.53-2.19-.91-.6-.38-1.05-.84-1.36-1.36-.31-.52-.46-1.08-.46-1.68,0-.43,.07-.85,.22-1.26,.15-.42,.36-.8,.62-1.15,.27-.35,.58-.67,.93-.94,.35-.28,.73-.48,1.14-.61v-.13c-.49-.21-.83-.5-1.02-.86-.19-.36-.29-.71-.29-1.06,0-.45,.15-.86,.45-1.25s.73-.68,1.28-.9v-.13Zm2.43,5.34c-.72,.13-1.34,.43-1.86,.91-.51,.48-.77,1.03-.77,1.65,0,.68,.34,1.2,1.01,1.54s1.65,.51,2.93,.51,2.26-.18,3.01-.53c.75-.35,1.12-.92,1.12-1.71s-.42-1.31-1.25-1.63c-.83-.32-2.23-.57-4.19-.74Zm.99-7.14c.88,0,1.54-.28,1.98-.85,.45-.56,.67-1.25,.67-2.06,0-.38-.05-.77-.16-1.17-.11-.39-.28-.75-.51-1.07-.24-.32-.53-.58-.88-.78-.35-.2-.76-.3-1.23-.3s-.84,.09-1.18,.27c-.34,.18-.62,.42-.85,.72-.22,.3-.39,.63-.5,1.01s-.16,.75-.16,1.14,.06,.76,.18,1.14c.12,.37,.29,.7,.53,.99,.23,.29,.53,.52,.88,.7,.35,.18,.76,.27,1.23,.27Z"/>
      <path class="cls-1" d="M628.38,543.17l4.1-10.46h3.39l-6.08,14.85c-.3,.75-.71,1.58-1.23,2.51-.52,.93-1.14,1.8-1.86,2.62-.71,.82-1.52,1.51-2.42,2.08-.9,.57-1.87,.85-2.91,.85-.17,0-.3,0-.38-.02-.08-.01-.18-.04-.29-.08l-.61-2.75c.06,.02,.14,.04,.22,.06,.09,.02,.27,.03,.54,.03,.4,0,.8-.04,1.2-.13,.39-.08,.79-.26,1.2-.51,.77-.49,1.43-1.17,2-2.05s1.11-1.95,1.65-3.23l-7.33-14.24h3.68l5.12,10.46Z"/>
      <path class="cls-1" d="M392.11,575.59l-3.17,10.24h-4.26l-5.34-14.72h3.68l3.84,11.3,3.49-11.3h3.52l3.49,11.3,3.84-11.3h3.62l-5.34,14.72h-4.19l-3.17-10.24Z"/>
      <path class="cls-1" d="M406.92,566.37c0-.3,.06-.59,.18-.86,.12-.28,.28-.53,.5-.75,.21-.22,.45-.4,.72-.53,.27-.13,.56-.19,.88-.19,.3,0,.59,.06,.87,.19,.28,.13,.53,.3,.75,.53,.22,.22,.4,.48,.53,.75,.13,.28,.19,.57,.19,.86,0,.32-.06,.61-.19,.88-.13,.27-.3,.51-.53,.72-.22,.21-.48,.38-.75,.5-.28,.12-.57,.18-.87,.18-.62,0-1.15-.22-1.6-.67s-.67-.98-.67-1.6Zm4.03,19.46h-3.52v-14.72h3.52v14.72Z"/>
      <path class="cls-1" d="M416.04,573.25h-1.82v-1.92l2.08-.32,.58-4.35h2.69v4.45h2.82v2.14h-2.82v8.45c0,.64,.06,1.07,.19,1.3,.13,.22,.37,.34,.74,.34,.28,0,.55-.05,.83-.16,.28-.11,.68-.31,1.21-.61l.58,2.53c-.41,.34-.98,.61-1.71,.82-.74,.2-1.47,.3-2.19,.3-.64,0-1.17-.08-1.58-.26s-.74-.42-.98-.75c-.24-.33-.4-.73-.48-1.2-.09-.47-.13-.99-.13-1.57v-9.18Z"/>
      <path class="cls-1" d="M429.51,573.29c.6-.94,1.29-1.62,2.1-2.03,.8-.42,1.74-.62,2.83-.62,.64,0,1.26,.09,1.86,.27s1.12,.47,1.58,.88,.82,.94,1.09,1.6c.27,.66,.4,1.47,.4,2.43v10.02h-3.52v-9.73c0-.88-.19-1.53-.58-1.97-.38-.44-.91-.66-1.57-.66-.41,0-.83,.06-1.26,.19-.44,.13-.85,.32-1.23,.58-.38,.26-.72,.57-1.02,.93-.3,.36-.52,.77-.67,1.22v9.44h-3.52v-23.68h3.52v11.14Z"/>
      <path class="cls-1" d="M454.79,569.8c0,.45,.1,.83,.3,1.15,.2,.32,.49,.6,.85,.83s.79,.45,1.3,.66c.5,.2,1.06,.41,1.68,.62,.77,.28,1.53,.59,2.29,.94,.76,.35,1.44,.79,2.05,1.31,.61,.52,1.1,1.17,1.49,1.94,.38,.77,.58,1.7,.58,2.78,0,1.15-.21,2.12-.62,2.91s-.98,1.42-1.68,1.9c-.7,.48-1.51,.83-2.43,1.04-.92,.21-1.87,.32-2.85,.32-1.41,0-2.72-.17-3.95-.51-1.23-.34-2.28-.76-3.15-1.25l.96-3.46c.81,.62,1.71,1.13,2.7,1.54s2.13,.61,3.41,.61c1.36,0,2.36-.24,2.98-.72,.62-.48,.93-1.12,.93-1.94,0-.62-.15-1.15-.45-1.58s-.67-.81-1.12-1.12c-.45-.31-.92-.56-1.42-.75-.5-.19-.95-.35-1.33-.48-.68-.21-1.38-.47-2.08-.77-.71-.3-1.36-.69-1.95-1.17-.6-.48-1.08-1.08-1.46-1.81-.37-.72-.56-1.63-.56-2.72,0-1.02,.18-1.89,.53-2.59s.83-1.27,1.44-1.71c.61-.44,1.32-.75,2.14-.94,.82-.19,1.71-.29,2.67-.29,1.17,0,2.31,.12,3.41,.35s2.02,.52,2.77,.86l-.87,3.39c-.38-.26-.8-.48-1.25-.67-.45-.19-.91-.35-1.39-.48-.48-.13-.96-.23-1.44-.3-.48-.07-.93-.11-1.36-.11-.96,0-1.72,.18-2.27,.54-.56,.36-.83,.92-.83,1.66Z"/>
      <path class="cls-1" d="M469.1,573.25h-1.82v-1.92l2.08-.32,.58-4.35h2.69v4.45h2.82v2.14h-2.82v8.45c0,.64,.06,1.07,.19,1.3,.13,.22,.37,.34,.74,.34,.28,0,.55-.05,.83-.16,.28-.11,.68-.31,1.22-.61l.58,2.53c-.41,.34-.98,.61-1.71,.82s-1.47,.3-2.19,.3c-.64,0-1.17-.08-1.58-.26s-.74-.42-.98-.75c-.24-.33-.4-.73-.48-1.2-.09-.47-.13-.99-.13-1.57v-9.18Z"/>
      <path class="cls-1" d="M485.61,570.63c1.3,0,2.42,.22,3.36,.66,.94,.44,1.71,1.02,2.32,1.76,.61,.74,1.05,1.58,1.34,2.53,.29,.95,.43,1.95,.43,2.99s-.14,2.03-.43,2.96c-.29,.93-.74,1.74-1.34,2.43-.61,.69-1.38,1.24-2.3,1.65-.93,.4-2.02,.61-3.28,.61s-2.42-.21-3.36-.64c-.94-.43-1.72-1-2.34-1.71s-1.08-1.54-1.38-2.48c-.3-.94-.45-1.93-.45-2.98s.15-2.04,.45-2.98c.3-.94,.75-1.76,1.36-2.48s1.38-1.28,2.32-1.7c.94-.42,2.04-.62,3.3-.62Zm.06,12.93c.62,0,1.16-.13,1.62-.4,.46-.27,.84-.63,1.13-1.09s.52-.99,.66-1.58,.21-1.23,.21-1.89-.08-1.34-.22-1.97c-.15-.63-.38-1.18-.69-1.66-.31-.48-.7-.86-1.17-1.15-.47-.29-1.04-.43-1.7-.43-.62,0-1.15,.13-1.6,.4-.45,.27-.82,.62-1.1,1.07-.29,.45-.5,.97-.64,1.57-.14,.6-.21,1.23-.21,1.89s.07,1.34,.21,1.97,.36,1.19,.67,1.68c.31,.49,.7,.88,1.17,1.17,.47,.29,1.02,.43,1.66,.43Z"/>
      <path class="cls-1" d="M507.98,574.76c-.24-.17-.53-.34-.88-.51-.35-.17-.73-.32-1.14-.45s-.83-.23-1.26-.3c-.44-.07-.85-.11-1.23-.11-.73,0-1.34,.13-1.84,.4s-.91,.62-1.22,1.06c-.31,.44-.53,.94-.67,1.52-.14,.58-.21,1.17-.21,1.79,0,.73,.08,1.4,.26,2.03,.17,.63,.43,1.18,.77,1.65,.34,.47,.77,.84,1.29,1.12,.52,.28,1.12,.42,1.81,.42,.77,0,1.58-.15,2.45-.46,.87-.31,1.58-.74,2.16-1.3l.64,3.01c-.6,.38-1.41,.75-2.45,1.09s-2.14,.51-3.31,.51c-1.24,0-2.32-.21-3.25-.64s-1.7-1-2.3-1.71c-.61-.71-1.07-1.55-1.38-2.5-.31-.95-.46-1.96-.46-3.02s.14-2,.43-2.93c.29-.93,.74-1.75,1.36-2.46,.62-.71,1.41-1.28,2.37-1.7s2.11-.62,3.46-.62c1.02,0,2.03,.12,3.01,.35s1.77,.54,2.37,.93l-.77,2.85Z"/>
      <path class="cls-1" d="M519.37,576.29l6.27,9.54h-3.84l-4.77-7.23-1.25,1.25v5.98h-3.52v-23.68h3.52v13.66l4.9-4.7h3.94l-5.25,5.18Z"/>
      <path class="cls-1" d="M545.54,564.55c1.66,0,3.14,.29,4.42,.86s2.36,1.36,3.23,2.35c.88,.99,1.54,2.14,1.98,3.44,.45,1.3,.67,2.67,.67,4.1s-.22,2.77-.66,4.08c-.44,1.31-1.1,2.48-1.98,3.49-.89,1.01-1.98,1.82-3.3,2.43-1.31,.61-2.84,.91-4.59,.91s-3.19-.29-4.45-.86c-1.26-.58-2.3-1.35-3.14-2.34-.83-.98-1.46-2.12-1.87-3.41s-.62-2.65-.62-4.08c0-1.51,.23-2.94,.69-4.27,.46-1.33,1.12-2.5,2-3.49,.88-.99,1.95-1.78,3.23-2.35,1.28-.58,2.74-.86,4.38-.86Zm-.16,18.53c1.17,0,2.17-.2,2.99-.59s1.5-.94,2.03-1.63,.92-1.51,1.17-2.45c.24-.94,.37-1.94,.37-3.01,0-1.15-.13-2.2-.38-3.14-.26-.94-.65-1.75-1.18-2.43-.53-.68-1.21-1.21-2.03-1.58s-1.79-.56-2.9-.56-2.1,.19-2.9,.56-1.45,.89-1.95,1.55c-.5,.66-.86,1.45-1.09,2.37-.22,.92-.34,1.93-.34,3.04,0,2.6,.53,4.57,1.6,5.89,1.07,1.32,2.6,1.98,4.61,1.98Z"/>
      <path class="cls-1" d="M567.56,570.63c1.15,0,2.14,.22,2.98,.66s1.52,1.02,2.06,1.74,.94,1.56,1.2,2.51c.26,.95,.38,1.94,.38,2.96s-.13,2.04-.4,2.98c-.27,.94-.68,1.76-1.23,2.46-.56,.7-1.25,1.26-2.08,1.66-.83,.4-1.82,.61-2.98,.61-.96,0-1.85-.14-2.67-.42-.82-.28-1.48-.72-1.97-1.34v9.7h-3.49v-23.04h2.82l.26,2.02h.13c.28-.34,.61-.67,.99-.98s.8-.58,1.25-.8c.45-.22,.91-.4,1.38-.53s.93-.19,1.38-.19Zm-.58,2.69c-.32,0-.67,.05-1.06,.14-.38,.1-.76,.24-1.14,.42-.37,.18-.73,.4-1.07,.66-.34,.26-.63,.54-.86,.86v6.24c.64,.79,1.3,1.29,1.97,1.49,.67,.2,1.29,.3,1.84,.3,.7,0,1.31-.13,1.81-.38s.92-.6,1.25-1.04c.33-.44,.58-.95,.74-1.54,.16-.59,.24-1.22,.24-1.9,0-.64-.07-1.27-.21-1.9-.14-.63-.36-1.19-.67-1.68-.31-.49-.7-.89-1.17-1.2s-1.02-.46-1.66-.46Z"/>
      <path class="cls-1" d="M578.28,573.25h-1.82v-1.92l2.08-.32,.58-4.35h2.69v4.45h2.82v2.14h-2.82v8.45c0,.64,.06,1.07,.19,1.3,.13,.22,.37,.34,.74,.34,.28,0,.55-.05,.83-.16,.28-.11,.68-.31,1.21-.61l.58,2.53c-.41,.34-.98,.61-1.71,.82-.74,.2-1.47,.3-2.19,.3-.64,0-1.17-.08-1.58-.26s-.74-.42-.98-.75c-.24-.33-.4-.73-.48-1.2-.09-.47-.13-.99-.13-1.57v-9.18Z"/>
      <path class="cls-1" d="M587.72,566.37c0-.3,.06-.59,.18-.86,.12-.28,.28-.53,.5-.75,.21-.22,.45-.4,.72-.53,.27-.13,.56-.19,.88-.19,.3,0,.59,.06,.86,.19s.53,.3,.75,.53c.22,.22,.4,.48,.53,.75,.13,.28,.19,.57,.19,.86,0,.32-.06,.61-.19,.88-.13,.27-.3,.51-.53,.72-.22,.21-.47,.38-.75,.5-.28,.12-.57,.18-.86,.18-.62,0-1.15-.22-1.6-.67-.45-.45-.67-.98-.67-1.6Zm4.03,19.46h-3.52v-14.72h3.52v14.72Z"/>
      <path class="cls-1" d="M602.73,570.63c1.3,0,2.42,.22,3.36,.66s1.71,1.02,2.32,1.76c.61,.74,1.06,1.58,1.34,2.53s.43,1.95,.43,2.99-.14,2.03-.43,2.96c-.29,.93-.74,1.74-1.34,2.43s-1.38,1.24-2.3,1.65c-.93,.4-2.02,.61-3.28,.61s-2.42-.21-3.36-.64c-.94-.43-1.72-1-2.34-1.71s-1.08-1.54-1.38-2.48c-.3-.94-.45-1.93-.45-2.98s.15-2.04,.45-2.98c.3-.94,.75-1.76,1.36-2.48,.61-.71,1.38-1.28,2.32-1.7,.94-.42,2.04-.62,3.29-.62Zm.06,12.93c.62,0,1.16-.13,1.62-.4,.46-.27,.84-.63,1.14-1.09s.52-.99,.66-1.58,.21-1.23,.21-1.89-.08-1.34-.22-1.97c-.15-.63-.38-1.18-.69-1.66-.31-.48-.7-.86-1.17-1.15-.47-.29-1.04-.43-1.7-.43-.62,0-1.15,.13-1.6,.4-.45,.27-.82,.62-1.1,1.07-.29,.45-.5,.97-.64,1.57-.14,.6-.21,1.23-.21,1.89s.07,1.34,.21,1.97,.36,1.19,.67,1.68c.31,.49,.7,.88,1.17,1.17s1.02,.43,1.66,.43Z"/>
      <path class="cls-1" d="M623.59,585.83v-9.73c0-1.75-.75-2.62-2.24-2.62-.36,0-.75,.06-1.17,.19-.42,.13-.82,.32-1.2,.56-.38,.25-.73,.55-1.04,.91-.31,.36-.54,.78-.69,1.25v9.44h-3.52v-14.72h2.75l.16,2.18h.13c.45-.9,1.15-1.56,2.1-2s1.97-.66,3.06-.66c.7,0,1.37,.09,1.98,.27,.62,.18,1.17,.47,1.65,.88s.86,.94,1.14,1.6c.28,.66,.42,1.47,.42,2.43v10.02h-3.52Z"/>
      <path class="cls-1" d="M635.72,573.25c-.7,0-1.25,.13-1.65,.4s-.59,.65-.59,1.14c0,.32,.11,.61,.34,.88,.22,.27,.7,.49,1.42,.66l2.27,.51c.9,.19,1.62,.47,2.16,.83,.54,.36,.97,.76,1.28,1.18,.31,.43,.52,.86,.62,1.31,.11,.45,.16,.86,.16,1.25,0,.68-.14,1.32-.42,1.9s-.67,1.09-1.18,1.52-1.13,.76-1.86,1.01c-.73,.25-1.54,.37-2.43,.37-1.13,0-2.18-.17-3.14-.5-.96-.33-1.73-.7-2.3-1.1l.83-3.04c.73,.7,1.54,1.23,2.45,1.57,.91,.34,1.74,.51,2.51,.51,.81,0,1.43-.18,1.86-.53,.43-.35,.64-.84,.64-1.46,0-.36-.11-.67-.32-.91-.21-.25-.64-.45-1.28-.62l-3.07-.77c-.73-.17-1.32-.42-1.78-.74-.46-.32-.82-.68-1.09-1.07-.27-.39-.45-.8-.54-1.23-.1-.43-.14-.83-.14-1.22,0-1.43,.5-2.53,1.5-3.31,1-.78,2.3-1.17,3.9-1.17,.83,0,1.73,.11,2.69,.34,.96,.22,1.77,.55,2.43,.98l-.93,2.88c-.43-.34-1.02-.69-1.79-1.04-.77-.35-1.62-.53-2.56-.53Z"/>
    </g>
    <g>
      <path class="cls-1" d="M470.46,320.47h-6.05v9.6h-3.68v-21.12h12.06v3.2h-8.38v5.12h6.05v3.2Z"/>
      <path class="cls-1" d="M478.08,315.35v9.57c0,.88,.23,1.54,.69,2,.46,.46,1.05,.69,1.78,.69s1.43-.25,2.05-.75c.62-.5,1.08-1.22,1.38-2.16v-9.34h3.55v14.72h-2.75l-.19-2.05h-.13c-.23,.49-.53,.89-.9,1.2-.36,.31-.76,.55-1.2,.74-.44,.18-.89,.31-1.36,.38-.47,.07-.93,.11-1.38,.11-.7,0-1.36-.08-1.97-.26s-1.14-.45-1.6-.85-.82-.92-1.09-1.57c-.27-.65-.4-1.46-.4-2.42v-10.02h3.52Z"/>
      <path class="cls-1" d="M492.61,317.49h-1.82v-1.92l2.08-.32,.58-4.35h2.69v4.45h2.82v2.14h-2.82v8.45c0,.64,.06,1.07,.19,1.3,.13,.22,.37,.34,.74,.34,.28,0,.55-.05,.83-.16,.28-.11,.68-.31,1.22-.61l.58,2.53c-.41,.34-.98,.61-1.71,.82s-1.47,.3-2.19,.3c-.64,0-1.17-.08-1.58-.26s-.74-.42-.98-.75c-.23-.33-.39-.73-.48-1.2-.08-.47-.13-.99-.13-1.57v-9.18Z"/>
      <path class="cls-1" d="M505.95,315.35v9.57c0,.88,.23,1.54,.69,2,.46,.46,1.05,.69,1.78,.69s1.43-.25,2.05-.75c.62-.5,1.08-1.22,1.38-2.16v-9.34h3.55v14.72h-2.75l-.19-2.05h-.13c-.23,.49-.53,.89-.9,1.2-.36,.31-.76,.55-1.2,.74-.44,.18-.89,.31-1.36,.38-.47,.07-.93,.11-1.38,.11-.7,0-1.36-.08-1.97-.26s-1.14-.45-1.6-.85-.82-.92-1.09-1.57c-.27-.65-.4-1.46-.4-2.42v-10.02h3.52Z"/>
      <path class="cls-1" d="M528.22,318.55c-.21-.17-.54-.31-.99-.42-.45-.11-.83-.16-1.15-.16-.43,0-.78,.1-1.06,.3-.28,.2-.52,.47-.74,.8-.21,.33-.4,.71-.54,1.14-.15,.43-.29,.86-.42,1.31v8.54h-3.52v-14.72h2.75l.16,3.07h.13c.21-.45,.44-.88,.67-1.31s.5-.8,.8-1.14,.64-.6,1.04-.8c.39-.2,.86-.3,1.39-.3,.85,0,1.65,.28,2.4,.83l-.93,2.85Z"/>
      <path class="cls-1" d="M538.17,314.87c1.88,0,3.33,.48,4.35,1.42,1.02,.95,1.54,2.29,1.54,4.02,0,.23-.02,.49-.05,.75-.03,.27-.07,.53-.13,.78-.05,.26-.12,.49-.19,.69-.08,.2-.16,.37-.24,.5h-9.31c.04,.64,.16,1.24,.35,1.81,.19,.57,.47,1.06,.83,1.47s.8,.75,1.33,.99c.52,.25,1.14,.37,1.84,.37,.79,0,1.63-.15,2.51-.45s1.64-.67,2.26-1.12l.58,2.62c-.28,.17-.62,.36-1.02,.56s-.86,.39-1.38,.56c-.51,.17-1.06,.31-1.65,.43-.59,.12-1.2,.18-1.84,.18-1.19,0-2.25-.21-3.17-.62s-1.69-.98-2.3-1.7c-.62-.71-1.09-1.54-1.41-2.48-.32-.94-.48-1.92-.48-2.94s.17-2.04,.5-2.99c.33-.95,.82-1.79,1.46-2.51,.64-.72,1.43-1.3,2.38-1.71s2.03-.62,3.25-.62Zm-.1,2.75c-.9,0-1.66,.26-2.29,.78-.63,.52-1.08,1.23-1.36,2.13h6.11c.02-.06,.04-.14,.05-.22s.02-.19,.02-.32c0-.68-.24-1.25-.7-1.7-.47-.45-1.08-.67-1.82-.67Z"/>
      <path class="cls-1" d="M552.13,317.49c-.7,0-1.25,.13-1.65,.4-.4,.27-.59,.65-.59,1.14,0,.32,.11,.61,.34,.88,.22,.27,.7,.49,1.42,.66l2.27,.51c.9,.19,1.62,.47,2.16,.83,.54,.36,.97,.76,1.28,1.18,.31,.43,.52,.86,.62,1.31,.11,.45,.16,.86,.16,1.25,0,.68-.14,1.32-.42,1.9-.28,.59-.67,1.09-1.18,1.52s-1.13,.76-1.86,1.01c-.72,.25-1.54,.37-2.43,.37-1.13,0-2.18-.17-3.14-.5-.96-.33-1.73-.7-2.3-1.1l.83-3.04c.72,.7,1.54,1.23,2.45,1.57,.91,.34,1.74,.51,2.51,.51,.81,0,1.43-.18,1.86-.53,.43-.35,.64-.84,.64-1.46,0-.36-.11-.67-.32-.91-.21-.25-.64-.45-1.28-.62l-3.07-.77c-.72-.17-1.32-.42-1.78-.74-.46-.32-.82-.68-1.09-1.07-.27-.39-.45-.8-.54-1.23-.1-.43-.14-.83-.14-1.22,0-1.43,.5-2.53,1.5-3.31,1-.78,2.3-1.17,3.9-1.17,.83,0,1.73,.11,2.69,.34,.96,.22,1.77,.55,2.43,.98l-.93,2.88c-.43-.34-1.02-.69-1.79-1.04-.77-.35-1.62-.53-2.56-.53Z"/>
      <path class="cls-1" d="M417.2,352.43c0,.45,.1,.83,.3,1.15s.49,.6,.85,.83c.36,.23,.79,.45,1.3,.66,.5,.2,1.06,.41,1.68,.62,.77,.28,1.53,.59,2.29,.94,.76,.35,1.44,.79,2.05,1.31,.61,.52,1.1,1.17,1.49,1.94,.38,.77,.58,1.7,.58,2.78,0,1.15-.21,2.12-.62,2.91s-.98,1.42-1.68,1.9c-.7,.48-1.51,.83-2.43,1.04-.92,.21-1.87,.32-2.85,.32-1.41,0-2.73-.17-3.95-.51-1.23-.34-2.28-.76-3.15-1.25l.96-3.46c.81,.62,1.71,1.13,2.7,1.54,.99,.41,2.13,.61,3.41,.61,1.36,0,2.36-.24,2.98-.72,.62-.48,.93-1.12,.93-1.94,0-.62-.15-1.15-.45-1.58s-.67-.81-1.12-1.12-.92-.56-1.42-.75c-.5-.19-.94-.35-1.33-.48-.68-.21-1.38-.47-2.08-.77s-1.35-.69-1.95-1.17c-.6-.48-1.08-1.08-1.46-1.81-.37-.72-.56-1.63-.56-2.72,0-1.02,.18-1.89,.53-2.59,.35-.7,.83-1.27,1.44-1.71s1.32-.75,2.14-.94c.82-.19,1.71-.29,2.67-.29,1.17,0,2.31,.12,3.41,.35,1.1,.23,2.02,.52,2.77,.86l-.86,3.39c-.38-.26-.8-.48-1.25-.67-.45-.19-.91-.35-1.39-.48s-.96-.23-1.44-.3c-.48-.07-.93-.11-1.36-.11-.96,0-1.72,.18-2.27,.54-.56,.36-.83,.92-.83,1.66Z"/>
      <path class="cls-1" d="M441.78,358.23l-3.17,10.24h-4.26l-5.34-14.72h3.68l3.84,11.3,3.49-11.3h3.52l3.49,11.3,3.84-11.3h3.62l-5.34,14.72h-4.19l-3.17-10.24Z"/>
      <path class="cls-1" d="M456.59,349.01c0-.3,.06-.59,.18-.86,.12-.28,.28-.53,.5-.75,.21-.22,.45-.4,.72-.53,.27-.13,.56-.19,.88-.19,.3,0,.59,.06,.87,.19,.28,.13,.53,.3,.75,.53,.22,.22,.4,.48,.53,.75,.13,.28,.19,.57,.19,.86,0,.32-.06,.61-.19,.88-.13,.27-.3,.51-.53,.72-.22,.21-.48,.38-.75,.5-.28,.12-.57,.18-.87,.18-.62,0-1.15-.22-1.6-.67s-.67-.98-.67-1.6Zm4.03,19.46h-3.52v-14.72h3.52v14.72Z"/>
      <path class="cls-1" d="M474.9,368.47v-9.73c0-1.75-.75-2.62-2.24-2.62-.36,0-.75,.06-1.17,.19-.42,.13-.82,.32-1.2,.56-.38,.25-.73,.55-1.04,.91-.31,.36-.54,.78-.69,1.25v9.44h-3.52v-14.72h2.75l.16,2.18h.13c.45-.9,1.15-1.56,2.1-2s1.97-.66,3.06-.66c.7,0,1.37,.09,1.98,.27,.62,.18,1.17,.47,1.65,.88s.86,.94,1.14,1.6c.28,.66,.42,1.47,.42,2.43v10.02h-3.52Z"/>
      <path class="cls-1" d="M484.5,363.83c-.96-.41-1.65-1.04-2.08-1.89-.43-.85-.64-1.78-.64-2.78,0-.83,.14-1.61,.42-2.34,.28-.72,.68-1.35,1.2-1.87,.52-.52,1.15-.93,1.89-1.23s1.57-.45,2.51-.45c.55,0,1.1,.05,1.65,.16,.54,.1,1.02,.26,1.42,.47,.9,0,1.71-.06,2.45-.18,.74-.12,1.44-.28,2.13-.48l.29,.22-.35,2.43-.16,.16-2.27-.26-.03,.1c.72,.92,1.09,2,1.09,3.23,0,.75-.13,1.45-.4,2.1-.27,.65-.66,1.22-1.17,1.7-.51,.48-1.15,.86-1.9,1.15s-1.62,.43-2.58,.43c-.23,0-.42,0-.56-.02-.14,0-.27-.02-.4-.02-.36,.13-.64,.29-.83,.5-.19,.2-.29,.41-.29,.62,0,.24,.12,.44,.35,.61,.23,.17,.6,.29,1.09,.35l3.1,.38c.7,.09,1.36,.24,1.97,.45,.61,.21,1.14,.5,1.6,.86,.46,.36,.82,.8,1.07,1.31,.26,.51,.38,1.1,.38,1.76s-.14,1.3-.42,1.92c-.28,.62-.71,1.16-1.31,1.63-.6,.47-1.35,.84-2.26,1.12s-2,.42-3.28,.42c-1.13,0-2.13-.11-2.99-.34-.86-.22-1.6-.53-2.19-.91-.6-.38-1.05-.84-1.36-1.36-.31-.52-.46-1.08-.46-1.68,0-.43,.07-.85,.22-1.26s.36-.8,.62-1.15c.27-.35,.58-.67,.93-.94s.73-.48,1.14-.61v-.13c-.49-.21-.83-.5-1.02-.86-.19-.36-.29-.71-.29-1.06,0-.45,.15-.86,.45-1.25s.73-.68,1.28-.9v-.13Zm2.43,5.34c-.73,.13-1.34,.43-1.86,.91-.51,.48-.77,1.03-.77,1.65,0,.68,.34,1.2,1.01,1.54s1.65,.51,2.93,.51,2.26-.18,3.01-.53c.75-.35,1.12-.92,1.12-1.71s-.42-1.31-1.25-1.63c-.83-.32-2.23-.57-4.19-.74Zm.99-7.14c.87,0,1.54-.28,1.98-.85,.45-.56,.67-1.25,.67-2.06,0-.38-.05-.77-.16-1.17-.11-.39-.28-.75-.51-1.07s-.53-.58-.88-.78c-.35-.2-.76-.3-1.23-.3s-.84,.09-1.18,.27c-.34,.18-.62,.42-.85,.72-.22,.3-.39,.63-.5,1.01-.11,.37-.16,.75-.16,1.14s.06,.76,.18,1.14c.12,.37,.29,.7,.53,.99,.23,.29,.53,.52,.88,.7,.35,.18,.76,.27,1.23,.27Z"/>
      <path class="cls-1" d="M519.79,350.55h-6.11v17.92h-3.68v-17.92h-6.11v-3.2h15.9v3.2Z"/>
      <path class="cls-1" d="M528.56,356.95c-.21-.17-.54-.31-.99-.42-.45-.11-.83-.16-1.15-.16-.43,0-.78,.1-1.06,.3-.28,.2-.52,.47-.74,.8-.21,.33-.4,.71-.54,1.14-.15,.43-.29,.86-.42,1.31v8.54h-3.52v-14.72h2.75l.16,3.07h.13c.21-.45,.44-.88,.67-1.31,.23-.43,.5-.8,.8-1.14s.65-.6,1.04-.8c.39-.2,.86-.3,1.39-.3,.85,0,1.65,.28,2.4,.83l-.93,2.85Z"/>
      <path class="cls-1" d="M540.91,368.47l-.26-2.02h-.13c-.58,.73-1.36,1.31-2.35,1.74-.99,.44-2,.66-3.02,.66-1.34,0-2.4-.39-3.17-1.17-.77-.78-1.15-1.81-1.15-3.09,0-.87,.19-1.66,.56-2.35s.91-1.28,1.62-1.76c.7-.48,1.55-.85,2.53-1.1,.98-.26,2.08-.38,3.29-.38h1.38v-.48c0-.83-.27-1.44-.8-1.82-.55-.38-1.42-.58-2.59-.58-1.58,0-2.99,.35-4.22,1.06l-.67-2.66c1.43-.83,3.16-1.25,5.18-1.25,2.13,0,3.75,.44,4.86,1.31,.51,.41,.93,.93,1.26,1.57,.33,.64,.5,1.41,.5,2.3v10.02h-2.82Zm-4.38-2.46c.68,0,1.36-.17,2.05-.5,.68-.33,1.23-.77,1.63-1.33v-2.91h-.61c-1.75,0-3.02,.22-3.82,.67-.8,.45-1.2,1.16-1.2,2.14,0,1.28,.65,1.92,1.95,1.92Z"/>
      <path class="cls-1" d="M553.84,368.85c-1,0-1.92-.2-2.75-.61-.83-.41-1.54-.96-2.13-1.66-.59-.7-1.04-1.54-1.36-2.5-.32-.96-.48-2-.48-3.14,0-1,.13-1.97,.4-2.9s.68-1.74,1.23-2.45,1.24-1.27,2.06-1.7c.82-.43,1.8-.64,2.93-.64,1.02,0,1.94,.17,2.75,.51,.81,.34,1.46,.82,1.95,1.44v-10.43h3.49v23.68h-2.82l-.26-2.02h-.13c-.6,.66-1.28,1.23-2.03,1.7-.76,.47-1.71,.7-2.87,.7Zm.45-2.66c.34,0,.7-.05,1.09-.14,.38-.1,.76-.23,1.13-.4,.37-.17,.73-.38,1.07-.62,.34-.24,.63-.53,.86-.85v-6.14c-.64-.79-1.29-1.33-1.95-1.62s-1.3-.43-1.92-.43c-.68,0-1.27,.13-1.76,.4-.49,.27-.9,.63-1.23,1.1-.33,.47-.58,1.01-.74,1.62-.16,.61-.24,1.24-.24,1.9s.08,1.28,.22,1.9c.15,.63,.37,1.18,.67,1.66,.3,.48,.68,.87,1.15,1.17s1.01,.45,1.63,.45Z"/>
      <path class="cls-1" d="M565.84,349.01c0-.3,.06-.59,.18-.86,.12-.28,.28-.53,.5-.75,.21-.22,.45-.4,.72-.53,.27-.13,.56-.19,.88-.19,.3,0,.59,.06,.87,.19,.28,.13,.53,.3,.75,.53,.22,.22,.4,.48,.53,.75,.13,.28,.19,.57,.19,.86,0,.32-.06,.61-.19,.88-.13,.27-.3,.51-.53,.72-.22,.21-.48,.38-.75,.5-.28,.12-.57,.18-.87,.18-.62,0-1.15-.22-1.6-.67s-.67-.98-.67-1.6Zm4.03,19.46h-3.52v-14.72h3.52v14.72Z"/>
      <path class="cls-1" d="M584.14,368.47v-9.73c0-1.75-.75-2.62-2.24-2.62-.36,0-.75,.06-1.17,.19-.42,.13-.82,.32-1.2,.56-.38,.25-.73,.55-1.04,.91-.31,.36-.54,.78-.69,1.25v9.44h-3.52v-14.72h2.75l.16,2.18h.13c.45-.9,1.15-1.56,2.1-2s1.97-.66,3.06-.66c.7,0,1.37,.09,1.98,.27,.62,.18,1.17,.47,1.65,.88s.86,.94,1.14,1.6c.28,.66,.42,1.47,.42,2.43v10.02h-3.52Z"/>
      <path class="cls-1" d="M593.74,363.83c-.96-.41-1.65-1.04-2.08-1.89-.43-.85-.64-1.78-.64-2.78,0-.83,.14-1.61,.42-2.34,.28-.72,.68-1.35,1.2-1.87,.52-.52,1.15-.93,1.89-1.23s1.57-.45,2.51-.45c.55,0,1.1,.05,1.65,.16,.54,.1,1.02,.26,1.42,.47,.9,0,1.71-.06,2.45-.18,.74-.12,1.44-.28,2.13-.48l.29,.22-.35,2.43-.16,.16-2.27-.26-.03,.1c.72,.92,1.09,2,1.09,3.23,0,.75-.13,1.45-.4,2.1-.27,.65-.66,1.22-1.17,1.7-.51,.48-1.15,.86-1.9,1.15s-1.62,.43-2.58,.43c-.23,0-.42,0-.56-.02-.14,0-.27-.02-.4-.02-.36,.13-.64,.29-.83,.5-.19,.2-.29,.41-.29,.62,0,.24,.12,.44,.35,.61,.23,.17,.6,.29,1.09,.35l3.1,.38c.7,.09,1.36,.24,1.97,.45,.61,.21,1.14,.5,1.6,.86,.46,.36,.82,.8,1.07,1.31,.26,.51,.38,1.1,.38,1.76s-.14,1.3-.42,1.92c-.28,.62-.71,1.16-1.31,1.63-.6,.47-1.35,.84-2.26,1.12s-2,.42-3.28,.42c-1.13,0-2.13-.11-2.99-.34-.86-.22-1.6-.53-2.19-.91-.6-.38-1.05-.84-1.36-1.36-.31-.52-.46-1.08-.46-1.68,0-.43,.07-.85,.22-1.26s.36-.8,.62-1.15c.27-.35,.58-.67,.93-.94s.73-.48,1.14-.61v-.13c-.49-.21-.83-.5-1.02-.86-.19-.36-.29-.71-.29-1.06,0-.45,.15-.86,.45-1.25s.73-.68,1.28-.9v-.13Zm2.43,5.34c-.73,.13-1.34,.43-1.86,.91-.51,.48-.77,1.03-.77,1.65,0,.68,.34,1.2,1.01,1.54s1.65,.51,2.93,.51,2.26-.18,3.01-.53c.75-.35,1.12-.92,1.12-1.71s-.42-1.31-1.25-1.63c-.83-.32-2.23-.57-4.19-.74Zm.99-7.14c.87,0,1.54-.28,1.98-.85,.45-.56,.67-1.25,.67-2.06,0-.38-.05-.77-.16-1.17-.11-.39-.28-.75-.51-1.07s-.53-.58-.88-.78c-.35-.2-.76-.3-1.23-.3s-.84,.09-1.18,.27c-.34,.18-.62,.42-.85,.72-.22,.3-.39,.63-.5,1.01-.11,.37-.16,.75-.16,1.14s.06,.76,.18,1.14c.12,.37,.29,.7,.53,.99,.23,.29,.53,.52,.88,.7,.35,.18,.76,.27,1.23,.27Z"/>
    </g>
    <g>
      <path class="cls-1" d="M471.22,123.25h-6.05v9.6h-3.68v-21.12h12.06v3.2h-8.38v5.12h6.05v3.2Z"/>
      <path class="cls-1" d="M478.83,118.13v9.57c0,.88,.23,1.54,.69,2,.46,.46,1.05,.69,1.78,.69s1.43-.25,2.05-.75c.62-.5,1.08-1.22,1.38-2.16v-9.34h3.55v14.72h-2.75l-.19-2.05h-.13c-.24,.49-.53,.89-.9,1.2-.36,.31-.76,.55-1.2,.74-.44,.18-.89,.31-1.36,.38-.47,.07-.93,.11-1.38,.11-.71,0-1.36-.08-1.97-.26s-1.14-.45-1.6-.85c-.46-.39-.82-.92-1.09-1.57-.27-.65-.4-1.46-.4-2.42v-10.02h3.52Z"/>
      <path class="cls-1" d="M493.36,120.28h-1.82v-1.92l2.08-.32,.58-4.35h2.69v4.45h2.82v2.14h-2.82v8.45c0,.64,.06,1.07,.19,1.3,.13,.22,.37,.34,.74,.34,.28,0,.55-.05,.83-.16,.28-.11,.68-.31,1.21-.61l.58,2.53c-.41,.34-.98,.61-1.71,.82-.74,.2-1.47,.3-2.19,.3-.64,0-1.17-.08-1.58-.26s-.74-.42-.98-.75c-.24-.33-.4-.73-.48-1.2-.09-.47-.13-.99-.13-1.57v-9.18Z"/>
      <path class="cls-1" d="M506.7,118.13v9.57c0,.88,.23,1.54,.69,2,.46,.46,1.05,.69,1.78,.69s1.43-.25,2.05-.75c.62-.5,1.08-1.22,1.38-2.16v-9.34h3.55v14.72h-2.75l-.19-2.05h-.13c-.24,.49-.53,.89-.9,1.2-.36,.31-.76,.55-1.2,.74-.44,.18-.89,.31-1.36,.38-.47,.07-.93,.11-1.38,.11-.71,0-1.36-.08-1.97-.26s-1.14-.45-1.6-.85c-.46-.39-.82-.92-1.09-1.57-.27-.65-.4-1.46-.4-2.42v-10.02h3.52Z"/>
      <path class="cls-1" d="M528.97,121.33c-.21-.17-.54-.31-.99-.42-.45-.11-.83-.16-1.15-.16-.43,0-.78,.1-1.06,.3-.28,.2-.52,.47-.74,.8-.21,.33-.39,.71-.54,1.14-.15,.43-.29,.86-.42,1.31v8.54h-3.52v-14.72h2.75l.16,3.07h.13c.21-.45,.44-.88,.67-1.31,.23-.43,.5-.8,.8-1.14,.3-.33,.65-.6,1.04-.8,.39-.2,.86-.3,1.39-.3,.85,0,1.65,.28,2.4,.83l-.93,2.85Z"/>
      <path class="cls-1" d="M538.93,117.65c1.88,0,3.33,.48,4.35,1.42,1.02,.95,1.54,2.29,1.54,4.02,0,.23-.02,.49-.05,.75-.03,.27-.08,.53-.13,.78-.05,.26-.12,.49-.19,.69-.08,.2-.15,.37-.24,.5h-9.31c.04,.64,.16,1.24,.35,1.81,.19,.57,.47,1.06,.83,1.47s.81,.75,1.33,.99,1.14,.37,1.84,.37c.79,0,1.63-.15,2.51-.45,.88-.3,1.64-.67,2.26-1.12l.58,2.62c-.28,.17-.62,.36-1.02,.56-.41,.2-.86,.39-1.38,.56s-1.06,.31-1.65,.43-1.2,.18-1.84,.18c-1.2,0-2.25-.21-3.17-.62-.92-.42-1.69-.98-2.3-1.7-.62-.71-1.09-1.54-1.41-2.48-.32-.94-.48-1.92-.48-2.94s.16-2.04,.5-2.99c.33-.95,.82-1.79,1.46-2.51,.64-.72,1.44-1.3,2.38-1.71s2.03-.62,3.25-.62Zm-.1,2.75c-.9,0-1.66,.26-2.29,.78-.63,.52-1.08,1.23-1.36,2.13h6.11c.02-.06,.04-.14,.05-.22,0-.08,.02-.19,.02-.32,0-.68-.24-1.25-.7-1.7-.47-.45-1.08-.67-1.82-.67Z"/>
      <path class="cls-1" d="M552.88,120.28c-.7,0-1.25,.13-1.65,.4s-.59,.65-.59,1.14c0,.32,.11,.61,.34,.88,.22,.27,.7,.49,1.42,.66l2.27,.51c.9,.19,1.62,.47,2.16,.83,.54,.36,.97,.76,1.28,1.18,.31,.43,.52,.86,.62,1.31,.11,.45,.16,.86,.16,1.25,0,.68-.14,1.32-.42,1.9s-.67,1.09-1.18,1.52-1.13,.76-1.86,1.01c-.73,.25-1.54,.37-2.43,.37-1.13,0-2.18-.17-3.14-.5-.96-.33-1.73-.7-2.3-1.1l.83-3.04c.73,.7,1.54,1.23,2.45,1.57,.91,.34,1.74,.51,2.51,.51,.81,0,1.43-.18,1.86-.53,.43-.35,.64-.84,.64-1.46,0-.36-.11-.67-.32-.91-.21-.25-.64-.45-1.28-.62l-3.07-.77c-.73-.17-1.32-.42-1.78-.74-.46-.32-.82-.68-1.09-1.07-.27-.39-.45-.8-.54-1.23-.1-.43-.14-.83-.14-1.22,0-1.43,.5-2.53,1.5-3.31,1-.78,2.3-1.17,3.9-1.17,.83,0,1.73,.11,2.69,.34,.96,.22,1.77,.55,2.43,.98l-.93,2.88c-.43-.34-1.02-.69-1.79-1.04-.77-.35-1.62-.53-2.56-.53Z"/>
      <path class="cls-1" d="M430.51,150.15c.28-.08,.71-.11,1.31-.11h5.22c2.07,0,3.77,.21,5.1,.64,1.33,.42,2.44,1,3.31,1.75,1.13,.97,1.95,2.21,2.46,3.72,.51,1.5,.77,3.17,.77,4.99,0,1.38-.18,2.7-.53,3.96s-.98,2.37-1.89,3.32c-.91,.95-2.16,1.71-3.74,2.27-1.59,.56-3.62,.84-6.1,.84h-2.88c-1.02,0-2.04-.08-3.04-.26v-21.1Zm6.82,18.38c2.58,0,4.46-.62,5.65-1.85,1.18-1.23,1.78-3.24,1.78-6.02,0-1.25-.12-2.35-.37-3.3-.25-.95-.67-1.74-1.26-2.37-.6-.64-1.4-1.12-2.4-1.43-1-.32-2.25-.48-3.74-.48h-2.78v15.36c.6,.06,1.17,.09,1.73,.09h1.41Z"/>
      <path class="cls-1" d="M461.17,171.25l-.26-2.02h-.13c-.58,.73-1.36,1.31-2.35,1.74-.99,.44-2,.66-3.02,.66-1.34,0-2.4-.39-3.17-1.17-.77-.78-1.15-1.81-1.15-3.09,0-.87,.19-1.66,.56-2.35,.37-.69,.91-1.28,1.62-1.76,.7-.48,1.55-.85,2.53-1.1s2.08-.38,3.3-.38h1.38v-.48c0-.83-.27-1.44-.8-1.82-.55-.38-1.42-.58-2.59-.58-1.58,0-2.99,.35-4.22,1.06l-.67-2.66c1.43-.83,3.16-1.25,5.18-1.25,2.13,0,3.75,.44,4.87,1.31,.51,.41,.93,.93,1.26,1.57,.33,.64,.5,1.41,.5,2.3v10.02h-2.82Zm-4.38-2.46c.68,0,1.36-.17,2.05-.5,.68-.33,1.23-.77,1.63-1.33v-2.91h-.61c-1.75,0-3.02,.22-3.82,.67-.8,.45-1.2,1.16-1.2,2.14,0,1.28,.65,1.92,1.95,1.92Z"/>
      <path class="cls-1" d="M474.45,167l4.1-10.46h3.39l-6.08,14.85c-.3,.75-.71,1.58-1.23,2.51-.52,.93-1.14,1.8-1.86,2.62s-1.52,1.51-2.42,2.08c-.9,.57-1.87,.85-2.91,.85-.17,0-.3,0-.38-.02-.09-.01-.18-.04-.29-.08l-.61-2.75c.06,.02,.14,.04,.22,.06,.08,.02,.27,.03,.54,.03,.41,0,.8-.04,1.2-.13,.39-.08,.79-.26,1.2-.51,.77-.49,1.43-1.17,2-2.05,.56-.88,1.11-1.95,1.65-3.23l-7.33-14.24h3.68l5.12,10.46Z"/>
      <path class="cls-1" d="M505.3,153.33h-6.11v17.92h-3.68v-17.92h-6.11v-3.2h15.9v3.2Z"/>
      <path class="cls-1" d="M514.06,159.73c-.21-.17-.54-.31-.99-.42-.45-.11-.83-.16-1.15-.16-.43,0-.78,.1-1.06,.3-.28,.2-.52,.47-.74,.8-.21,.33-.4,.71-.54,1.14-.15,.43-.29,.86-.42,1.31v8.54h-3.52v-14.72h2.75l.16,3.07h.13c.21-.45,.44-.88,.67-1.31s.5-.8,.8-1.14,.64-.6,1.04-.8c.39-.2,.86-.3,1.39-.3,.85,0,1.65,.28,2.4,.83l-.93,2.85Z"/>
      <path class="cls-1" d="M526.41,171.25l-.26-2.02h-.13c-.58,.73-1.36,1.31-2.35,1.74-.99,.44-2,.66-3.02,.66-1.34,0-2.4-.39-3.17-1.17-.77-.78-1.15-1.81-1.15-3.09,0-.87,.19-1.66,.56-2.35,.37-.69,.91-1.28,1.62-1.76,.7-.48,1.55-.85,2.53-1.1s2.08-.38,3.3-.38h1.38v-.48c0-.83-.27-1.44-.8-1.82-.55-.38-1.42-.58-2.59-.58-1.58,0-2.99,.35-4.22,1.06l-.67-2.66c1.43-.83,3.16-1.25,5.18-1.25,2.13,0,3.75,.44,4.87,1.31,.51,.41,.93,.93,1.26,1.57,.33,.64,.5,1.41,.5,2.3v10.02h-2.82Zm-4.38-2.46c.68,0,1.36-.17,2.05-.5,.68-.33,1.23-.77,1.63-1.33v-2.91h-.61c-1.75,0-3.02,.22-3.82,.67-.8,.45-1.2,1.16-1.2,2.14,0,1.28,.65,1.92,1.95,1.92Z"/>
      <path class="cls-1" d="M539.34,171.64c-1,0-1.92-.2-2.75-.61-.83-.41-1.54-.96-2.13-1.66s-1.04-1.54-1.36-2.5-.48-2-.48-3.14c0-1,.13-1.97,.4-2.9,.27-.93,.68-1.74,1.23-2.45s1.24-1.27,2.06-1.7c.82-.43,1.8-.64,2.93-.64,1.02,0,1.94,.17,2.75,.51,.81,.34,1.46,.82,1.95,1.44v-10.43h3.49v23.68h-2.82l-.26-2.02h-.13c-.6,.66-1.28,1.23-2.03,1.7-.76,.47-1.71,.7-2.86,.7Zm.45-2.66c.34,0,.7-.05,1.09-.14s.76-.23,1.14-.4c.37-.17,.73-.38,1.07-.62,.34-.24,.63-.53,.86-.85v-6.14c-.64-.79-1.29-1.33-1.95-1.62-.66-.29-1.3-.43-1.92-.43-.68,0-1.27,.13-1.76,.4-.49,.27-.9,.63-1.23,1.1-.33,.47-.58,1.01-.74,1.62-.16,.61-.24,1.24-.24,1.9s.08,1.28,.22,1.9c.15,.63,.37,1.18,.67,1.66,.3,.48,.68,.87,1.15,1.17,.47,.3,1.01,.45,1.63,.45Z"/>
      <path class="cls-1" d="M551.34,151.8c0-.3,.06-.59,.18-.86,.12-.28,.28-.53,.5-.75,.21-.22,.45-.4,.72-.53s.56-.19,.88-.19c.3,0,.59,.06,.86,.19,.28,.13,.53,.3,.75,.53,.22,.22,.4,.48,.53,.75,.13,.28,.19,.57,.19,.86,0,.32-.06,.61-.19,.88-.13,.27-.3,.51-.53,.72-.22,.21-.48,.38-.75,.5-.28,.12-.57,.18-.86,.18-.62,0-1.15-.22-1.6-.67-.45-.45-.67-.98-.67-1.6Zm4.03,19.46h-3.52v-14.72h3.52v14.72Z"/>
      <path class="cls-1" d="M569.65,171.25v-9.73c0-1.75-.75-2.62-2.24-2.62-.36,0-.75,.06-1.17,.19-.42,.13-.82,.32-1.2,.56-.38,.25-.73,.55-1.04,.91-.31,.36-.54,.78-.69,1.25v9.44h-3.52v-14.72h2.75l.16,2.18h.13c.45-.9,1.15-1.56,2.1-2,.95-.44,1.97-.66,3.05-.66,.71,0,1.37,.09,1.98,.27s1.17,.47,1.65,.88,.86,.94,1.14,1.6c.28,.66,.42,1.47,.42,2.43v10.02h-3.52Z"/>
      <path class="cls-1" d="M579.25,166.61c-.96-.41-1.65-1.04-2.08-1.89-.43-.85-.64-1.78-.64-2.78,0-.83,.14-1.61,.42-2.34,.28-.72,.68-1.35,1.2-1.87s1.15-.93,1.89-1.23,1.57-.45,2.51-.45c.55,0,1.1,.05,1.65,.16,.54,.1,1.02,.26,1.42,.47,.9,0,1.71-.06,2.45-.18,.74-.12,1.45-.28,2.13-.48l.29,.22-.35,2.43-.16,.16-2.27-.26-.03,.1c.72,.92,1.09,2,1.09,3.23,0,.75-.13,1.45-.4,2.1-.27,.65-.66,1.22-1.17,1.7-.51,.48-1.15,.86-1.9,1.15-.76,.29-1.62,.43-2.58,.43-.24,0-.42,0-.56-.02-.14,0-.27-.02-.4-.02-.36,.13-.64,.29-.83,.5-.19,.2-.29,.41-.29,.62,0,.24,.12,.44,.35,.61,.23,.17,.6,.29,1.09,.35l3.1,.38c.7,.09,1.36,.24,1.97,.45,.61,.21,1.14,.5,1.6,.86,.46,.36,.82,.8,1.07,1.31s.38,1.1,.38,1.76-.14,1.3-.42,1.92c-.28,.62-.71,1.16-1.31,1.63-.6,.47-1.35,.84-2.26,1.12-.91,.28-2,.42-3.28,.42-1.13,0-2.13-.11-2.99-.34-.87-.22-1.6-.53-2.19-.91-.6-.38-1.05-.84-1.36-1.36-.31-.52-.46-1.08-.46-1.68,0-.43,.08-.85,.22-1.26,.15-.42,.36-.8,.62-1.15,.27-.35,.58-.67,.93-.94,.35-.28,.73-.48,1.14-.61v-.13c-.49-.21-.83-.5-1.02-.86-.19-.36-.29-.71-.29-1.06,0-.45,.15-.86,.45-1.25s.72-.68,1.28-.9v-.13Zm2.43,5.34c-.73,.13-1.34,.43-1.86,.91-.51,.48-.77,1.03-.77,1.65,0,.68,.34,1.2,1.01,1.54s1.65,.51,2.93,.51,2.26-.18,3.01-.53c.75-.35,1.12-.92,1.12-1.71s-.42-1.31-1.25-1.63c-.83-.32-2.23-.57-4.19-.74Zm.99-7.14c.87,0,1.54-.28,1.98-.85,.45-.56,.67-1.25,.67-2.06,0-.38-.05-.77-.16-1.17s-.28-.75-.51-1.07c-.23-.32-.53-.58-.88-.78-.35-.2-.76-.3-1.23-.3s-.84,.09-1.18,.27c-.34,.18-.62,.42-.85,.72s-.39,.63-.5,1.01c-.11,.37-.16,.75-.16,1.14s.06,.76,.18,1.14c.12,.37,.29,.7,.53,.99s.53,.52,.88,.7c.35,.18,.76,.27,1.23,.27Z"/>
    </g>
    <line class="cls-2" x1="379.93" y1="224.85" x2="637.29" y2="224.85"/>
    <line class="cls-2" x1="254.3" y1="449.85" x2="769.03" y2="449.85"/>
    <line class="cls-2" x1="125.63" y1="674.85" x2="896.18" y2="674.85"/>
  </g>
</svg>