<?xml version="1.0" encoding="UTF-8"?>
<svg id="Ebene_2" data-name="Ebene 2" xmlns="http://www.w3.org/2000/svg" viewBox="0 0 505 505">
  <defs>
    <style>
      .cls-1 {
        fill: #fff;
      }

      .cls-2 {
        fill: #ff6b35;
      }
    </style>
  </defs>
  <g id="Ebene_2-2" data-name="Ebene 2">
    <circle class="cls-2" cx="252.5" cy="252.5" r="252.5"/>
    <g id="Ebene_1-2" data-name="Ebene 1-2">
      <path class="cls-1" d="M313.92,320.54c.04-14.39,.11-28.81,0-43.2-.04-3.07,.8-5.42,2.68-7.81,10.59-13.52,21.08-27.15,31.56-40.74,.9-1.16,1.77-2.39,3.04-4.09h-37.09c-.11-.76-.18-1.27-.18-1.77,0-15.22,0-30.48,.11-45.66,0-1.19,.61-2.57,1.37-3.54,11.06-14.46,22.23-28.81,33.37-43.24,.69-.9,1.37-1.88,2.42-3.4h-37.02v-25.85h-123.54v26.07h-36.95c.98,1.34,1.63,2.21,2.28,3.11,11.14,14.46,22.31,28.81,33.33,43.31,.87,1.12,1.41,2.75,1.45,4.16,.11,11.5,.11,23.07,.11,34.56v12.51h-37.09c.61,.87,.98,1.37,1.34,1.88,11.24,14.57,22.56,29.14,33.77,43.75,.94,1.23,1.88,2.86,1.88,4.3,.14,12.15,.11,24.29,.11,36.44v12.51h-37.09c.72,1.08,1.12,1.77,1.63,2.39,11.32,14.64,22.67,29.28,33.91,44,.87,1.12,1.41,2.75,1.45,4.16,.11,8.64,.07,17.32,.07,25.92v7.41h36.26v9.91h50.65v-9.98h36.01c.07-1.16,.18-2.1,.18-2.96,.04-9.98-.04-19.96,.11-29.97,.04-1.59,.61-3.43,1.63-4.7,10.92-14.28,21.95-28.52,33.01-42.77,.8-1.01,1.48-2.06,2.64-3.65h-37.38v-3.04h0Zm-61.64,76.83c-21.08,0-38.18-17.17-38.18-38.29s17.17-38.21,38.32-38.25c21.04-.04,38.39,17.25,38.32,38.18-.07,21.29-17.17,38.36-38.47,38.36h0Zm38.36-135.18c-1.37,21.37-19.34,37.71-40.02,36.33-21.87-1.41-38.07-19.34-36.44-40.78,1.63-21.76,20.25-37.2,41.65-35.54,19.88,1.63,36.12,19.96,34.82,39.99h0Zm-38.29-51.45c-27.51,0-49.93-22.45-49.82-49.82,.14-27.33,22.49-49.67,49.71-49.75,27.37-.07,49.93,22.42,49.96,49.82,.11,27.4-22.31,49.75-49.86,49.75h0Zm.04-88.14c-22.81,.11-38.47,19.2-38.47,38.79,0,20.93,17.03,39.12,38.94,38.9,20.64-.18,37.42-17.17,38-37.67,.58-21.69-16.52-39.95-38.47-40.02h0Z"/>
    </g>
  </g>
</svg>