<?xml version="1.0" encoding="UTF-8"?>
<svg id="Ebene_2" data-name="Ebene 2" xmlns="http://www.w3.org/2000/svg" viewBox="0 0 546.6 875.1">
  <defs>
    <style>
      .cls-1 {
        fill: #ff6b35;
      }
    </style>
  </defs>
  <g id="Ebene_1-2" data-name="Ebene 1">
    <path class="cls-1" d="M443.2,606.6c.1-39.8,.3-79.7,0-119.5-.1-8.5,2.2-15,7.4-21.6,29.3-37.4,58.3-75.1,87.3-112.7,2.5-3.2,4.9-6.6,8.4-11.3h-102.6c-.3-2.1-.5-3.5-.5-4.9,0-42.1,0-84.3,.3-126.3,0-3.3,1.7-7.1,3.8-9.8,30.6-40,61.5-79.7,92.3-119.6,1.9-2.5,3.8-5.2,6.7-9.4h-102.4V0H102.2V72.1H0c2.7,3.7,4.5,6.1,6.3,8.6,30.8,40,61.7,79.7,92.2,119.8,2.4,3.1,3.9,7.6,4,11.5,.3,31.8,.3,63.8,.3,95.6v34.6H.2c1.7,2.4,2.7,3.8,3.7,5.2,31.1,40.3,62.4,80.6,93.4,121,2.6,3.4,5.2,7.9,5.2,11.9,.4,33.6,.3,67.2,.3,100.8v34.6H.2c2,3,3.1,4.9,4.5,6.6,31.3,40.5,62.7,81,93.8,121.7,2.4,3.1,3.9,7.6,4,11.5,.3,23.9,.2,47.9,.2,71.7v20.5h100.3v27.4h140.1v-27.6h99.6c.2-3.2,.5-5.8,.5-8.2,.1-27.6-.1-55.2,.3-82.9,.1-4.4,1.7-9.5,4.5-13,30.2-39.5,60.7-78.9,91.3-118.3,2.2-2.8,4.1-5.7,7.3-10.1h-103.4v-8.4h0Zm-170.5,212.5c-58.3,0-105.6-47.5-105.6-105.9s47.5-105.7,106-105.8c58.2-.1,106.2,47.7,106,105.6-.2,58.9-47.5,106.1-106.4,106.1h0Zm106.1-373.9c-3.8,59.1-53.5,104.3-110.7,100.5-60.5-3.9-105.3-53.5-100.8-112.8,4.5-60.2,56-102.9,115.2-98.3,55,4.5,99.9,55.2,96.3,110.6Zm-105.9-142.3c-76.1,0-138.1-62.1-137.8-137.8,.4-75.6,62.2-137.4,137.5-137.6,75.7-.2,138.1,62,138.2,137.8,.3,75.8-61.7,137.6-137.9,137.6Zm.1-243.8c-63.1,.3-106.4,53.1-106.4,107.3,0,57.9,47.1,108.2,107.7,107.6,57.1-.5,103.5-47.5,105.1-104.2,1.6-60-45.7-110.5-106.4-110.7h0Z"/>
  </g>
</svg>