<?xml version="1.0" encoding="UTF-8"?>
<svg id="Ebene_2" data-name="Ebene 2" xmlns="http://www.w3.org/2000/svg" viewBox="0 0 1200 790">
  <defs>
    <style>
      .cls-1, .cls-2, .cls-3 {
        fill: #fff;
      }

      .cls-2 {
        opacity: .9;
      }

      .cls-4, .cls-5, .cls-6, .cls-7, .cls-8 {
        fill: #253c78;
      }

      .cls-5 {
        stroke: #253c78;
      }

      .cls-5, .cls-3, .cls-9 {
        stroke-linecap: round;
        stroke-linejoin: round;
      }

      .cls-5, .cls-7 {
        stroke-width: 6px;
      }

      .cls-10, .cls-3, .cls-11, .cls-6, .cls-7 {
        stroke: #fff;
      }

      .cls-10, .cls-11, .cls-6 {
        stroke-width: 3px;
      }

      .cls-10, .cls-11, .cls-6, .cls-7, .cls-8 {
        stroke-miterlimit: 10;
      }

      .cls-10, .cls-12, .cls-9 {
        fill: none;
      }

      .cls-3 {
        stroke-width: 9px;
      }

      .cls-11 {
        fill: #242c58;
      }

      .cls-13 {
        fill: #ff6b35;
      }

      .cls-14 {
        fill: #7792d6;
      }

      .cls-9 {
        stroke: #000;
        stroke-width: 2px;
      }

      .cls-8 {
        stroke: #242c58;
        stroke-width: .25px;
      }
    </style>
  </defs>
  <g id="Ebene_1-2" data-name="Ebene 1">
    <rect class="cls-4" width="1200" height="790"/>
    <g>
      <path class="cls-6" d="M811.56,700.53c-82.62,0-160.3-32.18-218.73-90.6-58.42-58.42-90.6-136.1-90.6-218.73s32.18-160.3,90.6-218.73c58.42-58.42,136.1-90.6,218.73-90.6s160.3,32.18,218.73,90.6c58.42,58.42,90.6,136.1,90.6,218.73s-32.18,160.3-90.6,218.73c-58.42,58.42-136.1,90.6-218.73,90.6Z"/>
      <path class="cls-6" d="M811.56,732.05c-91.04,0-176.64-35.45-241.01-99.83-64.38-64.38-99.83-149.97-99.83-241.01s35.45-176.64,99.83-241.01c64.38-64.38,149.97-99.83,241.01-99.83s176.64,35.45,241.01,99.83c64.38,64.38,99.83,149.97,99.83,241.01s-35.45,176.64-99.83,241.01c-64.38,64.38-149.97,99.83-241.01,99.83Z"/>
      <circle class="cls-7" cx="811.56" cy="391.2" r="277.81"/>
      <path class="cls-11" d="M811.56,753.06c-96.66,0-187.53-37.64-255.87-105.99-68.35-68.35-105.99-159.22-105.99-255.87s37.64-187.53,105.99-255.87c68.35-68.35,159.22-105.99,255.87-105.99s187.53,37.64,255.87,105.99c68.35,68.35,105.98,159.22,105.98,255.87s-37.64,187.53-105.98,255.87c-68.35,68.35-159.22,105.99-255.87,105.99Z"/>
      <g>
        <path class="cls-1" d="M805,81.83h-4.35v-18.38l-3.06,1.36-.83-3.78,8.25-4.16v24.96Z"/>
        <path class="cls-1" d="M810.22,58.64c.48-.25,1.03-.5,1.65-.74,.62-.24,1.26-.45,1.93-.64,.67-.19,1.34-.33,2.02-.44,.68-.1,1.35-.15,2-.15,1.06,0,2.04,.15,2.95,.44,.91,.29,1.68,.71,2.33,1.25,.64,.54,1.15,1.2,1.51,1.97,.37,.77,.55,1.62,.55,2.55,0,1.29-.32,2.57-.96,3.84-.64,1.27-1.45,2.55-2.42,3.82-.97,1.27-2.04,2.53-3.2,3.78-1.16,1.25-2.24,2.49-3.25,3.73h10.1v3.78h-15.32v-3.78c.98-1.34,2.1-2.65,3.35-3.95s2.42-2.57,3.52-3.8c1.1-1.24,2.02-2.45,2.78-3.63,.76-1.19,1.13-2.35,1.13-3.48s-.35-1.85-1.06-2.31c-.71-.45-1.63-.68-2.76-.68s-2.15,.17-3.2,.51c-1.05,.34-1.97,.74-2.78,1.19l-.87-3.25Z"/>
      </g>
      <path class="cls-1" d="M809.26,715.83c.43-.91,1.09-1.58,1.99-2,.89-.43,1.95-.64,3.16-.64,1.44,0,2.62,.26,3.56,.79,.93,.53,1.68,1.19,2.23,1.97,.55,.78,.94,1.62,1.15,2.51,.21,.9,.32,1.72,.32,2.48,0,.91-.15,1.83-.44,2.76-.29,.93-.76,1.78-1.4,2.53-.64,.76-1.48,1.38-2.52,1.85-1.03,.48-2.28,.72-3.74,.72-1.56,0-2.88-.28-3.95-.85-1.07-.57-1.94-1.37-2.61-2.4-.67-1.03-1.15-2.28-1.46-3.73-.3-1.45-.45-3.06-.45-4.82s.14-3.4,.44-5.05c.29-1.65,.79-3.12,1.51-4.41,.72-1.29,1.68-2.33,2.87-3.12,1.2-.79,2.69-1.19,4.48-1.19,.45,0,.96,.03,1.51,.09,.55,.06,1.12,.17,1.68,.32,.57,.15,1.12,.35,1.65,.61,.53,.25,.98,.57,1.36,.95l-.95,3.33c-.83-.63-1.72-1.07-2.65-1.32-.93-.25-1.75-.38-2.46-.38-1.06,0-1.94,.23-2.65,.7-.71,.47-1.27,1.08-1.68,1.83-.42,.76-.71,1.6-.87,2.53-.16,.93-.25,1.87-.25,2.8v.55c0,.16,.01,.35,.04,.55l.11,.04Zm7.94,4.96c0-.53-.05-1.05-.15-1.55-.1-.5-.28-.95-.55-1.34-.26-.39-.62-.7-1.06-.93-.44-.23-.99-.34-1.65-.34-1.29,0-2.25,.42-2.89,1.25s-.96,1.89-.96,3.18,.33,2.36,.98,3.14c.66,.78,1.55,1.17,2.69,1.17s2.02-.4,2.65-1.21c.63-.81,.95-1.93,.95-3.37Z"/>
      <path class="cls-1" d="M493.84,392.97c-.43,.91-1.09,1.58-1.99,2-.9,.43-1.95,.64-3.16,.64-1.44,0-2.62-.27-3.56-.79-.93-.53-1.68-1.19-2.23-1.97-.56-.78-.94-1.62-1.15-2.52-.21-.89-.32-1.72-.32-2.48,0-.91,.14-1.83,.43-2.76,.29-.93,.76-1.78,1.4-2.53,.64-.76,1.48-1.37,2.5-1.85,1.02-.48,2.27-.72,3.76-.72,1.56,0,2.88,.28,3.95,.85,1.07,.57,1.94,1.37,2.61,2.4,.67,1.03,1.15,2.28,1.46,3.73,.3,1.45,.45,3.06,.45,4.82s-.15,3.4-.44,5.05c-.29,1.65-.79,3.12-1.51,4.41-.72,1.29-1.68,2.33-2.87,3.12-1.2,.79-2.69,1.19-4.48,1.19-.45,0-.96-.03-1.51-.09-.56-.06-1.12-.17-1.68-.32-.57-.15-1.12-.35-1.65-.6-.53-.25-.98-.57-1.36-.95l.95-3.33c.83,.63,1.71,1.07,2.65,1.32,.93,.25,1.75,.38,2.46,.38,1.06,0,1.94-.23,2.63-.7,.69-.47,1.25-1.08,1.66-1.83s.71-1.6,.89-2.53c.18-.93,.26-1.87,.26-2.8v-.55c0-.16-.01-.35-.04-.55l-.11-.04Zm-7.94-4.95c0,.53,.05,1.05,.15,1.55,.1,.5,.28,.95,.55,1.34,.26,.39,.62,.7,1.06,.93,.44,.23,.99,.34,1.65,.34,1.29,0,2.25-.42,2.89-1.25s.96-1.89,.96-3.18-.33-2.36-.98-3.14c-.66-.78-1.55-1.17-2.69-1.17s-2.02,.4-2.65,1.21c-.63,.81-.95,1.93-.95,3.37Z"/>
      <line class="cls-10" x1="813.17" y1="97.95" x2="813.17" y2="129.47"/>
      <path class="cls-1" d="M975.84,122.72h-4.35v-18.38l-3.06,1.36-.83-3.78,8.25-4.16v24.96Z"/>
      <path class="cls-1" d="M1081.74,216.01c.48-.25,1.03-.5,1.65-.74,.62-.24,1.26-.45,1.93-.64s1.34-.33,2.02-.44c.68-.1,1.35-.15,2-.15,1.06,0,2.04,.15,2.95,.44,.91,.29,1.68,.71,2.33,1.25,.64,.54,1.15,1.2,1.51,1.97,.37,.77,.55,1.62,.55,2.55,0,1.29-.32,2.57-.96,3.84-.64,1.27-1.45,2.55-2.42,3.82-.97,1.27-2.04,2.53-3.2,3.78-1.16,1.25-2.25,2.49-3.25,3.73h10.1v3.78h-15.32v-3.78c.98-1.34,2.1-2.65,3.35-3.95s2.42-2.57,3.52-3.8c1.1-1.24,2.02-2.45,2.78-3.63,.76-1.19,1.13-2.35,1.13-3.48s-.35-1.85-1.06-2.31c-.71-.45-1.63-.68-2.76-.68s-2.15,.17-3.2,.51c-1.05,.34-1.97,.74-2.78,1.19l-.87-3.25Z"/>
      <path class="cls-1" d="M1098.53,554.76h-2.61v7.19h-4.35v-7.19h-10.74v-3.4l10.55-14.37h4.54v14.37h2.61v3.4Zm-6.96-3.4v-9.15l-6.47,9.15h6.47Z"/>
      <path class="cls-1" d="M969.33,671.58l1.48-13.73h12.82v3.97h-9.3l-.57,5.98c.53-.15,1.08-.26,1.66-.32,.58-.06,1.11-.09,1.59-.09,1.16,0,2.22,.17,3.18,.51,.96,.34,1.79,.84,2.5,1.49,.71,.66,1.25,1.46,1.65,2.4,.39,.95,.59,2.02,.59,3.23s-.19,2.25-.57,3.27-.95,1.92-1.72,2.69-1.73,1.38-2.89,1.82c-1.16,.44-2.52,.66-4.08,.66s-2.96-.22-4.25-.66-2.44-1.06-3.42-1.87l1.1-3.59c.38,.35,.81,.67,1.3,.96,.49,.29,1.02,.54,1.59,.76s1.15,.38,1.74,.51c.59,.13,1.18,.19,1.76,.19,.63,0,1.24-.08,1.83-.25,.59-.16,1.11-.42,1.55-.77,.44-.35,.79-.81,1.06-1.38s.4-1.25,.4-2.06c0-.61-.08-1.16-.23-1.66-.15-.5-.4-.93-.76-1.29-.35-.35-.83-.63-1.42-.83-.59-.2-1.34-.3-2.25-.3-.78,0-1.64,.08-2.57,.23-.93,.15-1.82,.39-2.65,.72l-1.1-.57Z"/>
      <path class="cls-1" d="M645.86,687.45c-.03-.23-.04-.47-.04-.74v-.74c0-1.49,.3-3.12,.89-4.9,.59-1.78,1.35-3.56,2.29-5.33,.93-1.78,1.96-3.49,3.08-5.14s2.21-3.09,3.27-4.33h-11.01v-3.97h15.32v3.97c-1.08,1.19-2.17,2.63-3.25,4.33-1.08,1.7-2.06,3.47-2.91,5.31-.86,1.84-1.55,3.64-2.08,5.41s-.79,3.3-.79,4.61v.79c0,.25,.01,.49,.04,.72h-4.8Z"/>
      <path class="cls-1" d="M537.86,552.41c1.46,.33,2.59,1.08,3.39,2.27,.79,1.19,1.19,2.62,1.19,4.31,0,1.06-.16,2.05-.49,2.97-.33,.92-.84,1.72-1.53,2.4-.69,.68-1.57,1.22-2.63,1.61s-2.31,.59-3.74,.59c-1.51,0-2.8-.21-3.86-.62s-1.92-.97-2.57-1.66-1.13-1.49-1.44-2.4c-.3-.91-.45-1.84-.45-2.8,0-1.66,.4-3.08,1.21-4.24,.81-1.16,1.93-1.95,3.37-2.38v-.15c-.88-.33-1.66-.95-2.33-1.85-.67-.91-1-2.05-1-3.44,0-1.81,.62-3.28,1.85-4.39,1.24-1.11,2.99-1.66,5.26-1.66s3.96,.54,5.22,1.61,1.89,2.51,1.89,4.33c0,1.34-.32,2.46-.96,3.39-.64,.92-1.43,1.58-2.36,1.99v.15Zm.23,6.69c0-.58-.08-1.16-.23-1.74-.15-.58-.39-1.1-.72-1.55-.33-.45-.75-.83-1.27-1.12-.52-.29-1.13-.43-1.83-.43s-1.35,.14-1.85,.43c-.5,.29-.92,.67-1.25,1.13-.33,.47-.57,.99-.72,1.57s-.23,1.15-.23,1.7c0,1.36,.37,2.4,1.12,3.1s1.72,1.06,2.93,1.06,2.19-.35,2.93-1.06c.74-.71,1.12-1.74,1.12-3.1Zm-1.13-11.61c0-.98-.25-1.76-.74-2.33s-1.22-.85-2.17-.85-1.65,.27-2.16,.81c-.5,.54-.76,1.32-.76,2.33,0,1.06,.26,1.89,.79,2.5,.53,.6,1.23,.91,2.12,.91s1.59-.3,2.12-.91c.53-.61,.79-1.42,.79-2.46Z"/>
      <g>
        <path class="cls-1" d="M515.09,243.48h-4.35v-18.38l-3.06,1.36-.83-3.78,8.25-4.16v24.96Z"/>
        <path class="cls-1" d="M530.45,218.33c1.61,0,3.04,.35,4.29,1.04s2.3,1.62,3.16,2.78c.86,1.16,1.51,2.5,1.95,4.03,.44,1.53,.66,3.13,.66,4.82s-.23,3.31-.68,4.86c-.45,1.55-1.12,2.93-1.99,4.12-.87,1.2-1.95,2.16-3.23,2.87-1.29,.72-2.76,1.08-4.43,1.08s-3.07-.34-4.29-1.02c-1.22-.68-2.24-1.6-3.04-2.76-.81-1.16-1.42-2.5-1.83-4.03-.42-1.53-.62-3.13-.62-4.82,0-1.79,.23-3.47,.68-5.05,.45-1.58,1.11-2.95,1.97-4.12,.86-1.17,1.91-2.1,3.16-2.78s2.67-1.02,4.25-1.02Zm-.11,21.97c.96,0,1.78-.23,2.48-.7,.69-.47,1.27-1.12,1.72-1.95,.45-.83,.79-1.82,1.02-2.95,.23-1.13,.34-2.36,.34-3.67s-.11-2.56-.34-3.67c-.23-1.11-.57-2.07-1.04-2.87-.47-.81-1.05-1.43-1.76-1.87-.71-.44-1.53-.66-2.46-.66s-1.73,.22-2.4,.66c-.67,.44-1.21,1.06-1.63,1.85-.42,.79-.73,1.75-.93,2.87-.2,1.12-.3,2.35-.3,3.69,0,3.05,.46,5.36,1.38,6.92,.92,1.56,2.22,2.34,3.91,2.34Z"/>
      </g>
      <g>
        <path class="cls-1" d="M649.25,122.72h-4.35v-18.38l-3.06,1.36-.83-3.78,8.25-4.16v24.96Z"/>
        <path class="cls-1" d="M661.84,122.72h-4.35v-18.38l-3.06,1.36-.83-3.78,8.25-4.16v24.96Z"/>
      </g>
      <line class="cls-10" x1="943.35" y1="164.76" x2="959.11" y2="137.47"/>
      <line class="cls-10" x1="1040.51" y1="261.41" x2="1067.8" y2="245.65"/>
      <line class="cls-10" x1="1105.13" y1="392.61" x2="1073.61" y2="392.61"/>
      <line class="cls-10" x1="1063.94" y1="537.75" x2="1036.64" y2="521.99"/>
      <line class="cls-10" x1="582.84" y1="259.99" x2="555.55" y2="244.23"/>
      <line class="cls-10" x1="549.51" y1="393.42" x2="518" y2="393.42"/>
      <line class="cls-10" x1="558.67" y1="538.85" x2="585.96" y2="523.09"/>
      <line class="cls-10" x1="664.91" y1="647.03" x2="680.66" y2="619.74"/>
      <line class="cls-10" x1="958.68" y1="644.03" x2="942.92" y2="616.73"/>
      <line class="cls-10" x1="811.56" y1="653.25" x2="811.56" y2="684.77"/>
      <line class="cls-10" x1="681.61" y1="164.14" x2="665.85" y2="136.84"/>
      <path class="cls-1" d="M1127.01,381.97c.96-.58,2.06-1.06,3.31-1.44,1.25-.38,2.49-.57,3.73-.57,1.06,0,2.03,.15,2.91,.45s1.65,.73,2.29,1.27c.64,.54,1.14,1.19,1.49,1.95,.35,.76,.53,1.59,.53,2.5,0,1.34-.34,2.43-1.02,3.27-.68,.84-1.54,1.56-2.57,2.14,1.51,.5,2.69,1.26,3.54,2.27,.84,1.01,1.27,2.33,1.27,3.97,0,1.06-.19,2.06-.57,3.01-.38,.95-.96,1.77-1.74,2.48-.78,.71-1.75,1.27-2.91,1.68-1.16,.42-2.51,.62-4.05,.62-3.13,0-5.7-.86-7.72-2.57l1.06-3.44c.88,.73,1.87,1.31,2.95,1.74s2.24,.64,3.48,.64c1.59,0,2.79-.37,3.61-1.12,.82-.74,1.23-1.83,1.23-3.27,0-1.29-.37-2.3-1.12-3.04s-1.99-1.12-3.73-1.12h-1.02v-3.29h1.17c1.11,0,1.97-.35,2.57-1.06,.61-.71,.91-1.64,.91-2.8,0-1.03-.32-1.76-.95-2.17s-1.39-.62-2.27-.62c-.48,0-.98,.05-1.49,.15-.52,.1-1.02,.25-1.49,.43-.48,.19-.93,.4-1.34,.64-.42,.24-.78,.5-1.08,.78l-.98-3.48Z"/>
      <path class="cls-3" d="M817.23,604.41v-217.28"/>
      <path class="cls-3" d="M817.23,383.23c53.87,14.89,107.75,29.78,161.62,44.68"/>
    </g>
    <path class="cls-8" d="M224.53,158.55c-.15-1.58,.8-2.98,2.04-3.32,1.54-.42,3.45,.78,3.7,2.81"/>
    <path class="cls-8" d="M247.3,158.55c.15-1.58-.8-2.98-2.04-3.32-1.54-.42-3.45,.78-3.7,2.81"/>
    <rect class="cls-12" width="1200" height="790"/>
    <path class="cls-2" d="M617.58,641.12c23.7-59.92,47.71-119.68,71.56-179.49,.46-1.08,.82-2.26,1.18-3.54,.62-1.95-3.44-3.59-8.98-3.59H337.54c-5.54,0-10.98-4.41-12.11-9.85-3.33-16.11-6.62-31.96-9.9-47.66-1.13-5.44-6.57-9.85-12.11-9.85h-51.81c-5.54,0-10.05,4.51-10.05,10.05v5.23c0,5.54,4.51,10.05,10.05,10.05h31.04c5.54,0,10.98,4.41,12.06,9.85,18.93,93.21,37.76,185.96,56.69,278.96,1.13,5.44-2.05,12.11-5.75,16.21-5.18,5.75-8.41,13.29-8.36,21.39,.05,17.65,14.52,32.11,32.11,32.16,17.49,0,32.42-14.67,32.47-32.01,0-3.9-.72-7.64-2.1-11.18-2-5.18-.51-8.67,5.08-8.67h159.74c5.54,0,7.08,3.49,5.03,8.67-1.33,3.39-2.1,7.03-2.21,10.82-.41,17.03,14.72,32.32,32.06,32.42,17.6,.1,32.37-14.26,32.52-31.75,.1-9.85-4.57-18.93-11.75-24.98-4.26-3.59-8.57-8.52-8.57-12.62s-4.51-7.44-10.05-7.44h-214.89c-5.54,0-10.98-4.41-12.11-9.85-1.8-8.77-3.59-17.44-5.39-26.32-1.13-5.44,.26-9.85,3.13-9.85h5.13c76.33,0,152.67-.05,228.95,.15,6-.05,8.87-1.64,11.13-7.34h0Z"/>
    <g>
      <path class="cls-1" d="M316.76,303.71c.31-.04,16.97-1.02,19.85-.23,2.68,.73,9.48,4.03,11.47,5.03,4.6,2.31,.12,5.61-3.37,5.31-4.94-.43-6.76-1.32-8.81-1.01-1.14,.18-2.11,.45-2.99,.76,1.83,1.55,9.4,6.87,15.21,9.11,3.27,1.26,6.23,2.13,10.96,3.64,2.11,.68,1.77,3.46-.64,3.91-1.7,.32-7.54,.34-12.67-1.6-2.04-.77-4.09-1.62-5.97-2.49-.04,.19,4.36,2.76,6.5,3.73,3.1,1.42,6.23,1.99,10.76,3.66,2.08,.77,1.52,3.19-.91,3.53-.65,.09-1.89,.2-3.44,.18,.85,1.1,.25,2.83-1.67,3.08-.9,.12-2.79-.05-5.14-.42-.28,.57-.88,1.17-1.83,1.17-16.95,.05-27.07-9.2-36.35-11.36-14.79-14.93-2-23.89,9.05-26.01Z"/>
      <g>
        <g>
          <path class="cls-14" d="M193.51,762.74c-.28,.75-.52,1.2-.52,1.2-3.73,1.83-25.9-3.3-32.13-7.49-5.15-3.46-10.26-14.02-10.26-14.02l-3.31,10.81c-3.51,.87-8.26-.82-10.16-2.5,0,0-.34-14.54,.1-18.37,.03-.25,.06-.46,.1-.61,.59-2.5,5.92-12.54,5.92-12.54,7.4-9.63,22.14-5.96,24.21,5.44,0,0,1.82,14.6,22.42,25.17,6.47,3.32,4.69,10.15,3.63,12.91Z"/>
          <path class="cls-14" d="M193.51,762.74c-.28,.75-.52,1.2-.52,1.2-3.73,1.83-25.9-3.3-32.13-7.49-5.15-3.46-10.26-14.02-10.26-14.02l-3.31,10.81c-3.51,.87-8.26-.82-10.16-2.5,0,0-.34-14.54,.1-18.37l.1-.61s10.7,5.92,12.78,6.66c2.08,.74,7.4,12.33,13.49,17.19,5.11,4.07,23.72,6.43,29.92,7.12Z"/>
        </g>
        <path class="cls-1" d="M192.38,354.13c.09-1.24,33.07,145.63,31.89,185.13-.74,24.6-45.77,134.53-59.49,182.38-2.63,9.18-17.88,3.92-16.76-5.61,5.38-45.8,5.04-72.11,25.26-171.64,3.15-15.5-52.48-154.43-48.07-186.98,4.4-32.55,49.8-50.27,67.18-3.27Z"/>
        <g>
          <path class="cls-14" d="M151.61,769.19c-.32,.84-.58,1.34-.58,1.34-4.17,2.05-29-3.7-35.97-8.38-5.77-3.88-11.49-15.7-11.49-15.7l-3.71,12.11c-3.93,.97-9.25-.92-11.37-2.8,0,0-.38-16.28,.11-20.56,.03-.28,.07-.51,.11-.68,.66-2.79,6.63-14.04,6.63-14.04,8.28-10.79,24.79-6.67,27.11,6.09,0,0,2.04,16.35,25.1,28.18,7.25,3.72,5.25,11.36,4.06,14.46Z"/>
          <path class="cls-14" d="M152.31,769.19c-.32,.84-.58,1.34-.58,1.34-4.17,2.05-29-3.7-35.97-8.38-5.77-3.88-11.49-15.7-11.49-15.7l-3.71,12.11c-3.93,.97-9.25-.92-11.37-2.8,0,0-.38-16.28,.11-20.56l.11-.68s11.98,6.63,14.3,7.46c2.33,.83,8.28,13.81,15.11,19.25,5.72,4.56,26.55,7.2,33.49,7.97Z"/>
        </g>
        <path class="cls-1" d="M159.81,363.6c.26,12.78-1.71,149.15-13.52,186.48-7.36,23.26-22.28,131.09-27.52,169.24-1.04,7.56-6.55,8.49-10.83,7.08-3.91-1.28-8.37-3.44-8.87-9.51-4.07-49.4-18.98-111.25-.85-171.62,4.53-15.08-16.47-170.77-3.46-200.42,13.01-29.65,64.08-28.54,65.04,18.74Z"/>
        <path class="cls-13" d="M226.7,511.06c-12.87-3.57-31.5,.64-55.95,4.42-3.33,.51-6.76,1.02-10.31,1.5-22.18,2.99-48.59,4.87-79.29,.56,0,0-1.62-7.23-3.42-19.01-5.7-37.45-13.14-120.83,24.38-163.61,49.31-56.23,86.21-26.52,88.8,3.24l1.46,13.4s22.22,56.33,33.1,148.56c.42,3.59,.83,7.24,1.22,10.94Z"/>
        <g>
          <path class="cls-14" d="M163.4,203.95c9.39-5.33,25.43-7.08,38.07,10.92,12.64,18,18.21,60.36,31.61,74.69,7.99,8.55,68.74,11.02,73.9,13.61,3.36,1.69,.25,22.73-.85,25.73-2.31,6.27-67.95,4.72-89.31-3.7-21.37-8.42-73.59-109.8-53.42-121.25Z"/>
          <path class="cls-14" d="M144.3,188.32s52.01,8.67,53.75,24.54c.73,6.65-8.34,20.06-6,26.88,3.42,9.96,8.87,15.74-1.18,39.38-8.13,19.11,5.82,58.67,5.4,63.38-1.58,17.61-29.5,20.83-40.95,20.55-16.32-.39-63.27-10.89-63.27-21.18,0-8.92,6.22-30.24,8.33-45.53,2.11-15.28-25.52-75.3-17.63-88.64,15.28-25.82,61.55-19.39,61.55-19.39Z"/>
          <g>
            <path class="cls-1" d="M98.95,350.7c.28,.11,14.97,7.01,17.07,9.02,1.95,1.86,6.23,7.85,7.47,9.62,2.86,4.11-2.51,4.85-5.35,2.97-4.02-2.66-5.16-4.27-7.06-4.95-1.06-.38-2.01-.59-2.91-.74,.84,2.17,4.84,10.24,8.77,14.85,2.21,2.59,4.33,4.71,7.67,8.2,1.49,1.56-.1,3.78-2.36,3.04-1.6-.52-6.6-3.21-10.08-7.25-1.38-1.6-2.74-3.29-3.94-4.9-.12,.14,2.45,4.38,3.82,6.2,1.99,2.65,4.4,4.59,7.5,8.12,1.42,1.62-.19,3.43-2.42,2.6-.6-.22-1.7-.71-3.02-1.44,.22,1.34-1.1,2.54-2.86,1.86-.83-.32-2.36-1.34-4.2-2.74-.51,.36-1.26,.52-2.1,.15-9.18-4.02-23-20.91-25.78-26.58-5.71-19.63,9.38-21.35,19.8-18.02Z"/>
            <path class="cls-14" d="M105.76,195.86c8.4,6.79,15.91,21.06,3.8,39.42-12.12,18.36-46.62,37.45-55.04,55.17-5.02,10.57,41.59,55.9,41.68,61.67,.09,5.78-8.77,19.85-12.16,21.5-6.01,2.92-71.49-60.64-71.49-83.61s75.17-108.73,93.22-94.16Z"/>
          </g>
          <path class="cls-1" d="M129.16,159.32s2.2,15.93-2.53,25.17c-1.39,2.71-5.88,3.35-8.08,4.7-5.75,3.52,19.58,32.48,41.95,39.25,0,0,16.23-19.77,8.78-30.78-7.44-11.02-9.27-2.96-8.9-18.01,.32-13.03,1.94-20.78,1.94-20.78l-33.16,.45Z"/>
        </g>
      </g>
      <g>
        <path d="M104.34,132.39c0,4.13,.56,8.19,1.67,11.93,0,0,0,.01,0,.01,.22,.74,.47,1.48,.73,2.19,32.31,25.74,70.9,.85,70.9,.85,20.88-23.57,2.79-54.1-20.52-47.08,0,0-15.95-17.68-39.01,.62-9.25,7.35-13.8,19.71-13.8,31.47Z"/>
        <g>
          <g>
            <path d="M156.83,113.71c16.93-7.75,30.92,4.84,25.52,24.3-5.93,21.38-26.6,14.92-26.6,14.92l1.08-39.22Z"/>
            <path class="cls-1" d="M130.93,148.64l-.57,38.99s6.02,7.72,15.99,7.72c12.02,0,14.68-3.02,14.68-3.02l-.53-27.6-.42-12.67-29.15-3.42Z"/>
            <path class="cls-1" d="M130.31,111.8l4.7,51.49c.22,2.3,1.78,4.23,3.98,4.94l22.03,6.92c1.87,.58,3.92,.17,5.42-1.1l10.65-9.07c1.42-1.2,2.17-3.02,2-4.87l-.17-1.77-1.88-20.59-1.08-11.95c-.92-9.95-9.72-17.27-19.67-16.37l-25.98,2.38Z"/>
            <path d="M127.44,141.87c4.71-1.28,10.35-3.31,16.3-6.63,12.92-7.21,20.78-16.85,24.98-23-3.37-3.19-6.73-6.37-10.1-9.56l-36.32,4.67,5.14,34.51Z"/>
            <path class="cls-1" d="M140.03,149.42c.53,5.78-3.73,10.89-9.51,11.42-5.78,.53-10.89-3.73-11.42-9.51-.53-5.78,3.73-10.89,9.51-11.42,5.78-.53,10.89,3.73,11.42,9.51Z"/>
            <path d="M151.74,139.71c.12,1.29,1.14,2.25,2.29,2.15,1.15-.1,1.98-1.24,1.86-2.53-.12-1.29-1.14-2.25-2.29-2.15-1.15,.1-1.98,1.24-1.86,2.53Z"/>
            <path d="M171.04,137.94c.12,1.29,1.14,2.25,2.29,2.14,1.15-.1,1.98-1.23,1.86-2.52-.12-1.29-1.14-2.25-2.29-2.14-1.15,.1-1.98,1.23-1.86,2.52Z"/>
            <path class="cls-9" d="M163.82,141.35c.08,2.67,.92,4.22,1.68,5.15,1.68,2.06,3.93,2.26,4.29,4.23,.2,1.13-.33,2.28-.46,2.55-.18,.36-.59,1.2-1.51,1.74-1.55,.91-3.29,.22-3.53,.12"/>
          </g>
          <path class="cls-9" d="M156.25,161.93c.51,.67,1.61,1.91,3.43,2.61,3.1,1.18,5.92-.16,6.78-.56,2.65-1.26,3.98-3.37,4.47-4.26"/>
        </g>
      </g>
    </g>
    <g>
      <path class="cls-5" d="M419.31,560.36h-40v40h57.4v20h-80.4v-132h76.4v20h-53.4v32h40v20Z"/>
      <path class="cls-5" d="M548.11,508.36h-38.2v112h-23v-112h-38.2v-20h99.4v20Z"/>
      <path class="cls-5" d="M630.71,560.36h-37.8v60h-23v-132h75.4v20h-52.4v32h37.8v20Z"/>
    </g>
  </g>
</svg>